<?xml version="1.0" standalone="no"?>
<!DOCTYPE svg PUBLIC "-//W3C//DTD SVG 1.1//EN" "http://www.w3.org/Graphics/SVG/1.1/DTD/svg11.dtd" >
<svg xmlns="http://www.w3.org/2000/svg" xmlns:xlink="http://www.w3.org/1999/xlink" version="1.1">
<metadata>
Created by FontForge 20170731 at Fri May  5 14:19:05 2017
 By Aleksey,,,
Copyright 2014, Erin McLaughlin (hello@erinmclaughlin.com). Copyright 2010, Google Inc. All Rights Reserved.
</metadata>
<defs>
<font id="Yantramanav-Medium" horiz-adv-x="0" >
  <font-face 
    font-family="Yantramanav Medium"
    font-weight="500"
    font-stretch="normal"
    units-per-em="2048"
    panose-1="2 0 0 0 0 0 0 0 0 0"
    ascent="1638"
    descent="-410"
    x-height="930"
    cap-height="1310"
    bbox="-1017 -687.019 3127 1907"
    underline-thickness="50"
    underline-position="-200"
    unicode-range="U+000D-F02AE"
  />
<missing-glyph horiz-adv-x="817" 
d="M406 594l-231 -545h463zM380 655l-241 568v-1137zM432 655l247 -579v1158zM175 1262l231 -546l232 546h-463zM727 1310v-1310h-637v1310h637z" />
    <glyph glyph-name=".notdef" horiz-adv-x="817" 
d="M406 594l-231 -545h463zM380 655l-241 568v-1137zM432 655l247 -579v1158zM175 1262l231 -546l232 546h-463zM727 1310v-1310h-637v1310h637z" />
    <glyph glyph-name=".null" 
 />
    <glyph glyph-name="uni000D" unicode="&#xd;" horiz-adv-x="505" 
 />
    <glyph glyph-name="space" unicode=" " horiz-adv-x="520" 
 />
    <glyph glyph-name="exclam" unicode="!" horiz-adv-x="697" 
d="M445 205v-205h-217v205h217zM444 1310v-870h-216v870h216z" />
    <glyph glyph-name="quotedbl" unicode="&#x22;" horiz-adv-x="909" 
d="M403 1404v-271l-105 -219h-98l-12 208v282h215zM715 1404v-271l-105 -219h-98l-12 217v273h215z" />
    <glyph glyph-name="numbersign" unicode="#" horiz-adv-x="1125" 
d="M54 369v142h235l52 282h-219v143h246l70 374h151l-71 -374h202l70 374h151l-70 -374h187v-143h-214l-52 -282h199v-142h-226l-68 -369h-151l69 369h-203l-68 -369h-150l68 369h-208zM491 793l-52 -282h203l52 282h-203z" />
    <glyph glyph-name="dollar" unicode="$" horiz-adv-x="1048" 
d="M683 186q55 48 55 129t-49.5 131t-167.5 92q-198 67 -289 159.5t-91 244.5t90.5 248t247.5 114v196h144v-198q156 -24 242 -132.5t86 -287.5h-218q0 113 -50.5 178.5t-139.5 65.5t-136 -48t-47 -129.5t48 -129.5t174 -92q198 -72 286.5 -162.5t88.5 -244t-93 -246.5
t-260 -110v-176h-143v175q-171 18 -270.5 121t-95.5 289l1 5h213q0 -123 59 -180.5t159 -57.5l1 -2q100 0 155 48z" />
    <glyph glyph-name="percent" unicode="%" horiz-adv-x="1354" 
d="M872 319v-70q0 -60 34.5 -99.5t94 -39.5t91 38t31.5 101v70q0 61 -33 100t-92 39t-92.5 -39t-33.5 -100zM720 249v70q0 118 75 194t202.5 76t202.5 -76t75 -194v-70q0 -119 -74.5 -194.5t-202 -75.5t-203 76t-75.5 194zM1054 1120l-640 -1024l-112 65l639 1024zM242 1056
v-69q0 -61 33.5 -99.5t92.5 -38.5t91.5 39t32.5 99v69q0 61 -33.5 100.5t-91.5 39.5t-91.5 -39.5t-33.5 -100.5zM90 987v69q0 119 75 195t202.5 76t202.5 -76t75 -195v-69q0 -118 -74.5 -193.5t-202 -75.5t-203 75.5t-75.5 193.5z" />
    <glyph glyph-name="ampersand" unicode="&#x26;" horiz-adv-x="1178" 
d="M483 -21v-1q-195 0 -311 102.5t-116 270.5q0 105 58 184.5t187 164.5q-68 89 -99.5 157.5t-31.5 138.5q0 154 92.5 242.5t242.5 88.5t240 -84.5t90 -208.5q0 -86 -44 -154.5t-133 -133.5l-90 -65l274 -326q77 122 77 268h177q0 -252 -132 -412l176 -209l-1 -4h-247
l-73 85q-151 -104 -336 -104zM383 546q-108 -83 -108 -181.5t57 -154.5t165 -56t208 64l-295 348zM612.5 1114.5q-39.5 37.5 -102 37.5t-99 -42.5t-36.5 -116t88 -185.5l102 68q50 33 68.5 68t18.5 84t-39.5 86.5z" />
    <glyph glyph-name="quotesingle" unicode="'" horiz-adv-x="597" 
d="M403 1404v-216l-105 -257h-98l-12 238v235h215z" />
    <glyph glyph-name="parenleft" unicode="(" horiz-adv-x="849" 
d="M197 519v16q0 171 38 329t101.5 275t142 201t162.5 125l6 -1l40 -115q-130 -100 -212 -309.5t-82 -503.5v-17q0 -294 81.5 -503t212.5 -316l-40 -111h-6q-84 41 -162.5 125t-142 201t-101.5 275t-38 329z" />
    <glyph glyph-name="parenright" unicode=")" horiz-adv-x="849" 
d="M659 532v-12q0 -136 -25.5 -266t-69.5 -234t-102 -192q-115 -172 -254 -239h-5l-41 111q129 99 211.5 311t82.5 507v17q0 289 -84 501.5t-210 315.5l41 111h5q84 -40 164 -125t144.5 -203t103.5 -276t39 -327z" />
    <glyph glyph-name="asterisk" unicode="*" horiz-adv-x="806" 
d="M111 690l182 244l-269 80l48 152l266 -105l-11 309h156l-13 -315l262 103l47 -154l-272 -79l175 -239l-127 -95l-159 258l-157 -251z" />
    <glyph glyph-name="plus" unicode="+" horiz-adv-x="1027" 
d="M617 1100v-364h342v-200h-342v-390h-212v390h-344v200h344v364h212z" />
    <glyph glyph-name="comma" unicode="," horiz-adv-x="416" 
d="M327 186v-186l-140 -281h-138l63 289v178h215z" />
    <glyph glyph-name="hyphen" unicode="-" horiz-adv-x="605" 
d="M536 697v-176h-472v176h472z" />
    <glyph glyph-name="period" unicode="." horiz-adv-x="515" 
d="M356 210v-210h-218v210h218z" />
    <glyph glyph-name="slash" unicode="/" horiz-adv-x="755" 
d="M718 1298l-515 -1423h-201l516 1423h200z" />
    <glyph glyph-name="zero" unicode="0" horiz-adv-x="1048" 
d="M734 471v365q0 316 -211 316t-211 -316v-365q0 -317 213 -317q209 0 209 317zM953 803v-300q0 -254 -113 -389t-315.5 -135t-316.5 135t-114 389v300q0 252 113.5 388t315 136t316 -136t114.5 -388z" />
    <glyph glyph-name="one" unicode="1" horiz-adv-x="1048" 
d="M646 0h-218v1103h-267v161l485 46v-1310z" />
    <glyph glyph-name="two" unicode="2" horiz-adv-x="1048" 
d="M968 175v-176h-870v150l427 466q103 113 143 186.5t40 154t-51.5 139t-138.5 58.5q-113 0 -169.5 -63.5t-56.5 -179.5h-212l-2 5q-4 180 116 297t316 117t306.5 -103t110.5 -274q0 -107 -58.5 -206.5t-201.5 -257.5l-292 -308l3 -5h590z" />
    <glyph glyph-name="three" unicode="3" horiz-adv-x="1048" 
d="M351 580v172h152q104 0 152 51t48 148.5t-51 149t-144.5 51.5t-149.5 -51t-56 -134h-210l-2 6q-5 151 112 252.5t305.5 101.5t301.5 -97.5t113 -275.5q0 -87 -52.5 -164.5t-144.5 -120.5q109 -38 162.5 -117t53.5 -187q0 -178 -121.5 -282t-314 -104t-313 99t-115.5 266
l2 5h211q0 -88 58.5 -141.5t158.5 -53.5t158 54.5t58 161t-53.5 158.5t-166.5 52h-152z" />
    <glyph glyph-name="four" unicode="4" horiz-adv-x="1048" 
d="M618 467v532l-5 2l-18 -39l-329 -495h352zM836 1310v-843h166v-176h-166v-291h-218v291h-562l-6 134l561 885h225z" />
    <glyph glyph-name="five" unicode="5" horiz-adv-x="1048" 
d="M907 1306v-189h-510l-40 -328q88 66 205 67q185 2 289 -115.5t104 -320.5t-112 -322.5t-316 -119.5q-179 0 -294.5 97.5t-110.5 268.5l1 4l205 7q0 -94 54.5 -147.5t150.5 -53.5t150 70t54 191t-56 194t-149 73t-138 -28t-65 -85l-190 13l76 724h692z" />
    <glyph glyph-name="six" unicode="6" horiz-adv-x="1048" 
d="M709 235q56 80 56 201.5t-58 194.5t-157 73q-161 0 -229 -109v-94q0 -163 65.5 -254.5t173.5 -91.5q93 0 149 80zM611 1328q141 0 251 -55l-41 -169q-108 46 -208 46q-132 0 -211.5 -101.5t-79.5 -272.5v-7q112 104 284 104t275.5 -121t103.5 -319.5t-117 -326
t-314.5 -127.5t-323.5 142t-126 391v250l-1 1q0 254 142.5 409.5t365.5 155.5z" />
    <glyph glyph-name="seven" unicode="7" horiz-adv-x="1048" 
d="M968 1310v-176q-113 -133 -186.5 -246.5t-120 -234t-71 -235t-43.5 -279.5l-13 -139h-219l14 139q35 296 139 537t288 459h-694v175h906z" />
    <glyph glyph-name="eight" unicode="8" horiz-adv-x="1048" 
d="M365 210.5q59 -56.5 158.5 -56.5t159 57.5t59.5 154t-61.5 157t-158 60.5t-156.5 -59.5t-60 -158t59 -155zM390 811.5q50 -53.5 134 -53.5t133.5 54t49.5 142t-51 143t-134.5 55t-132.5 -53t-49 -143.5t50 -144zM229.5 1231q108.5 96 292.5 96t294 -96t110 -268
q0 -99 -53 -175t-148 -118q110 -42 172 -124.5t62 -190.5q0 -180 -118 -278t-317.5 -98t-318 98t-118.5 278q0 108 62 191t172 125q-95 41 -147.5 116.5t-52.5 175.5q0 172 108.5 268z" />
    <glyph glyph-name="nine" unicode="9" horiz-adv-x="1048" 
d="M463 154q121 0 191 87.5t70 252.5v60q-92 -122 -247 -122q-189 0 -296.5 118t-107.5 319.5t120.5 329.5t301.5 128q207 0 326.5 -135t119.5 -383v-307q0 -245 -131 -384t-347 -139q-151 0 -271 54l29 167l-1 1q100 -47 243 -47zM352 1073q-59 -79 -59 -201t54.5 -196
t151.5 -74q80 0 137.5 31.5t88.5 84.5v117q0 156 -58 236.5t-167 80.5q-89 0 -148 -79z" />
    <glyph glyph-name="colon" unicode=":" horiz-adv-x="494" 
d="M320 189v-189h-196v189h196zM320 977v-189h-196v189h196z" />
    <glyph glyph-name="semicolon" unicode=";" horiz-adv-x="490" 
d="M340 139v-167l-126 -253h-124l57 260v160h193zM321 949v-189h-196v189h196z" />
    <glyph glyph-name="less" unicode="&#x3c;" horiz-adv-x="937" 
d="M810 712l-520 -200l-17 -3v-5l17 -3l520 -196v-219l-753 335v174l753 334v-217z" />
    <glyph glyph-name="equal" unicode="=" horiz-adv-x="1049" 
d="M906 547v-181h-775v181h775zM906 929v-181h-775v181h775z" />
    <glyph glyph-name="greater" unicode="&#x3e;" horiz-adv-x="959" 
d="M660 515l-545 199v215l778 -334v-174l-778 -335v215l545 204l16 1l1 6z" />
    <glyph glyph-name="question" unicode="?" horiz-adv-x="1159" 
d="M671 204v-204h-220v204h220zM667 371h-216q1 89 13.5 137.5t42.5 86t101 96.5q89 93 122 148t33 136.5t-48 131t-132 49.5t-134.5 -43.5t-50.5 -123.5h-207l-3 5q-3 156 105 246t291.5 90t288.5 -95t105 -265q0 -109 -60 -203.5t-173 -189.5q-51 -45 -64.5 -84
t-13.5 -122z" />
    <glyph glyph-name="at" unicode="@" horiz-adv-x="1643" 
d="M884 700v1q-105 0 -161.5 -91t-73.5 -280q-18 -244 107 -244q116 0 178 101q0 8 43 495q-46 18 -93 18zM860 1236q345 0 528 -219t169 -606q-8 -202 -111 -335q-50 -65 -129.5 -102.5t-180.5 -37.5q-69 0 -117.5 37.5t-69.5 107.5q-86 -143 -250 -143q-120 0 -184 107.5
t-48 283.5q22 232 126 371t255 139q94 0 154 -21.5t138 -74.5l-2 -3h4l-46 -522q-12 -159 78 -159q107 0 171.5 97.5t71.5 254.5q15 336 -126.5 517.5t-434.5 181.5q-275 0 -440.5 -196t-178.5 -529q-17 -331 131.5 -519t428.5 -188q79 0 160 18t138 48l34 -117
q-59 -37 -150.5 -58.5t-183.5 -21.5q-350 0 -539 223t-174 615q10 255 108 447.5t271 298t399 105.5z" />
    <glyph glyph-name="A" unicode="A" horiz-adv-x="1188" 
d="M957 0l-104 306h-513l-104 -306h-222l482 1310h207l476 -1310h-222zM596 1049l-193 -560h388l-190 560h-5z" />
    <glyph glyph-name="B" unicode="B" horiz-adv-x="1181" 
d="M662 596h-300v-421h275q115 0 175.5 51.5t60.5 149.5q0 220 -211 220zM362 1135v-376h241q104 0 162 48t58 136q0 192 -244 192h-217zM637 0h-494v1310h436q222 0 342 -90t120 -267q0 -89 -51 -159t-142 -105q116 -26 179.5 -110.5t63.5 -202.5q0 -183 -119 -279.5
t-335 -96.5z" />
    <glyph glyph-name="C" unicode="C" horiz-adv-x="1172" 
d="M888 433h211l2 -6q3 -202 -130 -325t-361 -123t-371.5 153.5t-143.5 395.5v249q0 242 142 396t372 154t363 -121.5t130 -328.5l-2 -5h-212q0 134 -72 207t-207.5 73t-215 -105t-79.5 -268v-251q0 -165 81 -269.5t217 -104.5t206 71.5t70 207.5z" />
    <glyph glyph-name="D" unicode="D" horiz-adv-x="1211" 
d="M562 1135h-200v-960h200q161 0 255 104.5t94 275.5v201q0 170 -94 274.5t-255 104.5zM568 0h-425v1310h425q250 0 406 -155t156 -401v-199q0 -246 -156 -400.5t-406 -154.5z" />
    <glyph glyph-name="E" unicode="E" horiz-adv-x="1068" 
d="M935 765v-175h-573v-415h665v-175h-884v1310h878v-175h-659v-370h573z" />
    <glyph glyph-name="F" unicode="F" horiz-adv-x="1069" 
d="M936 734v-175h-574v-559h-219v1310h885v-175h-666v-401h574z" />
    <glyph glyph-name="G" unicode="G" horiz-adv-x="1245" 
d="M641 -21q-239 0 -391 149.5t-152 387.5v274q0 239 144 388t373.5 149t358.5 -111.5t132 -298.5l-2 -6h-207q-7 112 -77.5 176.5t-203 64.5t-216 -101t-83.5 -259v-276q0 -160 90.5 -261t234.5 -101q188 0 259 80v266h-260v164h479l-1 -489q-60 -84 -181.5 -140
t-296.5 -56z" />
    <glyph glyph-name="H" unicode="H" horiz-adv-x="1310" 
d="M1166 1310v-1310h-217v559h-587v-559h-219v1310h219v-576h587v576h217z" />
    <glyph glyph-name="I" unicode="I" horiz-adv-x="530" 
d="M374 1310v-1310h-218v1310h218z" />
    <glyph glyph-name="J" unicode="J" horiz-adv-x="1033" 
d="M680 377v931h218v-931q0 -183 -115.5 -290.5t-309.5 -107.5t-307 99.5t-108 285.5l1 6h212q0 -216 210 -216q88 0 143.5 60.5t55.5 162.5z" />
    <glyph glyph-name="K" unicode="K" horiz-adv-x="1188" 
d="M362 567v-567h-219v1310h219v-555h125l411 555h259l-477 -625l514 -685h-267l-414 567h-151z" />
    <glyph glyph-name="L" unicode="L" horiz-adv-x="997" 
d="M362 1310v-1135h602v-175h-821v1310h219z" />
    <glyph glyph-name="M" unicode="M" horiz-adv-x="1615" 
d="M143 1310h284l377 -1008h5l378 1008h284v-1310h-219v446l22 568l-6 1l-389 -1015h-146l-387 1013l-6 -1l22 -566v-446h-219v1310z" />
    <glyph glyph-name="N" unicode="N" horiz-adv-x="1310" 
d="M1166 1310v-1310h-217l-582 957l-5 -2v-955h-219v1310h219l581 -955l6 1v954h217z" />
    <glyph glyph-name="O" unicode="O" horiz-adv-x="1258" 
d="M947 535v238q0 167 -88.5 270.5t-234 103.5t-229.5 -103.5t-84 -270.5v-238q0 -168 84 -272.5t230.5 -104.5t234 104t87.5 273zM1165 771v-236q0 -243 -151 -399.5t-388.5 -156.5t-385 156.5t-147.5 399.5v236q0 242 147.5 399t381.5 157q158 0 282.5 -72t192.5 -198.5
t68 -285.5z" />
    <glyph glyph-name="P" unicode="P" horiz-adv-x="1191" 
d="M362 1135v-463h293q119 0 181.5 63t62.5 167.5t-63 168.5t-181 64h-293zM655 497h-293v-497h-219v1310h512q216 0 339.5 -110.5t123.5 -296.5t-123 -296t-340 -110z" />
    <glyph glyph-name="Q" unicode="Q" horiz-adv-x="1273" 
d="M947 514v238q0 166 -88.5 270t-234 104t-229.5 -104t-84 -270v-238q0 -169 84 -273t230.5 -104t234 103.5t87.5 273.5zM1165 750v-236q0 -247 -159 -406l218 -212l-146 -130l-241 230q-100 -38 -214 -38q-235 0 -382.5 156.5t-147.5 399.5v236q0 242 147.5 399t381.5 157
q158 0 282.5 -72t192.5 -198.5t68 -285.5z" />
    <glyph glyph-name="R" unicode="R" horiz-adv-x="1220" 
d="M653 544h-291v-544h-219v1310h484q221 0 340 -98.5t119 -282.5q0 -203 -206 -293q208 -66 208 -310v-109q0 -143 63 -196v-21h-225q-57 48 -57 219v105q0 102 -57.5 161t-158.5 59zM362 1135v-416h254q131 0 191.5 50t60.5 153t-60.5 158t-180.5 55h-265z" />
    <glyph glyph-name="S" unicode="S" horiz-adv-x="1159" 
d="M786.5 200.5q67.5 48.5 67.5 132.5t-61.5 136t-213.5 93q-229 61 -343 156.5t-114 250t131 256.5t341 102t342.5 -114t128.5 -281l-2 -5h-210q0 103 -69 164.5t-190.5 61.5t-187 -51.5t-65.5 -131t69 -128.5t232 -94q216 -58 323.5 -158.5t107.5 -258.5t-130 -255
t-345 -97q-103 0 -196.5 28.5t-164.5 79.5t-112 128.5t-39 169.5l2 5h211q0 -116 80 -176.5t218 -60.5l1 -1q121 0 188.5 48.5z" />
    <glyph glyph-name="T" unicode="T" horiz-adv-x="1067" 
d="M1039 1310v-175h-396v-1135h-219v1135h-396v175h1011z" />
    <glyph glyph-name="U" unicode="U" horiz-adv-x="1256" 
d="M920 1308h220v-878q0 -215 -139.5 -333t-372.5 -118t-370 118.5t-137 332.5v878h218v-878q0 -136 75.5 -206t212.5 -70t215 70t78 206v878z" />
    <glyph glyph-name="V" unicode="V" horiz-adv-x="1170" 
d="M247 1310l312 -967l23 -91h6l22 89l313 969h234l-468 -1310h-208l-467 1310h233z" />
    <glyph glyph-name="W" unicode="W" horiz-adv-x="1631" 
d="M251 1310l210 -961l263 961h174l266 -967l208 967h215l-312 -1310h-199l-261 941h-6l-263 -941h-199l-311 1310h215z" />
    <glyph glyph-name="X" unicode="X" horiz-adv-x="1170" 
d="M311 1310l274 -484l276 484h260l-404 -649l419 -661h-263l-284 492l-285 -492h-259l412 661l-403 649h257z" />
    <glyph glyph-name="Y" unicode="Y" horiz-adv-x="1143" 
d="M677 0h-218v472l-447 838h244l315 -637l316 637h244l-454 -850v-460z" />
    <glyph glyph-name="Z" unicode="Z" horiz-adv-x="1094" 
d="M1023 175v-175h-944v137l658 998h-652v175h916v-131l-662 -1004h684z" />
    <glyph glyph-name="bracketleft" unicode="[" horiz-adv-x="722" 
d="M567 1509v-164h-151v-1472h151v-164h-366v1800h366z" />
    <glyph glyph-name="backslash" unicode="\" horiz-adv-x="770" 
d="M566 -125l-547 1423h212l548 -1423h-213z" />
    <glyph glyph-name="bracketright" unicode="]" horiz-adv-x="723" 
d="M156 1345v164h366v-1800h-366v164h151v1472h-151z" />
    <glyph glyph-name="asciicircum" unicode="^" horiz-adv-x="788" 
d="M379 1101l-146 -372h-185l269 654h154l268 -654h-185l-148 372l-11 48h-5z" />
    <glyph glyph-name="underscore" unicode="_" horiz-adv-x="832" 
d="M828 -19v-172h-825v172h825z" />
    <glyph glyph-name="grave" unicode="`" horiz-adv-x="594" 
d="M315 1451l167 -239h-177l-233 234l2 5h241z" />
    <glyph glyph-name="a" unicode="a" horiz-adv-x="1003" 
d="M390 -21q-151 0 -233 77.5t-82 218t111 218.5t315 78h170v86q0 77 -45 120t-124.5 43t-124 -35.5t-44.5 -93.5h-211l-1 5q-6 119 105 206.5t285 87.5t276 -87.5t102 -247.5v-433q0 -120 35 -224l-222 -1q-24 76 -30 143q-48 -72 -121 -116.5t-161 -44.5zM293 276h1
q0 -57 36.5 -89t110.5 -32t140 40t89 95v144h-174q-92 0 -147.5 -45.5t-55.5 -112.5z" />
    <glyph glyph-name="b" unicode="b" horiz-adv-x="1044" 
d="M533 811q-139 0 -200 -123v-408q59 -123 203 -123q110 0 163 77t53 218l-1 19q0 159 -54 249.5t-164 90.5zM970 471v-19q0 -217 -100 -345t-279 -128t-271 145l-21 -126h-184v1404h219v-541q93 129 255 129q181 0 281 -140t100 -379z" />
    <glyph glyph-name="c" unicode="c" horiz-adv-x="968" 
d="M292 469h-1q0 -315 226 -315q81 0 135 47t54 118h198l2 -5q5 -137 -110.5 -236t-278.5 -99q-211 0 -328 135t-117 355v31q0 219 117 354.5t328 135.5q176 0 285.5 -102t105.5 -260l-2 -5h-199q0 82 -52.5 136.5t-136.5 54.5q-118 0 -172 -84t-54 -230v-31z" />
    <glyph glyph-name="d" unicode="d" horiz-adv-x="1044" 
d="M75 452v19q0 237 100.5 378t279.5 141q155 0 251 -124v536h218v-1404h-183l-22 121q-96 -140 -269.5 -140t-274 128.5t-100.5 344.5zM293 471v-19q0 -140 53.5 -217.5t162.5 -77.5q133 0 198 115v424q-67 115 -196 115q-109 0 -163.5 -91t-54.5 -249z" />
    <glyph glyph-name="e" unicode="e" horiz-adv-x="976" 
d="M699 605q0 95 -48.5 152t-135 57t-139.5 -62.5t-65 -164.5l1 -5h387v23zM890 94q-133 -115 -348 -115t-338.5 134t-123.5 349v36q0 214 121.5 353.5t311.5 139t295.5 -118t105.5 -321.5v-129h-607l-2 -5q6 -119 69.5 -191t171.5 -72q86 0 148.5 20t124.5 63l70 -143h1z
" />
    <glyph glyph-name="f" unicode="f" horiz-adv-x="647" 
d="M405 0h-220v812h-148v162h148v113q0 161 87.5 248.5t246.5 87.5q53 0 138 -19l-22 -169q-54 9 -88 9q-142 0 -142 -157v-113h198v-162h-198v-812z" />
    <glyph glyph-name="g" unicode="g" horiz-adv-x="1044" 
d="M179 807q102 141 278 141t269 -145l22 127h182v-974q0 -189 -115.5 -291t-330.5 -102q-72 0 -153.5 20t-148.5 54l47 172q114 -60 243 -60t184 50.5t55 156.5v100q-95 -119 -253 -119q-178 0 -280 129t-102 345l1 19q0 236 102 377zM294 430v-19q0 -139 55 -217t165 -78
q135 0 196 113v427q-64 113 -194 113q-110 0 -166 -91.5t-56 -247.5z" />
    <glyph glyph-name="h" unicode="h" horiz-adv-x="1044" 
d="M332 848q104 144 268 144t248.5 -99t84.5 -300v-593h-218v595q0 114 -45 166t-139 52q-127 0 -200 -100v-713h-218v1404h218z" />
    <glyph glyph-name="i" unicode="i" horiz-adv-x="478" 
d="M348 974v-974h-218v974h218zM348 1404v-192h-218v192h218z" />
    <glyph glyph-name="j" unicode="j" horiz-adv-x="483" 
d="M140 930h219v-1030q0 -162 -83 -249.5t-234 -87.5q-60 0 -113 15l13 175q31 -11 78 -11q120 0 120 158v1030zM353 1360v-191h-219v191h219z" />
    <glyph glyph-name="k" unicode="k" horiz-adv-x="965" 
d="M334 426v-426h-218v1404h218v-803h91l246 373h257l-321 -443l369 -531h-254l-290 426h-98z" />
    <glyph glyph-name="l" unicode="l" horiz-adv-x="478" 
d="M348 1404v-1404h-218v1404h218z" />
    <glyph glyph-name="m" unicode="m" horiz-adv-x="1603" 
d="M908 673l2 -42v-631h-219v588q0 117 -42.5 171t-129.5 54q-128 0 -185 -98v-715h-219v974h199l12 -127q99 145 291 145t261 -173q95 173 292 173q151 0 234 -102t83 -303v-587h-219v588q0 122 -41.5 173.5t-129.5 51.5q-69 0 -118 -37t-71 -103z" />
    <glyph glyph-name="n" unicode="n" horiz-adv-x="1044" 
d="M609 992q156 0 239.5 -94t83.5 -286v-612h-219v610q0 109 -44.5 156t-139.5 47q-126 0 -197 -106v-707h-219v974l200 -1l13 -141q101 160 283 160z" />
    <glyph glyph-name="o" unicode="o" horiz-adv-x="1044" 
d="M293 473q0 -144 56 -232.5t172 -88.5t172 89q58 89 58 232v19q0 140 -58 229q-56 91 -172 91t-172.5 -89.5t-56.5 -229.5zM193 849q119 140 327.5 140t327.5 -140q119 -137 119 -355v-19q0 -220 -119.5 -357.5t-328 -137.5t-325.5 139q-119 137 -119 356l-1 18
q0 216 119 356z" />
    <glyph glyph-name="p" unicode="p" horiz-adv-x="1044" 
d="M968 432v-19q0 -216 -100 -344.5t-270.5 -128.5t-263.5 117v-473h-219v1348h185l21 -122q97 140 271.5 140t275 -140.5t100.5 -377.5zM751 413v19q0 155 -57.5 247t-166.5 92q-132 0 -193 -111v-440q61 -106 194 -106q110 0 166.5 80t56.5 219z" />
    <glyph glyph-name="q" unicode="q" horiz-adv-x="1044" 
d="M293 432v-19q0 -141 53.5 -220t162.5 -79q129 0 190 104v453q-63 104 -188 104q-108 0 -163 -92.5t-55 -250.5zM75 413v19q0 237 100.5 377.5t272.5 140.5t268 -136l25 118h177v-1348h-219v466q-89 -110 -245 -110q-178 0 -278.5 128.5t-100.5 344.5z" />
    <glyph glyph-name="r" unicode="r" horiz-adv-x="638" 
d="M333 0h-219v974h200l14 -141q80 159 230 159q38 0 68 -11l-27 -204l-93 3q-125 0 -173 -103v-677z" />
    <glyph glyph-name="s" unicode="s" horiz-adv-x="959" 
d="M617.5 173q45.5 32 45.5 86t-44.5 87t-159.5 58q-180 39 -267 107.5t-87 188.5t104.5 205t277 85t278 -86.5t100.5 -218.5l-2 -6h-209q0 63 -47 105t-124.5 42t-120 -34.5t-42.5 -88t40.5 -82.5t157.5 -52q187 -39 274 -108.5t87 -186.5q0 -132 -108 -213.5t-290 -81.5
t-294 94t-107 226l2 6h203q4 -82 58.5 -122t142.5 -40l1 -2q85 0 130.5 32z" />
    <glyph glyph-name="t" unicode="t" horiz-adv-x="641" 
d="M169 1208h219v-236h175v-162h-175v-538q0 -112 95 -112q38 0 68 12l23 -161q-61 -32 -147 -32q-258 0 -258 293v538h-148v162h148v236z" />
    <glyph glyph-name="u" unicode="u" horiz-adv-x="1044" 
d="M443 -21q-161 0 -247 101.5t-86 308.5v583h218v-584q0 -126 39.5 -178.5t126.5 -52.5q153 0 218 111v704h219v-974h-191l-19 142q-97 -161 -278 -161z" />
    <glyph glyph-name="v" unicode="v" horiz-adv-x="934" 
d="M255 974l199 -645l16 -79h5l17 79l194 645h226l-346 -974h-190l-347 974h226z" />
    <glyph glyph-name="w" unicode="w" horiz-adv-x="1377" 
d="M766 974l206 -693l5 1l153 692h209l-266 -974h-179l-209 674l-1 -9l-205 -665h-179l-267 974h210l156 -682l5 -1l203 683h159z" />
    <glyph glyph-name="x" unicode="x" horiz-adv-x="934" 
d="M287 974l177 -334l180 334h252l-306 -482l315 -492h-249l-188 342l-188 -342h-250l315 492l-306 482h248z" />
    <glyph glyph-name="y" unicode="y" horiz-adv-x="934" 
d="M208 -437q-40 0 -118 18l24 169q64 -4 66 -4q97 0 152 134l36 88l-354 962h239l186 -583l22 -97h5l214 680h239l-403 -1121q-44 -116 -116 -181t-192 -65z" />
    <glyph glyph-name="z" unicode="z" horiz-adv-x="934" 
d="M868 175v-175h-791v143l491 654h-482v177h758v-139l-497 -660h521z" />
    <glyph glyph-name="braceleft" unicode="{" horiz-adv-x="841" 
d="M307 91v184q0 98 -44 150.5t-131 52.5v153q87 0 131 52t44 150v185q0 161 76 265.5t247 152.5l42 -121q-86 -29 -124 -103.5t-38 -193.5v-185q0 -198 -157 -279q157 -81 157 -279v-184q0 -240 162 -295l-42 -124q-171 49 -247 154t-76 265z" />
    <glyph glyph-name="bar" unicode="|" horiz-adv-x="623" 
d="M387 1310v-1553h-150v1553h150z" />
    <glyph glyph-name="braceright" unicode="}" horiz-adv-x="842" 
d="M333 92v184q0 203 165 279q-165 74 -165 279v185q0 241 -164 297l43 121q169 -48 246 -153t77 -265v-185q0 -202 176 -202v-153q-176 0 -176 -203v-184q0 -160 -77 -265t-246 -154l-43 124q164 56 164 295z" />
    <glyph glyph-name="asciitilde" unicode="~" horiz-adv-x="1225" 
d="M844 387q-77 0 -142 28.5t-143 93.5q-95 81 -170 81q-54 0 -92 -46t-38 -111l-153 20q0 137 78 228t199 91q76 0 143.5 -29t129 -82.5t99.5 -72t85.5 -18.5t86.5 49t39 115l156 -20q0 -137 -79.5 -232t-198.5 -95z" />
    <glyph glyph-name="uni00A0" unicode="&#xa0;" horiz-adv-x="520" 
 />
    <glyph glyph-name="exclamdown" unicode="&#xa1;" horiz-adv-x="488" 
d="M131 -364l22 923h188l22 -923h-232zM154 922q33 33 90.5 33t90.5 -33t33 -84.5t-33 -84.5t-91 -33t-90.5 33t-32.5 84.5t33 84.5z" />
    <glyph glyph-name="cent" unicode="&#xa2;" horiz-adv-x="1034" 
d="M532 135q80 0 134 47t59 119h206q-4 -123 -91.5 -215t-221.5 -118v-211h-180v211q-165 30 -256.5 158.5t-91.5 327.5v25q0 193 92 322t256 159v203h180v-202q143 -25 226 -121.5t87 -239.5h-206q-6 88 -58.5 140t-135.5 52q-208 0 -221 -281l-1 -65q1 -311 223 -311z" />
    <glyph glyph-name="sterling" unicode="&#xa3;" horiz-adv-x="1085" 
d="M732 538h-274l6 -158q0 -123 -57 -198h626l-1 -182h-944v182h74q35 8 54.5 58t19.5 132l-6 166h-145v179h139l-7 218q0 182 111.5 287.5t295 105.5t288 -97.5t104.5 -264.5h-220q0 85 -47 132.5t-130 47.5t-129 -57.5t-46 -153.5l8 -218h280v-179z" />
    <glyph glyph-name="currency" unicode="&#xa4;" horiz-adv-x="1293" 
d="M328.5 743.5q-48.5 -91.5 -48.5 -199.5t49 -200.5t135 -145.5t185 -52.5t184.5 53.5t134.5 145t49 200t-48.5 199.5t-134.5 144.5t-185.5 53t-185.5 -53t-134.5 -144.5zM975 94q-142 -115 -324.5 -115t-325.5 114l-116 -119l-127 130l121 123q-90 141 -90 320t98 326
l-129 132l127 130l127 -131q140 104 314 104t315 -105l130 133l128 -131l-133 -136q96 -143 96 -320t-88 -319l125 -126l-128 -131z" />
    <glyph glyph-name="yen" unicode="&#xa5;" horiz-adv-x="1123" 
d="M983 668v-137h-314v-124h314v-136h-314v-271h-227v271h-319v136h319v124h-319v137h253l-353 642h252l284 -572l283 572h252l-353 -642h242z" />
    <glyph glyph-name="brokenbar" unicode="&#xa6;" horiz-adv-x="457" 
d="M329 -270h-207v716h207v-716zM329 1283v-682h-207v682h207z" />
    <glyph glyph-name="section" unicode="&#xa7;" horiz-adv-x="1145" 
d="M1049 363q0 -165 -154 -246q121 -91 121 -251t-121 -249t-339.5 -89t-346 98t-127.5 284l218 1q0 -99 69.5 -153.5t186 -54.5t179.5 42.5t63 113t-59 111t-229 91.5q-168 46 -254 95t-129 119q-41 71 -41 167q0 167 152 247q-61 46 -90.5 107t-29.5 150
q0 154 123.5 245.5t336 91.5t332.5 -100.5t120 -285.5h-219q0 96 -65 153.5t-174.5 57.5t-172 -42.5t-62.5 -117.5q0 -52 22.5 -84t81.5 -58.5t204 -65.5t233 -89.5t130 -121.5v1q41 -70 41 -167zM302 456q0 -73 44.5 -111.5t179.5 -82.5l161 -47l41 -15q104 42 104 148l1 1
q0 73 -60.5 116t-230.5 94q-61 16 -142 44q-98 -36 -98 -147z" />
    <glyph glyph-name="dieresis" unicode="&#xa8;" horiz-adv-x="811" 
d="M692 1277q-31 -30 -83.5 -30t-83.5 30t-31 76t31 76t83.5 30t83.5 -30t31 -76t-31 -76zM197 1248q-52 0 -82.5 30t-30.5 76t30.5 76t82.5 30t83 -30t31 -76t-31 -76t-83 -30z" />
    <glyph glyph-name="copyright" unicode="&#xa9;" horiz-adv-x="1444" 
d="M866 534h133l2 -5q3 -135 -74.5 -206t-221.5 -71t-229 95t-85 253v107q0 158 85 253t228.5 95t222 -71.5t75.5 -205.5l-2 -5h-133q0 84 -39.5 122.5t-123 38.5t-129.5 -61t-46 -165v-108q0 -105 46 -166t129.5 -61t122.5 38t39 123zM717 1214q-146 0 -267.5 -73
t-191.5 -202t-70 -285q0 -238 153.5 -400t375.5 -162t375.5 162t153.5 400q0 156 -70.5 285t-191.5 202t-267 73zM717 -21q-131 0 -249.5 52.5t-204 142t-135.5 215t-50 265.5q0 187 85 341.5t231.5 242.5t322.5 88t322 -88t231 -242.5t85 -341.5t-85 -342.5t-231.5 -244
t-321.5 -88.5z" />
    <glyph glyph-name="ordfeminine" unicode="&#xaa;" horiz-adv-x="822" 
d="M532 765q-70 -74 -178.5 -74t-167.5 55t-59 150q0 208 307 208h92v46q0 114 -105 114q-59 0 -91.5 -23t-32.5 -66l-156 13q0 93 78.5 151.5t202.5 58.5t192.5 -65.5t68.5 -184.5v-284q0 -88 24 -160h-160zM284 900q0 -79 106 -79q35 0 72.5 15.5t63.5 39.5v123h-96
q-68 -1 -107 -27.5t-39 -71.5z" />
    <glyph glyph-name="guillemotleft" unicode="&#xab;" horiz-adv-x="895" 
d="M478 857l-223 -360l223 -359h-151l-259 351v17l259 351h151zM837 857l-223 -360l223 -359h-151l-259 351v17l259 351h151z" />
    <glyph glyph-name="logicalnot" unicode="&#xac;" horiz-adv-x="1020" 
d="M866 762v-388h-180v234h-572v154h752z" />
    <glyph glyph-name="uni00AD" unicode="&#xad;" horiz-adv-x="605" 
d="M530 697v-176h-472v176h472z" />
    <glyph glyph-name="registered" unicode="&#xae;" horiz-adv-x="1444" 
d="M587 283h-136v765h253q139 0 215.5 -60.5t76.5 -169t-108 -166.5q57 -25 81.5 -73.5t24.5 -125.5q0 -120 15 -155v-15h-140q-11 29 -11 174q0 68 -30 98.5t-99 30.5l-142 1v-304zM587 927v-221h128q64 0 105 28t41 77q0 64 -32 89.5t-115 26.5h-127zM1176 373
q69 130 69 281t-67.5 278t-191.5 204t-269 77t-267 -73.5t-193 -203.5t-71 -282.5t71 -283t193 -205t266 -74.5t268 76t192 206zM162 315q-85 159 -85 340.5t84 336.5t234 246q150 89 322 89t322 -89q148 -91 232 -246t84 -338t-83.5 -337.5t-231.5 -246.5
q-148 -90 -322.5 -90t-321.5 89.5t-233 246.5z" />
    <glyph glyph-name="macron" unicode="&#xaf;" horiz-adv-x="888" 
d="M776 1440v-142h-654v142h654z" />
    <glyph glyph-name="degree" unicode="&#xb0;" horiz-adv-x="700" 
d="M239 1182q0 -47 33 -79.5t80.5 -32.5t78.5 32t31 79.5t-31.5 81.5t-78.5 34t-80 -34t-33 -81zM184 1012.5q-70 69.5 -70 169t70.5 170.5t167 71t165.5 -71t69 -170.5t-68 -169t-166 -69.5t-168 69.5z" />
    <glyph glyph-name="plusminus" unicode="&#xb1;" horiz-adv-x="988" 
d="M877 177v-176h-764v176h764zM601 1149v-340h309v-179h-309v-349h-194v349h-321v179h321v340h194z" />
    <glyph glyph-name="acute" unicode="&#xb4;" horiz-adv-x="600" 
d="M101 1233l175 273h250l-250 -273h-175z" />
    <glyph glyph-name="mu" unicode="&#xb5;" horiz-adv-x="1090" 
d="M527 115q151 0 204 109v707h219v-974h-201l-6 78q-84 -96 -216 -96q-109 0 -178 50v-405h-218v1348l217 -1v-572q2 -130 43 -187t136 -57z" />
    <glyph glyph-name="paragraph" unicode="&#xb6;" horiz-adv-x="905" 
d="M769 0h-189v468h-72q-207 0 -326.5 113.5t-119.5 307t120 307.5t327 114h260v-1310z" />
    <glyph glyph-name="periodcentered" unicode="&#xb7;" horiz-adv-x="520" 
d="M347.5 614.5q-35.5 -33.5 -93.5 -33.5t-92 33t-34 87t33.5 88t93 34t94 -34t34.5 -87.5t-35.5 -87z" />
    <glyph glyph-name="cedilla" unicode="&#xb8;" horiz-adv-x="475" 
d="M411 -246q0 -96 -76.5 -148.5t-217.5 -52.5l-6 123q59 0 91 21t32 60t-30.5 55t-105.5 21l29 125h159l-10 -49q135 -24 135 -155z" />
    <glyph glyph-name="ordmasculine" unicode="&#xba;" horiz-adv-x="842" 
d="M265 1074v-65q0 -89 41.5 -138.5t113 -49.5t112 48.5t41.5 136.5v72q0 87 -41 136.5t-113 49.5t-113 -49.5t-41 -140.5zM107 1013v65q0 145 85.5 232t226.5 87t226.5 -87.5t85.5 -236.5v-64q0 -145 -84.5 -232t-227 -87t-227.5 87.5t-85 235.5z" />
    <glyph glyph-name="guillemotright" unicode="&#xbb;" horiz-adv-x="895" 
d="M76 857h150l259 -351v-17l-259 -351h-150l222 359zM449 857h150l259 -351v-17l-259 -351h-150l222 359z" />
    <glyph glyph-name="onequarter" unicode="&#xbc;" horiz-adv-x="1339" 
d="M1043 1141l-640 -1024l-112 65l639 1024z" />
    <glyph glyph-name="onehalf" unicode="&#xbd;" horiz-adv-x="1421" 
d="M1005 1141l-640 -1024l-112 65l639 1024z" />
    <glyph glyph-name="threequarters" unicode="&#xbe;" horiz-adv-x="1461" 
d="M1170 1141l-640 -1024l-112 65l639 1024z" />
    <glyph glyph-name="questiondown" unicode="&#xbf;" horiz-adv-x="896" 
d="M279 -35q0 -168 168 -168q80 0 127.5 45t47.5 119h219q-2 -159 -109 -252.5t-288.5 -93.5t-283 90t-101.5 256q0 149 140 296l83 83q69 64 79 169l2 47h205q-2 -113 -25.5 -177.5t-89.5 -135.5l-93 -95q-81 -88 -81 -183zM462 953q58 0 90.5 -32.5t32.5 -84.5t-32.5 -85
t-90.5 -33t-91 33t-33 85t33 84.5t91 32.5z" />
    <glyph glyph-name="Agrave" unicode="&#xc0;" horiz-adv-x="1227" 
d="M955 0l-104 306h-513l-104 -306h-222l482 1310h207l476 -1310h-222zM594 1049l-193 -560h388l-190 560h-5zM604 1761l167 -239h-177l-233 234l2 5h241z" />
    <glyph glyph-name="Aacute" unicode="&#xc1;" horiz-adv-x="1227" 
d="M955 0l-104 306h-513l-104 -306h-222l482 1310h207l476 -1310h-222zM594 1049l-193 -560h388l-190 560h-5zM549 1543l175 273h250l-250 -273h-175z" />
    <glyph glyph-name="Acircumflex" unicode="&#xc2;" horiz-adv-x="1227" 
d="M955 0l-104 306h-513l-104 -306h-222l482 1310h207l476 -1310h-222zM594 1049l-193 -560h388l-190 560h-5zM945 1558h-176l-135 140l-134 -140h-174v12l244 248h129l246 -250v-10z" />
    <glyph glyph-name="Atilde" unicode="&#xc3;" horiz-adv-x="1227" 
d="M955 0l-104 306h-513l-104 -306h-222l482 1310h207l476 -1310h-222zM594 1049l-193 -560h388l-190 560h-5zM764 1567q-36 0 -62 8t-71 33.5t-65 32t-50 6.5t-53.5 -26t-23.5 -67l-134 7q0 100 57 167t143 67q35 0 123.5 -40.5t121.5 -40.5t56.5 26.5t23.5 67.5l135 -11
q0 -100 -57.5 -165t-143.5 -65z" />
    <glyph glyph-name="Adieresis" unicode="&#xc4;" horiz-adv-x="1227" 
d="M955 0l-104 306h-513l-104 -306h-222l482 1310h207l476 -1310h-222zM594 1049l-193 -560h388l-190 560h-5zM928 1587q-31 -30 -83.5 -30t-83.5 30t-31 76t31 76t83.5 30t83.5 -30t31 -76t-31 -76zM433 1558q-52 0 -82.5 30t-30.5 76t30.5 76t82.5 30t83 -30t31 -76
t-31 -76t-83 -30z" />
    <glyph glyph-name="Aring" unicode="&#xc5;" horiz-adv-x="1227" 
d="M955 0l-104 306h-513l-104 -306h-222l482 1310h207l476 -1310h-222zM594 1049l-193 -560h388l-190 560h-5zM650 1813q-44 0 -72.5 -29.5t-28.5 -72t29.5 -71.5t72 -29t71.5 28.5t29 71.5t-28.5 72.5t-72.5 29.5zM506.5 1580.5q-56.5 53.5 -56.5 131t57.5 132.5t142 55
t142 -55t57.5 -132.5t-56.5 -131t-143 -53.5t-143 53.5z" />
    <glyph glyph-name="AE" unicode="&#xc6;" horiz-adv-x="1733" 
d="M1691 176v-176h-808l-14 306h-451l-166 -306h-261l752 1310h892v-177h-581l15 -367h493v-177h-486l18 -413h597zM837 1083l-315 -583h339z" />
    <glyph glyph-name="Ccedilla" unicode="&#xc7;" horiz-adv-x="1203" 
d="M858 -251q0 -96 -76.5 -148.5t-217.5 -52.5l-6 123q59 0 91 21t32 60t-30.5 55t-105.5 21l29 125h159l-10 -49q135 -24 135 -155zM878 433h211l2 -6q3 -202 -130 -325t-361 -123t-371.5 153.5t-143.5 395.5v249q0 242 142 396t372 154t363 -121.5t130 -328.5l-2 -5h-212
q0 134 -72 207t-207.5 73t-215 -105t-79.5 -268v-251q0 -165 81 -269.5t217 -104.5t206 71.5t70 207.5z" />
    <glyph glyph-name="Egrave" unicode="&#xc8;" horiz-adv-x="1042" 
d="M922 765v-175h-573v-415h665v-175h-884v1310h878v-175h-659v-370h573zM534 1768l167 -239h-177l-233 234l2 5h241z" />
    <glyph glyph-name="Eacute" unicode="&#xc9;" horiz-adv-x="1042" 
d="M922 765v-175h-573v-415h665v-175h-884v1310h878v-175h-659v-370h573zM479 1550l175 273h250l-250 -273h-175z" />
    <glyph glyph-name="Ecircumflex" unicode="&#xca;" horiz-adv-x="1042" 
d="M922 765v-175h-573v-415h665v-175h-884v1310h878v-175h-659v-370h573zM875 1565h-176l-135 140l-134 -140h-174v12l244 248h129l246 -250v-10z" />
    <glyph glyph-name="Edieresis" unicode="&#xcb;" horiz-adv-x="1042" 
d="M922 765v-175h-573v-415h665v-175h-884v1310h878v-175h-659v-370h573zM858 1594q-31 -30 -83.5 -30t-83.5 30t-31 76t31 76t83.5 30t83.5 -30t31 -76t-31 -76zM363 1565q-52 0 -82.5 30t-30.5 76t30.5 76t82.5 30t83 -30t31 -76t-31 -76t-83 -30z" />
    <glyph glyph-name="Igrave" unicode="&#xcc;" horiz-adv-x="520" 
d="M380 1310v-1310h-218v1310h218zM216 1768l167 -239h-177l-233 234l2 5h241z" />
    <glyph glyph-name="Iacute" unicode="&#xcd;" horiz-adv-x="520" 
d="M359 1310v-1310h-218v1310h218zM139 1550l175 273h250l-250 -273h-175z" />
    <glyph glyph-name="Icircumflex" unicode="&#xce;" horiz-adv-x="520" 
d="M379 1310v-1310h-218v1310h218zM556 1565h-176l-135 140l-134 -140h-174v12l244 248h129l246 -250v-10z" />
    <glyph glyph-name="Idieresis" unicode="&#xcf;" horiz-adv-x="520" 
d="M381 1310v-1310h-218v1310h218zM540 1594q-31 -30 -83.5 -30t-83.5 30t-31 76t31 76t83.5 30t83.5 -30t31 -76t-31 -76zM45 1565q-52 0 -82.5 30t-30.5 76t30.5 76t82.5 30t83 -30t31 -76t-31 -76t-83 -30z" />
    <glyph glyph-name="Eth" unicode="&#xd0;" horiz-adv-x="1231" 
d="M593 740v-153h-206v-405h147q183 0 278.5 113.5t95.5 330.5v63q0 214 -92.5 326t-269.5 112h-159v-387h206zM537 0h-378v587h-168v153h168v570h387q175 0 309 -76.5t208 -219t74 -326.5v-66q0 -187 -74 -327.5t-211 -217.5t-315 -77z" />
    <glyph glyph-name="Ntilde" unicode="&#xd1;" horiz-adv-x="1309" 
d="M1151 1310v-1310h-217l-582 957l-5 -2v-955h-219v1310h219l581 -955l6 1v954h217zM792 1567q-36 0 -62 8t-71 33.5t-65 32t-50 6.5t-53.5 -26t-23.5 -67l-134 7q0 100 57 167t143 67q35 0 123.5 -40.5t121.5 -40.5t56.5 26.5t23.5 67.5l135 -11q0 -100 -57.5 -165
t-143.5 -65z" />
    <glyph glyph-name="Ograve" unicode="&#xd2;" horiz-adv-x="1273" 
d="M938 535v238q0 167 -88.5 270.5t-234 103.5t-229.5 -103.5t-84 -270.5v-238q0 -168 84 -272.5t230.5 -104.5t234 104t87.5 273zM1156 771v-236q0 -243 -151 -399.5t-388.5 -156.5t-385 156.5t-147.5 399.5v236q0 242 147.5 399t381.5 157q158 0 282.5 -72t192.5 -198.5
t68 -285.5zM620 1761l167 -239h-177l-233 234l2 5h241z" />
    <glyph glyph-name="Oacute" unicode="&#xd3;" horiz-adv-x="1273" 
d="M937 535v238q0 167 -88.5 270.5t-234 103.5t-229.5 -103.5t-84 -270.5v-238q0 -168 84 -272.5t230.5 -104.5t234 104t87.5 273zM1155 771v-236q0 -243 -151 -399.5t-388.5 -156.5t-385 156.5t-147.5 399.5v236q0 242 147.5 399t381.5 157q158 0 282.5 -72t192.5 -198.5
t68 -285.5zM564 1543l175 273h250l-250 -273h-175z" />
    <glyph glyph-name="Ocircumflex" unicode="&#xd4;" horiz-adv-x="1273" 
d="M937 535v238q0 167 -88.5 270.5t-234 103.5t-229.5 -103.5t-84 -270.5v-238q0 -168 84 -272.5t230.5 -104.5t234 104t87.5 273zM1155 771v-236q0 -243 -151 -399.5t-388.5 -156.5t-385 156.5t-147.5 399.5v236q0 242 147.5 399t381.5 157q158 0 282.5 -72t192.5 -198.5
t68 -285.5zM960 1558h-176l-135 140l-134 -140h-174v12l244 248h129l246 -250v-10z" />
    <glyph glyph-name="Otilde" unicode="&#xd5;" horiz-adv-x="1273" 
d="M937 535v238q0 167 -88.5 270.5t-234 103.5t-229.5 -103.5t-84 -270.5v-238q0 -168 84 -272.5t230.5 -104.5t234 104t87.5 273zM1155 771v-236q0 -243 -151 -399.5t-388.5 -156.5t-385 156.5t-147.5 399.5v236q0 242 147.5 399t381.5 157q158 0 282.5 -72t192.5 -198.5
t68 -285.5zM779 1567q-36 0 -62 8t-71 33.5t-65 32t-50 6.5t-53.5 -26t-23.5 -67l-134 7q0 100 57 167t143 67q35 0 123.5 -40.5t121.5 -40.5t56.5 26.5t23.5 67.5l135 -11q0 -100 -57.5 -165t-143.5 -65z" />
    <glyph glyph-name="Odieresis" unicode="&#xd6;" horiz-adv-x="1273" 
d="M937 535v238q0 167 -88.5 270.5t-234 103.5t-229.5 -103.5t-84 -270.5v-238q0 -168 84 -272.5t230.5 -104.5t234 104t87.5 273zM1155 771v-236q0 -243 -151 -399.5t-388.5 -156.5t-385 156.5t-147.5 399.5v236q0 242 147.5 399t381.5 157q158 0 282.5 -72t192.5 -198.5
t68 -285.5zM943 1587q-31 -30 -83.5 -30t-83.5 30t-31 76t31 76t83.5 30t83.5 -30t31 -76t-31 -76zM448 1558q-52 0 -82.5 30t-30.5 76t30.5 76t82.5 30t83 -30t31 -76t-31 -76t-83 -30z" />
    <glyph glyph-name="multiply" unicode="&#xd7;" horiz-adv-x="983" 
d="M203 214l-134 135l285 290l-285 290l134 135l283 -290l284 290l134 -135l-285 -290l285 -290l-134 -135l-284 289z" />
    <glyph glyph-name="Oslash" unicode="&#xd8;" horiz-adv-x="1271" 
d="M1183 614q0 -194 -66.5 -339t-190.5 -223.5t-279.5 -78.5t-272.5 68l-82 -135h-152l130 214q-175 175 -175 499v60q0 192 67 337t192 225q121 79 290.5 79t299.5 -91l78 129h151l-133 -219q142 -174 143 -460v-65zM955 612v68q0 151 -40 252l-440 -724q71 -48 165 -48
q154 0 234.5 115t80.5 337zM322 612q0 -186 64 -302l452 743q-77 77 -200 77q-148 0 -231 -115.5t-85 -327.5v-75z" />
    <glyph glyph-name="Ugrave" unicode="&#xd9;" horiz-adv-x="1202" 
d="M909 1308h220v-878q0 -215 -139.5 -333t-372.5 -118t-370 118.5t-137 332.5v878h218v-878q0 -136 75.5 -206t212.5 -70t215 70t78 206v878zM577 1761l167 -239h-177l-233 234l2 5h241z" />
    <glyph glyph-name="Uacute" unicode="&#xda;" horiz-adv-x="1202" 
d="M907 1308h220v-878q0 -215 -139.5 -333t-372.5 -118t-370 118.5t-137 332.5v878h218v-878q0 -136 75.5 -206t212.5 -70t215 70t78 206v878zM521 1543l175 273h250l-250 -273h-175z" />
    <glyph glyph-name="Ucircumflex" unicode="&#xdb;" horiz-adv-x="1202" 
d="M907 1308h220v-878q0 -215 -139.5 -333t-372.5 -118t-370 118.5t-137 332.5v878h218v-878q0 -136 75.5 -206t212.5 -70t215 70t78 206v878zM917 1558h-176l-135 140l-134 -140h-174v12l244 248h129l246 -250v-10z" />
    <glyph glyph-name="Udieresis" unicode="&#xdc;" horiz-adv-x="1202" 
d="M907 1308h220v-878q0 -215 -139.5 -333t-372.5 -118t-370 118.5t-137 332.5v878h218v-878q0 -136 75.5 -206t212.5 -70t215 70t78 206v878zM900 1587q-31 -30 -83.5 -30t-83.5 30t-31 76t31 76t83.5 30t83.5 -30t31 -76t-31 -76zM405 1558q-52 0 -82.5 30t-30.5 76
t30.5 76t82.5 30t83 -30t31 -76t-31 -76t-83 -30z" />
    <glyph glyph-name="Yacute" unicode="&#xdd;" horiz-adv-x="1123" 
d="M676 0h-218v472l-447 838h244l315 -637l316 637h244l-454 -850v-460zM491 1543l175 273h250l-250 -273h-175z" />
    <glyph glyph-name="Thorn" unicode="&#xde;" horiz-adv-x="1103" 
d="M352 883v-437h221q113 0 178 58t65 158.5t-63 159.5t-172 61h-229zM133 1310h219v-252h217q218 0 342 -106t124 -287.5t-124 -288t-341 -106.5h-218v-270h-219v1310z" />
    <glyph glyph-name="germandbls" unicode="&#xdf;" horiz-adv-x="1130" 
d="M121 -1v995q0 193 103 299.5t281 106.5t274 -84t96 -236q0 -57 -12.5 -101t-43.5 -93.5t-40.5 -78.5t-9.5 -67.5t28.5 -76.5t109.5 -104q80 -68 116.5 -129t36.5 -129q0 -154 -97 -237t-276 -83q-71 0 -148 17.5t-112 40.5l44 175q41 -26 98 -42.5t106 -16.5q84 0 126 37
t42 100q0 44 -31 84.5t-110 103t-115 123t-36 132.5q0 45 28.5 107.5t56.5 123t28 99.5q0 73 -42 116.5t-113 43.5q-165 0 -169 -223l-1 -1003h-218z" />
    <glyph glyph-name="agrave" unicode="&#xe0;" horiz-adv-x="997" 
d="M382 -21q-151 0 -233 77.5t-82 218t111 218.5t315 78h170v86q0 77 -45 120t-124.5 43t-124 -35.5t-44.5 -93.5h-211l-1 5q-6 119 105 206.5t285 87.5t276 -87.5t102 -247.5v-433q0 -120 35 -224l-222 -1q-24 76 -30 143q-48 -72 -121 -116.5t-161 -44.5zM285 276h1
q0 -57 36.5 -89t110.5 -32t140 40t89 95v144h-174q-92 0 -147.5 -45.5t-55.5 -112.5zM480 1451l167 -239h-177l-233 234l2 5h241z" />
    <glyph glyph-name="aacute" unicode="&#xe1;" horiz-adv-x="997" 
d="M382 -21q-151 0 -233 77.5t-82 218t111 218.5t315 78h170v86q0 77 -45 120t-124.5 43t-124 -35.5t-44.5 -93.5h-211l-1 5q-6 119 105 206.5t285 87.5t276 -87.5t102 -247.5v-433q0 -120 35 -224l-222 -1q-24 76 -30 143q-48 -72 -121 -116.5t-161 -44.5zM285 276h1
q0 -57 36.5 -89t110.5 -32t140 40t89 95v144h-174q-92 0 -147.5 -45.5t-55.5 -112.5zM425 1233l175 273h250l-250 -273h-175z" />
    <glyph glyph-name="acircumflex" unicode="&#xe2;" horiz-adv-x="997" 
d="M382 -21q-151 0 -233 77.5t-82 218t111 218.5t315 78h170v86q0 77 -45 120t-124.5 43t-124 -35.5t-44.5 -93.5h-211l-1 5q-6 119 105 206.5t285 87.5t276 -87.5t102 -247.5v-433q0 -120 35 -224l-222 -1q-24 76 -30 143q-48 -72 -121 -116.5t-161 -44.5zM285 276h1
q0 -57 36.5 -89t110.5 -32t140 40t89 95v144h-174q-92 0 -147.5 -45.5t-55.5 -112.5zM821 1248h-176l-135 140l-134 -140h-174v12l244 248h129l246 -250v-10z" />
    <glyph glyph-name="atilde" unicode="&#xe3;" horiz-adv-x="997" 
d="M382 -21q-151 0 -233 77.5t-82 218t111 218.5t315 78h170v86q0 77 -45 120t-124.5 43t-124 -35.5t-44.5 -93.5h-211l-1 5q-6 119 105 206.5t285 87.5t276 -87.5t102 -247.5v-433q0 -120 35 -224l-222 -1q-24 76 -30 143q-48 -72 -121 -116.5t-161 -44.5zM285 276h1
q0 -57 36.5 -89t110.5 -32t140 40t89 95v144h-174q-92 0 -147.5 -45.5t-55.5 -112.5zM640 1257q-36 0 -62 8t-71 33.5t-65 32t-50 6.5t-53.5 -26t-23.5 -67l-134 7q0 100 57 167t143 67q35 0 123.5 -40.5t121.5 -40.5t56.5 26.5t23.5 67.5l135 -11q0 -100 -57.5 -165
t-143.5 -65z" />
    <glyph glyph-name="adieresis" unicode="&#xe4;" horiz-adv-x="997" 
d="M382 -21q-151 0 -233 77.5t-82 218t111 218.5t315 78h170v86q0 77 -45 120t-124.5 43t-124 -35.5t-44.5 -93.5h-211l-1 5q-6 119 105 206.5t285 87.5t276 -87.5t102 -247.5v-433q0 -120 35 -224l-222 -1q-24 76 -30 143q-48 -72 -121 -116.5t-161 -44.5zM285 276h1
q0 -57 36.5 -89t110.5 -32t140 40t89 95v144h-174q-92 0 -147.5 -45.5t-55.5 -112.5zM804 1277q-31 -30 -83.5 -30t-83.5 30t-31 76t31 76t83.5 30t83.5 -30t31 -76t-31 -76zM309 1248q-52 0 -82.5 30t-30.5 76t30.5 76t82.5 30t83 -30t31 -76t-31 -76t-83 -30z" />
    <glyph glyph-name="aring" unicode="&#xe5;" horiz-adv-x="997" 
d="M381 -21q-151 0 -233 77.5t-82 218t111 218.5t315 78h170v86q0 77 -45 120t-124.5 43t-124 -35.5t-44.5 -93.5h-211l-1 5q-6 119 105 206.5t285 87.5t276 -87.5t102 -247.5v-433q0 -120 35 -224l-222 -1q-24 76 -30 143q-48 -72 -121 -116.5t-161 -44.5zM284 276h1
q0 -57 36.5 -89t110.5 -32t140 40t89 95v144h-174q-92 0 -147.5 -45.5t-55.5 -112.5zM525 1503q-44 0 -72.5 -29.5t-28.5 -72t29.5 -71.5t72 -29t71.5 28.5t29 71.5t-28.5 72.5t-72.5 29.5zM381.5 1270.5q-56.5 53.5 -56.5 131t57.5 132.5t142 55t142 -55t57.5 -132.5
t-56.5 -131t-143 -53.5t-143 53.5z" />
    <glyph glyph-name="ae" unicode="&#xe6;" horiz-adv-x="1556" 
d="M336.5 381.5q-54.5 -42.5 -54.5 -104.5t42 -96.5t121 -34.5q52 0 112.5 26t102.5 65v189h-177q-92 -2 -146.5 -44.5zM1284 603q0 103 -48.5 157t-139 54t-147.5 -62t-72 -176h407v27zM1129 -20q-230 0 -354 145q-60 -70 -155.5 -107.5t-216.5 -37.5q-159 0 -248.5 79
t-89.5 221.5t107.5 219t316.5 76.5h172v64q0 83 -43 128.5t-123.5 45.5t-132 -39.5t-51.5 -99.5l-218 17q0 132 113 215t292 83q200 0 300 -120q118 122 304 121.5t292.5 -116.5t106.5 -329v-123h-625q8 -127 76.5 -197.5t191 -70.5t217.5 52l55 30l65 -149h-1
q-63 -50 -156.5 -79t-194.5 -29z" />
    <glyph glyph-name="ccedilla" unicode="&#xe7;" horiz-adv-x="965" 
d="M719 -251q0 -96 -76.5 -148.5t-217.5 -52.5l-6 123q59 0 91 21t32 60t-30.5 55t-105.5 21l29 125h159l-10 -49q135 -24 135 -155zM284 469h-1q0 -315 226 -315q81 0 135 47t54 118h198l2 -5q5 -137 -110.5 -236t-278.5 -99q-211 0 -328 135t-117 355v31q0 219 117 354.5
t328 135.5q176 0 285.5 -102t105.5 -260l-2 -5h-199q0 82 -52.5 136.5t-136.5 54.5q-118 0 -172 -84t-54 -230v-31z" />
    <glyph glyph-name="egrave" unicode="&#xe8;" horiz-adv-x="989" 
d="M691 605q0 95 -48.5 152t-135 57t-139.5 -62.5t-65 -164.5l1 -5h387v23zM882 94q-133 -115 -348 -115t-338.5 134t-123.5 349v36q0 214 121.5 353.5t311.5 139t295.5 -118t105.5 -321.5v-129h-607l-2 -5q6 -119 69.5 -191t171.5 -72q86 0 148.5 20t124.5 63l70 -143h1z
M468 1451l167 -239h-177l-233 234l2 5h241z" />
    <glyph glyph-name="eacute" unicode="&#xe9;" horiz-adv-x="989" 
d="M691 605q0 95 -48.5 152t-135 57t-139.5 -62.5t-65 -164.5l1 -5h387v23zM882 94q-133 -115 -348 -115t-338.5 134t-123.5 349v36q0 214 121.5 353.5t311.5 139t295.5 -118t105.5 -321.5v-129h-607l-2 -5q6 -119 69.5 -191t171.5 -72q86 0 148.5 20t124.5 63l70 -143h1z
M413 1233l175 273h250l-250 -273h-175z" />
    <glyph glyph-name="ecircumflex" unicode="&#xea;" horiz-adv-x="989" 
d="M691 605q0 95 -48.5 152t-135 57t-139.5 -62.5t-65 -164.5l1 -5h387v23zM882 94q-133 -115 -348 -115t-338.5 134t-123.5 349v36q0 214 121.5 353.5t311.5 139t295.5 -118t105.5 -321.5v-129h-607l-2 -5q6 -119 69.5 -191t171.5 -72q86 0 148.5 20t124.5 63l70 -143h1z
M809 1248h-176l-135 140l-134 -140h-174v12l244 248h129l246 -250v-10z" />
    <glyph glyph-name="edieresis" unicode="&#xeb;" horiz-adv-x="989" 
d="M691 605q0 95 -48.5 152t-135 57t-139.5 -62.5t-65 -164.5l1 -5h387v23zM882 94q-133 -115 -348 -115t-338.5 134t-123.5 349v36q0 214 121.5 353.5t311.5 139t295.5 -118t105.5 -321.5v-129h-607l-2 -5q6 -119 69.5 -191t171.5 -72q86 0 148.5 20t124.5 63l70 -143h1z
M792 1277q-31 -30 -83.5 -30t-83.5 30t-31 76t31 76t83.5 30t83.5 -30t31 -76t-31 -76zM297 1248q-52 0 -82.5 30t-30.5 76t30.5 76t82.5 30t83 -30t31 -76t-31 -76t-83 -30z" />
    <glyph glyph-name="igrave" unicode="&#xec;" horiz-adv-x="484" 
d="M355 974v-974h-218v974h218zM198 1444l167 -239h-177l-233 234l2 5h241z" />
    <glyph glyph-name="iacute" unicode="&#xed;" horiz-adv-x="484" 
d="M334 974v-974h-218v974h218zM121 1226l175 273h250l-250 -273h-175z" />
    <glyph glyph-name="icircumflex" unicode="&#xee;" horiz-adv-x="484" 
d="M356 974v-974h-218v974h218zM540 1241h-176l-135 140l-134 -140h-174v12l244 248h129l246 -250v-10z" />
    <glyph glyph-name="idieresis" unicode="&#xef;" horiz-adv-x="484" 
d="M356 974v-974h-218v974h218zM522 1270q-31 -30 -83.5 -30t-83.5 30t-31 76t31 76t83.5 30t83.5 -30t31 -76t-31 -76zM27 1241q-52 0 -82.5 30t-30.5 76t30.5 76t82.5 30t83 -30t31 -76t-31 -76t-83 -30z" />
    <glyph glyph-name="eth" unicode="&#xf0;" horiz-adv-x="1072" 
d="M760 490v105l-1 16q-30 44 -85 69t-125 25q-113 0 -176 -75.5t-63 -200t63.5 -199.5t163.5 -75t161.5 90t61.5 245zM978 570v-73q0 -151 -56.5 -269t-160.5 -183.5t-228.5 -65.5t-225.5 56.5t-157.5 157.5t-56.5 230.5t50 233t144 159.5q91 57 217.5 57t227.5 -82
q-43 151 -157 262l-183 -122l-71 98l155 103q-112 74 -259 112l68 175q208 -42 372 -165l162 108l70 -99l-139 -92q228 -240 228 -601z" />
    <glyph glyph-name="ntilde" unicode="&#xf1;" horiz-adv-x="1025" 
d="M597 992q156 0 239.5 -94t83.5 -286v-612h-219v610q0 109 -44.5 156t-139.5 47q-126 0 -197 -106v-707h-219v974l200 -1l13 -141q101 160 283 160zM642 1257q-36 0 -62 8t-71 33.5t-65 32t-50 6.5t-53.5 -26t-23.5 -67l-134 7q0 100 57 167t143 67q35 0 123.5 -40.5
t121.5 -40.5t56.5 26.5t23.5 67.5l135 -11q0 -100 -57.5 -165t-143.5 -65z" />
    <glyph glyph-name="ograve" unicode="&#xf2;" horiz-adv-x="1049" 
d="M286 473q0 -144 56 -232.5t172 -88.5t172 89q58 89 58 232v19q0 140 -58 229q-56 91 -172 91t-172.5 -89.5t-56.5 -229.5zM186 849q119 140 327.5 140t327.5 -140q119 -137 119 -355v-19q0 -220 -119.5 -357.5t-328 -137.5t-325.5 139q-119 137 -119 356l-1 18
q0 216 119 356zM490 1451l167 -239h-177l-233 234l2 5h241z" />
    <glyph glyph-name="oacute" unicode="&#xf3;" horiz-adv-x="1049" 
d="M286 473q0 -144 56 -232.5t172 -88.5t172 89q58 89 58 232v19q0 140 -58 229q-56 91 -172 91t-172.5 -89.5t-56.5 -229.5zM186 849q119 140 327.5 140t327.5 -140q119 -137 119 -355v-19q0 -220 -119.5 -357.5t-328 -137.5t-325.5 139q-119 137 -119 356l-1 18
q0 216 119 356zM435 1233l175 273h250l-250 -273h-175z" />
    <glyph glyph-name="ocircumflex" unicode="&#xf4;" horiz-adv-x="1049" 
d="M285 473q0 -144 56 -232.5t172 -88.5t172 89q58 89 58 232v19q0 140 -58 229q-56 91 -172 91t-172.5 -89.5t-56.5 -229.5zM185 849q119 140 327.5 140t327.5 -140q119 -137 119 -355v-19q0 -220 -119.5 -357.5t-328 -137.5t-325.5 139q-119 137 -119 356l-1 18
q0 216 119 356zM830 1248h-176l-135 140l-134 -140h-174v12l244 248h129l246 -250v-10z" />
    <glyph glyph-name="otilde" unicode="&#xf5;" horiz-adv-x="1049" 
d="M286 473q0 -144 56 -232.5t172 -88.5t172 89q58 89 58 232v19q0 140 -58 229q-56 91 -172 91t-172.5 -89.5t-56.5 -229.5zM186 849q119 140 327.5 140t327.5 -140q119 -137 119 -355v-19q0 -220 -119.5 -357.5t-328 -137.5t-325.5 139q-119 137 -119 356l-1 18
q0 216 119 356zM650 1257q-36 0 -62 8t-71 33.5t-65 32t-50 6.5t-53.5 -26t-23.5 -67l-134 7q0 100 57 167t143 67q35 0 123.5 -40.5t121.5 -40.5t56.5 26.5t23.5 67.5l135 -11q0 -100 -57.5 -165t-143.5 -65z" />
    <glyph glyph-name="odieresis" unicode="&#xf6;" horiz-adv-x="1049" 
d="M286 473q0 -144 56 -232.5t172 -88.5t172 89q58 89 58 232v19q0 140 -58 229q-56 91 -172 91t-172.5 -89.5t-56.5 -229.5zM186 849q119 140 327.5 140t327.5 -140q119 -137 119 -355v-19q0 -220 -119.5 -357.5t-328 -137.5t-325.5 139q-119 137 -119 356l-1 18
q0 216 119 356zM814 1277q-31 -30 -83.5 -30t-83.5 30t-31 76t31 76t83.5 30t83.5 -30t31 -76t-31 -76zM319 1248q-52 0 -82.5 30t-30.5 76t30.5 76t82.5 30t83 -30t31 -76t-31 -76t-83 -30z" />
    <glyph glyph-name="divide" unicode="&#xf7;" horiz-adv-x="1052" 
d="M626 369v-199h-218v199h218zM971 732v-191h-911v191h911zM626 1102v-198h-218v198h218z" />
    <glyph glyph-name="oslash" unicode="&#xf8;" horiz-adv-x="1044" 
d="M525 143q111 0 172.5 87t61.5 252q0 134 -52 217l-267 -541q42 -15 85 -15zM523 803q-110 0 -171.5 -86t-61.5 -239.5t57 -242.5l270 548q-45 20 -94 20zM524 978q94 0 175 -30l63 128h131l-92 -187q177 -138 177 -426q0 -145 -55.5 -257.5t-158.5 -175t-239 -62.5
q-78 0 -165 27l-65 -132h-130l92 186q-185 135 -185 432q0 144 56.5 259t159.5 176q100 62 236 62z" />
    <glyph glyph-name="ugrave" unicode="&#xf9;" horiz-adv-x="1024" 
d="M431 -21q-161 0 -247 101.5t-86 308.5v583h218v-584q0 -126 39.5 -178.5t126.5 -52.5q153 0 218 111v704h219v-974h-191l-19 142q-97 -161 -278 -161zM478 1451l167 -239h-177l-233 234l2 5h241z" />
    <glyph glyph-name="uacute" unicode="&#xfa;" horiz-adv-x="1024" 
d="M431 -21q-161 0 -247 101.5t-86 308.5v583h218v-584q0 -126 39.5 -178.5t126.5 -52.5q153 0 218 111v704h219v-974h-191l-19 142q-97 -161 -278 -161zM423 1233l175 273h250l-250 -273h-175z" />
    <glyph glyph-name="ucircumflex" unicode="&#xfb;" horiz-adv-x="1024" 
d="M431 -21q-161 0 -247 101.5t-86 308.5v583h218v-584q0 -126 39.5 -178.5t126.5 -52.5q153 0 218 111v704h219v-974h-191l-19 142q-97 -161 -278 -161zM819 1248h-176l-135 140l-134 -140h-174v12l244 248h129l246 -250v-10z" />
    <glyph glyph-name="udieresis" unicode="&#xfc;" horiz-adv-x="1024" 
d="M431 -21q-161 0 -247 101.5t-86 308.5v583h218v-584q0 -126 39.5 -178.5t126.5 -52.5q153 0 218 111v704h219v-974h-191l-19 142q-97 -161 -278 -161zM802 1277q-31 -30 -83.5 -30t-83.5 30t-31 76t31 76t83.5 30t83.5 -30t31 -76t-31 -76zM307 1248q-52 0 -82.5 30
t-30.5 76t30.5 76t82.5 30t83 -30t31 -76t-31 -76t-83 -30z" />
    <glyph glyph-name="yacute" unicode="&#xfd;" horiz-adv-x="897" 
d="M207 -437q-40 0 -118 18l24 169q64 -4 66 -4q97 0 152 134l36 88l-354 962h239l186 -583l22 -97h5l214 680h239l-403 -1121q-44 -116 -116 -181t-192 -65zM378 1233l175 273h250l-250 -273h-175z" />
    <glyph glyph-name="thorn" unicode="&#xfe;" horiz-adv-x="1058" 
d="M971 450v-15q0 -224 -102.5 -359.5t-277.5 -135.5q-159 0 -255 106v-462h-219v1757h219v-498q94 107 254 107q178 0 279.5 -132t101.5 -368zM530 115q107 0 164.5 85t57.5 245t-58.5 243t-165.5 83q-134 0 -192 -111v-432q59 -113 194 -113z" />
    <glyph glyph-name="ydieresis" unicode="&#xff;" horiz-adv-x="897" 
d="M207 -437q-40 0 -118 18l24 169q64 -4 66 -4q97 0 152 134l36 88l-354 962h239l186 -583l22 -97h5l214 680h239l-403 -1121q-44 -116 -116 -181t-192 -65zM757 1277q-31 -30 -83.5 -30t-83.5 30t-31 76t31 76t83.5 30t83.5 -30t31 -76t-31 -76zM262 1248q-52 0 -82.5 30
t-30.5 76t30.5 76t82.5 30t83 -30t31 -76t-31 -76t-83 -30z" />
    <glyph glyph-name="Amacron" unicode="&#x100;" horiz-adv-x="1227" 
d="M955 0l-104 306h-513l-104 -306h-222l482 1310h207l476 -1310h-222zM594 1049l-193 -560h388l-190 560h-5zM964 1754v-142h-654v142h654z" />
    <glyph glyph-name="amacron" unicode="&#x101;" horiz-adv-x="997" 
d="M381 -21q-151 0 -233 77.5t-82 218t111 218.5t315 78h170v86q0 77 -45 120t-124.5 43t-124 -35.5t-44.5 -93.5h-211l-1 5q-6 119 105 206.5t285 87.5t276 -87.5t102 -247.5v-433q0 -120 35 -224l-222 -1q-24 76 -30 143q-48 -72 -121 -116.5t-161 -44.5zM284 276h1
q0 -57 36.5 -89t110.5 -32t140 40t89 95v144h-174q-92 0 -147.5 -45.5t-55.5 -112.5zM839 1444v-142h-654v142h654z" />
    <glyph glyph-name="Abreve" unicode="&#x102;" horiz-adv-x="1227" 
d="M955 0l-104 306h-513l-104 -306h-222l482 1310h207l476 -1310h-222zM594 1049l-193 -560h388l-190 560h-5zM766 1792h165q0 -115 -79.5 -184.5t-211.5 -69.5t-211.5 69.5t-79.5 184.5h164q0 -60 33.5 -92.5t93.5 -32.5t93 32.5t33 92.5z" />
    <glyph glyph-name="abreve" unicode="&#x103;" horiz-adv-x="997" 
d="M382 -21q-151 0 -233 77.5t-82 218t111 218.5t315 78h170v86q0 77 -45 120t-124.5 43t-124 -35.5t-44.5 -93.5h-211l-1 5q-6 119 105 206.5t285 87.5t276 -87.5t102 -247.5v-433q0 -120 35 -224l-222 -1q-24 76 -30 143q-48 -72 -121 -116.5t-161 -44.5zM285 276h1
q0 -57 36.5 -89t110.5 -32t140 40t89 95v144h-174q-92 0 -147.5 -45.5t-55.5 -112.5zM642 1482h165q0 -115 -79.5 -184.5t-211.5 -69.5t-211.5 69.5t-79.5 184.5h164q0 -60 33.5 -92.5t93.5 -32.5t93 32.5t33 92.5z" />
    <glyph glyph-name="Aogonek" unicode="&#x104;" horiz-adv-x="1227" 
d="M614 989l-190 -543h380zM1012 -222q0 -61 64 -61q37 0 80 20l19 -127q-65 -40 -150 -40t-137 49.5t-52 131.5q0 127 134 215l-103 296h-508l-106 -305h-237l495 1310h206l495 -1310h-55q-78 -49 -111.5 -91.5t-33.5 -87.5z" />
    <glyph glyph-name="aogonek" unicode="&#x105;" horiz-adv-x="997" 
d="M301 250q0 -63 41.5 -100t109.5 -37t125 31.5t86 84.5v183h-118q-244 0 -244 -162zM670 46q-103 -109 -252.5 -109t-242.5 82.5t-93 208.5q0 156 115 239t331 83h135v64q0 78 -43.5 122.5t-123.5 44.5t-128 -37t-48 -95h-218q0 81 53 150.5t144.5 109t203.5 39.5
q173 0 274 -86.5t103 -241.5v-439q0 -129 37 -209v-15h-38q-78 -50 -111.5 -92t-33.5 -87q0 -61 64 -61q39 0 81 20l19 -127q-65 -40 -149.5 -40t-136.5 49.5t-52 131.5l1 -2q0 125 130 212q-9 19 -21 85z" />
    <glyph glyph-name="Cacute" unicode="&#x106;" horiz-adv-x="1203" 
d="M878 433h211l2 -6q3 -202 -130 -325t-361 -123t-371.5 153.5t-143.5 395.5v249q0 242 142 396t372 154t363 -121.5t130 -328.5l-2 -5h-212q0 134 -72 207t-207.5 73t-215 -105t-79.5 -268v-251q0 -165 81 -269.5t217 -104.5t206 71.5t70 207.5zM539 1564l175 273h250
l-250 -273h-175z" />
    <glyph glyph-name="cacute" unicode="&#x107;" horiz-adv-x="965" 
d="M284 469h-1q0 -315 226 -315q81 0 135 47t54 118h198l2 -5q5 -137 -110.5 -236t-278.5 -99q-211 0 -328 135t-117 355v31q0 219 117 354.5t328 135.5q176 0 285.5 -102t105.5 -260l-2 -5h-199q0 82 -52.5 136.5t-136.5 54.5q-118 0 -172 -84t-54 -230v-31zM390 1233
l175 273h250l-250 -273h-175z" />
    <glyph glyph-name="Ccaron" unicode="&#x10c;" horiz-adv-x="1203" 
d="M878 433h211l2 -6q3 -202 -130 -325t-361 -123t-371.5 153.5t-143.5 395.5v249q0 242 142 396t372 154t363 -121.5t130 -328.5l-2 -5h-212q0 134 -72 207t-207.5 73t-215 -105t-79.5 -268v-251q0 -165 81 -269.5t217 -104.5t206 71.5t70 207.5zM944 1839v-9l-251 -251
h-135l-249 252v8h185l131 -139l132 139h187z" />
    <glyph glyph-name="ccaron" unicode="&#x10d;" horiz-adv-x="965" 
d="M284 469h-1q0 -315 226 -315q81 0 135 47t54 118h198l2 -5q5 -137 -110.5 -236t-278.5 -99q-211 0 -328 135t-117 355v31q0 219 117 354.5t328 135.5q176 0 285.5 -102t105.5 -260l-2 -5h-199q0 82 -52.5 136.5t-136.5 54.5q-118 0 -172 -84t-54 -230v-31zM795 1508v-9
l-251 -251h-135l-249 252v8h185l131 -139l132 139h187z" />
    <glyph glyph-name="Dcaron" unicode="&#x10e;" horiz-adv-x="1204" 
d="M547 1135h-200v-960h200q161 0 255 104.5t94 275.5v201q0 170 -94 274.5t-255 104.5zM553 0h-425v1310h425q250 0 406 -155t156 -401v-199q0 -246 -156 -400.5t-406 -154.5zM826 1825v-9l-251 -251h-135l-249 252v8h185l131 -139l132 139h187z" />
    <glyph glyph-name="dcaron" unicode="&#x10f;" horiz-adv-x="1175" 
d="M67 452v19q0 237 100.5 378t279.5 141q155 0 251 -124v536h218v-1404h-183l-22 121q-96 -140 -269.5 -140t-274 128.5t-100.5 344.5zM285 471v-19q0 -140 53.5 -217.5t162.5 -77.5q133 0 198 115v424q-67 115 -196 115q-109 0 -163.5 -91t-54.5 -249z" />
    <glyph glyph-name="Dcroat" unicode="&#x110;" horiz-adv-x="1231" 
d="M593 740v-153h-206v-405h147q183 0 278.5 113.5t95.5 330.5v63q0 214 -92.5 326t-269.5 112h-159v-387h206zM537 0h-378v587h-168v153h168v570h387q175 0 309 -76.5t208 -219t74 -326.5v-66q0 -187 -74 -327.5t-211 -217.5t-315 -77z" />
    <glyph glyph-name="dcroat" unicode="&#x111;" horiz-adv-x="1067" 
d="M923 1100v-1103h-198l-10 101q-100 -119 -267.5 -119t-272.5 138t-105 369.5t104.5 367.5t280.5 136q155 0 251 -108v219h-226v153h226v126h218v-126h158l-1 -154h-158zM511 811q-108 0 -164.5 -85t-56.5 -243.5t57 -241.5t162 -83q135 0 198 120v416q-63 117 -196 117z
" />
    <glyph glyph-name="Emacron" unicode="&#x112;" horiz-adv-x="1042" 
d="M922 765v-175h-573v-415h665v-175h-884v1310h878v-175h-659v-370h573zM894 1761v-142h-654v142h654z" />
    <glyph glyph-name="emacron" unicode="&#x113;" horiz-adv-x="989" 
d="M691 605q0 95 -48.5 152t-135 57t-139.5 -62.5t-65 -164.5l1 -5h387v23zM882 94q-133 -115 -348 -115t-338.5 134t-123.5 349v36q0 214 121.5 353.5t311.5 139t295.5 -118t105.5 -321.5v-129h-607l-2 -5q6 -119 69.5 -191t171.5 -72q86 0 148.5 20t124.5 63l70 -143h1z
M828 1444v-142h-654v142h654z" />
    <glyph glyph-name="Edotaccent" unicode="&#x116;" horiz-adv-x="1042" 
d="M920 765v-175h-573v-415h665v-175h-884v1310h878v-175h-659v-370h573zM585 1573q-56 0 -87 30.5t-31 79.5t31 80t87 31t87 -31t31 -80t-31 -79.5t-87 -30.5z" />
    <glyph glyph-name="edotaccent" unicode="&#x117;" horiz-adv-x="989" 
d="M691 605q0 95 -48.5 152t-135 57t-139.5 -62.5t-65 -164.5l1 -5h387v23zM882 94q-133 -115 -348 -115t-338.5 134t-123.5 349v36q0 214 121.5 353.5t311.5 139t295.5 -118t105.5 -321.5v-129h-607l-2 -5q6 -119 69.5 -191t171.5 -72q86 0 148.5 20t124.5 63l70 -143h1z
M521 1256q-56 0 -87 30.5t-31 79.5t31 80t87 31t87 -31t31 -80t-31 -79.5t-87 -30.5z" />
    <glyph glyph-name="Eogonek" unicode="&#x118;" horiz-adv-x="1042" 
d="M899 722v-180h-538v-403h629v-182h-100q-78 -50 -111.5 -92t-33.5 -87q0 -61 64 -61q38 0 81 20l19 -127q-65 -40 -149.5 -40t-136.5 49.5t-52 131.5q0 120 121 206h-559v1310h851v-183h-623v-362h538z" />
    <glyph glyph-name="eogonek" unicode="&#x119;" horiz-adv-x="989" 
d="M514 775q-90 0 -145.5 -62t-70.5 -176h417v16q-17 222 -201 222zM604 -196q0 -61 64 -61q38 0 81 20l19 -127q-65 -40 -150 -40t-137 49.5t-52 137t72 159.5q-187 12 -304 135.5t-122 317.5v52q0 147 55.5 262t157.5 179t227 64q200 0 308 -126.5t108 -359.5v-89h-637
q10 -120 80 -190.5t179 -70.5q151 0 245 122l117 -114q-67 -96 -166 -141q-78 -50 -111.5 -92t-33.5 -87z" />
    <glyph glyph-name="Ecaron" unicode="&#x11a;" horiz-adv-x="1042" 
d="M922 765v-175h-573v-415h665v-175h-884v1310h878v-175h-659v-370h573zM884 1825v-9l-251 -251h-135l-249 252v8h185l131 -139l132 139h187z" />
    <glyph glyph-name="ecaron" unicode="&#x11b;" horiz-adv-x="989" 
d="M691 605q0 95 -48.5 152t-135 57t-139.5 -62.5t-65 -164.5l1 -5h387v23zM882 94q-133 -115 -348 -115t-338.5 134t-123.5 349v36q0 214 121.5 353.5t311.5 139t295.5 -118t105.5 -321.5v-129h-607l-2 -5q6 -119 69.5 -191t171.5 -72q86 0 148.5 20t124.5 63l70 -143h1z
M818 1508v-9l-251 -251h-135l-249 252v8h185l131 -139l132 139h187z" />
    <glyph glyph-name="Gbreve" unicode="&#x11e;" horiz-adv-x="1255" 
d="M630 -21q-239 0 -391 149.5t-152 387.5v274q0 239 144 388t373.5 149t358.5 -111.5t132 -298.5l-2 -6h-207q-7 112 -77.5 176.5t-203 64.5t-216 -101t-83.5 -259v-276q0 -160 90.5 -261t234.5 -101q188 0 259 80v266h-260v164h479l-1 -489q-60 -84 -181.5 -140
t-296.5 -56zM752 1813h165q0 -115 -79.5 -184.5t-211.5 -69.5t-211.5 69.5t-79.5 184.5h164q0 -60 33.5 -92.5t93.5 -32.5t93 32.5t33 92.5z" />
    <glyph glyph-name="gbreve" unicode="&#x11f;" horiz-adv-x="1045" 
d="M172 807q102 141 278 141t269 -145l22 127h182v-974q0 -189 -115.5 -291t-330.5 -102q-72 0 -153.5 20t-148.5 54l47 172q114 -60 243 -60t184 50.5t55 156.5v100q-95 -119 -253 -119q-178 0 -280 129t-102 345l1 19q0 236 102 377zM287 430v-19q0 -139 55 -217t165 -78
q135 0 196 113v427q-64 113 -194 113q-110 0 -166 -91.5t-56 -247.5zM630 1482h165q0 -115 -79.5 -184.5t-211.5 -69.5t-211.5 69.5t-79.5 184.5h164q0 -60 33.5 -92.5t93.5 -32.5t93 32.5t33 92.5z" />
    <glyph glyph-name="uni0122" unicode="&#x122;" horiz-adv-x="1255" 
d="M631 -21q-239 0 -391 149.5t-152 387.5v274q0 239 144 388t373.5 149t358.5 -111.5t132 -298.5l-2 -6h-207q-7 112 -77.5 176.5t-203 64.5t-216 -101t-83.5 -259v-276q0 -160 90.5 -261t234.5 -101q188 0 259 80v266h-260v164h479l-1 -489q-60 -84 -181.5 -140
t-296.5 -56z" />
    <glyph glyph-name="uni0123" unicode="&#x123;" horiz-adv-x="1045" 
d="M172 807q102 141 278 141t269 -145l22 127h182v-974q0 -189 -115.5 -291t-330.5 -102q-72 0 -153.5 20t-148.5 54l47 172q114 -60 243 -60t184 50.5t55 156.5v100q-95 -119 -253 -119q-178 0 -280 129t-102 345l1 19q0 236 102 377zM287 430v-19q0 -139 55 -217t165 -78
q135 0 196 113v427q-64 113 -194 113q-110 0 -166 -91.5t-56 -247.5z" />
    <glyph glyph-name="Imacron" unicode="&#x12a;" horiz-adv-x="520" 
d="M382 1310v-1310h-218v1310h218zM578 1761v-142h-654v142h654z" />
    <glyph glyph-name="imacron" unicode="&#x12b;" horiz-adv-x="484" 
d="M356 974v-974h-218v974h218zM559 1437v-142h-654v142h654z" />
    <glyph glyph-name="Iogonek" unicode="&#x12e;" horiz-adv-x="520" 
d="M355 -384q-65 -40 -149.5 -40t-136.5 49.5t-52 131.5q0 149 184 243h-47v1310h218v-1310h-104l68 -37q-77 -49 -110.5 -91.5t-33.5 -87.5q0 -61 63 -61q39 0 81 20z" />
    <glyph glyph-name="iogonek" unicode="&#x12f;" horiz-adv-x="471" 
d="M186 -430v1q-86 0 -138 49.5t-52 131.5q0 152 196 248h-62v974h218v-974h-112l79 -43q-77 -49 -110.5 -91.5t-33.5 -87.5q0 -61 63 -61q39 0 81 20l19 -127q-65 -40 -148 -40zM348 1404v-192h-218v192h218z" />
    <glyph glyph-name="Idotaccent" unicode="&#x130;" horiz-adv-x="520" 
d="M360 1310v-1310h-218v1310h218zM248 1573q-56 0 -87 30.5t-31 79.5t31 80t87 31t87 -31t31 -80t-31 -79.5t-87 -30.5z" />
    <glyph glyph-name="dotlessi" unicode="&#x131;" horiz-adv-x="484" 
d="M347 974v-974h-218v974h218z" />
    <glyph glyph-name="uni0136" unicode="&#x136;" horiz-adv-x="1162" 
d="M347 567v-567h-219v1310h219v-555h125l411 555h259l-477 -625l514 -685h-267l-414 567h-151z" />
    <glyph glyph-name="uni0137" unicode="&#x137;" horiz-adv-x="962" 
d="M321 426v-426h-218v1404h218v-803h91l246 373h257l-321 -443l369 -531h-254l-290 426h-98z" />
    <glyph glyph-name="Lacute" unicode="&#x139;" horiz-adv-x="997" 
d="M347 1310v-1135h602v-175h-821v1310h219zM127 1543l175 273h250l-250 -273h-175z" />
    <glyph glyph-name="lacute" unicode="&#x13a;" horiz-adv-x="471" 
d="M335 1404v-1404h-218v1404h218zM114 1634l175 273h250l-250 -273h-175z" />
    <glyph glyph-name="uni013B" unicode="&#x13b;" horiz-adv-x="997" 
d="M347 1310v-1135h602v-175h-821v1310h219z" />
    <glyph glyph-name="uni013C" unicode="&#x13c;" horiz-adv-x="471" 
d="M335 1404v-1404h-218v1404h218z" />
    <glyph glyph-name="Lcaron" unicode="&#x13d;" horiz-adv-x="997" 
d="M347 1310v-1135h602v-175h-821v1310h219z" />
    <glyph glyph-name="lcaron" unicode="&#x13e;" horiz-adv-x="606" 
d="M334 1404v-1404h-218v1404h218z" />
    <glyph glyph-name="Lslash" unicode="&#x141;" horiz-adv-x="1012" 
d="M375 1310v-526l211 64v-132l-211 -64v-470h595v-182h-822v582l-117 -35v133l117 35v595h227z" />
    <glyph glyph-name="lslash" unicode="&#x142;" horiz-adv-x="532" 
d="M369 1382v-582l133 48v-132l-133 -47v-669h-219v590l-120 -42v132l120 42v660h219z" />
    <glyph glyph-name="Nacute" unicode="&#x143;" horiz-adv-x="1309" 
d="M1153 1310v-1310h-217l-582 957l-5 -2v-955h-219v1310h219l581 -955l6 1v954h217zM579 1543l175 273h250l-250 -273h-175z" />
    <glyph glyph-name="nacute" unicode="&#x144;" horiz-adv-x="1025" 
d="M597 992q156 0 239.5 -94t83.5 -286v-612h-219v610q0 109 -44.5 156t-139.5 47q-126 0 -197 -106v-707h-219v974l200 -1l13 -141q101 160 283 160zM427 1233l175 273h250l-250 -273h-175z" />
    <glyph glyph-name="uni0145" unicode="&#x145;" horiz-adv-x="1309" 
d="M1151 1310v-1310h-217l-582 957l-5 -2v-955h-219v1310h219l581 -955l6 1v954h217z" />
    <glyph glyph-name="uni0146" unicode="&#x146;" horiz-adv-x="1025" 
d="M597 992q156 0 239.5 -94t83.5 -286v-612h-219v610q0 109 -44.5 156t-139.5 47q-126 0 -197 -106v-707h-219v974l200 -1l13 -141q101 160 283 160z" />
    <glyph glyph-name="Ncaron" unicode="&#x147;" horiz-adv-x="1309" 
d="M1151 1310v-1310h-217l-582 957l-5 -2v-955h-219v1310h219l581 -955l6 1v954h217zM982 1818v-9l-251 -251h-135l-249 252v8h185l131 -139l132 139h187z" />
    <glyph glyph-name="ncaron" unicode="&#x148;" horiz-adv-x="1025" 
d="M597 992q156 0 239.5 -94t83.5 -286v-612h-219v610q0 109 -44.5 156t-139.5 47q-126 0 -197 -106v-707h-219v974l200 -1l13 -141q101 160 283 160zM832 1508v-9l-251 -251h-135l-249 252v8h185l131 -139l132 139h187z" />
    <glyph glyph-name="Omacron" unicode="&#x14c;" horiz-adv-x="1273" 
d="M938 535v238q0 167 -88.5 270.5t-234 103.5t-229.5 -103.5t-84 -270.5v-238q0 -168 84 -272.5t230.5 -104.5t234 104t87.5 273zM1156 771v-236q0 -243 -151 -399.5t-388.5 -156.5t-385 156.5t-147.5 399.5v236q0 242 147.5 399t381.5 157q158 0 282.5 -72t192.5 -198.5
t68 -285.5zM980 1754v-142h-654v142h654z" />
    <glyph glyph-name="omacron" unicode="&#x14d;" horiz-adv-x="1049" 
d="M286 473q0 -144 56 -232.5t172 -88.5t172 89q58 89 58 232v19q0 140 -58 229q-56 91 -172 91t-172.5 -89.5t-56.5 -229.5zM186 849q119 140 327.5 140t327.5 -140q119 -137 119 -355v-19q0 -220 -119.5 -357.5t-328 -137.5t-325.5 139q-119 137 -119 356l-1 18
q0 216 119 356zM850 1444v-142h-654v142h654z" />
    <glyph glyph-name="Ohungarumlaut" unicode="&#x150;" horiz-adv-x="1273" 
d="M938 535v238q0 167 -88.5 270.5t-234 103.5t-229.5 -103.5t-84 -270.5v-238q0 -168 84 -272.5t230.5 -104.5t234 104t87.5 273zM1156 771v-236q0 -243 -151 -399.5t-388.5 -156.5t-385 156.5t-147.5 399.5v236q0 242 147.5 399t381.5 157q158 0 282.5 -72t192.5 -198.5
t68 -285.5zM698 1543l202 272h215l-240 -272h-177zM412 1543l156 272h210l-200 -272h-166z" />
    <glyph glyph-name="ohungarumlaut" unicode="&#x151;" horiz-adv-x="1049" 
d="M286 473q0 -144 56 -232.5t172 -88.5t172 89q58 89 58 232v19q0 140 -58 229q-56 91 -172 91t-172.5 -89.5t-56.5 -229.5zM186 849q119 140 327.5 140t327.5 -140q119 -137 119 -355v-19q0 -220 -119.5 -357.5t-328 -137.5t-325.5 139q-119 137 -119 356l-1 18
q0 216 119 356zM568 1233l202 272h215l-240 -272h-177zM282 1233l156 272h210l-200 -272h-166z" />
    <glyph glyph-name="OE" unicode="&#x152;" horiz-adv-x="1775" 
d="M307 516h-1q0 -174 79.5 -267.5t225.5 -93.5q96 0 183 11v972q-101 13 -185 13q-145 0 -223 -92.5t-79 -263.5v-279zM612 -20q-151 0 -270 66t-185.5 187.5t-67.5 273.5v283q0 156 65.5 278.5t184 190t272.5 67.5q111 0 262 -18h774v-183h-623v-362h538v-180h-538v-403
h629l-2 -182h-780q-152 -18 -259 -18z" />
    <glyph glyph-name="oe" unicode="&#x153;" horiz-adv-x="1665" 
d="M697.5 729q-60.5 85 -169 85t-168 -85t-59.5 -246.5t59.5 -244.5t169.5 -83t169 84.5t59 244.5t-60.5 245zM1385 605q0 100 -50 154.5t-134 54.5t-137.5 -61.5t-71.5 -170.5h393v23zM528 990q225 0 345 -159q126 161 320.5 160.5t301 -116.5t106.5 -330v-122h-614
q10 -126 75 -197t171 -71q82 0 145.5 19t127.5 63l71 -142q-132 -115 -357 -115t-349 157q-118 -157 -342 -157q-205 0 -326 135t-121 368l1 11q0 224 121.5 360t323.5 136z" />
    <glyph glyph-name="Racute" unicode="&#x154;" horiz-adv-x="1150" 
d="M640 544h-291v-544h-219v1310h484q221 0 340 -98.5t119 -282.5q0 -203 -206 -293q208 -66 208 -310v-109q0 -143 63 -196v-21h-225q-57 48 -57 219v105q0 102 -57.5 161t-158.5 59zM349 1135v-416h254q131 0 191.5 50t60.5 153t-60.5 158t-180.5 55h-265zM457 1543
l175 273h250l-250 -273h-175z" />
    <glyph glyph-name="racute" unicode="&#x155;" horiz-adv-x="648" 
d="M322 0h-219v974h200l14 -141q80 159 230 159q38 0 68 -11l-27 -204l-93 3q-125 0 -173 -103v-677zM263 1233l175 273h250l-250 -273h-175z" />
    <glyph glyph-name="uni0156" unicode="&#x156;" horiz-adv-x="1150" 
d="M638 544h-291v-544h-219v1310h484q221 0 340 -98.5t119 -282.5q0 -203 -206 -293q208 -66 208 -310v-109q0 -143 63 -196v-21h-225q-57 48 -57 219v105q0 102 -57.5 161t-158.5 59zM347 1135v-416h254q131 0 191.5 50t60.5 153t-60.5 158t-180.5 55h-265z" />
    <glyph glyph-name="uni0157" unicode="&#x157;" horiz-adv-x="648" 
d="M321 0h-219v974h200l14 -141q80 159 230 159q38 0 68 -11l-27 -204l-93 3q-125 0 -173 -103v-677z" />
    <glyph glyph-name="Rcaron" unicode="&#x158;" horiz-adv-x="1150" 
d="M638 544h-291v-544h-219v1310h484q221 0 340 -98.5t119 -282.5q0 -203 -206 -293q208 -66 208 -310v-109q0 -143 63 -196v-21h-225q-57 48 -57 219v105q0 102 -57.5 161t-158.5 59zM347 1135v-416h254q131 0 191.5 50t60.5 153t-60.5 158t-180.5 55h-265zM860 1818v-9
l-251 -251h-135l-249 252v8h185l131 -139l132 139h187z" />
    <glyph glyph-name="rcaron" unicode="&#x159;" horiz-adv-x="648" 
d="M327 0h-219v974h200l14 -141q80 159 230 159q38 0 68 -11l-27 -204l-93 3q-125 0 -173 -103v-677zM674 1508v-9l-251 -251h-135l-249 252v8h185l131 -139l132 139h187z" />
    <glyph glyph-name="Sacute" unicode="&#x15a;" horiz-adv-x="1112" 
d="M779.5 200.5q67.5 48.5 67.5 132.5t-61.5 136t-213.5 93q-229 61 -343 156.5t-114 250t131 256.5t341 102t342.5 -114t128.5 -281l-2 -5h-210q0 103 -69 164.5t-190.5 61.5t-187 -51.5t-65.5 -131t69 -128.5t232 -94q216 -58 323.5 -158.5t107.5 -258.5t-130 -255
t-345 -97q-103 0 -196.5 28.5t-164.5 79.5t-112 128.5t-39 169.5l2 5h211q0 -116 80 -176.5t218 -60.5l1 -1q121 0 188.5 48.5zM492 1543l175 273h250l-250 -273h-175z" />
    <glyph glyph-name="sacute" unicode="&#x15b;" horiz-adv-x="951" 
d="M609.5 173q45.5 32 45.5 86t-44.5 87t-159.5 58q-180 39 -267 107.5t-87 188.5t104.5 205t277 85t278 -86.5t100.5 -218.5l-2 -6h-209q0 63 -47 105t-124.5 42t-120 -34.5t-42.5 -88t40.5 -82.5t157.5 -52q187 -39 274 -108.5t87 -186.5q0 -132 -108 -213.5t-290 -81.5
t-294 94t-107 226l2 6h203q4 -82 58.5 -122t142.5 -40l1 -2q85 0 130.5 32zM408 1233l175 273h250l-250 -273h-175z" />
    <glyph glyph-name="Scaron" unicode="&#x160;" horiz-adv-x="1112" 
d="M779.5 200.5q67.5 48.5 67.5 132.5t-61.5 136t-213.5 93q-229 61 -343 156.5t-114 250t131 256.5t341 102t342.5 -114t128.5 -281l-2 -5h-210q0 103 -69 164.5t-190.5 61.5t-187 -51.5t-65.5 -131t69 -128.5t232 -94q216 -58 323.5 -158.5t107.5 -258.5t-130 -255
t-345 -97q-103 0 -196.5 28.5t-164.5 79.5t-112 128.5t-39 169.5l2 5h211q0 -116 80 -176.5t218 -60.5l1 -1q121 0 188.5 48.5zM897 1818v-9l-251 -251h-135l-249 252v8h185l131 -139l132 139h187z" />
    <glyph glyph-name="scaron" unicode="&#x161;" horiz-adv-x="951" 
d="M609.5 173q45.5 32 45.5 86t-44.5 87t-159.5 58q-180 39 -267 107.5t-87 188.5t104.5 205t277 85t278 -86.5t100.5 -218.5l-2 -6h-209q0 63 -47 105t-124.5 42t-120 -34.5t-42.5 -88t40.5 -82.5t157.5 -52q187 -39 274 -108.5t87 -186.5q0 -132 -108 -213.5t-290 -81.5
t-294 94t-107 226l2 6h203q4 -82 58.5 -122t142.5 -40l1 -2q85 0 130.5 32zM813 1508v-9l-251 -251h-135l-249 252v8h185l131 -139l132 139h187z" />
    <glyph glyph-name="Tcaron" unicode="&#x164;" horiz-adv-x="1119" 
d="M1034 1310v-175h-396v-1135h-219v1135h-396v175h1011zM886 1818v-9l-251 -251h-135l-249 252v8h185l131 -139l132 139h187z" />
    <glyph glyph-name="tcaron" unicode="&#x165;" horiz-adv-x="649" 
d="M168 1208h219v-236h175v-162h-175v-538q0 -112 95 -112q38 0 68 12l23 -161q-61 -32 -147 -32q-258 0 -258 293v538h-148v162h148v236z" />
    <glyph glyph-name="Umacron" unicode="&#x16a;" horiz-adv-x="1202" 
d="M907 1308h220v-878q0 -215 -139.5 -333t-372.5 -118t-370 118.5t-137 332.5v878h218v-878q0 -136 75.5 -206t212.5 -70t215 70t78 206v878zM936 1754v-142h-654v142h654z" />
    <glyph glyph-name="umacron" unicode="&#x16b;" horiz-adv-x="1024" 
d="M431 -21q-161 0 -247 101.5t-86 308.5v583h218v-584q0 -126 39.5 -178.5t126.5 -52.5q153 0 218 111v704h219v-974h-191l-19 142q-97 -161 -278 -161zM838 1444v-142h-654v142h654z" />
    <glyph glyph-name="Uring" unicode="&#x16e;" horiz-adv-x="1202" 
d="M907 1308h220v-878q0 -215 -139.5 -333t-372.5 -118t-370 118.5t-137 332.5v878h218v-878q0 -136 75.5 -206t212.5 -70t215 70t78 206v878zM622 1813q-44 0 -72.5 -29.5t-28.5 -72t29.5 -71.5t72 -29t71.5 28.5t29 71.5t-28.5 72.5t-72.5 29.5zM478.5 1580.5
q-56.5 53.5 -56.5 131t57.5 132.5t142 55t142 -55t57.5 -132.5t-56.5 -131t-143 -53.5t-143 53.5z" />
    <glyph glyph-name="uring" unicode="&#x16f;" horiz-adv-x="1024" 
d="M431 -21q-161 0 -247 101.5t-86 308.5v583h218v-584q0 -126 39.5 -178.5t126.5 -52.5q153 0 218 111v704h219v-974h-191l-19 142q-97 -161 -278 -161zM524 1503q-44 0 -72.5 -29.5t-28.5 -72t29.5 -71.5t72 -29t71.5 28.5t29 71.5t-28.5 72.5t-72.5 29.5zM380.5 1270.5
q-56.5 53.5 -56.5 131t57.5 132.5t142 55t142 -55t57.5 -132.5t-56.5 -131t-143 -53.5t-143 53.5z" />
    <glyph glyph-name="Uhungarumlaut" unicode="&#x170;" horiz-adv-x="1202" 
d="M907 1308h220v-878q0 -215 -139.5 -333t-372.5 -118t-370 118.5t-137 332.5v878h218v-878q0 -136 75.5 -206t212.5 -70t215 70t78 206v878zM654 1543l202 272h215l-240 -272h-177zM368 1543l156 272h210l-200 -272h-166z" />
    <glyph glyph-name="uhungarumlaut" unicode="&#x171;" horiz-adv-x="1024" 
d="M431 -21q-161 0 -247 101.5t-86 308.5v583h218v-584q0 -126 39.5 -178.5t126.5 -52.5q153 0 218 111v704h219v-974h-191l-19 142q-97 -161 -278 -161zM556 1233l202 272h215l-240 -272h-177zM270 1233l156 272h210l-200 -272h-166z" />
    <glyph glyph-name="Uogonek" unicode="&#x172;" horiz-adv-x="1202" 
d="M865 1273h227v-877q0 -137 -60 -239.5t-173 -157.5q-61 -41 -93.5 -81t-32.5 -86q0 -61 64 -61q37 0 80 20l18 -127q-64 -40 -149 -40t-137 49.5t-52 129t50 141.5q-232 0 -363 120.5t-131 332.5v876h226v-877q0 -132 67 -201t196 -69q263 0 263 278v869z" />
    <glyph glyph-name="uogonek" unicode="&#x173;" horiz-adv-x="1024" 
d="M914 -43h-20q-78 -49 -111.5 -91.5t-33.5 -87.5q0 -61 64 -61q37 0 80 20l19 -127q-65 -40 -150 -40t-137 49.5t-52 131.5q0 126 132 213l-5 88q-96 -113 -273 -113q-159 0 -240 92t-81 269v631h219v-628q0 -186 154 -186q160 0 216 115v699h219v-974z" />
    <glyph glyph-name="Ydieresis" unicode="&#x178;" horiz-adv-x="1123" 
d="M676 0h-218v472l-447 838h244l315 -637l316 637h244l-454 -850v-460zM870 1587q-31 -30 -83.5 -30t-83.5 30t-31 76t31 76t83.5 30t83.5 -30t31 -76t-31 -76zM375 1558q-52 0 -82.5 30t-30.5 76t30.5 76t82.5 30t83 -30t31 -76t-31 -76t-83 -30z" />
    <glyph glyph-name="Zacute" unicode="&#x179;" horiz-adv-x="1110" 
d="M1015 175v-175h-944v137l658 998h-652v175h916v-131l-662 -1004h684zM480 1543l175 273h250l-250 -273h-175z" />
    <glyph glyph-name="zacute" unicode="&#x17a;" horiz-adv-x="927" 
d="M861 175v-175h-791v143l491 654h-482v177h758v-139l-497 -660h521zM377 1233l175 273h250l-250 -273h-175z" />
    <glyph glyph-name="Zdotaccent" unicode="&#x17b;" horiz-adv-x="1110" 
d="M1016 175v-175h-944v137l658 998h-652v175h916v-131l-662 -1004h684zM589 1566q-56 0 -87 30.5t-31 79.5t31 80t87 31t87 -31t31 -80t-31 -79.5t-87 -30.5z" />
    <glyph glyph-name="zdotaccent" unicode="&#x17c;" horiz-adv-x="927" 
d="M861 175v-175h-791v143l491 654h-482v177h758v-139l-497 -660h521zM485 1256q-56 0 -87 30.5t-31 79.5t31 80t87 31t87 -31t31 -80t-31 -79.5t-87 -30.5z" />
    <glyph glyph-name="Zcaron" unicode="&#x17d;" horiz-adv-x="1110" 
d="M1015 175v-175h-944v137l658 998h-652v175h916v-131l-662 -1004h684zM885 1818v-9l-251 -251h-135l-249 252v8h185l131 -139l132 139h187z" />
    <glyph glyph-name="zcaron" unicode="&#x17e;" horiz-adv-x="927" 
d="M861 175v-175h-791v143l491 654h-482v177h758v-139l-497 -660h521zM782 1508v-9l-251 -251h-135l-249 252v8h185l131 -139l132 139h187z" />
    <glyph glyph-name="florin" unicode="&#x192;" horiz-adv-x="648" 
d="M400 768v-874q0 -159 -81 -245t-230 -86q-60 0 -113 15l13 172q7 -3 37.5 -7.5t45.5 -4.5q108 0 108 157v873h-148v162h148v88q0 164 87 252t247 88q50 0 137 -19l-23 -169q-41 9 -87 9q-142 0 -142 -156v-93h181l1 -162h-181z" />
    <glyph glyph-name="uni021A" unicode="&#x21a;" horiz-adv-x="1119" 
d="M1035 1310v-175h-396v-1135h-219v1135h-396v175h1011z" />
    <glyph glyph-name="uni021B" unicode="&#x21b;" horiz-adv-x="613" 
d="M168 1208h219v-236h175v-162h-175v-538q0 -112 95 -112q38 0 68 12l23 -161q-61 -32 -147 -32q-258 0 -258 293v538h-148v162h148v236z" />
    <glyph glyph-name="uni02BC" unicode="&#x2bc;" horiz-adv-x="650" 
d="M496 1497l15 -31l-163 -458h-182l95 489h235z" />
    <glyph glyph-name="circumflex" unicode="&#x2c6;" horiz-adv-x="898" 
d="M752 1248h-176l-135 140l-134 -140h-174v12l244 248h129l246 -250v-10z" />
    <glyph glyph-name="caron" unicode="&#x2c7;" horiz-adv-x="850" 
d="M738 1508v-9l-251 -251h-135l-249 252v8h185l131 -139l132 139h187z" />
    <glyph glyph-name="uni02C9" unicode="&#x2c9;" horiz-adv-x="889" 
d="M762 1440v-142h-654v142h654z" />
    <glyph glyph-name="breve" unicode="&#x2d8;" horiz-adv-x="803" 
d="M522 1482h165q0 -115 -79.5 -184.5t-211.5 -69.5t-211.5 69.5t-79.5 184.5h164q0 -60 33.5 -92.5t93.5 -32.5t93 32.5t33 92.5z" />
    <glyph glyph-name="dotaccent" unicode="&#x2d9;" horiz-adv-x="471" 
d="M234 1247q-56 0 -87 30.5t-31 79.5t31 80t87 31t87 -31t31 -80t-31 -79.5t-87 -30.5z" />
    <glyph glyph-name="ring" unicode="&#x2da;" horiz-adv-x="621" 
d="M308 1451q-44 0 -72.5 -29.5t-28.5 -72t29.5 -71.5t72 -29t71.5 28.5t29 71.5t-28.5 72.5t-72.5 29.5zM164.5 1218.5q-56.5 53.5 -56.5 131t57.5 132.5t142 55t142 -55t57.5 -132.5t-56.5 -131t-143 -53.5t-143 53.5z" />
    <glyph glyph-name="ogonek" unicode="&#x2db;" horiz-adv-x="530" 
d="M212 -223q0 -61 63 -61q39 0 81 20l19 -127q-65 -40 -149.5 -40t-136.5 49.5t-52 131.5q0 162 220 261l99 -55q-77 -49 -110.5 -91.5t-33.5 -87.5z" />
    <glyph glyph-name="tilde" unicode="&#x2dc;" horiz-adv-x="886" 
d="M569 1256q-36 0 -62 8t-71 33.5t-65 32t-50 6.5t-53.5 -26t-23.5 -67l-134 7q0 100 57 167t143 67q35 0 123.5 -40.5t121.5 -40.5t56.5 26.5t23.5 67.5l135 -11q0 -100 -57.5 -165t-143.5 -65z" />
    <glyph glyph-name="hungarumlaut" unicode="&#x2dd;" horiz-adv-x="719" 
d="M352 1233l202 272h215l-240 -272h-177zM66 1233l156 272h210l-200 -272h-166z" />
    <glyph glyph-name="pi" unicode="&#x3c0;" horiz-adv-x="1140" 
d="M1074 973v-171h-143v-528q0 -57 22 -81t70.5 -24t84.5 9v-169q-62 -21 -144 -21q-252 0 -252 278v536h-299v-803h-219v803h-153v171h1033z" />
    <glyph glyph-name="uni0900" unicode="&#x900;" 
d="M-671 1383v191h194v-191h-194zM-232 1552h1l-1 1v-1zM-580 1685q-200 0 -331 -123l-33 153q57 64 148.5 102t205.5 38t215.5 -40t174.5 -106l-32 -156q-75 65 -165 98.5t-183 33.5z" />
    <glyph glyph-name="uni0901" unicode="&#x901;" 
d="M-903 1693h-1l1 -1v1zM-463 1862v-191h-194v191h194zM-555 1560q200 0 331 123l33 -153q-57 -64 -148.5 -102t-205.5 -38t-215.5 40t-174.5 106l32 156q100 -87 226 -117q60 -15 122 -15z" />
    <glyph glyph-name="uni0902" unicode="&#x902;" 
d="M-214 1655v-201h-204v201h204z" />
    <glyph glyph-name="uni0903" unicode="&#x903;" horiz-adv-x="543" 
d="M353 333v-204h-215v204h215zM353 971v-204h-215v204h215z" />
    <glyph glyph-name="uni0904" unicode="&#x904;" horiz-adv-x="1450" 
d="M1026 0v507h-256q8 -37 8 -74q0 -164 -100.5 -258t-266.5 -94q-86 0 -159.5 16t-167.5 56l30 169q90 -37 144 -52t115 -15q88 0 139 51t51 129.5t-43.5 130.5t-123.5 64q-79 -16 -176 -16v169q165 0 239.5 54t74.5 140q0 65 -43 105.5t-122 40.5q-45 0 -86 -12t-111 -44
l-28 164q114 60 244 60q165 0 263 -83t98 -227q0 -163 -134 -262q30 -19 57 -44h353v444h-191v164h199v43q0 116 -96 116q-19 0 -98 -14.5t-126 -14.5q-127 0 -243 100l58 136q91 -71 193 -71q34 0 134.5 23.5t145.5 23.5q112 0 176 -73.5t64 -208.5v-60h239v-164h-239
v-1119h-215z" />
    <glyph glyph-name="uni0905" unicode="&#x905;" horiz-adv-x="1450" 
d="M779 433q0 -164 -100.5 -258t-266.5 -94q-86 0 -159.5 16t-167.5 56l30 169q90 -37 144 -52t115 -15q88 0 139 51t51 129.5t-43.5 130.5t-123.5 64q-79 -16 -176 -16v169q165 0 239.5 54t74.5 140q0 65 -43 105.5t-122 40.5q-45 0 -86 -12t-111 -44l-28 164
q114 60 244 60q165 0 263 -83t98 -227q0 -163 -134 -262q30 -19 57 -44h353v444h-191v164h645v-164h-239v-1119h-215l1 507h-256q8 -37 8 -74z" />
    <glyph glyph-name="uni0906" unicode="&#x906;" horiz-adv-x="2011" 
d="M779 433q0 -164 -100.5 -258t-266.5 -94q-86 0 -159.5 16t-167.5 56l30 169q90 -37 144 -52t115 -15q88 0 139 51t51 129.5t-43.5 130.5t-123.5 64q-79 -16 -176 -16v169q165 0 239.5 54t74.5 140q0 65 -43 105.5t-122 40.5q-45 0 -86 -12t-111 -44l-28 164
q114 60 244 60q165 0 263 -83t98 -227q0 -163 -134 -262q30 -19 57 -44h353v444h-191v164h1206v-164h-240v-1119h-215v1119h-345v-1119h-215l1 507h-256q8 -37 8 -74z" />
    <glyph glyph-name="uni0907" unicode="&#x907;" horiz-adv-x="1069" 
d="M389 13q-117 0 -188 41t-71 106t44 109t111 44t118.5 -30t112.5 -99q106 1 166.5 46t60.5 107t-36.5 94t-105 32.5t-116 -14t-99.5 -48.5h-24q-113 36 -186 119.5t-73 189t85.5 174t245.5 68.5h212v166h-676v164h1129v-164h-239v-331h-417q-64 0 -98.5 -29.5t-34.5 -78.5
q0 -61 58 -96q106 50 237 50q163 0 258 -82t95 -210t-92.5 -211t-254.5 -100l157 -194l-166 -81l-209 258h-4z" />
    <glyph glyph-name="uni0908" unicode="&#x908;" horiz-adv-x="1069" 
d="M389 15q-117 0 -188 41t-71 106t44 109t111 44t118.5 -30t112.5 -99q106 1 166.5 46t60.5 107t-36.5 94t-105 32.5t-116 -14t-99.5 -48.5h-24q-113 36 -186 119.5t-73 189t85.5 174t245.5 68.5h212v166h-676v164h666q-59 130 -58 233q1 124 81.5 198.5t219.5 74.5
q96 0 177 -32l-17 -133q-55 13 -103 14q-68 1 -111.5 -43t-43.5 -130t45 -184h271v-164h-239v-331h-417q-64 0 -98.5 -29.5t-34.5 -78.5q0 -61 58 -96q106 50 237 50q163 0 258 -82t95 -210t-92.5 -211t-254.5 -100l157 -194l-166 -81l-207 260h-4z" />
    <glyph glyph-name="uni0909" unicode="&#x909;" horiz-adv-x="968" 
d="M389 228q115 0 177.5 51.5t62.5 145.5q0 70 -51.5 124t-142.5 69q-74 -16 -171 -16h-42v173h26q164 0 229.5 49.5t65.5 142.5q0 64 -41 106t-116 48h-416v164h1028v-164h-297q46 -70 46 -161q0 -148 -95 -237q86 -50 135.5 -131t49.5 -177q0 -174 -110 -269.5t-301 -95.5
l-1 2q-173 0 -351 79l28 172q83 -41 148 -58t139 -17z" />
    <glyph glyph-name="uni090A" unicode="&#x90a;" horiz-adv-x="1411" 
d="M726 145.5q-110 -95.5 -292 -95.5t-360 79l28 172q83 -41 148 -58t139 -17q115 0 177.5 51.5t62.5 145.5q0 70 -51.5 124t-142.5 69q-74 -16 -171 -16h-42v173h26q164 0 229.5 49.5t65.5 142.5q0 64 -41 106t-116 48h-416v164h1471v-164h-740q46 -70 46 -166t-46 -172
q110 46 235 46q167 0 274 -101.5t107 -262.5q0 -187 -128 -346l-203 38q115 161 115 309q0 86 -50 138.5t-131 52.5t-148 -41q65 -90 65 -200l-1 1q0 -174 -110 -269.5z" />
    <glyph glyph-name="uni090B" unicode="&#x90b;" horiz-adv-x="1569" 
d="M1338.5 923.5q59.5 -41.5 59.5 -99.5t-61 -119q134 -146 134 -306q0 -126 -81.5 -203t-211.5 -77q-67 0 -113 10l-18 151q27 -4 73 -4q71 0 111.5 36t40.5 98q0 97 -92 193q-129 -59 -290 -71v-532h-215l-2 412l-417 -257l-114 167l487 289l-56 36q-89 57 -149 82
t-119 25q-111 0 -244 -69l-40 187q127 69 275.5 69t320.5 -107l58 -37v322h-705v164h1629v-164h-709v-400q104 8 179 41q-34 49 -34 94.5t42.5 78t122 32.5t139 -41.5z" />
    <glyph glyph-name="uni090C" unicode="&#x90c;" horiz-adv-x="1460" 
d="M1248 -63v1q-153 0 -237 69.5t-84 186.5q0 94 60 156.5t162 78.5q8 46 8 76q0 94 -38 147t-113.5 53t-124.5 -72t-49 -213v-135h-212v177q-9 111 -61.5 171.5t-121.5 60.5t-111.5 -53t-42.5 -150t40 -190.5t130 -207.5l-173 -66q-206 234 -206 492q0 165 92.5 265
t240.5 100q97 0 176 -37.5t131 -103.5q107 141 282 141q15 0 39 -2v237h-1064v164h1520v-164h-240v-323q114 -102 114 -281q0 -89 -40 -223h-58q-74 0 -110.5 -29.5t-36.5 -79t37.5 -76.5t105.5 -27t128 27l22 -140q-68 -30 -165 -30z" />
    <glyph glyph-name="uni090D" unicode="&#x90d;" horiz-adv-x="1139" 
d="M154 718v401h-185v164h1199v-164h-219v-311q0 -265 -212 -377l-134 121q131 94 131 277v290h-365v-394q0 -285 133.5 -418t417.5 -133l-38 -172q-350 0 -539 191.5t-189 524.5zM222 1693h-1l1 -1v1zM570 1560q200 0 331 123l33 -153q-57 -64 -148.5 -102t-205.5 -38
t-215.5 40t-174.5 106l32 156q75 -65 165 -98.5t183 -33.5z" />
    <glyph glyph-name="uni090E" unicode="&#x90e;" horiz-adv-x="1139" 
d="M882 2q-350 0 -539 191.5t-189 524.5v401h-185v164h762v43q0 116 -96 116q-19 0 -98 -14.5t-126 -14.5q-127 0 -243 100l58 136q91 -71 193 -71q34 0 134.5 23.5t145.5 23.5q112 0 176 -73.5t64 -208.5v-60h230v-164h-219v-311q0 -265 -212 -377l-134 121q131 94 131 277
v290h-365v-394q0 -285 133.5 -418t417.5 -133l-38 -172h-1z" />
    <glyph glyph-name="uni090F" unicode="&#x90f;" horiz-adv-x="1139" 
d="M155 718v401h-185v164h1199v-164h-219v-311q0 -265 -212 -377l-134 121q131 94 131 277v290h-365v-394q0 -285 133.5 -418t417.5 -133l-38 -172q-350 0 -539 191.5t-189 524.5z" />
    <glyph glyph-name="uni0910" unicode="&#x910;" horiz-adv-x="1139" 
d="M155 718v401h-185v164h712l-354 412l174 96l412 -508h255v-164h-219v-311q0 -265 -212 -377l-134 121q131 94 131 277v290h-365v-394q0 -285 133.5 -418t417.5 -133l-38 -172q-350 0 -539 191.5t-189 524.5z" />
    <glyph glyph-name="uni0911" unicode="&#x911;" horiz-adv-x="2011" 
d="M778 433q0 -164 -100.5 -258t-266.5 -94q-86 0 -159.5 16t-167.5 56l30 169q90 -37 144 -52t115 -15q88 0 139 51t51 129.5t-43.5 130.5t-123.5 64q-79 -16 -176 -16v169q165 0 239.5 54t74.5 140q0 65 -43 105.5t-122 40.5q-45 0 -86 -12t-111 -44l-28 164
q114 60 244 60q165 0 263 -83t98 -227q0 -163 -134 -262q30 -19 57 -44h353v444h-191v164h1206v-164h-240v-1119h-215v1119h-345v-1119h-215l1 507h-256q8 -37 8 -74zM1091 1693h-1l1 -1v1zM1439 1560q200 0 331 123l33 -153q-57 -64 -148.5 -102t-205.5 -38t-215.5 40
t-174.5 106l32 156q100 -87 226 -117q60 -15 122 -15z" />
    <glyph glyph-name="uni0912" unicode="&#x912;" horiz-adv-x="2011" 
d="M1026 0v507h-256q8 -37 8 -74q0 -164 -100.5 -258t-266.5 -94q-86 0 -159.5 16t-167.5 56l30 169q90 -37 144 -52t115 -15q88 0 139 51t51 129.5t-43.5 130.5t-123.5 64q-79 -16 -176 -16v169q165 0 239.5 54t74.5 140q0 65 -43 105.5t-122 40.5q-45 0 -86 -12t-111 -44
l-28 164q114 60 244 60q165 0 263 -83t98 -227q0 -163 -134 -262q30 -19 57 -44h353v444h-191v164h760v43q0 116 -96 116q-19 0 -98 -14.5t-126 -14.5q-127 0 -243 100l58 136q91 -71 193 -71q34 0 134.5 23.5t145.5 23.5q112 0 176 -73.5t64 -208.5v-60h239v-164h-240
v-1119h-215v1119h-345v-1119h-215z" />
    <glyph glyph-name="uni0913" unicode="&#x913;" horiz-adv-x="2011" 
d="M779 433q0 -164 -100.5 -258t-266.5 -94q-86 0 -159.5 16t-167.5 56l30 169q90 -37 144 -52t115 -15q88 0 139 51t51 129.5t-43.5 130.5t-123.5 64q-79 -16 -176 -16v169q165 0 239.5 54t74.5 140q0 65 -43 105.5t-122 40.5q-45 0 -86 -12t-111 -44l-28 164
q114 60 244 60q165 0 263 -83t98 -227q0 -163 -134 -262q30 -19 57 -44h353v444h-191v164h713l-354 412l174 96l412 -508h261v-164h-240v-1119h-215v1119h-345v-1119h-215l1 507h-256q8 -37 8 -74z" />
    <glyph glyph-name="uni0914" unicode="&#x914;" horiz-adv-x="2011" 
d="M779 433q0 -164 -100.5 -258t-266.5 -94q-86 0 -159.5 16t-167.5 56l30 169q90 -37 144 -52t115 -15q88 0 139 51t51 129.5t-43.5 130.5t-123.5 64q-79 -16 -176 -16v169q165 0 239.5 54t74.5 140q0 65 -43 105.5t-122 40.5q-45 0 -86 -12t-111 -44l-28 164
q114 60 244 60q165 0 263 -83t98 -227q0 -163 -134 -262q30 -19 57 -44h353v444h-191v164h588l-419 283l124 141l446 -329l-189 418l177 53l230 -566h249v-164h-240v-1119h-215v1119h-345v-1119h-215l1 507h-256q8 -37 8 -74z" />
    <glyph glyph-name="uni0915" unicode="&#x915;" horiz-adv-x="1554" 
d="M431 177q-171 0 -282 103.5t-111 272.5t102.5 263t273.5 94q143 0 250 -45v253h-694v164h1614v-164h-705v-280q86 34 195 34q168 0 277 -101.5t109 -262.5q0 -184 -127 -346l-204 38q115 161 115 309q0 86 -50 138.5t-138.5 52.5t-176.5 -63v-637l-214 -1v237
q-92 -59 -234 -59zM434 349q138 0 230 95v237q-98 59 -219 59q-89 0 -140.5 -50.5t-51.5 -143t51.5 -145t129.5 -52.5z" />
    <glyph glyph-name="uni0916" unicode="&#x916;" horiz-adv-x="1733" 
d="M1135 452q100 0 173 53v240q-44 28 -83 37t-103 9t-111 -46t-47 -124t50.5 -123.5t120.5 -45.5zM454 880v239h-484v164h1793v-164h-239v-1119h-216v317q-78 -35 -188 -35q-147 0 -256.5 98.5t-109.5 248.5t98.5 239.5t243.5 89.5q125 0 212 -37v198h-639v-254
q0 -312 -233 -381l333 -395l-156 -112l-619 742l149 116l168 -161q75 8 109 56.5t34 149.5z" />
    <glyph glyph-name="uni0917" unicode="&#x917;" horiz-adv-x="1233" 
d="M809 0v1119h-349v-612q0 -66 -30.5 -101.5t-90.5 -35.5q-95 0 -180.5 79.5t-85.5 171.5q0 50 35 79t97 29h40v390h-275v164h1293v-164h-239v-1119h-215z" />
    <glyph glyph-name="uni0918" unicode="&#x918;" horiz-adv-x="1291" 
d="M866 1119h-345q-81 0 -121.5 -35.5t-40.5 -97t39 -98.5t110 -41q32 2 49 2h108l13 -169h-103q-118 0 -175 -44t-57 -122t60.5 -124t161.5 -46q169 -1 301 89v686zM866 0v226q-132 -57 -311 -57q-204 0 -319.5 97.5t-115 254.5t141.5 250q-124 86 -124 232q0 61 25 116
h-193v164h1351v-164h-240v-1119h-215z" />
    <glyph glyph-name="uni0919" unicode="&#x919;" horiz-adv-x="1254" 
d="M554 28q-131 0 -253.5 34t-211.5 87l49 171q87 -52 198.5 -88t211.5 -36t163 38t63 99t-38 93.5t-109 32.5q-122 0 -225 -63h-24q-115 37 -187 119.5t-72 191.5t83.5 176.5t240.5 67.5h231v168h-704v164h1314v-164h-396v-332h-432q-135 0 -135 -110q0 -66 66 -101
q122 52 245 52q166 0 260 -82t94 -217.5t-114.5 -218t-317.5 -82.5zM1183 769v-179h-204v179h204z" />
    <glyph glyph-name="uni091A" unicode="&#x91a;" horiz-adv-x="1331" 
d="M905 0v234q-108 -59 -255 -59q-180 0 -295.5 98.5t-115.5 261.5q0 92 39 160h-242v169h713v-169h-75q-109 0 -162.5 -48t-53.5 -125.5t54 -121.5t144 -45q140 0 249 90v674h-935v164h1391v-164h-241v-1119h-215z" />
    <glyph glyph-name="uni091B" unicode="&#x91b;" horiz-adv-x="1459" 
d="M538 795l36 1h89l14 -169h-89q-100 0 -154 -50t-54 -140q0 -105 86 -170t232 -64l2 2q186 1 306.5 106t120.5 275q0 89 -36 137.5t-89 48.5q-77 0 -152 -49l-46 158q108 61 215 61h15v176h-507q-82 0 -124 -40.5t-42 -114t46.5 -121t120.5 -47.5h10zM705 32v-1
q-248 -2 -398.5 113t-150.5 305q0 167 134 266q-70 45 -110 114t-40 148t31 141h-201v164h1519v-164h-240v-278q83 -98 83 -257t-76.5 -282t-220.5 -196t-330 -73z" />
    <glyph glyph-name="uni091C" unicode="&#x91c;" horiz-adv-x="1388" 
d="M965 0v696h-325q105 -98 105 -252.5t-100.5 -253.5t-282.5 -99q-148 0 -309 73l37 166q69 -35 122 -48.5t110 -12.5q97 2 151.5 53t54.5 148t-77 162.5t-204 65.5h-68v168h786v253h-995v164h1448v-164h-239v-1119h-214z" />
    <glyph glyph-name="uni091D" unicode="&#x91d;" horiz-adv-x="1624" 
d="M389 13q-117 0 -188 41t-71 106t44 109t111 44t118.5 -30t112.5 -99q106 1 166.5 46t60.5 107t-36.5 94t-105 32.5t-116 -14t-99.5 -48.5h-24q-113 36 -186 119.5t-73 189t85.5 174t245.5 68.5h212v166h-676v164h1685v-164h-240v-1119h-215v324h-242q-5 -119 -97 -198
t-250 -96l157 -194l-166 -81l-209 259h-4zM605 633v-1q107 0 186.5 -37t122.5 -103h286v626h-340v-331h-417q-64 0 -98.5 -29.5t-34.5 -78.5q0 -61 58 -96q106 50 237 50z" />
    <glyph glyph-name="uni091E" unicode="&#x91e;" horiz-adv-x="1484" 
d="M1059 0v501h-256q-18 -148 -123.5 -238.5t-263.5 -90.5q-194 0 -366 106l40 169q101 -54 161 -71.5t129 -17.5q94 0 152.5 56t58.5 149t-57 148.5t-164 55.5t-213 -53l-37 167q128 62 271 62t250.5 -72t146.5 -193h271v441h-1089v164h1544v-164h-240v-1119h-215z" />
    <glyph glyph-name="uni091F" unicode="&#x91f;" horiz-adv-x="1055" 
d="M621 74v-1q-250 0 -398 115.5t-147 304t126 297t347 108.5h80v220h-660v164h1115v-164h-240v-390h-252q-143 0 -220 -64.5t-77 -174t87 -171.5t231 -62q81 -1 135.5 9t131.5 35l20 -181q-73 -24 -133 -34.5t-146 -10.5z" />
    <glyph glyph-name="uni0920" unicode="&#x920;" horiz-adv-x="1207" 
d="M365.5 298.5q83.5 -67.5 218 -67.5t216.5 68.5t82 183.5q0 161 -113 241h-161q-159 0 -242.5 -64.5t-83.5 -179t83.5 -182zM597 56v-1q-242 -1 -386 121.5t-144 321.5q0 178 137.5 287t355.5 109h223v225h-813v164h1267v-164h-239v-344q91 -117 92 -300t-132 -301
t-361 -118z" />
    <glyph glyph-name="uni0921" unicode="&#x921;" horiz-adv-x="1098" 
d="M554 28q-131 0 -253.5 34t-211.5 87l49 171q87 -52 198.5 -88t211.5 -36t163 38t63 99t-38 93.5t-109 32.5q-122 0 -225 -63h-24q-115 37 -187 119.5t-72 191.5t83.5 176.5t240.5 67.5h231v168h-704v164h1158v-164h-240v-332h-432q-135 0 -135 -110q0 -66 66 -101
q122 52 245 52q166 0 260 -82t94 -217.5t-114.5 -218t-317.5 -82.5z" />
    <glyph glyph-name="uni0922" unicode="&#x922;" horiz-adv-x="1100" 
d="M552 901h123v218h-704v164h1160v-164h-240v-386h-313q-140 0 -217.5 -67t-77.5 -183q0 -140 94.5 -214.5t247.5 -74.5q97 0 150.5 37.5t53.5 96.5q0 96 -128 96q-90 0 -202 -88l-75 142q123 111 287 111q146 0 229.5 -73.5t83.5 -188.5q0 -158 -140 -239
q-97 -56 -259 -56t-288 57.5t-196 164t-70 248.5q0 182 127 290.5t354 108.5z" />
    <glyph glyph-name="uni0923" unicode="&#x923;" horiz-adv-x="1512" 
d="M477 545q145 0 145 194v380h-284v-380q0 -93 36.5 -143.5t102.5 -50.5zM1088 0v1119h-251v-374q0 -178 -92 -276.5t-258 -98.5t-265.5 99.5t-99.5 278.5v371h-152v164h1572v-164h-239v-1119h-215z" />
    <glyph glyph-name="uni0924" unicode="&#x924;" horiz-adv-x="1157" 
d="M297 -6h1h-1zM516 880h216v239h-762v164h1217v-164h-240v-1119h-215v706h-165q-129 0 -197 -66t-68 -174q0 -193 171 -403l-175 -69q-101 118 -155 250t-53 259q1 172 112 274.5t314 102.5z" />
    <glyph glyph-name="uni0925" unicode="&#x925;" horiz-adv-x="1294" 
d="M868 257q-113 -47 -250.5 -47t-250.5 49t-203 155.5t-137 263.5l5 36q270 10 378 84q51 35 73 75.5t22 100t-36 97t-90.5 37.5t-85.5 -34t-31 -87q0 -30 13 -80l-162 -20q-28 67 -26 146q2 103 79 170.5t214 67.5t223 -86t86 -219q0 -162 -113.5 -267.5t-300.5 -118.5
q43 -95 131.5 -145.5t190.5 -50.5q161 0 272 83v652h-85v164h540v-164h-240v-1119h-215z" />
    <glyph glyph-name="uni0926" unicode="&#x926;" horiz-adv-x="1067" 
d="M597 124q-225 0 -371 113.5t-146 299.5q0 166 121.5 263t335.5 97h104v221h-672v164h1127v-164h-240v-390h-279q-144 0 -214 -57t-70 -155.5t75.5 -159.5t191.5 -61h9q-5 19 -5 50q0 55 43.5 92t131.5 37t149 -51.5t61 -116.5q0 -101 -123 -147l121 -296l-196 -39
l-114 301q-12 -1 -40 -1z" />
    <glyph glyph-name="uni0927" unicode="&#x927;" horiz-adv-x="1300" 
d="M526 848l38 1h110l14 -169h-105q-119 0 -176 -44t-57 -122t60.5 -124.5t161.5 -46.5q173 0 304 90v686h-87v164h541v-164h-239v-1119l-215 -1v229q-131 -61 -324 -61t-309 98.5t-115.5 255t136.5 248.5q-77 46 -123 114.5t-46 151.5q0 114 84.5 187.5t215 73.5t215.5 -41
l-24 -148q-69 26 -137 26t-103.5 -34.5t-35.5 -96.5t61.5 -108t143.5 -46h11z" />
    <glyph glyph-name="uni0928" unicode="&#x928;" horiz-adv-x="1143" 
d="M719 0v638h-342v-153q0 -130 -110 -130q-79 0 -143 94t-64 209q0 159 187 159h472v302h-749v164h1203v-164h-239v-1119h-215z" />
    <glyph glyph-name="uni0929" unicode="&#x929;" horiz-adv-x="1143" 
d="M390 80v-175h-200v175h200zM719 0v638h-342v-153q0 -130 -110 -130q-79 0 -143 94t-64 209q0 159 187 159h472v302h-749v164h1203v-164h-239v-1119h-215z" />
    <glyph glyph-name="uni092A" unicode="&#x92a;" horiz-adv-x="1112" 
d="M687 0v435q-75 -41 -187 -41q-176 0 -280 109.5t-104 321.5v294h-146v164h1172v-164h-240v-1119h-215zM686 1119h-356v-345q0 -108 43.5 -159t122.5 -51q116 0 190 73v482z" />
    <glyph glyph-name="uni092B" unicode="&#x92b;" horiz-adv-x="1579" 
d="M499 393q-176 0 -280 109.5t-104 321.5v294h-146v164h1639v-164h-707v-281q89 35 201 35q167 0 274 -101.5t107 -262.5q0 -187 -128 -346l-203 38q115 161 115 309q0 86 -50 138.5t-139 52.5t-177 -63v-637l-215 -1v435q-75 -41 -187 -41zM686 1119h-356v-345
q0 -108 43.5 -159t122.5 -51q116 0 190 73v482z" />
    <glyph glyph-name="uni092C" unicode="&#x92c;" horiz-adv-x="1133" 
d="M486 366q30 0 55 4l-199 363q-73 -57 -73 -159t58.5 -155t158.5 -53zM489 777v1q-13 0 -35 -2l204 -367q23 12 51 35v277q-96 56 -220 56zM709 0v249q-96 -55 -232 -55q-184 0 -303.5 110.5t-119.5 276.5t110 265t295 99q140 0 250 -46v220h-739v164h1193v-164h-239
v-1119h-215z" />
    <glyph glyph-name="uni092D" unicode="&#x92d;" horiz-adv-x="1174" 
d="M447 521v-57q0 -123 -110 -123q-96 0 -182.5 79t-86.5 170q0 48 35.5 77.5t95.5 29.5h33v262q0 85 -29 125t-78 39q-35 0 -58 -8t-63 -32l-26 159q70 54 193.5 54t199 -86t75.5 -249v-264h303v422h-87v164h542v-164h-240v-1119h-215l1 521h-303z" />
    <glyph glyph-name="uni092E" unicode="&#x92e;" horiz-adv-x="1207" 
d="M782 0v521h-333v-57q0 -123 -112 -123q-99 0 -183 77.5t-84 171.5q0 48 35.5 77.5t95.5 29.5h33v422h-264v164h1267v-164h-240v-1119h-215zM782 1119h-333v-422h333v422z" />
    <glyph glyph-name="uni092F" unicode="&#x92f;" horiz-adv-x="1212" 
d="M575 442q127 0 212 70v607h-331q40 -44 65 -101.5t25 -114.5q0 -109 -67 -189t-174 -100q44 -82 115.5 -127t154.5 -45zM787 0v302q-85 -34 -206 -35q-171 0 -322 118t-209 305l5 32q274 33 274 203q0 114 -107 194h-252v164h1272v-164h-240v-1119h-215z" />
    <glyph glyph-name="uni0930" unicode="&#x930;" horiz-adv-x="865" 
d="M454 880v239h-484v164h925v-164h-226v-254q0 -312 -233 -381l333 -395l-156 -112l-619 742l149 116l168 -161q75 8 109 56.5t34 149.5z" />
    <glyph glyph-name="uni0931" unicode="&#x931;" horiz-adv-x="873" 
d="M258 80v-175h-200v175h200zM454 880v239h-484v164h925v-164h-226v-254q0 -312 -233 -381l333 -395l-156 -112l-619 742l149 116l168 -161q75 8 109 56.5t34 149.5z" />
    <glyph glyph-name="uni0932" unicode="&#x932;" horiz-adv-x="1557" 
d="M1014 705q-78 0 -127 -72t-49 -211v-135h-212v138q0 129 -54.5 200t-135.5 71q-66 0 -109.5 -53.5t-43.5 -150t39.5 -190t128.5 -206.5l-174 -67q-205 237 -205 492q0 165 93 266.5t242 101.5q202 0 313 -142q51 67 123 104.5t148.5 37.5t139.5 -21v251h-1161v164h1617
v-164h-240v-1119h-216l2 668q-55 37 -119 37z" />
    <glyph glyph-name="uni0933" unicode="&#x933;" horiz-adv-x="1595" 
d="M326 294q54 -65 143 -65t141.5 64.5t52.5 195t-51.5 191.5t-144.5 61t-144 -65t-51 -191t54 -191zM1252 678.5q-51 63.5 -135.5 63.5t-136.5 -63.5t-52 -189t52 -190t138 -64.5t135.5 67t49.5 190t-51 186.5zM184.5 182q-110.5 118 -110.5 309.5t101.5 302.5t280.5 111
q107 0 193.5 -44t141.5 -118q53 78 135.5 120.5t175.5 42.5q39 0 67 -4v217h-1199v164h1655v-164h-240v-318q113 -116 113 -310t-101 -310t-274 -116h1h-1q-98 0 -183.5 40.5t-141.5 115.5q-45 -70 -128.5 -111t-198.5 -43q-176 -3 -286.5 115z" />
    <glyph glyph-name="uni0934" unicode="&#x934;" horiz-adv-x="1595" 
d="M419 -29v-175h-200v175h200zM326 294q54 -65 143 -65t141.5 64.5t52.5 195t-51.5 191.5t-144.5 61t-144 -65t-51 -191t54 -191zM1252 678.5q-51 63.5 -135.5 63.5t-136.5 -63.5t-52 -189t52 -190t138 -64.5t135.5 67t49.5 190t-51 186.5zM184.5 182
q-110.5 118 -110.5 309.5t101.5 302.5t280.5 111q107 0 193.5 -44t141.5 -118q53 78 135.5 120.5t175.5 42.5q39 0 67 -4v217h-1199v164h1655v-164h-240v-318q113 -116 113 -310t-101 -310t-274 -116h1h-1q-98 0 -183.5 40.5t-141.5 115.5q-45 -70 -128.5 -111t-198.5 -43
q-176 -3 -286.5 115z" />
    <glyph glyph-name="uni0935" unicode="&#x935;" horiz-adv-x="1133" 
d="M486 365q133 0 223 79v277q-96 56 -220 56q-99 0 -159.5 -55.5t-60.5 -153t58.5 -150.5t158.5 -53zM709 0v249q-96 -55 -232 -55q-184 0 -303.5 110.5t-119.5 276.5t110 265t295 99q140 0 250 -46v220h-739v164h1193v-164h-239v-1119h-215z" />
    <glyph glyph-name="uni0936" unicode="&#x936;" horiz-adv-x="1483" 
d="M400 352q-57 -16 -121.5 -16t-108.5 38.5t-44 118t51 137t121 57.5q84 0 148 -81q196 90 196 302q0 98 -48.5 153.5t-120 55.5t-113 -45t-40.5 -117q0 -35 13 -93l-173 -27q-31 82 -31 162q0 129 93 214t254.5 85t267 -108.5t105.5 -291.5q0 -141 -79.5 -265t-202.5 -203
l255 -336l-172 -92zM1057 0v1119h-87v164h543v-164h-240v-1119h-216z" />
    <glyph glyph-name="uni0937" unicode="&#x937;" horiz-adv-x="1112" 
d="M687 1119h-258l258 -463v463zM687 0v435q-75 -41 -187 -41q-176 0 -280 109.5t-104 321.5v294h-146v164h1172v-164h-240v-1119h-215zM330 774q0 -209 165 -210q48 0 96 14l-261 472v-276z" />
    <glyph glyph-name="uni0938" unicode="&#x938;" horiz-adv-x="1377" 
d="M417 880v239h-447v164h1437v-164h-239v-1119h-215v511h-482q-38 -18 -59 -23l287 -408l-167 -94l-535 752l148 106l158 -169q59 14 86.5 63.5t27.5 141.5zM632 857q0 -102 -23 -174h344v436h-321v-262z" />
    <glyph glyph-name="uni0939" unicode="&#x939;" horiz-adv-x="1096" 
d="M139 206q0 139 95 237q-137 104 -137 247q0 114 87.5 182t240.5 68h246v178h-701v164h1156v-164h-240v-347h-428q-73 0 -110 -29t-37 -81q0 -76 79 -119q74 28 170 28q180 0 292.5 -94.5t112.5 -226.5q0 -68 -27 -154l-200 19q17 68 17 118q0 71 -49.5 118t-142.5 46.5
t-151 -59.5t-58 -150q0 -136 117.5 -207.5t384.5 -72.5l-24 -168q-341 0 -517 125.5t-176 341.5z" />
    <glyph glyph-name="uni093A" unicode="&#x93a;" 
d="M-422 1471h214v-296h-214v296z" />
    <glyph glyph-name="uni093B" unicode="&#x93b;" horiz-adv-x="580" 
d="M155 0v1119h-185v164h184v188h214v-188h242v-164h-240v-1119h-215z" />
    <glyph glyph-name="uni093C" unicode="&#x93c;" 
d="M-685 80v-175h-200v175h200z" />
    <glyph glyph-name="uni093D" unicode="&#x93d;" horiz-adv-x="1025" 
d="M498 77q-106 0 -192.5 22.5t-196.5 80.5l42 181q179 -98 329 -98q91 0 139 40.5t48 112.5t-55 129.5t-199 120.5q-295 129 -295 344q0 125 86.5 199t251.5 74h377v-164h-358q-69 0 -105 -33t-36 -86.5t43 -92t166 -90.5q171 -76 256 -174.5t85 -231.5l-1 1
q0 -151 -103.5 -243t-281.5 -92z" />
    <glyph glyph-name="uni093E" unicode="&#x93e;" horiz-adv-x="580" 
d="M155 0v1119h-185v164h640v-164h-240v-1119h-215z" />
    <glyph glyph-name="uni093F" unicode="&#x93f;" horiz-adv-x="580" 
d="M155 0v1118h-185v164h185v46q0 187 146 298t431 110q152 0 331.5 -40t322.5 -108l-38 -154q-309 122 -604 122q-185 0 -279.5 -66t-94.5 -176v-31h240v-164h-240v-1119h-215z" />
    <glyph glyph-name="uni0940" unicode="&#x940;" horiz-adv-x="580" 
d="M155 0v1118h-185v164h161q-63 135 -140 208t-159 73q-56 0 -85 -30t-29 -86q0 -105 81 -205h-220q-29 42 -49 106t-20 132q0 117 77.5 187t214.5 70q175 0 309.5 -111t233.5 -343h265v-164h-240v-1119h-215z" />
    <glyph glyph-name="uni0941" unicode="&#x941;" 
d="M-338 44q166 0 257 -82t91 -209.5t-95 -204.5t-266 -78q-263 -2 -510 205l69 157q226 -194 421 -194q93 0 140.5 32.5t47.5 90.5t-40.5 89t-131.5 31t-186 -54l-48 148q49 32 117.5 50.5t133.5 18.5z" />
    <glyph glyph-name="uni0942" unicode="&#x942;" 
d="M-302 -541q-159 0 -261 82t-102 210t90 204.5t249 76.5q318 0 561 -388l-114 -118q-121 186 -227 261t-210 75q-76 0 -116 -34t-40 -91.5t46.5 -90t120.5 -32.5t143 16l20 -152q-58 -19 -160 -19z" />
    <glyph glyph-name="uni0943" unicode="&#x943;" 
d="M-315 -513q-161 0 -257 80t-96 205t90 198.5t241 73.5h128v-143h-86q-85 0 -130 -38t-45 -98.5t43 -97t120 -36.5t153 27l22 -139q-67 -32 -183 -32z" />
    <glyph glyph-name="uni0944" unicode="&#x944;" 
d="M-548 -438q0 55 38 98q-51 30 -78.5 76t-27.5 99q0 93 76.5 151t203.5 58h127v-143h-87q-83 0 -114 -18.5t-31 -57t33.5 -59.5t91.5 -21t132 17l27 -117q-71 -31 -164 -31h-18q-57 -15 -57 -64q0 -68 100 -68q57 0 139 28l24 -112q-74 -36 -164 -36q-118 0 -184.5 55
t-66.5 145z" />
    <glyph glyph-name="uni0945" unicode="&#x945;" 
d="M-931 1693h-1l1 -1v1zM-583 1560q200 0 331 123l33 -153q-57 -64 -148.5 -102t-205.5 -38t-215.5 40t-174.5 106l32 156q75 -65 165 -98.5t183 -33.5z" />
    <glyph glyph-name="uni0946" unicode="&#x946;" 
d="M-211 1221h-208v105q0 116 -96 116q-19 0 -98 -14.5t-126 -14.5q-127 0 -243 100l58 136q91 -71 193 -71q34 0 134.5 23.5t145.5 23.5q112 0 176 -73.5t64 -208.5v-122z" />
    <glyph glyph-name="uni0947" unicode="&#x947;" 
d="M-191 1232h-229l-398 463l174 96z" />
    <glyph glyph-name="uni0948" unicode="&#x948;" 
d="M-522 1232l-495 334l124 141l446 -329l-189 418l177 53l251 -617h-314z" />
    <glyph glyph-name="uni0949" unicode="&#x949;" horiz-adv-x="580" 
d="M154 0v1119h-185v164h640v-164h-240v-1119h-215zM-83 1694h-1l1 -1v1zM265 1561q200 0 331 123l33 -153q-57 -64 -148.5 -102t-205.5 -38t-215.5 40t-174.5 106l32 156q75 -65 165 -98.5t183 -33.5z" />
    <glyph glyph-name="uni094A" unicode="&#x94a;" horiz-adv-x="580" 
d="M-31 1119v164h176v43q0 116 -96 116q-19 0 -98 -14.5t-126 -14.5q-127 0 -243 100l58 136q91 -71 193 -71q34 0 134.5 23.5t145.5 23.5q112 0 176 -73.5t64 -208.5v-60h257v-164h-240v-1119h-215l-1 1119h-185z" />
    <glyph glyph-name="uni094B" unicode="&#x94b;" horiz-adv-x="580" 
d="M155 0v1119h-185v164h142l-354 412l174 96l412 -508h266v-164h-240v-1119h-215z" />
    <glyph glyph-name="uni094C" unicode="&#x94c;" horiz-adv-x="580" 
d="M155 0v1119h-185v164h19l-419 283l124 141l446 -329l-189 418l177 53l230 -566h252v-164h-240v-1119h-215z" />
    <glyph glyph-name="uni094D" unicode="&#x94d;" 
d="M-505 -241l81 150l495 -248l-85 -146z" />
    <glyph glyph-name="uni094E" unicode="&#x94e;" horiz-adv-x="574" 
d="M154 0v1283h449v-164h-235v-1119h-214z" />
    <glyph glyph-name="uni094F" unicode="&#x94f;" horiz-adv-x="580" 
d="M-33 1120v164h108l-4 6q-26 42 -54 59.5t-60.5 17.5t-99.5 -14t-103 -14q-112 0 -218 79l45 126q81 -60 166 -60q27 0 111 20t121 20q129 0 219 -126v94q0 46 -22 71t-52 25t-93 -13t-99 -13q-128 0 -233 98l53 123q91 -73 180 -73q35 0 117.5 20t118.5 20
q91 0 146.5 -61t55.5 -178v-227h240v-164h-240v-1119h-215l-3 1119h-185z" />
    <glyph glyph-name="uni0950" unicode="&#x950;" horiz-adv-x="1860" 
d="M465 81q-86 0 -159.5 16t-167.5 56l30 169q90 -37 144 -52t115 -15q88 0 139 51t51 129.5t-43.5 130.5t-123.5 64q-79 -16 -176 -16v169q165 0 239.5 54t74.5 140q0 65 -43 105.5t-121 40.5q-46 0 -86.5 -12t-110.5 -44l-28 164q114 60 244 60q165 0 263.5 -83t98.5 -227
q0 -165 -134 -262q70 -44 113.5 -112t48.5 -153q15 -3 55 -3q59 0 97 40t58 135q41 187 128 273.5t231 86.5t238 -107t94 -274t-89.5 -269t-242.5 -102q-67 0 -157 26l22 150q65 -17 126.5 -17t102.5 54t41 162.5t-36 160t-95 51.5q-124 0 -165 -221q-32 -166 -112 -240
t-221 -74l-1 1q-53 0 -96 9q-37 -103 -128 -159t-218 -56zM839 1378h-1l1 -1v1zM1279 1547v-191h-194v191h194zM1187 1245q200 0 331 123l33 -153q-57 -64 -148.5 -102t-205.5 -38t-215.5 40t-174.5 106l32 156q75 -65 165 -98.5t183 -33.5z" />
    <glyph glyph-name="uni0951" unicode="&#x951;" 
d="M-422 1712h214v-296h-214v296z" />
    <glyph glyph-name="uni0952" unicode="&#x952;" 
d="M-206 -228h-722v157h722v-157z" />
    <glyph glyph-name="uni0953" unicode="&#x953;" 
d="M-355 1801l137 -381h-187l-218 381h268z" />
    <glyph glyph-name="uni0954" unicode="&#x954;" 
d="M-413 1420l138 381h265l-216 -381h-187z" />
    <glyph glyph-name="uni0955" unicode="&#x955;" 
d="M-214 1379h-722v149h722v-149zM-924 1867h-1l1 -1v1zM-245 1858l33 -136q-125 -125 -361 -125q-107 0 -208.5 36t-174.5 94l32 139q150 -117 349.5 -117t329.5 109z" />
    <glyph glyph-name="uni0956" unicode="&#x956;" 
d="M104 -193q-157 -136 -393.5 -136t-421.5 130l48 142q160 -114 365.5 -114t345.5 118z" />
    <glyph glyph-name="uni0957" unicode="&#x957;" 
d="M125 -431q-166 -121 -414.5 -121t-440.5 116l51 126q170 -101 385.5 -101t361.5 105zM104 -186q-157 -124 -395.5 -124t-419.5 119l48 130q161 -105 365 -105t346 108z" />
    <glyph glyph-name="uni0958" unicode="&#x958;" horiz-adv-x="1554" 
d="M271 79v-175h-200v175h200zM431 177q-171 0 -282 103.5t-111 272.5t102.5 263t273.5 94q143 0 250 -45v253h-694v164h1614v-164h-705v-280q86 34 195 34q168 0 277 -101.5t109 -262.5q0 -184 -127 -346l-204 38q115 161 115 309q0 86 -50 138.5t-138.5 52.5t-176.5 -63
v-637l-214 -1v237q-92 -59 -234 -59zM434 349q138 0 230 95v237q-98 59 -219 59q-89 0 -140.5 -50.5t-51.5 -143t51.5 -145t129.5 -52.5z" />
    <glyph glyph-name="uni0959" unicode="&#x959;" horiz-adv-x="1733" 
d="M350 80v-175h-200v175h200zM1135 452q100 0 173 53v240q-44 28 -83 37t-103 9t-111 -46t-47 -124t50.5 -123.5t120.5 -45.5zM454 880v239h-484v164h1793v-164h-239v-1119h-216v317q-78 -35 -188 -35q-147 0 -256.5 98.5t-109.5 248.5t98.5 239.5t243.5 89.5
q125 0 212 -37v198h-639v-254q0 -312 -233 -381l333 -395l-156 -112l-619 742l149 116l168 -161q75 8 109 56.5t34 149.5z" />
    <glyph glyph-name="uni095A" unicode="&#x95a;" horiz-adv-x="1233" 
d="M400 80v-175h-200v175h200zM809 0v1119h-349v-612q0 -66 -30.5 -101.5t-90.5 -35.5q-95 0 -180.5 79.5t-85.5 171.5q0 50 35 79t97 29h40v390h-275v164h1293v-164h-239v-1119h-215z" />
    <glyph glyph-name="uni095B" unicode="&#x95b;" horiz-adv-x="1388" 
d="M315 0v-175h-200v175h200zM965 0v696h-325q105 -98 105 -252.5t-100.5 -253.5t-282.5 -99q-148 0 -309 73l37 166q69 -35 122 -48.5t110 -12.5q97 2 151.5 53t54.5 148t-77 162.5t-204 65.5h-68v168h786v253h-995v164h1448v-164h-239v-1119h-214z" />
    <glyph glyph-name="uni095C" unicode="&#x95c;" horiz-adv-x="1098" 
d="M659 -91v-175h-200v175h200zM554 28q-131 0 -253.5 34t-211.5 87l49 171q87 -52 198.5 -88t211.5 -36t163 38t63 99t-38 93.5t-109 32.5q-122 0 -225 -63h-24q-115 37 -187 119.5t-72 191.5t83.5 176.5t240.5 67.5h231v168h-704v164h1158v-164h-240v-332h-432
q-135 0 -135 -110q0 -66 66 -101q122 52 245 52q166 0 260 -82t94 -217.5t-114.5 -218t-317.5 -82.5z" />
    <glyph glyph-name="uni095D" unicode="&#x95d;" horiz-adv-x="1100" 
d="M684 -94v-175h-200v175h200zM552 901h123v218h-704v164h1160v-164h-240v-386h-313q-140 0 -217.5 -67t-77.5 -183q0 -140 94.5 -214.5t247.5 -74.5q97 0 150.5 37.5t53.5 96.5q0 96 -128 96q-90 0 -202 -88l-75 142q123 111 287 111q146 0 229.5 -73.5t83.5 -188.5
q0 -158 -140 -239q-97 -56 -259 -56t-288 57.5t-196 164t-70 248.5q0 182 127 290.5t354 108.5z" />
    <glyph glyph-name="uni095E" unicode="&#x95e;" horiz-adv-x="1579" 
d="M389 79v-175h-200v175h200zM499 393q-176 0 -280 109.5t-104 321.5v294h-146v164h1639v-164h-707v-281q89 35 201 35q167 0 274 -101.5t107 -262.5q0 -187 -128 -346l-203 38q115 161 115 309q0 86 -50 138.5t-139 52.5t-177 -63v-637l-215 -1v435q-75 -41 -187 -41z
M686 1119h-356v-345q0 -108 43.5 -159t122.5 -51q116 0 190 73v482z" />
    <glyph glyph-name="uni095F" unicode="&#x95f;" horiz-adv-x="1212" 
d="M430 80v-175h-200v175h200zM575 442q127 0 212 70v607h-331q40 -44 65 -101.5t25 -114.5q0 -109 -67 -189t-174 -100q44 -82 115.5 -127t154.5 -45zM787 0v302q-85 -34 -206 -35q-171 0 -322 118t-209 305l5 32q274 33 274 203q0 114 -107 194h-252v164h1272v-164h-240
v-1119h-215z" />
    <glyph glyph-name="uni0960" unicode="&#x960;" horiz-adv-x="1575" 
d="M305 755q-111 0 -244 -69l-40 187q127 69 275.5 69t320.5 -107l58 -37v322h-705v164h1635v-164h-715v-400q104 8 179 41q-34 49 -34 94.5t42.5 78t122 32.5t139 -41.5t59.5 -99.5t-57 -115l-13 -13l132 -231l-8 -65q-113 -35 -151 -65.5t-38 -70.5t25 -60.5t76.5 -20.5
t98.5 16l18 -143q-75 -22 -143 -22q-124 0 -198 64.5t-74 170.5q0 138 170 216l-67 112q-128 -54 -279 -66v-532l-217 1v412l-417 -257l-114 167l487 289l-56 36q-89 57 -149 82t-119 25z" />
    <glyph glyph-name="uni0961" unicode="&#x961;" horiz-adv-x="1460" 
d="M1421 -211v1v-1zM1005 -46q0 55 37 97q-51 30 -78 76t-27 100q0 79 58.5 132.5t157.5 66.5q3 24 3 79q0 94 -38 147t-113.5 53t-124.5 -72t-49 -213v-135h-212v177q-9 111 -61.5 171.5t-121.5 60.5t-111.5 -53t-42.5 -150t40 -190.5t130 -207.5l-173 -66
q-206 234 -206 492q0 165 92.5 265t240.5 100q97 0 176 -37.5t131 -103.5q107 141 282 141q15 0 39 -2v237h-1064v164h1520v-164h-240v-323q114 -102 114 -281q0 -101 -31 -223h-65q-86 0 -119 -19.5t-33 -58.5t32.5 -59.5t90 -20.5t131.5 17l27 -117q-71 -31 -164 -31h-22
q-50 -15 -50 -62q0 -67 97 -67q60 0 139 27l24 -111q-74 -36 -165 -36q-118 0 -184.5 55t-66.5 145z" />
    <glyph glyph-name="uni0962" unicode="&#x962;" 
d="M-149 -331q-50 33 -50 79.5t32 75.5t79 38q2 18 2 27q0 29 -19.5 47t-55.5 18t-56 -27t-20 -67v-66h-166v64q0 39 -25 67.5t-61.5 28.5t-55.5 -19t-19 -50q0 -76 109 -186l-124 -38q-58 51 -92.5 114t-34.5 132t54 117t151 48t174 -60q73 60 168 60t151 -50.5t56 -125.5
q0 -54 -18 -102h-33q-76 0 -76 -43q0 -20 19 -31t46.5 -11t82.5 12l13 -72q-40 -14 -97 -14l1 1q-85 0 -135 33z" />
    <glyph glyph-name="uni0963" unicode="&#x963;" 
d="M-80 -136l1 25q0 29 -19.5 47t-55.5 18t-56 -27t-20 -68v-66h-166v64q0 40 -25 68t-61.5 28t-55.5 -18.5t-19 -50.5q0 -76 109 -186l-124 -38q-58 52 -92.5 115t-34.5 132t54 117t151 48t174 -60q73 60 168 60t151 -51t56 -125q0 -46 -18 -94h-33q-43 0 -59.5 -7.5
t-16.5 -25.5q0 -33 62 -33q25 0 73 8l15 -61q-40 -14 -93 -14h-2q-27 -6 -27 -25q0 -14 14 -22t41.5 -8t66.5 12l16 -58h2q-46 -14 -106.5 -14t-98.5 24t-38 65q0 24 21 45q-66 27 -66 84q0 36 30.5 60.5t81.5 31.5z" />
    <glyph glyph-name="uni0964" unicode="&#x964;" horiz-adv-x="853" 
d="M534 -160h-215v1547h215v-1547z" />
    <glyph glyph-name="uni0965" unicode="&#x965;" horiz-adv-x="1249" 
d="M931 -160h-215v1547h215v-1547zM534 -160h-215v1547h215v-1547z" />
    <glyph glyph-name="uni0966" unicode="&#x966;" horiz-adv-x="1108" 
d="M550 382v1q111 0 178 74.5t67 198.5t-68.5 200.5t-176 76.5t-174 -77t-66.5 -199.5t70 -198.5t170 -76zM221 974q126 126 329.5 126t331.5 -125t128 -319.5t-126 -318t-328 -123.5t-331.5 123t-129.5 317t126 320z" />
    <glyph glyph-name="uni0967" unicode="&#x967;" horiz-adv-x="870" 
d="M275 960h1q0 -80 62.5 -128t177.5 -56q46 45 67 87.5t21 101t-47.5 106t-119.5 47.5t-117 -45.5t-45 -112.5zM542 22v49q0 52 -10.5 74.5t-50.5 45.5l-358 210l-3 44l242 201q-131 32 -210.5 118.5t-79.5 212t98.5 215.5t262 90t265 -95t101.5 -229q0 -92 -40.5 -166.5
t-158.5 -178.5l-202 -177l238 -141q63 -38 89.5 -85t26.5 -123v-65h-210z" />
    <glyph glyph-name="uni0968" unicode="&#x968;" horiz-adv-x="919" 
d="M369 376q-54 -12 -114.5 -12t-104 37t-43.5 116t51.5 137t120.5 58q91 0 161 -90q79 40 126.5 106t47.5 153t-70.5 149t-177.5 62q-67 0 -119.5 -12t-123.5 -40l-26 172q124 57 269 57q209 0 333.5 -111.5t124.5 -286.5q0 -130 -78 -242.5t-201 -182.5l269 -360l-172 -96
z" />
    <glyph glyph-name="uni0969" unicode="&#x969;" horiz-adv-x="930" 
d="M354 193q-117 0 -187.5 41t-70.5 105.5t43.5 108.5t113.5 44q106 0 217 -117q58 10 90.5 47t32.5 97.5t-42 104.5t-121 56q-54 -8 -108 -8h-78v168h32q139 0 211 41t72 105t-43.5 97.5t-128.5 33.5t-208 -58l-25 161q52 26 118 41.5t120 15.5q182 0 282 -80t100 -210
t-120 -220q72 -45 113 -112.5t41 -145.5q0 -106 -66.5 -184.5t-171.5 -112.5l161 -199l-165 -81l-208 261h-4z" />
    <glyph glyph-name="uni096A" unicode="&#x96a;" horiz-adv-x="1027" 
d="M437.5 283.5q39.5 -33.5 97 -33.5t94 32.5t36.5 81t-27 85.5t-113 89q-127 -76 -127 -163q0 -58 39.5 -91.5zM531 86v-2q-144 0 -241.5 83t-97.5 204q0 146 165 270q-117 85 -194 194t-77 232q0 97 41 190l198 -45q-32 -77 -32 -159q0 -154 233 -305q144 85 192.5 153.5
t48.5 154.5q0 48 -5 78.5t-26 87.5l193 28q42 -113 42 -190q0 -243 -276 -424q167 -130 167 -273q0 -126 -91 -201.5t-240 -75.5z" />
    <glyph glyph-name="uni096B" unicode="&#x96b;" horiz-adv-x="1000" 
d="M517 367q-190 0 -316.5 111.5t-126.5 291.5q0 151 96 286.5t277 227.5l145 -126q-306 -165 -306 -397q0 -98 62.5 -156.5t151.5 -58.5q33 0 56 4q-15 33 -15 87.5t44 94.5t129 40t145.5 -49t60.5 -118q0 -93 -103 -161l185 -380l-182 -69l-176 383q-54 -11 -127 -11z" />
    <glyph glyph-name="uni096C" unicode="&#x96c;" horiz-adv-x="945" 
d="M542 169q-186 0 -300.5 88t-114.5 244q0 172 150 265q-133 81 -133 228q0 131 96.5 205t274.5 74q150 0 275 -49l-27 -156q-117 42 -213.5 42t-143.5 -36t-47 -95.5t48 -95.5t129 -40q41 4 99 4h76v-168h-67q-301 0 -301 -183q0 -73 49 -114t116 -41q14 0 22 1
q-10 27 -10 62q0 53 37 84.5t116.5 31.5t148.5 -46.5t69 -118.5t-89 -128l113 -205l-181 -67l-113 218q-33 -4 -79 -4z" />
    <glyph glyph-name="uni096D" unicode="&#x96d;" horiz-adv-x="1148" 
d="M664.5 830q-33.5 -37 -33.5 -105.5t58 -120.5t182 -74q15 67 15 138q0 100 -38 149.5t-94 49.5t-89.5 -37zM306 702q0 -207 84 -308t211 -101t201 92q-167 26 -265.5 121.5t-98.5 227t81.5 213.5t213.5 82q154 0 250.5 -101t96.5 -268q0 -224 -122 -370
q-135 -161 -351 -162q-176 0 -302 97q-131 101 -179 279q-25 94 -25 220.5t42 271.5t112 261l201 -44q-64 -109 -107 -255t-43 -256z" />
    <glyph glyph-name="uni096E" unicode="&#x96e;" horiz-adv-x="932" 
d="M301 526q0 -96 67 -150t163.5 -53t147.5 11.5t140 41.5l26 -175q-81 -29 -152 -42t-167 -13q-190 0 -316.5 108t-126.5 282q0 196 205 391l365 347l155 -121l-359 -352q-148 -145 -148 -275z" />
    <glyph glyph-name="uni096F" unicode="&#x96f;" horiz-adv-x="939" 
d="M584.5 1068q-50.5 48 -125.5 48t-123 -51.5t-48 -136.5q0 -52 20 -91q19 -38 82 -106q115 11 177.5 67t65 139t-48 131zM612 32v86q0 64 -22.5 109t-76.5 99l-269 273q-167 168 -167 340q0 150 101.5 249t272 99t279.5 -100t109 -251q0 -132 -83 -228t-228 -121l164 -171
q71 -73 102 -140.5t31 -145.5v-98h-213z" />
    <glyph glyph-name="uni0970" unicode="&#x970;" horiz-adv-x="769" 
d="M482.5 776.5q-42.5 44.5 -107 44.5t-107 -44.5t-42.5 -114.5t43 -114.5t105.5 -44.5t106.5 44.5t44 114.5t-42.5 114.5zM610 439.5q-92 -86.5 -230.5 -86.5t-234 91t-95.5 223t90 218t231 86t236 -90t95 -222.5t-92 -219z" />
    <glyph glyph-name="uni0971" unicode="&#x971;" horiz-adv-x="687" 
d="M430 1296v-201h-204v201h204z" />
    <glyph glyph-name="uni0972" unicode="&#x972;" horiz-adv-x="1450" 
d="M778 433q0 -164 -100.5 -258t-266.5 -94q-86 0 -159.5 16t-167.5 56l30 169q90 -37 144 -52t115 -15q88 0 139 51t51 129.5t-43.5 130.5t-123.5 64q-79 -16 -176 -16v169q165 0 239.5 54t74.5 140q0 65 -43 105.5t-122 40.5q-45 0 -86 -12t-111 -44l-28 164
q114 60 244 60q165 0 263 -83t98 -227q0 -163 -134 -262q30 -19 57 -44h353v444h-191v164h645v-164h-239v-1119h-215l1 507h-256q8 -37 8 -74zM779 1693h-1l1 -1v1zM1127 1560q200 0 331 123l33 -153q-57 -64 -148.5 -102t-205.5 -38t-215.5 40t-174.5 106l32 156
q75 -65 165 -98.5t183 -33.5z" />
    <glyph glyph-name="uni0973" unicode="&#x973;" horiz-adv-x="1450" 
d="M779 433q0 -164 -100.5 -258t-266.5 -94q-86 0 -159.5 16t-167.5 56l30 169q90 -37 144 -52t115 -15q88 0 139 51t51 129.5t-43.5 130.5t-123.5 64q-79 -16 -176 -16v169q165 0 239.5 54t74.5 140q0 65 -43 105.5t-122 40.5q-45 0 -86 -12t-111 -44l-28 164
q114 60 244 60q165 0 263 -83t98 -227q0 -163 -134 -262q30 -19 57 -44h353v444h-191v164h183v188h214v-188h248v-164h-239v-1119h-215l1 507h-256q8 -37 8 -74z" />
    <glyph glyph-name="uni0974" unicode="&#x974;" horiz-adv-x="2011" 
d="M779 433q0 -164 -100.5 -258t-266.5 -94q-86 0 -159.5 16t-167.5 56l30 169q90 -37 144 -52t115 -15q88 0 139 51t51 129.5t-43.5 130.5t-123.5 64q-79 -16 -176 -16v169q165 0 239.5 54t74.5 140q0 65 -43 105.5t-122 40.5q-45 0 -86 -12t-111 -44l-28 164
q114 60 244 60q165 0 263 -83t98 -227q0 -163 -134 -262q30 -19 57 -44h353v444h-191v164h743v188h214v-188h249v-164h-240v-1119h-215v1119h-345v-1119h-215l1 507h-256q8 -37 8 -74z" />
    <glyph glyph-name="uni0975" unicode="&#x975;" horiz-adv-x="2011" 
d="M776 433q0 -164 -100.5 -258t-266.5 -94q-86 0 -159.5 16t-167.5 56l30 169q90 -37 144 -52t115 -15q88 0 139 51t51 129.5t-43.5 130.5t-123.5 64q-79 -16 -176 -16v169q165 0 239.5 54t74.5 140q0 65 -43 105.5t-122 40.5q-45 0 -86 -12t-111 -44l-28 164
q114 60 244 60q165 0 263 -83t98 -227q0 -163 -134 -262q30 -19 57 -44h353v444h-191v164h673q-27 47 -56.5 65.5t-62 18.5t-99.5 -14t-103 -14q-112 0 -218 79l45 126q81 -60 166 -60q27 0 111 20t121 20q129 0 219 -126v94q0 46 -22 71t-52 25t-93 -13t-99 -13
q-128 0 -233 98l53 123q91 -73 180 -73q35 0 117.5 20t118.5 20q91 0 146.5 -61t55.5 -178v-228h241v-164h-240v-1119h-215v1119h-345v-1119h-215l-2 507h-256q8 -37 8 -74z" />
    <glyph glyph-name="uni0976" unicode="&#x976;" horiz-adv-x="1450" 
d="M1117 -192q-157 -136 -393.5 -136t-421.5 130l48 142q160 -114 365.5 -114t345.5 118zM779 433q0 -164 -100.5 -258t-266.5 -94q-86 0 -159.5 16t-167.5 56l30 169q90 -37 144 -52t115 -15q88 0 139 51t51 129.5t-43.5 130.5t-123.5 64q-79 -16 -176 -16v169
q165 0 239.5 54t74.5 140q0 65 -43 105.5t-122 40.5q-45 0 -86 -12t-111 -44l-28 164q114 60 244 60q165 0 263 -83t98 -227q0 -163 -134 -262q30 -19 57 -44h353v444h-191v164h645v-164h-239v-1119h-215l1 507h-256q8 -37 8 -74z" />
    <glyph glyph-name="uni0977" unicode="&#x977;" horiz-adv-x="1450" 
d="M1126 -430q-166 -121 -414.5 -121t-440.5 116l51 126q170 -101 385.5 -101t361.5 105zM1105 -185q-157 -124 -395.5 -124t-419.5 119l48 130q161 -105 365 -105t346 108zM779 433q0 -164 -100.5 -258t-266.5 -94q-86 0 -159.5 16t-167.5 56l30 169q90 -37 144 -52
t115 -15q88 0 139 51t51 129.5t-43.5 130.5t-123.5 64q-79 -16 -176 -16v169q165 0 239.5 54t74.5 140q0 65 -43 105.5t-122 40.5q-45 0 -86 -12t-111 -44l-28 164q114 60 244 60q165 0 263 -83t98 -227q0 -163 -134 -262q30 -19 57 -44h353v444h-191v164h645v-164h-239
v-1119h-215l1 507h-256q8 -37 8 -74z" />
    <glyph glyph-name="uni0978" unicode="&#x978;" horiz-adv-x="1110" 
d="M801 411q0 78 -51.5 128.5t-140.5 50.5t-160 -26v-100q0 -59 -31.5 -91t-87.5 -32q-99 0 -179 74t-80 168q0 48 35 79.5t95 39.5l33 5v412h-264v164h1170v-164h-691v-361q64 15 165 15q187 0 294 -100.5t107 -261.5q0 -86 -33 -178.5t-94 -167.5l-202 38q115 161 115 308
z" />
    <glyph glyph-name="uni0979" unicode="&#x979;" horiz-adv-x="1388" 
d="M497 -139v-175h-200v175h200zM733 20v-175h-200v175h200zM255 20v-175h-200v175h200zM965 0v696h-325q105 -98 105 -252.5t-100.5 -253.5t-282.5 -99q-148 0 -309 73l37 166q69 -35 122 -48.5t110 -12.5q97 2 151.5 53t54.5 148t-77 162.5t-204 65.5h-68v168h786v253
h-995v164h1448v-164h-239v-1119h-214z" />
    <glyph glyph-name="uni097A" unicode="&#x97a;" horiz-adv-x="1212" 
d="M787 1119h-306l306 -506v506zM787 0v302q-85 -34 -206 -35q-171 0 -322 118t-209 305l5 32q274 33 274 203q0 114 -107 194h-252v164h1272v-164h-240v-1119h-215zM420.5 487q71.5 -45 157.5 -45t149 30l-198 331q-26 -74 -85 -124t-139 -65q44 -82 115.5 -127z" />
    <glyph glyph-name="uni097B" unicode="&#x97b;" horiz-adv-x="1233" 
d="M200 -119v153h609v1085h-349v-612q0 -66 -30.5 -101.5t-90.5 -35.5q-95 0 -180.5 79.5t-85.5 171.5q0 50 35 79t97 29h40v390h-275v164h1293v-164h-239v-1238h-824z" />
    <glyph glyph-name="uni097C" unicode="&#x97c;" horiz-adv-x="1388" 
d="M59 -135v152h906v679h-325q105 -98 105 -252.5t-100.5 -253.5t-282.5 -99q-148 0 -309 73l37 166q69 -35 122 -48.5t110 -12.5q97 2 151.5 53t54.5 148t-77 162.5t-204 65.5h-68v168h786v253h-995v164h1448v-164h-239v-1254h-1120z" />
    <glyph glyph-name="uni097D" unicode="&#x97d;" horiz-adv-x="1000" 
d="M337 675q153 0 242 64t89 179q0 90 -60.5 148t-153.5 58q-65 0 -113 -13t-115 -48l-45 170q134 61 283 61q194 0 311.5 -104t117.5 -272.5t-113.5 -275t-277.5 -122.5v-520h-215l-1 675h51z" />
    <glyph glyph-name="uni097E" unicode="&#x97e;" horiz-adv-x="1098" 
d="M950 -80v-153h-777v153h777zM554 28q-131 0 -253.5 34t-211.5 87l49 171q87 -52 198.5 -88t211.5 -36t163 38t63 99t-38 93.5t-109 32.5q-122 0 -225 -63h-24q-115 37 -187 119.5t-72 191.5t83.5 176.5t240.5 67.5h231v168h-704v164h1158v-164h-240v-332h-432
q-135 0 -135 -110q0 -66 66 -101q122 52 245 52q166 0 260 -82t94 -217.5t-114.5 -218t-317.5 -82.5z" />
    <glyph glyph-name="uni097F" unicode="&#x97f;" horiz-adv-x="1133" 
d="M166 -118v153h543v215q-96 -55 -232 -55q-184 0 -303.5 110.5t-119.5 276.5t110 265t295 99q140 0 250 -46v220h-739v164h1193v-164h-239v-1238h-758zM486 366q30 0 55 4l-199 363q-73 -57 -73 -159t58.5 -155t158.5 -53zM489 777v1q-13 0 -35 -2l204 -367q23 12 51 35
v277q-96 56 -220 56z" />
    <glyph glyph-name="uni200B" unicode="&#x200b;" 
 />
    <glyph glyph-name="uni200C" unicode="&#x200c;" 
d="M38 -349h-76v1972h76v-1972z" />
    <glyph glyph-name="uni200D" unicode="&#x200d;" 
d="M38 -348h-76v1600l-182 -186l-51 51l221 226l-219 225l50 50l219 -224l218 223l53 -50l-220 -224l220 -225l-53 -50l-180 185v-1601z" />
    <glyph glyph-name="endash" unicode="&#x2013;" horiz-adv-x="1274" 
d="M1012 779v-158h-880v158h880z" />
    <glyph glyph-name="emdash" unicode="&#x2014;" horiz-adv-x="1499" 
d="M1215 779v-158h-1083v158h1083z" />
    <glyph glyph-name="uni2015" unicode="&#x2015;" horiz-adv-x="1751" 
 />
    <glyph glyph-name="quoteleft" unicode="&#x2018;" horiz-adv-x="595" 
d="M172 917v169l145 318h106l-54 -321v-166h-197z" />
    <glyph glyph-name="quoteright" unicode="&#x2019;" horiz-adv-x="595" 
d="M426 1404v-174l-145 -312h-106l54 311v175h197z" />
    <glyph glyph-name="quotesinglbase" unicode="&#x201a;" horiz-adv-x="416" 
d="M320 32q0 -84 -46 -177.5t-118 -152.5l-111 70q78 116 79 248v132h196v-120z" />
    <glyph glyph-name="quotedblleft" unicode="&#x201c;" horiz-adv-x="894" 
d="M172 917v169l145 318h106l-54 -321v-166h-197zM471 917v169l145 318h106l-54 -321v-166h-197z" />
    <glyph glyph-name="quotedblright" unicode="&#x201d;" horiz-adv-x="901" 
d="M424 1404v-174l-145 -312h-106l54 311v175h197zM729 1404v-174l-145 -312h-106l54 311v175h197z" />
    <glyph glyph-name="quotedblbase" unicode="&#x201e;" horiz-adv-x="698" 
d="M125 198h196v-168q0 -95 -51 -200h1q-44 -91 -111 -148l-114 70q78 126 79 265v181zM614 34q0 -90 -46 -189t-119 -163l-114 70q79 130 83 263v183h196v-164z" />
    <glyph glyph-name="dagger" unicode="&#x2020;" horiz-adv-x="1005" 
d="M949 974v-180h-339v-794h-218v794h-334v180h334v336h218v-336h339z" />
    <glyph glyph-name="daggerdbl" unicode="&#x2021;" horiz-adv-x="1059" 
d="M973 133v-175h-338v-374h-219v374h-333v175h333v623h-333v176h333v337h219v-337h338v-176h-338v-623h338z" />
    <glyph glyph-name="bullet" unicode="&#x2022;" horiz-adv-x="644" 
d="M122 703v69q0 86 54 140t145.5 54t146 -53.5t54.5 -140.5v-69q0 -88 -54 -140t-145.5 -52t-146 52.5t-54.5 139.5z" />
    <glyph glyph-name="ellipsis" unicode="&#x2026;" horiz-adv-x="1301" 
d="M320 189v-189h-196v189h196zM719 189v-189h-196v189h196zM1097 189v-189h-196v189h196z" />
    <glyph glyph-name="perthousand" unicode="&#x2030;" horiz-adv-x="1763" 
d="M887 316v-67q0 -62 35.5 -100.5t92.5 -38.5t90 37t33 105v67q0 63 -35 101t-91.5 38t-90.5 -38t-34 -104zM1296 316v-67q0 -62 35.5 -100.5t93 -38.5t90 36.5t32.5 105.5v67q0 63 -35 101t-91.5 38t-90.5 -38t-34 -104zM812 513q77 76 206 76t199 -100q70 100 198.5 100
t206 -75.5t77.5 -200.5v-64q0 -117 -76.5 -193t-205.5 -76t-200 99q-71 -99 -200 -99t-206 76t-77 198l1 65q0 118 77 194zM1044 1120l-640 -1024l-112 65l640 1024zM213 1052v-65q0 -62 35 -100t91.5 -38t90.5 38.5t34 103.5v65q0 63 -35 101.5t-91.5 38.5t-90.5 -39
t-34 -105zM67 993v63q0 118 75.5 194t198 76t199 -76t76.5 -200v-63q0 -118 -77 -193.5t-198.5 -75.5t-197.5 76t-76 199z" />
    <glyph glyph-name="guilsinglleft" unicode="&#x2039;" horiz-adv-x="563" 
d="M507 857l-223 -360l223 -359h-151l-259 351v17l259 351h151z" />
    <glyph glyph-name="guilsinglright" unicode="&#x203a;" horiz-adv-x="555" 
d="M76 857h150l259 -351v-17l-259 -351h-150l222 359z" />
    <glyph glyph-name="fraction" unicode="&#x2044;" horiz-adv-x="832" 
d="M793 1133l-640 -1024l-112 65l639 1024z" />
    <glyph glyph-name="Euro" unicode="&#x20ac;" horiz-adv-x="1048" 
d="M787 599v-127h-321q12 -311 289 -311q98 0 185 30l25 -184q-110 -26 -222 -26q-232 0 -364 128.5t-140 362.5h-154v127h154v116h-154v126h155q12 231 146 358t364 127q97 0 215 -28l-25 -185q-92 31 -183 31q-136 0 -209 -77t-81 -226h320v-126h-321v-116h321z" />
    <glyph glyph-name="uni20B9" unicode="&#x20b9;" horiz-adv-x="1317" 
d="M229 669h173q207 0 261 146h-481v164h488q-19 63 -76 101.5t-150 38.5h-262v165h901v-165h-248q50 -64 63 -140h185v-164h-189q-31 -140 -137.5 -220t-240.5 -86l448 -500l-2 -9h-260l-473 530v139z" />
    <glyph glyph-name="uni20BA" unicode="&#x20ba;" horiz-adv-x="1067" 
d="M449 -21q-95 0 -221 18v545l-198 -79v179l198 79v123l-198 -78v180l198 78v283h227v-193l202 81v-180l-202 -81v-123l202 81v-180l-202 -80v-466q313 5 313 453v69l226 -1v-80q-2 -190 -69.5 -332t-191 -219t-284.5 -77z" />
    <glyph glyph-name="uni20BD" unicode="&#x20bd;" horiz-adv-x="1265" 
d="M447 1127v-457h271q252 0 252 226q0 102 -63.5 165t-174.5 66h-285zM737 391v-183h-290v-208h-226v208h-185v183h185v96h-185v183h185v640h501q218 0 347 -112t129 -302t-123 -298t-343 -111h-285v-96h290z" />
    <glyph glyph-name="trademark" unicode="&#x2122;" horiz-adv-x="1160" 
d="M900 916v336l-112 -336h-55l-112 335v-335h-100v486h123l117 -343l119 343h120v-486h-100zM455 1402v-85h-125v-399h-105v399h-127v85h357z" />
    <glyph glyph-name="estimated" unicode="&#x212e;" horiz-adv-x="1170" 
d="M849 804q-106 101 -241 101t-245 -110v-249h486v258zM609 -20q-130 0 -240 69.5t-171.5 185t-61.5 248t64.5 248.5t176.5 187.5t231 71.5t221 -62.5t161 -171t61 -240.5v-55h-691v-296q106 -99 246 -99q176 0 332 110l4 -93q-163 -103 -333 -103z" />
    <glyph glyph-name="partialdiff" unicode="&#x2202;" horiz-adv-x="1052" 
d="M534 749q-111 0 -170.5 -75.5t-59.5 -219t59.5 -222t169.5 -78.5t169 93.5t59 270.5v77q-20 69 -82.5 111.5t-144.5 42.5zM88 476h-2q0 203 114.5 325t308.5 122q156 0 264 -112q-23 173 -111.5 276.5t-203.5 103.5t-241 -47l-26 164l54 23q95 39 228 39
q243 0 375.5 -194.5t132.5 -553.5v-48q0 -175 -54.5 -309.5t-157 -210t-234.5 -75.5q-206 0 -326.5 131t-120.5 354v12z" />
    <glyph glyph-name="product" unicode="&#x220f;" horiz-adv-x="1287" 
d="M1141 1288v-1517h-219v1343h-554v-1343h-219v1517h992z" />
    <glyph glyph-name="summation" unicode="&#x2211;" horiz-adv-x="1117" 
d="M1095 -94v-175h-1037v136l532 641l-532 639v137h985v-176h-700l477 -588v-26l-477 -588h752z" />
    <glyph glyph-name="minus" unicode="&#x2212;" horiz-adv-x="1040" 
d="M894 797v-176h-752v176h752z" />
    <glyph glyph-name="radical" unicode="&#x221a;" horiz-adv-x="1082" 
d="M53 519v178h323l143 -428l339 1041h195l-440 -1310h-177l-195 519h-188z" />
    <glyph glyph-name="infinity" unicode="&#x221e;" horiz-adv-x="1905" 
d="M1356 812q-147 0 -246 -181q-37 -68 -50 -126v-33q14 -67 54 -139q95 -176 239 -176q110 0 176.5 87.5t66.5 234.5l1 16q0 141 -66 229t-175 88zM538 811q-111 0 -175.5 -88.5t-64.5 -240t65.5 -238.5t176.5 -87q93 0 171 79q84 86 123 235v33q-14 62 -49 126
q-100 181 -247 181zM1360 -20q-262 0 -413 297q-155 -297 -413 -297q-129 0 -231.5 63.5t-161 178t-58.5 252.5v19q0 138 57.5 253t160.5 179.5t232 64.5q264 0 416 -294q152 294 415 294q127 0 229.5 -64t160.5 -177.5t60 -250.5l-2 -24q0 -138 -57.5 -251t-161 -178
t-233.5 -65z" />
    <glyph glyph-name="integral" unicode="&#x222b;" horiz-adv-x="501" 
d="M42 -437q-58 0 -117 17l16 170q41 -12 73 -12q125 0 126 142v1141q0 162 86.5 249.5t246.5 87.5q53 0 138 -19l-22 -167q-36 10 -82 10q-147 0 -147 -165l-1 -1132q0 -158 -81.5 -240t-235.5 -82z" />
    <glyph glyph-name="approxequal" unicode="&#x2248;" horiz-adv-x="1049" 
d="M728 434q121 0 214 114v-196q-93 -95 -210 -95q-76 0 -137 29l-140 70q-143 60 -263 -1q-59 -30 -102 -84l1 196q92 95 218 95q76 1 146 -30l137 -69q66 -29 136 -29zM732 812q117 0 210 114v-196q-93 -95 -208 -95q-74 0 -135 29l-137 68q-145 62 -268 0
q-60 -30 -103 -83l-1 196q43 45 102 70t127 26t136 -30l140 -70q64 -29 137 -29z" />
    <glyph glyph-name="notequal" unicode="&#x2260;" horiz-adv-x="1031" 
d="M906 514v-181h-487l-116 -205l-98 56l84 149h-158v181h260l113 201h-373v182h475l120 213l99 -56l-89 -157h170v-182h-272l-113 -201h385z" />
    <glyph glyph-name="lessequal" unicode="&#x2264;" horiz-adv-x="937" 
d="M790 195v-176h-752v176h752zM804 780l-520 -180l-17 -3v-4l17 -3l520 -176v-198l-753 302v157l753 300v-195z" />
    <glyph glyph-name="greaterequal" unicode="&#x2265;" horiz-adv-x="959" 
d="M851 195v-176h-752v176h752zM647 603l-545 179v193l778 -300v-157l-778 -302v194l545 184h16l1 6z" />
    <glyph glyph-name="lozenge" unicode="&#x25ca;" horiz-adv-x="932" 
d="M682 654l-217 423l-213 -423l218 -424zM32 654l346 656h176l349 -656l-346 -654h-177z" />
    <glyph glyph-name="uni25CC" unicode="&#x25cc;" horiz-adv-x="1076" 
d="M602 231q0 -54 -60 -54q-29 0 -43.5 15t-14.5 39t14.5 39t43.5 15q60 0 60 -54zM278 402q59 0 59 -53.5t-59 -53.5q-28 0 -43.5 14.5t-15.5 39t15.5 39t43.5 14.5zM852 387.5q15 -14.5 15 -39t-15 -39t-44 -14.5q-59 0 -59 53.5t59 53.5q29 0 44 -14.5zM901 562
q-58 0 -58 53.5t58 53.5q29 0 45 -14t16 -35t-7 -33q-14 -25 -54 -25zM225 654.5q15 -14.5 15 -39t-15 -39t-43 -14.5q-59 0 -59 53.5t59 53.5q28 0 43 -14.5zM278 937q59 0 59 -53.5t-59 -53.5q-28 0 -43.5 14.5t-15.5 39t15.5 39t43.5 14.5zM852 922.5q15 -14.5 15 -39
t-15 -39t-44 -14.5q-59 0 -59 53.5t59 53.5q29 0 44 -14.5zM602 999q-1 -53 -60 -53q-29 0 -43.5 15t-14.5 39q0 53 59 53t59 -54z" />
    <glyph glyph-name="uF0001" unicode="&#xf0001;" 
 />
    <glyph glyph-name="uF01C5" unicode="&#xf01c5;" 
 />
    <glyph glyph-name="uF01C6" unicode="&#xf01c6;" horiz-adv-x="1069" 
d="M391 15q-117 0 -188 41t-71 106t44 109t111 44t118.5 -30t112.5 -99q106 1 166.5 46t60.5 107t-36.5 94t-105 32.5t-116 -14t-99.5 -48.5h-24q-113 36 -186 119.5t-73 189t85.5 174t245.5 68.5h212v166h-676v164h666q-59 130 -58 233q1 124 81.5 198.5t219.5 74.5
q96 0 177 -32l-17 -133q-55 13 -103 14q-68 1 -111.5 -43t-43.5 -130t45 -184h271v-164h-239v-331h-417q-64 0 -98.5 -29.5t-34.5 -78.5q0 -61 58 -96q106 50 237 50q163 0 258 -82t95 -210t-92.5 -211t-254.5 -100l157 -194l-166 -81l-207 260h-4zM1070 1536v-165h-176v165
h176z" />
    <glyph glyph-name="uF01C7" unicode="&#xf01c7;" horiz-adv-x="1139" 
d="M154 718v401h-185v164h1199v-164h-219v-311q0 -265 -212 -377l-134 121q131 94 131 277v290h-365v-394q0 -285 133.5 -418t417.5 -133l-38 -172q-350 0 -539 191.5t-189 524.5zM211 1693h-1l1 -1v1zM651 1862v-191h-194v191h194zM559 1560q200 0 331 123l33 -153
q-57 -64 -148.5 -102t-205.5 -38t-215.5 40t-174.5 106l32 156q75 -65 165 -98.5t183 -33.5z" />
    <glyph glyph-name="uF01C8" unicode="&#xf01c8;" horiz-adv-x="1640" 
d="M750 520h-303v-57q0 -123 -110 -123q-96 0 -182.5 79t-86.5 170q0 48 35.5 77.5t95.5 29.5h33v262q0 85 -29 125t-78 39q-35 0 -58 -8t-63 -32l-26 159q70 54 193.5 54t199 -86t75.5 -249v-264h303v422h-87v164h1008v-164h-706v-281q89 35 201 35q167 0 274 -101.5
t107 -262.5q0 -187 -128 -346l-203 38q115 161 115 309q0 86 -50 138.5t-139 52.5t-177 -63v-637l-214 -1v521z" />
    <glyph glyph-name="uF01C9" unicode="&#xf01c9;" horiz-adv-x="1098" 
d="M270 -50v-175h-200v175h200zM554 28q-131 0 -253.5 34t-211.5 87l49 171q87 -52 198.5 -88t211.5 -36t163 38t63 99t-38 93.5t-109 32.5q-122 0 -225 -63h-24q-115 37 -187 119.5t-72 191.5t83.5 176.5t240.5 67.5h231v168h-704v164h1158v-164h-240v-332h-432
q-135 0 -135 -110q0 -66 66 -101q122 52 245 52q166 0 260 -82t94 -217.5t-114.5 -218t-317.5 -82.5z" />
    <glyph glyph-name="uF01CA" unicode="&#xf01ca;" horiz-adv-x="1100" 
d="M321 -10v-175h-200v175h200zM552 901h123v218h-704v164h1160v-164h-240v-386h-313q-140 0 -217.5 -67t-77.5 -183q0 -140 94.5 -214.5t247.5 -74.5q97 0 150.5 37.5t53.5 96.5q0 96 -128 96q-90 0 -202 -88l-75 142q123 111 287 111q146 0 229.5 -73.5t83.5 -188.5
q0 -158 -140 -239q-97 -56 -259 -56t-288 57.5t-196 164t-70 248.5q0 182 127 290.5t354 108.5z" />
    <glyph glyph-name="uF01CB" unicode="&#xf01cb;" horiz-adv-x="1460" 
d="M72 519q0 165 92.5 265t240.5 100q97 0 176 -37.5t131 -103.5q107 141 282 141q15 0 39 -2v237h-1064v164h1520v-164h-240v-323q114 -102 114 -281q0 -131 -43 -241t-132 -225l-179 64q80 123 113 205t33 183t-39.5 152.5t-113 51.5t-122.5 -72t-49 -213v-135h-212v177
q-9 111 -61.5 171.5t-121.5 60.5t-111.5 -53t-42.5 -150t40 -190.5t130 -207.5l-174 -66q-206 234 -206 492z" />
    <glyph glyph-name="uF01CC" unicode="&#xf01cc;" horiz-adv-x="1456" 
d="M268 244q-157 0 -157 157q0 74 49 132.5t120 58.5q97 0 174 -107q72 26 113 73.5t41 111t-49.5 104.5t-122 41t-130 -13.5t-128.5 -44.5l-49 172q105 49 243 58v132h-402v164h1516v-164h-239v-1119h-216v1119h-443v-149q111 -35 173.5 -119t62.5 -192t-72.5 -200
t-191.5 -148l203 -238l-172 -92l-212 272q-65 -9 -111 -9z" />
    <glyph glyph-name="uF01CD" unicode="&#xf01cd;" horiz-adv-x="580" 
d="M155 0v1119h-185v164h185v55q0 169 126 274.5t352 105.5t463 -123l-46 -151q-205 98 -399 98q-142 0 -211.5 -60t-69.5 -166v-33h240v-164h-240v-1119h-215z" />
    <glyph glyph-name="uF01CE" unicode="&#xf01ce;" horiz-adv-x="580" 
d="M155 0v1119h-185v164h185v58q0 177 142 282t397 105q307 -2 605 -142l-43 -157q-273 120 -542 120q-164 0 -254 -61.5t-90 -169.5v-35h240v-164h-240v-1119h-215z" />
    <glyph glyph-name="uF01CF" unicode="&#xf01cf;" horiz-adv-x="580" 
d="M155 0v1118h-185v164h185v46q0 187 146 298t431 110q152 0 331.5 -40t322.5 -108l-38 -154q-309 122 -604 122q-185 0 -279.5 -66t-94.5 -176v-31h240v-164h-240v-1119h-215z" />
    <glyph glyph-name="uF01D0" unicode="&#xf01d0;" horiz-adv-x="580" 
d="M155 0v1118h-185v164h185v48q0 186 168 300t457 114q186 0 385.5 -43t362.5 -118l-42 -155q-332 139 -686 139q-206 0 -318 -70.5t-112 -181.5v-32h240v-164h-240v-1119h-215z" />
    <glyph glyph-name="uF01D1" unicode="&#xf01d1;" horiz-adv-x="580" 
d="M155 0v1119h-185v164h185v43q0 93 44.5 172t129 138.5t218 93t311.5 33.5t391 -45t400 -129l-29 -159q-399 151 -759 151q-238 0 -364.5 -77t-126.5 -194v-27h240v-164h-240v-1119h-215z" />
    <glyph glyph-name="uF01D2" unicode="&#xf01d2;" horiz-adv-x="580" 
d="M155 0v1119h-185v164h185v48q0 189 181 311q90 61 240.5 95t346.5 34q451 0 922 -177l-29 -162q-459 153 -875 153q-433 0 -541 -171q-30 -47 -30 -105v-26h240v-164h-240v-1119h-215z" />
    <glyph glyph-name="uF01D3" unicode="&#xf01d3;" horiz-adv-x="580" 
d="M-31 1119v164h185v55q0 183 186 304q94 61 254 96t371 35q493 0 1018 -182l-39 -159q-234 76 -491.5 115.5t-442.5 39.5t-306 -22t-192 -61q-142 -76 -142 -191v-30h240v-164h-240v-1119h-215l-1 1119h-185z" />
    <glyph glyph-name="uF01D4" unicode="&#xf01d4;" horiz-adv-x="580" 
d="M155 0v1119h-185v164h185v48q0 98 56 181t165 145.5t282 97.5t422 35q515 0 1080 -198l-37 -161q-265 93 -550.5 136t-506.5 43q-331 0 -513.5 -87.5t-182.5 -217.5v-22h240v-164h-240v-1119h-215z" />
    <glyph glyph-name="uF01D5" unicode="&#xf01d5;" horiz-adv-x="580" 
d="M155 0v1119h-185v164h185v55q0 96 60 177.5t176.5 144t303.5 98t450 35.5t578 -52t618 -151l-36 -158q-277 86 -600 133.5t-557 47.5q-378 0 -578.5 -89.5t-200.5 -221.5v-19h241v-164h-240v-1119h-215z" />
    <glyph glyph-name="uF01D6" unicode="&#xf01d6;" horiz-adv-x="580" 
d="M-29 1120v164h185v48q0 207 260 332q130 63 342.5 97t502 34t645 -52t698.5 -151l-38 -159q-328 87 -685 133t-617 46q-438 0 -666 -86.5t-228 -220.5v-22h240v-164h-240v-1119h-215l1 1120h-185z" />
    <glyph glyph-name="uF01D7" unicode="&#xf01d7;" horiz-adv-x="580" 
d="M155 0v1119h-185v164h185v48q0 208 273 332q140 63 373 97t544.5 34t705.5 -52.5t748 -151.5l-38 -157q-346 86 -739.5 132t-659.5 46t-462 -24t-309 -67q-221 -84 -221 -215v-22h240v-164h-240v-1119h-215z" />
    <glyph glyph-name="uF01D8" unicode="&#xf01d8;" horiz-adv-x="580" 
d="M155 0v1119h-185v164h185v48q0 463 1276 463q315 0 737.5 -53.5t773.5 -151.5l-35 -157q-344 84 -769.5 131.5t-699.5 47.5q-1068 0 -1068 -306v-22h240v-164h-240v-1119h-215z" />
    <glyph glyph-name="uF01D9" unicode="&#xf01d9;" horiz-adv-x="580" 
d="M-29 1119v164h185v48q0 167 200 279q330 184 1145 184q323 0 787 -54t839 -151l-37 -157q-352 83 -822.5 131t-762.5 48t-517 -24t-358 -67q-260 -85 -260 -215v-22h240v-164h-240v-1119h-215l1 1119h-185z" />
    <glyph glyph-name="uF01DA" unicode="&#xf01da;" horiz-adv-x="580" 
d="M155 0v1117h-185v164h150q-98 127 -207.5 196t-215.5 69q-69 0 -105.5 -34.5t-36.5 -90.5q0 -79 76 -179h-212q-67 93 -67 208.5t83 190.5t234 75q192 0 369.5 -114t308.5 -319h263v-164h-240v-1119h-215z" />
    <glyph glyph-name="uF01DB" unicode="&#xf01db;" horiz-adv-x="580" 
d="M-29 1119v164h125q-152 128 -317.5 198t-310.5 70q-99 1 -148 -40t-49 -115t56 -153h-214q-54 88 -54 191q0 129 96.5 209t274.5 80q247 0 494 -119t434 -321h252v-164h-240v-1119h-215l1 1119h-185z" />
    <glyph glyph-name="uF01DC" unicode="&#xf01dc;" 
d="M-13 -293l-307 209l-302 -207l-115 130l366 248h94l372 -250z" />
    <glyph glyph-name="uF01DD" unicode="&#xf01dd;" 
d="M-29 1655v-201h-204v201h204z" />
    <glyph glyph-name="uF01DE" unicode="&#xf01de;" 
d="M-376 1640q121 -91 254 -91t243 86l34 -148q-104 -102 -281 -102q-152 0 -283 104l32 151h1zM-34 1826v-179h-183v179h183z" />
    <glyph glyph-name="uF01DF" unicode="&#xf01df;" 
d="M-178 1792q96 0 177 -32l-17 -133q-55 13 -103 14q-68 1 -111.5 -43t-43.5 -121q0 -121 72 -248l-189 2q-36 59 -61.5 138.5t-24.5 149.5q1 124 81.5 198.5t219.5 74.5z" />
    <glyph glyph-name="uF01E0" unicode="&#xf01e0;" 
d="M12 1538v-165h-176v165h176zM-178 1792q96 0 177 -32l-17 -133q-55 13 -103 14q-68 1 -111.5 -43t-43.5 -121q0 -121 72 -248l-189 2q-36 59 -61.5 138.5t-24.5 149.5q1 124 81.5 198.5t219.5 74.5z" />
    <glyph glyph-name="uF01E1" unicode="&#xf01e1;" horiz-adv-x="910" 
d="M312 831.5q47 -46.5 127 -46.5t140 28v104q0 88 -43 139t-114 51t-112 -41.5t-43 -114.5t45 -119.5zM579 59v579q-66 -23 -151 -22q-159 3 -265 96.5t-106 236t98 233.5t264.5 91t270.5 -100.5t104 -255.5v-858h-215z" />
    <glyph glyph-name="uF01E2" unicode="&#xf01e2;" horiz-adv-x="893" 
d="M314 945q0 -174 152 -172q74 2 121 30l35 425h208l-55 -583q-31 -325 -300 -406l109 -185l-168 -59l-126 219h-11q-95 0 -140.5 38t-45.5 101t50 110.5t122 47.5q43 0 76 -22.5t63 -78.5q138 32 166 211q-53 -14 -105 -14q-171 0 -268.5 94t-97.5 250v279h215v-285z" />
    <glyph glyph-name="uF01E3" unicode="&#xf01e3;" horiz-adv-x="1006" 
d="M774 126q10 36 10 87t-40 82t-101 31h-155q-161 0 -261 91.5t-100 253.5q0 102 43 206.5t114 189.5h-247v168h939v-168h-443q-91 -89 -141 -194.5t-50 -196t43.5 -133t117.5 -42.5h143q158 0 249 -74t91 -193t-60 -228l-191 26q29 58 39 94z" />
    <glyph glyph-name="uF01E4" unicode="&#xf01e4;" horiz-adv-x="969" 
d="M739.5 125.5q10.5 35.5 10.5 86.5t-40 82t-101 31h-151q-161 0 -260.5 91.5t-99.5 245.5t62 302.5t155 260.5l37 7q224 -175 333 -175q52 0 73 20t21 64.5t-25 105.5l151 26q47 -103 47 -180q0 -95 -63.5 -155t-176.5 -60q-149 0 -307 104q-40 -60 -66 -145.5t-26 -168
t43.5 -125t117.5 -42.5h139q158 0 249 -74t91 -199l-1 -2q0 -115 -66 -222l-187 27q30 59 40.5 94.5z" />
    <glyph glyph-name="uF01E5" unicode="&#xf01e5;" horiz-adv-x="1146" 
d="M432 179q-171 0 -282 103.5t-111 272.5t102.5 263t273.5 94q143 0 250 -45v253h-694v164h1254v-164h-345v-317q86 41 191 41t195.5 -38.5t154.5 -112.5l-55 -169q-133 138 -288 138q-108 0 -199 -75v-587l-213 1v237q-92 -59 -234 -59zM434 349q138 0 230 95v237
q-98 59 -219 59q-89 0 -140.5 -50.5t-51.5 -143t51.5 -145t129.5 -52.5z" />
    <glyph glyph-name="uF01E6" unicode="&#xf01e6;" horiz-adv-x="1289" 
d="M457 880v239h-487v164h1374v-164h-672v-254q0 -314 -232 -381l333 -395l-156 -112l-619 742l149 116l168 -161q76 9 109 57.5t33 148.5zM1403 858q108 -99 108 -244.5t-103 -242.5t-267 -97t-275.5 100.5t-111.5 252.5t100.5 241.5t270.5 89t278 -99.5zM1270 741.5
q-51 48.5 -132.5 48.5t-130.5 -49.5t-49 -129.5t50 -125t131 -45t131.5 48t50.5 126t-51 126.5z" />
    <glyph glyph-name="uF01E7" unicode="&#xf01e7;" horiz-adv-x="652" 
d="M339 370q-95 0 -180.5 79.5t-85.5 171.5q0 50 35 79t97 29h40v390h-275v164h747v-164h-257v-612q0 -66 -30.5 -101.5t-90.5 -35.5z" />
    <glyph glyph-name="uF01E8" unicode="&#xf01e8;" horiz-adv-x="868" 
d="M557 165v-2q-201 0 -318.5 99.5t-117.5 257.5t141 251q-124 86 -124 232q0 61 25 116h-200v164h976v-164h-418q-81 0 -121.5 -35.5t-40.5 -97t39 -98.5t110 -41q32 2 49 2h108l13 -169h-104q-116 0 -173.5 -43.5t-57.5 -122t59.5 -125.5t159.5 -47q269 0 439 289
l105 -181q-83 -136 -221 -210.5t-328 -74.5z" />
    <glyph glyph-name="uF01E9" unicode="&#xf01e9;" horiz-adv-x="1254" 
d="M345 -221l81 150l495 -248l-85 -146zM554 28q-131 0 -253.5 34t-211.5 87l49 171q87 -52 198.5 -88t211.5 -36t163 38t63 99t-38 93.5t-109 32.5q-122 0 -225 -63h-24q-115 37 -187 119.5t-72 191.5t83.5 176.5t240.5 67.5h231v168h-704v164h1314v-164h-396v-332h-432
q-135 0 -135 -110q0 -66 66 -101q122 52 245 52q166 0 260 -82t94 -217.5t-114.5 -218t-317.5 -82.5zM1183 769v-179h-204v179h204z" />
    <glyph glyph-name="uF01EA" unicode="&#xf01ea;" horiz-adv-x="886" 
d="M651 175v-1q-180 0 -296 99t-116 262q0 92 39 160h-242v169h713v-169h-75q-109 0 -162.5 -48t-53.5 -125.5t54 -121.5t144 -45q224 0 377 279l119 -166q-73 -137 -198 -215t-303 -78zM956 1119h-986v164h986v-164z" />
    <glyph glyph-name="uF01EB" unicode="&#xf01eb;" horiz-adv-x="1459" 
d="M539 798l36 1h89l14 -169h-89q-100 0 -154 -50t-54 -140q0 -105 86 -170t232 -64q186 1 306.5 106t120.5 275q0 89 -36 137.5t-89 48.5q-77 0 -152 -49l-46 158q108 61 215 61q143 0 229 -100t85.5 -259.5t-77 -282.5t-220.5 -196t-330 -73l1 2q-248 -2 -398.5 113
t-150.5 305q0 167 134 266q-70 45 -110 114t-40 148t31 141h-201v164h1519v-164h-962q-82 0 -124 -40.5t-42 -114t46.5 -121t120.5 -47.5h10z" />
    <glyph glyph-name="uF01EC" unicode="&#xf01ec;" horiz-adv-x="936" 
d="M358 92v-1q-80 0 -150 17t-155 56l37 166q69 -35 121.5 -48.5t110.5 -12.5q97 2 151.5 53t54.5 148t-77 162.5t-204 65.5h-68v168h999v-169h-538q105 -98 105 -252.5t-102 -253.5t-285 -99zM1018 1119h-1048v164h1048v-164z" />
    <glyph glyph-name="uF01ED" unicode="&#xf01ed;" horiz-adv-x="1075" 
d="M382 12q-117 0 -188 41t-71 106t44 109t111 44t118.5 -30t112.5 -99h2q108 0 170 45.5t62 107.5t-36.5 94t-105 32.5t-116 -14t-99.5 -48.5h-24q-113 36 -186 119.5t-73 189t85.5 174t245.5 68.5h211v166h-675v164h1173v-164h-284v-331h-416q-64 0 -98.5 -29.5
t-34.5 -78.5q0 -61 58 -96q106 50 225 50q230 0 321 -140h425v-169h-381q-5 -120 -99 -199t-255 -95l157 -193l-166 -81l-209 257h-4z" />
    <glyph glyph-name="uF01EE" unicode="&#xf01ee;" horiz-adv-x="1233" 
d="M751 522h-303v-57q0 -123 -110 -123q-96 0 -182.5 79t-86.5 170q0 48 35.5 77.5t95.5 29.5h33v262q0 85 -29 125t-78 39q-35 0 -58 -8t-63 -32l-26 159q70 54 193.5 54t199 -86t75.5 -249v-264h303v422h-87v164h741v-164h-439v-318q84 42 190.5 42t197 -38.5
t154.5 -112.5l-55 -169q-133 138 -288 138q-109 0 -200 -75v-587l-213 1v521z" />
    <glyph glyph-name="uF01EF" unicode="&#xf01ef;" horiz-adv-x="1028" 
d="M416 172q-194 0 -366 106l40 169q101 -54 161 -71.5t129 -17.5q94 0 152.5 56t58.5 149t-57 148.5t-164 55.5t-213 -53l-37 167q128 62 271 62t250.5 -72t146.5 -193h448v-177h-433q-18 -148 -123.5 -238.5t-263.5 -90.5zM1103 1119h-1133v164h1133v-164z" />
    <glyph glyph-name="uF01F0" unicode="&#xf01f0;" horiz-adv-x="1055" 
d="M365 -192l81 150l495 -248l-85 -146zM621 74v-1q-250 0 -398 115.5t-147 304t126 297t347 108.5h80v220h-660v164h1115v-164h-240v-390h-252q-143 0 -220 -64.5t-77 -174t87 -171.5t231 -62q81 -1 135.5 9t131.5 35l20 -181q-73 -24 -133 -34.5t-146 -10.5z" />
    <glyph glyph-name="uF01F1" unicode="&#xf01f1;" horiz-adv-x="1207" 
d="M345 -194l81 150l495 -248l-85 -146zM365.5 298.5q83.5 -67.5 218 -67.5t216.5 68.5t82 183.5q0 161 -113 241h-161q-159 0 -242.5 -64.5t-83.5 -179t83.5 -182zM597 56v-1q-242 -1 -386 121.5t-144 321.5q0 178 137.5 287t355.5 109h223v225h-813v164h1267v-164h-239
v-344q91 -117 92 -300t-132 -301t-361 -118z" />
    <glyph glyph-name="uF01F2" unicode="&#xf01f2;" horiz-adv-x="1098" 
d="M325 -221l81 150l495 -248l-85 -146zM554 28q-131 0 -253.5 34t-211.5 87l49 171q87 -52 198.5 -88t211.5 -36t163 38t63 99t-38 93.5t-109 32.5q-122 0 -225 -63h-24q-115 37 -187 119.5t-72 191.5t83.5 176.5t240.5 67.5h231v168h-704v164h1158v-164h-240v-332h-432
q-135 0 -135 -110q0 -66 66 -101q122 52 245 52q166 0 260 -82t94 -217.5t-114.5 -218t-317.5 -82.5z" />
    <glyph glyph-name="uF01F3" unicode="&#xf01f3;" horiz-adv-x="1100" 
d="M339 -201l81 150l495 -248l-85 -146zM552 901h123v218h-704v164h1160v-164h-240v-386h-313q-140 0 -217.5 -67t-77.5 -183q0 -140 94.5 -214.5t247.5 -74.5q97 0 150.5 37.5t53.5 96.5q0 96 -128 96q-90 0 -202 -88l-75 142q123 111 287 111q146 0 229.5 -73.5
t83.5 -188.5q0 -158 -140 -239q-97 -56 -259 -56t-288 57.5t-196 164t-70 248.5q0 182 127 290.5t354 108.5z" />
    <glyph glyph-name="uF01F4" unicode="&#xf01f4;" horiz-adv-x="927" 
d="M477 545q145 0 145 194v380h-284v-380q0 -93 36.5 -143.5t102.5 -50.5zM745 468.5q-92 -98.5 -258 -98.5t-265.5 99.5t-99.5 278.5v371h-152v164h1043v-164h-176v-374q0 -178 -92 -276.5z" />
    <glyph glyph-name="uF01F5" unicode="&#xf01f5;" horiz-adv-x="674" 
d="M517 880h416v-174h-364q-129 0 -197 -66t-68 -174q0 -193 170 -403l-175 -69q-101 118 -155.5 250t-53.5 259q1 172 112.5 274.5t314.5 102.5zM785 1119h-815v164h815v-164z" />
    <glyph glyph-name="uF01F6" unicode="&#xf01f6;" horiz-adv-x="900" 
d="M616 215v-2q-197 0 -344 116.5t-216 350.5l5 36q253 12 354 83q50 35 71.5 77t21.5 99t-32.5 92.5t-84.5 35.5t-79.5 -30.5t-27.5 -86.5q0 -30 13 -80l-162 -20q-28 75 -28 146q2 103 77.5 170t197.5 67q143 0 229.5 -86t86.5 -218q0 -158 -108.5 -262.5t-287.5 -117.5
q40 -95 120 -146.5t175 -51.5q126 0 235.5 67t239.5 230l89 -178q-239 -291 -545 -291z" />
    <glyph glyph-name="uF01F7" unicode="&#xf01f7;" horiz-adv-x="1067" 
d="M432 -297l81 150l495 -248l-85 -146zM597 124q-225 0 -371 113.5t-146 299.5q0 166 121.5 263t335.5 97h104v221h-672v164h1127v-164h-240v-390h-279q-144 0 -214 -57t-70 -155.5t75.5 -159.5t191.5 -61h9q-5 19 -5 50q0 55 43.5 92t131.5 37t149 -51.5t61 -116.5
q0 -101 -123 -147l121 -296l-196 -39l-114 301q-12 -1 -40 -1z" />
    <glyph glyph-name="uF01F8" unicode="&#xf01f8;" horiz-adv-x="830" 
d="M522 848l38 1h111l13 -169h-106q-117 0 -174 -44t-57 -122.5t59.5 -124.5t157.5 -46q269 0 439 288l105 -181h-1q-82 -136 -220.5 -210.5t-334 -74.5t-312 99t-117 254.5t137.5 250.5q-78 45 -123.5 114t-45.5 152q0 115 83.5 188t216.5 73t215 -41l-24 -148
q-68 26 -136.5 26t-104 -34.5t-35.5 -96.5t62 -108t144 -46h9z" />
    <glyph glyph-name="uF01F9" unicode="&#xf01f9;" horiz-adv-x="669" 
d="M267 320q-79 0 -143 93.5t-64 209.5q0 158 187 158h669v-179h-539v-153q0 -129 -110 -129zM751 1119h-781v164h781v-164z" />
    <glyph glyph-name="uF01FA" unicode="&#xf01fa;" horiz-adv-x="605" 
d="M497 392h-1q-175 0 -278 110t-103 323v294h-146v164h734v-164h-373v-345q0 -210 163 -210q81 0 153 36t126 100l81 -177q-124 -131 -356 -131z" />
    <glyph glyph-name="uF01FB" unicode="&#xf01fb;" horiz-adv-x="1168" 
d="M499 395q-176 0 -280 109.5t-104 321.5v294h-146v164h1270v-164h-338v-315q83 40 188.5 40t196 -38.5t154.5 -112.5l-54 -169q-135 138 -288 138q-107 0 -196 -74v-589l-216 1v435q-75 -41 -187 -41zM496 564q117 0 190 73v482h-356v-345q0 -210 166 -210z" />
    <glyph glyph-name="uF01FC" unicode="&#xf01fc;" horiz-adv-x="701" 
d="M497 363q28 0 49 4l-200 365q-75 -59 -75 -159t63 -155t163 -55zM491 778q-10 0 -34 -2l202 -363q85 64 85 155.5t-70 150.5t-183 59zM482 950q105 0 194 -31t147 -83t90.5 -120t32.5 -142q0 -163 -126 -273.5t-320.5 -110.5t-318.5 112t-124 279t113 268t312 101z
M778 1283v-164h-805v164h805z" />
    <glyph glyph-name="uF01FD" unicode="&#xf01fd;" horiz-adv-x="796" 
d="M207 697h33v262q0 84 -29 124.5t-77 39.5q-36 0 -59 -8t-63 -32l-26 159q70 54 193.5 54t199 -86t75.5 -249v-264h524v-176h-524v-57q0 -123 -109 -123q-47 0 -96 22t-87 56.5t-62 80.5t-24 92t35.5 75.5t95.5 29.5z" />
    <glyph glyph-name="uF01FE" unicode="&#xf01fe;" horiz-adv-x="804" 
d="M337 341q-99 0 -183 77.5t-84 171.5q0 48 35.5 77.5t95.5 29.5h33v422h-264v164h908v-164h-429v-422h536v-176h-536v-57q0 -123 -112 -123z" />
    <glyph glyph-name="uF01FF" unicode="&#xf01ff;" horiz-adv-x="756" 
d="M329 921q0 60 -23.5 106.5t-84.5 91.5h-251v164h857v-164h-372q91 -94 91 -221q0 -107 -68.5 -187t-175.5 -98q42 -80 112 -125t162.5 -45t175.5 51.5t163 172.5l97 -162q-84 -120 -188.5 -179t-241.5 -59l-1 -1q-175 0 -323 117.5t-208 305.5l5 32q274 33 274 200z" />
    <glyph glyph-name="uF0200" unicode="&#xf0200;" horiz-adv-x="444" 
d="M390 404q-185 0 -377 102l33 178q173 -85 326 -85q120 0 257 60l67 -192q-75 -36 -145.5 -49.5t-160.5 -13.5zM502 1119h-532v164h532v-164z" />
    <glyph glyph-name="uF0201" unicode="&#xf0201;" horiz-adv-x="865" 
d="M97 -148l81 150l495 -248l-85 -146zM454 880v239h-484v164h925v-164h-226v-254q0 -312 -233 -381l333 -395l-156 -112l-619 742l149 116l168 -161q75 8 109 56.5t34 149.5z" />
    <glyph glyph-name="uF0202" unicode="&#xf0202;" horiz-adv-x="1054" 
d="M73 521q0 166 92.5 267.5t242.5 101.5q100 0 180 -37.5t132 -104.5q109 144 285 144q98 0 178 -43.5t132 -120.5l-95 -151q-88 128 -202 128q-77 0 -128.5 -71.5t-51.5 -211.5v-135h-212v138q0 129 -55 200t-136 71q-66 0 -109 -53t-43 -150t39.5 -190.5t128.5 -206.5
l-173 -66q-205 237 -205 491zM1137 1119h-1167v164h1167v-164z" />
    <glyph glyph-name="uF0203" unicode="&#xf0203;" horiz-adv-x="1595" 
d="M326 294q54 -65 143 -65t141.5 64.5t52.5 195t-51.5 191.5t-144.5 61t-144 -65t-51 -191t54 -191zM1252 678.5q-51 63.5 -135.5 63.5t-136.5 -63.5t-52 -189t52 -190t138 -64.5t135.5 67t49.5 190t-51 186.5zM184.5 182q-110.5 118 -110.5 309.5t101.5 302.5t280.5 111
q107 0 193.5 -44t141.5 -118q53 78 135.5 120.5t175.5 42.5q131 0 222 -58q174 -109 174 -359q0 -192 -101 -308t-274 -116h1h-1q-98 0 -183.5 40.5t-141.5 115.5q-45 -70 -128.5 -111t-198.5 -43q-176 -3 -286.5 115zM1625 1283v-164h-1655v164h1655z" />
    <glyph glyph-name="uF0204" unicode="&#xf0204;" horiz-adv-x="698" 
d="M331 418q63 -55 165.5 -55t173.5 61.5t71 148.5t-70 146t-173.5 59t-166.5 -56.5t-63 -152.5t63 -151zM479 950q105 0 194 -31t147 -83t90.5 -120t32.5 -142q0 -163 -126 -273.5t-320.5 -110.5t-318.5 112t-124 279t113 268t312 101zM775 1283v-164h-805v164h805z" />
    <glyph glyph-name="uF0205" unicode="&#xf0205;" horiz-adv-x="937" 
d="M399 353q-57 -16 -121.5 -16t-109 38.5t-44.5 118t51.5 137t121.5 57.5q85 0 148 -80q196 85 196 300q0 98 -48.5 153.5t-120 55.5t-113 -45t-40.5 -117q0 -35 13 -93l-174 -27l-16 49q-15 44 -15 113q0 128 93.5 213.5t245.5 85.5q171 0 276 -108.5t105 -291.5
q0 -142 -79 -266t-203 -202l256 -336l-172 -92z" />
    <glyph glyph-name="uF0206" unicode="&#xf0206;" horiz-adv-x="895" 
d="M268 244q-157 0 -157 157q0 74 49 132.5t120 58.5q97 0 174 -107q72 26 113 73.5t41 111t-49.5 104.5t-122 41t-130 -13.5t-128.5 -44.5l-49 172q105 49 243 58v132h-402v164h984v-164h-366v-149q111 -35 173.5 -119t62.5 -192t-72.5 -200t-191.5 -148l203 -238l-172 -92
l-212 272q-65 -9 -111 -9z" />
    <glyph glyph-name="uF0207" unicode="&#xf0207;" horiz-adv-x="597" 
d="M497 392q-175 0 -278 110t-103 323v294h-146v164h734v-164h-274l277 -481q40 32 65 62l81 -177q-124 -131 -356 -131zM330 774q0 -209 162 -210q59 0 109 18l-271 475v-283z" />
    <glyph glyph-name="uF0208" unicode="&#xf0208;" horiz-adv-x="898" 
d="M417 880v239h-447v164h1013v-164h-351v-263q0 -102 -23 -174h509v-172h-647q-38 -18 -59 -23l287 -408l-167 -94l-535 753l148 106l158 -169q59 14 86.5 63.5t27.5 141.5z" />
    <glyph glyph-name="uF0209" unicode="&#xf0209;" horiz-adv-x="915" 
d="M832 -262q-341 0 -517 125.5t-176 341.5q0 144 94 241q-136 102 -136 245q0 114 87.5 182t240.5 68h135v178h-590v164h1093v-164h-287v-347h-318q-73 0 -110 -29t-37 -81q0 -78 82 -120q99 33 228 33h527v-171h-499q-144 0 -219.5 -58.5t-75.5 -158.5
q0 -136 117.5 -207.5t384.5 -72.5l-24 -168v-1z" />
    <glyph glyph-name="uF020A" unicode="&#xf020a;" horiz-adv-x="930" 
d="M481 93q-194 0 -313.5 92t-119.5 239q0 205 240 333q-126 108 -126 264q0 117 84.5 195t231.5 78t235 -80.5t88 -205.5t-105 -225q70 -8 145 -8h319v-175h-326q-202 0 -355 53q-119 -55 -167 -111t-48 -125t55.5 -110.5t141.5 -41.5q13 0 20 1q-10 30 -10 54
q0 55 43 90.5t114 35.5q95 0 156 -45.5t60 -114.5q-2 -83 -106 -138l99 -206l-183 -53l-91 208q-36 -4 -82 -4zM364 1000q0 -94 114 -155q133 71 133 162q0 60 -33 93t-87.5 33t-90.5 -36.5t-36 -96.5z" />
    <glyph glyph-name="uF020B" unicode="&#xf020b;" horiz-adv-x="933" 
d="M257 88q-118 0 -191 43t-73 109t44.5 111.5t110.5 45.5t115 -28t107 -94q74 13 114.5 62.5t40.5 139.5t-77 155.5t-204 65.5h-68v168h999v-169h-538q105 -98 105 -237t-69 -231.5t-197 -123.5l153 -189l-165 -81l-204 253h-3zM1008 1119h-1038v164h1038v-164z" />
    <glyph glyph-name="uF020C" unicode="&#xf020c;" horiz-adv-x="1146" 
d="M347 81v-175h-200v175h200zM432 179q-171 0 -282 103.5t-111 272.5t102.5 263t273.5 94q143 0 250 -45v253h-694v164h1254v-164h-345v-317q86 41 191 41t195.5 -38.5t154.5 -112.5l-55 -169q-133 138 -288 138q-108 0 -199 -75v-587l-213 1v237q-92 -59 -234 -59z
M434 349q138 0 230 95v237q-98 59 -219 59q-89 0 -140.5 -50.5t-51.5 -143t51.5 -145t129.5 -52.5z" />
    <glyph glyph-name="uF020D" unicode="&#xf020d;" horiz-adv-x="1289" 
d="M294 80v-175h-200v175h200zM457 880v239h-487v164h1374v-164h-672v-254q0 -314 -232 -381l333 -395l-156 -112l-619 742l149 116l168 -161q76 9 109 57.5t33 148.5zM1403 858q108 -99 108 -244.5t-103 -242.5t-267 -97t-275.5 100.5t-111.5 252.5t100.5 241.5t270.5 89
t278 -99.5zM1270 741.5q-51 48.5 -132.5 48.5t-130.5 -49.5t-49 -129.5t50 -125t131 -45t131.5 48t50.5 126t-51 126.5z" />
    <glyph glyph-name="uF020E" unicode="&#xf020e;" horiz-adv-x="652" 
d="M405 80v-175h-200v175h200zM339 370q-95 0 -180.5 79.5t-85.5 171.5q0 50 35 79t97 29h40v390h-275v164h747v-164h-257v-612q0 -66 -30.5 -101.5t-90.5 -35.5z" />
    <glyph glyph-name="uF020F" unicode="&#xf020f;" horiz-adv-x="936" 
d="M285 0v-175h-200v175h200zM358 92v-1q-80 0 -150 17t-155 56l37 166q69 -35 121.5 -48.5t110.5 -12.5q97 2 151.5 53t54.5 148t-77 162.5t-204 65.5h-68v168h999v-169h-538q105 -98 105 -252.5t-102 -253.5t-285 -99zM1018 1119h-1048v164h1048v-164z" />
    <glyph glyph-name="uF0210" unicode="&#xf0210;" horiz-adv-x="1098" 
d="M371 -241l81 150l495 -248l-85 -146zM270 -50v-175h-200v175h200zM554 28q-131 0 -253.5 34t-211.5 87l49 171q87 -52 198.5 -88t211.5 -36t163 38t63 99t-38 93.5t-109 32.5q-122 0 -225 -63h-24q-115 37 -187 119.5t-72 191.5t83.5 176.5t240.5 67.5h231v168h-704v164
h1158v-164h-240v-332h-432q-135 0 -135 -110q0 -66 66 -101q122 52 245 52q166 0 260 -82t94 -217.5t-114.5 -218t-317.5 -82.5z" />
    <glyph glyph-name="uF0211" unicode="&#xf0211;" horiz-adv-x="1100" 
d="M406 -241l81 150l495 -248l-85 -146zM321 -10v-175h-200v175h200zM552 901h123v218h-704v164h1160v-164h-240v-386h-313q-140 0 -217.5 -67t-77.5 -183q0 -140 94.5 -214.5t247.5 -74.5q97 0 150.5 37.5t53.5 96.5q0 96 -128 96q-90 0 -202 -88l-75 142q123 111 287 111
q146 0 229.5 -73.5t83.5 -188.5q0 -158 -140 -239q-97 -56 -259 -56t-288 57.5t-196 164t-70 248.5q0 182 127 290.5t354 108.5z" />
    <glyph glyph-name="uF0212" unicode="&#xf0212;" horiz-adv-x="669" 
d="M375 80v-175h-200v175h200zM267 320q-79 0 -143 93.5t-64 209.5q0 158 187 158h669v-179h-539v-153q0 -129 -110 -129zM751 1119h-781v164h781v-164z" />
    <glyph glyph-name="uF0213" unicode="&#xf0213;" horiz-adv-x="1168" 
d="M384 81v-175h-200v175h200zM499 395q-176 0 -280 109.5t-104 321.5v294h-146v164h1270v-164h-338v-315q83 40 188.5 40t196 -38.5t154.5 -112.5l-54 -169q-135 138 -288 138q-107 0 -196 -74v-589l-216 1v435q-75 -41 -187 -41zM496 564q117 0 190 73v482h-356v-345
q0 -210 166 -210z" />
    <glyph glyph-name="uF0214" unicode="&#xf0214;" horiz-adv-x="745" 
d="M384 79v-175h-200v175h200zM329 921q0 60 -23.5 106.5t-84.5 91.5h-251v164h857v-164h-372q91 -94 91 -221q0 -107 -68.5 -187t-175.5 -98q42 -80 112 -125t162.5 -45t175.5 51.5t163 172.5l97 -162q-84 -120 -188.5 -179t-241.5 -59l-1 -1q-175 0 -323 117.5t-208 305.5
l5 32q274 33 274 200z" />
    <glyph glyph-name="uF0215" unicode="&#xf0215;" horiz-adv-x="444" 
d="M366 80v-175h-200v175h200zM390 404q-185 0 -377 102l33 178q173 -85 326 -85q120 0 257 60l67 -192q-75 -36 -145.5 -49.5t-160.5 -13.5zM502 1119h-532v164h532v-164z" />
    <glyph glyph-name="uF0216" unicode="&#xf0216;" horiz-adv-x="1595" 
d="M357 -30v-175h-200v175h200zM326 294q54 -65 143 -65t141.5 64.5t52.5 195t-51.5 191.5t-144.5 61t-144 -65t-51 -191t54 -191zM1252 678.5q-51 63.5 -135.5 63.5t-136.5 -63.5t-52 -189t52 -190t138 -64.5t135.5 67t49.5 190t-51 186.5zM184.5 182
q-110.5 118 -110.5 309.5t101.5 302.5t280.5 111q107 0 193.5 -44t141.5 -118q53 78 135.5 120.5t175.5 42.5q131 0 222 -58q174 -109 174 -359q0 -192 -101 -308t-274 -116h1h-1q-98 0 -183.5 40.5t-141.5 115.5q-45 -70 -128.5 -111t-198.5 -43q-176 -3 -286.5 115z
M1625 1283v-164h-1655v164h1655z" />
    <glyph glyph-name="uF0217" unicode="&#xf0217;" horiz-adv-x="909" 
d="M358 92h-1q-80 0 -150 17t-155 56l37 166q69 -35 121.5 -48.5t110.5 -12.5q97 2 151.5 52t54.5 143.5t-74 150t-204 56.5h-71v168h436q175 0 298.5 -28t232.5 -83l-78 -157q-156 95 -404 95h-13q95 -88 95 -217q0 -160 -102.5 -259t-284.5 -99zM991 1119h-1021v164h1021
v-164z" />
    <glyph glyph-name="uF0218" unicode="&#xf0218;" horiz-adv-x="661" 
d="M490 856h1q126 0 244.5 -42t197.5 -105l-84 -153q-156 115 -329 115q-98 0 -158 -57t-60 -153t40.5 -191t131.5 -207l-175 -69q-102 118 -156 247.5t-53 256.5q1 164 111 261t289 97zM772 1119h-802v164h802v-164z" />
    <glyph glyph-name="uF0219" unicode="&#xf0219;" horiz-adv-x="909" 
d="M305 1v-175h-200v175h200zM358 92h-1q-80 0 -150 17t-155 56l37 166q69 -35 121.5 -48.5t110.5 -12.5q97 2 151.5 52t54.5 143.5t-74 150t-204 56.5h-71v168h436q175 0 298.5 -28t232.5 -83l-78 -157q-156 95 -404 95h-13q95 -88 95 -217q0 -160 -102.5 -259t-284.5 -99z
M991 1119h-1021v164h1021v-164z" />
    <glyph glyph-name="uF021A" unicode="&#xf021a;" horiz-adv-x="1554" 
d="M664 1v230l-467 -308l-114 144l209 132q-116 36 -185 130.5t-69 231.5q0 162 102.5 256t273.5 94q143 0 250 -45v253h-694v164h1614v-164h-705v-280q86 34 195 34q168 0 277 -101.5t109 -262.5q0 -184 -127 -346l-204 38q115 161 115 309q0 86 -50 138.5t-138.5 52.5
t-176.5 -63v-637h-215zM434 350q135 0 230 95v237q-98 59 -219 59q-89 0 -140.5 -50.5t-51.5 -143t51.5 -145t129.5 -52.5z" />
    <glyph glyph-name="uF021B" unicode="&#xf021b;" horiz-adv-x="1733" 
d="M1308 0v243l-331 -303l-135 131l241 213q-136 13 -232.5 109t-96.5 241t98.5 234.5t243.5 89.5q125 0 212 -37v198h-639v-254q0 -312 -233 -381l333 -395l-156 -112l-619 742l149 116l168 -161q75 8 109 56.5t34 149.5v239h-484v164h1793v-164h-239v-1119h-216zM1135 452
q100 0 173 53v240q-44 28 -83 37t-103 9t-111 -46t-47 -124t50.5 -123.5t120.5 -45.5z" />
    <glyph glyph-name="uF021C" unicode="&#xf021c;" horiz-adv-x="1233" 
d="M809 0v264l-449 -329l-116 149l565 407v628h-349v-612q0 -66 -30.5 -101.5t-90.5 -35.5q-95 0 -180.5 79.5t-85.5 171.5q0 50 35 79t97 29h40v390h-275v164h1293v-164h-239v-1119h-215z" />
    <glyph glyph-name="uF021D" unicode="&#xf021d;" horiz-adv-x="1291" 
d="M138 1004q0 61 25 116h-193v164h1351v-164h-240v-1119h-215l1 223l-695 -325l-97 161l297 136q-120 37 -186 123.5t-65 205.5q0 154 141 247q-124 86 -124 232zM866 1120h-345q-81 0 -121.5 -35.5t-40.5 -97t39 -98.5t110 -41q32 2 49 2h108l13 -169h-103
q-118 0 -175 -44t-57 -122t60.5 -124t161.5 -46q169 -1 301 89v686z" />
    <glyph glyph-name="uF021E" unicode="&#xf021e;" horiz-adv-x="1254" 
d="M333.5 231q111.5 -36 211.5 -36t163 38t63 99t-38 93.5t-109 32.5q-122 0 -225 -63h-24q-115 37 -187 119.5t-72 191.5t83.5 176.5t240.5 67.5h231v168h-704v164h1314v-164h-396v-332h-432q-135 0 -135 -110q0 -66 66 -101q122 52 245 52q166 0 260 -82t94 -218
q0 -114 -83 -192t-234 -99l296 -199l-108 -130l-307 208l-302 -207l-115 130l292 198q-188 24 -336 112l49 171q87 -52 198.5 -88zM1180 769v-179h-204v179h204z" />
    <glyph glyph-name="uF021F" unicode="&#xf021f;" horiz-adv-x="1331" 
d="M905 0v231l-683 -322l-97 157l324 149q-98 43 -154 126t-56 184.5t39 169.5h-242v169h713v-169h-75q-109 0 -162.5 -48t-53.5 -125.5t54 -121.5t144 -45q140 0 249 90v674h-935v164h1391v-164h-241v-1119h-215z" />
    <glyph glyph-name="uF0220" unicode="&#xf0220;" horiz-adv-x="1459" 
d="M538 794l36 1h89l14 -169h-89q-100 0 -154 -50t-54 -140q0 -105 86 -170t232 -64l2 2q186 1 306.5 106t120.5 275q0 89 -36 137.5t-89 48.5q-77 0 -152 -49l-46 158q108 61 215 61h15v176h-507q-82 0 -124 -40.5t-42 -114t46.5 -121t120.5 -47.5h10zM267.5 177.5
q-111.5 109.5 -111.5 274t134 263.5q-70 45 -110 114t-40 148t31 141h-201v164h1519v-164h-240v-278q83 -98 83 -265q0 -209 -143.5 -358.5t-382.5 -178.5l299 -201l-108 -130l-307 207l-302 -207l-115 130l298 202q-192 29 -303.5 138.5z" />
    <glyph glyph-name="uF0221" unicode="&#xf0221;" horiz-adv-x="1388" 
d="M965 0v99l-411 -292l-119 137l530 374v378h-325q105 -98 105 -252.5t-100.5 -253.5t-282.5 -99q-148 0 -309 73l37 166q69 -35 122 -48.5t110 -12.5q97 2 151.5 53t54.5 148t-77 162.5t-204 65.5h-68v168h786v253h-995v164h1448v-164h-239v-1119h-214z" />
    <glyph glyph-name="uF0222" unicode="&#xf0222;" horiz-adv-x="1691" 
d="M390 14q-117 0 -188 41t-71 106t44 109t109.5 44t118 -31t111.5 -98q106 1 166 45.5t60 106.5t-36.5 94t-103.5 32.5t-114 -14.5t-100 -49h-24q-113 36 -186 119.5t-73 189t85.5 174t245.5 68.5h211v166h-675v164h1751v-164h-240v-1119h-215v221l-271 -353l-150 108
l307 378h-197v-18q0 -119 -91.5 -203t-253.5 -102l158 -194l-166 -81l-208 260h-4zM605 633v-1q189 0 284 -110h377v596h-407v-331h-416q-64 0 -98.5 -29.5t-34.5 -78.5q0 -61 58 -96q106 50 237 50z" />
    <glyph glyph-name="uF0223" unicode="&#xf0223;" horiz-adv-x="1640" 
d="M447 520v-57q0 -123 -110 -123q-96 0 -182.5 79t-86.5 170q0 48 35.5 77.5t95.5 29.5h33v262q0 85 -29 125t-78 39q-35 0 -58 -8t-63 -32l-26 159q70 54 193.5 54t199 -86t75.5 -249v-264h303v422h-87v164h1008v-164h-706v-281q89 35 201 35q167 0 274 -101.5t107 -262.5
q0 -187 -128 -346l-203 38q115 161 115 309q0 86 -50 138.5t-139 52.5t-177 -63v-637h-215l1 314l-423 -377l-145 133l525 450h-260z" />
    <glyph glyph-name="uF0224" unicode="&#xf0224;" horiz-adv-x="1485" 
d="M1059 0v215l-451 -315l-122 143l573 393v122h-256q-18 -148 -123.5 -238.5t-263.5 -90.5q-194 0 -366 106l40 169q101 -54 161 -71.5t129 -17.5q94 0 152.5 56t58.5 149t-57 148.5t-164 55.5t-213 -53l-37 167q128 62 271 62t250.5 -72t146.5 -193h271v384h-1089v164
h1545v-164h-241v-1119h-215z" />
    <glyph glyph-name="uF0225" unicode="&#xf0225;" horiz-adv-x="1055" 
d="M550 898h80v220h-660v164h1115v-164h-240v-390h-252q-143 0 -220 -64.5t-77 -174t87 -171.5t231 -62q81 -1 135.5 9t131.5 35l20 -181q-124 -41 -249 -45l353 -237l-108 -130l-306 209l-302 -207l-115 130l354 240q-209 21 -330.5 133.5t-120.5 290.5t126 286.5
t347 108.5z" />
    <glyph glyph-name="uF0226" unicode="&#xf0226;" horiz-adv-x="1207" 
d="M365.5 298.5q83.5 -67.5 218 -67.5t216.5 68.5t82 183.5q0 161 -113 241h-161q-159 0 -242.5 -64.5t-83.5 -179t83.5 -182zM176.5 209q-109.5 117 -109.5 292t137.5 284t355.5 109h223v225h-813v164h1267v-164h-239v-344q91 -117 92 -294.5t-118 -293.5t-325 -129
l328 -221l-108 -130l-307 208l-302 -207l-115 130l333 226q-190 28 -299.5 145z" />
    <glyph glyph-name="uF0227" unicode="&#xf0227;" horiz-adv-x="1098" 
d="M336.5 231q111.5 -36 211.5 -36t163 38t63 99t-38 93.5t-109 32.5q-122 0 -225 -63h-24q-115 37 -187 119.5t-72 191.5t83.5 176.5t240.5 67.5h231v168h-704v164h1158v-164h-240v-332h-432q-135 0 -135 -110q0 -66 66 -101q122 52 245 52q166 0 260 -82t94 -218
q0 -117 -88 -195.5t-246 -97.5l293 -197l-108 -130l-307 208l-302 -207l-115 130l296 200q-181 28 -320 110l49 171q87 -52 198.5 -88z" />
    <glyph glyph-name="uF0228" unicode="&#xf0228;" horiz-adv-x="1100" 
d="M180.5 201.5q-109.5 120.5 -109.5 301t127 289t354 108.5h123v218h-704v164h1160v-164h-240v-386h-313q-140 0 -217.5 -67t-77.5 -183q0 -140 94.5 -214.5t247.5 -74.5q97 0 150.5 37.5t53.5 96.5q0 96 -128 96q-90 0 -202 -88l-75 142q123 111 287 111
q146 0 229.5 -73.5t83.5 -188.5t-80.5 -194t-234.5 -96l296 -199l-108 -130l-306 208l-302 -207l-115 130l305 207q-189 36 -298.5 156.5z" />
    <glyph glyph-name="uF0229" unicode="&#xf0229;" horiz-adv-x="1512" 
d="M1088 0v275l-478 -342l-120 151l598 416v619h-251v-374q0 -178 -92 -276.5t-258 -98.5t-265.5 99.5t-99.5 278.5v371h-152v164h1572v-164h-239v-1119h-215zM477 545q145 0 145 194v380h-284v-380q0 -93 36.5 -143.5t102.5 -50.5z" />
    <glyph glyph-name="uF022A" unicode="&#xf022a;" horiz-adv-x="1116" 
d="M575 649q-161 100 -271.5 100t-254.5 -73l-40 195q132 72 285 72t323 -101l78 -47v324h-725v164h1180v-164h-240v-1119h-215l-1 410l-453 -273l-117 171l517 300z" />
    <glyph glyph-name="uF022B" unicode="&#xf022b;" horiz-adv-x="1294" 
d="M869 0v256l-608 -342l-110 153l297 164q-147 40 -256 151.5t-164 294.5l5 36q270 10 378 84q51 35 73 75.5t22 100t-36 97t-90.5 37.5t-85.5 -34t-31 -87q0 -30 13 -80l-162 -20q-28 67 -26 146q2 103 79 170.5t214 67.5t223 -86t86 -219q0 -162 -113.5 -267.5
t-300.5 -118.5q43 -95 131.5 -145.5t192 -50.5t195.5 41l64 35q8 6 10 8v652h-85v164h540v-164h-240v-1119h-215z" />
    <glyph glyph-name="uF022C" unicode="&#xf022c;" horiz-adv-x="1067" 
d="M80 537q0 166 121.5 263t335.5 97h104v221h-672v164h1127v-164h-240v-390h-279q-144 0 -214 -57t-70 -155.5t75.5 -159.5t191.5 -61h9q-5 19 -5 50q0 55 43.5 92t131.5 37t149 -51.5t61 -116.5q0 -101 -123 -147l121 -296l-196 -39l-110 292l-505 -244l-100 165l298 137
q-118 51 -186 145t-68 218z" />
    <glyph glyph-name="uF022D" unicode="&#xf022d;" horiz-adv-x="1300" 
d="M526 848l38 1h110l14 -169h-105q-119 0 -176 -44t-57 -122t60.5 -124.5t161.5 -46.5q173 0 304 90v686h-87v164h541v-164h-239v-1119h-215v225l-696 -326l-97 161l293 134q-119 38 -184 125t-64 205q0 153 136 245q-77 46 -123 114.5t-46 151.5q0 114 84.5 187.5
t215 73.5t215.5 -41l-24 -148q-69 26 -137 26t-103.5 -34.5t-35.5 -96.5t61.5 -108t143.5 -46h11z" />
    <glyph glyph-name="uF022E" unicode="&#xf022e;" horiz-adv-x="1143" 
d="M719 0v215l-394 -272l-116 151l510 343v201h-342v-153q0 -130 -110 -130q-79 0 -143 94t-64 209q0 159 187 159h472v302h-749v164h1203v-164h-239v-1119h-215z" />
    <glyph glyph-name="uF022F" unicode="&#xf022f;" horiz-adv-x="1112" 
d="M686 0v367l-440 -423l-143 135l342 318q-153 16 -241.5 124.5t-88.5 303.5v294h-146v164h1172v-164h-240v-1119h-215zM686 1119h-356v-345q0 -108 43.5 -159t122.5 -51q116 0 190 73v482z" />
    <glyph glyph-name="uF0230" unicode="&#xf0230;" horiz-adv-x="1575" 
d="M686 0v366l-440 -423l-143 135l342 318q-153 16 -241.5 124.5t-88.5 303.5v294h-146v164h1639v-164h-707v-281q89 35 201 35q167 0 274 -101.5t107 -262.5q0 -187 -128 -346l-203 38q115 161 115 309q0 86 -50 138.5t-139 52.5t-177 -63v-637h-215zM686 1119h-356v-345
q0 -108 43.5 -159t122.5 -51q116 0 190 73v482z" />
    <glyph glyph-name="uF0231" unicode="&#xf0231;" horiz-adv-x="1133" 
d="M709 1v228l-554 -309l-101 162l261 139q-120 42 -190.5 139.5t-70.5 227.5q0 160 110 259t295 99q140 0 250 -46v220h-739v164h1193v-164h-239v-1119h-215zM486 366q30 0 55 4l-199 363q-73 -57 -73 -159t58.5 -155t158.5 -53zM489 777v1q-13 0 -35 -2l204 -367
q23 12 51 35v277q-96 56 -220 56z" />
    <glyph glyph-name="uF0232" unicode="&#xf0232;" horiz-adv-x="1174" 
d="M447 521v-57q0 -123 -110 -123q-96 0 -182.5 79t-86.5 170q0 48 35.5 77.5t95.5 29.5h33v262q0 85 -29 125t-78 39q-35 0 -58 -8t-63 -32l-26 159q70 54 193.5 54t199 -86t75.5 -249v-264h303v422h-87v164h542v-164h-240v-1119h-215l1 315l-423 -377l-145 133l525 450
h-260z" />
    <glyph glyph-name="uF0233" unicode="&#xf0233;" horiz-adv-x="1207" 
d="M782 0v345l-456 -407l-145 133l525 450h-257v-57q0 -123 -112 -123q-99 0 -183 77.5t-84 171.5q0 48 35.5 77.5t95.5 29.5h33v422h-264v164h1267v-164h-240v-1119h-215zM782 1119h-333v-422h333v422z" />
    <glyph glyph-name="uF0234" unicode="&#xf0234;" horiz-adv-x="1212" 
d="M787 0v294l-552 -363l-115 148l326 209q-135 40 -242.5 146.5t-153.5 255.5l5 32q274 33 274 203q0 114 -107 194h-252v164h1272v-164h-240v-1119h-215zM575 442q127 0 212 70v607h-331q40 -44 65 -101.5t25 -114.5q0 -109 -67 -189t-174 -100q44 -82 115.5 -127
t154.5 -45z" />
    <glyph glyph-name="uF0235" unicode="&#xf0235;" horiz-adv-x="876" 
d="M659 -293l-307 209l-302 -207l-115 130l366 248h94l372 -250zM465 880v239h-484v164h925v-164h-226v-254q0 -312 -233 -381l333 -395l-156 -112l-619 742l149 116l168 -161q75 8 109 56.5t34 149.5z" />
    <glyph glyph-name="uF0236" unicode="&#xf0236;" horiz-adv-x="1557" 
d="M1014 705q-78 0 -127 -72t-49 -211v-135h-212v138q0 129 -54.5 200t-135.5 71q-66 0 -109.5 -53.5t-43.5 -150t39.5 -190t128.5 -206.5l-174 -67q-205 237 -205 492q0 165 93 266.5t242 101.5q202 0 313 -142q51 67 123 104.5t148.5 37.5t139.5 -21v251h-1161v164h1617
v-164h-240v-1119h-216l2 192l-452 -317l-123 144l575 398v251q-55 37 -119 37z" />
    <glyph glyph-name="uF0237" unicode="&#xf0237;" horiz-adv-x="1460" 
d="M1026 -293l-307 209l-302 -207l-115 130l366 248h94l372 -250zM72 519q0 165 92.5 265t240.5 100q97 0 176 -37.5t131 -103.5q107 141 282 141q15 0 39 -2v237h-1064v164h1520v-164h-240v-323q114 -102 114 -281q0 -131 -43 -241t-132 -225l-179 64q80 123 113 205
t33 183t-39.5 152.5t-113 51.5t-122.5 -72t-49 -213v-135h-212v177q-9 111 -61.5 171.5t-121.5 60.5t-111.5 -53t-42.5 -150t40 -190.5t130 -207.5l-174 -66q-206 234 -206 492z" />
    <glyph glyph-name="uF0238" unicode="&#xf0238;" horiz-adv-x="1595" 
d="M326 293q54 -65 143 -65t141.5 64.5t52.5 195t-51.5 191.5t-144.5 61t-144 -65t-51 -191t54 -191zM1252 677.5q-51 63.5 -135.5 63.5t-136.5 -63.5t-52 -189t52 -190t138 -64.5t135.5 67t49.5 190t-51 186.5zM184.5 181q-110.5 118 -110.5 309.5t101.5 302.5t280.5 111
q107 0 193.5 -44t141.5 -118q53 78 135.5 120.5t175.5 42.5q39 0 67 -4v217h-1199v164h1655v-164h-240v-318q113 -116 113 -312q0 -172 -83 -284t-227 -134l347 -233l-108 -130l-305 208l-302 -207l-115 130l343 232q-160 28 -250 150q-45 -70 -128.5 -111t-198.5 -43
q-176 -3 -286.5 115z" />
    <glyph glyph-name="uF0239" unicode="&#xf0239;" horiz-adv-x="1133" 
d="M709 0v228l-554 -309l-101 162l261 139q-120 42 -190.5 139.5t-70.5 227.5q0 160 110 259t295 99q140 0 250 -46v220h-739v164h1193v-164h-239v-1119h-215zM486 365q133 0 223 79v277q-96 56 -220 56q-99 0 -159.5 -55.5t-60.5 -153t58.5 -150.5t158.5 -53z" />
    <glyph glyph-name="uF023A" unicode="&#xf023a;" horiz-adv-x="1395" 
d="M349 1001q0 -107 132 -169q69 46 94 84t25 92.5t-35.5 90t-90.5 35.5t-90 -36.5t-35 -96.5zM797 601q-157 0 -282 35l-382 -240l-100 165l280 168q-79 56 -121 131t-42 161q0 118 84.5 196t231.5 78t234.5 -82.5t87.5 -205.5t-92 -227q45 -4 103 -4h171v343h-83v164h538
v-164h-240v-1119h-215l1 394l-514 -369l-117 155l596 421h-139z" />
    <glyph glyph-name="uF023B" unicode="&#xf023b;" horiz-adv-x="1112" 
d="M685 0v367l-440 -423l-143 135l342 318q-153 16 -241.5 124.5t-88.5 303.5v294h-146v164h1172v-164h-240v-1119h-215zM687 1119h-258l258 -463v463zM330 774q0 -209 165 -210q48 0 96 14l-261 472v-276z" />
    <glyph glyph-name="uF023C" unicode="&#xf023c;" horiz-adv-x="1421" 
d="M417 880v239h-447v164h1481v-164h-240v-1119h-215v417l-216 -217l-141 129l239 225h-347q-50 -46 -119 -67l287 -408l-167 -94l-535 753l148 106l158 -169q59 14 86.5 63.5t27.5 141.5zM632 856q0 -71 -13 -136h377v399h-364v-263z" />
    <glyph glyph-name="uF023D" unicode="&#xf023d;" horiz-adv-x="1097" 
d="M139 205q0 136 90 243q-132 101 -132 242q0 114 87 182t240 68h246v178h-701v164h1157v-164h-240v-347h-428q-73 0 -110 -29t-37 -81q0 -67 59 -108q100 45 207.5 45t189 -29t134.5 -78t82.5 -112t29.5 -121.5t-4.5 -85t-19.5 -77.5l-183 19q16 69 16 118q0 73 -41 120
l-174 -285l-156 80l168 276q-8 1 -26 1q-105 0 -173.5 -70t-68.5 -164t48 -154t162 -94.5t296 -34.5l-25 -169q-341 0 -517 125.5t-176 341.5z" />
    <glyph glyph-name="uF023E" unicode="&#xf023e;" horiz-adv-x="1607" 
d="M434 93q-175 0 -282 89.5t-107 237.5q0 207 243 338q-126 108 -126 264q0 117 84.5 195t231.5 78t235 -80.5t88 -205.5t-105 -225q70 -8 145 -8h340v343h-176v164h631v-164h-240v-1119h-215v320l-203 -284l-149 106l338 459h-333q-202 0 -355 53q-120 -55 -170.5 -112.5
t-50.5 -128.5t44 -109.5t113 -38.5q13 0 20 1q-10 30 -10 54q0 56 43 91t125.5 35t142 -45t59.5 -115q-2 -87 -103 -139l99 -206l-183 -52l-91 208q-36 -4 -83 -4zM364 1000q0 -94 114 -155q133 71 133 162q0 60 -33 93t-87.5 33t-90.5 -36.5t-36 -96.5z" />
    <glyph glyph-name="uF023F" unicode="&#xf023f;" horiz-adv-x="1481" 
d="M262 88q-118 0 -191 43t-73 109t44 111.5t109 45.5t114 -27t106 -88q75 12 116 62t41 140t-77 155.5t-204 65.5h-68v168h879v246h-1088v164h1541v-164h-239v-1119h-214v299l-232 -319l-149 109l381 500v115h-418q105 -98 105 -238t-69 -232.5t-198 -122.5l158 -195
l-166 -81l-205 253h-3z" />
    <glyph glyph-name="uF0240" unicode="&#xf0240;" horiz-adv-x="1598" 
d="M708 0v230l-467 -308l-114 144l209 132q-116 36 -185 130.5t-69 231.5q0 162 102.5 256t273.5 94q143 0 250 -45v253h-694v164h1614v-164h-705v-280q86 34 195 34q168 0 277 -101.5t109 -262.5q0 -184 -127 -346l-204 38q115 161 115 309q0 86 -50 138.5t-138.5 52.5
t-176.5 -63v-637h-215zM128 290v-175h-200v175h200zM478 349q135 0 230 95v237q-98 59 -219 59q-89 0 -140.5 -50.5t-51.5 -143t51.5 -145t129.5 -52.5z" />
    <glyph glyph-name="uF0241" unicode="&#xf0241;" horiz-adv-x="1733" 
d="M315 80v-175h-200v175h200zM1308 0v243l-331 -303l-135 131l241 213q-136 13 -232.5 109t-96.5 241t98.5 234.5t243.5 89.5q125 0 212 -37v198h-639v-254q0 -312 -233 -381l333 -395l-156 -112l-619 742l149 116l168 -161q75 8 109 56.5t34 149.5v239h-484v164h1793v-164
h-239v-1119h-216zM1135 452q100 0 173 53v240q-44 28 -83 37t-103 9t-111 -46t-47 -124t50.5 -123.5t120.5 -45.5z" />
    <glyph glyph-name="uF0242" unicode="&#xf0242;" horiz-adv-x="1233" 
d="M809 0v264l-449 -329l-116 149l565 407v628h-349v-612q0 -66 -30.5 -101.5t-90.5 -35.5q-95 0 -180.5 79.5t-85.5 171.5q0 50 35 79t97 29h40v390h-275v164h1293v-164h-239v-1119h-215zM245 330v-175h-200v175h200z" />
    <glyph glyph-name="uF0243" unicode="&#xf0243;" horiz-adv-x="1388" 
d="M315 39v-175h-200v175h200zM965 0v99l-411 -292l-119 137l530 374v378h-325q105 -98 105 -252.5t-100.5 -253.5t-282.5 -99q-148 0 -309 73l37 166q69 -35 122 -48.5t110 -12.5q97 2 151.5 53t54.5 148t-77 162.5t-204 65.5h-68v168h786v253h-995v164h1448v-164h-239
v-1119h-214z" />
    <glyph glyph-name="uF0244" unicode="&#xf0244;" horiz-adv-x="1106" 
d="M143 79v-175h-200v175h200zM344.5 231q111.5 -36 211.5 -36t163 38t63 99t-38 93.5t-109 32.5q-122 0 -225 -63h-24q-115 37 -187 119.5t-72 191.5t83.5 176.5t240.5 67.5h231v168h-704v164h1158v-164h-240v-332h-432q-135 0 -135 -110q0 -66 66 -101q122 52 245 52
q166 0 260 -82t94 -218q0 -117 -88 -195.5t-246 -97.5l293 -197l-108 -130l-307 208l-302 -207l-115 130l296 200q-181 28 -320 110l49 171q87 -52 198.5 -88z" />
    <glyph glyph-name="uF0245" unicode="&#xf0245;" horiz-adv-x="1100" 
d="M216 98v-175h-200v175h200zM180.5 201.5q-109.5 120.5 -109.5 301t127 289t354 108.5h123v218h-704v164h1160v-164h-240v-386h-313q-140 0 -217.5 -67t-77.5 -183q0 -140 94.5 -214.5t247.5 -74.5q97 0 150.5 37.5t53.5 96.5q0 96 -128 96q-90 0 -202 -88l-75 142
q123 111 287 111q146 0 229.5 -73.5t83.5 -188.5t-80.5 -194t-234.5 -96l296 -199l-108 -130l-306 208l-302 -207l-115 130l305 207q-189 36 -298.5 156.5z" />
    <glyph glyph-name="uF0246" unicode="&#xf0246;" horiz-adv-x="1143" 
d="M719 0v215l-394 -272l-116 151l510 343v201h-342v-153q0 -130 -110 -130q-79 0 -143 94t-64 209q0 159 187 159h472v302h-749v164h1203v-164h-239v-1119h-215zM235 330v-175h-200v175h200z" />
    <glyph glyph-name="uF0247" unicode="&#xf0247;" horiz-adv-x="1575" 
d="M686 0v366l-440 -423l-143 135l342 318q-153 16 -241.5 124.5t-88.5 303.5v294h-146v164h1639v-164h-707v-281q89 35 201 35q167 0 274 -101.5t107 -262.5q0 -187 -128 -346l-203 38q115 161 115 309q0 86 -50 138.5t-139 52.5t-177 -63v-637h-215zM174 370v-175h-200
v175h200zM686 1119h-356v-345q0 -108 43.5 -159t122.5 -51q116 0 190 73v482z" />
    <glyph glyph-name="uF0248" unicode="&#xf0248;" horiz-adv-x="1212" 
d="M787 0v294l-552 -363l-115 148l326 209q-135 40 -242.5 146.5t-153.5 255.5l5 32q274 33 274 203q0 114 -107 194h-252v164h1272v-164h-240v-1119h-215zM195 340v-175h-200v175h200zM575 442q127 0 212 70v607h-331q40 -44 65 -101.5t25 -114.5q0 -109 -67 -189
t-174 -100q44 -82 115.5 -127t154.5 -45z" />
    <glyph glyph-name="uF0249" unicode="&#xf0249;" horiz-adv-x="884" 
d="M667 -293l-307 209l-302 -207l-115 130l366 248h94l372 -250zM143 260v-175h-200v175h200zM473 880v239h-484v164h925v-164h-226v-254q0 -312 -233 -381l333 -395l-156 -112l-619 742l149 116l168 -161q75 8 109 56.5t34 149.5z" />
    <glyph glyph-name="uF024A" unicode="&#xf024a;" horiz-adv-x="1595" 
d="M317 19v-175h-200v175h200zM326 293q54 -65 143 -65t141.5 64.5t52.5 195t-51.5 191.5t-144.5 61t-144 -65t-51 -191t54 -191zM1252 677.5q-51 63.5 -135.5 63.5t-136.5 -63.5t-52 -189t52 -190t138 -64.5t135.5 67t49.5 190t-51 186.5zM184.5 181
q-110.5 118 -110.5 309.5t101.5 302.5t280.5 111q107 0 193.5 -44t141.5 -118q53 78 135.5 120.5t175.5 42.5q39 0 67 -4v217h-1199v164h1655v-164h-240v-318q113 -116 113 -312q0 -172 -83 -284t-227 -134l347 -233l-108 -130l-305 208l-302 -207l-115 130l343 232
q-160 28 -250 150q-45 -70 -128.5 -111t-198.5 -43q-176 -3 -286.5 115z" />
    <glyph glyph-name="uF024B" unicode="&#xf024b;" horiz-adv-x="1146" 
d="M39 562q0 162 102.5 256t273.5 94q143 0 250 -45v253h-694v164h1254v-164h-345v-317q86 41 191 41t195.5 -38.5t154.5 -112.5l-55 -169q-133 138 -288 138q-108 0 -199 -75v-587h-215l1 233l-467 -308l-114 144l208 131q-116 37 -184.5 131t-68.5 231zM304.5 401.5
q51.5 -52.5 132 -52.5t149.5 36l41 26q13 9 37 33v237q-98 59 -219 59q-89 0 -140.5 -50.5t-51.5 -143t51.5 -145z" />
    <glyph glyph-name="uF024C" unicode="&#xf024c;" horiz-adv-x="1289" 
d="M457 880v239h-487v164h1374v-164h-672v-254q0 -314 -232 -381l333 -395l-156 -112l-619 742l149 116l168 -161q76 9 109 57.5t33 148.5zM840 400q-86 95 -86 237t100.5 231.5t270.5 89t278 -99.5t108 -243.5t-102 -243.5l-426 -431l-135 131l215 210q-137 24 -223 119z
M1270 741.5q-51 48.5 -132.5 48.5t-130.5 -49.5t-49 -129.5t50 -125t131 -45t131.5 48t50.5 126t-51 126.5z" />
    <glyph glyph-name="uF024D" unicode="&#xf024d;" horiz-adv-x="652" 
d="M843 515l110 -146l-593 -434l-116 149zM339 370q-95 0 -180.5 79.5t-85.5 171.5q0 50 35 79t97 29h40v390h-275v164h747v-164h-257v-612q0 -66 -30.5 -101.5t-90.5 -35.5z" />
    <glyph glyph-name="uF024E" unicode="&#xf024e;" horiz-adv-x="868" 
d="M121 521q0 157 141 250q-124 86 -124 232q0 61 25 116h-200v164h976v-164h-418q-81 0 -121.5 -35.5t-40.5 -97t39 -98.5t110 -41q32 2 49 2h108l13 -169h-104q-116 0 -173.5 -43.5t-57.5 -122t59.5 -125.5t159.5 -47q269 0 439 289l105 -181q-105 -170 -282 -238
l-640 -311l-97 158l281 132q-118 40 -182.5 127t-64.5 203z" />
    <glyph glyph-name="uF024F" unicode="&#xf024f;" horiz-adv-x="1254" 
d="M554 28q-131 0 -253.5 34t-211.5 87l49 171q87 -52 198.5 -88t211.5 -36t163 38t63 99t-38 93.5t-109 32.5q-122 0 -225 -63h-24q-115 37 -187 119.5t-72 191.5t83.5 176.5t240.5 67.5h231v168h-704v164h1314v-164h-396v-332h-432q-135 0 -135 -110q0 -66 66 -101
q122 52 245 52q166 0 260 -82t94 -217.5t-114.5 -218t-317.5 -82.5zM1183 769v-179h-204v179h204z" />
    <glyph glyph-name="uF0250" unicode="&#xf0250;" horiz-adv-x="886" 
d="M296 339q-57 84 -57 186t39 170h-242v169h713v-169h-75q-109 0 -162.5 -48t-53.5 -125.5t54 -121.5t144 -45q224 0 377 279l119 -166q-97 -184 -276 -253l-648 -306l-97 156l321 148q-99 42 -156 126zM956 1119h-986v164h986v-164z" />
    <glyph glyph-name="uF0251" unicode="&#xf0251;" horiz-adv-x="1459" 
d="M539 798l36 1h89l14 -169h-89q-100 0 -154 -50t-54 -140q0 -105 86 -170t232 -64q186 1 306.5 106t120.5 275q0 89 -36 137.5t-89 48.5q-77 0 -152 -49l-46 158q108 61 215 61q143 0 229 -100t85.5 -259.5t-77 -282.5t-220.5 -196t-330 -73l1 2q-248 -2 -398.5 113
t-150.5 305q0 167 134 266q-70 45 -110 114t-40 148t31 141h-201v164h1519v-164h-962q-82 0 -124 -40.5t-42 -114t46.5 -121t120.5 -47.5h10z" />
    <glyph glyph-name="uF0252" unicode="&#xf0252;" horiz-adv-x="936" 
d="M358 92v-1q-80 0 -150 17t-155 56l37 166q69 -35 121.5 -48.5t110.5 -12.5q97 2 151.5 53t54.5 148t-77 162.5t-204 65.5h-68v168h999v-169h-538q105 -98 105 -252.5t-102 -253.5t-285 -99zM1050 379l114 -137l-610 -434l-119 137zM1018 1119h-1048v164h1048v-164z" />
    <glyph glyph-name="uF0253" unicode="&#xf0253;" horiz-adv-x="1078" 
d="M382 12q-117 0 -188 41t-71 106t44 109t111 44t118.5 -30t112.5 -99h2q108 0 170 45.5t62 107.5t-36.5 94t-105 32.5t-116 -14t-99.5 -48.5h-24q-113 36 -186 119.5t-73 189t85.5 174t245.5 68.5h211v166h-675v164h1158v-164h-269v-331h-416q-64 0 -98.5 -29.5
t-34.5 -78.5q0 -61 58 -96q106 50 237 50q209 0 303 -131h440v-148l8 -8l-8 -11v-2h-2l-351 -465l-150 108l284 357h-171q-2 -124 -96 -205.5t-258 -97.5l157 -193l-166 -81l-209 257h-4z" />
    <glyph glyph-name="uF0254" unicode="&#xf0254;" horiz-adv-x="1233" 
d="M448 522v-57q0 -123 -110 -123q-96 0 -182.5 79t-86.5 170q0 48 35.5 77.5t95.5 29.5h33v262q0 85 -29 125t-78 39q-35 0 -58 -8t-63 -32l-26 159q70 54 193.5 54t199 -86t75.5 -249v-264h303v422h-87v164h741v-164h-439v-318q84 42 190.5 42t197 -38.5t154.5 -112.5
l-55 -169q-133 138 -288 138q-109 0 -200 -75v-587h-215l2 316l-423 -377l-145 133l525 450h-260z" />
    <glyph glyph-name="uF0255" unicode="&#xf0255;" horiz-adv-x="1019" 
d="M1191 494l94 -156l-627 -438l-123 143zM417 229q-194 0 -366 106l40 169q102 -54 161.5 -71.5t128.5 -17.5q94 0 152.5 56t58.5 149t-57.5 148.5t-164 55.5t-212.5 -53l-37 167q126 62 270 62t251.5 -72t146.5 -193h448v-177h-433q-18 -148 -123.5 -238.5t-263.5 -90.5z
M1052 1119h-1082v164h1082v-164z" />
    <glyph glyph-name="uF0256" unicode="&#xf0256;" horiz-adv-x="1055" 
d="M621 74v-1q-250 0 -398 115.5t-147 304t126 297t347 108.5h80v220h-660v164h1115v-164h-240v-390h-252q-143 0 -220 -64.5t-77 -174t87 -171.5t231 -62q81 -1 135.5 9t131.5 35l20 -181q-73 -24 -133 -34.5t-146 -10.5z" />
    <glyph glyph-name="uF0257" unicode="&#xf0257;" horiz-adv-x="1207" 
d="M365.5 298.5q83.5 -67.5 218 -67.5t216.5 68.5t82 183.5q0 161 -113 241h-161q-159 0 -242.5 -64.5t-83.5 -179t83.5 -182zM597 56v-1q-242 -1 -386 121.5t-144 321.5q0 178 137.5 287t355.5 109h223v225h-813v164h1267v-164h-239v-344q91 -117 92 -300t-132 -301
t-361 -118z" />
    <glyph glyph-name="uF0258" unicode="&#xf0258;" horiz-adv-x="1098" 
d="M554 28q-131 0 -253.5 34t-211.5 87l49 171q87 -52 198.5 -88t211.5 -36t163 38t63 99t-38 93.5t-109 32.5q-122 0 -225 -63h-24q-115 37 -187 119.5t-72 191.5t83.5 176.5t240.5 67.5h231v168h-704v164h1158v-164h-240v-332h-432q-135 0 -135 -110q0 -66 66 -101
q122 52 245 52q166 0 260 -82t94 -217.5t-114.5 -218t-317.5 -82.5z" />
    <glyph glyph-name="uF0259" unicode="&#xf0259;" horiz-adv-x="1084" 
d="M552 901h123v218h-704v164h1160v-164h-240v-386h-313q-140 0 -217.5 -67t-77.5 -183q0 -140 94.5 -214.5t247.5 -74.5q97 0 150.5 37.5t53.5 96.5q0 96 -128 96q-90 0 -202 -88l-75 142q123 111 287 111q146 0 229.5 -73.5t83.5 -188.5q0 -158 -140 -239
q-97 -56 -259 -56t-288 57.5t-196 164t-70 248.5q0 182 127 290.5t354 108.5z" />
    <glyph glyph-name="uF025A" unicode="&#xf025a;" horiz-adv-x="927" 
d="M1111 516l112 -145l-613 -438l-120 151zM477 545q145 0 145 194v380h-284v-380q0 -93 36.5 -143.5t102.5 -50.5zM745 468.5q-92 -98.5 -258 -98.5t-265.5 99.5t-99.5 278.5v371h-152v164h1043v-164h-176v-374q0 -178 -92 -276.5z" />
    <glyph glyph-name="uF025B" unicode="&#xf025b;" horiz-adv-x="660" 
d="M575 649q-161 100 -270 100t-253 -73l-40 195q132 72 283.5 72t321.5 -101l181 -109v-37l56 -190l-612 -369l-118 171l519 299zM788 1119h-818v164h818v-164z" />
    <glyph glyph-name="uF025C" unicode="&#xf025c;" horiz-adv-x="900" 
d="M486.5 876q21.5 42 21.5 99t-32.5 92.5t-84.5 35.5t-79.5 -30.5t-27.5 -86.5q0 -30 13 -80l-162 -20q-28 75 -28 146q2 103 77.5 170t197.5 67q143 0 229.5 -86t86.5 -218q0 -158 -108.5 -262.5t-287.5 -117.5q40 -95 120 -146.5t175 -51.5q126 0 235.5 67t239.5 230
l89 -178q-123 -149 -257 -220l-627 -369l-113 151l292 166q-140 39 -243 150.5t-157 295.5l5 36q253 12 354 83q50 35 71.5 77z" />
    <glyph glyph-name="uF025D" unicode="&#xf025d;" horiz-adv-x="1067" 
d="M314 -242l81 150l495 -248l-85 -146zM80 537q0 166 121.5 263t335.5 97h104v221h-672v164h1127v-164h-240v-390h-279q-144 0 -214 -57t-70 -155.5t75.5 -159.5t191.5 -61h9q-5 19 -5 50q0 55 43.5 92t131.5 37t149 -51.5t61 -116.5q0 -101 -123 -147l121 -296l-196 -39
l-110 292l-505 -244l-100 165l298 137q-118 51 -186 145t-68 218z" />
    <glyph glyph-name="uF025E" unicode="&#xf025e;" horiz-adv-x="830" 
d="M522 848l38 1h111l13 -169h-106q-117 0 -174 -44t-57 -122.5t59.5 -124.5t157.5 -46q269 0 439 288l105 -181h-1q-102 -168 -283 -239l-641 -311l-97 161l282 133q-116 39 -180 126t-64 203q-1 151 137 246q-78 45 -123.5 114t-45.5 152q0 115 83.5 188t216.5 73t215 -41
l-24 -148q-68 26 -136.5 26t-104 -34.5t-35.5 -96.5t62 -108t144 -46h9z" />
    <glyph glyph-name="uF025F" unicode="&#xf025f;" horiz-adv-x="669" 
d="M891 529l107 -146l-589 -440l-116 151zM267 320q-79 0 -143 93.5t-64 209.5q0 158 187 158h669v-179h-539v-153q0 -129 -110 -129zM751 1119h-781v164h781v-164z" />
    <glyph glyph-name="uF0260" unicode="&#xf0260;" horiz-adv-x="605" 
d="M115 824v294h-146v164h734v-164h-373v-345q0 -210 163 -210q81 0 153 36t126 100l81 -177q-3 -4 -5 -4l4 -3l-605 -571l-144 133l345 315q-154 15 -243.5 125t-89.5 307z" />
    <glyph glyph-name="uF0261" unicode="&#xf0261;" horiz-adv-x="1168" 
d="M115 826v294h-146v164h1270v-164h-338v-315q83 40 188.5 40t196 -38.5t154.5 -112.5l-54 -169q-135 138 -288 138q-107 0 -196 -74v-589h-215l-1 364l-440 -419l-143 135l345 317q-154 16 -243.5 124.5t-89.5 304.5zM496 564q117 0 190 73v482h-356v-345q0 -210 166 -210
z" />
    <glyph glyph-name="uF0262" unicode="&#xf0262;" horiz-adv-x="698" 
d="M494 362h1q27 0 48 4l-200 365q-75 -59 -75 -159t63 -155t163 -55zM488 777q-10 0 -34 -2l202 -363q85 64 85 155.5t-70 150.5t-183 59zM54 586q0 161 113 262t312 101q105 0 194 -31t147 -83t90.5 -120t32.5 -142q0 -115 -67 -208t-181 -138l-543 -300l-101 161l258 134
q-118 45 -186.5 141.5t-68.5 222.5zM775 1283v-164h-805v164h805z" />
    <glyph glyph-name="uF0263" unicode="&#xf0263;" horiz-adv-x="788" 
d="M447 521v-57q0 -123 -109 -123q-97 0 -183.5 79t-86.5 170q0 48 35.5 77.5t95.5 29.5h33v262q0 84 -29 124.5t-77 39.5q-36 0 -59 -8t-63 -32l-26 159q70 54 193.5 54t199 -86t75.5 -249v-264h524v-163l26 -75l-584 -521l-144 133l525 450h-346z" />
    <glyph glyph-name="uF0264" unicode="&#xf0264;" horiz-adv-x="796" 
d="M449 521v-57q0 -123 -112 -123q-99 0 -183 77.5t-84 171.5q0 48 35.5 77.5t95.5 29.5h33v422h-264v164h908v-164h-429v-422h536v-164l25 -68l-592 -527l-145 133l525 450h-349z" />
    <glyph glyph-name="uF0265" unicode="&#xf0265;" horiz-adv-x="745" 
d="M329 921q0 60 -23.5 106.5t-84.5 91.5h-251v164h857v-164h-372q91 -94 91 -221q0 -107 -68.5 -187t-175.5 -98q42 -80 112 -125t162.5 -45t175.5 51.5t163 172.5l97 -162q-83 -119 -188 -178l-576 -397l-115 147l316 208q-136 39 -243.5 146.5t-155.5 257.5l5 32
q274 33 274 200z" />
    <glyph glyph-name="uF0266" unicode="&#xf0266;" horiz-adv-x="444" 
d="M648 -293l-307 209l-302 -207l-115 130l366 248h94l372 -250zM390 404q-185 0 -377 102l33 178q173 -85 326 -85q120 0 257 60l67 -192q-75 -36 -145.5 -49.5t-160.5 -13.5zM502 1119h-532v164h532v-164z" />
    <glyph glyph-name="uF0267" unicode="&#xf0267;" horiz-adv-x="1054" 
d="M1233 449l118 -142l-615 -431l-123 144zM73 521q0 166 92.5 267.5t242.5 101.5q100 0 180 -37.5t132 -104.5q109 144 285 144q98 0 178 -43.5t132 -120.5l-95 -151q-88 128 -202 128q-77 0 -128.5 -71.5t-51.5 -211.5v-135h-212v138q0 129 -55 200t-136 71
q-66 0 -109 -53t-43 -150t39.5 -190.5t128.5 -206.5l-173 -66q-205 237 -205 491zM1137 1119h-1167v164h1167v-164z" />
    <glyph glyph-name="uF0268" unicode="&#xf0268;" horiz-adv-x="1595" 
d="M326 294q54 -65 143 -65t141.5 64.5t52.5 195t-51.5 191.5t-144.5 61t-144 -65t-51 -191t54 -191zM1252 678.5q-51 63.5 -135.5 63.5t-136.5 -63.5t-52 -189t52 -190t138 -64.5t135.5 67t49.5 190t-51 186.5zM184.5 182q-110.5 118 -110.5 309.5t101.5 302.5t280.5 111
q107 0 193.5 -44t141.5 -118q53 78 135.5 120.5t175.5 42.5q131 0 222 -58q174 -109 174 -359q0 -192 -101 -308t-274 -116h1h-1q-98 0 -183.5 40.5t-141.5 115.5q-45 -70 -128.5 -111t-198.5 -43q-176 -3 -286.5 115zM1625 1283v-164h-1655v164h1655z" />
    <glyph glyph-name="uF0269" unicode="&#xf0269;" horiz-adv-x="698" 
d="M331 418q63 -55 165.5 -55t173.5 61.5t71 148.5t-70 146t-173.5 59t-166.5 -56.5t-63 -152.5t63 -151zM54 587q0 161 113 262t312 101q105 0 194 -31t147 -83t90.5 -120t32.5 -142q0 -107 -58 -195t-159 -138l-571 -314l-101 162l258 133q-119 45 -188.5 141.5
t-69.5 223.5zM775 1283v-164h-805v164h805z" />
    <glyph glyph-name="uF026A" unicode="&#xf026a;" horiz-adv-x="933" 
d="M349 1001q0 -107 132 -169q69 46 94 84t25 92.5t-35.5 90t-90.5 35.5t-90 -36.5t-35 -96.5zM797 601q-157 0 -282 35l-382 -240l-100 165l280 168q-79 56 -121 131t-42 161q0 118 84.5 196t231.5 78t234.5 -82.5t87.5 -205.5t-92 -227q45 -4 103 -4h300l11 -54l6 4
l38 -200l-698 -501l-116 155l599 421h-142z" />
    <glyph glyph-name="uF026B" unicode="&#xf026b;" horiz-adv-x="597" 
d="M116 824v294h-146v164h734v-164h-274l277 -481q40 32 65 62l81 -177q-3 -4 -5 -4l4 -3l-605 -571l-143 133l345 315q-154 15 -243.5 125t-89.5 307zM330 772q0 -209 162 -210q59 0 109 18l-271 475v-283z" />
    <glyph glyph-name="uF026C" unicode="&#xf026c;" horiz-adv-x="898" 
d="M417 880v239h-447v164h1006v-164h-344v-263q0 -71 -13 -136h469v-162l36 -41l-343 -345l-141 129l271 253h-380q-50 -46 -119 -67l287 -408l-167 -94l-535 753l148 106l158 -169q59 14 86.5 63.5t27.5 141.5z" />
    <glyph glyph-name="uF026D" unicode="&#xf026d;" horiz-adv-x="1097" 
d="M139 205q0 136 90 243q-132 101 -132 242q0 114 87 182t240 68h246v178h-701v164h1157v-164h-240v-347h-428q-73 0 -110 -29t-37 -81q0 -67 59 -108q100 45 207.5 45t189 -29t134.5 -78t82.5 -112t29.5 -121.5t-4.5 -85t-19.5 -77.5l-183 19q16 69 16 118q0 73 -41 120
l-174 -285l-156 80l168 276q-8 1 -26 1q-105 0 -173.5 -70t-68.5 -164t48 -154t162 -94.5t296 -34.5l-25 -169q-341 0 -517 125.5t-176 341.5z" />
    <glyph glyph-name="uF026E" unicode="&#xf026e;" horiz-adv-x="942" 
d="M1149 552l123 -125l-296 -391l-149 106zM434 93q-175 0 -282 89.5t-107 237.5q0 207 243 338q-126 108 -126 264q0 117 84.5 195t231.5 78t235 -80.5t88 -205.5t-105 -225q70 -8 145 -8h361v-175h-368q-202 0 -355 53q-120 -55 -170.5 -112.5t-50.5 -128.5t44 -109.5
t113 -38.5q13 0 20 1q-10 30 -10 54q0 56 43 91t125.5 35t142 -45t59.5 -115q-2 -87 -103 -139l99 -206l-183 -52l-91 208q-36 -4 -83 -4zM364 1000q0 -94 114 -155q133 71 133 162q0 60 -33 93t-87.5 33t-90.5 -36.5t-36 -96.5z" />
    <glyph glyph-name="uF026F" unicode="&#xf026f;" horiz-adv-x="930" 
d="M257 88q-118 0 -191 43t-73 109t44.5 111.5t110.5 45.5t115 -28t107 -94q74 13 114.5 62.5t40.5 139.5t-77 155.5t-204 65.5h-68v168h999v-169h-538q105 -98 105 -237t-69 -231.5t-197 -123.5l153 -189l-165 -81l-204 253h-3zM1158 673l109 -142l-402 -551l-149 109z
M1008 1119h-1038v164h1038v-164z" />
    <glyph glyph-name="uF0270" unicode="&#xf0270;" horiz-adv-x="1195" 
d="M87 562q0 162 102.5 256t273.5 94q143 0 250 -45v253h-694v164h1254v-164h-345v-317q86 41 191 41t195.5 -38.5t154.5 -112.5l-55 -169q-133 138 -288 138q-108 0 -199 -75v-587h-215l1 233l-467 -308l-114 144l208 131q-116 37 -184.5 131t-68.5 231zM126 280v-175h-200
v175h200zM352.5 401.5q51.5 -52.5 132 -52.5t149.5 36l41 26q13 9 37 33v237q-98 59 -219 59q-89 0 -140.5 -50.5t-51.5 -143t51.5 -145z" />
    <glyph glyph-name="uF0271" unicode="&#xf0271;" horiz-adv-x="1245" 
d="M324 80v-175h-200v175h200zM457 880v239h-487v164h1374v-164h-672v-254q0 -314 -232 -381l333 -395l-156 -112l-619 742l149 116l168 -161q76 9 109 57.5t33 148.5zM840 400q-86 95 -86 237t100.5 231.5t270.5 89t278 -99.5t108 -243.5t-102 -243.5l-426 -431l-135 131
l215 210q-137 24 -223 119zM1270 741.5q-51 48.5 -132.5 48.5t-130.5 -49.5t-49 -129.5t50 -125t131 -45t131.5 48t50.5 126t-51 126.5z" />
    <glyph glyph-name="uF0272" unicode="&#xf0272;" horiz-adv-x="652" 
d="M275 350v-175h-200v175h200zM843 515l110 -146l-593 -434l-116 149zM339 370q-95 0 -180.5 79.5t-85.5 171.5q0 50 35 79t97 29h40v390h-275v164h747v-164h-257v-612q0 -66 -30.5 -101.5t-90.5 -35.5z" />
    <glyph glyph-name="uF0273" unicode="&#xf0273;" horiz-adv-x="936" 
d="M284 24v-175h-200v175h200zM358 92v-1q-80 0 -150 17t-155 56l37 166q69 -35 121.5 -48.5t110.5 -12.5q97 2 151.5 53t54.5 148t-77 162.5t-204 65.5h-68v168h999v-169h-538q105 -98 105 -252.5t-102 -253.5t-285 -99zM1050 379l114 -137l-610 -434l-119 137zM1018 1119
h-1048v164h1048v-164z" />
    <glyph glyph-name="uF0274" unicode="&#xf0274;" horiz-adv-x="1098" 
d="M135 79v-175h-200v175h200zM336.5 231q111.5 -36 211.5 -36t163 38t63 99t-38 93.5t-109 32.5q-122 0 -225 -63h-24q-115 37 -187 119.5t-72 191.5t83.5 176.5t240.5 67.5h231v168h-704v164h1158v-164h-240v-332h-432q-135 0 -135 -110q0 -66 66 -101q122 52 245 52
q166 0 260 -82t94 -218q0 -117 -88 -195.5t-246 -97.5l293 -197l-108 -130l-307 208l-302 -207l-115 130l296 200q-181 28 -320 110l49 171q87 -52 198.5 -88z" />
    <glyph glyph-name="uF0275" unicode="&#xf0275;" horiz-adv-x="1100" 
d="M216 98v-175h-200v175h200zM180.5 201.5q-109.5 120.5 -109.5 301t127 289t354 108.5h123v218h-704v164h1160v-164h-240v-386h-313q-140 0 -217.5 -67t-77.5 -183q0 -140 94.5 -214.5t247.5 -74.5q97 0 150.5 37.5t53.5 96.5q0 96 -128 96q-90 0 -202 -88l-75 142
q123 111 287 111q146 0 229.5 -73.5t83.5 -188.5t-80.5 -194t-234.5 -96l296 -199l-108 -130l-306 208l-302 -207l-115 130l305 207q-189 36 -298.5 156.5z" />
    <glyph glyph-name="uF0276" unicode="&#xf0276;" horiz-adv-x="669" 
d="M225 253v-175h-200v175h200zM891 529l107 -146l-589 -440l-116 151zM267 320q-79 0 -143 93.5t-64 209.5q0 158 187 158h669v-179h-539v-153q0 -129 -110 -129zM751 1119h-781v164h781v-164z" />
    <glyph glyph-name="uF0277" unicode="&#xf0277;" horiz-adv-x="1168" 
d="M115 826v294h-146v164h1270v-164h-338v-315q83 40 188.5 40t196 -38.5t154.5 -112.5l-54 -169q-135 138 -288 138q-107 0 -196 -74v-589h-215l-1 364l-440 -419l-143 135l345 317q-154 16 -243.5 124.5t-89.5 304.5zM230 417v-175h-200v175h200zM496 564q117 0 190 73
v482h-356v-345q0 -210 166 -210z" />
    <glyph glyph-name="uF0278" unicode="&#xf0278;" horiz-adv-x="745" 
d="M225 360v-175h-200v175h200zM329 921q0 60 -23.5 106.5t-84.5 91.5h-251v164h857v-164h-372q91 -94 91 -221q0 -107 -68.5 -187t-175.5 -98q42 -80 112 -125t162.5 -45t175.5 51.5t163 172.5l97 -162q-83 -119 -188 -178l-576 -397l-115 147l316 208
q-136 39 -243.5 146.5t-155.5 257.5l5 32q274 33 274 200z" />
    <glyph glyph-name="uF0279" unicode="&#xf0279;" horiz-adv-x="444" 
d="M336 89v-175h-200v175h200zM390 404q-185 0 -377 102l33 178q173 -85 326 -85q120 0 257 60l67 -192q-75 -36 -145.5 -49.5t-160.5 -13.5zM502 1119h-532v164h532v-164z" />
    <glyph glyph-name="uF027A" unicode="&#xf027a;" horiz-adv-x="1595" 
d="M326 294q54 -65 143 -65t141.5 64.5t52.5 195t-51.5 191.5t-144.5 61t-144 -65t-51 -191t54 -191zM1252 678.5q-51 63.5 -135.5 63.5t-136.5 -63.5t-52 -189t52 -190t138 -64.5t135.5 67t49.5 190t-51 186.5zM184.5 182q-110.5 118 -110.5 309.5t101.5 302.5t280.5 111
q107 0 193.5 -44t141.5 -118q53 78 135.5 120.5t175.5 42.5q131 0 222 -58q174 -109 174 -359q0 -192 -101 -308t-274 -116h1h-1q-98 0 -183.5 40.5t-141.5 115.5q-45 -70 -128.5 -111t-198.5 -43q-176 -3 -286.5 115zM1625 1283v-164h-1655v164h1655z" />
    <glyph glyph-name="uF027B" unicode="&#xf027b;" horiz-adv-x="1096" 
d="M590 -517q93 0 140.5 32.5t47.5 90.5t-40.5 89t-132 31t-185.5 -54l-48 148q4 4 10 7q-121 59 -182 156.5t-61 230t95 230.5q-137 104 -137 247q0 114 87.5 182t240.5 68h246v178h-701v164h1156v-164h-240v-347h-428q-73 0 -110 -29t-37 -81q0 -76 79 -119q74 28 170 28
q180 0 292.5 -94.5t112.5 -226.5q0 -68 -27 -154l-200 19q17 68 17 118q0 71 -49.5 118t-142.5 46.5t-151 -59.5t-58 -150q0 -136 117.5 -207.5t384.5 -72.5l-11 -74q127 -82 127 -237q0 -128 -95 -205t-266 -78l-1 1q-263 -2 -510 205l69 157q226 -194 421 -194z" />
    <glyph glyph-name="uF027C" unicode="&#xf027c;" horiz-adv-x="1096" 
d="M201 -373q0 154 131 227q-192 122 -192 352q0 139 95 237q-137 104 -137 247q0 114 87.5 182t240.5 68h246v178h-701v164h1156v-164h-240v-347h-428q-73 0 -110 -29t-37 -81q0 -76 79 -119q74 28 170 28q180 0 292.5 -94.5t112.5 -226.5q0 -68 -27 -154l-200 19
q17 68 17 118q0 71 -49.5 118t-142.5 46.5t-151 -59.5t-58 -150q0 -136 117.5 -207.5t384.5 -72.5l-15 -105q138 -97 258 -288l-114 -118q-121 186 -227 261t-210 75q-76 0 -116 -34t-40 -91.5t46.5 -90t120.5 -32.5t143 16l20 -152q-58 -19 -159 -19q-159 0 -261 82
t-102 216z" />
    <glyph glyph-name="uF027D" unicode="&#xf027d;" horiz-adv-x="1128" 
d="M109 217q0 135 79 241q-121 100 -121 233q0 114 87.5 182t240.5 68h309v178h-733v164h1188v-164h-239v-347h-491q-74 0 -111.5 -29t-37.5 -83t40 -90q104 58 240 58q181 0 300.5 -88.5t119.5 -233.5v-83h-124q-61 0 -95.5 -27t-34.5 -76q0 -95 142 -95q70 0 137 25
l19 -136q-66 -29 -165 -29q-153 0 -240 66t-87 173t67 166t180 64q-35 103 -210 103q-111 -1 -183 -74t-72 -189q0 -278 390 -398l-73 -151q-244 78 -383 226.5t-139 345.5z" />
    <glyph glyph-name="uF027E" unicode="&#xf027e;" horiz-adv-x="1128" 
d="M67 690q0 114 87.5 182t240.5 68h309v178h-733v164h1188v-164h-239v-347h-491q-74 0 -111.5 -29t-37.5 -83t40 -90q104 58 240 58q175 0 290.5 -84t115.5 -205v-100h-95q-81 0 -112.5 -17t-31.5 -52q0 -73 127 -73q71 0 133 17l23 -117q-72 -29 -167 -29h-4
q-38 -12 -38 -55q0 -31 24.5 -48t67.5 -17t118 23l21 -111q-74 -31 -163 -31t-160 52.5t-71 137.5q0 52 23 86q-120 58 -120 174q0 81 56 132.5t160 60.5q-35 86 -188 86q-111 -1 -183 -74t-72 -190.5t77.5 -220t225.5 -179.5l-101 -125q-181 84 -294.5 233t-112.5 315
q0 136 79 240q-121 100 -121 234z" />
    <glyph glyph-name="uF027F" unicode="&#xf027f;" horiz-adv-x="1097" 
d="M590 -519q93 0 140.5 32.5t47.5 90.5t-40.5 89t-132 31t-185.5 -54l-48 148q5 5 10 6q-243 122 -243 381q0 136 90 243q-132 101 -132 242q0 114 87 182t240 68h246v178h-701v164h1157v-164h-240v-347h-428q-73 0 -110 -29t-37 -81q0 -67 59 -108q100 45 207.5 45
t189 -29t134.5 -78t82.5 -112t29.5 -121.5t-4.5 -85t-19.5 -77.5l-183 19q16 69 16 118q0 73 -41 120l-174 -285l-156 80l168 276q-8 1 -26 1q-105 0 -173.5 -70t-68.5 -164t48 -154t162 -94.5t296 -34.5l-11 -75q126 -78 126 -235q0 -128 -95 -205t-266 -78l-1 -1
q-263 -2 -510 205l69 157q226 -194 421 -194z" />
    <glyph glyph-name="uF0280" unicode="&#xf0280;" horiz-adv-x="1097" 
d="M563 -672q-159 0 -261 82t-102 216q0 73 34 132t97 95q-191 125 -191 352q0 136 90 243q-132 101 -132 242q0 114 87 182t240 68h246v178h-701v164h1157v-164h-240v-347h-428q-73 0 -110 -29t-37 -81q0 -67 59 -108q100 45 207.5 45t189 -29t134.5 -78t82.5 -112
t29.5 -121.5t-4.5 -85t-19.5 -77.5l-183 19q16 69 16 118q0 73 -41 120l-174 -285l-156 80l168 276q-8 1 -26 1q-105 0 -173.5 -70t-68.5 -164t48 -154t162 -94.5t296 -34.5l-15 -106q137 -96 257 -287l-114 -118q-121 186 -227 261t-210 75q-76 0 -116 -34t-40 -91.5
t46.5 -90t120.5 -32.5t143 16l20 -152v-1q-58 -19 -160 -19z" />
    <glyph glyph-name="uF0281" unicode="&#xf0281;" horiz-adv-x="1208" 
d="M454 882v239h-484v164h1268v-164h-569v-266q71 20 142 20q141 0 229 -82t88 -214q0 -75 -28 -152.5t-73 -128.5l-193 29q44 59 69 128t25 128.5t-35 92.5t-93 33q-100 0 -190 -97q-60 -95 -174 -128l333 -395l-156 -110l-619 742l149 116l168 -161q75 8 109 56.5
t34 149.5z" />
    <glyph glyph-name="uF0282" unicode="&#xf0282;" horiz-adv-x="1418" 
d="M455 879v239h-484v164h1478v-164h-779v-256q75 67 206 67q154 0 265.5 -94.5t201.5 -330.5l-136 -82q-80 193 -153.5 268t-153.5 75q-59 0 -91 -30.5t-32 -81.5t39 -83t88.5 -32t94.5 8l23 -145q-42 -20 -104 -20q-123 0 -208.5 57t-109.5 157q-59 -80 -164 -111
l333 -395l-155 -113l-619 742l149 116l168 -161q75 8 109 56.5t34 149.5z" />
    <glyph glyph-name="uF0283" unicode="&#xf0283;" horiz-adv-x="1208" 
d="M325 82v-175h-200v175h200zM454 882v239h-484v164h1268v-164h-569v-266q71 20 142 20q141 0 229 -82t88 -214q0 -75 -28 -152.5t-73 -128.5l-193 29q44 59 69 128t25 128.5t-35 92.5t-93 33q-100 0 -190 -97q-60 -95 -174 -128l333 -395l-156 -110l-619 742l149 116
l168 -161q75 8 109 56.5t34 149.5z" />
    <glyph glyph-name="uF0284" unicode="&#xf0284;" horiz-adv-x="1418" 
d="M318 79v-175h-200v175h200zM455 879v239h-484v164h1478v-164h-779v-256q75 67 206 67q154 0 265.5 -94.5t201.5 -330.5l-136 -82q-80 193 -153.5 268t-153.5 75q-59 0 -91 -30.5t-32 -81.5t39 -83t88.5 -32t94.5 8l23 -145q-42 -20 -104 -20q-123 0 -208.5 57t-109.5 157
q-59 -80 -164 -111l333 -395l-155 -113l-619 742l149 116l168 -161q75 8 109 56.5t34 149.5z" />
    <glyph glyph-name="uF0285" unicode="&#xf0285;" horiz-adv-x="1067" 
d="M668 -421q93 0 140.5 32.5t47.5 90.5t-40.5 89t-132 31t-185.5 -54l-48 148q99 65 239 70l-52 139q-12 -1 -40 -1q-225 0 -371 113.5t-146 299.5q0 166 121.5 263t335.5 97h104v221h-672v164h1127v-164h-240v-390h-279q-144 0 -214 -57t-70 -155.5t75.5 -159.5t191.5 -61
h9q-5 19 -5 50q0 55 43.5 92t131.5 37t149 -51.5t61 -116.5q0 -101 -123 -147l91 -224q65 -38 99 -100.5t34 -138.5q0 -128 -95 -205t-266 -78l-1 -2q-263 -2 -510 205l69 157q226 -194 421 -194z" />
    <glyph glyph-name="uF0286" unicode="&#xf0286;" horiz-adv-x="1067" 
d="M747 -605q-159 0 -261 82t-102 216q0 118 82.5 193t230.5 81l-59 158q-12 -1 -40 -1q-226 0 -371.5 113.5t-145.5 299.5q0 166 121.5 263t335.5 97h104v221h-672v164h1127v-164h-240v-390h-279q-144 0 -214 -57t-70 -155.5t75.5 -159.5t191.5 -61h9q-5 19 -5 50
q0 55 43.5 92t131.5 37t149 -51.5t61 -116.5q0 -101 -123 -147l94 -231q199 -86 363 -347l-114 -118q-121 186 -227 261t-210 75q-76 0 -116 -34t-40 -91.5t46.5 -90t120.5 -32.5t143 16l20 -152v-1q-58 -19 -160 -19z" />
    <glyph glyph-name="uF0287" unicode="&#xf0287;" horiz-adv-x="1059" 
d="M597 -95q-215 0 -338.5 90.5t-123.5 245.5q0 138 115 223q-132 83 -132 229q0 112 90 180t257 68h171v178h-666v164h1119v-164h-239v-338h-351q-85 0 -125 -30.5t-40 -77.5q0 -112 199 -123h255l10 -173h-225q-108 0 -165 -41t-57 -108.5t65.5 -108t174.5 -40.5
q155 0 308 64l17 -173q-54 -29 -142.5 -47t-176.5 -18z" />
    <glyph glyph-name="uF0288" unicode="&#xf0288;" horiz-adv-x="1514" 
d="M481 93q-194 0 -313.5 92t-119.5 239q0 205 240 333q-126 108 -126 264q0 117 84.5 195t231.5 78t235 -80.5t88 -205.5t-105 -225q70 -8 145 -8h247v343h-176v164h631v-164h-240v-1119h-215v601h-254q-202 0 -355 53q-119 -55 -167 -111t-48 -125t55.5 -110.5
t141.5 -41.5q13 0 20 1q-10 30 -10 54q0 55 43 90.5t114 35.5q95 0 156 -45.5t60 -114.5q-2 -83 -106 -138l99 -206l-183 -53l-91 208q-36 -4 -82 -4zM364 1000q0 -94 114 -155q133 71 133 162q0 60 -33 93t-87.5 33t-90.5 -36.5t-36 -96.5z" />
    <glyph glyph-name="uF0289" unicode="&#xf0289;" horiz-adv-x="1388" 
d="M263 87q-118 0 -191 43t-73 109t44 111.5t109.5 45.5t116 -28.5t107.5 -92.5q73 15 112.5 64t39.5 138.5t-77 155t-204 65.5h-68v168h786v253h-995v164h1448v-164h-239v-1119h-214v697h-325q105 -98 105 -237.5t-67.5 -231.5t-194.5 -123l153 -189l-166 -81l-204 252h-3z
" />
    <glyph glyph-name="uF028A" unicode="&#xf028a;" horiz-adv-x="1759" 
d="M443 -6q1 0 1 -1zM48 706v174h831v239h-908v164h1819v-164h-696v-289q83 31 186 31q173 0 279.5 -104.5t106.5 -267.5q0 -97 -38 -201.5t-100 -181.5l-202 39q127 177 127 344q0 86 -51.5 141t-130.5 55q-98 0 -178 -55v-630h-215v706h-165q-129 0 -197 -66t-68 -174
q0 -193 171 -403l-176 -69q-100 118 -154 249.5t-53.5 253t53.5 209.5h-241z" />
    <glyph glyph-name="uF028B" unicode="&#xf028b;" horiz-adv-x="1303" 
d="M47 706v174h831v239h-908v164h1363v-164h-240v-1119h-215v706h-165q-129 0 -197 -66t-68 -174q0 -193 171 -403l-176 -69v-1q-101 118 -155 250t-53.5 253.5t53.5 209.5h-241z" />
    </font>
</defs>
</svg>
