<?xml version="1.0" standalone="no"?>
<!DOCTYPE svg PUBLIC "-//W3C//DTD SVG 1.1//EN" "http://www.w3.org/Graphics/SVG/1.1/DTD/svg11.dtd" >
<svg xmlns="http://www.w3.org/2000/svg" xmlns:xlink="http://www.w3.org/1999/xlink" version="1.1">
<metadata>
Created by FontForge 20170731 at Fri May  5 14:19:05 2017
 By Aleksey,,,
Copyright 2014, Erin McLaughlin (hello@erinmclaughlin.com). Copyright 2010, Google Inc. All Rights Reserved.
</metadata>
<defs>
<font id="Yantramanav-Regular" horiz-adv-x="0" >
  <font-face 
    font-family="Yantramanav"
    font-weight="400"
    font-stretch="normal"
    units-per-em="2048"
    panose-1="2 0 0 0 0 0 0 0 0 0"
    ascent="1638"
    descent="-410"
    x-height="930"
    cap-height="1310"
    bbox="-982 -674.02 3098 1911"
    underline-thickness="50"
    underline-position="-200"
    unicode-range="U+000D-F02AE"
  />
<missing-glyph horiz-adv-x="817" 
d="M406 594l-231 -545h463zM380 655l-241 568v-1137zM432 655l247 -579v1158zM175 1262l231 -546l232 546h-463zM727 1310v-1310h-637v1310h637z" />
    <glyph glyph-name=".notdef" horiz-adv-x="817" 
d="M406 594l-231 -545h463zM380 655l-241 568v-1137zM432 655l247 -579v1158zM175 1262l231 -546l232 546h-463zM727 1310v-1310h-637v1310h637z" />
    <glyph glyph-name=".null" 
 />
    <glyph glyph-name="uni000D" unicode="&#xd;" horiz-adv-x="505" 
 />
    <glyph glyph-name="space" unicode=" " horiz-adv-x="520" 
 />
    <glyph glyph-name="exclam" unicode="!" horiz-adv-x="667" 
d="M404 184v-184h-178v184h178zM403 1310v-880h-177v880h177z" />
    <glyph glyph-name="quotedbl" unicode="&#x22;" horiz-adv-x="847" 
d="M198 936v468h177v-243l-91 -225h-86zM476 936v468h177v-243l-91 -225h-86z" />
    <glyph glyph-name="numbersign" unicode="#" horiz-adv-x="1148" 
d="M63 369v126h238l61 313h-231v128h256l74 374h136l-74 -374h229l74 374h136l-74 -374h179v-128h-203l-61 -313h197v-126h-222l-72 -369h-137l72 369h-230l-72 -369h-136l72 369h-212zM498 808l-61 -313h229l61 313h-229z" />
    <glyph glyph-name="dollar" unicode="$" horiz-adv-x="1038" 
d="M764 319q0 81 -57.5 138t-188.5 102q-188 57 -278 149t-90 241.5t84.5 243t235.5 112.5v199h142v-200q152 -21 235 -129t83 -288h-177q0 124 -57 198.5t-159.5 74.5t-155.5 -54t-53 -147.5t54.5 -147.5t196.5 -103q190 -61 276.5 -150t86.5 -240.5t-92 -243.5t-256 -109
v-173h-141v172q-164 17 -259 116.5t-91 280.5l1 4h171q0 -132 66 -194t176 -62l1 1q116 0 181 55.5t65 153.5z" />
    <glyph glyph-name="percent" unicode="%" horiz-adv-x="1348" 
d="M860 319v-70q0 -70 37 -115t102.5 -45t102.5 45t37 115v70q0 69 -38 114.5t-102.5 45.5t-101.5 -45t-37 -115zM728 249v70q0 117 74.5 193.5t196 76.5t196.5 -76.5t75 -193.5v-70q0 -117 -74.5 -193.5t-196 -76.5t-196.5 76.5t-75 193.5zM1052 1121l-640 -1024l-98 60
l640 1024zM225 1056v-69q0 -70 37.5 -114.5t102.5 -44.5t102 44.5t37 114.5v69q0 70 -37.5 115.5t-102.5 45.5t-102 -45.5t-37 -115.5zM94 987v69q0 118 74.5 194.5t196.5 76.5t196 -76.5t74 -194.5v-69q0 -117 -73.5 -193t-196 -76t-197 76t-74.5 193z" />
    <glyph glyph-name="ampersand" unicode="&#x26;" horiz-adv-x="1148" 
d="M824 90q-148 -111 -341 -111t-309 102.5t-116 269.5q0 106 60.5 187.5t192.5 168.5q-74 92 -106.5 161.5t-32.5 140.5q0 153 86.5 235t235 82t238.5 -80.5t90 -198.5q0 -85 -44.5 -148.5t-142.5 -135.5l-99 -72l306 -368q79 123 79 280h158q0 -237 -137 -400l167 -201
l-2 -4h-206zM235 351q0 -105 65 -169t190 -64t241 85l-325 392l-36 -26q-135 -102 -135 -218zM614.5 1146.5q-44.5 41.5 -114.5 41.5t-110.5 -49.5t-40.5 -132t97 -206.5l125 85q88 61 88 163q0 57 -44.5 98.5z" />
    <glyph glyph-name="quotesingle" unicode="'" horiz-adv-x="569" 
d="M198 949v455h177v-201l-91 -254h-86z" />
    <glyph glyph-name="parenleft" unicode="(" horiz-adv-x="821" 
d="M179 524v9q0 137 26 268t69.5 235.5t101.5 192.5q112 172 246 243l6 -1l34 -104q-133 -104 -219.5 -320t-86.5 -513v-12q0 -296 85.5 -511.5t220.5 -330.5l-34 -97h-6q-81 44 -158 129t-141.5 203.5t-104 277.5t-39.5 331z" />
    <glyph glyph-name="parenright" unicode=")" horiz-adv-x="822" 
d="M643 532v-9q0 -172 -39.5 -331t-104 -277.5t-142 -203.5t-158.5 -129h-5l-35 97q132 103 219 323t87 519v12q0 288 -89 509.5t-217 331.5l35 97h5q81 -43 158.5 -128.5t142 -203.5t104 -277t39.5 -330z" />
    <glyph glyph-name="asterisk" unicode="*" horiz-adv-x="796" 
d="M113 698l179 247l-267 80l44 138l267 -100l-9 308h145l-9 -313l263 99l44 -140l-272 -81l173 -243l-117 -86l-163 258l-159 -251z" />
    <glyph glyph-name="plus" unicode="+" horiz-adv-x="1046" 
d="M609 1100v-381h359v-160h-359v-413h-177v413h-362v160h362v381h177z" />
    <glyph glyph-name="comma" unicode="," horiz-adv-x="364" 
d="M284 173v-156l-135 -275h-106l63 284v147h178z" />
    <glyph glyph-name="hyphen" unicode="-" horiz-adv-x="505" 
d="M473 677v-139h-441v139h441z" />
    <glyph glyph-name="period" unicode="." horiz-adv-x="493" 
d="M322 182v-182h-177v182h177z" />
    <glyph glyph-name="slash" unicode="/" horiz-adv-x="765" 
d="M712 1298l-546 -1423h-152l548 1423h150z" />
    <glyph glyph-name="zero" unicode="0" horiz-adv-x="1039" 
d="M759 461v385q0 170 -61.5 256t-179.5 86q-239 0 -239 -342v-385q0 -170 61.5 -256.5t179.5 -86.5q239 0 239 343zM936 808v-311q0 -250 -109.5 -384t-306 -134t-307.5 134.5t-111 383.5v311q0 249 110.5 384t306.5 135t306.5 -135t110.5 -384z" />
    <glyph glyph-name="one" unicode="1" horiz-adv-x="1038" 
d="M613 0h-177v1138l-269 -4v128l446 48v-1310z" />
    <glyph glyph-name="two" unicode="2" horiz-adv-x="1038" 
d="M956 139v-140h-850v122l430 477q115 128 156 203t41 165.5t-58 156.5t-151 66q-265 0 -265 -266h-170l-2 6q-4 173 115 286t322 113q175 0 280.5 -101.5t105.5 -263.5q0 -102 -59.5 -207.5t-181.5 -237.5l-345 -375l2 -4h630z" />
    <glyph glyph-name="three" unicode="3" horiz-adv-x="1038" 
d="M503 736q115 0 165.5 56.5t50.5 168t-55.5 170t-162 58.5t-169 -61t-62.5 -162h-170l-2 6q-4 151 109 253.5t295.5 102.5t288.5 -97t106 -275q0 -86 -51 -165t-145 -121q216 -70 216 -307q0 -177 -115.5 -280.5t-300.5 -103.5t-300 98t-111 261l3 6h169
q0 -105 63.5 -165.5t176 -60.5t175.5 61.5t63 182t-57 177.5t-179 57h-155l-1 140h155z" />
    <glyph glyph-name="four" unicode="4" horiz-adv-x="1038" 
d="M638 441v615l-5 1l-17 -45l-377 -571h399zM815 1310v-869h180v-139h-180v-302h-177v302h-588v100l577 908h188z" />
    <glyph glyph-name="five" unicode="5" horiz-adv-x="1038" 
d="M890 1309v-157h-506l-43 -368q97 69 210 73q181 1 285 -118t104 -322.5t-107 -320.5t-307 -117q-174 0 -281.5 93.5t-103.5 264.5l2 6h160q0 -105 61 -165t167 -60t168 78.5t62 212.5t-63.5 213.5t-169 79.5t-153 -30t-70.5 -98l-146 16l75 719h656z" />
    <glyph glyph-name="six" unicode="6" horiz-adv-x="1038" 
d="M793 439h1q0 133 -66.5 215t-180.5 82q-177 0 -253 -135v-106q0 -178 74.5 -277.5t187.5 -99.5t175 90t62 231zM119 762h-1q0 251 138.5 408t350.5 157q143 0 243 -54l-38 -136q-97 51 -205 51q-141 0 -227 -111.5t-86 -294.5v-21q123 107 294.5 107t277 -120
t105.5 -317.5t-111.5 -324.5t-303 -127t-314.5 142t-123 391v250z" />
    <glyph glyph-name="seven" unicode="7" horiz-adv-x="1038" 
d="M956 1310v-139q-119 -142 -196 -260.5t-125.5 -242.5t-74 -241t-45.5 -286l-15 -141h-177l15 141q37 305 143.5 548.5t300.5 481.5h-713v139h887z" />
    <glyph glyph-name="eight" unicode="8" horiz-adv-x="1038" 
d="M337 181.5q68 -63.5 181.5 -63.5t182 64t68.5 173t-71 178.5t-181 69.5t-179 -69t-69 -179t68 -173.5zM364.5 802.5q58.5 -60.5 154 -60.5t154.5 60.5t59 159t-61 162.5t-154.5 64t-152 -62t-58.5 -162.5t58.5 -161zM233.5 1232.5q104.5 94.5 282.5 94.5t285.5 -95
t107.5 -266q0 -101 -56.5 -178t-156.5 -116q115 -41 182 -125.5t67 -193.5q0 -179 -116 -276.5t-311.5 -97.5t-310.5 97t-115 277q0 109 66 193.5t180 125.5q-99 39 -154 115.5t-55 178.5q0 172 104.5 266.5z" />
    <glyph glyph-name="nine" unicode="9" horiz-adv-x="1038" 
d="M460 118q133 0 209 99.5t76 289.5v60q-89 -130 -258 -130q-192 0 -302.5 117.5t-110.5 318.5t116.5 327.5t289.5 126.5q210 0 326 -129t116 -377v-312q0 -252 -126 -391t-337 -139q-156 0 -268 53l27 136q93 -50 242 -50zM319.5 1100.5q-67.5 -87.5 -67.5 -223.5
t63.5 -218.5t165.5 -82.5t167.5 40.5t96.5 109.5v113q0 172 -65.5 260.5t-193.5 88.5q-99 0 -166.5 -87.5z" />
    <glyph glyph-name="colon" unicode=":" horiz-adv-x="465" 
d="M290 164v-164h-159v164h159zM290 952v-164h-159v164h159z" />
    <glyph glyph-name="semicolon" unicode=";" horiz-adv-x="473" 
d="M302 130v-141l-122 -247h-95l56 255v133h161zM291 927v-164h-159v164h159z" />
    <glyph glyph-name="less" unicode="&#x3c;" horiz-adv-x="936" 
d="M798 722l-503 -210l-76 -16v-6l76 -17l503 -205v-181l-734 341v134l734 340v-180z" />
    <glyph glyph-name="equal" unicode="=" horiz-adv-x="1038" 
d="M887 555v-148h-750v148h750zM887 929v-148h-750v148h750z" />
    <glyph glyph-name="greater" unicode="&#x3e;" horiz-adv-x="965" 
d="M661 516l-539 211v175l771 -340v-134l-771 -341v176l539 215l76 15v5z" />
    <glyph glyph-name="question" unicode="?" horiz-adv-x="1142" 
d="M654 186v-187h-185v187h185zM771 981q0 95 -51 146.5t-141 51.5t-145.5 -45.5t-55.5 -130.5h-169l-3 6q-3 144 100.5 231.5t275 87.5t269 -90t97.5 -253q0 -108 -57.5 -201.5t-173.5 -206.5q-47 -47 -58 -83.5t-11 -124.5l-178 -1q1 130 22.5 180.5t113.5 133.5
q58 69 78 94t46.5 65.5t33.5 70t7 69.5z" />
    <glyph glyph-name="at" unicode="@" horiz-adv-x="1650" 
d="M761 67q122 0 194 101q-1 22 3 50l42 485q-55 23 -104 23l-1 -1q-111 0 -171 -97t-78 -300q-20 -261 115 -261zM1150 -64q-66 0 -113 37t-68 106q-89 -143 -261 -143q-113 0 -174.5 108.5t-45.5 284.5q20 233 123 374t252 141q90 0 146.5 -21t130.5 -74l-3 -4h5l-46 -527
q-14 -173 93 -173q110 0 177 100t74 262q14 350 -131 539t-445 189q-183 0 -322.5 -94t-218 -263.5t-86.5 -392.5q-16 -342 135 -537t434 -195q79 0 160 19t137 51l35 -96q-60 -37 -152 -58.5t-184 -21.5q-343 0 -529.5 223.5t-169.5 614.5q9 190 67 349t156 271.5
t237.5 175t305.5 62.5q226 0 385 -101t236.5 -289t67.5 -446q-8 -202 -108 -332q-49 -65 -126 -102t-174 -37z" />
    <glyph glyph-name="A" unicode="A" horiz-adv-x="1193" 
d="M995 0l-123 338h-549l-124 -338h-181l507 1310h152l498 -1310h-180zM598 1083l-220 -597h441l-216 597h-5z" />
    <glyph glyph-name="B" unicode="B" horiz-adv-x="1178" 
d="M672 615h-333v-476h307q122 0 189 59.5t67 173.5t-57.5 178.5t-172.5 64.5zM339 1171v-418h287q101 0 162.5 55t61.5 151q0 212 -260 212h-251zM646 0h-484v1310h428q210 0 323.5 -89.5t113.5 -264.5q0 -87 -55 -156t-148 -102q118 -26 186.5 -115.5t68.5 -212.5
q0 -179 -114.5 -274.5t-318.5 -95.5z" />
    <glyph glyph-name="C" unicode="C" horiz-adv-x="1167" 
d="M918 417h169l2 -5q4 -188 -130 -310.5t-354 -122.5t-360 156.5t-140 400.5v233q0 244 140 401t363 157t354.5 -117.5t127.5 -314.5l-2 -5h-170q0 140 -81.5 219t-228 79t-235.5 -118t-89 -299v-235q0 -183 89 -300.5t236 -117.5t228 78.5t81 220.5z" />
    <glyph glyph-name="D" unicode="D" horiz-adv-x="1214" 
d="M564 1171h-225v-1032h225q181 0 286.5 117.5t105.5 308.5v181q0 190 -106 307.5t-286 117.5zM564 0h-402v1310h402q258 0 413.5 -156.5t155.5 -409.5v-179q0 -253 -155.5 -409t-413.5 -156z" />
    <glyph glyph-name="E" unicode="E" horiz-adv-x="1077" 
d="M940 747v-139h-601v-469h692v-139h-869v1310h860v-139h-683v-424h601z" />
    <glyph glyph-name="F" unicode="F" horiz-adv-x="1074" 
d="M937 719v-139h-598v-580h-177v1310h867v-139h-690v-452h598z" />
    <glyph glyph-name="G" unicode="G" horiz-adv-x="1256" 
d="M1112 652v-479q-53 -81 -172 -137t-290 -56q-237 0 -389.5 150.5t-152.5 388.5v270q0 240 142.5 389.5t367.5 149.5t355.5 -109t132.5 -288l-2 -5h-169q-9 119 -89.5 190.5t-228 71.5t-239.5 -111.5t-92 -286.5v-272q0 -175 102 -287.5t262 -112.5q105 0 178 27.5
t106 69.5v298h-287v139h465z" />
    <glyph glyph-name="H" unicode="H" horiz-adv-x="1315" 
d="M1153 1310v-1310h-177v579h-637v-579h-177v1310h177v-592h637v592h177z" />
    <glyph glyph-name="I" unicode="I" horiz-adv-x="521" 
d="M349 1310v-1310h-178v1310h178z" />
    <glyph glyph-name="J" unicode="J" horiz-adv-x="1017" 
d="M689 361v947h178v-947q0 -175 -110 -278.5t-296.5 -103.5t-296 97t-105.5 277l2 6h170q0 -120 61 -180.5t167.5 -60.5t168 66t61.5 177z" />
    <glyph glyph-name="K" unicode="K" horiz-adv-x="1185" 
d="M339 591v-591h-177v1310h177v-579h137l469 579h196l3 -4l-509 -629l546 -672l-3 -5h-211l-475 591h-153z" />
    <glyph glyph-name="L" unicode="L" horiz-adv-x="995" 
d="M339 1310v-1171h620v-139h-797v1310h177z" />
    <glyph glyph-name="M" unicode="M" horiz-adv-x="1619" 
d="M162 1310h227l417 -1064h6l417 1064h227v-1310h-177v518l18 533l-5 1l-424 -1052h-118l-423 1049h-5l17 -531v-518h-177v1310z" />
    <glyph glyph-name="N" unicode="N" horiz-adv-x="1315" 
d="M1153 1310v-1310h-177l-631 1013l-6 -1v-1012h-177v1310h177l631 -1011l6 2v1009h177z" />
    <glyph glyph-name="O" unicode="O" horiz-adv-x="1256" 
d="M977 536v235q0 183 -98 296.5t-256 113.5t-251 -114t-93 -296v-235q0 -184 92.5 -298t251.5 -114t256.5 113.5t97.5 298.5zM1154 769v-233q0 -243 -149 -400t-382.5 -157t-377 157t-143.5 400v233q0 243 143.5 400.5t377 157.5t382.5 -157t149 -401z" />
    <glyph glyph-name="P" unicode="P" horiz-adv-x="1181" 
d="M339 1171v-507h324q130 0 197.5 69t67.5 183t-68 184.5t-197 70.5h-324zM663 526h-324v-526h-177v1310h501q208 0 325 -106.5t117 -287t-116.5 -285.5t-325.5 -105z" />
    <glyph glyph-name="Q" unicode="Q" horiz-adv-x="1256" 
d="M977 516v235q0 183 -98 296.5t-256 113.5t-251 -114t-93 -296v-235q0 -184 92.5 -298t251.5 -114t256.5 113.5t97.5 298.5zM1154 748v-232q0 -128 -44.5 -237t-126.5 -185l222 -210l-121 -116l-249 231q-102 -41 -217 -41q-229 0 -372.5 157t-143.5 400v233
q0 243 143.5 400.5t372.5 157.5q157 0 279.5 -72t189.5 -199t67 -287z" />
    <glyph glyph-name="R" unicode="R" horiz-adv-x="1221" 
d="M669 568h-330v-568h-177v1310h474q216 0 329 -95t113 -278q0 -204 -206 -294q203 -66 203 -309v-123q0 -134 60 -189v-22h-183q-55 49 -55 212v120q0 107 -62 171.5t-166 64.5zM339 1171v-464h279q150 0 216.5 56.5t66.5 175.5q0 232 -265 232h-297z" />
    <glyph glyph-name="S" unicode="S" horiz-adv-x="1149" 
d="M352.5 185q89.5 -67 228.5 -67t217 56.5t78 151.5t-69.5 155t-237.5 100q-441 106 -441 388q0 155 126 256.5t330.5 101.5t334.5 -115t125 -276l-2 -6h-169q0 118 -77 188t-212.5 70t-207 -58.5t-71.5 -151t76 -149t249 -100.5q423 -107 423 -399q0 -159 -129 -255
t-339 -96q-133 0 -245.5 46.5t-181.5 137.5t-66 207l2 5h169q0 -123 89.5 -190z" />
    <glyph glyph-name="T" unicode="T" horiz-adv-x="1080" 
d="M1049 1310v-139h-421v-1171h-177v1171h-420v139h1018z" />
    <glyph glyph-name="U" unicode="U" horiz-adv-x="1247" 
d="M942 1308h179v-888q0 -211 -136.5 -326t-362.5 -115t-358 115.5t-132 325.5v888h178v-888q0 -146 82.5 -224t228.5 -78t233.5 78t87.5 224v888z" />
    <glyph glyph-name="V" unicode="V" horiz-adv-x="1166" 
d="M212 1310l339 -984l30 -104h5l30 104l338 984h192l-487 -1310h-152l-487 1310h192z" />
    <glyph glyph-name="W" unicode="W" horiz-adv-x="1628" 
d="M225 1310l200 -856l24 -164l6 -1l35 165l240 856h157l242 -856l36 -169h5l26 169l195 856h178l-316 -1310h-159l-258 909l-23 118h-6l-22 -118l-263 -909h-158l-315 1310h176z" />
    <glyph glyph-name="X" unicode="X" horiz-adv-x="1166" 
d="M281 1310l304 -511l306 511h214l-416 -649l425 -661h-211l-314 520l-315 -520h-215l425 661l-416 649h213z" />
    <glyph glyph-name="Y" unicode="Y" horiz-adv-x="1125" 
d="M647 0h-176v473l-453 837h203l342 -666l342 666h202l-460 -849v-461z" />
    <glyph glyph-name="Z" unicode="Z" horiz-adv-x="1103" 
d="M1020 139v-139h-933v131l701 1040h-691v139h893v-126l-703 -1045h733z" />
    <glyph glyph-name="bracketleft" unicode="[" horiz-adv-x="698" 
d="M536 1498v-140h-169v-1499h169v-140h-346v1779h346z" />
    <glyph glyph-name="backslash" unicode="\" horiz-adv-x="761" 
d="M582 -125l-547 1423h168l547 -1423h-168z" />
    <glyph glyph-name="bracketright" unicode="]" horiz-adv-x="699" 
d="M162 1358v140h347v-1779h-347v140h170v1499h-170z" />
    <glyph glyph-name="asciicircum" unicode="^" horiz-adv-x="770" 
d="M366 1106l-146 -377h-165l269 654h121l268 -654h-163l-149 377l-15 63h-5z" />
    <glyph glyph-name="underscore" unicode="_" horiz-adv-x="838" 
d="M834 -15v-139h-830v139h830z" />
    <glyph glyph-name="grave" unicode="`" horiz-adv-x="577" 
d="M284 1450l157 -239h-142l-225 234l3 5h207z" />
    <glyph glyph-name="a" unicode="a" horiz-adv-x="1013" 
d="M406 -21q-152 0 -232 77t-80 216t112 218t308 79h192v96q0 86 -52.5 135.5t-142 49.5t-143.5 -42.5t-54 -105.5h-169l-2 5q-5 110 102.5 196.5t274 86.5t265.5 -85.5t99 -241.5v-469q0 -113 25 -196h-183q-19 93 -20 146q-52 -74 -131.5 -119.5t-168.5 -45.5zM273 268h-1
q0 -66 41 -103t127 -37t164.5 48.5t102.5 113.5v159h-198q-106 0 -171 -52.5t-65 -128.5z" />
    <glyph glyph-name="b" unicode="b" horiz-adv-x="1048" 
d="M532 846q-156 0 -228 -148v-422q73 -153 231 -153q123 0 185.5 86.5t62.5 238.5l-2 19q0 174 -63 276.5t-186 102.5zM960 467v-19q0 -214 -101.5 -341.5t-277.5 -127.5q-191 0 -286 148l-21 -129h-145v1404h177v-545q96 133 274 133t279 -142t101 -381z" />
    <glyph glyph-name="c" unicode="c" horiz-adv-x="978" 
d="M266 466q0 -157 58 -248q63 -100 201 -100q90 0 156 55t66 133h159l2 -6q5 -127 -111 -224t-272 -97q-208 0 -323 135t-115 352v38q0 216 115.5 351t322.5 135q170 0 279 -100t105 -249l-2 -5h-160q0 90 -63 152t-156.5 62t-153 -47t-84 -122t-24.5 -177v-38z" />
    <glyph glyph-name="d" unicode="d" horiz-adv-x="1048" 
d="M188 848q101 142 276 142t269 -124v536h178v-1404h-145l-21 120q-97 -139 -276 -139t-280 127.5t-101 341.5l-1 19q0 239 101 381zM266 467v-19q0 -153 61.5 -239t185.5 -86q150 0 222 137v454q-74 132 -220 132q-125 0 -187 -101.5t-62 -277.5z" />
    <glyph glyph-name="e" unicode="e" horiz-adv-x="975" 
d="M726 605q0 110 -57 177.5t-164 67.5q-88 0 -151.5 -74t-78.5 -189l2 -5h449v23zM532 -21q-203 0 -323.5 134t-120.5 353v40q0 205 122.5 344.5t294.5 139.5q194 0 296.5 -116.5t102.5 -319.5v-111h-632l-3 -4q3 -144 72.5 -232.5t190.5 -88.5q170 0 276 96l70 -115h-1
q-122 -120 -345 -120z" />
    <glyph glyph-name="f" unicode="f" horiz-adv-x="636" 
d="M380 0h-178v842h-153v132h153v123q0 156 80.5 241t227.5 85q51 0 132 -19l-22 -135q-38 9 -87 9q-153 0 -153 -181v-123h202v-132h-202v-842z" />
    <glyph glyph-name="g" unicode="g" horiz-adv-x="1048" 
d="M90 406v19q0 239 103 381t284.5 142t278.5 -145l22 127h141v-979q0 -188 -108.5 -288t-314.5 -100q-71 0 -152 19.5t-143 52.5l45 138q48 -27 115.5 -44t132.5 -17q129 0 188.5 58t59.5 181v110q-97 -124 -271.5 -124t-277.5 128.5t-103 340.5zM267 425v-19
q0 -151 63.5 -238t187.5 -87q152 0 225 140v448q-76 135 -223 135q-124 0 -188.5 -102.5t-64.5 -276.5z" />
    <glyph glyph-name="h" unicode="h" horiz-adv-x="1048" 
d="M306 1404v-561q105 149 286 149q160 0 245 -95t85 -287v-610h-178v612q0 121 -51 178.5t-155 57.5q-148 0 -232 -129v-719h-177v1404h177z" />
    <glyph glyph-name="i" unicode="i" horiz-adv-x="464" 
d="M320 974v-974h-177v974h177zM320 1404v-181h-177v181h177z" />
    <glyph glyph-name="j" unicode="j" horiz-adv-x="477" 
d="M156 930h179v-1054q0 -150 -76.5 -231.5t-215.5 -81.5q-50 0 -101 16l12 140q27 -11 74 -11q128 0 128 168v1054zM328 1360v-177h-178v177h178z" />
    <glyph glyph-name="k" unicode="k" horiz-adv-x="945" 
d="M307 449v-449h-177v1404h177v-814h113l267 384h212l-333 -443l381 -531h-209l-316 449h-115z" />
    <glyph glyph-name="l" unicode="l" horiz-adv-x="464" 
d="M320 1404v-1404h-177v1404h177z" />
    <glyph glyph-name="m" unicode="m" horiz-adv-x="1611" 
d="M306 0h-176v974h158l13 -128q100 146 296.5 146t266.5 -180q101 180 298 180q153 0 237 -103.5t84 -306.5v-582h-177v584q0 141 -48 202.5t-143.5 61.5t-152 -61.5t-66.5 -160.5v-626h-179v584q0 136 -49.5 200t-147.5 64q-154 0 -214 -127v-721z" />
    <glyph glyph-name="n" unicode="n" horiz-adv-x="1048" 
d="M129 974h158l13 -145q101 163 289 163q160 0 245 -93.5t85 -283.5v-615h-177v611q0 127 -50 182t-156 55q-76 0 -135 -36t-95 -102v-710h-177v974z" />
    <glyph glyph-name="o" unicode="o" horiz-adv-x="1048" 
d="M265 494v-20q0 -162 66.5 -259t191.5 -97t192 97.5t67 258.5v20q0 159 -67.5 257.5t-192 98.5t-191 -98.5t-66.5 -257.5zM87 474v20q0 220 118 358t318 138t318 -137.5t118 -358.5v-20q0 -222 -117.5 -358.5t-318 -136.5t-318.5 137t-118 358z" />
    <glyph glyph-name="p" unicode="p" horiz-adv-x="1048" 
d="M959 427v-19q0 -213 -101.5 -340.5t-278.5 -127.5t-273 120v-476h-177v1348h136l28 -126q97 144 280.5 144t284.5 -141.5t101 -381.5zM781 408v19q0 172 -66.5 275.5t-190.5 103.5q-147 0 -218 -129v-471q70 -128 220 -128q123 0 189 90t66 240z" />
    <glyph glyph-name="q" unicode="q" horiz-adv-x="1048" 
d="M266 427v-19q0 -153 62 -241.5t185 -88.5q136 0 212 123v492q-77 118 -205 118t-191 -104t-63 -280zM88 408v19q0 239 101 381t278.5 142t273.5 -132l26 114h135v-1348h-177v466q-94 -110 -264 -110t-271.5 127.5t-101.5 340.5z" />
    <glyph glyph-name="r" unicode="r" horiz-adv-x="632" 
d="M306 -1h-177v974h158l17 -142q89 161 242 161q36 0 68 -10l-24 -166l-91 6q-137 0 -193 -127v-696z" />
    <glyph glyph-name="s" unicode="s" horiz-adv-x="964" 
d="M639 157.5q54 37.5 54 99.5t-46 98.5t-167 64.5q-184 40 -270.5 106.5t-86.5 183.5t102 199.5t266 82.5t265.5 -86.5t96.5 -214.5l-2 -5h-169q0 67 -54.5 116t-143 49t-136.5 -39.5t-48 -100.5t42 -93t165 -58q188 -41 276 -109.5t88 -181.5q0 -130 -104.5 -210
t-280.5 -80t-284.5 92t-103.5 223l2 5h169q5 -90 67.5 -135.5t156.5 -45.5l-2 2q94 0 148 37.5z" />
    <glyph glyph-name="t" unicode="t" horiz-adv-x="637" 
d="M185 1207h179v-235h184v-132h-184v-591q0 -124 103 -124q32 0 66 12l23 -121q-48 -37 -135 -37q-112 0 -174 67t-62 203v591h-154v132h154v235z" />
    <glyph glyph-name="u" unicode="u" horiz-adv-x="1048" 
d="M463 -21q-164 0 -251 103.5t-87 315.5v574h177v-576q0 -153 44.5 -213t144.5 -60q183 0 250 147v702h177v-974h-159l-12 144q-96 -163 -284 -163z" />
    <glyph glyph-name="v" unicode="v" horiz-adv-x="927" 
d="M223 974l231 -687l15 -68h5l17 68l225 687h180l-358 -974h-134l-363 974h182z" />
    <glyph glyph-name="w" unicode="w" horiz-adv-x="1395" 
d="M217 974l161 -619l21 -118h5l25 118l195 619h142l195 -619l28 -132h6l26 132l153 619h176l-283 -974h-143l-188 593l-40 166l-6 -1l-38 -165l-186 -593h-143l-282 974h176z" />
    <glyph glyph-name="x" unicode="x" horiz-adv-x="927" 
d="M255 974l204 -359l207 359h207l-316 -482l325 -492h-203l-216 368l-216 -368h-206l325 492l-316 482h205z" />
    <glyph glyph-name="y" unicode="y" horiz-adv-x="927" 
d="M199 -437q-38 0 -105 14l18 140q66 -5 79 -5q52 0 87.5 44t64.5 118l42 102l-362 954h198l207 -613l31 -122h6l239 735h197l-409 -1123q-93 -244 -293 -244z" />
    <glyph glyph-name="z" unicode="z" horiz-adv-x="927" 
d="M859 139v-139h-774v124l526 709h-520v141h737v-121l-532 -714h563z" />
    <glyph glyph-name="braceleft" unicode="{" horiz-adv-x="834" 
d="M305 91v184q0 103 -47 158.5t-141 55.5v132q94 0 141 54.5t47 157.5v186q0 161 76 265.5t247 152.5l36 -105q-182 -59 -182 -313v-186q0 -197 -153 -279q153 -82 153 -279v-184q0 -124 43 -202.5t139 -109.5l-36 -107q-171 49 -247 154t-76 265z" />
    <glyph glyph-name="bar" unicode="|" horiz-adv-x="577" 
d="M360 1310v-1553h-143v1553h143z" />
    <glyph glyph-name="braceright" unicode="}" horiz-adv-x="835" 
d="M353 91v184q0 205 165 279q-165 73 -165 279v186q0 253 -183 313l37 105q169 -48 246 -153t77 -265v-186q0 -212 188 -212v-132q-188 0 -188 -214v-184q0 -160 -77 -265t-246 -154l-37 107q183 60 183 312z" />
    <glyph glyph-name="asciitilde" unicode="~" horiz-adv-x="1252" 
d="M864 401q-81 0 -146.5 29t-143.5 97q-105 86 -186 86q-60 0 -103 -47.5t-43 -114.5l-127 16q0 124 77.5 210t195.5 86q77 0 144 -30t147 -95q53 -47 95.5 -67.5t95.5 -20.5t97 51.5t44 120.5l127 -16q0 -125 -79 -215t-195 -90z" />
    <glyph glyph-name="uni00A0" unicode="&#xa0;" horiz-adv-x="520" 
 />
    <glyph glyph-name="exclamdown" unicode="&#xa1;" horiz-adv-x="449" 
d="M141 -360l12 940h151l12 -940h-175zM151 928.5q26 26.5 73.5 26.5t72.5 -26t25 -69t-25 -69.5t-72.5 -26.5t-73.5 27t-26 69t26 68.5z" />
    <glyph glyph-name="cent" unicode="&#xa2;" horiz-adv-x="1008" 
d="M526 94q91 0 157.5 54.5t73.5 134.5h157q-5 -113 -94 -203.5t-219 -113.5v-210h-166v211q-162 30 -251.5 157t-89.5 326v31q0 193 90.5 320.5t250.5 156.5v204h166v-201q136 -21 222 -115.5t91 -230.5h-157q-7 95 -71 155.5t-159 60.5q-128 0 -197 -91.5t-69 -264.5v-31
l-1 1q0 -169 69.5 -260t196.5 -91z" />
    <glyph glyph-name="sterling" unicode="&#xa3;" horiz-adv-x="1071" 
d="M86 -1v141h69q36 8 58.5 67t24.5 147v7l-8 199h-148v141h144l-8 234q0 179 109.5 286t285.5 107t276 -94.5t100 -255.5h-172q0 98 -57 153t-154.5 55t-155.5 -69t-58 -182l8 -234h287v-141l-283 -1l7 -198q0 -137 -55 -221h659l-1 -141h-928z" />
    <glyph glyph-name="currency" unicode="&#xa4;" horiz-adv-x="1314" 
d="M332 748q-52 -95 -52 -205.5t51.5 -205.5t140 -151t190 -55.5t189.5 56.5q89 55 139.5 150t50.5 206t-50.5 205.5t-139.5 149t-190.5 54.5t-189.5 -54t-139 -149v-1zM662 -22q-186 0 -330 117l-120 -122l-117 121l125 127q-94 142 -94 325t101 330l-132 136l117 122
l132 -135q143 108 317.5 108t319.5 -109l134 137l119 -123l-136 -139q99 -145 99 -325.5t-92 -322.5l129 -130l-119 -122l-122 124q-145 -119 -331 -119z" />
    <glyph glyph-name="yen" unicode="&#xa5;" horiz-adv-x="1116" 
d="M982 662v-112h-346v-149h346v-111h-346v-290h-173v290h-341v111h341v149h-341v112h282l-376 648h198l327 -606l327 606h197l-376 -648h281z" />
    <glyph glyph-name="brokenbar" unicode="&#xa6;" horiz-adv-x="442" 
d="M300 -270h-168v712h168v-712zM300 1283v-682h-168v682h168z" />
    <glyph glyph-name="section" unicode="&#xa7;" horiz-adv-x="1130" 
d="M1033 337q0 -170 -168 -246q127 -90 127 -257q0 -152 -117 -241t-330.5 -89t-335.5 102q-125 102 -125 285l167 2q0 -118 80.5 -185.5t212.5 -67.5t207 52.5t75 136.5t-63.5 130.5t-252.5 102.5q-163 43 -249.5 92.5t-129 120.5t-42.5 170q0 167 164 248
q-123 92 -123 257q0 150 119.5 239.5t325.5 89.5t322 -101.5t116 -286.5h-167q0 114 -75.5 183t-202.5 69t-199.5 -51t-72.5 -141q0 -61 25 -97t76.5 -61t203.5 -71t202 -68q152 -64 203 -177q27 -62 27 -140zM863 336h2q0 55 -25.5 91.5t-94 70.5t-201.5 74q-82 22 -150 46
q-70 -17 -104.5 -61.5t-34.5 -108t24 -99.5t77.5 -62.5t203.5 -72.5t157 -49q70 18 108 63t38 108z" />
    <glyph glyph-name="dieresis" unicode="&#xa8;" horiz-adv-x="770" 
d="M577 1264q-48 0 -73 26t-25 69t25 69.5t73 26.5t73.5 -27t25.5 -69.5t-25.5 -68.5t-73.5 -26zM190 1266q-48 0 -73 26t-25 68.5t25 69t73 26.5t73.5 -26.5t25.5 -69t-25.5 -68.5t-73.5 -26z" />
    <glyph glyph-name="copyright" unicode="&#xa9;" horiz-adv-x="1444" 
d="M869 534h131l2 -5q3 -135 -74.5 -206t-221.5 -71t-229 95t-85 253v107q0 158 85 253t228.5 95t222 -71t75.5 -205l-2 -5h-132q0 85 -40 124.5t-123.5 39.5t-130 -62.5t-46.5 -167.5v-108q0 -107 46.5 -169t130.5 -62t123.5 39t39.5 126zM718 1217q-146 0 -267.5 -74
t-192 -203.5t-70.5 -286t70.5 -286.5t192 -204.5t267.5 -74.5t267.5 74.5t192 204.5t70.5 286.5t-70.5 286t-192 203.5t-267.5 74zM718 -21q-131 0 -249.5 52.5t-204 142t-135.5 215t-50 265.5q0 187 85 341.5t231.5 242.5t322.5 88t322 -88t231 -242.5t85 -341.5
t-85 -342.5t-231.5 -244t-321.5 -88.5z" />
    <glyph glyph-name="ordfeminine" unicode="&#xaa;" horiz-adv-x="824" 
d="M542 767q-69 -77 -180 -77t-170 55t-59 149q0 208 305 208h98v47q0 122 -112 122q-63 0 -98 -24.5t-35 -70.5l-145 11q0 94 77 152t200 58t191 -65t68 -185v-284q0 -88 24 -160h-148q-10 28 -16 64zM393 813q37 0 76.5 17.5t66.5 44.5v127h-101q-74 0 -115 -28t-41 -75
l1 -1q0 -85 113 -85z" />
    <glyph glyph-name="guillemotleft" unicode="&#xab;" horiz-adv-x="865" 
d="M475 867l-233 -359l233 -357h-127l-266 349v17l266 350h127zM805 867l-233 -359l233 -357h-127l-266 349v17l266 350h127z" />
    <glyph glyph-name="logicalnot" unicode="&#xac;" horiz-adv-x="1021" 
d="M862 758v-383h-167v238h-581v145h748z" />
    <glyph glyph-name="uni00AD" unicode="&#xad;" horiz-adv-x="509" 
d="M470 677v-139h-441v139h441z" />
    <glyph glyph-name="registered" unicode="&#xae;" horiz-adv-x="1449" 
d="M588 586v-305h-127v764h248q140 0 215 -59t75 -170t-115 -170q110 -46 111 -184v-55q0 -80 15 -111v-15h-131q-10 26 -12.5 119t-2.5 95q-13 87 -118 91h-158zM588 932v-231h140q66 2 105 32t39 79q0 66 -35 93t-125 27h-124zM185 654q0 -155 71.5 -286.5t194.5 -207
t268 -75.5t269 75.5t195 207t71 285.5t-70.5 283.5t-194 205t-269.5 75.5t-269 -74t-195 -206v1q-71 -129 -71 -284zM163 319q-82 157 -82 338t84 336t233 245q150 89 322 89t321 -89.5t233 -244.5t84 -337t-81.5 -335.5t-229.5 -247.5t-325.5 -94t-326.5 92t-232 249v-1z
" />
    <glyph glyph-name="macron" unicode="&#xaf;" horiz-adv-x="844" 
d="M751 1442v-129h-643v129h643z" />
    <glyph glyph-name="degree" unicode="&#xb0;" horiz-adv-x="689" 
d="M263.5 1275q-33.5 -35 -33.5 -84t33.5 -82.5t83 -33.5t82.5 32.5t33 84t-33 85t-82.5 33.5t-83 -35zM506.5 1027.5q-65.5 -67.5 -160 -67.5t-162 67.5t-67.5 162.5t67 164.5t161.5 69.5t160.5 -69t66 -164.5t-65.5 -163z" />
    <glyph glyph-name="plusminus" unicode="&#xb1;" horiz-adv-x="985" 
d="M873 137v-137h-752v137h752zM584 1140v-371h328v-136h-328v-373h-150v373h-347v136h347v371h150z" />
    <glyph glyph-name="acute" unicode="&#xb4;" horiz-adv-x="578" 
d="M111 1240l173 265h202l-241 -265h-134z" />
    <glyph glyph-name="mu" unicode="&#xb5;" horiz-adv-x="1044" 
d="M139 932h166v-569q1 -149 47.5 -218.5t149.5 -69.5q179 0 236 137v720h167v-974h-150l-8 104q-83 -122 -237 -122q-130 0 -205 66v-422h-166v1348z" />
    <glyph glyph-name="paragraph" unicode="&#xb6;" horiz-adv-x="901" 
d="M749 0h-168v468h-75q-207 0 -326.5 113.5t-119.5 307t120 307.5t327 114h242v-1310z" />
    <glyph glyph-name="periodcentered" unicode="&#xb7;" horiz-adv-x="481" 
d="M235 619q-49 0 -76 27.5t-27 72t27 72.5t76.5 28t76.5 -28t27 -72.5t-27.5 -72t-76.5 -27.5z" />
    <glyph glyph-name="cedilla" unicode="&#xb8;" horiz-adv-x="456" 
d="M383 -247q0 -88 -72 -138.5t-200 -50.5l-7 96q72 0 111 23.5t39 65.5t-30 60.5t-116 26.5l29 120l120 -2l-11 -46q137 -24 137 -155z" />
    <glyph glyph-name="ordmasculine" unicode="&#xba;" horiz-adv-x="838" 
d="M418 815q76 0 119 52t43 143v70q0 89 -43.5 140t-118 51t-117.5 -49.5t-44 -136.5l-2 -77q0 -90 43.5 -141.5t119.5 -51.5zM110 1013v67q0 143 84.5 230t224.5 87t223.5 -86.5t83.5 -236.5v-66q0 -144 -84 -231t-223.5 -87t-224 87.5t-84.5 235.5z" />
    <glyph glyph-name="guillemotright" unicode="&#xbb;" horiz-adv-x="864" 
d="M83 869h128l265 -350v-17l-265 -350h-128l232 358zM432 869h128l265 -350v-17l-265 -350h-128l232 358z" />
    <glyph glyph-name="onequarter" unicode="&#xbc;" horiz-adv-x="1350" 
d="M1033 1142l-640 -1024l-94 59l640 1025z" />
    <glyph glyph-name="onehalf" unicode="&#xbd;" horiz-adv-x="1430" 
d="M994 1142l-640 -1024l-94 59l640 1025z" />
    <glyph glyph-name="threequarters" unicode="&#xbe;" horiz-adv-x="1434" 
d="M1147 1142l-640 -1024l-94 59l640 1025z" />
    <glyph glyph-name="questiondown" unicode="&#xbf;" horiz-adv-x="872" 
d="M280 -189.5q52 -51.5 146.5 -51.5t150.5 50.5t56 132.5h166q-2 -146 -103 -237t-271.5 -91t-267 89.5t-96.5 248.5t144 318l98 102q60 70 60 202l166 -1q-1 -95 -19 -152t-62 -111q-5 -6 -72.5 -78t-104 -128.5t-41.5 -109.5l-2 -34q0 -98 52 -149.5zM365.5 926
q26.5 26 73.5 26t72 -26t25 -68t-25 -68.5t-72.5 -26.5t-73.5 26.5t-26 68.5t26.5 68z" />
    <glyph glyph-name="Agrave" unicode="&#xc0;" horiz-adv-x="1202" 
d="M992 0l-123 338h-549l-124 -338h-181l507 1310h152l498 -1310h-180zM595 1083l-220 -597h441l-216 597h-5zM585 1760l157 -239h-142l-225 234l3 5h207z" />
    <glyph glyph-name="Aacute" unicode="&#xc1;" horiz-adv-x="1202" 
d="M992 0l-123 338h-549l-124 -338h-181l507 1310h152l498 -1310h-180zM595 1083l-220 -597h441l-216 597h-5zM555 1550l173 265h202l-241 -265h-134z" />
    <glyph glyph-name="Acircumflex" unicode="&#xc2;" horiz-adv-x="1202" 
d="M992 0l-123 338h-549l-124 -338h-181l507 1310h152l498 -1310h-180zM595 1083l-220 -597h441l-216 597h-5zM896 1562h-138l-135 153l-134 -153h-138v11l222 245h100l223 -247v-9z" />
    <glyph glyph-name="Atilde" unicode="&#xc3;" horiz-adv-x="1202" 
d="M991 0l-123 338h-549l-124 -338h-181l507 1310h152l498 -1310h-180zM594 1083l-220 -597h441l-216 597h-5zM748 1570q-38 0 -64.5 9t-69.5 36.5t-62 34t-51.5 6.5t-58.5 -29t-26 -72l-111 6q0 97 54.5 160t137.5 63q32 0 57 -9t68.5 -35t66.5 -34.5t56 -8.5t59 30t26 72
l111 -11q0 -96 -55 -157t-138 -61z" />
    <glyph glyph-name="Adieresis" unicode="&#xc4;" horiz-adv-x="1202" 
d="M992 0l-123 338h-549l-124 -338h-181l507 1310h152l498 -1310h-180zM595 1083l-220 -597h441l-216 597h-5zM824 1574q-48 0 -73 26t-25 69t25 69.5t73 26.5t73.5 -27t25.5 -69.5t-25.5 -68.5t-73.5 -26zM437 1576q-48 0 -73 26t-25 68.5t25 69t73 26.5t73.5 -26.5
t25.5 -69t-25.5 -68.5t-73.5 -26z" />
    <glyph glyph-name="Aring" unicode="&#xc5;" horiz-adv-x="1202" 
d="M992 0l-123 338h-549l-124 -338h-181l507 1310h152l498 -1310h-180zM595 1083l-220 -597h441l-216 597h-5zM710 1784.5q-30 30.5 -74.5 30.5t-74.5 -31t-30 -75t30 -74t74 -30t74.5 30t30.5 74.5t-30 75zM497.5 1841.5q55.5 54.5 138 54.5t138 -54.5t55.5 -133
t-55.5 -131t-138.5 -52.5t-138 52.5t-55 131t55.5 133z" />
    <glyph glyph-name="AE" unicode="&#xc6;" horiz-adv-x="1723" 
d="M1691 136v-136h-795l-13 318h-508l-184 -318h-204l792 1310h856v-136h-622l18 -424h531v-136h-525l20 -478h634zM849 1134l-383 -660h411z" />
    <glyph glyph-name="Ccedilla" unicode="&#xc7;" horiz-adv-x="1200" 
d="M836 -256q0 -88 -72 -138.5t-200 -50.5l-7 96q72 0 111 23.5t39 65.5t-30 60.5t-116 26.5l29 120l120 -2l-11 -46q137 -24 137 -155zM906 417h169l2 -5q4 -188 -130 -310.5t-354 -122.5t-360 156.5t-140 400.5v233q0 244 140 401t363 157t354.5 -117.5t127.5 -314.5
l-2 -5h-170q0 140 -81.5 219t-228 79t-235.5 -118t-89 -299v-235q0 -183 89 -300.5t236 -117.5t228 78.5t81 220.5z" />
    <glyph glyph-name="Egrave" unicode="&#xc8;" horiz-adv-x="1048" 
d="M925 747v-139h-601v-469h692v-139h-869v1310h860v-139h-683v-424h601zM520 1772l157 -239h-142l-225 234l3 5h207z" />
    <glyph glyph-name="Eacute" unicode="&#xc9;" horiz-adv-x="1048" 
d="M925 747v-139h-601v-469h692v-139h-869v1310h860v-139h-683v-424h601zM490 1562l173 265h202l-241 -265h-134z" />
    <glyph glyph-name="Ecircumflex" unicode="&#xca;" horiz-adv-x="1048" 
d="M925 747v-139h-601v-469h692v-139h-869v1310h860v-139h-683v-424h601zM830 1574h-138l-135 153l-134 -153h-138v11l222 245h100l223 -247v-9z" />
    <glyph glyph-name="Edieresis" unicode="&#xcb;" horiz-adv-x="1048" 
d="M925 747v-139h-601v-469h692v-139h-869v1310h860v-139h-683v-424h601zM758 1586q-48 0 -73 26t-25 69t25 69.5t73 26.5t73.5 -27t25.5 -69.5t-25.5 -68.5t-73.5 -26zM371 1588q-48 0 -73 26t-25 68.5t25 69t73 26.5t73.5 -26.5t25.5 -69t-25.5 -68.5t-73.5 -26z" />
    <glyph glyph-name="Igrave" unicode="&#xcc;" horiz-adv-x="501" 
d="M353 1310v-1310h-178v1310h178zM199 1772l157 -239h-142l-225 234l3 5h207z" />
    <glyph glyph-name="Iacute" unicode="&#xcd;" horiz-adv-x="501" 
d="M333 1310v-1310h-178v1310h178zM148 1562l173 265h202l-241 -265h-134z" />
    <glyph glyph-name="Icircumflex" unicode="&#xce;" horiz-adv-x="501" 
d="M351 1310v-1310h-178v1310h178zM507 1574h-138l-135 153l-134 -153h-138v11l222 245h100l223 -247v-9z" />
    <glyph glyph-name="Idieresis" unicode="&#xcf;" horiz-adv-x="501" 
d="M353 1310v-1310h-178v1310h178zM437 1586q-48 0 -73 26t-25 69t25 69.5t73 26.5t73.5 -27t25.5 -69.5t-25.5 -68.5t-73.5 -26zM50 1588q-48 0 -73 26t-25 68.5t25 69t73 26.5t73.5 -26.5t25.5 -69t-25.5 -68.5t-73.5 -26z" />
    <glyph glyph-name="Eth" unicode="&#xd0;" horiz-adv-x="1236" 
d="M607 735v-137h-254v-458h181q201 0 311.5 123t111.5 348v84q0 224 -104.5 347.5t-297.5 125.5h-202v-433h254zM180 0v599h-146v136h146v575h370q172 0 303 -75t202 -214t72 -322v-83q0 -187 -71 -326t-205 -213q-130 -75 -309 -77h-362z" />
    <glyph glyph-name="Ntilde" unicode="&#xd1;" horiz-adv-x="1314" 
d="M1135 1310v-1310h-177l-631 1013l-6 -1v-1012h-177v1310h177l631 -1011l6 2v1009h177zM787 1570q-38 0 -64.5 9t-69.5 36.5t-62 34t-51.5 6.5t-58.5 -29t-26 -72l-111 6q0 97 54.5 160t137.5 63q32 0 57 -9t68.5 -35t66.5 -34.5t56 -8.5t59 30t26 72l111 -11
q0 -96 -55 -157t-138 -61z" />
    <glyph glyph-name="Ograve" unicode="&#xd2;" horiz-adv-x="1267" 
d="M966 536v235q0 183 -98 296.5t-256 113.5t-251 -114t-93 -296v-235q0 -184 92.5 -298t251.5 -114t256.5 113.5t97.5 298.5zM1143 769v-233q0 -243 -149 -400t-382.5 -157t-377 157t-143.5 400v233q0 243 143.5 400.5t377 157.5t382.5 -157t149 -401zM611 1762l157 -239
h-142l-225 234l3 5h207z" />
    <glyph glyph-name="Oacute" unicode="&#xd3;" horiz-adv-x="1267" 
d="M965 536v235q0 183 -98 296.5t-256 113.5t-251 -114t-93 -296v-235q0 -184 92.5 -298t251.5 -114t256.5 113.5t97.5 298.5zM1142 769v-233q0 -243 -149 -400t-382.5 -157t-377 157t-143.5 400v233q0 243 143.5 400.5t377 157.5t382.5 -157t149 -401zM580 1552l173 265
h202l-241 -265h-134z" />
    <glyph glyph-name="Ocircumflex" unicode="&#xd4;" horiz-adv-x="1267" 
d="M965 536v235q0 183 -98 296.5t-256 113.5t-251 -114t-93 -296v-235q0 -184 92.5 -298t251.5 -114t256.5 113.5t97.5 298.5zM1142 769v-233q0 -243 -149 -400t-382.5 -157t-377 157t-143.5 400v233q0 243 143.5 400.5t377 157.5t382.5 -157t149 -401zM920 1564h-138
l-135 153l-134 -153h-138v11l222 245h100l223 -247v-9z" />
    <glyph glyph-name="Otilde" unicode="&#xd5;" horiz-adv-x="1267" 
d="M964 536v235q0 183 -98 296.5t-256 113.5t-251 -114t-93 -296v-235q0 -184 92.5 -298t251.5 -114t256.5 113.5t97.5 298.5zM1141 769v-233q0 -243 -149 -400t-382.5 -157t-377 157t-143.5 400v233q0 243 143.5 400.5t377 157.5t382.5 -157t149 -401zM772 1572
q-38 0 -64.5 9t-69.5 36.5t-62 34t-51.5 6.5t-58.5 -29t-26 -72l-111 6q0 97 54.5 160t137.5 63q32 0 57 -9t68.5 -35t66.5 -34.5t56 -8.5t59 30t26 72l111 -11q0 -96 -55 -157t-138 -61z" />
    <glyph glyph-name="Odieresis" unicode="&#xd6;" horiz-adv-x="1267" 
d="M965 536v235q0 183 -98 296.5t-256 113.5t-251 -114t-93 -296v-235q0 -184 92.5 -298t251.5 -114t256.5 113.5t97.5 298.5zM1142 769v-233q0 -243 -149 -400t-382.5 -157t-377 157t-143.5 400v233q0 243 143.5 400.5t377 157.5t382.5 -157t149 -401zM848 1576
q-48 0 -73 26t-25 69t25 69.5t73 26.5t73.5 -27t25.5 -69.5t-25.5 -68.5t-73.5 -26zM461 1578q-48 0 -73 26t-25 68.5t25 69t73 26.5t73.5 -26.5t25.5 -69t-25.5 -68.5t-73.5 -26z" />
    <glyph glyph-name="multiply" unicode="&#xd7;" horiz-adv-x="986" 
d="M193 225l-114 113l295 301l-295 301l114 113l293 -300l294 300l114 -113l-295 -301l295 -301l-114 -113l-294 299z" />
    <glyph glyph-name="Oslash" unicode="&#xd8;" horiz-adv-x="1267" 
d="M911 48q-120 -75 -276 -75t-273 74l-88 -140h-127l129 208q-171 173 -171 497v74q0 190 65.5 334.5t186.5 221.5q118 77 275 77q193 0 327 -112l92 148h127l-143 -229q124 -170 125 -433l-1 -88q0 -194 -64 -337t-184 -220zM988 688q0 164 -51 282l-494 -793
q82 -58 191 -58q168 0 260 121.5t94 350.5v97zM278 604q0 -219 88 -347l508 814q-93 100 -241 100q-165 0 -258.5 -124.5t-96.5 -346.5v-96z" />
    <glyph glyph-name="Ugrave" unicode="&#xd9;" horiz-adv-x="1195" 
d="M929 1308h179v-888q0 -211 -136.5 -326t-362.5 -115t-358 115.5t-132 325.5v888h178v-888q0 -146 82.5 -224t228.5 -78t233.5 78t87.5 224v888zM570 1760l157 -239h-142l-225 234l3 5h207z" />
    <glyph glyph-name="Uacute" unicode="&#xda;" horiz-adv-x="1195" 
d="M928 1308h179v-888q0 -211 -136.5 -326t-362.5 -115t-358 115.5t-132 325.5v888h178v-888q0 -146 82.5 -224t228.5 -78t233.5 78t87.5 224v888zM539 1550l173 265h202l-241 -265h-134z" />
    <glyph glyph-name="Ucircumflex" unicode="&#xdb;" horiz-adv-x="1195" 
d="M928 1308h179v-888q0 -211 -136.5 -326t-362.5 -115t-358 115.5t-132 325.5v888h178v-888q0 -146 82.5 -224t228.5 -78t233.5 78t87.5 224v888zM879 1562h-138l-135 153l-134 -153h-138v11l222 245h100l223 -247v-9z" />
    <glyph glyph-name="Udieresis" unicode="&#xdc;" horiz-adv-x="1195" 
d="M928 1308h179v-888q0 -211 -136.5 -326t-362.5 -115t-358 115.5t-132 325.5v888h178v-888q0 -146 82.5 -224t228.5 -78t233.5 78t87.5 224v888zM807 1574q-48 0 -73 26t-25 69t25 69.5t73 26.5t73.5 -27t25.5 -69.5t-25.5 -68.5t-73.5 -26zM420 1576q-48 0 -73 26
t-25 68.5t25 69t73 26.5t73.5 -26.5t25.5 -69t-25.5 -68.5t-73.5 -26z" />
    <glyph glyph-name="Yacute" unicode="&#xdd;" horiz-adv-x="1107" 
d="M645 0h-176v473l-453 837h203l342 -666l342 666h202l-460 -849v-461zM502 1550l173 265h202l-241 -265h-134z" />
    <glyph glyph-name="Thorn" unicode="&#xde;" horiz-adv-x="1089" 
d="M317 910v-491h249q127 0 199.5 66.5t72.5 177.5t-72 178.5t-194 68.5h-255zM149 1310h168v-263h251q132 0 231 -47t152.5 -134.5t53.5 -201.5q0 -176 -118.5 -279t-323.5 -103h-246v-282h-168v1310z" />
    <glyph glyph-name="germandbls" unicode="&#xdf;" horiz-adv-x="1096" 
d="M126 -4v1000q0 189 93 294t258 105t253.5 -80t88.5 -225q0 -51 -18 -107.5t-39 -96.5q-58 -107 -58 -153t33 -88t118.5 -107.5t124 -126t38.5 -129.5q0 -144 -91 -223.5t-255 -79.5q-73 0 -154.5 20t-116.5 46l38 139q45 -29 106 -48.5t108 -19.5q96 0 147 42t51 116
q0 47 -33 90.5t-119 109.5t-124.5 128t-38.5 135q0 67 62.5 173t62.5 169q0 85 -46.5 133t-126.5 48q-196 0 -196 -264l1 -1000h-167z" />
    <glyph glyph-name="agrave" unicode="&#xe0;" horiz-adv-x="1003" 
d="M396 -21q-152 0 -232 77t-80 216t112 218t308 79h192v96q0 86 -52.5 135.5t-142 49.5t-143.5 -42.5t-54 -105.5h-169l-2 5q-5 110 102.5 196.5t274 86.5t265.5 -85.5t99 -241.5v-469q0 -113 25 -196h-183q-19 93 -20 146q-52 -74 -131.5 -119.5t-168.5 -45.5zM263 268h-1
q0 -66 41 -103t127 -37t164.5 48.5t102.5 113.5v159h-198q-106 0 -171 -52.5t-65 -128.5zM487 1450l157 -239h-142l-225 234l3 5h207z" />
    <glyph glyph-name="aacute" unicode="&#xe1;" horiz-adv-x="1003" 
d="M396 -21q-152 0 -232 77t-80 216t112 218t308 79h192v96q0 86 -52.5 135.5t-142 49.5t-143.5 -42.5t-54 -105.5h-169l-2 5q-5 110 102.5 196.5t274 86.5t265.5 -85.5t99 -241.5v-469q0 -113 25 -196h-183q-19 93 -20 146q-52 -74 -131.5 -119.5t-168.5 -45.5zM263 268h-1
q0 -66 41 -103t127 -37t164.5 48.5t102.5 113.5v159h-198q-106 0 -171 -52.5t-65 -128.5zM457 1240l173 265h202l-241 -265h-134z" />
    <glyph glyph-name="acircumflex" unicode="&#xe2;" horiz-adv-x="1003" 
d="M396 -21q-152 0 -232 77t-80 216t112 218t308 79h192v96q0 86 -52.5 135.5t-142 49.5t-143.5 -42.5t-54 -105.5h-169l-2 5q-5 110 102.5 196.5t274 86.5t265.5 -85.5t99 -241.5v-469q0 -113 25 -196h-183q-19 93 -20 146q-52 -74 -131.5 -119.5t-168.5 -45.5zM263 268h-1
q0 -66 41 -103t127 -37t164.5 48.5t102.5 113.5v159h-198q-106 0 -171 -52.5t-65 -128.5zM797 1252h-138l-135 153l-134 -153h-138v11l222 245h100l223 -247v-9z" />
    <glyph glyph-name="atilde" unicode="&#xe3;" horiz-adv-x="1003" 
d="M395 -21q-152 0 -232 77t-80 216t112 218t308 79h192v96q0 86 -52.5 135.5t-142 49.5t-143.5 -42.5t-54 -105.5h-169l-2 5q-5 110 102.5 196.5t274 86.5t265.5 -85.5t99 -241.5v-469q0 -113 25 -196h-183q-19 93 -20 146q-52 -74 -131.5 -119.5t-168.5 -45.5zM262 268h-1
q0 -66 41 -103t127 -37t164.5 48.5t102.5 113.5v159h-198q-106 0 -171 -52.5t-65 -128.5zM649 1260q-38 0 -64.5 9t-69.5 36.5t-62 34t-51.5 6.5t-58.5 -29t-26 -72l-111 6q0 97 54.5 160t137.5 63q32 0 57 -9t68.5 -35t66.5 -34.5t56 -8.5t59 30t26 72l111 -11
q0 -96 -55 -157t-138 -61z" />
    <glyph glyph-name="adieresis" unicode="&#xe4;" horiz-adv-x="1003" 
d="M396 -21q-152 0 -232 77t-80 216t112 218t308 79h192v96q0 86 -52.5 135.5t-142 49.5t-143.5 -42.5t-54 -105.5h-169l-2 5q-5 110 102.5 196.5t274 86.5t265.5 -85.5t99 -241.5v-469q0 -113 25 -196h-183q-19 93 -20 146q-52 -74 -131.5 -119.5t-168.5 -45.5zM263 268h-1
q0 -66 41 -103t127 -37t164.5 48.5t102.5 113.5v159h-198q-106 0 -171 -52.5t-65 -128.5zM725 1264q-48 0 -73 26t-25 69t25 69.5t73 26.5t73.5 -27t25.5 -69.5t-25.5 -68.5t-73.5 -26zM338 1266q-48 0 -73 26t-25 68.5t25 69t73 26.5t73.5 -26.5t25.5 -69t-25.5 -68.5
t-73.5 -26z" />
    <glyph glyph-name="aring" unicode="&#xe5;" horiz-adv-x="1003" 
d="M395 -21q-152 0 -232 77t-80 216t112 218t308 79h192v96q0 86 -52.5 135.5t-142 49.5t-143.5 -42.5t-54 -105.5h-169l-2 5q-5 110 102.5 196.5t274 86.5t265.5 -85.5t99 -241.5v-469q0 -113 25 -196h-183q-19 93 -20 146q-52 -74 -131.5 -119.5t-168.5 -45.5zM262 268h-1
q0 -66 41 -103t127 -37t164.5 48.5t102.5 113.5v159h-198q-106 0 -171 -52.5t-65 -128.5zM611 1474.5q-30 30.5 -74.5 30.5t-74.5 -31t-30 -75t30 -74t74 -30t74.5 30t30.5 74.5t-30 75zM398.5 1531.5q55.5 54.5 138 54.5t138 -54.5t55.5 -133t-55.5 -131t-138.5 -52.5
t-138 52.5t-55 131t55.5 133z" />
    <glyph glyph-name="ae" unicode="&#xe6;" horiz-adv-x="1556" 
d="M1328 575v29q0 120 -60.5 185.5t-167 65.5t-174 -76t-83.5 -204h485zM1478 89v1v-1zM674 447h-205q-105 -2 -168 -51t-63 -122.5t48 -114.5t136 -41q64 0 135 33t117 82v214zM1136 -19q-235 0 -357 162q-59 -77 -160.5 -119.5t-228.5 -42.5q-151 0 -235.5 77.5
t-84.5 217.5t103 217.5t300 77.5h201v76q0 98 -49.5 152.5t-143.5 54.5t-157 -49t-63 -123l-166 17q0 129 108.5 210.5t278.5 81.5q216 0 306 -151q119 150 308.5 150t293.5 -115t104 -326v-104h-655q6 -158 83.5 -244t212 -86t243.5 68l42 28l58 -121q-140 -109 -342 -109z
" />
    <glyph glyph-name="ccedilla" unicode="&#xe7;" horiz-adv-x="965" 
d="M693 -256q0 -88 -72 -138.5t-200 -50.5l-7 96q72 0 111 23.5t39 65.5t-30 60.5t-116 26.5l29 120l120 -2l-11 -46q137 -24 137 -155zM257 466q0 -157 58 -248q63 -100 201 -100q90 0 156 55t66 133h159l2 -6q5 -127 -111 -224t-272 -97q-208 0 -323 135t-115 352v38
q0 216 115.5 351t322.5 135q170 0 279 -100t105 -249l-2 -5h-160q0 90 -63 152t-156.5 62t-153 -47t-84 -122t-24.5 -177v-38z" />
    <glyph glyph-name="egrave" unicode="&#xe8;" horiz-adv-x="977" 
d="M717 605q0 110 -57 177.5t-164 67.5q-88 0 -151.5 -74t-78.5 -189l2 -5h449v23zM523 -21q-203 0 -323.5 134t-120.5 353v40q0 205 122.5 344.5t294.5 139.5q194 0 296.5 -116.5t102.5 -319.5v-111h-632l-3 -4q3 -144 72.5 -232.5t190.5 -88.5q170 0 276 96l70 -115h-1
q-122 -120 -345 -120zM472 1450l157 -239h-142l-225 234l3 5h207z" />
    <glyph glyph-name="eacute" unicode="&#xe9;" horiz-adv-x="977" 
d="M717 605q0 110 -57 177.5t-164 67.5q-88 0 -151.5 -74t-78.5 -189l2 -5h449v23zM523 -21q-203 0 -323.5 134t-120.5 353v40q0 205 122.5 344.5t294.5 139.5q194 0 296.5 -116.5t102.5 -319.5v-111h-632l-3 -4q3 -144 72.5 -232.5t190.5 -88.5q170 0 276 96l70 -115h-1
q-122 -120 -345 -120zM442 1240l173 265h202l-241 -265h-134z" />
    <glyph glyph-name="ecircumflex" unicode="&#xea;" horiz-adv-x="977" 
d="M717 605q0 110 -57 177.5t-164 67.5q-88 0 -151.5 -74t-78.5 -189l2 -5h449v23zM523 -21q-203 0 -323.5 134t-120.5 353v40q0 205 122.5 344.5t294.5 139.5q194 0 296.5 -116.5t102.5 -319.5v-111h-632l-3 -4q3 -144 72.5 -232.5t190.5 -88.5q170 0 276 96l70 -115h-1
q-122 -120 -345 -120zM782 1252h-138l-135 153l-134 -153h-138v11l222 245h100l223 -247v-9z" />
    <glyph glyph-name="edieresis" unicode="&#xeb;" horiz-adv-x="977" 
d="M717 605q0 110 -57 177.5t-164 67.5q-88 0 -151.5 -74t-78.5 -189l2 -5h449v23zM523 -21q-203 0 -323.5 134t-120.5 353v40q0 205 122.5 344.5t294.5 139.5q194 0 296.5 -116.5t102.5 -319.5v-111h-632l-3 -4q3 -144 72.5 -232.5t190.5 -88.5q170 0 276 96l70 -115h-1
q-122 -120 -345 -120zM710 1264q-48 0 -73 26t-25 69t25 69.5t73 26.5t73.5 -27t25.5 -69.5t-25.5 -68.5t-73.5 -26zM323 1266q-48 0 -73 26t-25 68.5t25 69t73 26.5t73.5 -26.5t25.5 -69t-25.5 -68.5t-73.5 -26z" />
    <glyph glyph-name="igrave" unicode="&#xec;" horiz-adv-x="455" 
d="M313 974v-974h-167v974h167zM175 1449l157 -239h-142l-225 234l3 5h207z" />
    <glyph glyph-name="iacute" unicode="&#xed;" horiz-adv-x="455" 
d="M293 974v-974h-167v974h167zM124 1239l173 265h202l-241 -265h-134z" />
    <glyph glyph-name="icircumflex" unicode="&#xee;" horiz-adv-x="455" 
d="M314 974v-974h-167v974h167zM486 1251h-138l-135 153l-134 -153h-138v11l222 245h100l223 -247v-9z" />
    <glyph glyph-name="idieresis" unicode="&#xef;" horiz-adv-x="455" 
d="M314 974v-974h-167v974h167zM414 1263q-48 0 -73 26t-25 69t25 69.5t73 26.5t73.5 -27t25.5 -69.5t-25.5 -68.5t-73.5 -26zM27 1265q-48 0 -73 26t-25 68.5t25 69t73 26.5t73.5 -26.5t25.5 -69t-25.5 -68.5t-73.5 -26z" />
    <glyph glyph-name="eth" unicode="&#xf0;" horiz-adv-x="1080" 
d="M795 484v85l-2 50q-30 56 -93 88.5t-145 32.5q-130 0 -203 -85.5t-73 -237.5q0 -128 75 -215t189 -87t183 101.5t69 267.5zM961 562v-83q0 -144 -52.5 -257t-149.5 -178t-218.5 -65t-220 57.5t-152.5 159.5q-55 102 -55 228.5t50 230.5t144 162.5t210 58.5
q147 0 255 -102q-42 177 -170 302l-196 -133l-66 89l173 118q-119 83 -283 126l51 143q216 -48 372 -173l171 116l65 -90l-152 -104q224 -237 224 -606z" />
    <glyph glyph-name="ntilde" unicode="&#xf1;" horiz-adv-x="1017" 
d="M114 974h158l13 -145q101 163 289 163q160 0 245 -93.5t85 -283.5v-615h-177v611q0 127 -50 182t-156 55q-76 0 -135 -36t-95 -102v-710h-177v974zM636 1260q-38 0 -64.5 9t-69.5 36.5t-62 34t-51.5 6.5t-58.5 -29t-26 -72l-111 6q0 97 54.5 160t137.5 63q32 0 57 -9
t68.5 -35t66.5 -34.5t56 -8.5t59 30t26 72l111 -11q0 -96 -55 -157t-138 -61z" />
    <glyph glyph-name="ograve" unicode="&#xf2;" horiz-adv-x="1051" 
d="M257 494v-20q0 -162 66.5 -259t191.5 -97t192 97.5t67 258.5v20q0 159 -67.5 257.5t-192 98.5t-191 -98.5t-66.5 -257.5zM79 474v20q0 220 118 358t318 138t318 -137.5t118 -358.5v-20q0 -222 -117.5 -358.5t-318 -136.5t-318.5 137t-118 358zM483 1450l157 -239h-142
l-225 234l3 5h207z" />
    <glyph glyph-name="oacute" unicode="&#xf3;" horiz-adv-x="1051" 
d="M257 494v-20q0 -162 66.5 -259t191.5 -97t192 97.5t67 258.5v20q0 159 -67.5 257.5t-192 98.5t-191 -98.5t-66.5 -257.5zM79 474v20q0 220 118 358t318 138t318 -137.5t118 -358.5v-20q0 -222 -117.5 -358.5t-318 -136.5t-318.5 137t-118 358zM453 1240l173 265h202
l-241 -265h-134z" />
    <glyph glyph-name="ocircumflex" unicode="&#xf4;" horiz-adv-x="1051" 
d="M256 494v-20q0 -162 66.5 -259t191.5 -97t192 97.5t67 258.5v20q0 159 -67.5 257.5t-192 98.5t-191 -98.5t-66.5 -257.5zM78 474v20q0 220 118 358t318 138t318 -137.5t118 -358.5v-20q0 -222 -117.5 -358.5t-318 -136.5t-318.5 137t-118 358zM792 1252h-138l-135 153
l-134 -153h-138v11l222 245h100l223 -247v-9z" />
    <glyph glyph-name="otilde" unicode="&#xf5;" horiz-adv-x="1051" 
d="M256 494v-20q0 -162 66.5 -259t191.5 -97t192 97.5t67 258.5v20q0 159 -67.5 257.5t-192 98.5t-191 -98.5t-66.5 -257.5zM78 474v20q0 220 118 358t318 138t318 -137.5t118 -358.5v-20q0 -222 -117.5 -358.5t-318 -136.5t-318.5 137t-118 358zM645 1260q-38 0 -64.5 9
t-69.5 36.5t-62 34t-51.5 6.5t-58.5 -29t-26 -72l-111 6q0 97 54.5 160t137.5 63q32 0 57 -9t68.5 -35t66.5 -34.5t56 -8.5t59 30t26 72l111 -11q0 -96 -55 -157t-138 -61z" />
    <glyph glyph-name="odieresis" unicode="&#xf6;" horiz-adv-x="1051" 
d="M257 494v-20q0 -162 66.5 -259t191.5 -97t192 97.5t67 258.5v20q0 159 -67.5 257.5t-192 98.5t-191 -98.5t-66.5 -257.5zM79 474v20q0 220 118 358t318 138t318 -137.5t118 -358.5v-20q0 -222 -117.5 -358.5t-318 -136.5t-318.5 137t-118 358zM721 1264q-48 0 -73 26
t-25 69t25 69.5t73 26.5t73.5 -27t25.5 -69.5t-25.5 -68.5t-73.5 -26zM334 1266q-48 0 -73 26t-25 68.5t25 69t73 26.5t73.5 -26.5t25.5 -69t-25.5 -68.5t-73.5 -26z" />
    <glyph glyph-name="divide" unicode="&#xf7;" horiz-adv-x="1053" 
d="M603 363v-183h-178v183h178zM962 725v-170h-898v170h898zM603 1100v-183h-178v183h178z" />
    <glyph glyph-name="oslash" unicode="&#xf8;" horiz-adv-x="1044" 
d="M81 483q0 144 55.5 257t155.5 175.5t231 62.5q100 0 183 -37l66 133h112l-92 -185q175 -136 175 -426q0 -143 -55.5 -257t-156.5 -176q-97 -61 -230 -61q-96 0 -171 31l-67 -134h-112l90 183q-184 135 -184 434zM525 105q126 0 201 98.5t75 264.5l-1 15q0 162 -78 263
l-306 -619q47 -22 109 -22zM524 842q-127 0 -201.5 -99.5t-74.5 -277t88 -277.5l308 625q-55 29 -120 29z" />
    <glyph glyph-name="ugrave" unicode="&#xf9;" horiz-adv-x="1016" 
d="M449 -21q-164 0 -251 103.5t-87 315.5v574h177v-576q0 -153 44.5 -213t144.5 -60q183 0 250 147v702h177v-974h-159l-12 144q-96 -163 -284 -163zM469 1450l157 -239h-142l-225 234l3 5h207z" />
    <glyph glyph-name="uacute" unicode="&#xfa;" horiz-adv-x="1016" 
d="M449 -21q-164 0 -251 103.5t-87 315.5v574h177v-576q0 -153 44.5 -213t144.5 -60q183 0 250 147v702h177v-974h-159l-12 144q-96 -163 -284 -163zM439 1240l173 265h202l-241 -265h-134z" />
    <glyph glyph-name="ucircumflex" unicode="&#xfb;" horiz-adv-x="1016" 
d="M449 -21q-164 0 -251 103.5t-87 315.5v574h177v-576q0 -153 44.5 -213t144.5 -60q183 0 250 147v702h177v-974h-159l-12 144q-96 -163 -284 -163zM779 1252h-138l-135 153l-134 -153h-138v11l222 245h100l223 -247v-9z" />
    <glyph glyph-name="udieresis" unicode="&#xfc;" horiz-adv-x="1016" 
d="M449 -21q-164 0 -251 103.5t-87 315.5v574h177v-576q0 -153 44.5 -213t144.5 -60q183 0 250 147v702h177v-974h-159l-12 144q-96 -163 -284 -163zM707 1264q-48 0 -73 26t-25 69t25 69.5t73 26.5t73.5 -27t25.5 -69.5t-25.5 -68.5t-73.5 -26zM320 1266q-48 0 -73 26
t-25 68.5t25 69t73 26.5t73.5 -26.5t25.5 -69t-25.5 -68.5t-73.5 -26z" />
    <glyph glyph-name="yacute" unicode="&#xfd;" horiz-adv-x="872" 
d="M197 -437q-38 0 -105 14l18 140q66 -5 79 -5q52 0 87.5 44t64.5 118l42 102l-362 954h198l207 -613l31 -122h6l239 735h197l-409 -1123q-93 -244 -293 -244zM392 1240l173 265h202l-241 -265h-134z" />
    <glyph glyph-name="thorn" unicode="&#xfe;" horiz-adv-x="1062" 
d="M855 75q-102 -135 -277.5 -135t-276.5 113v-469h-167v1757h167v-510q100 119 276.5 119t278.5 -132t102 -368l-1 -15q0 -225 -102 -360zM529 76h1q123 0 192 96t69 271.5t-70 270.5t-193 95q-153 0 -227 -134v-465q74 -134 228 -134z" />
    <glyph glyph-name="ydieresis" unicode="&#xff;" horiz-adv-x="872" 
d="M197 -437q-38 0 -105 14l18 140q66 -5 79 -5q52 0 87.5 44t64.5 118l42 102l-362 954h198l207 -613l31 -122h6l239 735h197l-409 -1123q-93 -244 -293 -244zM660 1264q-48 0 -73 26t-25 69t25 69.5t73 26.5t73.5 -27t25.5 -69.5t-25.5 -68.5t-73.5 -26zM273 1266
q-48 0 -73 26t-25 68.5t25 69t73 26.5t73.5 -26.5t25.5 -69t-25.5 -68.5t-73.5 -26z" />
    <glyph glyph-name="Amacron" unicode="&#x100;" horiz-adv-x="1202" 
d="M992 0l-123 338h-549l-124 -338h-181l507 1310h152l498 -1310h-180zM595 1083l-220 -597h441l-216 597h-5zM948 1760v-129h-643v129h643z" />
    <glyph glyph-name="amacron" unicode="&#x101;" horiz-adv-x="1003" 
d="M395 -21q-152 0 -232 77t-80 216t112 218t308 79h192v96q0 86 -52.5 135.5t-142 49.5t-143.5 -42.5t-54 -105.5h-169l-2 5q-5 110 102.5 196.5t274 86.5t265.5 -85.5t99 -241.5v-469q0 -113 25 -196h-183q-19 93 -20 146q-52 -74 -131.5 -119.5t-168.5 -45.5zM262 268h-1
q0 -66 41 -103t127 -37t164.5 48.5t102.5 113.5v159h-198q-106 0 -171 -52.5t-65 -128.5zM848 1450v-129h-643v129h643z" />
    <glyph glyph-name="Abreve" unicode="&#x102;" horiz-adv-x="1202" 
d="M992 0l-123 338h-549l-124 -338h-181l507 1310h152l498 -1310h-180zM595 1083l-220 -597h441l-216 597h-5zM761 1779h135q0 -109 -73.5 -175t-195 -66t-196 66t-74.5 175h136q0 -64 34.5 -99t98.5 -35t99.5 35t35.5 99z" />
    <glyph glyph-name="abreve" unicode="&#x103;" horiz-adv-x="1003" 
d="M396 -21q-152 0 -232 77t-80 216t112 218t308 79h192v96q0 86 -52.5 135.5t-142 49.5t-143.5 -42.5t-54 -105.5h-169l-2 5q-5 110 102.5 196.5t274 86.5t265.5 -85.5t99 -241.5v-469q0 -113 25 -196h-183q-19 93 -20 146q-52 -74 -131.5 -119.5t-168.5 -45.5zM263 268h-1
q0 -66 41 -103t127 -37t164.5 48.5t102.5 113.5v159h-198q-106 0 -171 -52.5t-65 -128.5zM663 1469h135q0 -109 -73.5 -175t-195 -66t-196 66t-74.5 175h136q0 -64 34.5 -99t98.5 -35t99.5 35t35.5 99z" />
    <glyph glyph-name="Aogonek" unicode="&#x104;" horiz-adv-x="1202" 
d="M602 1054l-222 -613h445zM991 -243q0 -65 70 -65q42 0 90 23l12 -108q-64 -40 -144.5 -40t-127 46.5t-46.5 124.5q0 129 152 227l-121 334h-549l-124 -342h-178l501 1310h152l501 -1310h-34l-52 -41q-102 -82 -102 -159z" />
    <glyph glyph-name="aogonek" unicode="&#x105;" horiz-adv-x="1003" 
d="M266 249h-1q0 -78 51 -122t132.5 -44t152 40.5t101.5 104.5v200h-130q-306 0 -306 -179zM705 59q-117 -120 -269 -120t-244.5 81.5t-92.5 207.5q0 153 115 236.5t326 83.5h162v77q0 90 -52.5 140t-147.5 50t-155.5 -45t-60.5 -108h-167q0 73 52 140.5t139.5 107.5
t195.5 40q168 0 263.5 -84t99.5 -232v-449q0 -134 34 -214v-14h-30l-52 -41q-102 -83 -102 -159q0 -65 70 -65q42 0 90 23l12 -108q-62 -40 -143.5 -40t-128 46.5t-46.5 124.5l1 -1q0 130 151 225q-14 36 -20 97z" />
    <glyph glyph-name="Cacute" unicode="&#x106;" horiz-adv-x="1200" 
d="M906 417h169l2 -5q4 -188 -130 -310.5t-354 -122.5t-360 156.5t-140 400.5v233q0 244 140 401t363 157t354.5 -117.5t127.5 -314.5l-2 -5h-170q0 140 -81.5 219t-228 79t-235.5 -118t-89 -299v-235q0 -183 89 -300.5t236 -117.5t228 78.5t81 220.5zM553 1583l173 265h202
l-241 -265h-134z" />
    <glyph glyph-name="cacute" unicode="&#x107;" horiz-adv-x="965" 
d="M257 466q0 -157 58 -248q63 -100 201 -100q90 0 156 55t66 133h159l2 -6q5 -127 -111 -224t-272 -97q-208 0 -323 135t-115 352v38q0 216 115.5 351t322.5 135q170 0 279 -100t105 -249l-2 -5h-160q0 90 -63 152t-156.5 62t-153 -47t-84 -122t-24.5 -177v-38zM409 1240
l173 265h202l-241 -265h-134z" />
    <glyph glyph-name="Ccaron" unicode="&#x10c;" horiz-adv-x="1200" 
d="M906 417h169l2 -5q4 -188 -130 -310.5t-354 -122.5t-360 156.5t-140 400.5v233q0 244 140 401t363 157t354.5 -117.5t127.5 -314.5l-2 -5h-170q0 140 -81.5 219t-228 79t-235.5 -118t-89 -299v-235q0 -183 89 -300.5t236 -117.5t228 78.5t81 220.5zM900 1851v-9
l-228 -247h-102l-226 247v9h141l136 -153l135 153h144z" />
    <glyph glyph-name="ccaron" unicode="&#x10d;" horiz-adv-x="965" 
d="M257 466q0 -157 58 -248q63 -100 201 -100q90 0 156 55t66 133h159l2 -6q5 -127 -111 -224t-272 -97q-208 0 -323 135t-115 352v38q0 216 115.5 351t322.5 135q170 0 279 -100t105 -249l-2 -5h-160q0 90 -63 152t-156.5 62t-153 -47t-84 -122t-24.5 -177v-38zM756 1508
v-9l-228 -247h-102l-226 247v9h141l136 -153l135 153h144z" />
    <glyph glyph-name="Dcaron" unicode="&#x10e;" horiz-adv-x="1209" 
d="M547 1171h-225v-1032h225q181 0 286.5 117.5t105.5 308.5v181q0 190 -106 307.5t-286 117.5zM547 0h-402v1310h402q258 0 413.5 -156.5t155.5 -409.5v-179q0 -253 -155.5 -409t-413.5 -156zM824 1830v-9l-228 -247h-102l-226 247v9h141l136 -153l135 153h144z" />
    <glyph glyph-name="dcaron" unicode="&#x10f;" horiz-adv-x="1175" 
d="M178 848q101 142 276 142t269 -124v536h178v-1404h-145l-21 120q-97 -139 -276 -139t-280 127.5t-101 341.5l-1 19q0 239 101 381zM256 467v-19q0 -153 61.5 -239t185.5 -86q150 0 222 137v454q-74 132 -220 132q-125 0 -187 -101.5t-62 -277.5z" />
    <glyph glyph-name="Dcroat" unicode="&#x110;" horiz-adv-x="1236" 
d="M607 735v-137h-254v-458h181q201 0 311.5 123t111.5 348v84q0 224 -104.5 347.5t-297.5 125.5h-202v-433h254zM180 0v599h-146v136h146v575h370q172 0 303 -75t202 -214t72 -322v-83q0 -187 -71 -326t-205 -213q-130 -75 -309 -77h-362z" />
    <glyph glyph-name="dcroat" unicode="&#x111;" horiz-adv-x="1067" 
d="M1077 1245v-136h-169v-1111h-153l-8 104q-100 -122 -274 -122t-280 138t-106 362v13q0 225 105.5 361t277.5 136t272 -117v236h-237v136h237v135h166v-135h169zM510 121q158 0 232 143v447q-76 138 -230 138q-124 0 -191.5 -95.5t-67.5 -270.5t68 -268.5t189 -93.5z" />
    <glyph glyph-name="Emacron" unicode="&#x112;" horiz-adv-x="1048" 
d="M925 747v-139h-601v-469h692v-139h-869v1310h860v-139h-683v-424h601zM882 1772v-129h-643v129h643z" />
    <glyph glyph-name="emacron" unicode="&#x113;" horiz-adv-x="977" 
d="M717 605q0 110 -57 177.5t-164 67.5q-88 0 -151.5 -74t-78.5 -189l2 -5h449v23zM523 -21q-203 0 -323.5 134t-120.5 353v40q0 205 122.5 344.5t294.5 139.5q194 0 296.5 -116.5t102.5 -319.5v-111h-632l-3 -4q3 -144 72.5 -232.5t190.5 -88.5q170 0 276 96l70 -115h-1
q-122 -120 -345 -120zM834 1450v-129h-643v129h643z" />
    <glyph glyph-name="Edotaccent" unicode="&#x116;" horiz-adv-x="1048" 
d="M923 747v-139h-601v-469h692v-139h-869v1310h860v-139h-683v-424h601zM578 1584q-48 0 -73 26t-25 69t25 69.5t73 26.5t73.5 -27t25.5 -69.5t-25.5 -68.5t-73.5 -26z" />
    <glyph glyph-name="edotaccent" unicode="&#x117;" horiz-adv-x="977" 
d="M717 605q0 110 -57 177.5t-164 67.5q-88 0 -151.5 -74t-78.5 -189l2 -5h449v23zM523 -21q-203 0 -323.5 134t-120.5 353v40q0 205 122.5 344.5t294.5 139.5q194 0 296.5 -116.5t102.5 -319.5v-111h-632l-3 -4q3 -144 72.5 -232.5t190.5 -88.5q170 0 276 96l70 -115h-1
q-122 -120 -345 -120zM532 1262q-48 0 -73 26t-25 69t25 69.5t73 26.5t73.5 -27t25.5 -69.5t-25.5 -68.5t-73.5 -26z" />
    <glyph glyph-name="Eogonek" unicode="&#x118;" horiz-adv-x="1048" 
d="M326 562v-464h660v-141h-66l-52 -41q-102 -83 -102 -159q0 -65 70 -65q42 0 90 23l12 -108q-64 -40 -144.5 -40t-127 46.5t-46.5 124.5q0 124 140 219h-608v1310h824v-142h-651v-421h568l1 -142h-568z" />
    <glyph glyph-name="eogonek" unicode="&#x119;" horiz-adv-x="977" 
d="M677.5 744q-60.5 69 -164.5 69t-171.5 -73.5t-83.5 -205.5h487v13q-7 128 -67.5 197zM579 -219q0 -65 70 -65q42 0 90 23l12 -108q-64 -40 -144.5 -40t-127 46.5t-46.5 124.5q0 98 88 179q-198 4 -317 134t-119 345v30q0 145 54.5 258.5t155 178t215.5 64.5
q192 0 296.5 -125t104.5 -358v-70h-660q4 -144 83.5 -232.5t204.5 -88.5q155 0 257 132l103 -81q-66 -101 -166 -147l-52 -41q-102 -83 -102 -159z" />
    <glyph glyph-name="Ecaron" unicode="&#x11a;" horiz-adv-x="1048" 
d="M925 747v-139h-601v-469h692v-139h-869v1310h860v-139h-683v-424h601zM837 1830v-9l-228 -247h-102l-226 247v9h141l136 -153l135 153h144z" />
    <glyph glyph-name="ecaron" unicode="&#x11b;" horiz-adv-x="977" 
d="M717 605q0 110 -57 177.5t-164 67.5q-88 0 -151.5 -74t-78.5 -189l2 -5h449v23zM523 -21q-203 0 -323.5 134t-120.5 353v40q0 205 122.5 344.5t294.5 139.5q194 0 296.5 -116.5t102.5 -319.5v-111h-632l-3 -4q3 -144 72.5 -232.5t190.5 -88.5q170 0 276 96l70 -115h-1
q-122 -120 -345 -120zM789 1508v-9l-228 -247h-102l-226 247v9h141l136 -153l135 153h144z" />
    <glyph glyph-name="Gbreve" unicode="&#x11e;" horiz-adv-x="1256" 
d="M1100 652v-479q-53 -81 -172 -137t-290 -56q-237 0 -389.5 150.5t-152.5 388.5v270q0 240 142.5 389.5t367.5 149.5t355.5 -109t132.5 -288l-2 -5h-169q-9 119 -89.5 190.5t-228 71.5t-239.5 -111.5t-92 -286.5v-272q0 -175 102 -287.5t262 -112.5q105 0 178 27.5
t106 69.5v298h-287v139h465zM751 1812h135q0 -109 -73.5 -175t-195 -66t-196 66t-74.5 175h136q0 -64 34.5 -99t98.5 -35t99.5 35t35.5 99z" />
    <glyph glyph-name="gbreve" unicode="&#x11f;" horiz-adv-x="1034" 
d="M81 406v19q0 239 103 381t284.5 142t278.5 -145l22 127h141v-979q0 -188 -108.5 -288t-314.5 -100q-71 0 -152 19.5t-143 52.5l45 138q48 -27 115.5 -44t132.5 -17q129 0 188.5 58t59.5 181v110q-97 -124 -271.5 -124t-277.5 128.5t-103 340.5zM258 425v-19
q0 -151 63.5 -238t187.5 -87q152 0 225 140v448q-76 135 -223 135q-124 0 -188.5 -102.5t-64.5 -276.5zM639 1469h135q0 -109 -73.5 -175t-195 -66t-196 66t-74.5 175h136q0 -64 34.5 -99t98.5 -35t99.5 35t35.5 99z" />
    <glyph glyph-name="uni0122" unicode="&#x122;" horiz-adv-x="1256" 
d="M1101 652v-479q-53 -81 -172 -137t-290 -56q-237 0 -389.5 150.5t-152.5 388.5v270q0 240 142.5 389.5t367.5 149.5t355.5 -109t132.5 -288l-2 -5h-169q-9 119 -89.5 190.5t-228 71.5t-239.5 -111.5t-92 -286.5v-272q0 -175 102 -287.5t262 -112.5q105 0 178 27.5
t106 69.5v298h-287v139h465z" />
    <glyph glyph-name="uni0123" unicode="&#x123;" horiz-adv-x="1034" 
d="M81 406v19q0 239 103 381t284.5 142t278.5 -145l22 127h141v-979q0 -188 -108.5 -288t-314.5 -100q-71 0 -152 19.5t-143 52.5l45 138q48 -27 115.5 -44t132.5 -17q129 0 188.5 58t59.5 181v110q-97 -124 -271.5 -124t-277.5 128.5t-103 340.5zM258 425v-19
q0 -151 63.5 -238t187.5 -87q152 0 225 140v448q-76 135 -223 135q-124 0 -188.5 -102.5t-64.5 -276.5z" />
    <glyph glyph-name="Imacron" unicode="&#x12a;" horiz-adv-x="501" 
d="M358 1310v-1310h-178v1310h178zM566 1772v-129h-643v129h643z" />
    <glyph glyph-name="imacron" unicode="&#x12b;" horiz-adv-x="455" 
d="M317 974v-974h-167v974h167zM541 1448v-129h-643v129h643z" />
    <glyph glyph-name="Iogonek" unicode="&#x12e;" horiz-adv-x="501" 
d="M170 0v1310h178v-1310h-77l46 -34l-52 -41q-102 -83 -102 -159q0 -65 70 -65q42 0 90 23l12 -108q-63 -40 -144 -40v0q-80 0 -126.5 46.5t-46.5 124.5q0 150 198 253h-46z" />
    <glyph glyph-name="iogonek" unicode="&#x12f;" horiz-adv-x="447" 
d="M145 0v974h177v-974h-90l58 -43l-52 -41q-102 -83 -102 -159q0 -65 70 -65q42 0 90 23l12 -108q-63 -40 -144 -40v0q-80 0 -126.5 46.5t-46.5 124t56 144.5t160 118h-62zM321 1404v-181h-177v181h177z" />
    <glyph glyph-name="Idotaccent" unicode="&#x130;" horiz-adv-x="501" 
d="M333 1310v-1310h-178v1310h178zM238 1584q-48 0 -73 26t-25 69t25 69.5t73 26.5t73.5 -27t25.5 -69.5t-25.5 -68.5t-73.5 -26z" />
    <glyph glyph-name="dotlessi" unicode="&#x131;" horiz-adv-x="455" 
d="M307 974v-974h-167v974h167z" />
    <glyph glyph-name="uni0136" unicode="&#x136;" horiz-adv-x="1156" 
d="M322 591v-591h-177v1310h177v-579h137l469 579h196l3 -4l-509 -629l546 -672l-3 -5h-211l-475 591h-153z" />
    <glyph glyph-name="uni0137" unicode="&#x137;" horiz-adv-x="934" 
d="M293 449v-449h-177v1404h177v-814h113l267 384h212l-333 -443l381 -531h-209l-316 449h-115z" />
    <glyph glyph-name="Lacute" unicode="&#x139;" horiz-adv-x="992" 
d="M323 1310v-1171h620v-139h-797v1310h177zM133 1545l173 265h202l-241 -265h-134z" />
    <glyph glyph-name="lacute" unicode="&#x13a;" horiz-adv-x="447" 
d="M306 1404v-1404h-177v1404h177zM122 1646l173 265h202l-241 -265h-134z" />
    <glyph glyph-name="uni013B" unicode="&#x13b;" horiz-adv-x="992" 
d="M322 1310v-1171h620v-139h-797v1310h177z" />
    <glyph glyph-name="uni013C" unicode="&#x13c;" horiz-adv-x="447" 
d="M306 1404v-1404h-177v1404h177z" />
    <glyph glyph-name="Lcaron" unicode="&#x13d;" horiz-adv-x="992" 
d="M322 1310v-1171h620v-139h-797v1310h177z" />
    <glyph glyph-name="lcaron" unicode="&#x13e;" horiz-adv-x="582" 
d="M304 1404v-1404h-177v1404h177z" />
    <glyph glyph-name="Lslash" unicode="&#x141;" horiz-adv-x="993" 
d="M325 1310v-551l237 75v-112l-237 -76v-505h621v-141h-795v591l-120 -37v112l120 38v606h174z" />
    <glyph glyph-name="lslash" unicode="&#x142;" horiz-adv-x="498" 
d="M328 1382v-600l142 55v-111l-142 -55v-671h-168v608l-129 -50v111l129 49v664h168z" />
    <glyph glyph-name="Nacute" unicode="&#x143;" horiz-adv-x="1314" 
d="M1138 1310v-1310h-177l-631 1013l-6 -1v-1012h-177v1310h177l631 -1011l6 2v1009h177zM597 1550l173 265h202l-241 -265h-134z" />
    <glyph glyph-name="nacute" unicode="&#x144;" horiz-adv-x="1017" 
d="M115 974h158l13 -145q101 163 289 163q160 0 245 -93.5t85 -283.5v-615h-177v611q0 127 -50 182t-156 55q-76 0 -135 -36t-95 -102v-710h-177v974zM444 1240l173 265h202l-241 -265h-134z" />
    <glyph glyph-name="uni0145" unicode="&#x145;" horiz-adv-x="1314" 
d="M1136 1310v-1310h-177l-631 1013l-6 -1v-1012h-177v1310h177l631 -1011l6 2v1009h177z" />
    <glyph glyph-name="uni0146" unicode="&#x146;" horiz-adv-x="1017" 
d="M115 974h158l13 -145q101 163 289 163q160 0 245 -93.5t85 -283.5v-615h-177v611q0 127 -50 182t-156 55q-76 0 -135 -36t-95 -102v-710h-177v974z" />
    <glyph glyph-name="Ncaron" unicode="&#x147;" horiz-adv-x="1314" 
d="M1136 1310v-1310h-177l-631 1013l-6 -1v-1012h-177v1310h177l631 -1011l6 2v1009h177zM942 1818v-9l-228 -247h-102l-226 247v9h141l136 -153l135 153h144z" />
    <glyph glyph-name="ncaron" unicode="&#x148;" horiz-adv-x="1017" 
d="M115 974h158l13 -145q101 163 289 163q160 0 245 -93.5t85 -283.5v-615h-177v611q0 127 -50 182t-156 55q-76 0 -135 -36t-95 -102v-710h-177v974zM791 1508v-9l-228 -247h-102l-226 247v9h141l136 -153l135 153h144z" />
    <glyph glyph-name="Omacron" unicode="&#x14c;" horiz-adv-x="1267" 
d="M966 536v235q0 183 -98 296.5t-256 113.5t-251 -114t-93 -296v-235q0 -184 92.5 -298t251.5 -114t256.5 113.5t97.5 298.5zM1143 769v-233q0 -243 -149 -400t-382.5 -157t-377 157t-143.5 400v233q0 243 143.5 400.5t377 157.5t382.5 -157t149 -401zM973 1762v-129h-643
v129h643z" />
    <glyph glyph-name="omacron" unicode="&#x14d;" horiz-adv-x="1051" 
d="M257 494v-20q0 -162 66.5 -259t191.5 -97t192 97.5t67 258.5v20q0 159 -67.5 257.5t-192 98.5t-191 -98.5t-66.5 -257.5zM79 474v20q0 220 118 358t318 138t318 -137.5t118 -358.5v-20q0 -222 -117.5 -358.5t-318 -136.5t-318.5 137t-118 358zM845 1450v-129h-643v129
h643z" />
    <glyph glyph-name="Ohungarumlaut" unicode="&#x150;" horiz-adv-x="1267" 
d="M966 536v235q0 183 -98 296.5t-256 113.5t-251 -114t-93 -296v-235q0 -184 92.5 -298t251.5 -114t256.5 113.5t97.5 298.5zM1143 769v-233q0 -243 -149 -400t-382.5 -157t-377 157t-143.5 400v233q0 243 143.5 400.5t377 157.5t382.5 -157t149 -401zM689 1544l208 273
h186l-242 -273h-152zM437 1544l154 273h177l-196 -273h-135z" />
    <glyph glyph-name="ohungarumlaut" unicode="&#x151;" horiz-adv-x="1051" 
d="M257 494v-20q0 -162 66.5 -259t191.5 -97t192 97.5t67 258.5v20q0 159 -67.5 257.5t-192 98.5t-191 -98.5t-66.5 -257.5zM79 474v20q0 220 118 358t318 138t318 -137.5t118 -358.5v-20q0 -222 -117.5 -358.5t-318 -136.5t-318.5 137t-118 358zM561 1232l208 273h186
l-242 -273h-152zM309 1232l154 273h177l-196 -273h-135z" />
    <glyph glyph-name="OE" unicode="&#x152;" horiz-adv-x="1758" 
d="M260 516h2q0 -191 87.5 -296t246.5 -105q105 0 192 13v1049q-95 13 -196 13q-157 0 -243.5 -102.5t-88.5 -289.5v-282zM595 -21q-146 0 -260 67t-177.5 189.5t-63.5 276.5v278q0 156 62 278t177 190q112 68 260 68q111 0 265 -18h754v-142h-651v-421h568v-141h-568v-465
h660l-1 -141h-763q-156 -19 -262 -19z" />
    <glyph glyph-name="oe" unicode="&#x153;" horiz-adv-x="1674" 
d="M519 853h-1q-124 0 -195.5 -98t-71.5 -272.5t72 -271t198 -96.5t196.5 97.5t70.5 272t-72.5 271.5t-196.5 97zM1443 606q0 113 -61.5 180t-167.5 67q-90 0 -157 -73.5t-87 -197.5h473v24zM520 990q240 0 359 -195q60 92 147.5 143.5t188.5 51.5q188 0 292.5 -114.5
t104.5 -325.5v-105h-646q6 -153 79.5 -241.5t194.5 -88.5q168 0 277 97l67 -113q-123 -119 -344 -119q-242 0 -362 191q-119 -191 -355 -191q-199 0 -317.5 136.5t-118.5 365.5l-2 12q0 145 54.5 259t153.5 175q97 62 227 62z" />
    <glyph glyph-name="Racute" unicode="&#x154;" horiz-adv-x="1135" 
d="M654 568h-330v-568h-177v1310h474q216 0 329 -95t113 -278q0 -204 -206 -294q203 -66 203 -309v-123q0 -134 60 -189v-22h-183q-55 49 -55 212v120q0 107 -62 171.5t-166 64.5zM324 1171v-464h279q150 0 216.5 56.5t66.5 175.5q0 232 -265 232h-297zM480 1550l173 265
h202l-241 -265h-134z" />
    <glyph glyph-name="racute" unicode="&#x155;" horiz-adv-x="624" 
d="M293 -1h-177v974h158l17 -142q89 161 242 161q36 0 68 -10l-24 -166l-91 6q-137 0 -193 -127v-696zM280 1240l173 265h202l-241 -265h-134z" />
    <glyph glyph-name="uni0156" unicode="&#x156;" horiz-adv-x="1135" 
d="M652 568h-330v-568h-177v1310h474q216 0 329 -95t113 -278q0 -204 -206 -294q203 -66 203 -309v-123q0 -134 60 -189v-22h-183q-55 49 -55 212v120q0 107 -62 171.5t-166 64.5zM322 1171v-464h279q150 0 216.5 56.5t66.5 175.5q0 232 -265 232h-297z" />
    <glyph glyph-name="uni0157" unicode="&#x157;" horiz-adv-x="624" 
d="M292 -1h-177v974h158l17 -142q89 161 242 161q36 0 68 -10l-24 -166l-91 6q-137 0 -193 -127v-696z" />
    <glyph glyph-name="Rcaron" unicode="&#x158;" horiz-adv-x="1135" 
d="M652 568h-330v-568h-177v1310h474q216 0 329 -95t113 -278q0 -204 -206 -294q203 -66 203 -309v-123q0 -134 60 -189v-22h-183q-55 49 -55 212v120q0 107 -62 171.5t-166 64.5zM322 1171v-464h279q150 0 216.5 56.5t66.5 175.5q0 232 -265 232h-297zM825 1818v-9
l-228 -247h-102l-226 247v9h141l136 -153l135 153h144z" />
    <glyph glyph-name="rcaron" unicode="&#x159;" horiz-adv-x="624" 
d="M296 -1h-177v974h158l17 -142q89 161 242 161q36 0 68 -10l-24 -166l-91 6q-137 0 -193 -127v-696zM631 1508v-9l-228 -247h-102l-226 247v9h141l136 -153l135 153h144z" />
    <glyph glyph-name="Sacute" unicode="&#x15a;" horiz-adv-x="1094" 
d="M344.5 185q89.5 -67 228.5 -67t217 56.5t78 151.5t-69.5 155t-237.5 100q-441 106 -441 388q0 155 126 256.5t330.5 101.5t334.5 -115t125 -276l-2 -6h-169q0 118 -77 188t-212.5 70t-207 -58.5t-71.5 -151t76 -149t249 -100.5q423 -107 423 -399q0 -159 -129 -255
t-339 -96q-133 0 -245.5 46.5t-181.5 137.5t-66 207l2 5h169q0 -123 89.5 -190zM500 1552l173 265h202l-241 -265h-134z" />
    <glyph glyph-name="sacute" unicode="&#x15b;" horiz-adv-x="950" 
d="M629 157.5q54 37.5 54 99.5t-46 98.5t-167 64.5q-184 40 -270.5 106.5t-86.5 183.5t102 199.5t266 82.5t265.5 -86.5t96.5 -214.5l-2 -5h-169q0 67 -54.5 116t-143 49t-136.5 -39.5t-48 -100.5t42 -93t165 -58q188 -41 276 -109.5t88 -181.5q0 -130 -104.5 -210
t-280.5 -80t-284.5 92t-103.5 223l2 5h169q5 -90 67.5 -135.5t156.5 -45.5l-2 2q94 0 148 37.5zM439 1240l173 265h202l-241 -265h-134z" />
    <glyph glyph-name="Scaron" unicode="&#x160;" horiz-adv-x="1094" 
d="M344.5 185q89.5 -67 228.5 -67t217 56.5t78 151.5t-69.5 155t-237.5 100q-441 106 -441 388q0 155 126 256.5t330.5 101.5t334.5 -115t125 -276l-2 -6h-169q0 118 -77 188t-212.5 70t-207 -58.5t-71.5 -151t76 -149t249 -100.5q423 -107 423 -399q0 -159 -129 -255
t-339 -96q-133 0 -245.5 46.5t-181.5 137.5t-66 207l2 5h169q0 -123 89.5 -190zM847 1820v-9l-228 -247h-102l-226 247v9h141l136 -153l135 153h144z" />
    <glyph glyph-name="scaron" unicode="&#x161;" horiz-adv-x="950" 
d="M629 157.5q54 37.5 54 99.5t-46 98.5t-167 64.5q-184 40 -270.5 106.5t-86.5 183.5t102 199.5t266 82.5t265.5 -86.5t96.5 -214.5l-2 -5h-169q0 67 -54.5 116t-143 49t-136.5 -39.5t-48 -100.5t42 -93t165 -58q188 -41 276 -109.5t88 -181.5q0 -130 -104.5 -210
t-280.5 -80t-284.5 92t-103.5 223l2 5h169q5 -90 67.5 -135.5t156.5 -45.5l-2 2q94 0 148 37.5zM786 1508v-9l-228 -247h-102l-226 247v9h141l136 -153l135 153h144z" />
    <glyph glyph-name="Tcaron" unicode="&#x164;" horiz-adv-x="1100" 
d="M1044 1310v-139h-421v-1171h-177v1171h-420v139h1018zM839 1818v-9l-228 -247h-102l-226 247v9h141l136 -153l135 153h144z" />
    <glyph glyph-name="tcaron" unicode="&#x165;" horiz-adv-x="638" 
d="M184 1207h179v-235h184v-132h-184v-591q0 -124 103 -124q32 0 66 12l23 -121q-48 -37 -135 -37q-112 0 -174 67t-62 203v591h-154v132h154v235z" />
    <glyph glyph-name="Umacron" unicode="&#x16a;" horiz-adv-x="1195" 
d="M928 1308h179v-888q0 -211 -136.5 -326t-362.5 -115t-358 115.5t-132 325.5v888h178v-888q0 -146 82.5 -224t228.5 -78t233.5 78t87.5 224v888zM931 1760v-129h-643v129h643z" />
    <glyph glyph-name="umacron" unicode="&#x16b;" horiz-adv-x="1016" 
d="M449 -21q-164 0 -251 103.5t-87 315.5v574h177v-576q0 -153 44.5 -213t144.5 -60q183 0 250 147v702h177v-974h-159l-12 144q-96 -163 -284 -163zM831 1450v-129h-643v129h643z" />
    <glyph glyph-name="Uring" unicode="&#x16e;" horiz-adv-x="1195" 
d="M928 1308h179v-888q0 -211 -136.5 -326t-362.5 -115t-358 115.5t-132 325.5v888h178v-888q0 -146 82.5 -224t228.5 -78t233.5 78t87.5 224v888zM694 1784.5q-30 30.5 -74.5 30.5t-74.5 -31t-30 -75t30 -74t74 -30t74.5 30t30.5 74.5t-30 75zM481.5 1841.5
q55.5 54.5 138 54.5t138 -54.5t55.5 -133t-55.5 -131t-138.5 -52.5t-138 52.5t-55 131t55.5 133z" />
    <glyph glyph-name="uring" unicode="&#x16f;" horiz-adv-x="1016" 
d="M449 -21q-164 0 -251 103.5t-87 315.5v574h177v-576q0 -153 44.5 -213t144.5 -60q183 0 250 147v702h177v-974h-159l-12 144q-96 -163 -284 -163zM594 1474.5q-30 30.5 -74.5 30.5t-74.5 -31t-30 -75t30 -74t74 -30t74.5 30t30.5 74.5t-30 75zM381.5 1531.5
q55.5 54.5 138 54.5t138 -54.5t55.5 -133t-55.5 -131t-138.5 -52.5t-138 52.5t-55 131t55.5 133z" />
    <glyph glyph-name="Uhungarumlaut" unicode="&#x170;" horiz-adv-x="1195" 
d="M928 1308h179v-888q0 -211 -136.5 -326t-362.5 -115t-358 115.5t-132 325.5v888h178v-888q0 -146 82.5 -224t228.5 -78t233.5 78t87.5 224v888zM647 1542l208 273h186l-242 -273h-152zM395 1542l154 273h177l-196 -273h-135z" />
    <glyph glyph-name="uhungarumlaut" unicode="&#x171;" horiz-adv-x="1016" 
d="M449 -21q-164 0 -251 103.5t-87 315.5v574h177v-576q0 -153 44.5 -213t144.5 -60q183 0 250 147v702h177v-974h-159l-12 144q-96 -163 -284 -163zM547 1232l208 273h186l-242 -273h-152zM295 1232l154 273h177l-196 -273h-135z" />
    <glyph glyph-name="Uogonek" unicode="&#x172;" horiz-adv-x="1195" 
d="M901 1272h175v-892q-1 -136 -63 -236.5t-180 -153.5q-140 -101 -140 -189q0 -65 70 -65q43 0 90 24l12 -109q-62 -40 -143.5 -40t-128 46.5t-46.5 128.5t71 158l-19 -1q-218 0 -344.5 116t-128.5 320v893h171v-888q0 -143 78.5 -221.5t224 -78.5t223.5 78t78 221v889z
" />
    <glyph glyph-name="uogonek" unicode="&#x173;" horiz-adv-x="1016" 
d="M889 -43h-9l-52 -41q-102 -83 -102 -159q0 -65 71 -65q41 0 90 23l11 -108q-62 -40 -143.5 -40t-128 46.5t-46.5 124.5q0 128 151 224l-4 91q-96 -114 -285 -114q-157 0 -238 90.5t-82 267.5v634h167v-630q0 -221 180 -221q190 0 254 142v709h166v-974z" />
    <glyph glyph-name="Ydieresis" unicode="&#x178;" horiz-adv-x="1107" 
d="M645 0h-176v473l-453 837h203l342 -666l342 666h202l-460 -849v-461zM770 1574q-48 0 -73 26t-25 69t25 69.5t73 26.5t73.5 -27t25.5 -69.5t-25.5 -68.5t-73.5 -26zM383 1576q-48 0 -73 26t-25 68.5t25 69t73 26.5t73.5 -26.5t25.5 -69t-25.5 -68.5t-73.5 -26z" />
    <glyph glyph-name="Zacute" unicode="&#x179;" horiz-adv-x="1103" 
d="M1011 139v-139h-933v131l701 1040h-691v139h893v-126l-703 -1045h733zM493 1550l173 265h202l-241 -265h-134z" />
    <glyph glyph-name="zacute" unicode="&#x17a;" horiz-adv-x="914" 
d="M851 139v-139h-774v124l526 709h-520v141h737v-121l-532 -714h563zM392 1240l173 265h202l-241 -265h-134z" />
    <glyph glyph-name="Zdotaccent" unicode="&#x17b;" horiz-adv-x="1103" 
d="M1012 139v-139h-933v131l701 1040h-691v139h893v-126l-703 -1045h733zM584 1572q-48 0 -73 26t-25 69t25 69.5t73 26.5t73.5 -27t25.5 -69.5t-25.5 -68.5t-73.5 -26z" />
    <glyph glyph-name="zdotaccent" unicode="&#x17c;" horiz-adv-x="914" 
d="M851 139v-139h-774v124l526 709h-520v141h737v-121l-532 -714h563zM482 1262q-48 0 -73 26t-25 69t25 69.5t73 26.5t73.5 -27t25.5 -69.5t-25.5 -68.5t-73.5 -26z" />
    <glyph glyph-name="Zcaron" unicode="&#x17d;" horiz-adv-x="1103" 
d="M1011 139v-139h-933v131l701 1040h-691v139h893v-126l-703 -1045h733zM840 1818v-9l-228 -247h-102l-226 247v9h141l136 -153l135 153h144z" />
    <glyph glyph-name="zcaron" unicode="&#x17e;" horiz-adv-x="914" 
d="M851 139v-139h-774v124l526 709h-520v141h737v-121l-532 -714h563zM739 1508v-9l-228 -247h-102l-226 247v9h141l136 -153l135 153h144z" />
    <glyph glyph-name="florin" unicode="&#x192;" horiz-adv-x="627" 
d="M364 801v-923q0 -151 -75.5 -233t-214.5 -82q-58 0 -100 16l12 132q30 -11 88 -11t90 46t32 130v925h-154v129h154v108q2 152 81 236t223 84q48 0 129 -19l-20 -133q-30 9 -88 9q-155 0 -156 -175v-110h182l-1 -129h-182z" />
    <glyph glyph-name="uni021A" unicode="&#x21a;" horiz-adv-x="1100" 
d="M1045 1310v-139h-421v-1171h-177v1171h-420v139h1018z" />
    <glyph glyph-name="uni021B" unicode="&#x21b;" horiz-adv-x="602" 
d="M184 1207h179v-235h184v-132h-184v-591q0 -124 103 -124q32 0 66 12l23 -121q-48 -37 -135 -37q-112 0 -174 67t-62 203v591h-154v132h154v235z" />
    <glyph glyph-name="uni02BC" unicode="&#x2bc;" horiz-adv-x="650" 
d="M484 1497l15 -31l-163 -458h-161l95 489h214z" />
    <glyph glyph-name="circumflex" unicode="&#x2c6;" horiz-adv-x="868" 
d="M697 1252h-138l-135 153l-134 -153h-138v11l222 245h100l223 -247v-9z" />
    <glyph glyph-name="caron" unicode="&#x2c7;" horiz-adv-x="818" 
d="M682 1507v-9l-228 -247h-102l-226 247v9h141l136 -153l135 153h144z" />
    <glyph glyph-name="uni02C9" unicode="&#x2c9;" horiz-adv-x="845" 
d="M739 1442v-129h-643v129h643z" />
    <glyph glyph-name="breve" unicode="&#x2d8;" horiz-adv-x="787" 
d="M520 1468h135q0 -109 -73.5 -175t-195 -66t-196 66t-74.5 175h136q0 -64 34.5 -99t98.5 -35t99.5 35t35.5 99z" />
    <glyph glyph-name="dotaccent" unicode="&#x2d9;" horiz-adv-x="447" 
d="M225 1262q-48 0 -73 26t-25 69t25 69.5t73 26.5t73.5 -27t25.5 -69.5t-25.5 -68.5t-73.5 -26z" />
    <glyph glyph-name="ring" unicode="&#x2da;" horiz-adv-x="617" 
d="M377 1463.5q-30 30.5 -74.5 30.5t-74.5 -31t-30 -75t30 -74t74 -30t74.5 30t30.5 74.5t-30 75zM164.5 1520.5q55.5 54.5 138 54.5t138 -54.5t55.5 -133t-55.5 -131t-138.5 -52.5t-138 52.5t-55 131t55.5 133z" />
    <glyph glyph-name="ogonek" unicode="&#x2db;" horiz-adv-x="499" 
d="M191 -243q0 -65 70 -65q42 0 90 23l12 -108q-64 -40 -144.5 -40t-127 46.5t-46.5 125.5t60 148t171 120l69 -50l-52 -41q-102 -83 -102 -159z" />
    <glyph glyph-name="tilde" unicode="&#x2dc;" horiz-adv-x="869" 
d="M553 1256q-38 0 -64.5 9t-69.5 36.5t-62 34t-51.5 6.5t-58.5 -29t-26 -72l-111 6q0 97 54.5 160t137.5 63q32 0 57 -9t68.5 -35t66.5 -34.5t56 -8.5t59 30t26 72l111 -11q0 -96 -55 -157t-138 -61z" />
    <glyph glyph-name="hungarumlaut" unicode="&#x2dd;" horiz-adv-x="688" 
d="M337 1232l208 273h186l-242 -273h-152zM85 1232l154 273h177l-196 -273h-135z" />
    <glyph glyph-name="pi" unicode="&#x3c0;" horiz-adv-x="1098" 
d="M884 835v-589q0 -59 25 -87.5t74.5 -28.5t85.5 11l1 -136q-65 -17 -129 -17q-225 0 -225 265v582h-360v-836h-167v836h-152v138h986l1 -138h-140z" />
    <glyph glyph-name="uni0900" unicode="&#x900;" 
d="M-647 1384v182h177v-182h-177zM-566 1681q-194 0 -320 -127l-30 133q125 143 346 143q104 0 202.5 -42.5t168.5 -108.5l-29 -136q-71 67 -159 102.5t-179 35.5z" />
    <glyph glyph-name="uni0901" unicode="&#x901;" 
d="M-557 1543q194 0 320 127l30 -133q-125 -143 -346 -143q-104 0 -202.5 42.5t-168.5 108.5l29 136q71 -67 159 -102.5t179 -35.5zM-476 1840v-182h-177v182h177z" />
    <glyph glyph-name="uni0902" unicode="&#x902;" 
d="M-219 1642v-182h-177v182h177z" />
    <glyph glyph-name="uni0903" unicode="&#x903;" horiz-adv-x="513" 
d="M322 302v-182h-177v182h177zM322 970v-182h-177v182h177z" />
    <glyph glyph-name="uni0904" unicode="&#x904;" horiz-adv-x="1419" 
d="M1021 0v525h-283q13 -47 13 -92q0 -158 -98 -248t-262 -90q-73 0 -139 13.5t-164 50.5l23 144q91 -38 142.5 -52t111.5 -14q98 0 153.5 55.5t55.5 141t-47.5 142.5t-130.5 72q-74 -16 -169 -16v141q169 0 245.5 59t76.5 151q0 73 -47.5 116.5t-137.5 43.5q-48 0 -87 -11
t-107 -44l-22 140q106 57 216 57q167 0 264.5 -80.5t97.5 -224.5q0 -164 -143 -260q33 -20 69 -54h368v472h-206v141h206v56q0 125 -101 125q-19 0 -101.5 -16t-130.5 -16q-120 0 -233 97l46 112q95 -74 193 -74q34 0 133 23.5t141 23.5q107 0 169 -71.5t62 -195.5v-64h251
v-141h-251v-1138h-177z" />
    <glyph glyph-name="uni0905" unicode="&#x905;" horiz-adv-x="1419" 
d="M752 433q0 -158 -98 -248t-262 -90q-73 0 -139 13.5t-164 50.5l23 144q91 -38 142.5 -52t111.5 -14q98 0 153.5 55.5t55.5 141t-47.5 142.5t-130.5 72q-74 -16 -169 -16v141q169 0 245.5 59t76.5 151q0 73 -47.5 116.5t-137.5 43.5q-48 0 -87 -11t-107 -44l-22 140
q107 57 216 57q167 0 264.5 -80.5t97.5 -224.5q0 -164 -143 -260q33 -20 69 -54h368v472h-206v141h634v-141h-251v-1138h-177l1 525h-283q13 -47 13 -92z" />
    <glyph glyph-name="uni0906" unicode="&#x906;" horiz-adv-x="1957" 
d="M752 433q0 -158 -98 -248t-262 -90q-73 0 -139 13.5t-164 50.5l23 144q91 -38 142.5 -52t111.5 -14q98 0 153.5 55.5t55.5 141t-47.5 142.5t-130.5 72q-74 -16 -169 -16v141q169 0 245.5 59t76.5 151q0 73 -47.5 116.5t-137.5 43.5q-48 0 -87 -11t-107 -44l-22 140
q107 57 216 57q167 0 264.5 -80.5t97.5 -224.5q0 -164 -143 -260q33 -20 69 -54h368v472h-206v141h1172v-141h-251v-1138h-177v1138h-361v-1138h-177l1 525h-283q13 -47 13 -92z" />
    <glyph glyph-name="uni0907" unicode="&#x907;" horiz-adv-x="1053" 
d="M386 19q-112 0 -181 39.5t-69 101t42 104.5t104.5 43t107 -29.5t112.5 -112.5v-3q119 1 186 51.5t67 121t-42.5 107.5t-117 37t-120.5 -14.5t-97 -46.5h-21q-109 33 -177 110.5t-68 180.5t81.5 170.5t228.5 67.5h232v189h-685v141h1113v-141h-250v-330h-403
q-70 0 -107.5 -33t-37.5 -91q0 -76 77 -111q105 51 224 51q163 0 255 -79t92 -204.5t-95 -207.5t-258 -97l164 -202l-139 -70l-212 257h-6z" />
    <glyph glyph-name="uni0908" unicode="&#x908;" horiz-adv-x="1053" 
d="M385 19q-112 0 -181 39.5t-69 101t42 104.5t104.5 43t107 -29.5t112.5 -112.5v-3q119 1 186 51.5t67 121t-42.5 107.5t-117 37t-120.5 -14.5t-97 -46.5h-21q-109 33 -177 110.5t-68 180.5t81.5 170.5t228.5 67.5h232v189h-685v141h677q-65 129 -63.5 236.5t74.5 176.5
t198 69q90 0 159 -29l-15 -110q-51 12 -99 13q-66 2 -108.5 -38.5t-42.5 -127t54 -190.5h280v-141h-250v-330h-403q-70 0 -107.5 -33t-37.5 -91q0 -76 77 -111q105 51 224 51q163 0 255 -79t92 -204.5t-95 -207.5t-258 -97l164 -202l-139 -70l-213 257h-6z" />
    <glyph glyph-name="uni0909" unicode="&#x909;" horiz-adv-x="953" 
d="M411 63h-1q-147 0 -331 72l25 144q88 -39 148.5 -54.5t135.5 -15.5q121 0 187.5 56t66.5 162q0 75 -56.5 132.5t-154.5 74.5q-68 -17 -163 -17h-41v147h20q166 0 237.5 54.5t71.5 153.5q0 67 -44.5 113t-123.5 53h-418v141h1013v-141h-321q55 -72 55 -169
q0 -157 -101 -247q89 -45 141.5 -126t52.5 -177q0 -170 -106.5 -263t-292.5 -93z" />
    <glyph glyph-name="uni090A" unicode="&#x90a;" horiz-adv-x="1379" 
d="M810 419q0 -170 -106.5 -263t-292.5 -93q-147 0 -331 72l25 144q88 -39 148.5 -54.5t135.5 -15.5q121 0 187.5 56t66.5 162q0 75 -56.5 132.5t-154.5 74.5q-68 -17 -163 -17h-41v147h20q166 0 237.5 54.5t71.5 153.5q0 67 -44.5 113t-123.5 53h-418v141h1439v-141h-747
q55 -72 55 -169q0 -125 -67 -210q117 62 261 62q164 0 264.5 -97t100.5 -250q0 -180 -129 -343l-166 30q63 88 89.5 160.5t26.5 158.5t-54 144t-143.5 58t-169.5 -51q79 -93 79 -212z" />
    <glyph glyph-name="uni090B" unicode="&#x90b;" horiz-adv-x="1551" 
d="M684 0v455l-440 -268l-93 139l493 292l-76 51q-86 57 -149 85t-122 28q-103 0 -237 -69l-32 158q123 65 270.5 65t311.5 -111l74 -50v363h-714v141h1611v-141h-720v-427q116 5 201 51q-22 32 -29.5 50.5t-7.5 42.5q0 41 39 72t111.5 31t124 -37.5t51.5 -90.5t-50 -103
q-6 -6 -9 -7q153 -154 153 -320q0 -117 -78 -195.5t-197 -78.5q-64 0 -116 12l-13 127q40 -6 75 -6q77 0 120.5 40t43.5 109q0 111 -123 223q-134 -65 -296 -77v-554h-177z" />
    <glyph glyph-name="uni090C" unicode="&#x90c;" horiz-adv-x="1441" 
d="M1234 -43v-2q-149 0 -229 66.5t-80 178.5q0 95 61 154.5t163 72.5q13 73 13 94q0 95 -41 152t-123.5 57t-138 -76.5t-55.5 -230.5v-130h-177v126q0 143 -61 220.5t-150 77.5q-67 0 -112 -54.5t-45 -156t41.5 -198t138.5 -215.5l-144 -60q-212 244 -212 498
q0 150 89.5 247.5t228.5 97.5q99 0 178.5 -39.5t129.5 -109.5q51 71 124.5 110.5t159.5 39.5q32 0 48 -3v263h-1071v141h1501v-141h-251v-333q115 -93 115 -263q0 -87 -43 -237h-47q-155 0 -155 -116q0 -50 41 -79t110.5 -29t125.5 25l19 -121q-61 -27 -152 -27z" />
    <glyph glyph-name="uni090D" unicode="&#x90d;" horiz-adv-x="1120" 
d="M868 4q-341 0 -521.5 193t-180.5 536v404h-196v141h1180v-141h-226v-322q0 -129 -48 -220t-153 -153l-113 100q69 53 103 121t34 170v305h-404v-408q0 -296 135 -439t420 -143l-30 -143v-1zM562 1543q194 0 320 127l30 -133q-125 -143 -346 -143q-104 0 -202.5 42.5
t-168.5 108.5l29 136q71 -67 159 -102.5t179 -35.5z" />
    <glyph glyph-name="uni090E" unicode="&#x90e;" horiz-adv-x="1120" 
d="M165 733v404h-196v141h760v56q0 125 -101 125q-19 0 -101.5 -16t-130.5 -16q-120 0 -233 97l46 112q95 -74 193 -74q34 0 133 23.5t141 23.5q107 0 169 -71.5t62 -195.5v-64h243v-141h-226v-322q0 -129 -48 -220t-153 -153l-113 100q69 53 103 121t34 170v305h-404v-408
q0 -296 135 -439t420 -143l-31 -144q-341 0 -521.5 193t-180.5 536z" />
    <glyph glyph-name="uni090F" unicode="&#x90f;" horiz-adv-x="1120" 
d="M868 4q-341 0 -521.5 193t-180.5 536v404h-196v141h1180v-141h-226v-322q0 -129 -48 -220t-153 -153l-113 100q69 53 103 121t34 170v305h-404v-408q0 -296 135 -439t420 -143l-30 -143v-1z" />
    <glyph glyph-name="uni0910" unicode="&#x910;" horiz-adv-x="1120" 
d="M868 4q-341 0 -521.5 193t-180.5 536v404h-196v141h718l-356 417l135 75l415 -492h268v-141h-226v-322q0 -129 -48 -220t-153 -153l-113 100q69 53 103 121t34 170v305h-404v-408q0 -296 135 -439t420 -143l-30 -143v-1z" />
    <glyph glyph-name="uni0911" unicode="&#x911;" horiz-adv-x="1957" 
d="M752 433q0 -158 -98 -248t-262 -90q-73 0 -139 13.5t-164 50.5l23 144q91 -38 142.5 -52t111.5 -14q98 0 153.5 55.5t55.5 141t-47.5 142.5t-130.5 72q-74 -16 -169 -16v141q169 0 245.5 59t76.5 151q0 73 -47.5 116.5t-137.5 43.5q-48 0 -87 -11t-107 -44l-22 140
q107 57 216 57q167 0 264.5 -80.5t97.5 -224.5q0 -164 -143 -260q33 -20 69 -54h368v472h-206v141h1172v-141h-251v-1138h-177v1138h-361v-1138h-177l1 525h-283q13 -47 13 -92zM1404 1543q194 0 320 127l30 -133q-125 -143 -346 -143q-104 0 -202.5 42.5t-168.5 108.5
l29 136q71 -67 159 -102.5t179 -35.5z" />
    <glyph glyph-name="uni0912" unicode="&#x912;" horiz-adv-x="1957" 
d="M1021 0v525h-283q13 -47 13 -92q0 -158 -98 -248t-262 -90q-73 0 -139 13.5t-164 50.5l23 144q91 -38 142.5 -52t111.5 -14q98 0 153.5 55.5t55.5 141t-47.5 142.5t-130.5 72q-74 -16 -169 -16v141q169 0 245.5 59t76.5 151q0 73 -47.5 116.5t-137.5 43.5q-48 0 -87 -11
t-107 -44l-22 140q106 57 216 57q167 0 264.5 -80.5t97.5 -224.5q0 -164 -143 -260q33 -20 69 -54h368v472h-206v141h744v56q0 125 -101 125q-19 0 -101.5 -16t-130.5 -16q-120 0 -233 97l46 112q95 -74 193 -74q34 0 133 23.5t141 23.5q107 0 169 -71.5t62 -195.5v-64h251
v-141h-251v-1138h-177v1138h-361v-1138h-177z" />
    <glyph glyph-name="uni0913" unicode="&#x913;" horiz-adv-x="1957" 
d="M752 433q0 -158 -98 -248t-262 -90q-73 0 -139 13.5t-164 50.5l23 144q91 -38 142.5 -52t111.5 -14q98 0 153.5 55.5t55.5 141t-47.5 142.5t-130.5 72q-74 -16 -169 -16v141q169 0 245.5 59t76.5 151q0 73 -47.5 116.5t-137.5 43.5q-48 0 -87 -11t-107 -44l-22 140
q107 57 216 57q167 0 264.5 -80.5t97.5 -224.5q0 -164 -143 -260q33 -20 69 -54h368v472h-206v141h707l-356 417l135 75l415 -492h271v-141h-251v-1138h-177v1138h-361v-1138h-177l1 525h-283q13 -47 13 -92z" />
    <glyph glyph-name="uni0914" unicode="&#x914;" horiz-adv-x="1957" 
d="M752 433q0 -158 -98 -248t-262 -90q-73 0 -139 13.5t-164 50.5l23 144q91 -38 142.5 -52t111.5 -14q98 0 153.5 55.5t55.5 141t-47.5 142.5t-130.5 72q-74 -16 -169 -16v141q169 0 245.5 59t76.5 151q0 73 -47.5 116.5t-137.5 43.5q-48 0 -87 -11t-107 -44l-22 140
q107 57 216 57q167 0 264.5 -80.5t97.5 -224.5q0 -164 -143 -260q33 -20 69 -54h368v472h-206v141h608l-436 300l91 117l464 -333l-191 414l133 48l243 -546h260v-141h-251v-1138h-177v1138h-361v-1138h-177l1 525h-283q13 -47 13 -92z" />
    <glyph glyph-name="uni0915" unicode="&#x915;" horiz-adv-x="1532" 
d="M674 265q-95 -74 -253 -74t-265 98.5t-107 262t100 256t268 92.5q130 0 256 -50v288h-704v141h1592v-141h-711v-318q89 41 206 41q164 0 268.5 -97.5t104.5 -249.5q0 -180 -129 -343l-166 30q63 88 89.5 160.5t26.5 158.5t-54 144t-152.5 58t-193.5 -73v-649l-176 -1v266
zM433 759q-96 0 -151.5 -55t-55.5 -148q0 -107 58 -168q52 -55 132 -55q159 0 258 112v247q-113 67 -241 67z" />
    <glyph glyph-name="uni0916" unicode="&#x916;" horiz-adv-x="1698" 
d="M1114 440h1q55 0 97.5 11.5t87.5 44.5v262q-48 32 -91 43t-113 11t-120 -50t-50 -136t55 -136t133 -50zM465 889v249h-495v141h1758v-141h-251v-1138h-177v337q-84 -40 -196 -40q-140 0 -247.5 96.5t-107.5 241.5t97 231.5t231.5 86.5t222.5 -41v226h-658v-272
q0 -307 -233 -370l353 -415l-130 -94l-616 741l123 96l168 -165q83 8 120.5 62.5t37.5 167.5z" />
    <glyph glyph-name="uni0917" unicode="&#x917;" horiz-adv-x="1208" 
d="M810 0v1138h-377v-619q0 -120 -97 -120q-87 0 -165.5 74.5t-78.5 159.5q0 40 31.5 63t87.5 23h45v419h-286v141h1268v-141h-251v-1138h-177z" />
    <glyph glyph-name="uni0918" unicode="&#x918;" horiz-adv-x="1266" 
d="M536 847l44 1h67l11 -141h-83q-264 0 -264 -187q0 -85 65.5 -136.5t175.5 -51.5q180 0 314 96v709h-361q-89 0 -131.5 -37t-42.5 -104t45.5 -108t125.5 -41h34zM867 255q-131 -64 -320.5 -64t-300.5 93.5t-111 251.5t144 243q-124 84 -124 234q0 68 33 125h-218v141h1326
v-141h-251v-1138h-177z" />
    <glyph glyph-name="uni0919" unicode="&#x919;" horiz-adv-x="1219" 
d="M525 180q123 0 191 44t68 113t-42.5 106t-123.5 37q-121 0 -226 -66h-21q-108 33 -176.5 113t-68.5 183t81.5 170.5t228.5 67.5h247v189h-713v141h1279v-141h-388v-330h-418q-147 0 -147 -123q0 -80 82 -116q118 54 235 54q163 0 255 -79t92 -210.5t-113.5 -212
t-306.5 -80.5l-1 -1q-114 0 -233 33.5t-212 85.5l44 147q79 -50 189.5 -87.5t197.5 -37.5zM1148 772v-167h-177v167h177z" />
    <glyph glyph-name="uni091A" unicode="&#x91a;" horiz-adv-x="1315" 
d="M917 0v262q-112 -68 -277 -68t-275 95.5t-110 250.5q0 106 52 178h-260v141h693v-141h-98q-105 -7 -157.5 -59t-52.5 -134.5t58 -130.5t159 -48q153 0 268 99v693h-947v141h1375v-141h-251v-1138h-177z" />
    <glyph glyph-name="uni091B" unicode="&#x91b;" horiz-adv-x="1443" 
d="M553 794l38 1h67l11 -141h-83q-116 0 -176 -53.5t-60 -152.5q0 -116 91 -187.5t247 -71.5l1 1q189 0 314.5 113.5t125.5 306.5q0 90 -36.5 142t-91.5 52q-78 0 -156 -52l-35 139q37 18 60 28q60 27 135 27q14 0 40 -2v193h-528q-90 0 -137 -44t-47 -122.5t50.5 -127.5
t130.5 -49h39zM173 460q0 168 133 259q-69 44 -109.5 113t-40.5 153.5t42 151.5h-228v141h1503v-141h-251v-289q76 -95 76 -250q0 -237 -168 -392t-439 -156v-2q-227 -1 -372.5 112t-145.5 300z" />
    <glyph glyph-name="uni091C" unicode="&#x91c;" horiz-adv-x="1354" 
d="M726 469q0 -163 -99.5 -261t-281.5 -98q-73 0 -137.5 16.5t-146.5 54.5l33 141q71 -38 120 -51t108 -12q108 2 166.5 56.5t58.5 159t-78 173.5t-210 69h-74v141h771v280h-986v141h1414v-141h-251v-1138h-177l1 718h-348q55 -45 86 -110t31 -139z" />
    <glyph glyph-name="uni091D" unicode="&#x91d;" horiz-adv-x="1592" 
d="M387 20q-112 0 -181 39.5t-69 101t42 104.5t104.5 43t107 -29.5t112.5 -112.5v-3q119 1 186 51.5t67 121t-42.5 107.5t-117 37t-120.5 -14.5t-97 -46.5h-21q-109 33 -177 110.5t-68 180.5t81.5 170.5t228.5 67.5h232v189h-685v141h1652v-141h-251v-1138h-177v341h-262
v-10q0 -119 -95 -201t-258 -97l164 -202l-139 -70l-211 260h-6zM585 622v-2q109 0 187.5 -37t118.5 -103h302v656h-361v-330h-403q-70 0 -107.5 -33t-37.5 -91q0 -76 77 -111q105 51 224 51z" />
    <glyph glyph-name="uni091E" unicode="&#x91e;" horiz-adv-x="1460" 
d="M1062 0v522h-269q-13 -148 -113.5 -241t-261.5 -93q-190 0 -364 114l37 141q107 -63 168.5 -81t132.5 -18q102 0 163.5 61t61.5 161.5t-60.5 160.5t-174 60t-228.5 -59l-31 144q124 63 266.5 63t249.5 -73t142 -194h281v470h-1092v141h1520v-141h-251v-1138h-177z" />
    <glyph glyph-name="uni091F" unicode="&#x91f;" horiz-adv-x="1039" 
d="M608 95v-1q-243 0 -385.5 112.5t-142.5 292t123 289t338 109.5h100v240h-671v141h1099v-141h-251v-381h-239q-156 0 -239.5 -70t-83.5 -188t93 -185t247 -67q85 0 136 9.5t129 36.5l15 -152q-75 -25 -130.5 -35t-137.5 -10z" />
    <glyph glyph-name="uni0920" unicode="&#x920;" horiz-adv-x="1191" 
d="M572 220v-1q150 0 236 73t86 195q0 88 -25.5 148.5t-88.5 111.5h-190q-167 0 -254 -68t-87 -191.5t91 -195.5t232 -72zM587 73v-1q-233 0 -372 119.5t-139 301t130.5 289t331.5 107.5h255v249h-823v141h1251v-141h-251v-353q93 -115 94 -296.5t-127.5 -298.5t-349.5 -117
z" />
    <glyph glyph-name="uni0921" unicode="&#x921;" horiz-adv-x="1082" 
d="M525 180q123 0 191 44t68 113t-42.5 106t-123.5 37q-121 0 -226 -66h-21q-108 33 -176.5 113t-68.5 183t81.5 170.5t228.5 67.5h247v189h-713v141h1142v-141h-251v-330h-418q-147 0 -147 -123q0 -80 82 -116q118 54 235 54q163 0 255 -79t92 -210.5t-113.5 -212
t-306.5 -80.5l-1 -1q-114 0 -233 33.5t-212 85.5l44 147q79 -50 189.5 -87.5t197.5 -37.5z" />
    <glyph glyph-name="uni0922" unicode="&#x922;" horiz-adv-x="1084" 
d="M632 45h-1q-252 0 -401.5 125t-149.5 338q0 174 121.5 279t335.5 105h147v246h-715v141h1144v-141h-251v-387h-309q-134 0 -216 -70t-82 -190q0 -149 102 -227t264 -78q98 0 154.5 41t56.5 105q0 105 -139 105q-51 0 -96.5 -22t-109.5 -72l-65 128q118 110 266.5 110
t230 -70t81.5 -177q0 -123 -94.5 -206t-273.5 -83z" />
    <glyph glyph-name="uni0923" unicode="&#x923;" horiz-adv-x="1467" 
d="M352 585.5q40 -56.5 116.5 -56.5t117.5 55t41 161v393h-315v-393q0 -103 40 -159.5zM1069 0v1138h-265v-390q0 -170 -83 -265t-243.5 -95t-251.5 96t-91 265v389h-165v141h1527v-141h-251v-1138h-177z" />
    <glyph glyph-name="uni0924" unicode="&#x924;" horiz-adv-x="1141" 
d="M316 -3l2 -1l-1 1h-1zM514 868h229v270h-773v141h1201v-141h-251v-1138h-177v727h-190q-132 0 -203 -68t-71 -176.5t42 -209t139 -215.5l-143 -61q-103 116 -159 247t-55 261q1 168 109 265.5t302 97.5z" />
    <glyph glyph-name="uni0925" unicode="&#x925;" horiz-adv-x="1251" 
d="M854 291q-111 -60 -241.5 -60t-231 45t-183.5 147t-131 255l5 37q430 17 430 259q0 72 -39 112t-100 40t-94.5 -36.5t-33.5 -95.5q0 -26 12 -79l-134 -19q-24 64 -22 141q3 99 75 163t184 64q137 0 218 -80.5t81 -197.5t-55 -202q-105 -163 -326 -184q43 -105 133 -165.5
t196 -60.5q153 0 256 90v674h-102v141h530v-141h-251v-1138h-177z" />
    <glyph glyph-name="uni0926" unicode="&#x926;" horiz-adv-x="1051" 
d="M646 145l-49 -1q-220 0 -361 110t-141 293q0 158 119 254.5t312 96.5h128v240h-683v141h1111v-141h-251v-381h-275q-139 0 -213 -62t-74 -167t84.5 -172.5t209.5 -67.5q10 0 18 1q-6 23 -6 51q1 49 39 82t118.5 33t132.5 -44.5t52 -101.5q0 -94 -117 -136l119 -305
l-163 -31z" />
    <glyph glyph-name="uni0927" unicode="&#x927;" horiz-adv-x="1277" 
d="M548 848l44 1h67l11 -141h-83q-265 0 -265 -187q0 -85 66 -137t176 -52q177 0 315 98v708h-102v141h530v-141h-251v-1138h-178v262q-136 -73 -323.5 -73t-299 95t-111.5 251.5t141 242.5q-76 44 -123 112.5t-47 150.5q0 108 80.5 179.5t215.5 71.5q102 0 179 -37
l-20 -123q-38 15 -63.5 19t-71.5 4q-68 0 -106 -36t-38 -102t67 -117.5t156 -51.5h34z" />
    <glyph glyph-name="uni0928" unicode="&#x928;" horiz-adv-x="1118" 
d="M720 0v659h-367v-146q0 -119 -100 -119q-68 0 -124 82.5t-56 190.5q0 138 169 138h478v333h-750v141h1178v-141h-251v-1138h-177z" />
    <glyph glyph-name="uni0929" unicode="&#x929;" horiz-adv-x="1118" 
d="M390 78v-162h-177v162h177zM720 0v659h-367v-146q0 -119 -100 -119q-68 0 -124 82.5t-56 190.5q0 138 169 138h478v333h-750v141h1178v-141h-251v-1138h-177z" />
    <glyph glyph-name="uni092A" unicode="&#x92a;" horiz-adv-x="1094" 
d="M696 1139h-390v-351q0 -121 47.5 -177.5t132.5 -56.5l1 1q128 0 209 76v508zM696 0v459q-83 -46 -206 -46q-166 0 -263.5 104t-97.5 309v312h-159v141h1154v-141h-251v-1138h-177z" />
    <glyph glyph-name="uni092B" unicode="&#x92b;" horiz-adv-x="1554" 
d="M874 1h-176v459q-83 -46 -206 -46q-166 0 -263.5 104t-97.5 309v312h-159v141h1614v-141h-711v-319q95 42 213 42q164 0 264.5 -97t100.5 -250q0 -180 -129 -343l-166 30q63 88 89.5 160.5t26.5 158.5t-54 144t-152.5 58t-193.5 -73v-649zM696 1139h-390v-351
q0 -121 47.5 -177.5t132.5 -56.5l1 1q128 0 209 76v508z" />
    <glyph glyph-name="uni092C" unicode="&#x92c;" horiz-adv-x="1115" 
d="M477 358q33 0 67 6l-216 393q-84 -61 -84 -171.5t63.5 -169t169.5 -58.5zM717 0v277q-98 -63 -242 -63q-179 0 -294 109t-115 267.5t106.5 256.5t293.5 98q136 0 251 -51v244h-747v141h1175v-141h-251v-1138h-177zM717 738q-100 66 -229 66q-29 0 -50 -4l220 -397
q35 20 59 44v291z" />
    <glyph glyph-name="uni092D" unicode="&#x92d;" horiz-adv-x="1147" 
d="M749 0v542h-327v-54q0 -120 -97 -120q-87 0 -165.5 74.5t-78.5 159.5q0 40 31.5 63t87.5 23h45v277q0 88 -30.5 131.5t-74 42.5t-65.5 -8t-62 -30l-27 138q73 47 169 47q122 0 194.5 -83t72.5 -244v-270h327v449h-101v141h529v-141h-251v-1138h-177z" />
    <glyph glyph-name="uni092E" unicode="&#x92e;" horiz-adv-x="1179" 
d="M781 0v543h-359v-54q0 -120 -97 -120q-87 0 -165.5 74.5t-78.5 159.5q0 40 31.5 63t87.5 23h45v449h-275v141h1239v-141h-251v-1138h-177zM781 1138h-359v-449h359v449z" />
    <glyph glyph-name="uni092F" unicode="&#x92f;" horiz-adv-x="1187" 
d="M555 434h1q78 0 129.5 17.5t103.5 61.5v625h-367q39 -45 62 -104t23 -118q0 -108 -68.5 -188.5t-171.5 -98.5q44 -95 119 -145t169 -50zM566 286q-169 0 -299.5 99.5t-201.5 301.5l5 31q142 18 208 70.5t66 139.5q0 60 -26.5 110t-88.5 100h-259v141h1247v-141h-251
v-1138h-177l-1 334q-92 -48 -222 -48z" />
    <glyph glyph-name="uni0930" unicode="&#x930;" horiz-adv-x="849" 
d="M465 889v249h-495v141h909v-141h-237v-272q0 -307 -233 -370l353 -415l-130 -94l-616 741l123 96l168 -165q83 8 120.5 62.5t37.5 167.5z" />
    <glyph glyph-name="uni0931" unicode="&#x931;" horiz-adv-x="861" 
d="M240 78v-162h-177v162h177zM465 889v249h-495v141h909v-141h-237v-272q0 -307 -233 -370l353 -415l-130 -94l-616 741l123 96l168 -165q83 8 120.5 62.5t37.5 167.5z" />
    <glyph glyph-name="uni0932" unicode="&#x932;" horiz-adv-x="1526" 
d="M1126 0v686q-61 50 -140.5 50t-130.5 -77t-51 -232v-130h-177v126q0 143 -61 220.5t-150 77.5q-67 0 -112 -54.5t-45 -156t41.5 -198t138.5 -215.5l-144 -60q-212 244 -212 498q0 150 89.5 247.5t228.5 97.5q98 0 176.5 -38t129.5 -108q49 70 119.5 109.5t148.5 39.5
t151 -29v284h-1156v141h1586v-141h-251v-1138h-179z" />
    <glyph glyph-name="uni0933" unicode="&#x933;" horiz-adv-x="1568" 
d="M305 287q59 -70 156 -70t154 69t57 208q0 269 -221 269q-93 0 -149 -69.5t-56 -203t59 -203.5zM1240 695.5q-56 68.5 -147.5 68.5t-147.5 -67t-56 -201.5t56 -203.5t149.5 -69t147.5 72t54 202t-56 198.5zM1102 82q-98 0 -182.5 41t-137.5 117q-42 -71 -123 -112
t-196 -44q-170 -4 -275.5 110.5t-105.5 301.5t98 295t272 108q105 0 189 -44.5t136 -118.5q50 77 132.5 120t172.5 43q39 0 86 -7v246h-1198v141h1628v-141h-251v-332q116 -110 116 -303t-99.5 -307t-261.5 -114z" />
    <glyph glyph-name="uni0934" unicode="&#x934;" horiz-adv-x="1568" 
d="M405 -22v-162h-177v162h177zM305 287q59 -70 156 -70t154 69t57 208q0 269 -221 269q-93 0 -149 -69.5t-56 -203t59 -203.5zM1240 695.5q-56 68.5 -147.5 68.5t-147.5 -67t-56 -201.5t56 -203.5t149.5 -69t147.5 72t54 202t-56 198.5zM1102 82q-98 0 -182.5 41
t-137.5 117q-42 -71 -123 -112t-196 -44q-170 -4 -275.5 110.5t-105.5 301.5t98 295t272 108q105 0 189 -44.5t136 -118.5q50 77 132.5 120t172.5 43q39 0 86 -7v246h-1198v141h1628v-141h-251v-332q116 -110 116 -303t-99.5 -307t-261.5 -114z" />
    <glyph glyph-name="uni0935" unicode="&#x935;" horiz-adv-x="1115" 
d="M476 358q148 0 241 89v291q-100 66 -219 66t-187 -59.5t-68 -164.5t63.5 -163.5t169.5 -58.5zM717 0v277q-98 -63 -242 -63q-179 0 -294 109t-115 267.5t106.5 256.5t293.5 98q136 0 251 -51v244h-747v141h1175v-141h-251v-1138h-177z" />
    <glyph glyph-name="uni0936" unicode="&#x936;" horiz-adv-x="1445" 
d="M391 383q-60 -18 -118 -18t-97 32.5t-39 104.5t46.5 123t109.5 51q78 0 139 -80q104 42 158 122.5t54 190.5t-53.5 173t-132 63t-123.5 -47.5t-44 -123.5q0 -46 16 -102l-136 -27q-35 77 -35 161q0 125 87.5 205t237 80t248.5 -106t99 -284q0 -140 -79 -261.5
t-202 -196.5l263 -360l-143 -75zM1046 0v1138h-101v141h530v-141h-251v-1138h-178z" />
    <glyph glyph-name="uni0937" unicode="&#x937;" horiz-adv-x="1094" 
d="M486 554v1q62 0 112 17l-292 528v-312q0 -121 47.5 -177.5t132.5 -56.5zM696 1138h-278l278 -499v499zM696 0v459q-83 -46 -206 -46q-166 0 -263.5 104t-97.5 309v312h-159v141h1154v-141h-251v-1138h-177z" />
    <glyph glyph-name="uni0938" unicode="&#x938;" horiz-adv-x="1349" 
d="M429 889v249h-459v141h1409v-141h-251v-1138h-177v531h-494q-30 -19 -72 -31l301 -427l-138 -78l-535 754l120 86l166 -177q68 16 99 72t31 159zM606 866q0 -112 -32 -194h377v466h-345v-272z" />
    <glyph glyph-name="uni0939" unicode="&#x939;" horiz-adv-x="1080" 
d="M149 218q0 133 95 231q-140 106 -140 247q0 110 85.5 177.5t227.5 67.5h264v197h-711v141h1140v-141h-251v-338h-424q-75 0 -115 -33t-40 -89q0 -89 96 -141q80 33 178 33q166 0 275.5 -93t109.5 -216q0 -69 -27 -158l-165 15q18 67 18 136t-54 118.5t-154.5 49.5
t-165.5 -63t-65 -160q0 -72 27 -126t86 -95q120 -82 397 -82l-19 -141q-330 0 -499 125.5t-169 337.5z" />
    <glyph glyph-name="uni093A" unicode="&#x93a;" 
d="M-399 1462h177v-287h-177v287z" />
    <glyph glyph-name="uni093B" unicode="&#x93b;" horiz-adv-x="564" 
d="M166 0v1138h-196v141h194v183h177v-183h253v-141h-251v-1138h-177z" />
    <glyph glyph-name="uni093C" unicode="&#x93c;" 
d="M-685 78v-162h-177v162h177z" />
    <glyph glyph-name="uni093D" unicode="&#x93d;" horiz-adv-x="1025" 
d="M501 83q-109 0 -191 22.5t-194 84.5l35 151q100 -56 179.5 -79t169 -23t143 46t53.5 134q0 159 -256 256q-311 118 -311 338q0 121 84 193.5t238 72.5h378v-141h-368q-78 0 -116.5 -36t-38.5 -96.5t49.5 -103.5t184.5 -96q332 -131 332 -395l-1 -1q0 -149 -102.5 -238
t-267.5 -89z" />
    <glyph glyph-name="uni093E" unicode="&#x93e;" horiz-adv-x="564" 
d="M166 0v1138h-196v141h624v-141h-251v-1138h-177z" />
    <glyph glyph-name="uni093F" unicode="&#x93f;" horiz-adv-x="564" 
d="M-29 1138v141h196v41q0 182 140.5 292.5t426.5 110.5q139 0 317.5 -39.5t314.5 -102.5l-31 -124q-140 57 -298 89t-294 32q-203 0 -301.5 -73t-98.5 -198v-28h251v-141h-251v-1138h-177l1 1138h-196z" />
    <glyph glyph-name="uni0940" unicode="&#x940;" horiz-adv-x="564" 
d="M-29 1138v141h175q-65 137 -149 214.5t-171 77.5q-119 0 -119 -120q0 -54 23 -111.5t62 -104.5h-181q-29 43 -49.5 107.5t-20.5 133.5q0 108 69.5 172t194.5 64q160 0 288 -106t231 -327h270v-141h-251v-1138h-177l1 1138h-196z" />
    <glyph glyph-name="uni0941" unicode="&#x941;" 
d="M-330 42q162 0 248 -78.5t86 -201.5t-89 -195t-257 -73q-250 -2 -485 192l62 136q116 -98 222 -141.5t195.5 -43.5t139.5 35.5t50 98.5q0 127 -175 127q-100 0 -193 -55l-40 132q51 32 115.5 49.5t120.5 17.5z" />
    <glyph glyph-name="uni0942" unicode="&#x942;" 
d="M-285 -512q-150 0 -247 77t-97 198.5t84.5 194t234.5 72.5t287.5 -92t252.5 -282l-96 -99q-210 329 -435 329q-80 0 -122.5 -36.5t-42.5 -98.5t49 -96.5t131 -34.5t139 17l18 -131q-55 -18 -156 -18z" />
    <glyph glyph-name="uni0943" unicode="&#x943;" 
d="M-313 -496q-156 0 -243 76t-87 196t87 191t223 71h113v-129h-74q-91 0 -137.5 -39t-46.5 -102t45 -101t118 -38t153 29l18 -120q-63 -34 -169 -34z" />
    <glyph glyph-name="uni0944" unicode="&#x944;" 
d="M-137 -599l2 1q-1 0 -2 -1zM-137 -599q-77 -32 -156 -32q-115 0 -180 53.5t-65 140.5q0 59 44 101q-53 30 -82.5 75.5t-29.5 96.5q0 89 77.5 146t196.5 57h113v-129h-64q-93 0 -128.5 -20t-35.5 -62t36.5 -65t98 -23t126.5 15l24 -105q-71 -29 -155 -29h-10
q-72 -15 -72 -70q0 -70 105 -70q56 0 135 25z" />
    <glyph glyph-name="uni0945" unicode="&#x945;" 
d="M-597 1543q194 0 320 127l30 -133q-125 -143 -346 -143q-104 0 -202.5 42.5t-168.5 108.5l29 136q71 -67 159 -102.5t179 -35.5z" />
    <glyph glyph-name="uni0946" unicode="&#x946;" 
d="M-221 1221h-178v114q0 125 -101 125q-19 0 -101.5 -16t-130.5 -16q-120 0 -233 97l46 112q95 -74 193 -74q34 0 133 23.5t141 23.5q107 0 169 -71.5t62 -195.5v-122z" />
    <glyph glyph-name="uni0947" unicode="&#x947;" 
d="M-197 1221h-194l-405 475l135 75z" />
    <glyph glyph-name="uni0948" unicode="&#x948;" 
d="M-462 1221l-520 358l91 117l464 -333l-191 414l133 48l269 -604h-246z" />
    <glyph glyph-name="uni0949" unicode="&#x949;" horiz-adv-x="564" 
d="M166 0v1138h-196v141h624v-141h-251v-1138h-177zM251 1544q194 0 320 127l30 -133q-125 -143 -346 -143q-104 0 -202.5 42.5t-168.5 108.5l29 136q71 -67 159 -102.5t179 -35.5z" />
    <glyph glyph-name="uni094A" unicode="&#x94a;" horiz-adv-x="564" 
d="M-31 1138v141h196v56q0 125 -101 125q-19 0 -101.5 -16t-130.5 -16q-120 0 -233 97l46 112q95 -74 193 -74q34 0 133 23.5t141 23.5q107 0 169 -71.5t62 -195.5v-64h251v-141h-251v-1138h-177l-1 1138h-196z" />
    <glyph glyph-name="uni094B" unicode="&#x94b;" horiz-adv-x="564" 
d="M166 0v1138h-196v141h152l-356 417l135 75l415 -492h278v-141h-251v-1138h-177z" />
    <glyph glyph-name="uni094C" unicode="&#x94c;" horiz-adv-x="564" 
d="M166 0v1138h-196v141h56l-436 300l91 117l464 -333l-191 414l133 48l243 -546h264v-141h-251v-1138h-177z" />
    <glyph glyph-name="uni094D" unicode="&#x94d;" 
d="M-467 -221l73 130l472 -251l-72 -127z" />
    <glyph glyph-name="uni094E" unicode="&#x94e;" horiz-adv-x="564" 
d="M166 0v1279h427v-141h-250v-1138h-177z" />
    <glyph glyph-name="uni094F" unicode="&#x94f;" horiz-adv-x="564" 
d="M-33 1138v141h114q-36 57 -69 76t-70.5 19t-108 -14.5t-100.5 -14.5q-113 0 -218 78l38 106q80 -58 164 -58q27 0 113 20.5t122 20.5q143 0 231 -132v122q0 45 -23 71.5t-55 26.5t-98 -12.5t-99 -12.5q-124 0 -221 94l47 105q52 -44 90 -58.5t78 -14.5t122 18.5t120 18.5
q90 0 144.5 -59.5t54.5 -170.5v-229h251v-141h-251v-1138h-177l-3 1138h-196z" />
    <glyph glyph-name="uni0950" unicode="&#x950;" horiz-adv-x="1854" 
d="M461 94v2q-73 0 -139 13.5t-164 50.5l23 144q91 -38 142.5 -52t111.5 -14q98 0 153.5 55.5t55.5 141t-47.5 142.5t-130.5 72q-74 -16 -169 -16v141q169 0 245.5 59t76.5 151q0 73 -47.5 116.5t-137.5 43.5q-48 0 -87 -11t-107 -44l-22 140q106 57 216 57
q167 0 264.5 -80.5t97.5 -224.5q0 -164 -143 -260q75 -45 120 -117t48 -160q21 -5 64 -5q127 0 169 185.5t126 269t212 83.5q144 0 231.5 -103t87.5 -265.5t-85.5 -263t-231.5 -100.5q-73 0 -163 29l21 129q71 -22 127 -22q75 0 120 56t45 172.5t-39 173t-103 56.5
t-111.5 -59.5t-67.5 -164.5q-32 -166 -110 -241.5t-211 -75.5q-50 0 -100 10q-34 -102 -123.5 -158t-217.5 -56zM1171 1225q194 0 320 127l30 -133q-125 -143 -346 -143q-104 0 -202.5 42.5t-168.5 108.5l29 136q71 -67 159 -102.5t179 -35.5zM1252 1522v-182h-177v182h177z
" />
    <glyph glyph-name="uni0951" unicode="&#x951;" 
d="M-399 1703h177v-287h-177v287z" />
    <glyph glyph-name="uni0952" unicode="&#x952;" 
d="M-219 -213h-706v136h706v-136z" />
    <glyph glyph-name="uni0953" unicode="&#x953;" 
d="M-364 1801l137 -381h-157l-218 381h238z" />
    <glyph glyph-name="uni0954" unicode="&#x954;" 
d="M-392 1420l138 381h235l-216 -381h-157z" />
    <glyph glyph-name="uni0955" unicode="&#x955;" 
d="M-228 1380h-706v136h706v-136zM-926 1842q148 -123 339.5 -123t318.5 113l30 -118q-127 -127 -346 -127q-104 0 -202.5 38t-168.5 96z" />
    <glyph glyph-name="uni0956" unicode="&#x956;" 
d="M116 -190q-157 -136 -393.5 -136t-421.5 130l48 127q160 -114 365.5 -114t345.5 118z" />
    <glyph glyph-name="uni0957" unicode="&#x957;" 
d="M139 -428q-162 -121 -412.5 -121t-442.5 116l50 113q168 -102 384.5 -102t362.5 105zM116 -183q-157 -124 -395.5 -124t-419.5 119l48 116q161 -105 365.5 -105t345.5 109z" />
    <glyph glyph-name="uni0958" unicode="&#x958;" horiz-adv-x="1532" 
d="M270 77v-162h-177v162h177zM674 265q-95 -74 -253 -74t-265 98.5t-107 262t100 256t268 92.5q130 0 256 -50v288h-704v141h1592v-141h-711v-318q89 41 206 41q164 0 268.5 -97.5t104.5 -249.5q0 -180 -129 -343l-166 30q63 88 89.5 160.5t26.5 158.5t-54 144t-152.5 58
t-193.5 -73v-649l-176 -1v266zM433 759q-96 0 -151.5 -55t-55.5 -148q0 -107 58 -168q52 -55 132 -55q159 0 258 112v247q-113 67 -241 67z" />
    <glyph glyph-name="uni0959" unicode="&#x959;" horiz-adv-x="1698" 
d="M351 78v-162h-177v162h177zM1114 440h1q55 0 97.5 11.5t87.5 44.5v262q-48 32 -91 43t-113 11t-120 -50t-50 -136t55 -136t133 -50zM465 889v249h-495v141h1758v-141h-251v-1138h-177v337q-84 -40 -196 -40q-140 0 -247.5 96.5t-107.5 241.5t97 231.5t231.5 86.5
t222.5 -41v226h-658v-272q0 -307 -233 -370l353 -415l-130 -94l-616 741l123 96l168 -165q83 8 120.5 62.5t37.5 167.5z" />
    <glyph glyph-name="uni095A" unicode="&#x95a;" horiz-adv-x="1208" 
d="M400 78v-162h-177v162h177zM810 0v1138h-377v-619q0 -120 -97 -120q-87 0 -165.5 74.5t-78.5 159.5q0 40 31.5 63t87.5 23h45v419h-286v141h1268v-141h-251v-1138h-177z" />
    <glyph glyph-name="uni095B" unicode="&#x95b;" horiz-adv-x="1354" 
d="M316 0v-162h-177v162h177zM726 469q0 -163 -99.5 -261t-281.5 -98q-73 0 -137.5 16.5t-146.5 54.5l33 141q71 -38 120 -51t108 -12q108 2 166.5 56.5t58.5 159t-78 173.5t-210 69h-74v141h771v280h-986v141h1414v-141h-251v-1138h-177l1 718h-348q55 -45 86 -110t31 -139
z" />
    <glyph glyph-name="uni095C" unicode="&#x95c;" horiz-adv-x="1082" 
d="M649 -103v-162h-177v162h177zM525 180q123 0 191 44t68 113t-42.5 106t-123.5 37q-121 0 -226 -66h-21q-108 33 -176.5 113t-68.5 183t81.5 170.5t228.5 67.5h247v189h-713v141h1142v-141h-251v-330h-418q-147 0 -147 -123q0 -80 82 -116q118 54 235 54q163 0 255 -79
t92 -210.5t-113.5 -212t-306.5 -80.5l-1 -1q-114 0 -233 33.5t-212 85.5l44 147q79 -50 189.5 -87.5t197.5 -37.5z" />
    <glyph glyph-name="uni095D" unicode="&#x95d;" horiz-adv-x="1084" 
d="M679 -102v-162h-177v162h177zM632 45h-1q-252 0 -401.5 125t-149.5 338q0 174 121.5 279t335.5 105h147v246h-715v141h1144v-141h-251v-387h-309q-134 0 -216 -70t-82 -190q0 -149 102 -227t264 -78q98 0 154.5 41t56.5 105q0 105 -139 105q-51 0 -96.5 -22t-109.5 -72
l-65 128q118 110 266.5 110t230 -70t81.5 -177q0 -123 -94.5 -206t-273.5 -83z" />
    <glyph glyph-name="uni095E" unicode="&#x95e;" horiz-adv-x="1554" 
d="M392 79v-162h-177v162h177zM874 1h-176v459q-83 -46 -206 -46q-166 0 -263.5 104t-97.5 309v312h-159v141h1614v-141h-711v-319q95 42 213 42q164 0 264.5 -97t100.5 -250q0 -180 -129 -343l-166 30q63 88 89.5 160.5t26.5 158.5t-54 144t-152.5 58t-193.5 -73v-649z
M696 1139h-390v-351q0 -121 47.5 -177.5t132.5 -56.5l1 1q128 0 209 76v508z" />
    <glyph glyph-name="uni095F" unicode="&#x95f;" horiz-adv-x="1187" 
d="M430 78v-162h-177v162h177zM555 434h1q78 0 129.5 17.5t103.5 61.5v625h-367q39 -45 62 -104t23 -118q0 -108 -68.5 -188.5t-171.5 -98.5q44 -95 119 -145t169 -50zM566 286q-169 0 -299.5 99.5t-201.5 301.5l5 31q142 18 208 70.5t66 139.5q0 60 -26.5 110t-88.5 100
h-259v141h1247v-141h-251v-1138h-177l-1 334q-92 -48 -222 -48z" />
    <glyph glyph-name="uni0960" unicode="&#x960;" horiz-adv-x="1551" 
d="M296 784q-103 0 -237 -69l-32 158q123 65 270.5 65t311.5 -111l74 -50v363h-714v141h1611v-141h-720v-427q116 5 201 51q-22 32 -29.5 50.5t-7.5 42.5q0 41 39 72t111.5 31t124 -37.5t51.5 -90.5t-50 -103q-10 -11 -21 -18l139 -248l-5 -46q-153 -48 -183 -96
q-12 -20 -12 -48q0 -45 28 -68.5t81 -23.5t106 18l15 -128q-75 -19 -133 -19q-117 0 -187.5 62t-70.5 165q0 134 174 209l-82 139q-134 -61 -288 -73v-554l-178 2v455l-440 -268l-93 139l493 292l-76 51q-86 57 -149 85t-122 28z" />
    <glyph glyph-name="uni0961" unicode="&#x961;" horiz-adv-x="1441" 
d="M1248 -237q-115 0 -180 53.5t-65 140.5q0 59 44 101q-53 30 -82.5 75.5t-29.5 96.5q0 79 62.5 134t162.5 66q3 84 3 93q0 95 -41 152t-123.5 57t-138 -76.5t-55.5 -230.5v-130h-177v126q0 143 -61 220.5t-150 77.5q-67 0 -112 -54.5t-45 -156t41.5 -198t138.5 -215.5
l-144 -60q-212 244 -212 498q0 150 89.5 247.5t228.5 97.5q99 0 178.5 -39.5t129.5 -109.5q51 71 124.5 110.5t159.5 39.5q32 0 48 -3v263h-1071v141h1501v-141h-251v-333q115 -93 115 -263q0 -110 -31 -238h-47q-93 0 -128.5 -20t-35.5 -62t36.5 -65t98 -23t126.5 15
l24 -105q-71 -29 -155 -29h-10q-72 -15 -72 -70q0 -70 105 -70q56 0 135 25l22 -105h2q-77 -33 -158 -33z" />
    <glyph glyph-name="uni0962" unicode="&#x962;" 
d="M-10 -356h-1q-84 0 -134.5 32t-50.5 77.5t33 74t82 37.5q2 18 2 26q0 33 -20.5 53t-59.5 20t-59.5 -28.5t-20.5 -69.5v-66h-155v64q0 42 -25.5 72t-64 30t-59.5 -20.5t-21 -53.5q0 -77 108 -193l-118 -32q-121 121 -121 238q0 72 53.5 118.5t149 46.5t171.5 -56
q71 56 166.5 56t149.5 -49.5t54 -124.5q0 -48 -17 -93h-30q-81 0 -81 -47q0 -20 20.5 -31.5t49 -11.5t83.5 12l13 -67q-40 -14 -97 -14z" />
    <glyph glyph-name="uni0963" unicode="&#x963;" 
d="M8 -443v1q-72 0 -111.5 24.5t-39.5 64.5q0 26 21 45q-63 28 -63 81q0 37 31 62t84 31q2 18 2 26q0 33 -20.5 53t-59.5 20t-59.5 -28.5t-20.5 -70.5v-66h-155v64q0 43 -25.5 72.5t-64.5 29.5t-59.5 -20t-20.5 -54q0 -77 108 -193l-118 -32q-121 123 -121 238
q0 72 53.5 118.5t150 46.5t170.5 -56q69 56 165.5 56t150.5 -49.5t54 -124.5q0 -48 -17 -93h-30q-44 0 -62.5 -7.5t-18.5 -25.5q0 -34 65 -34q26 0 70 7l16 -57q-34 -13 -89 -13q-32 -6 -32 -26q0 -14 14 -22t41.5 -8t66.5 12l16 -58q-46 -14 -92 -14z" />
    <glyph glyph-name="uni0964" unicode="&#x964;" horiz-adv-x="797" 
d="M487 -157h-177v1538h177v-1538z" />
    <glyph glyph-name="uni0965" unicode="&#x965;" horiz-adv-x="1167" 
d="M857 -157h-177v1538h177v-1538zM487 -157h-177v1538h177v-1538z" />
    <glyph glyph-name="uni0966" unicode="&#x966;" horiz-adv-x="1087" 
d="M360 446.5q75 -81.5 187 -81.5t183.5 80t71.5 212t-73 214t-188 82t-185.5 -82t-70.5 -212.5t75 -212zM227.5 970.5q119.5 123.5 313.5 123.5t316 -122.5t122 -313.5t-120 -312.5t-312.5 -121.5t-315.5 121t-123 311.5t119.5 314z" />
    <glyph glyph-name="uni0967" unicode="&#x967;" horiz-adv-x="852" 
d="M252 960q0 -88 70 -139.5t197 -56.5q52 49 72 92t20 108t-52 117t-129.5 52t-127.5 -50t-50 -123zM554 22v48q0 52 -10.5 74.5t-50.5 45.5l-361 213l-3 36l254 211q-136 26 -217.5 112.5t-81.5 211t94.5 213t247 88.5t249.5 -93.5t97 -223.5q0 -93 -40 -167t-159 -178
l-204 -178l238 -142q63 -38 89.5 -84t26.5 -122v-65h-169z" />
    <glyph glyph-name="uni0968" unicode="&#x968;" horiz-adv-x="901" 
d="M367 400q-52 -15 -110.5 -15t-97.5 32.5t-39 104t47.5 123t108.5 51.5q81 0 152 -89q90 36 143.5 107.5t53.5 166.5t-76 163t-191 68q-67 0 -112.5 -10.5t-116.5 -38.5l-26 147q120 55 256 55q198 0 318 -109t120 -283q0 -131 -80.5 -240.5t-204.5 -175.5l273 -382
l-143 -80z" />
    <glyph glyph-name="uni0969" unicode="&#x969;" horiz-adv-x="912" 
d="M356 199q-112 0 -181 39.5t-69 101t42 104.5t100.5 43t104 -28t107.5 -100q69 9 106 51.5t37 110.5t-46.5 116t-135.5 60q-45 -9 -109 -9h-65v141h19q151 0 227 44.5t76 113.5t-47 106t-138 37q-49 0 -93 -12t-111 -44l-22 140q106 57 226 57q169 0 265.5 -77.5
t96.5 -207.5t-127 -215q76 -43 119 -112.5t43 -148.5q0 -109 -65.5 -188t-171.5 -109l166 -205l-139 -70l-209 261h-6z" />
    <glyph glyph-name="uni096A" unicode="&#x96a;" horiz-adv-x="1009" 
d="M421.5 273.5q42.5 -36.5 105.5 -36.5t101.5 35.5t38.5 88.5t-28.5 94t-120.5 97q-139 -81 -139 -179q0 -63 42.5 -99.5zM522 93v-1q-136 0 -225.5 81t-89.5 196q0 145 170 267q-117 81 -197 194t-80 240q0 99 39 187l160 -45q-30 -72 -30 -160q0 -49 24.5 -99.5
t64.5 -92.5q72 -77 162 -135q152 91 204.5 164.5t52.5 164.5q0 48 -5.5 79.5t-25.5 87.5l153 28q41 -110 41 -187q0 -251 -280 -430q169 -128 169 -272q0 -121 -83 -194t-224 -73z" />
    <glyph glyph-name="uni096B" unicode="&#x96b;" horiz-adv-x="982" 
d="M499 380q-111 0 -204 48.5t-149.5 139.5t-56.5 206q0 145 89.5 274.5t263.5 225.5l121 -107q-157 -86 -230 -191t-73 -212t66 -168.5t163 -61.5q46 0 89 8q-14 24 -18 40.5t-4 46.5q0 56 40 93t115.5 37t130.5 -44t55 -102q0 -90 -101 -158l186 -399l-147 -65l-183 406
q-71 -17 -153 -17z" />
    <glyph glyph-name="uni096C" unicode="&#x96c;" horiz-adv-x="927" 
d="M527 181q-169 0 -279 85.5t-110 234.5q0 180 158 265q-140 75 -140 228q0 128 93 199t244 71t274 -48l-23 -133q-109 39 -209 39t-150 -39t-50 -104.5t52 -106t140 -45.5q41 4 99 4h64v-141h-55q-171 0 -244.5 -50.5t-73.5 -138t55.5 -132t129.5 -44.5q2 0 41 3
q-18 39 -18 80t32.5 67.5t90.5 26.5q84 0 150 -41t66 -104q0 -32 -21.5 -65t-64.5 -58l113 -214l-147 -63l-119 230q-43 -6 -98 -6z" />
    <glyph glyph-name="uni096D" unicode="&#x96d;" horiz-adv-x="1130" 
d="M258 280q-65 71 -102 181t-37 250t40.5 280.5t110.5 256.5l159 -44q-64 -107 -103.5 -249.5t-39.5 -252.5q0 -212 88.5 -319t224.5 -107t214 105q-173 28 -271.5 124t-98.5 226.5t78 211t204 80.5q148 0 239 -98t91 -265q0 -231 -126.5 -378t-330.5 -147t-340 145z
M874 507q19 73 19 171.5t-42.5 151.5t-104 53t-100 -41.5t-38.5 -112.5q0 -77 59 -135q63 -62 207 -87z" />
    <glyph glyph-name="uni096E" unicode="&#x96e;" horiz-adv-x="914" 
d="M272 529q0 -102 71 -160t188 -57q85 1 138.5 12t134.5 42l20 -153q-80 -29 -145 -40.5t-170.5 -11.5t-200 46t-151.5 133t-57 198q0 189 202 385l358 347l122 -99l-358 -356q-152 -149 -152 -286z" />
    <glyph glyph-name="uni096F" unicode="&#x96f;" horiz-adv-x="921" 
d="M452 1134q-83 0 -135 -57.5t-52 -153.5q0 -52 21 -93q20 -43 89 -116q127 9 196.5 71t72.5 162q2 82 -53.5 134.5t-138.5 52.5zM623 32v85q0 66 -25.5 115t-80.5 104l-269 273q-155 158 -155 326q0 149 97.5 247t248.5 98q170 0 272 -97t102 -237t-85.5 -238.5
t-233.5 -118.5l176 -185q127 -133 127 -274v-98h-174z" />
    <glyph glyph-name="uni0970" unicode="&#x970;" horiz-adv-x="751" 
d="M477 780q-44 46 -110 46t-110.5 -46t-44.5 -118.5t44.5 -118.5t109 -46t110 45.5t45.5 118.5t-44 119zM370 364q-130 0 -220 87.5t-90 215t85 210t217.5 82.5t222 -86t89.5 -214t-87 -211.5t-217 -83.5z" />
    <glyph glyph-name="uni0971" unicode="&#x971;" horiz-adv-x="687" 
d="M425 1292v-182h-177v182h177z" />
    <glyph glyph-name="uni0972" unicode="&#x972;" horiz-adv-x="1419" 
d="M752 433q0 -158 -98 -248t-262 -90q-73 0 -139 13.5t-164 50.5l23 144q91 -38 142.5 -52t111.5 -14q98 0 153.5 55.5t55.5 141t-47.5 142.5t-130.5 72q-74 -16 -169 -16v141q169 0 245.5 59t76.5 151q0 73 -47.5 116.5t-137.5 43.5q-48 0 -87 -11t-107 -44l-22 140
q107 57 216 57q167 0 264.5 -80.5t97.5 -224.5q0 -164 -143 -260q33 -20 69 -54h368v472h-206v141h634v-141h-251v-1138h-177l1 525h-283q13 -47 13 -92zM1100 1543q194 0 320 127l30 -133q-125 -143 -346 -143q-104 0 -202.5 42.5t-168.5 108.5l29 136q71 -67 159 -102.5
t179 -35.5z" />
    <glyph glyph-name="uni0973" unicode="&#x973;" horiz-adv-x="1419" 
d="M752 433q0 -158 -98 -248t-262 -90q-73 0 -139 13.5t-164 50.5l23 144q91 -38 142.5 -52t111.5 -14q98 0 153.5 55.5t55.5 141t-47.5 142.5t-130.5 72q-74 -16 -169 -16v141q169 0 245.5 59t76.5 151q0 73 -47.5 116.5t-137.5 43.5q-48 0 -87 -11t-107 -44l-22 140
q107 57 216 57q167 0 264.5 -80.5t97.5 -224.5q0 -164 -143 -260q33 -20 69 -54h368v472h-206v141h194v183h177v-183h263v-141h-251v-1138h-177l1 525h-283q13 -47 13 -92z" />
    <glyph glyph-name="uni0974" unicode="&#x974;" horiz-adv-x="1957" 
d="M752 433q0 -158 -98 -248t-262 -90q-73 0 -139 13.5t-164 50.5l23 144q91 -38 142.5 -52t111.5 -14q98 0 153.5 55.5t55.5 141t-47.5 142.5t-130.5 72q-74 -16 -169 -16v141q169 0 245.5 59t76.5 151q0 73 -47.5 116.5t-137.5 43.5q-48 0 -87 -11t-107 -44l-22 140
q107 57 216 57q167 0 264.5 -80.5t97.5 -224.5q0 -164 -143 -260q33 -20 69 -54h368v472h-206v141h732v183h177v-183h263v-141h-251v-1138h-177v1138h-361v-1138h-177l1 525h-283q13 -47 13 -92z" />
    <glyph glyph-name="uni0975" unicode="&#x975;" horiz-adv-x="1957" 
d="M749 433q0 -158 -98 -248t-262 -90q-73 0 -139 13.5t-164 50.5l23 144q91 -38 142.5 -52t111.5 -14q98 0 153.5 55.5t55.5 141t-47.5 142.5t-130.5 72q-74 -16 -169 -16v141q169 0 245.5 59t76.5 151q0 73 -47.5 116.5t-137.5 43.5q-48 0 -87 -11t-107 -44l-22 140
q106 57 216 57q167 0 264.5 -80.5t97.5 -224.5q0 -164 -143 -260q33 -20 69 -54h368v472h-206v141h661q-36 57 -69 76t-70.5 19t-108 -14.5t-100.5 -14.5q-113 0 -218 78l38 106q80 -58 164 -58q27 0 113 20.5t122 20.5q143 0 231 -132v122q0 45 -23 71.5t-55 26.5
t-98 -12.5t-99 -12.5q-124 0 -221 94l47 105q52 -44 90 -58.5t78 -14.5t122 18.5t120 18.5q90 0 144.5 -59.5t54.5 -170.5v-229h252v-141h-251v-1138h-177v1138h-361v-1138h-177l-2 525h-283q13 -47 13 -92z" />
    <glyph glyph-name="uni0976" unicode="&#x976;" horiz-adv-x="1419" 
d="M1129 -190q-157 -136 -393.5 -136t-421.5 130l48 127q160 -114 365.5 -114t345.5 118zM752 433q0 -158 -98 -248t-262 -90q-73 0 -139 13.5t-164 50.5l23 144q91 -38 142.5 -52t111.5 -14q98 0 153.5 55.5t55.5 141t-47.5 142.5t-130.5 72q-74 -16 -169 -16v141
q169 0 245.5 59t76.5 151q0 73 -47.5 116.5t-137.5 43.5q-48 0 -87 -11t-107 -44l-22 140q107 57 216 57q167 0 264.5 -80.5t97.5 -224.5q0 -164 -143 -260q33 -20 69 -54h368v472h-206v141h634v-141h-251v-1138h-177l1 525h-283q13 -47 13 -92z" />
    <glyph glyph-name="uni0977" unicode="&#x977;" horiz-adv-x="1419" 
d="M1139 -428q-162 -121 -412.5 -121t-442.5 116l50 113q168 -102 385 -102t363 105zM1117 -183q-157 -124 -395.5 -124t-419.5 119l48 116q161 -105 365.5 -105t345.5 109zM752 433q0 -158 -98 -248t-262 -90q-73 0 -139 13.5t-164 50.5l23 144q91 -38 142.5 -52t111.5 -14
q98 0 153.5 55.5t55.5 141t-47.5 142.5t-130.5 72q-74 -16 -169 -16v141q169 0 245.5 59t76.5 151q0 73 -47.5 116.5t-137.5 43.5q-48 0 -87 -11t-107 -44l-22 140q107 57 216 57q167 0 264.5 -80.5t97.5 -224.5q0 -164 -143 -260q33 -20 69 -54h368v472h-206v141h634v-141
h-251v-1138h-177l1 525h-283q13 -47 13 -92z" />
    <glyph glyph-name="uni0978" unicode="&#x978;" horiz-adv-x="1078" 
d="M771.5 260q26.5 72 26.5 153.5t-56.5 136.5t-151.5 55t-169 -29v-87q0 -59 -28 -89.5t-79 -30.5q-87 0 -159.5 69.5t-72.5 154.5q0 39 30.5 66t86.5 38l45 9v432h-275v141h1138v-141h-686v-401q75 18 177 18q179 0 277.5 -95.5t98.5 -246.5q0 -84 -34.5 -178.5
t-92.5 -164.5l-166 30q64 88 90.5 160z" />
    <glyph glyph-name="uni0979" unicode="&#x979;" horiz-adv-x="1354" 
d="M498 -139v-162h-177v162h177zM734 29v-162h-177v162h177zM256 29v-162h-177v162h177zM726 469q0 -163 -99.5 -261t-281.5 -98q-73 0 -137.5 16.5t-146.5 54.5l33 141q71 -38 120 -51t108 -12q108 2 166.5 56.5t58.5 159t-78 173.5t-210 69h-74v141h771v280h-986v141h1414
v-141h-251v-1138h-177l1 718h-348q55 -45 86 -110t31 -139z" />
    <glyph glyph-name="uni097A" unicode="&#x97a;" horiz-adv-x="1187" 
d="M555 434h2q103 0 170 35l-227 378q-20 -84 -84 -143.5t-149 -74.5q44 -95 119 -145t169 -50zM788 1138h-332l332 -549v549zM566 286q-169 0 -299.5 99.5t-201.5 301.5l5 31q142 18 208 70.5t66 139.5q0 60 -26.5 110t-88.5 100h-259v141h1247v-141h-251v-1138h-177
l-1 334q-92 -48 -222 -48z" />
    <glyph glyph-name="uni097B" unicode="&#x97b;" horiz-adv-x="1208" 
d="M209 -91v135h601v1094h-377v-619q0 -120 -97 -120q-87 0 -165.5 74.5t-78.5 159.5q0 40 31.5 63t87.5 23h45v419h-286v141h1268v-141h-251v-1229h-778z" />
    <glyph glyph-name="uni097C" unicode="&#x97c;" horiz-adv-x="1354" 
d="M957 22v696h-348q55 -45 86 -110t31 -139q0 -163 -99.5 -261t-281.5 -98q-73 0 -137.5 16.5t-146.5 54.5l33 141q71 -38 120 -51t108 -12q108 2 166.5 56.5t58.5 159t-78 173.5t-210 69h-74v141h771v280h-986v141h1414v-141h-251v-1252h-1080l1 136h903z" />
    <glyph glyph-name="uni097D" unicode="&#x97d;" horiz-adv-x="1000" 
d="M337 661q162 0 257 68.5t95 191.5q0 100 -65 163t-161 63q-65 0 -109.5 -12t-114.5 -47l-37 142q125 57 262 57q183 0 293 -101.5t110 -266t-111 -268t-272 -119.5v-532h-177l-1 661h31z" />
    <glyph glyph-name="uni097E" unicode="&#x97e;" horiz-adv-x="1082" 
d="M929 -81v-135h-748v135h748zM525 180q123 0 191 44t68 113t-42.5 106t-123.5 37q-121 0 -226 -66h-21q-108 33 -176.5 113t-68.5 183t81.5 170.5t228.5 67.5h247v189h-713v141h1142v-141h-251v-330h-418q-147 0 -147 -123q0 -80 82 -116q118 54 235 54q163 0 255 -79
t92 -210.5t-113.5 -212t-306.5 -80.5l-1 -1q-114 0 -233 33.5t-212 85.5l44 147q79 -50 189.5 -87.5t197.5 -37.5z" />
    <glyph glyph-name="uni097F" unicode="&#x97f;" horiz-adv-x="1115" 
d="M177 -91v135h541v233q-98 -63 -242 -63q-179 0 -294 109t-115 267.5t106.5 256.5t293.5 98q136 0 251 -51v244h-747v141h1175v-141h-251v-1229h-718zM477 358q33 0 67 6l-216 393q-84 -61 -84 -171.5t63.5 -169t169.5 -58.5zM717 738q-100 66 -229 66q-29 0 -50 -4
l220 -397q35 20 59 44v291z" />
    <glyph glyph-name="uni200B" unicode="&#x200b;" 
 />
    <glyph glyph-name="uni200C" unicode="&#x200c;" 
d="M38 -349h-76v1972h76v-1972z" />
    <glyph glyph-name="uni200D" unicode="&#x200d;" 
d="M38 -348h-76v1600l-182 -186l-51 51l221 226l-219 225l50 50l219 -224l218 223l53 -50l-220 -224l220 -225l-53 -50l-180 185v-1601z" />
    <glyph glyph-name="endash" unicode="&#x2013;" horiz-adv-x="1274" 
d="M1023 774v-126h-880v126h880z" />
    <glyph glyph-name="emdash" unicode="&#x2014;" horiz-adv-x="1494" 
d="M1228 774v-126h-1083v126h1083z" />
    <glyph glyph-name="uni2015" unicode="&#x2015;" horiz-adv-x="1751" 
 />
    <glyph glyph-name="quoteleft" unicode="&#x2018;" horiz-adv-x="585" 
d="M177 918v166l144 320h87l-54 -326v-160h-177z" />
    <glyph glyph-name="quoteright" unicode="&#x2019;" horiz-adv-x="585" 
d="M408 1404v-174l-144 -311h-87l54 309v176h177z" />
    <glyph glyph-name="quotesinglbase" unicode="&#x201a;" horiz-adv-x="366" 
d="M284 45q0 -90 -44 -181t-113 -147l-95 66q84 115 85 245v107h167v-90z" />
    <glyph glyph-name="quotedblleft" unicode="&#x201c;" horiz-adv-x="881" 
d="M177 918v166l144 320h87l-54 -326v-160h-177zM473 918v166l144 320h87l-54 -326v-160h-177z" />
    <glyph glyph-name="quotedblright" unicode="&#x201d;" horiz-adv-x="888" 
d="M408 1404v-174l-144 -311h-87l54 309v176h177zM711 1404v-174l-144 -311h-87l54 309v176h177z" />
    <glyph glyph-name="quotedblbase" unicode="&#x201e;" horiz-adv-x="635" 
d="M284 44q0 -96 -44 -190.5t-113 -154.5l-95 65q84 125 85 261v166h167v-147zM551 44q0 -97 -43 -191t-115 -154l-94 65q83 123 84 261v166h168v-147z" />
    <glyph glyph-name="dagger" unicode="&#x2020;" horiz-adv-x="1016" 
d="M954 974v-138h-364v-836h-167v836h-360v138h360v336h167v-336h364z" />
    <glyph glyph-name="daggerdbl" unicode="&#x2021;" horiz-adv-x="1050" 
d="M968 94v-136h-365v-374h-167v374h-358v136h358v701h-358v137h358v337h167v-337h365v-137h-365v-701h365z" />
    <glyph glyph-name="bullet" unicode="&#x2022;" horiz-adv-x="626" 
d="M123 713v54q0 80 50.5 130t135.5 50t136 -50t51 -130v-54q0 -81 -50.5 -129.5t-136 -48.5t-136 49t-50.5 129z" />
    <glyph glyph-name="ellipsis" unicode="&#x2026;" horiz-adv-x="1242" 
d="M290 164v-164h-159v164h159zM689 164v-164h-159v164h159zM1067 164v-164h-159v164h159z" />
    <glyph glyph-name="perthousand" unicode="&#x2030;" horiz-adv-x="1766" 
d="M864 315v-66q0 -72 39.5 -117t105.5 -45t104.5 44.5t38.5 121.5v66q0 72 -39.5 116.5t-104.5 44.5t-104.5 -45t-39.5 -120zM1277 315v-67q0 -72 40 -117t105 -45t103.5 45.5t38.5 120.5v66q0 72 -39.5 116.5t-104.5 44.5t-104 -45t-39 -119zM1008 588q137 0 206 -109
q71 109 207 109q119 0 194 -76t75 -201v-64q0 -119 -74.5 -194.5t-192.5 -75.5q-136 0 -208 108q-69 -108 -204 -108q-119 0 -194.5 75.5t-75.5 200.5l-1 65q0 119 75 194.5t193 75.5zM1026 1120l-640 -1024l-93 59l639 1025zM185 1052v-66q0 -71 40 -116t105.5 -45t104 44
t38.5 121v65q0 72 -38.5 117t-104.5 45t-105.5 -45.5t-39.5 -119.5zM61 993v62q0 119 75 195t193.5 76t194 -76.5t75.5 -198.5v-65q0 -117 -75 -193t-193.5 -76t-194 75.5t-75.5 200.5z" />
    <glyph glyph-name="guilsinglleft" unicode="&#x2039;" horiz-adv-x="553" 
d="M490 869l-233 -359l233 -357h-127l-266 349v17l266 350h127z" />
    <glyph glyph-name="guilsinglright" unicode="&#x203a;" horiz-adv-x="553" 
d="M80 869h128l265 -350v-17l-265 -350h-128l232 358z" />
    <glyph glyph-name="fraction" unicode="&#x2044;" horiz-adv-x="838" 
d="M787 1134l-640 -1024l-94 59l640 1025z" />
    <glyph glyph-name="Euro" unicode="&#x20ac;" horiz-adv-x="1035" 
d="M764 597v-112h-345q3 -177 83.5 -271t230.5 -94q101 0 197 31l18 -144q-102 -27 -215 -27q-225 0 -352.5 132t-132.5 373h-160v112h160v123h-160v112h160q9 236 136 365t347 129q87 0 217 -27l-18 -146q-102 31 -198 31q-148 0 -227.5 -90t-85.5 -262h345v-112h-345v-123
h345z" />
    <glyph glyph-name="uni20B9" unicode="&#x20b9;" horiz-adv-x="1308" 
d="M241 668h176q220 0 273 167h-499v141h508q-13 74 -72.5 117t-161.5 43h-274v143h875v-143h-255q55 -68 67 -160h188v-141h-196q-30 -145 -136.5 -223.5t-237.5 -78.5h-15l449 -524l-2 -9h-207l-480 556v112z" />
    <glyph glyph-name="uni20BA" unicode="&#x20ba;" horiz-adv-x="1026" 
d="M773 692h173v-90q-2 -190 -67 -330.5t-185 -214.5q-116 -75 -276 -75q-74 0 -170 16v542l-219 -100v160l219 100v138l-219 -100v160l219 100v311h173v-232l226 104v-160l-226 -104v-138l226 104v-160l-226 -104v-491q173 2 262.5 124t89.5 361v79z" />
    <glyph glyph-name="uni20BD" unicode="&#x20bd;" horiz-adv-x="1223" 
d="M386 1167v-514h312q140 0 212.5 65.5t72.5 187t-75.5 191t-204.5 70.5h-317zM688 390v-143h-302v-248h-172v248h-186v142h186v123h-186v141h186v656h484q211 0 334 -106.5t123 -294.5t-118 -291t-337 -104h-314v-123h302z" />
    <glyph glyph-name="trademark" unicode="&#x2122;" horiz-adv-x="1153" 
d="M891 919v355l-126 -355h-47l-126 354v-354h-81v483h101l130 -359l129 359h101v-483h-81zM440 1402v-73h-132v-410h-82v410h-133v73h347z" />
    <glyph glyph-name="estimated" unicode="&#x212e;" horiz-adv-x="1173" 
d="M608 905q-135 0 -245 -110v-249h486v258q-106 101 -241 101zM608 -20q-129 0 -238.5 70t-170.5 187q-61 113 -61 245.5t64.5 248.5t176.5 187.5t231.5 71.5t221 -62.5t161 -171t61.5 -240.5v-55h-691v-296q107 -99 245 -99q176 0 332 110l1 -93q-162 -103 -333 -103z" />
    <glyph glyph-name="partialdiff" unicode="&#x2202;" horiz-adv-x="1050" 
d="M531 781q-126 0 -197.5 -83.5t-71.5 -228.5v-15q0 -155 71.5 -247t198 -92t197.5 111t71 310v55l-3 14h1q-26 82 -98 129t-169 47zM95 475q0 199 115.5 321t304.5 122q84 0 158.5 -34.5t127.5 -96.5q-12 127 -59 224.5t-122.5 151.5t-162.5 54q-120 0 -255 -53l-15 136
l44 19q105 43 241 43q238 0 366.5 -194.5t128.5 -557.5v-45q0 -170 -54 -303t-153.5 -208t-230.5 -75q-198 0 -316 131t-118 352v13z" />
    <glyph glyph-name="product" unicode="&#x220f;" horiz-adv-x="1280" 
d="M1128 1289v-1502h-167v1365h-642v-1365h-167v1502h976z" />
    <glyph glyph-name="summation" unicode="&#x2211;" horiz-adv-x="1079" 
d="M1076 -132v-137h-1014v129l548 644l-548 650v130h944v-137h-742l524 -632v-23l-523 -624h811z" />
    <glyph glyph-name="minus" unicode="&#x2212;" horiz-adv-x="1053" 
d="M903 788v-140h-752v140h752z" />
    <glyph glyph-name="radical" unicode="&#x221a;" horiz-adv-x="1099" 
d="M57 565v139h283l164 -448l384 1054h170l-487 -1310h-127l-221 565h-166z" />
    <glyph glyph-name="infinity" unicode="&#x221e;" horiz-adv-x="1895" 
d="M524 116q102 0 186 84q90 91 140 267v38q-22 92 -74 177q-103 172 -252 172q-122 0 -196 -99t-74 -266l-2 -16q0 -160 74.5 -258.5t197.5 -98.5zM1628 480v17q0 158 -74.5 257.5t-194.5 99.5q-104 0 -188.5 -84.5t-131.5 -236.5l-9 -28v-38q21 -90 74 -178.5t116 -130.5
q68 -43 137 -43q124 0 197.5 99.5t73.5 265.5zM1581 44q-101 -65 -228 -65t-233.5 83t-178.5 242q-71 -161 -177 -243t-233.5 -82t-227 64t-156.5 180q-58 116 -58 251v22q0 133 57 247.5t157 180.5t227 66t233 -82.5t178 -243.5q72 159 179.5 242.5t239.5 83.5
q187 0 311.5 -143.5t124.5 -362.5l-1 -12q0 -133 -57 -247.5t-157 -180.5z" />
    <glyph glyph-name="integral" unicode="&#x222b;" horiz-adv-x="472" 
d="M321 1024v-1164q0 -147 -73 -222t-216 -75q-52 0 -104 18l16 130q44 -11 71 -11q140 0 140 159v1175q0 154 79.5 239t224.5 85q49 0 130 -19l-22 -128q-33 10 -82 10q-164 0 -164 -197z" />
    <glyph glyph-name="approxequal" unicode="&#x2248;" horiz-adv-x="1039" 
d="M717 432q118 0 212 115l1 -170q-94 -98 -213 -98q-72 0 -129 28l-137 70q-66 31 -133 30.5t-126 -31t-102 -84.5v170q44 47 102 73t125 27t133 -31l134 -69q63 -30 133 -30zM719 808q119 0 213 115v-171q-94 -98 -213 -98q-72 0 -129 28l-145 75q-131 58 -251 -3
q-59 -31 -102 -85l-1 169q43 46 101 72q127 56 261 -4l137 -70q57 -28 129 -28z" />
    <glyph glyph-name="notequal" unicode="&#x2260;" horiz-adv-x="1012" 
d="M887 519v-144h-477l-128 -220l-86 53l97 167h-156v144h240l134 229h-374v145h459l138 236l85 -53l-107 -183h175v-145h-260l-133 -229h393z" />
    <glyph glyph-name="lessequal" unicode="&#x2264;" horiz-adv-x="937" 
d="M791 139v-140h-752v140h752zM792 747l-503 -189l-76 -15v-5l76 -15l503 -185v-163l-734 307v121l734 306v-162z" />
    <glyph glyph-name="greaterequal" unicode="&#x2265;" horiz-adv-x="964" 
d="M855 138v-140h-752v140h752zM648 579l-539 190v158l771 -306v-121l-771 -307v159l539 193l76 14v4z" />
    <glyph glyph-name="lozenge" unicode="&#x25ca;" horiz-adv-x="929" 
d="M718 654l-256 475l-251 -475l255 -473zM39 654l361 656h126l363 -656l-360 -654h-127z" />
    <glyph glyph-name="uni25CC" unicode="&#x25cc;" horiz-adv-x="1076" 
d="M602 231q0 -54 -60 -54q-29 0 -43.5 15t-14.5 39t14.5 39t43.5 15q60 0 60 -54zM278 402q59 0 59 -53.5t-59 -53.5q-28 0 -43.5 14.5t-15.5 39t15.5 39t43.5 14.5zM852 387.5q15 -14.5 15 -39t-15 -39t-44 -14.5q-59 0 -59 53.5t59 53.5q29 0 44 -14.5zM901 562
q-58 0 -58 53.5t58 53.5q29 0 45 -14t16 -35t-7 -33q-14 -25 -54 -25zM225 654.5q15 -14.5 15 -39t-15 -39t-43 -14.5q-59 0 -59 53.5t59 53.5q28 0 43 -14.5zM278 937q59 0 59 -53.5t-59 -53.5q-28 0 -43.5 14.5t-15.5 39t15.5 39t43.5 14.5zM852 922.5q15 -14.5 15 -39
t-15 -39t-44 -14.5q-59 0 -59 53.5t59 53.5q29 0 44 -14.5zM602 999q-1 -53 -60 -53q-29 0 -43.5 15t-14.5 39q0 53 59 53t59 -54z" />
    <glyph glyph-name="uF0001" unicode="&#xf0001;" 
 />
    <glyph glyph-name="uF01C5" unicode="&#xf01c5;" 
 />
    <glyph glyph-name="uF01C6" unicode="&#xf01c6;" horiz-adv-x="1053" 
d="M385 19q-112 0 -181 39.5t-69 101t42 104.5t104.5 43t107 -29.5t112.5 -112.5v-3q119 1 186 51.5t67 121t-42.5 107.5t-117 37t-120.5 -14.5t-97 -46.5h-21q-109 33 -177 110.5t-68 180.5t81.5 170.5t228.5 67.5h232v189h-685v141h677q-65 129 -63.5 236.5t74.5 176.5
t198 69q90 0 159 -29l-15 -110q-51 12 -99 13q-66 2 -108.5 -38.5t-42.5 -127t54 -190.5h280v-141h-250v-330h-403q-70 0 -107.5 -33t-37.5 -91q0 -76 77 -111q105 51 224 51q163 0 255 -79t92 -204.5t-95 -207.5t-258 -97l164 -202l-139 -70l-213 257h-6zM1033 1532v-162
h-163v162h163z" />
    <glyph glyph-name="uF01C7" unicode="&#xf01c7;" horiz-adv-x="1120" 
d="M868 4q-341 0 -521.5 193t-180.5 536v404h-196v141h1180v-141h-226v-322q0 -129 -48 -220t-153 -153l-113 100q69 53 103 121t34 170v305h-404v-408q0 -296 135 -439t420 -143l-30 -143v-1zM549 1543q194 0 320 127l30 -133q-125 -143 -346 -143q-104 0 -202.5 42.5
t-168.5 108.5l29 136q71 -67 159 -102.5t179 -35.5zM630 1840v-182h-177v182h177z" />
    <glyph glyph-name="uF01C8" unicode="&#xf01c8;" horiz-adv-x="1607" 
d="M750 542h-327v-54q0 -120 -97 -120q-87 0 -165.5 74.5t-78.5 159.5q0 40 31.5 63t87.5 23h45v277q0 88 -30.5 131.5t-74 42.5t-65.5 -8t-62 -30l-27 138q73 47 169 47q122 0 194.5 -83t72.5 -244v-270h327v449h-101v141h989v-141h-711v-319q95 42 213 42q164 0 264.5 -97
t100.5 -250q0 -180 -129 -343l-166 30q63 88 89.5 160.5t26.5 158.5t-54 144t-152.5 58t-193.5 -73v-649l-176 -1v543z" />
    <glyph glyph-name="uF01C9" unicode="&#xf01c9;" horiz-adv-x="1082" 
d="M269 -53v-162h-177v162h177zM525 180q123 0 191 44t68 113t-42.5 106t-123.5 37q-121 0 -226 -66h-21q-108 33 -176.5 113t-68.5 183t81.5 170.5t228.5 67.5h247v189h-713v141h1142v-141h-251v-330h-418q-147 0 -147 -123q0 -80 82 -116q118 54 235 54q163 0 255 -79
t92 -210.5t-113.5 -212t-306.5 -80.5l-1 -1q-114 0 -233 33.5t-212 85.5l44 147q79 -50 189.5 -87.5t197.5 -37.5z" />
    <glyph glyph-name="uF01CA" unicode="&#xf01ca;" horiz-adv-x="1084" 
d="M319 -12v-162h-177v162h177zM632 45h-1q-252 0 -401.5 125t-149.5 338q0 174 121.5 279t335.5 105h147v246h-715v141h1144v-141h-251v-387h-309q-134 0 -216 -70t-82 -190q0 -149 102 -227t264 -78q98 0 154.5 41t56.5 105q0 105 -139 105q-51 0 -96.5 -22t-109.5 -72
l-65 128q118 110 266.5 110t230 -70t81.5 -177q0 -123 -94.5 -206t-273.5 -83z" />
    <glyph glyph-name="uF01CB" unicode="&#xf01cb;" horiz-adv-x="1441" 
d="M83 531q0 150 89.5 247.5t228.5 97.5q99 0 178.5 -39.5t129.5 -109.5q51 71 124.5 110.5t159.5 39.5q32 0 48 -3v263h-1071v141h1501v-141h-251v-333q115 -93 115 -263q0 -142 -43.5 -254t-138.5 -232l-148 57q86 129 120.5 214.5t34.5 190.5t-43.5 159.5t-122.5 54.5
t-134.5 -76.5t-55.5 -230.5v-130h-177v126q0 143 -61 220.5t-150 77.5q-67 0 -112 -54.5t-45 -156t41.5 -198t138.5 -215.5l-144 -61q-212 244 -212 498z" />
    <glyph glyph-name="uF01CC" unicode="&#xf01cc;" horiz-adv-x="1407" 
d="M555 1139v-170q110 -32 174.5 -113.5t64.5 -187t-77 -194t-204 -137.5l218 -253l-143 -75l-225 288q-46 -9 -112 -9q-136 0 -136 142q0 65 43.5 117t108.5 52q94 0 168 -111q79 19 129 72.5t50 123t-55.5 113.5t-135.5 44q-125 0 -253 -54l-38 141q100 49 246 56v154
h-408v141h1467v-141h-251v-1138h-178l-1 1139h-452z" />
    <glyph glyph-name="uF01CD" unicode="&#xf01cd;" horiz-adv-x="564" 
d="M166 0v1138h-196v141h196v54q0 159 121.5 263.5t336.5 104.5t448 -116l-37 -119q-195 94 -387 94q-154 0 -229.5 -66t-75.5 -183v-32h251v-141h-251v-1138h-177z" />
    <glyph glyph-name="uF01CE" unicode="&#xf01ce;" horiz-adv-x="564" 
d="M166 0v1138h-196v141h196v57q0 170 137.5 273.5t385.5 103.5q295 0 589 -135l-35 -127q-268 119 -533 119q-173 0 -270 -67.5t-97 -189.5v-34h251v-141h-251v-1138h-177z" />
    <glyph glyph-name="uF01CF" unicode="&#xf01cf;" horiz-adv-x="564" 
d="M-29 1138v141h196v41q0 182 140.5 292.5t426.5 110.5q139 0 317.5 -39.5t314.5 -102.5l-31 -124q-140 57 -298 89t-294 32q-203 0 -301.5 -73t-98.5 -198v-28h251v-141h-251v-1138h-177l1 1138h-196z" />
    <glyph glyph-name="uF01D0" unicode="&#xf01d0;" horiz-adv-x="564" 
d="M166 0v1138h-196v141h196v44q0 183 162.5 296.5t443.5 113.5q184 0 380 -42.5t354 -114.5l-34 -124q-165 73 -343.5 107t-331.5 34q-218 0 -336 -79t-118 -205v-30h251v-141h-251v-1138h-177z" />
    <glyph glyph-name="uF01D1" unicode="&#xf01d1;" horiz-adv-x="564" 
d="M-32 1139v141h196v36q0 184 168 307q83 60 214 94.5t304.5 34.5t384.5 -43.5t391 -127.5l-24 -127q-388 152 -744 152q-249 0 -382 -85.5t-133 -218.5v-23h251v-141h-251v-1138h-177l-2 1139h-196z" />
    <glyph glyph-name="uF01D2" unicode="&#xf01d2;" horiz-adv-x="564" 
d="M-31 1138v141h196v44q0 184 175 306q87 61 234 96t339 35q456 0 913 -174l-24 -131q-443 153 -868 153q-452 0 -560 -185q-31 -53 -31 -119v-25h251v-141h-251v-1138h-177l-1 1138h-196z" />
    <glyph glyph-name="uF01D3" unicode="&#xf01d3;" horiz-adv-x="564" 
d="M166 0v1138h-196v141h196v54q0 140 113 244q124 114 374 157q135 24 301 24q497 0 1009 -174l-32 -130q-239 77 -494.5 114t-440 37t-309 -23t-198.5 -64q-146 -82 -146 -208v-31h251v-141h-251v-1138h-177z" />
    <glyph glyph-name="uF01D4" unicode="&#xf01d4;" horiz-adv-x="564" 
d="M166 0v1138h-196v141h196v44q0 201 227.5 328.5t644.5 127.5q287 0 551 -47t549 -151l-30 -129q-188 70 -402.5 113t-364.5 56t-287 13q-336 0 -523.5 -94.5t-187.5 -239.5v-21h251v-141h-251v-1138h-177z" />
    <glyph glyph-name="uF01D5" unicode="&#xf01d5;" horiz-adv-x="564" 
d="M166 0v1138h-196v141h196v54q0 93 60 173t176 141t302 96t444 35t566 -50.5t605 -149.5l-28 -124q-286 90 -594.5 134.5t-529 44.5t-378.5 -26.5t-254 -72.5q-193 -94 -193 -237v-18h252v-141h-251v-1138h-177z" />
    <glyph glyph-name="uF01D6" unicode="&#xf01d6;" horiz-adv-x="564" 
d="M-29 1138v141h196v44q0 212 273 335t814 123q599 0 1329 -201l-31 -123q-353 91 -692 134t-585 43t-425.5 -25t-289.5 -71q-217 -90 -217 -238v-21h251v-141h-251v-1138h-177l1 1138h-196z" />
    <glyph glyph-name="uF01D7" unicode="&#xf01d7;" horiz-adv-x="564" 
d="M-29 1138v141h196v44q0 209 273 331q287 127 904 127q296 0 684.5 -52.5t739.5 -149.5l-31 -121q-350 87 -735 131.5t-651 44.5t-465 -25t-316 -71q-227 -88 -227 -238v-21h251v-141h-251v-1138h-177l1 1138h-196z" />
    <glyph glyph-name="uF01D8" unicode="&#xf01d8;" horiz-adv-x="564" 
d="M-29 1138v141h196v44q0 106 64.5 187t208.5 144q292 127 994 127q302 0 721 -54t766 -150l-27 -121q-347 86 -763.5 132t-707 46t-511 -24.5t-342 -71t-174.5 -104.5t-53 -134v-21h251v-141h-251v-1138h-177l1 1138h-196z" />
    <glyph glyph-name="uF01D9" unicode="&#xf01d9;" horiz-adv-x="564" 
d="M-31 1138v141h196v44q0 209 314 331q330 127 1026 127q305 0 756 -54.5t837 -149.5l-30 -121q-362 85 -817 131.5t-732 46.5q-606 0 -891 -90t-285 -244v-21h251v-141h-251v-1138h-177l-1 1138h-196z" />
    <glyph glyph-name="uF01DA" unicode="&#xf01da;" horiz-adv-x="564" 
d="M-31 1138v141h168q-94 123 -206 195t-218 72q-74 0 -111 -35t-37 -93q0 -84 79 -183h-171q-67 90 -67 198.5t74.5 178.5t213.5 70q171 0 333.5 -103.5t294.5 -299.5h272v-141h-251v-1138h-177l-1 1138h-196z" />
    <glyph glyph-name="uF01DB" unicode="&#xf01db;" horiz-adv-x="564" 
d="M166 0v1139h-196v141h146q-157 132 -325.5 203.5t-321.5 72.5q-97 1 -147.5 -41t-50.5 -120.5t55 -159.5h-174q-52 89 -52 188q0 122 92 198t261 76q226 0 460 -112t422 -306h259v-141h-251v-1138h-177z" />
    <glyph glyph-name="uF01DC" unicode="&#xf01dc;" 
d="M-13 -261l-301 212l-297 -214l-97 113l357 252h68l362 -252z" />
    <glyph glyph-name="uF01DD" unicode="&#xf01dd;" 
d="M-45 1642v-182h-177v182h177z" />
    <glyph glyph-name="uF01DE" unicode="&#xf01de;" 
d="M-221.5 1562q53.5 -19 116.5 -19t119 17.5t119 65.5l30 -134q-103 -97 -257.5 -97t-279.5 98l29 138q70 -50 123.5 -69zM-21 1815v-167h-167v167h167z" />
    <glyph glyph-name="uF01DF" unicode="&#xf01df;" 
d="M-187 1761q89 0 158 -29l-15 -110q-51 12 -99 13q-66 2 -108.5 -38.5t-42.5 -117.5q0 -124 90 -263h-155q-42 63 -72 143.5t-29 149.5q2 114 75 183t198 69z" />
    <glyph glyph-name="uF01E0" unicode="&#xf01e0;" 
d="M-10 1532v-162h-163v162h163zM-187 1761q89 0 158 -29l-15 -110q-51 12 -99 13q-66 2 -108.5 -38.5t-42.5 -117.5q0 -124 90 -263h-155q-42 63 -72 143.5t-29 149.5q2 114 75 183t198 69z" />
    <glyph glyph-name="uF01E1" unicode="&#xf01e1;" horiz-adv-x="895" 
d="M301.5 822.5q51.5 -50.5 137 -50.5t153.5 31v115q0 92 -47 145.5t-125 53.5t-122 -44.5t-46 -122t49.5 -128zM592 59v597q-75 -26 -166 -26q-146 0 -247 93t-101 228t93.5 224t247 89t252 -96t98.5 -242v-867h-177z" />
    <glyph glyph-name="uF01E2" unicode="&#xf01e2;" horiz-adv-x="847" 
d="M257 224q-88 0 -128 34t-40 89.5t46.5 99.5t118.5 44t118 -98q78 12 128 74.5t62 168.5q-57 -22 -125 -22q-154 0 -248 89.5t-94 236.5v288h177v-285q0 -188 166 -188q87 0 140 43l36 430h170l-55 -583q-29 -325 -299 -400l113 -191l-138 -59l-134 229h-14z" />
    <glyph glyph-name="uF01E3" unicode="&#xf01e3;" horiz-adv-x="979" 
d="M783 125.5q11 40.5 11 94t-39.5 84.5t-101.5 31h-181q-149 0 -245 91t-96 245q0 110 50 222.5t130 199.5h-277v141h916v-141h-422q-104 -92 -162 -205.5t-58 -212t48 -147t131 -48.5h154q148 0 233.5 -70.5t85.5 -183.5t-65 -226l-153 26q30 59 41 99.5z" />
    <glyph glyph-name="uF01E4" unicode="&#xf01e4;" horiz-adv-x="942" 
d="M748.5 126q11.5 40 11.5 94t-39.5 85t-101.5 31h-174q-149 0 -245 91t-96 241t58 292t150 254l22 7q231 -181 341 -181q60 0 83 21.5t23 69.5t-28 114l125 26q46 -101 46 -183.5t-62 -141.5t-171 -59q-146 0 -312 112q-40 -60 -69.5 -154.5t-29.5 -181t48 -135t131 -48.5
h147q148 0 233.5 -70.5t85.5 -181.5l1 1q0 -118 -73 -229l-147 27q31 59 42.5 99z" />
    <glyph glyph-name="uF01E5" unicode="&#xf01e5;" horiz-adv-x="1135" 
d="M675 265q-95 -74 -253 -74t-265 98.5t-107 262t100 256t268 92.5q130 0 256 -50v288h-704v141h1256v-141h-375v-368q91 50 196.5 50t196 -37.5t149.5 -102.5l-45 -140q-125 129 -285 129q-119 0 -213 -82v-587l-175 -1v266zM433 759q-96 0 -151.5 -55t-55.5 -148
q0 -107 58 -168q52 -55 132 -55q159 0 258 112v247q-113 67 -241 67z" />
    <glyph glyph-name="uF01E6" unicode="&#xf01e6;" horiz-adv-x="1264" 
d="M977 486q54 -48 142 -48t142 51t54 135t-56 136t-143 52t-140 -52t-53 -139t54 -135zM466 889v249h-496v141h1362v-141h-689v-272q0 -307 -233 -370l353 -415l-130 -94l-616 741l123 96l168 -165q83 8 120.5 62.5t37.5 167.5zM845 868.5q96 84.5 259 84.5t266.5 -94.5
t103.5 -235t-98.5 -233.5t-254 -93t-264 95.5t-108.5 243.5t96 232.5z" />
    <glyph glyph-name="uF01E7" unicode="&#xf01e7;" horiz-adv-x="641" 
d="M336 399q-87 0 -165.5 74.5t-78.5 159.5q0 40 31.5 63t87.5 23h45v419h-286v141h740v-141h-277v-619q0 -120 -97 -120z" />
    <glyph glyph-name="uF01E8" unicode="&#xf01e8;" horiz-adv-x="854" 
d="M538 848l44 1h67l11 -141h-83q-264 0 -264 -187q0 -85 65 -136.5t175 -51.5q274 0 443 284l86 -148q-182 -281 -530 -281v-1q-193 0 -305 95.5t-112 253.5t144 243q-124 84 -124 234q0 68 33 125h-228v141h969v-141h-422q-89 0 -131.5 -37t-42.5 -104t45.5 -108
t125.5 -41h34z" />
    <glyph glyph-name="uF01E9" unicode="&#xf01e9;" horiz-adv-x="1219" 
d="M382 -202l73 130l472 -251l-72 -127zM525 180q123 0 191 44t68 113t-42.5 106t-123.5 37q-121 0 -226 -66h-21q-108 33 -176.5 113t-68.5 183t81.5 170.5t228.5 67.5h247v189h-713v141h1279v-141h-388v-330h-418q-147 0 -147 -123q0 -80 82 -116q118 54 235 54
q163 0 255 -79t92 -210.5t-113.5 -212t-306.5 -80.5l-1 -1q-114 0 -233 33.5t-212 85.5l44 147q79 -50 189.5 -87.5t197.5 -37.5zM1148 772v-167h-177v167h177z" />
    <glyph glyph-name="uF01EA" unicode="&#xf01ea;" horiz-adv-x="875" 
d="M648 194v-1q-173 0 -283 95.5t-110 251.5q0 106 52 178h-260v141h693v-141h-98q-105 -7 -157.5 -59t-52.5 -134.5t58 -130.5t163.5 -48t205 68t175.5 208l99 -138q-171 -290 -485 -290zM955 1138h-985v141h985v-141z" />
    <glyph glyph-name="uF01EB" unicode="&#xf01eb;" horiz-adv-x="1443" 
d="M553 795l38 1h67l11 -141h-83q-116 0 -176 -53.5t-60 -152.5q0 -116 91 -187.5t247 -71.5q189 0 314.5 113.5t125.5 306.5q0 90 -36.5 142t-91.5 52q-78 0 -156 -52l-35 139q37 18 59 28q61 27 136 27q134 0 214 -93.5t80 -254.5q0 -237 -168 -392t-439 -156v-1
q-227 -1 -372.5 112t-145.5 300q0 168 133 259q-69 44 -109.5 113t-40.5 153.5t42 151.5h-228v141h1503v-141h-956q-90 0 -137 -44t-47 -122.5t50.5 -127.5t130.5 -49h39z" />
    <glyph glyph-name="uF01EC" unicode="&#xf01ec;" horiz-adv-x="925" 
d="M488.5 316.5q58.5 54.5 58.5 159t-78 173.5t-210 69h-74v141h985v-141h-562q55 -45 86 -110t31 -139q0 -163 -99.5 -261t-281.5 -98l1 1q-73 0 -137.5 16.5t-146.5 54.5l33 141q71 -38 120 -51t108 -12q108 2 166.5 56.5zM1006 1138h-1036v141h1036v-141z" />
    <glyph glyph-name="uF01ED" unicode="&#xf01ed;" horiz-adv-x="1062" 
d="M377 19q-112 0 -181 39.5t-69 101t42 104.5t104.5 43t107 -29.5t112.5 -112.5v-3h4q121 0 190 50.5t69 121.5t-42.5 108t-117 37t-120.5 -14.5t-97 -46.5h-21q-109 33 -177 110.5t-68 180.5t81.5 170.5t228.5 67.5h232v189h-685v141h1163v-141h-300v-330h-403
q-70 0 -107.5 -33t-37.5 -91q0 -76 77 -111q105 51 219 51t192.5 -37t118.5 -103h436v-141h-396v-10q0 -121 -97.5 -203t-264.5 -95l163 -201l-139 -70l-211 257h-6z" />
    <glyph glyph-name="uF01EE" unicode="&#xf01ee;" horiz-adv-x="1210" 
d="M750 542h-327v-54q0 -120 -97 -120q-87 0 -165.5 74.5t-78.5 159.5q0 40 31.5 63t87.5 23h45v277q0 88 -30.5 131.5t-74 42.5t-65.5 -8t-62 -30l-27 138q73 47 169 47q122 0 194.5 -83t72.5 -244v-270h327v449h-101v141h782v-141h-504v-368q91 50 196.5 50t196 -37.5
t149.5 -102.5l-45 -140q-125 129 -285 129q-119 0 -213 -82v-587l-176 -1v543z" />
    <glyph glyph-name="uF01EF" unicode="&#xf01ef;" horiz-adv-x="1017" 
d="M418 188q-190 0 -364 114l37 141q107 -63 168.5 -81t132.5 -18q102 0 163.5 61t61.5 161.5t-60.5 160.5t-174 60t-228.5 -59l-31 144q124 63 266.5 63t249.5 -73t142 -194h443v-146h-431q-13 -148 -113.5 -241t-261.5 -93zM1100 1138h-1130v141h1130v-141z" />
    <glyph glyph-name="uF01F0" unicode="&#xf01f0;" horiz-adv-x="1039" 
d="M403 -172l73 130l472 -251l-72 -127zM608 95v-1q-243 0 -385.5 112.5t-142.5 292t123 289t338 109.5h100v240h-671v141h1099v-141h-251v-381h-239q-156 0 -239.5 -70t-83.5 -188t93 -185t247 -67q85 0 136 9.5t129 36.5l15 -152q-75 -25 -130.5 -35t-137.5 -10z" />
    <glyph glyph-name="uF01F1" unicode="&#xf01f1;" horiz-adv-x="1191" 
d="M383 -175l73 130l472 -251l-72 -127zM572 220v-1q150 0 236 73t86 195q0 88 -25.5 148.5t-88.5 111.5h-190q-167 0 -254 -68t-87 -191.5t91 -195.5t232 -72zM587 73v-1q-233 0 -372 119.5t-139 301t130.5 289t331.5 107.5h255v249h-823v141h1251v-141h-251v-353
q93 -115 94 -296.5t-127.5 -298.5t-349.5 -117z" />
    <glyph glyph-name="uF01F2" unicode="&#xf01f2;" horiz-adv-x="1082" 
d="M362 -202l73 130l472 -251l-72 -127zM525 180q123 0 191 44t68 113t-42.5 106t-123.5 37q-121 0 -226 -66h-21q-108 33 -176.5 113t-68.5 183t81.5 170.5t228.5 67.5h247v189h-713v141h1142v-141h-251v-330h-418q-147 0 -147 -123q0 -80 82 -116q118 54 235 54
q163 0 255 -79t92 -210.5t-113.5 -212t-306.5 -80.5l-1 -1q-114 0 -233 33.5t-212 85.5l44 147q79 -50 189.5 -87.5t197.5 -37.5z" />
    <glyph glyph-name="uF01F3" unicode="&#xf01f3;" horiz-adv-x="1084" 
d="M375 -181l73 130l472 -251l-72 -127zM632 45h-1q-252 0 -401.5 125t-149.5 338q0 174 121.5 279t335.5 105h147v246h-715v141h1144v-141h-251v-387h-309q-134 0 -216 -70t-82 -190q0 -149 102 -227t264 -78q98 0 154.5 41t56.5 105q0 105 -139 105q-51 0 -96.5 -22
t-109.5 -72l-65 128q118 110 266.5 110t230 -70t81.5 -177q0 -123 -94.5 -206t-273.5 -83z" />
    <glyph glyph-name="uF01F4" unicode="&#xf01f4;" horiz-adv-x="908" 
d="M352 585.5q40 -56.5 116.5 -56.5t117.5 55t41 161v393h-315v-393q0 -103 40 -159.5zM721 483q-83 -95 -243.5 -95t-251.5 96t-91 265v389h-165v141h1038v-141h-204v-390q0 -170 -83 -265z" />
    <glyph glyph-name="uF01F5" unicode="&#xf01f5;" horiz-adv-x="663" 
d="M922 716h-367q-140 0 -207 -62t-67 -171.5t42 -210t139 -215.5l-144 -61q-104 116 -160 247t-55 262q1 164 109 258.5t302 94.5l408 -1v-141zM781 1138h-811v141h811v-141z" />
    <glyph glyph-name="uF01F6" unicode="&#xf01f6;" horiz-adv-x="864" 
d="M502 973q0 72 -39 112t-100 40t-94.5 -36.5t-33.5 -95.5q0 -26 12 -79l-134 -19q-24 64 -22 141q3 99 75 163t184 64q137 0 218 -80.5t81 -204.5q0 -159 -111.5 -260.5t-271.5 -117.5q42 -99 134.5 -151.5t211.5 -52.5t218 57.5t210 209.5l78 -137
q-131 -155 -247.5 -213.5t-263.5 -58.5l1 -2q-184 0 -327.5 103.5t-213.5 321.5l5 37q430 17 430 259z" />
    <glyph glyph-name="uF01F7" unicode="&#xf01f7;" horiz-adv-x="1051" 
d="M472 -276l73 130l472 -251l-72 -127zM646 145l-49 -1q-220 0 -361 110t-141 293q0 158 119 254.5t312 96.5h128v240h-683v141h1111v-141h-251v-381h-275q-139 0 -213 -62t-74 -167t84.5 -172.5t209.5 -67.5q10 0 18 1q-6 23 -6 51q1 49 39 82t118.5 33t132.5 -44.5
t52 -101.5q0 -94 -117 -136l119 -305l-163 -31z" />
    <glyph glyph-name="uF01F8" unicode="&#xf01f8;" horiz-adv-x="827" 
d="M547 848l44 1h67l11 -141h-83q-264 0 -264 -187q0 -85 65 -136.5t175 -51.5q274 0 443 284l86 -148q-182 -281 -530 -281q-193 0 -305 95.5t-112 252t141 242.5q-76 44 -123 112.5t-47 150.5q0 108 80.5 179.5t215.5 71.5q102 0 179 -37l-20 -123q-38 15 -63.5 19
t-71.5 4q-68 0 -106 -36t-38 -102t67 -117.5t156 -51.5h33z" />
    <glyph glyph-name="uF01F9" unicode="&#xf01f9;" horiz-adv-x="659" 
d="M253 343q-68 0 -124 82.5t-56 190.5q0 138 169 138h663v-146h-552v-146q0 -119 -100 -119zM738 1138h-768v141h768v-141z" />
    <glyph glyph-name="uF01FA" unicode="&#xf01fa;" horiz-adv-x="594" 
d="M490 409v1q-166 0 -263.5 105.5t-97.5 311.5v312h-159v141h737v-141h-401v-351q0 -121 47.5 -177.5t132.5 -56.5q167 0 283 128l65 -142q-127 -131 -344 -131z" />
    <glyph glyph-name="uF01FB" unicode="&#xf01fb;" horiz-adv-x="1157" 
d="M874 1h-176v459q-83 -46 -206 -46q-166 0 -263.5 104t-97.5 309v312h-159v141h1264v-141h-361v-368q91 50 196.5 50t196 -37.5t149.5 -102.5l-45 -140q-125 129 -285 129q-119 0 -213 -82v-587zM696 1139h-390v-351q0 -121 47.5 -177.5t132.5 -56.5l1 1q128 0 209 76v508
z" />
    <glyph glyph-name="uF01FC" unicode="&#xf01fc;" horiz-adv-x="677" 
d="M483 358q35 0 56 5l-218 398q-89 -60 -89 -172t71.5 -171.5t179.5 -59.5zM176 847.5q110 99.5 300 99.5t305 -104t115 -260.5t-114.5 -262.5t-298 -106t-300.5 109t-117 267t110 257.5zM767 1279v-141h-797v141h797zM747 588q0 61 -32.5 109.5t-95 77t-144.5 28.5
q-29 0 -42 -3l218 -393q96 65 96 181z" />
    <glyph glyph-name="uF01FD" unicode="&#xf01fd;" horiz-adv-x="793" 
d="M325 369v-1q-87 0 -165.5 74.5t-78.5 159.5q0 40 31.5 63t87.5 23h45v277q0 88 -30.5 131.5t-74 42.5t-65.5 -8t-62 -30l-27 138q73 47 169 47q122 0 194.5 -83t72.5 -244v-270h551v-146h-551v-54q0 -120 -97 -120z" />
    <glyph glyph-name="uF01FE" unicode="&#xf01fe;" horiz-adv-x="793" 
d="M325 369q-87 0 -165.5 74.5t-78.5 159.5q0 40 31.5 63t87.5 23h45v449h-275v141h909v-141h-457v-449h551v-146h-551v-54q0 -120 -97 -120z" />
    <glyph glyph-name="uF01FF" unicode="&#xf01ff;" horiz-adv-x="742" 
d="M342 929q0 60 -26.5 110t-88.5 100h-259v141h848v-141h-396q39 -45 62 -104t23 -118q0 -108 -68.5 -188.5t-171.5 -98.5q46 -95 125 -145t179.5 -50t177 50t161.5 174l79 -133q-93 -126 -189.5 -183t-220.5 -57l-3 1q-170 0 -305.5 101t-205.5 300l5 31q142 18 208 70.5
t66 139.5z" />
    <glyph glyph-name="uF0200" unicode="&#xf0200;" horiz-adv-x="414" 
d="M384 426q-186 0 -373 97l27 146q177 -87 326 -87q120 0 257 60l52 -155q-75 -36 -138.5 -48.5t-150.5 -12.5zM486 1138h-516v141h516v-141z" />
    <glyph glyph-name="uF0201" unicode="&#xf0201;" horiz-adv-x="849" 
d="M135 -128l73 130l472 -251l-72 -127zM465 889v249h-495v141h909v-141h-237v-272q0 -307 -233 -370l353 -415l-130 -94l-616 741l123 96l168 -165q83 8 120.5 62.5t37.5 167.5z" />
    <glyph glyph-name="uF0202" unicode="&#xf0202;" horiz-adv-x="1035" 
d="M84 534q0 150 89.5 247.5t228.5 97.5q97 0 176 -38.5t130 -107.5q48 72 121.5 112t164.5 40q192 0 303 -157l-81 -130q-48 68 -99 103t-116 35q-85 0 -140.5 -77.5t-55.5 -231.5v-130h-177v126q0 143 -61 220.5t-150 77.5q-67 0 -112 -54.5t-45 -156t41.5 -198
t138.5 -215.5l-144 -61q-212 244 -212 498zM1126 1138h-1156v141h1156v-141z" />
    <glyph glyph-name="uF0203" unicode="&#xf0203;" horiz-adv-x="1568" 
d="M305 287q59 -70 156 -70t154 69t57 208q0 269 -221 269q-93 0 -149 -69.5t-56 -203t59 -203.5zM1240 695.5q-56 68.5 -147.5 68.5t-147.5 -67t-56 -201.5t56 -203.5t149.5 -69t147.5 72t54 202t-56 198.5zM1102 82q-98 0 -182.5 41t-137.5 117q-42 -71 -123 -112
t-196 -44q-170 -4 -275.5 110.5t-105.5 301.5t98 295t272 108q105 0 189 -44.5t136 -118.5q50 77 132.5 120t172.5 43q188 0 284.5 -113.5t96.5 -294.5t-99.5 -295t-261.5 -114zM1598 1279v-141h-1628v141h1628z" />
    <glyph glyph-name="uF0204" unicode="&#xf0204;" horiz-adv-x="677" 
d="M482 358h1q112 0 188 64.5t76 161.5t-74 158t-191.5 61t-184 -59t-66.5 -163t71.5 -163.5t179.5 -59.5zM176 847.5q110 99.5 300 99.5t305 -104t115 -260.5t-114.5 -262.5t-298 -106t-300.5 109t-117 267t110 257.5zM767 1279v-141h-797v141h797z" />
    <glyph glyph-name="uF0205" unicode="&#xf0205;" horiz-adv-x="908" 
d="M391 383q-60 -18 -118 -18t-97 32.5t-39 104.5t46.5 123t109.5 51q78 0 139 -80q104 42 158 122.5t54 190.5t-53.5 173t-132 63t-123.5 -47.5t-44 -123.5q0 -46 16 -102l-136 -27q-35 77 -35 161q0 125 87.5 205t237 80t248.5 -106t99 -284q0 -140 -79 -261.5
t-202 -196.5l263 -360l-143 -75z" />
    <glyph glyph-name="uF0206" unicode="&#xf0206;" horiz-adv-x="864" 
d="M251 288q-136 0 -136 142q0 65 43.5 117t108.5 52q94 0 168 -111q79 19 129 72.5t50 123t-55.5 113.5t-135.5 44q-125 0 -253 -54l-38 141q100 49 246 56v154h-408v141h947v-141h-361v-170q110 -32 174.5 -113.5t64.5 -187t-77 -194t-204 -137.5l218 -253l-143 -75
l-226 289q-46 -9 -112 -9z" />
    <glyph glyph-name="uF0207" unicode="&#xf0207;" horiz-adv-x="594" 
d="M486 554v1q61 0 112 17l-292 528v-312q0 -121 47.5 -177.5t132.5 -56.5zM490 409q-166 0 -263.5 105.5t-97.5 311.5v312h-159v141h737v-141h-289l287 -514q34 24 64 58l65 -142q-127 -131 -344 -131z" />
    <glyph glyph-name="uF0208" unicode="&#xf0208;" horiz-adv-x="887" 
d="M429 889v249h-459v141h999v-141h-363v-272q0 -112 -32 -194h532v-141h-649q-30 -19 -72 -31l301 -427l-138 -78l-535 754l120 86l166 -177q68 16 99 72t31 159z" />
    <glyph glyph-name="uF0209" unicode="&#xf0209;" horiz-adv-x="904" 
d="M817 -247q-330 0 -499 125.5t-169 337.5q0 140 92 233q-137 106 -137 246q0 110 85.5 177.5t227.5 67.5h154v197h-601v141h1050v-141h-271v-338h-314q-75 0 -115 -33t-40 -89q0 -90 98 -141q107 39 246 39h515v-142h-496q-151 0 -234 -63.5t-83 -170.5q0 -72 27 -126
t86 -95q120 -82 397 -82l-19 -141v-2z" />
    <glyph glyph-name="uF020A" unicode="&#xf020a;" horiz-adv-x="911" 
d="M475 101q-182 0 -297 89.5t-115 235.5q0 208 248 337q-134 109 -134 263q0 116 80 191t217 75t220 -79t83 -195q0 -138 -122 -242q88 -13 180 -13h277v-149h-284q-207 0 -354 58q-126 -58 -179.5 -119t-53.5 -135t61 -120.5t157 -46.5q13 0 39 2q-18 34 -18 66
q0 46 39 78t100 32q90 0 145.5 -40t55.5 -106q0 -77 -100 -131l102 -214l-156 -44l-94 214q-54 -7 -97 -7zM347 1009v-1q0 -108 124 -174q149 78 149 183q0 66 -37 101.5t-97.5 35.5t-99.5 -39.5t-39 -105.5z" />
    <glyph glyph-name="uF020B" unicode="&#xf020b;" horiz-adv-x="925" 
d="M262 102q-112 0 -181 39.5t-69 101t42 104.5t103 43t103.5 -26.5t104.5 -100.5q88 12 135 65.5t47 152.5t-78 168t-210 69h-74v141h985v-141h-562q55 -45 86 -110t31 -139q0 -137 -71 -229.5t-205 -119.5l169 -208l-139 -70l-211 260h-6zM996 1138h-1026v141h1026v-141z
" />
    <glyph glyph-name="uF020C" unicode="&#xf020c;" horiz-adv-x="1135" 
d="M346 77v-162h-177v162h177zM675 265q-95 -74 -253 -74t-265 98.5t-107 262t100 256t268 92.5q130 0 256 -50v288h-704v141h1256v-141h-375v-368q91 50 196.5 50t196 -37.5t149.5 -102.5l-45 -140q-125 129 -285 129q-119 0 -213 -82v-587l-175 -1v266zM433 759
q-96 0 -151.5 -55t-55.5 -148q0 -107 58 -168q52 -55 132 -55q159 0 258 112v247q-113 67 -241 67z" />
    <glyph glyph-name="uF020D" unicode="&#xf020d;" horiz-adv-x="1264" 
d="M295 78v-162h-177v162h177zM977 486q54 -48 142 -48t142 51t54 135t-56 136t-143 52t-140 -52t-53 -139t54 -135zM466 889v249h-496v141h1362v-141h-689v-272q0 -307 -233 -370l353 -415l-130 -94l-616 741l123 96l168 -165q83 8 120.5 62.5t37.5 167.5zM845 868.5
q96 84.5 259 84.5t266.5 -94.5t103.5 -235t-98.5 -233.5t-254 -93t-264 95.5t-108.5 243.5t96 232.5z" />
    <glyph glyph-name="uF020E" unicode="&#xf020e;" horiz-adv-x="641" 
d="M405 78v-162h-177v162h177zM336 399q-87 0 -165.5 74.5t-78.5 159.5q0 40 31.5 63t87.5 23h45v419h-286v141h740v-141h-277v-619q0 -120 -97 -120z" />
    <glyph glyph-name="uF020F" unicode="&#xf020f;" horiz-adv-x="925" 
d="M286 0v-162h-177v162h177zM488.5 316.5q58.5 54.5 58.5 159t-78 173.5t-210 69h-74v141h985v-141h-562q55 -45 86 -110t31 -139q0 -163 -99.5 -261t-281.5 -98l1 1q-73 0 -137.5 16.5t-146.5 54.5l33 141q71 -38 120 -51t108 -12q108 2 166.5 56.5zM1006 1138h-1036v141
h1036v-141z" />
    <glyph glyph-name="uF0210" unicode="&#xf0210;" horiz-adv-x="1082" 
d="M408 -222l73 130l472 -251l-72 -127zM269 -53v-162h-177v162h177zM525 180q123 0 191 44t68 113t-42.5 106t-123.5 37q-121 0 -226 -66h-21q-108 33 -176.5 113t-68.5 183t81.5 170.5t228.5 67.5h247v189h-713v141h1142v-141h-251v-330h-418q-147 0 -147 -123
q0 -80 82 -116q118 54 235 54q163 0 255 -79t92 -210.5t-113.5 -212t-306.5 -80.5l-1 -1q-114 0 -233 33.5t-212 85.5l44 147q79 -50 189.5 -87.5t197.5 -37.5z" />
    <glyph glyph-name="uF0211" unicode="&#xf0211;" horiz-adv-x="1084" 
d="M442 -221l73 130l472 -251l-72 -127zM319 -12v-162h-177v162h177zM632 45h-1q-252 0 -401.5 125t-149.5 338q0 174 121.5 279t335.5 105h147v246h-715v141h1144v-141h-251v-387h-309q-134 0 -216 -70t-82 -190q0 -149 102 -227t264 -78q98 0 154.5 41t56.5 105
q0 105 -139 105q-51 0 -96.5 -22t-109.5 -72l-65 128q118 110 266.5 110t230 -70t81.5 -177q0 -123 -94.5 -206t-273.5 -83z" />
    <glyph glyph-name="uF0212" unicode="&#xf0212;" horiz-adv-x="659" 
d="M375 78v-162h-177v162h177zM253 343q-68 0 -124 82.5t-56 190.5q0 138 169 138h663v-146h-552v-146q0 -119 -100 -119zM738 1138h-768v141h768v-141z" />
    <glyph glyph-name="uF0213" unicode="&#xf0213;" horiz-adv-x="1157" 
d="M387 79v-162h-177v162h177zM874 1h-176v459q-83 -46 -206 -46q-166 0 -263.5 104t-97.5 309v312h-159v141h1264v-141h-361v-368q91 50 196.5 50t196 -37.5t149.5 -102.5l-45 -140q-125 129 -285 129q-119 0 -213 -82v-587zM696 1139h-390v-351q0 -121 47.5 -177.5
t132.5 -56.5l1 1q128 0 209 76v508z" />
    <glyph glyph-name="uF0214" unicode="&#xf0214;" horiz-adv-x="742" 
d="M382 79v-162h-177v162h177zM342 929q0 60 -26.5 110t-88.5 100h-259v141h848v-141h-396q39 -45 62 -104t23 -118q0 -108 -68.5 -188.5t-171.5 -98.5q46 -95 125 -145t179.5 -50t177 50t161.5 174l79 -133q-93 -126 -189.5 -183t-220.5 -57l-3 1q-170 0 -305.5 101
t-205.5 300l5 31q142 18 208 70.5t66 139.5z" />
    <glyph glyph-name="uF0215" unicode="&#xf0215;" horiz-adv-x="414" 
d="M366 78v-162h-177v162h177zM384 426q-186 0 -373 97l27 146q177 -87 326 -87q120 0 257 60l52 -155q-75 -36 -138.5 -48.5t-150.5 -12.5zM486 1138h-516v141h516v-141z" />
    <glyph glyph-name="uF0216" unicode="&#xf0216;" horiz-adv-x="1568" 
d="M355 -32v-162h-177v162h177zM305 287q59 -70 156 -70t154 69t57 208q0 269 -221 269q-93 0 -149 -69.5t-56 -203t59 -203.5zM1240 695.5q-56 68.5 -147.5 68.5t-147.5 -67t-56 -201.5t56 -203.5t149.5 -69t147.5 72t54 202t-56 198.5zM1102 82q-98 0 -182.5 41
t-137.5 117q-42 -71 -123 -112t-196 -44q-170 -4 -275.5 110.5t-105.5 301.5t98 295t272 108q105 0 189 -44.5t136 -118.5q50 77 132.5 120t172.5 43q188 0 284.5 -113.5t96.5 -294.5t-99.5 -295t-261.5 -114zM1598 1279v-141h-1628v141h1628z" />
    <glyph glyph-name="uF0217" unicode="&#xf0217;" horiz-adv-x="895" 
d="M489.5 315.5q58.5 54.5 58.5 154.5t-78 163.5t-210 63.5h-74v141h408q171 0 295.5 -25.5t235.5 -76.5l-68 -127q-74 43 -180.5 65.5t-221.5 22.5h-43q52 -42 82.5 -101.5t30.5 -126.5q0 -163 -99 -261t-281 -98v0q-73 0 -137 17t-146 54l33 141q71 -38 120 -51t108 -12
q108 2 166.5 56.5zM976 1138h-1006v141h1006v-141z" />
    <glyph glyph-name="uF0218" unicode="&#xf0218;" horiz-adv-x="653" 
d="M506 700q-101 0 -165 -60.5t-64 -164t43 -203t141 -215.5l-144 -61q-104 116 -160 247t-55 262q1 161 108 255t275 94l2 -1q122 0 231.5 -40t179.5 -102l-77 -121q-145 110 -315 110zM771 1138h-801v141h801v-141z" />
    <glyph glyph-name="uF0219" unicode="&#xf0219;" horiz-adv-x="895" 
d="M317 -1v-162h-177v162h177zM489.5 315.5q58.5 54.5 58.5 154.5t-78 163.5t-210 63.5h-74v141h408q171 0 295.5 -25.5t235.5 -76.5l-68 -127q-74 43 -180.5 65.5t-221.5 22.5h-43q52 -42 82.5 -101.5t30.5 -126.5q0 -163 -99 -261t-281 -98h-1h1q-73 0 -137 17t-146 54
l33 141q71 -38 120 -51t108 -12q108 2 166.5 56.5zM976 1138h-1006v141h1006v-141z" />
    <glyph glyph-name="uF021A" unicode="&#xf021a;" horiz-adv-x="1532" 
d="M674 0v260l-477 -325l-95 123l222 145q-123 28 -198.5 121.5t-75.5 242t100 241t268 92.5q130 0 256 -50v288h-704v141h1592v-141h-711v-318q89 41 206 41q164 0 268.5 -97.5t104.5 -249.5q0 -180 -129 -343l-166 30q63 88 89.5 160.5t26.5 158.5t-54 144t-152.5 58
t-193.5 -73v-649h-177zM422 334v-1q96 0 175 48q48 32 77 65v247q-113 67 -241 67q-96 0 -151.5 -55t-55.5 -155.5t55.5 -158t140.5 -57.5z" />
    <glyph glyph-name="uF021B" unicode="&#xf021b;" horiz-adv-x="1698" 
d="M1301 0v286l-343 -336l-116 114l252 234q-138 4 -241 99.5t-103 239t97 230t231.5 86.5t222.5 -41v226h-658v-272q0 -307 -233 -370l353 -415l-130 -94l-616 741l123 96l168 -165q83 8 120.5 62.5t37.5 167.5v249h-495v141h1758v-141h-251v-1138h-177zM1114 440h1
q55 0 97.5 11.5t87.5 44.5v262q-48 32 -91 43t-113 11t-120 -50t-50 -136t55 -136t133 -50z" />
    <glyph glyph-name="uF021C" unicode="&#xf021c;" horiz-adv-x="1208" 
d="M810 0v298l-484 -362l-97 127l581 430v645h-377v-619q0 -120 -97 -120q-87 0 -165.5 74.5t-78.5 159.5q0 40 31.5 63t87.5 23h45v419h-286v141h1268v-141h-251v-1138h-177z" />
    <glyph glyph-name="uF021D" unicode="&#xf021d;" horiz-adv-x="1266" 
d="M868 1v251l-691 -332l-82 138l321 148q-134 30 -207.5 116t-73.5 211q0 162 144 247q-124 84 -124 234q0 68 33 125h-218v141h1326v-141h-251v-1138h-177zM537 849l44 1h67l11 -141h-83q-264 0 -264 -187q0 -85 65.5 -136.5t175.5 -51.5q180 0 314 96v709h-361
q-89 0 -131.5 -37t-42.5 -104t45.5 -108t125.5 -41h34z" />
    <glyph glyph-name="uF021E" unicode="&#xf021e;" horiz-adv-x="1219" 
d="M525 180q123 0 191 44t68 113t-42.5 106t-123.5 37q-121 0 -226 -66h-21q-108 33 -176.5 113t-68.5 183t81.5 170.5t228.5 67.5h247v189h-713v141h1279v-141h-388v-330h-418q-147 0 -147 -123q0 -80 82 -116q118 54 235 54q163 0 255 -79t92 -211q0 -108 -79 -183.5
t-219 -98.5l287 -200l-92 -111l-303 212l-297 -214l-97 113l278 196q-191 26 -344 112l44 147q79 -50 189.5 -87.5t197.5 -37.5zM1148 772v-167h-177v167h177z" />
    <glyph glyph-name="uF021F" unicode="&#xf021f;" horiz-adv-x="1315" 
d="M917 0v260l-707 -340l-82 138l354 163q-105 39 -166 122t-61 193t52 182h-260v141h693v-141h-98q-105 -7 -157.5 -59t-52.5 -134.5t58 -130.5t159 -48q153 0 268 99v693h-947v141h1375v-141h-251v-1138h-177z" />
    <glyph glyph-name="uF0220" unicode="&#xf0220;" horiz-adv-x="1443" 
d="M289.5 187.5q-115.5 108.5 -115.5 275.5t133 258q-69 44 -109.5 113t-40.5 153.5t42 151.5h-228v141h1503v-141h-251v-289q76 -95 76 -250q0 -213 -138 -362.5t-368 -179.5l297 -207l-92 -111l-301 212l-297 -214l-97 113l291 206q-189 22 -304.5 130.5zM553 796l38 1h67
l11 -141h-83q-116 0 -176 -53.5t-60 -152.5q0 -116 91 -187.5t247 -71.5l1 1q189 0 314.5 113.5t125.5 306.5q0 90 -36.5 142t-91.5 52q-78 0 -156 -52l-35 139q37 18 60 28q60 27 135 27q14 0 40 -2v193h-528q-90 0 -137 -44t-47 -122.5t50.5 -127.5t130.5 -49h39z" />
    <glyph glyph-name="uF0221" unicode="&#xf0221;" horiz-adv-x="1354" 
d="M957 718h-348q55 -45 86 -110t31 -139q0 -163 -99.5 -261t-281.5 -98q-73 0 -137.5 16.5t-146.5 54.5l33 141q71 -38 120 -51t108 -12q108 2 166.5 56.5t58.5 159t-78 173.5t-210 69h-74v141h771v280h-986v141h1414v-141h-251v-1138h-177l1 127l-447 -306l-98 125
l545 368v404z" />
    <glyph glyph-name="uF0222" unicode="&#xf0222;" horiz-adv-x="1662" 
d="M386 19q-112 0 -181 39.5t-69 101t42 104.5t104 43t108.5 -32t109.5 -113q119 1 187 51t68 121t-42.5 108t-117 37t-120.5 -14.5t-97 -46.5h-21q-109 33 -177 110.5t-68 180.5t81.5 170.5t228.5 67.5h232v189h-685v141h1722v-141h-251v-1138h-177v263l-305 -389l-120 102
l321 395h-230q2 -24 2 -39q0 -119 -95 -201t-258 -97l164 -202l-139 -70l-211 259h-6zM1263 510v626h-431v-330h-403q-70 0 -107.5 -33t-37.5 -91q0 -76 77 -111q105 51 224 51l-1 -2q195 0 286 -110h393z" />
    <glyph glyph-name="uF0223" unicode="&#xf0223;" horiz-adv-x="1607" 
d="M423 542v-54q0 -120 -97 -120q-87 0 -165.5 74.5t-78.5 159.5q0 40 31.5 63t87.5 23h45v277q0 88 -30.5 131.5t-74 42.5t-65.5 -8t-62 -30l-27 138q73 47 169 47q122 0 194.5 -83t72.5 -244v-270h327v449h-101v141h989v-141h-711v-319q95 42 213 42q164 0 264.5 -97
t100.5 -250q0 -180 -129 -343l-166 30q63 88 89.5 160.5t26.5 158.5t-54 144t-152.5 58t-193.5 -73v-649h-177l1 374l-470 -425l-121 114l545 479h-281z" />
    <glyph glyph-name="uF0224" unicode="&#xf0224;" horiz-adv-x="1460" 
d="M1062 0v247l-484 -344l-99 126l583 409v144h-269q-13 -148 -113.5 -241t-261.5 -93q-190 0 -364 114l37 141q107 -63 168.5 -81t132.5 -18q102 0 163.5 61t61.5 161.5t-60.5 160.5t-174 60t-228.5 -59l-31 144q124 63 266.5 63t249.5 -73t142 -194h281v410h-1092v141
h1520v-141h-251v-1138h-177z" />
    <glyph glyph-name="uF0225" unicode="&#xf0225;" horiz-adv-x="1039" 
d="M199.5 226.5q-119.5 108.5 -119.5 280t123 281t338 109.5h100v240h-671v141h1099v-141h-251v-381h-239q-156 0 -239.5 -70t-83.5 -188t93 -185t247 -67q85 0 136 9.5t129 36.5l15 -152q-114 -39 -213 -44l326 -227l-92 -111l-301 212l-297 -214l-97 113l325 230
q-208 19 -327.5 127.5z" />
    <glyph glyph-name="uF0226" unicode="&#xf0226;" horiz-adv-x="1191" 
d="M193.5 209q-117.5 116 -117.5 289.5t130.5 281t331.5 107.5h255v249h-823v141h1251v-141h-251v-353q93 -115 94 -300q1 -164 -108.5 -277t-301.5 -131l325 -226l-92 -111l-301 210l-297 -214l-97 113l321 226q-202 20 -319.5 136zM572 221v-1q150 0 236 73t86 195
q0 88 -25.5 148.5t-88.5 111.5h-190q-167 0 -254 -68t-87 -191.5t91 -195.5t232 -72z" />
    <glyph glyph-name="uF0227" unicode="&#xf0227;" horiz-adv-x="1082" 
d="M525 179q123 0 191 44t68 113t-42.5 106t-123.5 37q-121 0 -226 -66h-21q-108 33 -176.5 113t-68.5 183t81.5 170.5t228.5 67.5h247v189h-713v141h1142v-141h-251v-330h-418q-147 0 -147 -123q0 -80 82 -116q118 54 235 54q163 0 255 -79t92 -211q0 -111 -83.5 -187
t-230.5 -97l283 -197l-92 -111l-302 210l-297 -214l-97 113l282 199q-179 25 -329 110l44 147q79 -50 189.5 -87.5t197.5 -37.5z" />
    <glyph glyph-name="uF0228" unicode="&#xf0228;" horiz-adv-x="1084" 
d="M190.5 207q-110.5 120 -110.5 297.5t121.5 282.5t335.5 105h147v246h-715v141h1144v-141h-251v-387h-309q-134 0 -216 -70t-82 -190q0 -149 102 -227t264 -78q98 0 154.5 41t56.5 105q0 105 -139 105q-51 0 -96.5 -22t-109.5 -72l-65 128q118 110 266.5 110t230 -70
t81.5 -178.5t-76 -188t-221 -95.5l286 -199l-92 -111l-302 211l-297 -214l-97 113l292 206q-192 32 -302.5 152z" />
    <glyph glyph-name="uF0229" unicode="&#xf0229;" horiz-adv-x="1467" 
d="M1069 0v312l-503 -376l-97 127l600 438v637h-265v-390q0 -170 -83 -265t-243.5 -95t-251.5 96t-91 265v389h-165v141h1527v-141h-251v-1138h-177zM352 585.5q40 -56.5 116.5 -56.5t117.5 55t41 161v393h-315v-393q0 -103 40 -159.5z" />
    <glyph glyph-name="uF022A" unicode="&#xf022a;" horiz-adv-x="1096" 
d="M704 0v453l-470 -285l-92 139l521 309l-98 63q-161 103 -267 103t-248 -71l-32 158q130 71 275.5 71t312.5 -104l98 -62v364h-734v141h1162v-141h-251v-1138h-177z" />
    <glyph glyph-name="uF022B" unicode="&#xf022b;" horiz-adv-x="1251" 
d="M501 974q0 72 -39 112t-100 40t-94.5 -36.5t-33.5 -95.5q0 -26 12 -79l-134 -19q-24 64 -22 141q3 99 75 163t184 64q137 0 218 -80.5t81 -197.5t-54 -202q-106 -163 -327 -184q43 -105 133 -165.5t193 -60.5t191 44l33 19q16 11 36 27v674h-102v141h530v-141h-251v-1138
h-177l-1 282l-592 -347l-93 128l314 180q-141 31 -249 139t-166 296l5 37q430 17 430 259z" />
    <glyph glyph-name="uF022C" unicode="&#xf022c;" horiz-adv-x="1051" 
d="M95 547q0 158 119 254.5t312 96.5h128v240h-683v141h1111v-141h-251v-381h-275q-139 0 -213 -62t-74 -167t84.5 -172.5t209.5 -67.5q10 0 18 1q-6 23 -6 51q1 49 39 82t118.5 33t132.5 -44.5t52 -101.5q0 -94 -117 -136l119 -305l-163 -31l-109 305l-518 -251l-82 138
l327 151q-129 45 -204 141t-75 226z" />
    <glyph glyph-name="uF022D" unicode="&#xf022d;" horiz-adv-x="1277" 
d="M548 848l44 1h67l11 -141h-83q-265 0 -265 -187q0 -85 66 -137t176 -52q177 0 315 98v708h-102v141h530v-141h-251v-1138h-177l-1 257l-698 -336l-82 138l318 146q-129 32 -200.5 119t-71.5 209q0 159 141 245q-76 44 -123 112.5t-47 150.5q0 108 80.5 179.5t215.5 71.5
q102 0 179 -37l-20 -123q-38 15 -63.5 19t-71.5 4q-68 0 -106 -36t-38 -102t67 -117.5t156 -51.5h34z" />
    <glyph glyph-name="uF022E" unicode="&#xf022e;" horiz-adv-x="1118" 
d="M720 0v269l-421 -313l-101 129l522 378v196h-367v-146q0 -119 -100 -119q-68 0 -124 82.5t-56 190.5q0 138 169 138h478v333h-750v141h1178v-141h-251v-1138h-177z" />
    <glyph glyph-name="uF022F" unicode="&#xf022f;" horiz-adv-x="1094" 
d="M697 1v401l-456 -452l-121 114l365 350q-164 2 -259.5 106t-95.5 307v312h-159v141h1154v-141h-251v-1138h-177zM696 1139h-390v-351q0 -121 47.5 -177.5t132.5 -56.5l1 1q128 0 209 76v508z" />
    <glyph glyph-name="uF0230" unicode="&#xf0230;" horiz-adv-x="1554" 
d="M131 827v312h-159v141h1614v-141h-711v-319q95 42 213 42q164 0 264.5 -97t100.5 -250q0 -180 -129 -343l-166 30q63 88 89.5 160.5t26.5 158.5t-54 144t-152.5 58t-193.5 -73v-649h-177l1 401l-456 -452l-121 114l365 350q-164 2 -259.5 106t-95.5 307zM696 1139h-390
v-351q0 -121 47.5 -177.5t132.5 -56.5l1 1q128 0 209 76v508z" />
    <glyph glyph-name="uF0231" unicode="&#xf0231;" horiz-adv-x="1115" 
d="M718 0v261l-559 -330l-82 138l281 159q-132 33 -211.5 133t-79.5 235q0 153 106.5 251t293.5 98q136 0 251 -51v244h-747v141h1175v-141h-251v-1138h-177zM477 358q33 0 67 6l-216 393q-84 -61 -84 -171.5t63.5 -169t169.5 -58.5zM717 738q-100 66 -229 66q-29 0 -50 -4
l220 -397q35 20 59 44v291z" />
    <glyph glyph-name="uF0232" unicode="&#xf0232;" horiz-adv-x="1147" 
d="M749 0v374l-470 -425l-121 114l545 479h-281v-54q0 -120 -97 -120q-87 0 -165.5 74.5t-78.5 159.5q0 40 31.5 63t87.5 23h45v277q0 88 -30.5 131.5t-74 42.5t-65.5 -8t-62 -30l-27 138q73 47 169 47q122 0 194.5 -83t72.5 -244v-270h327v449h-101v141h529v-141h-251
v-1138h-177z" />
    <glyph glyph-name="uF0233" unicode="&#xf0233;" horiz-adv-x="1179" 
d="M781 0v404l-502 -454l-121 114l545 479h-281v-54q0 -120 -97 -120q-87 0 -165.5 74.5t-78.5 159.5q0 40 31.5 63t87.5 23h45v449h-275v141h1239v-141h-251v-1138h-177zM781 1138h-359v-449h359v449z" />
    <glyph glyph-name="uF0234" unicode="&#xf0234;" horiz-adv-x="1187" 
d="M790 0v324l-562 -388l-97 127l343 231q-136 24 -242 122t-166 271l5 31q142 18 208 70.5t66 139.5q0 60 -26.5 110t-88.5 100h-259v141h1247v-141h-251v-1138h-177zM556 434h1q77 0 129 17.5t104 61.5v625h-367q39 -45 62 -104t23 -118q0 -108 -68.5 -188.5t-171.5 -98.5
q44 -95 119 -145t169 -50z" />
    <glyph glyph-name="uF0235" unicode="&#xf0235;" horiz-adv-x="865" 
d="M664 -261l-301 212l-297 -214l-97 113l357 252h68l362 -252zM481 889v249h-495v141h909v-141h-237v-272q0 -307 -233 -370l353 -415l-130 -94l-616 741l123 96l168 -165q83 8 120.5 62.5t37.5 167.5z" />
    <glyph glyph-name="uF0236" unicode="&#xf0236;" horiz-adv-x="1526" 
d="M1126 0v238l-486 -346l-99 126l585 411v257q-61 50 -140.5 50t-130.5 -77t-51 -232v-130h-177v126q0 143 -61 220.5t-150 77.5q-67 0 -112 -54.5t-45 -156t41.5 -198t138.5 -215.5l-144 -60q-212 244 -212 498q0 150 89.5 247.5t228.5 97.5q98 0 176.5 -38t129.5 -108
q49 70 119.5 109.5t148.5 39.5t151 -29v284h-1156v141h1586v-141h-251v-1138h-179z" />
    <glyph glyph-name="uF0237" unicode="&#xf0237;" horiz-adv-x="1441" 
d="M1027 -262l-301 212l-297 -214l-97 113l357 252h68l362 -252zM83 531q0 150 89.5 247.5t228.5 97.5q99 0 178.5 -39.5t129.5 -109.5q51 71 124.5 110.5t159.5 39.5q32 0 48 -3v263h-1071v141h1501v-141h-251v-333q115 -93 115 -263q0 -142 -43.5 -254t-138.5 -232
l-148 57q86 129 120.5 214.5t34.5 190.5t-43.5 159.5t-122.5 54.5t-134.5 -76.5t-55.5 -230.5v-130h-177v126q0 143 -61 220.5t-150 77.5q-67 0 -112 -54.5t-45 -156t41.5 -198t138.5 -215.5l-144 -61q-212 244 -212 498z" />
    <glyph glyph-name="uF0238" unicode="&#xf0238;" horiz-adv-x="1568" 
d="M82 496q0 187 98 295t272 108q105 0 189 -44.5t136 -118.5q50 77 132.5 120t172.5 43q39 0 86 -7v246h-1198v141h1628v-141h-251v-332q116 -110 116 -311q0 -162 -78 -271t-209 -135l343 -239l-92 -111l-301 212l-297 -214l-97 113l331 234q-86 7 -159.5 47.5
t-121.5 108.5q-42 -71 -123 -112t-196 -44q-170 -4 -275.5 110.5t-105.5 301.5zM305 287q59 -70 156 -70t154 69t57 208q0 269 -221 269q-93 0 -149 -69.5t-56 -203t59 -203.5zM1240 695.5q-56 68.5 -147.5 68.5t-147.5 -67t-56 -201.5t56 -203.5t149.5 -69t147.5 72t54 202
t-56 198.5z" />
    <glyph glyph-name="uF0239" unicode="&#xf0239;" horiz-adv-x="1115" 
d="M717 0v261l-559 -330l-82 138l281 159q-132 33 -211.5 133t-79.5 235q0 153 106.5 251t293.5 98q136 0 251 -51v244h-747v141h1175v-141h-251v-1138h-177zM476 358q148 0 241 89v291q-100 66 -219 66t-187 -59.5t-68 -164.5t63.5 -163.5t169.5 -58.5z" />
    <glyph glyph-name="uF023A" unicode="&#xf023a;" horiz-adv-x="1372" 
d="M334 1010q0 -123 147 -191q73 50 102.5 93.5t29.5 103t-40.5 100t-100.5 40.5t-99 -40t-39 -106zM973 614h-195q-149 0 -274 39l-375 -240l-82 139l294 178q-172 118 -172 295q0 116 80.5 191t219 75t220.5 -79.5t82 -198.5q0 -136 -111 -243q64 -8 126 -8h188v376h-93
v141h521v-141h-251v-1138h-177l-1 414l-521 -379l-99 131l620 444v4z" />
    <glyph glyph-name="uF023B" unicode="&#xf023b;" horiz-adv-x="1094" 
d="M696 1v401l-456 -452l-121 114l365 350q-164 2 -259.5 106t-95.5 307v312h-159v141h1154v-141h-251v-1138h-177zM486 554v1q62 0 112 17l-292 528v-312q0 -121 47.5 -177.5t132.5 -56.5zM696 1138h-278l278 -499v499z" />
    <glyph glyph-name="uF023C" unicode="&#xf023c;" horiz-adv-x="1399" 
d="M429 890v249h-459v141h1459v-141h-251v-1138h-177v451l-238 -239l-120 114l256 245h-390q-48 -48 -124 -71l301 -427l-138 -78l-535 754l120 86l166 -177q68 16 99 72t31 159zM606 867q0 -86 -18 -155h413v426h-395v-271z" />
    <glyph glyph-name="uF023D" unicode="&#xf023d;" horiz-adv-x="1081" 
d="M149 218q0 133 87 238q-132 100 -132 240q0 110 85.5 177.5t227.5 67.5h264v197h-712v141h1141v-141h-251v-338h-424q-75 0 -115 -33t-40 -89q0 -80 74 -127q101 52 230 52q97 0 176 -29t128 -78q102 -100 102 -235q0 -50 -4 -76t-17 -81l-157 15q17 79 17 130
q0 81 -48 134l-196 -304l-138 74l187 297q-26 2 -41 2q-115 0 -190.5 -77t-75.5 -176q0 -72 27 -126t86 -95q120 -82 397 -82l-20 -141q-330 0 -499 125.5t-169 337.5z" />
    <glyph glyph-name="uF023E" unicode="&#xf023e;" horiz-adv-x="1572" 
d="M434 102q-162 0 -266.5 90.5t-104.5 235.5q0 214 247 336q-133 110 -133 262q0 116 80 191t217 75t220 -79t83 -195q0 -138 -122 -242q88 -13 180 -13h338v376h-183v141h611v-141h-251v-1138h-177v348l-225 -303l-128 94l353 462v12h-345q-207 0 -354 58
q-126 -58 -179.5 -119t-53.5 -138t49 -120.5t129 -43.5q13 0 39 2q-18 34 -18 66q0 46 39 78t100 32q90 0 145.5 -40t55.5 -106q0 -77 -100 -131l102 -214l-156 -42l-94 213q-54 -7 -98 -7zM347 1009v-1q0 -108 124 -174q149 78 149 183q0 66 -37 101.5t-97.5 35.5
t-99.5 -39.5t-39 -105.5z" />
    <glyph glyph-name="uF023F" unicode="&#xf023f;" horiz-adv-x="1467" 
d="M262 102q-112 0 -181 39.5t-69 101t42 104.5t102.5 43t102.5 -25t100 -93q90 10 139 64t49 154t-78 169t-210 69h-74v141h884v270h-1099v141h1527v-141h-251v-1138h-177v349l-273 -363l-125 103l398 505v133h-461q55 -45 86 -110t31 -139q0 -139 -73 -232t-209 -118
l176 -217l-139 -70l-212 260h-6z" />
    <glyph glyph-name="uF0240" unicode="&#xf0240;" horiz-adv-x="1595" 
d="M737 -1v260l-477 -325l-95 123l222 145q-123 28 -198.5 121.5t-75.5 242t100 241t268 92.5q130 0 256 -50v288h-704v141h1592v-141h-711v-318q89 41 206 41q164 0 268.5 -97.5t104.5 -249.5q0 -180 -129 -343l-166 30q63 88 89.5 160.5t26.5 158.5t-54 144t-152.5 58
t-193.5 -73v-649h-177zM147 287v-162h-177v162h177zM485 333v-1q96 0 175 48q48 32 77 65v247q-113 67 -241 67q-96 0 -151.5 -55t-55.5 -155.5t55.5 -158t140.5 -57.5z" />
    <glyph glyph-name="uF0241" unicode="&#xf0241;" horiz-adv-x="1698" 
d="M316 79v-162h-177v162h177zM1301 0v286l-343 -336l-116 114l252 234q-138 4 -241 99.5t-103 239t97 230t231.5 86.5t222.5 -41v226h-658v-272q0 -307 -233 -370l353 -415l-130 -94l-616 741l123 96l168 -165q83 8 120.5 62.5t37.5 167.5v249h-495v141h1758v-141h-251
v-1138h-177zM1114 440h1q55 0 97.5 11.5t87.5 44.5v262q-48 32 -91 43t-113 11t-120 -50t-50 -136t55 -136t133 -50z" />
    <glyph glyph-name="uF0242" unicode="&#xf0242;" horiz-adv-x="1208" 
d="M810 0v298l-484 -362l-97 127l581 430v645h-377v-619q0 -120 -97 -120q-87 0 -165.5 74.5t-78.5 159.5q0 40 31.5 63t87.5 23h45v419h-286v141h1268v-141h-251v-1138h-177zM245 328v-162h-177v162h177z" />
    <glyph glyph-name="uF0243" unicode="&#xf0243;" horiz-adv-x="1354" 
d="M316 39v-162h-177v162h177zM957 718h-348q55 -45 86 -110t31 -139q0 -163 -99.5 -261t-281.5 -98q-73 0 -137.5 16.5t-146.5 54.5l33 141q71 -38 120 -51t108 -12q108 2 166.5 56.5t58.5 159t-78 173.5t-210 69h-74v141h771v280h-986v141h1414v-141h-251v-1138h-177
l1 127l-447 -306l-98 125l545 368v404z" />
    <glyph glyph-name="uF0244" unicode="&#xf0244;" horiz-adv-x="1094" 
d="M537 179q123 0 191 44t68 113t-42.5 106t-123.5 37q-121 0 -226 -66h-21q-108 33 -176.5 113t-68.5 183t81.5 170.5t228.5 67.5h247v189h-713v141h1142v-141h-251v-330h-418q-147 0 -147 -123q0 -80 82 -116q118 54 235 54q163 0 255 -79t92 -211q0 -111 -83.5 -187
t-230.5 -97l283 -197l-92 -111l-302 210l-297 -214l-97 113l282 199q-179 25 -329 110l44 147q79 -50 189.5 -87.5t197.5 -37.5zM147 78v-162h-177v162h177z" />
    <glyph glyph-name="uF0245" unicode="&#xf0245;" horiz-adv-x="1084" 
d="M190.5 207q-110.5 120 -110.5 297.5t121.5 282.5t335.5 105h147v246h-715v141h1144v-141h-251v-387h-309q-134 0 -216 -70t-82 -190q0 -149 102 -227t264 -78q98 0 154.5 41t56.5 105q0 105 -139 105q-51 0 -96.5 -22t-109.5 -72l-65 128q118 110 266.5 110t230 -70
t81.5 -178.5t-76 -188t-221 -95.5l286 -199l-92 -111l-302 211l-297 -214l-97 113l292 206q-192 32 -302.5 152zM215 97v-162h-177v162h177z" />
    <glyph glyph-name="uF0246" unicode="&#xf0246;" horiz-adv-x="1118" 
d="M720 0v269l-421 -313l-101 129l522 378v196h-367v-146q0 -119 -100 -119q-68 0 -124 82.5t-56 190.5q0 138 169 138h478v333h-750v141h1178v-141h-251v-1138h-177zM235 338v-162h-177v162h177z" />
    <glyph glyph-name="uF0247" unicode="&#xf0247;" horiz-adv-x="1554" 
d="M177 369v-162h-177v162h177zM131 827v312h-159v141h1614v-141h-711v-319q95 42 213 42q164 0 264.5 -97t100.5 -250q0 -180 -129 -343l-166 30q63 88 89.5 160.5t26.5 158.5t-54 144t-152.5 58t-193.5 -73v-649h-177l1 401l-456 -452l-121 114l365 350q-164 2 -259.5 106
t-95.5 307zM696 1139h-390v-351q0 -121 47.5 -177.5t132.5 -56.5l1 1q128 0 209 76v508z" />
    <glyph glyph-name="uF0248" unicode="&#xf0248;" horiz-adv-x="1187" 
d="M790 0v324l-562 -388l-97 127l343 231q-136 24 -242 122t-166 271l5 31q142 18 208 70.5t66 139.5q0 60 -26.5 110t-88.5 100h-259v141h1247v-141h-251v-1138h-177zM196 338v-162h-177v162h177zM556 434h1q77 0 129 17.5t104 61.5v625h-367q39 -45 62 -104t23 -118
q0 -108 -68.5 -188.5t-171.5 -98.5q44 -95 119 -145t169 -50z" />
    <glyph glyph-name="uF0249" unicode="&#xf0249;" horiz-adv-x="877" 
d="M676 -261l-301 212l-297 -214l-97 113l357 252h68l362 -252zM147 258v-162h-177v162h177zM493 889v249h-495v141h909v-141h-237v-272q0 -307 -233 -370l353 -415l-130 -94l-616 741l123 96l168 -165q83 8 120.5 62.5t37.5 167.5z" />
    <glyph glyph-name="uF024A" unicode="&#xf024a;" horiz-adv-x="1568" 
d="M82 496q0 187 98 295t272 108q105 0 189 -44.5t136 -118.5q50 77 132.5 120t172.5 43q39 0 86 -7v246h-1198v141h1628v-141h-251v-332q116 -110 116 -311q0 -162 -78 -271t-209 -135l343 -239l-92 -111l-301 212l-297 -214l-97 113l331 234q-86 7 -159.5 47.5
t-121.5 108.5q-42 -71 -123 -112t-196 -44q-170 -4 -275.5 110.5t-105.5 301.5zM315 18v-162h-177v162h177zM305 287q59 -70 156 -70t154 69t57 208q0 269 -221 269q-93 0 -149 -69.5t-56 -203t59 -203.5zM1240 695.5q-56 68.5 -147.5 68.5t-147.5 -67t-56 -201.5t56 -203.5
t149.5 -69t147.5 72t54 202t-56 198.5z" />
    <glyph glyph-name="uF024B" unicode="&#xf024b;" horiz-adv-x="1135" 
d="M126 325.5q-75 92.5 -75 241t100 241t268 92.5q130 0 256 -50v288h-704v141h1256v-141h-375v-368q91 50 196.5 50t196 -37.5t149.5 -102.5l-45 -140q-125 129 -285 129q-119 0 -213 -82v-587h-177l1 261l-477 -325l-95 123l221 144q-123 30 -198 122.5zM281.5 390.5
q55.5 -57.5 140 -57.5t163.5 41l44 29q29 24 45 42v247q-113 67 -241 67q-96 0 -151.5 -55t-55.5 -155.5t55.5 -158z" />
    <glyph glyph-name="uF024C" unicode="&#xf024c;" horiz-adv-x="1264" 
d="M977 485q54 -48 142 -48t142 51t54 135t-56 136t-143 52t-140 -52t-53 -139t54 -135zM466 888v249h-496v141h1362v-141h-689v-272q0 -307 -233 -370l353 -415l-130 -94l-616 741l123 96l168 -165q83 8 120.5 62.5t37.5 167.5zM843 407q-94 94 -94 235.5t96 226t259 84.5
t266.5 -94.5t103.5 -237.5q0 -118 -74 -206l-443 -466l-116 113l236 236q-140 15 -234 109z" />
    <glyph glyph-name="uF024D" unicode="&#xf024d;" horiz-adv-x="641" 
d="M840 515l92 -126l-606 -453l-97 127zM336 399q-87 0 -165.5 74.5t-78.5 159.5q0 40 31.5 63t87.5 23h45v419h-286v141h740v-141h-277v-619q0 -120 -97 -120z" />
    <glyph glyph-name="uF024E" unicode="&#xf024e;" horiz-adv-x="854" 
d="M538 848l44 1h67l11 -141h-83q-264 0 -264 -187q0 -85 65 -136.5t175 -51.5q274 0 443 284l86 -148q-107 -164 -273 -233l-614 -314l-82 137l296 144q-130 32 -202 119.5t-72 209.5q0 162 144 247q-124 84 -124 234q0 68 33 125h-228v141h969v-141h-422q-89 0 -131.5 -37
t-42.5 -104t45.5 -108t125.5 -41h34z" />
    <glyph glyph-name="uF024F" unicode="&#xf024f;" horiz-adv-x="1219" 
d="M431 -325l73 130l472 -251l-72 -127zM525 180q123 0 191 44t68 113t-42.5 106t-123.5 37q-121 0 -226 -66h-21q-108 33 -176.5 113t-68.5 183t81.5 170.5t228.5 67.5h247v189h-713v141h1279v-141h-388v-330h-418q-147 0 -147 -123q0 -80 82 -116q118 54 235 54
q163 0 255 -79t92 -211q0 -108 -79 -183.5t-219 -98.5l287 -200l-92 -111l-303 212l-297 -214l-97 113l278 196q-191 26 -344 112l44 147q79 -50 189.5 -87.5t197.5 -37.5zM1148 772v-167h-177v167h177z" />
    <glyph glyph-name="uF0250" unicode="&#xf0250;" horiz-adv-x="875" 
d="M316.5 341.5q-61.5 83.5 -61.5 194t52 182.5h-260v141h693v-141h-98q-105 -7 -157.5 -59t-52.5 -134.5t58 -130.5t163.5 -48t205 68t175.5 208l99 -138q-108 -184 -277 -252l-638 -311l-82 137l349 162q-107 38 -168.5 121.5zM955 1138h-985v141h985v-141z" />
    <glyph glyph-name="uF0251" unicode="&#xf0251;" horiz-adv-x="1443" 
d="M574 -326l73 130l472 -251l-72 -127zM289.5 187.5q-115.5 108.5 -115.5 275.5t133 258q-69 44 -109.5 113t-40.5 153.5t42 151.5h-228v141h1503v-141h-251v-289q76 -95 76 -250q0 -213 -138 -362.5t-368 -179.5l297 -207l-92 -111l-301 212l-297 -214l-97 113l291 206
q-189 22 -304.5 130.5zM553 796l38 1h67l11 -141h-83q-116 0 -176 -53.5t-60 -152.5q0 -116 91 -187.5t247 -71.5l1 1q189 0 314.5 113.5t125.5 306.5q0 90 -36.5 142t-91.5 52q-78 0 -156 -52l-35 139q37 18 60 28q60 27 135 27q14 0 40 -2v193h-528q-90 0 -137 -44
t-47 -122.5t50.5 -127.5t130.5 -49h39z" />
    <glyph glyph-name="uF0252" unicode="&#xf0252;" horiz-adv-x="925" 
d="M488.5 316.5q58.5 54.5 58.5 159t-78 173.5t-210 69h-74v141h985v-141h-562q55 -45 86 -110t31 -139q0 -163 -99.5 -261t-281.5 -98l1 1q-73 0 -137.5 16.5t-146.5 54.5l33 141q71 -38 120 -51t108 -12q108 2 166.5 56.5zM1022 358l94 -122l-607 -416l-98 125zM1006 1138
h-1036v141h1036v-141z" />
    <glyph glyph-name="uF0253" unicode="&#xf0253;" horiz-adv-x="1062" 
d="M377 19q-112 0 -181 39.5t-69 101t42 104.5t104.5 43t107 -29.5t112.5 -112.5v-3h4q121 0 190 50.5t69 121.5t-42.5 108t-117 37t-120.5 -14.5t-97 -46.5h-21q-109 33 -177 110.5t-68 180.5t81.5 170.5t228.5 67.5h232v189h-685v141h1133v-141h-270v-330h-403
q-70 0 -107.5 -33t-37.5 -91q0 -76 77 -111q105 51 219 51t192.5 -37t118.5 -103h436v-110l3 -2l-3 -4v-25h-19l-350 -467l-120 102l288 365h-195v-10q0 -121 -97.5 -203t-264.5 -95l163 -201l-139 -70l-211 257h-6z" />
    <glyph glyph-name="uF0254" unicode="&#xf0254;" horiz-adv-x="1210" 
d="M423 542v-54q0 -120 -97 -120q-87 0 -165.5 74.5t-78.5 159.5q0 40 31.5 63t87.5 23h45v277q0 88 -30.5 131.5t-74 42.5t-65.5 -8t-62 -30l-27 138q73 47 169 47q122 0 194.5 -83t72.5 -244v-270h327v449h-101v141h782v-141h-504v-368q91 50 196.5 50t196 -37.5
t149.5 -102.5l-45 -140q-125 129 -285 129q-119 0 -213 -82v-587h-177l1 374l-470 -425l-121 114l545 479h-281z" />
    <glyph glyph-name="uF0255" unicode="&#xf0255;" horiz-adv-x="1017" 
d="M1161 458l94 -124l-606 -431l-99 126zM419 248q-190 0 -364 114l37 141q107 -63 168.5 -81t132.5 -18q102 0 163.5 61t61.5 161.5t-60.5 160.5t-174 60t-228.5 -59l-31 144q124 63 266.5 63t249.5 -73t142 -194h443v-146h-431q-13 -148 -113.5 -241t-261.5 -93z
M1040 1138h-1070v141h1070v-141z" />
    <glyph glyph-name="uF0256" unicode="&#xf0256;" horiz-adv-x="1039" 
d="M475 -306l73 130l472 -251l-72 -127zM199.5 226.5q-119.5 108.5 -119.5 280t123 281t338 109.5h100v240h-671v141h1099v-141h-251v-381h-239q-156 0 -239.5 -70t-83.5 -188t93 -185t247 -67q85 0 136 9.5t129 36.5l15 -152q-114 -39 -213 -44l326 -227l-92 -111l-301 212
l-297 -214l-97 113l325 230q-208 19 -327.5 127.5z" />
    <glyph glyph-name="uF0257" unicode="&#xf0257;" horiz-adv-x="1191" 
d="M463 -314l73 130l472 -251l-72 -127zM193.5 209q-117.5 116 -117.5 289.5t130.5 281t331.5 107.5h255v249h-823v141h1251v-141h-251v-353q93 -115 94 -300q1 -164 -108.5 -277t-301.5 -131l325 -226l-92 -111l-301 210l-297 -214l-97 113l321 226q-202 20 -319.5 136z
M572 221v-1q150 0 236 73t86 195q0 88 -25.5 148.5t-88.5 111.5h-190q-167 0 -254 -68t-87 -191.5t91 -195.5t232 -72z" />
    <glyph glyph-name="uF0258" unicode="&#xf0258;" horiz-adv-x="1082" 
d="M402 -333l73 130l472 -251l-72 -127zM525 179q123 0 191 44t68 113t-42.5 106t-123.5 37q-121 0 -226 -66h-21q-108 33 -176.5 113t-68.5 183t81.5 170.5t228.5 67.5h247v189h-713v141h1142v-141h-251v-330h-418q-147 0 -147 -123q0 -80 82 -116q118 54 235 54
q163 0 255 -79t92 -211q0 -111 -83.5 -187t-230.5 -97l283 -197l-92 -111l-302 210l-297 -214l-97 113l282 199q-179 25 -329 110l44 147q79 -50 189.5 -87.5t197.5 -37.5z" />
    <glyph glyph-name="uF0259" unicode="&#xf0259;" horiz-adv-x="1084" 
d="M481 -319l73 130l472 -251l-72 -127zM190.5 207q-110.5 120 -110.5 297.5t121.5 282.5t335.5 105h147v246h-715v141h1144v-141h-251v-387h-309q-134 0 -216 -70t-82 -190q0 -149 102 -227t264 -78q98 0 154.5 41t56.5 105q0 105 -139 105q-51 0 -96.5 -22t-109.5 -72
l-65 128q118 110 266.5 110t230 -70t81.5 -178.5t-76 -188t-221 -95.5l286 -199l-92 -111l-302 211l-297 -214l-97 113l292 206q-192 32 -302.5 152z" />
    <glyph glyph-name="uF025A" unicode="&#xf025a;" horiz-adv-x="908" 
d="M1082 510l90 -121l-606 -453l-97 127zM352 585.5q40 -56.5 116.5 -56.5t117.5 55t41 161v393h-315v-393q0 -103 40 -159.5zM721 483q-83 -95 -243.5 -95t-251.5 96t-91 265v389h-165v141h1038v-141h-204v-390q0 -170 -83 -265z" />
    <glyph glyph-name="uF025B" unicode="&#xf025b;" horiz-adv-x="646" 
d="M565 679q-161 103 -267 103t-248 -71l-32 158q130 71 275.5 71t312.5 -104l181 -114v-34l44 -158l-597 -362l-92 139l522 308zM772 1138h-802v141h802v-141z" />
    <glyph glyph-name="uF025C" unicode="&#xf025c;" horiz-adv-x="864" 
d="M500 973q0 72 -39 112t-100 40t-94.5 -36.5t-33.5 -95.5q0 -26 12 -79l-134 -19q-24 64 -22 141q3 99 75 163t184 64q137 0 218 -80.5t81 -204.5q0 -159 -111.5 -260.5t-271.5 -117.5q42 -99 134.5 -151.5t200 -52.5t188.5 35l9 6l1 -1q119 57 243 227l78 -137
q-118 -141 -234 -206l1 -1l-596 -383l-98 125l320 198q-152 23 -269 126t-177 292l5 37q430 17 430 259z" />
    <glyph glyph-name="uF025D" unicode="&#xf025d;" horiz-adv-x="1051" 
d="M354 -221l73 130l472 -251l-72 -127zM95 547q0 158 119 254.5t312 96.5h128v240h-683v141h1111v-141h-251v-381h-275q-139 0 -213 -62t-74 -167t84.5 -172.5t209.5 -67.5q10 0 18 1q-6 23 -6 51q1 49 39 82t118.5 33t132.5 -44.5t52 -101.5q0 -94 -117 -136l119 -305
l-163 -31l-109 305l-518 -251l-82 138l327 151q-129 45 -204 141t-75 226z" />
    <glyph glyph-name="uF025E" unicode="&#xf025e;" horiz-adv-x="827" 
d="M547 848l44 1h67l11 -141h-83q-264 0 -264 -187q0 -85 65 -136.5t175 -51.5q274 0 443 284l86 -148h-1q-103 -161 -266 -231l-621 -317l-82 138l298 145q-130 32 -202.5 119.5t-72.5 209.5q0 159 141 245q-76 44 -123 112.5t-47 150.5q0 108 80.5 179.5t215.5 71.5
q102 0 179 -37l-20 -123q-38 15 -63.5 19t-71.5 4q-68 0 -106 -36t-38 -102t67 -117.5t156 -51.5h33z" />
    <glyph glyph-name="uF025F" unicode="&#xf025f;" horiz-adv-x="659" 
d="M898 552l94 -123l-573 -473l-101 129zM253 343q-68 0 -124 82.5t-56 190.5q0 138 169 138h663v-146h-552v-146q0 -119 -100 -119zM738 1138h-768v141h768v-141z" />
    <glyph glyph-name="uF0260" unicode="&#xf0260;" horiz-adv-x="594" 
d="M130 827v312h-159v141h737v-141h-401v-351q0 -121 47.5 -177.5t132.5 -56.5q134 0 237 85l1 1q22 16 44 42l65 -142l-2 -2l5 -4l-597 -585l-120 115l363 346q-163 2 -258 107.5t-95 309.5z" />
    <glyph glyph-name="uF0261" unicode="&#xf0261;" horiz-adv-x="1157" 
d="M131 827v312h-159v141h1264v-141h-361v-368q91 50 196.5 50t196 -37.5t149.5 -102.5l-45 -140q-125 129 -285 129q-119 0 -213 -82v-587h-177l1 401l-456 -452l-121 114l365 350q-164 2 -259.5 106t-95.5 307zM696 1139h-390v-351q0 -121 47.5 -177.5t132.5 -56.5l1 1
q128 0 209 76v508z" />
    <glyph glyph-name="uF0262" unicode="&#xf0262;" horiz-adv-x="677" 
d="M483 358q35 0 56 5l-218 398q-89 -60 -89 -172t71.5 -171.5t179.5 -59.5zM66 596q0 152 110 251.5t300 99.5t305 -104t115 -257q0 -110 -55.5 -197t-155.5 -133l-527 -315l-82 138l270 153q-128 38 -204 136t-76 228zM767 1279v-141h-797v141h797zM747 588
q0 61 -32.5 109.5t-95 77t-144.5 28.5q-29 0 -42 -3l218 -393q96 65 96 181z" />
    <glyph glyph-name="uF0263" unicode="&#xf0263;" horiz-adv-x="793" 
d="M422 542v-54q0 -120 -97 -120q-87 0 -165.5 74.5t-78.5 159.5q0 40 31.5 63t87.5 23h45v277q0 88 -30.5 131.5t-74 42.5t-65.5 -8t-62 -30l-27 138q73 47 169 47q122 0 194.5 -83t72.5 -244v-270h551v-145l38 -54l-597 -540l-121 113l545 479h-416z" />
    <glyph glyph-name="uF0264" unicode="&#xf0264;" horiz-adv-x="793" 
d="M422 543v-54q0 -120 -97 -120q-87 0 -165.5 74.5t-78.5 159.5q0 40 31.5 63t87.5 23h45v449h-275v141h909v-141h-457v-449h551v-146h-2l37 -53l-597 -540l-121 114l545 479h-413z" />
    <glyph glyph-name="uF0265" unicode="&#xf0265;" horiz-adv-x="742" 
d="M341 928q0 60 -26.5 110t-88.5 100h-259v141h848v-141h-396q39 -45 62 -104t23 -118q0 -108 -68.5 -188.5t-171.5 -98.5q46 -95 125 -145t179.5 -50t177 50t161.5 174l79 -133q-90 -123 -182 -179l-558 -410l-100 127l331 232q-138 25 -246.5 124t-168.5 268l5 31
q142 18 208 70.5t66 139.5z" />
    <glyph glyph-name="uF0266" unicode="&#xf0266;" horiz-adv-x="414" 
d="M648 -261l-301 212l-297 -214l-97 113l357 252h68l362 -252zM384 426q-186 0 -373 97l27 146q177 -87 326 -87q120 0 257 60l52 -155q-75 -36 -138.5 -48.5t-150.5 -12.5zM486 1138h-516v141h516v-141z" />
    <glyph glyph-name="uF0267" unicode="&#xf0267;" horiz-adv-x="1035" 
d="M1232 447l94 -124l-606 -431l-99 126zM84 534q0 150 89.5 247.5t228.5 97.5q97 0 176 -38.5t130 -107.5q48 72 121.5 112t164.5 40q192 0 303 -157l-81 -130q-48 68 -99 103t-116 35q-85 0 -140.5 -77.5t-55.5 -231.5v-130h-177v126q0 143 -61 220.5t-150 77.5
q-67 0 -112 -54.5t-45 -156t41.5 -198t138.5 -215.5l-144 -61q-212 244 -212 498zM1126 1138h-1156v141h1156v-141z" />
    <glyph glyph-name="uF0268" unicode="&#xf0268;" horiz-adv-x="1568" 
d="M995 -329l73 130l472 -251l-72 -127zM82 496q0 187 98 295t272 108q105 0 189 -44.5t136 -118.5q50 77 132.5 120t172.5 43q39 0 86 -7v246h-1198v141h1628v-141h-251v-332q116 -110 116 -311q0 -162 -78 -271t-209 -135l343 -239l-92 -111l-301 212l-297 -214l-97 113
l331 234q-86 7 -159.5 47.5t-121.5 108.5q-42 -71 -123 -112t-196 -44q-170 -4 -275.5 110.5t-105.5 301.5zM305 287q59 -70 156 -70t154 69t57 208q0 269 -221 269q-93 0 -149 -69.5t-56 -203t59 -203.5zM1240 695.5q-56 68.5 -147.5 68.5t-147.5 -67t-56 -201.5t56 -203.5
t149.5 -69t147.5 72t54 202t-56 198.5z" />
    <glyph glyph-name="uF0269" unicode="&#xf0269;" horiz-adv-x="677" 
d="M482 358h1q112 0 188 64.5t76 161.5t-74 158t-191.5 61t-184 -59t-66.5 -163t71.5 -163.5t179.5 -59.5zM66 596q0 152 110 251.5t300 99.5t305 -104t115 -257q0 -103 -49.5 -187t-138.5 -132l-550 -326l-82 138l272 153q-128 36 -205 135t-77 229zM767 1279v-141h-797
v141h797z" />
    <glyph glyph-name="uF026A" unicode="&#xf026a;" horiz-adv-x="930" 
d="M334 1010q0 -123 147 -191q73 50 102.5 93.5t29.5 103t-40.5 100t-100.5 40.5t-99 -40t-39 -106zM778 614q-149 0 -274 39l-375 -240l-82 139l294 178q-172 118 -172 295q0 116 80.5 191t219 75t220.5 -79.5t82 -198.5q0 -136 -111 -243q64 -8 126 -8h287l78 -220
l-698 -508l-100 132l626 448h-201z" />
    <glyph glyph-name="uF026B" unicode="&#xf026b;" horiz-adv-x="594" 
d="M486 554v1q61 0 112 17l-292 528v-312q0 -121 47.5 -177.5t132.5 -56.5zM129 826v312h-159v141h737v-141h-289l287 -514q42 32 64 58l65 -142l-2 -2l5 -4l-597 -585l-121 114l363 346q-163 2 -258 107.5t-95 309.5z" />
    <glyph glyph-name="uF026C" unicode="&#xf026c;" horiz-adv-x="887" 
d="M429 890v249h-459v141h989v-141h-353v-272q0 -86 -18 -155h475v-136l53 -56l-352 -348l-120 114l301 285h-436q-48 -48 -124 -71l301 -427l-138 -78l-535 755l120 86l166 -177q68 16 99 72t31 159z" />
    <glyph glyph-name="uF026D" unicode="&#xf026d;" horiz-adv-x="1081" 
d="M293 -401l73 130l472 -251l-72 -127zM149 218q0 133 87 238q-132 100 -132 240q0 110 85.5 177.5t227.5 67.5h264v197h-712v141h1141v-141h-251v-338h-424q-75 0 -115 -33t-40 -89q0 -80 74 -127q101 52 230 52q97 0 176 -29t128 -78q102 -100 102 -235q0 -50 -4 -76
t-17 -81l-157 15q17 79 17 130q0 81 -48 134l-196 -304l-138 74l187 297q-26 2 -41 2q-115 0 -190.5 -77t-75.5 -176q0 -72 27 -126t86 -95q120 -82 397 -82l-20 -141q-330 0 -499 125.5t-169 337.5z" />
    <glyph glyph-name="uF026E" unicode="&#xf026e;" horiz-adv-x="911" 
d="M1103 511l113 -100l-268 -363l-128 94zM434 102q-162 0 -266.5 90.5t-104.5 235.5q0 214 247 336q-133 110 -133 262q0 116 80 191t217 75t220 -79t83 -195q0 -138 -122 -242q88 -13 180 -13h314v-149h-321q-207 0 -354 58q-126 -58 -179.5 -119t-53.5 -138t49 -120.5
t129 -43.5q13 0 39 2q-18 34 -18 66q0 46 39 78t100 32q90 0 145.5 -40t55.5 -106q0 -77 -100 -131l102 -214l-156 -42l-94 213q-54 -7 -98 -7zM347 1009v-1q0 -108 124 -174q149 78 149 183q0 66 -37 101.5t-97.5 35.5t-99.5 -39.5t-39 -105.5z" />
    <glyph glyph-name="uF026F" unicode="&#xf026f;" horiz-adv-x="925" 
d="M262 102q-112 0 -181 39.5t-69 101t42 104.5t103 43t103.5 -26.5t104.5 -100.5q88 12 135 65.5t47 152.5t-78 168t-210 69h-74v141h985v-141h-562q55 -45 86 -110t31 -139q0 -137 -71 -229.5t-205 -119.5l169 -208l-139 -70l-211 260h-6zM1162 638l110 -99l-416 -553
l-125 103zM996 1138h-1026v141h1026v-141z" />
    <glyph glyph-name="uF0270" unicode="&#xf0270;" horiz-adv-x="1204" 
d="M195 325.5q-75 92.5 -75 241t100 241t268 92.5q130 0 256 -50v288h-704v141h1256v-141h-375v-368q91 50 196.5 50t196 -37.5t149.5 -102.5l-45 -140q-125 129 -285 129q-119 0 -213 -82v-587h-177l1 261l-477 -325l-95 123l221 144q-123 30 -198 122.5zM147 278v-162
h-177v162h177zM350.5 390.5q55.5 -57.5 140 -57.5t163.5 41l44 29q29 24 45 42v247q-113 67 -241 67q-96 0 -151.5 -55t-55.5 -155.5t55.5 -158z" />
    <glyph glyph-name="uF0271" unicode="&#xf0271;" horiz-adv-x="1201" 
d="M325 77v-162h-177v162h177zM977 485q54 -48 142 -48t142 51t54 135t-56 136t-143 52t-140 -52t-53 -139t54 -135zM466 888v249h-496v141h1362v-141h-689v-272q0 -307 -233 -370l353 -415l-130 -94l-616 741l123 96l168 -165q83 8 120.5 62.5t37.5 167.5zM843 407
q-94 94 -94 235.5t96 226t259 84.5t266.5 -94.5t103.5 -237.5q0 -118 -74 -206l-443 -466l-116 113l236 236q-140 15 -234 109z" />
    <glyph glyph-name="uF0272" unicode="&#xf0272;" horiz-adv-x="641" 
d="M275 348v-162h-177v162h177zM840 515l92 -126l-606 -453l-97 127zM336 399q-87 0 -165.5 74.5t-78.5 159.5q0 40 31.5 63t87.5 23h45v419h-286v141h740v-141h-277v-619q0 -120 -97 -120z" />
    <glyph glyph-name="uF0273" unicode="&#xf0273;" horiz-adv-x="925" 
d="M285 24v-162h-177v162h177zM488.5 316.5q58.5 54.5 58.5 159t-78 173.5t-210 69h-74v141h985v-141h-562q55 -45 86 -110t31 -139q0 -163 -99.5 -261t-281.5 -98l1 1q-73 0 -137.5 16.5t-146.5 54.5l33 141q71 -38 120 -51t108 -12q108 2 166.5 56.5zM1022 358l94 -122
l-607 -416l-98 125zM1006 1138h-1036v141h1036v-141z" />
    <glyph glyph-name="uF0274" unicode="&#xf0274;" horiz-adv-x="1082" 
d="M422 -323l73 130l472 -251l-72 -127zM525 179q123 0 191 44t68 113t-42.5 106t-123.5 37q-121 0 -226 -66h-21q-108 33 -176.5 113t-68.5 183t81.5 170.5t228.5 67.5h247v189h-713v141h1142v-141h-251v-330h-418q-147 0 -147 -123q0 -80 82 -116q118 54 235 54
q163 0 255 -79t92 -211q0 -111 -83.5 -187t-230.5 -97l283 -197l-92 -111l-302 210l-297 -214l-97 113l282 199q-179 25 -329 110l44 147q79 -50 189.5 -87.5t197.5 -37.5zM135 78v-162h-177v162h177z" />
    <glyph glyph-name="uF0275" unicode="&#xf0275;" horiz-adv-x="1084" 
d="M492 -325l73 130l472 -251l-72 -127zM190.5 207q-110.5 120 -110.5 297.5t121.5 282.5t335.5 105h147v246h-715v141h1144v-141h-251v-387h-309q-134 0 -216 -70t-82 -190q0 -149 102 -227t264 -78q98 0 154.5 41t56.5 105q0 105 -139 105q-51 0 -96.5 -22t-109.5 -72
l-65 128q118 110 266.5 110t230 -70t81.5 -178.5t-76 -188t-221 -95.5l286 -199l-92 -111l-302 211l-297 -214l-97 113l292 206q-192 32 -302.5 152zM215 97v-162h-177v162h177z" />
    <glyph glyph-name="uF0276" unicode="&#xf0276;" horiz-adv-x="659" 
d="M225 251v-162h-177v162h177zM898 552l94 -123l-573 -473l-101 129zM253 343q-68 0 -124 82.5t-56 190.5q0 138 169 138h663v-146h-552v-146q0 -119 -100 -119zM738 1138h-768v141h768v-141z" />
    <glyph glyph-name="uF0277" unicode="&#xf0277;" horiz-adv-x="1157" 
d="M131 827v312h-159v141h1264v-141h-361v-368q91 50 196.5 50t196 -37.5t149.5 -102.5l-45 -140q-125 129 -285 129q-119 0 -213 -82v-587h-177l1 401l-456 -452l-121 114l365 350q-164 2 -259.5 106t-95.5 307zM231 416v-162h-177v162h177zM696 1139h-390v-351
q0 -121 47.5 -177.5t132.5 -56.5l1 1q128 0 209 76v508z" />
    <glyph glyph-name="uF0278" unicode="&#xf0278;" horiz-adv-x="742" 
d="M222 359v-162h-177v162h177zM341 928q0 60 -26.5 110t-88.5 100h-259v141h848v-141h-396q39 -45 62 -104t23 -118q0 -108 -68.5 -188.5t-171.5 -98.5q46 -95 125 -145t179.5 -50t177 50t161.5 174l79 -133q-90 -123 -182 -179l-558 -410l-100 127l331 232
q-138 25 -246.5 124t-168.5 268l5 31q142 18 208 70.5t66 139.5z" />
    <glyph glyph-name="uF0279" unicode="&#xf0279;" horiz-adv-x="414" 
d="M336 87v-162h-177v162h177zM384 426q-186 0 -373 97l27 146q177 -87 326 -87q120 0 257 60l52 -155q-75 -36 -138.5 -48.5t-150.5 -12.5zM486 1138h-516v141h516v-141z" />
    <glyph glyph-name="uF027A" unicode="&#xf027a;" horiz-adv-x="1568" 
d="M995 -329l73 130l472 -251l-72 -127zM82 496q0 187 98 295t272 108q105 0 189 -44.5t136 -118.5q50 77 132.5 120t172.5 43q39 0 86 -7v246h-1198v141h1628v-141h-251v-332q116 -110 116 -311q0 -162 -78 -271t-209 -135l343 -239l-92 -111l-301 212l-297 -214l-97 113
l331 234q-86 7 -159.5 47.5t-121.5 108.5q-42 -71 -123 -112t-196 -44q-170 -4 -275.5 110.5t-105.5 301.5zM325 18v-162h-177v162h177zM305 287q59 -70 156 -70t154 69t57 208q0 269 -221 269q-93 0 -149 -69.5t-56 -203t59 -203.5zM1240 695.5q-56 68.5 -147.5 68.5
t-147.5 -67t-56 -201.5t56 -203.5t149.5 -69t147.5 72t54 202t-56 198.5z" />
    <glyph glyph-name="uF027B" unicode="&#xf027b;" horiz-adv-x="1080" 
d="M399 -487.5q106 -43.5 195.5 -43.5t139.5 35.5t50 98.5q0 127 -175 127q-100 0 -193 -55l-40 133q22 14 34 19q-130 58 -195.5 158t-65.5 232.5t95 230.5q-140 106 -140 247q0 110 85.5 177.5t227.5 67.5h264v197h-711v141h1140v-141h-251v-338h-424q-75 0 -115 -33
t-40 -89q0 -89 96 -141q80 33 178 33q166 0 275.5 -93t109.5 -216q0 -69 -27 -158l-165 15q18 67 18 136t-54 118.5t-154.5 49.5t-165.5 -63t-65 -160q0 -72 27 -126t86 -94q120 -83 397 -83l-10 -73q120 -77 120 -227q0 -123 -89 -195t-257 -73v-1q-250 -2 -485 192l62 136
q116 -98 222 -141.5z" />
    <glyph glyph-name="uF027C" unicode="&#xf027c;" horiz-adv-x="1080" 
d="M565 -650q-150 0 -247 77t-97 204q0 74 35.5 132t102.5 91q-210 121 -210 364q0 133 95 231q-140 106 -140 247q0 110 85.5 177.5t227.5 67.5h264v197h-711v141h1140v-141h-251v-338h-424q-75 0 -115 -33t-40 -89q0 -89 96 -141q80 33 178 33q166 0 275.5 -93t109.5 -216
q0 -69 -27 -158l-165 15q18 67 18 136t-54 118.5t-154.5 49.5t-165.5 -63t-65 -160q0 -72 27 -126t86 -95q120 -82 397 -82l-13 -93q143 -97 257 -285l-96 -99q-210 329 -435 329q-80 0 -122.5 -36.5t-42.5 -98.5t49 -96.5t131 -34.5t139 17l18 -131q-55 -18 -156 -18z" />
    <glyph glyph-name="uF027D" unicode="&#xf027d;" horiz-adv-x="1126" 
d="M105 238q0 131 71 230q-116 99 -116 228q0 110 85.5 177.5t227.5 67.5h354v197h-757v141h1186v-141h-251v-338h-514q-75 0 -115 -33t-40 -93t46 -102q117 78 276.5 78t272 -83.5t112.5 -225.5v-87h-124q-64 0 -99.5 -28.5t-35.5 -80t41 -77.5t115.5 -26t130.5 25l19 -124
q-61 -27 -152 -27q-151 0 -235 65.5t-84 173.5t72 166t189 58h6q-9 59 -68.5 91.5t-158.5 32.5q-123 0 -204 -79.5t-81 -205.5q0 -148 106 -255t320 -162l-47 -134q-245 55 -396.5 208.5t-151.5 362.5z" />
    <glyph glyph-name="uF027E" unicode="&#xf027e;" horiz-adv-x="1126" 
d="M61 696q0 110 85.5 177.5t227.5 67.5h354v197h-757v141h1186v-141h-251v-338h-514q-75 0 -115 -33t-40 -92.5t47 -102.5q115 79 271 79t262.5 -76.5t106.5 -185.5v-112h-79q-91 0 -125 -17t-34 -54q0 -79 135 -79q61 0 126 15l24 -105q-71 -29 -155 -29h-4
q-45 -12 -45 -61q0 -31 23.5 -49.5t65.5 -18.5t118 24l22 -105q-75 -32 -154 -32t-149 52t-70 132q0 52 25 91q-58 27 -90.5 72t-32.5 99q0 85 59.5 136t170.5 56q-25 99 -196 99q-123 0 -204 -79.5t-81 -204t83.5 -228.5t234.5 -170l-62 -121q-180 67 -303 217.5
t-121 320.5q2 132 72 230q-117 99 -117 228z" />
    <glyph glyph-name="uF027F" unicode="&#xf027f;" horiz-adv-x="1081" 
d="M397 -486.5q106 -43.5 195.5 -43.5t139.5 35.5t50 98.5q0 127 -175 127q-100 0 -193 -55l-40 133q17 11 35 19q-130 59 -195 159t-65 232t87 237q-132 100 -132 240q0 110 85.5 177.5t227.5 67.5h264v197h-712v141h1141v-141h-251v-338h-424q-75 0 -115 -33t-40 -89
q0 -80 74 -127q101 52 230 52q97 0 176 -29t128 -78q102 -100 102 -235q0 -50 -4 -76t-17 -81l-157 15q17 79 17 130q0 81 -48 134l-196 -304l-138 74l187 297q-26 2 -41 2q-115 0 -190.5 -77t-75.5 -176q0 -72 27 -126t86 -95q120 -82 397 -82l-10 -74q119 -74 119 -227
q0 -123 -89 -195t-257 -73h-2q-250 -2 -485 192l62 136q116 -98 222 -141.5z" />
    <glyph glyph-name="uF0280" unicode="&#xf0280;" horiz-adv-x="1081" 
d="M564 -650q-150 0 -247 77t-97 204q0 74 35.5 132t103.5 91q-210 123 -210 364q0 133 87 238q-132 100 -132 240q0 110 85.5 177.5t227.5 67.5h264v197h-712v141h1141v-141h-251v-338h-424q-75 0 -115 -33t-40 -89q0 -80 74 -127q101 52 230 52q97 0 176 -29t128 -78
q102 -100 102 -235q0 -50 -4 -76t-17 -81l-157 15q17 79 17 130q0 81 -48 134l-196 -304l-138 74l187 297q-26 2 -41 2q-115 0 -190.5 -77t-75.5 -176q0 -72 27 -126t86 -95q120 -82 397 -82l-13 -94q139 -92 256 -284l-96 -99q-210 329 -435 329q-80 0 -122.5 -36.5
t-42.5 -98.5t49 -96.5t131 -34.5t139 17l18 -131h-1q-55 -18 -156 -18z" />
    <glyph glyph-name="uF0281" unicode="&#xf0281;" horiz-adv-x="1178" 
d="M465 889v249h-495v141h1238v-141h-566v-298q65 25 150 25q132 0 215.5 -79t83.5 -203q0 -76 -29.5 -154.5t-75.5 -127.5l-158 25q44 59 70.5 129.5t26.5 134t-39 99t-104 35.5q-102 0 -196 -101q-60 -96 -177 -127l353 -415l-130 -94l-616 741l123 96l168 -165
q83 8 120.5 62.5t37.5 167.5z" />
    <glyph glyph-name="uF0282" unicode="&#xf0282;" horiz-adv-x="1392" 
d="M465 889v249h-495v141h1452v-141h-780v-293q72 78 213 78q74 0 133 -19.5t116 -66.5q110 -91 204 -332l-121 -71q-80 193 -155 269t-157 76q-64 0 -99 -34t-35 -90t42 -91t101 -35t91 9l20 -129q-41 -18 -98 -18q-123 0 -209.5 60.5t-103.5 167.5q-60 -92 -175 -123
l353 -415l-130 -94l-616 741l123 96l168 -165q83 8 120.5 62.5t37.5 167.5z" />
    <glyph glyph-name="uF0283" unicode="&#xf0283;" horiz-adv-x="1178" 
d="M325 78v-162h-177v162h177zM465 889v249h-495v141h1238v-141h-566v-298q65 25 150 25q132 0 215.5 -79t83.5 -203q0 -76 -29.5 -154.5t-75.5 -127.5l-158 25q44 59 70.5 129.5t26.5 134t-39 99t-104 35.5q-102 0 -196 -101q-60 -96 -177 -127l353 -415l-130 -94l-616 741
l123 96l168 -165q83 8 120.5 62.5t37.5 167.5z" />
    <glyph glyph-name="uF0284" unicode="&#xf0284;" horiz-adv-x="1392" 
d="M317 78v-162h-177v162h177zM465 889v249h-495v141h1452v-141h-780v-293q72 78 213 78q74 0 133 -19.5t116 -66.5q110 -91 204 -332l-121 -71q-80 193 -155 269t-157 76q-64 0 -99 -34t-35 -90t42 -91t101 -35t91 9l20 -129q-41 -18 -98 -18q-123 0 -209.5 60.5
t-103.5 167.5q-60 -92 -175 -123l353 -415l-130 -94l-616 741l123 96l168 -165q83 8 120.5 62.5t37.5 167.5z" />
    </font>
</defs>
</svg>
