<?xml version="1.0" standalone="no"?>
<!DOCTYPE svg PUBLIC "-//W3C//DTD SVG 1.1//EN" "http://www.w3.org/Graphics/SVG/1.1/DTD/svg11.dtd" >
<svg xmlns="http://www.w3.org/2000/svg" xmlns:xlink="http://www.w3.org/1999/xlink" version="1.1">
<metadata>
Created by FontForge 20170731 at Fri May  5 14:19:05 2017
 By Aleksey,,,
Copyright 2014, Erin McLaughlin (hello@erinmclaughlin.com). Copyright 2010, Google Inc. All Rights Reserved.
</metadata>
<defs>
<font id="Yantramanav-Bold" horiz-adv-x="0" >
  <font-face 
    font-family="Yantramanav"
    font-weight="700"
    font-stretch="normal"
    units-per-em="2048"
    panose-1="2 0 0 0 0 0 0 0 0 0"
    ascent="1638"
    descent="-410"
    x-height="930"
    cap-height="1310"
    bbox="-1061 -702 3161 1897"
    underline-thickness="50"
    underline-position="-200"
    unicode-range="U+000D-F02AE"
  />
<missing-glyph horiz-adv-x="817" 
d="M406 594l-231 -545h463zM380 655l-241 568v-1137zM432 655l247 -579v1158zM175 1262l231 -546l232 546h-463zM727 1310v-1310h-637v1310h637z" />
    <glyph glyph-name=".notdef" horiz-adv-x="817" 
d="M406 594l-231 -545h463zM380 655l-241 568v-1137zM432 655l247 -579v1158zM175 1262l231 -546l232 546h-463zM727 1310v-1310h-637v1310h637z" />
    <glyph glyph-name=".null" 
 />
    <glyph glyph-name="uni000D" unicode="&#xd;" horiz-adv-x="505" 
 />
    <glyph glyph-name="space" unicode=" " horiz-adv-x="520" 
 />
    <glyph glyph-name="exclam" unicode="!" horiz-adv-x="735" 
d="M495 232v-232h-264v232h264zM495 1310v-857h-264v857h264z" />
    <glyph glyph-name="quotedbl" unicode="&#x22;" horiz-adv-x="987" 
d="M437 1404v-306l-122 -212h-114l-27 199v319h263zM793 1404v-306l-122 -212h-114l-28 211v307h264z" />
    <glyph glyph-name="numbersign" unicode="#" horiz-adv-x="1097" 
d="M43 369v152h231l46 261h-209v154h236l65 374h165l-66 -374h173l67 374h164l-65 -374h198v-154h-225l-46 -261h202v-152h-228l-65 -369h-166l65 369h-173l-64 -369h-165l65 369h-205zM484 782l-45 -261h172l46 261h-173z" />
    <glyph glyph-name="dollar" unicode="$" horiz-adv-x="1058" 
d="M541 162v-1q81 0 125 43t44 117t-41.5 120t-143.5 87q-211 77 -302.5 167.5t-91.5 244.5t96 250.5t262 113.5v194h143v-195q160 -24 249.5 -133t87.5 -282l-2 -5h-257q0 106 -43 164t-119 58t-115 -43.5t-39 -117.5t40 -117t146.5 -85t175.5 -80t120 -87t73.5 -109.5
t22.5 -140.5q0 -155 -95 -249.5t-263 -111.5v-178h-143v177q-178 18 -283 123.5t-102 296.5l2 4h257q0 -116 52.5 -170.5t143.5 -54.5z" />
    <glyph glyph-name="percent" unicode="%" horiz-adv-x="1362" 
d="M887 319v-69q0 -52 31.5 -88t80.5 -36q109 0 109 124v69q0 54 -29.5 89.5t-81.5 35.5t-81 -35t-29 -90zM712 250v69q0 119 76.5 194.5t209 75.5t209 -75.5t76.5 -194.5v-69q0 -120 -76 -195t-208.5 -75t-209.5 75.5t-77 194.5zM260 1056v-69q0 -54 29.5 -88.5t81.5 -34.5
t81 34.5t29 88.5v69q0 55 -29.5 90.5t-81.5 35.5t-81 -35.5t-29 -90.5zM1055 1120l-640 -1024l-128 68l640 1024zM86 987v69q0 120 76 195.5t209 75.5t208.5 -75t75.5 -196v-69q0 -119 -75.5 -194t-208 -75t-209 75t-76.5 194z" />
    <glyph glyph-name="ampersand" unicode="&#x26;" horiz-adv-x="1211" 
d="M815 78q-155 -99 -341.5 -99t-302.5 102t-116 270q0 102 55 178.5t182 165.5q-64 84 -93 152t-29 138q0 157 97 249.5t260 92.5q143 0 233 -87t90 -216q0 -169 -165 -289l-84 -59l249 -290q68 114 68 250h196q0 -253 -124 -414l187 -220l-2 -4h-291zM397 531
q-79 -74 -79 -161t49.5 -138t139 -51t177.5 48l-270 313zM612 1091q-33 34 -88 34t-87 -38.5t-32 -103.5t77 -165l78 50q48 31 66.5 64.5t18.5 79t-33 79.5z" />
    <glyph glyph-name="quotesingle" unicode="'" horiz-adv-x="632" 
d="M437 1404v-234l-122 -262h-114l-27 238v258h263z" />
    <glyph glyph-name="parenleft" unicode="(" horiz-adv-x="884" 
d="M219 513v19q0 171 36.5 326.5t99 271.5t142 198t167.5 120l6 -1l48 -130q-126 -94 -202 -294t-76 -490v-24q0 -291 75.5 -490t202.5 -297l-48 -128h-6q-88 38 -167.5 120.5t-142 198.5t-99 272.5t-36.5 327.5z" />
    <glyph glyph-name="parenright" unicode=")" horiz-adv-x="883" 
d="M679 533v-19q0 -167 -38.5 -322.5t-103.5 -272.5t-147 -201.5t-171 -121.5h-6l-48 128q124 96 201 296.5t77 490.5v24q0 287 -77.5 488t-200.5 299l48 128h6q89 -37 171 -121.5t147 -201.5t103.5 -272.5t38.5 -321.5z" />
    <glyph glyph-name="asterisk" unicode="*" horiz-adv-x="817" 
d="M108 683l188 244l-272 80l52 160l267 -111l-16 312h168l-17 -317l262 108l50 -162l-275 -80l180 -239l-137 -99l-157 261l-155 -253z" />
    <glyph glyph-name="plus" unicode="+" horiz-adv-x="1005" 
d="M625 1100v-355h324v-226h-324v-373h-249v373h-326v226h326v355h249z" />
    <glyph glyph-name="comma" unicode="," horiz-adv-x="475" 
d="M375 195v-213l-143 -284h-175l63 292v205h255z" />
    <glyph glyph-name="hyphen" unicode="-" horiz-adv-x="721" 
d="M609 713v-203h-507v203h507z" />
    <glyph glyph-name="period" unicode="." horiz-adv-x="536" 
d="M392 230v-230h-262v230h262z" />
    <glyph glyph-name="slash" unicode="/" horiz-adv-x="743" 
d="M724 1298l-481 -1423h-256l481 1423h256z" />
    <glyph glyph-name="zero" unicode="0" horiz-adv-x="1058" 
d="M710 483v341q0 301 -182 301q-91 0 -136 -73t-45 -228v-341q0 -157 45.5 -229.5t136.5 -72.5t136 73t45 229zM972 797v-289q0 -257 -117 -393t-325.5 -136t-326 136t-117.5 393v289q0 257 117 393.5t325 136.5t326 -137t118 -393z" />
    <glyph glyph-name="one" unicode="1" horiz-adv-x="1058" 
d="M683 0h-263v1078h-266v186l529 46v-1310z" />
    <glyph glyph-name="two" unicode="2" horiz-adv-x="1058" 
d="M88 -1v172l424 454q91 106 130 178t39 135q0 85 -45 136.5t-130.5 51.5t-133 -60t-47.5 -166h-256l-2 5q-4 182 118.5 302.5t325.5 120.5t318.5 -104t115.5 -282q0 -113 -59 -209t-222 -272l-233 -255l2 -4h551l-1 -203h-895z" />
    <glyph glyph-name="three" unicode="3" horiz-adv-x="1058" 
d="M503 766q184 0 184 185q0 81 -45.5 128t-125.5 47t-129.5 -43.5t-49.5 -113.5h-255l-2 6q-5 153 116.5 253t317.5 100t315.5 -97.5t119.5 -276.5q0 -87 -54.5 -163.5t-148.5 -119.5q108 -38 165.5 -117.5t57.5 -187.5q0 -178 -129 -282t-337 -104q-124 0 -223.5 42.5
t-159 128t-57.5 199.5l2 5h255q0 -76 53.5 -125t141 -49t140 49.5t52.5 137.5q0 200 -205 200h-147l1 198h147z" />
    <glyph glyph-name="four" unicode="4" horiz-adv-x="1058" 
d="M598 488v471l-6 2l-20 -37l-276 -436h302zM860 1310v-822h148v-204h-148v-284h-262v284h-535l-12 158l544 868h265z" />
    <glyph glyph-name="five" unicode="5" horiz-adv-x="1058" 
d="M930 1309v-210h-516l-36 -303q81 61 201 62q189 3 293 -113t104 -319.5t-116 -325t-326 -121.5q-123 0 -221.5 43.5t-157 128.5t-56.5 198l2 4l253 13q0 -87 49 -136t134 -49t130 62.5t45 176t-47.5 180.5t-137.5 67q-136 0 -173 -104l-231 16l76 730h731z" />
    <glyph glyph-name="six" unicode="6" horiz-adv-x="1058" 
d="M735 434h1q0 110 -49.5 177t-132.5 67q-144 0 -204 -87v-87q0 -155 55 -239t151 -84q80 0 129.5 72.5t49.5 180.5zM89 766h-2q0 255 146.5 408t380.5 153q134 0 262 -55l-47 -192q-121 41 -214 41q-121 0 -192 -90t-66 -247l3 -5q93 98 265.5 98t273 -122.5t100.5 -321.5
t-123 -326.5t-326.5 -127.5t-332 142t-128.5 389v256z" />
    <glyph glyph-name="seven" unicode="7" horiz-adv-x="1058" 
d="M980 1310v-202q-105 -123 -174 -233t-113.5 -229t-68.5 -234.5t-42 -278.5l-12 -133h-263l13 133q59 572 407 975h-673v202h926z" />
    <glyph glyph-name="eight" unicode="8" horiz-adv-x="1058" 
d="M395.5 232.5q49.5 -51.5 133.5 -51.5t134 52t50 140.5t-51 142t-134 53.5t-132.5 -53.5t-49.5 -142.5t49.5 -140.5zM416 818.5q41 -47.5 113 -47.5t113 47.5t41 129t-42 129.5t-113.5 48t-112 -47t-40.5 -129.5t41 -130zM528 1327q191 0 304 -96.5t113 -270.5
q0 -97 -51 -172.5t-143 -119.5q106 -45 165.5 -126.5t59.5 -186.5q0 -180 -121 -278.5t-326 -98.5t-326 98.5t-121 278.5q0 106 59 187.5t166 126.5q-93 44 -143.5 119t-50.5 172q0 174 112 270.5t303 96.5z" />
    <glyph glyph-name="nine" unicode="9" horiz-adv-x="1058" 
d="M468 181q107 0 170.5 78t63.5 219v64q-90 -113 -236 -113q-183 0 -287.5 118.5t-104.5 320t124 330.5t322.5 129t321.5 -139.5t123 -386.5v-310q0 -236 -137.5 -374t-359.5 -138q-148 0 -275 55l30 190h1q110 -43 244 -43zM386.5 1052q-50.5 -73 -50.5 -184t46 -178.5
t128 -67.5q127 0 192 89v120q0 143 -49.5 218.5t-132.5 75.5t-133.5 -73z" />
    <glyph glyph-name="colon" unicode=":" horiz-adv-x="524" 
d="M353 207v-207h-236v207h236zM353 995v-207h-236v207h236z" />
    <glyph glyph-name="semicolon" unicode=";" horiz-adv-x="506" 
d="M384 146v-192l-129 -256h-158l57 263v185h230zM354 965v-207h-236v207h236z" />
    <glyph glyph-name="less" unicode="&#x3c;" horiz-adv-x="939" 
d="M824 688l-519 -186v-5l519 -183v-245l-775 330v205l775 329v-245z" />
    <glyph glyph-name="equal" unicode="=" horiz-adv-x="1063" 
d="M929 538v-206h-807v206h807zM929 926v-206h-807v206h807z" />
    <glyph glyph-name="greater" unicode="&#x3e;" horiz-adv-x="952" 
d="M107 312l528 188v6l-528 185v242l785 -329v-205l-785 -330v243z" />
    <glyph glyph-name="question" unicode="?" horiz-adv-x="1180" 
d="M692 225v-225h-264v225h264zM691 372h-264q0 65 7.5 107t31 79.5t54.5 66.5t91 74q74 63 107.5 119t33.5 134t-44 124.5t-119.5 46.5t-120 -40.5t-45.5 -115.5h-255l-2 5q-3 171 110.5 264t311.5 93t312.5 -101.5t114.5 -279.5q0 -110 -63 -205t-173 -168
q-53 -41 -70.5 -82t-17.5 -121z" />
    <glyph glyph-name="at" unicode="@" horiz-adv-x="1635" 
d="M867 678h-1q-99 0 -152 -85t-69 -264q-18 -232 100 -232q53 0 93 25t72 85l40 458q-46 13 -83 13zM1118 -64q-70 0 -121 39.5t-73 110.5q-81 -148 -237 -148q-128 0 -195 107t-49 284q22 230 128 367t259 137q99 0 162 -21t146 -74l-2 -4h4l-46 -516q-10 -148 64 -148
q102 0 165 96t70 250q14 324 -124 499.5t-417 175.5t-442 -190.5t-176 -515.5q-16 -322 131 -505.5t423 -183.5q75 0 156.5 17.5t141.5 45.5l34 -132q-59 -37 -150.5 -58.5t-183.5 -21.5q-358 0 -550.5 222.5t-177.5 615.5q9 192 68.5 349t161 267t246 170t317.5 60h-1h1
q232 0 394 -98t240.5 -281t69.5 -436q-8 -204 -115 -338q-52 -67 -134.5 -104.5t-187.5 -37.5z" />
    <glyph glyph-name="A" unicode="A" horiz-adv-x="1180" 
d="M914 0l-89 283h-460l-89 -283h-265l451 1310h269l449 -1310h-266zM593 1004l-163 -515h331l-162 515h-6z" />
    <glyph glyph-name="B" unicode="B" horiz-adv-x="1183" 
d="M647 580h-262v-378h242q215 0 215 180q0 198 -195 198zM385 1108v-347h189q107 0 163 43.5t56 130.5t-56 130t-172 43h-180zM627 0h-505v1310h443q236 0 363.5 -90.5t127.5 -268.5q0 -92 -48.5 -163t-139.5 -107q115 -25 175 -105.5t60 -193.5q0 -188 -122.5 -285
t-353.5 -97z" />
    <glyph glyph-name="C" unicode="C" horiz-adv-x="1178" 
d="M857 443h253l1 -5q4 -213 -128.5 -336t-369.5 -123t-384 151t-147 393v260q0 240 144 392t381 152t374 -124t133 -340l-2 -6h-255q0 268 -256 268q-117 0 -186.5 -94.5t-69.5 -245.5v-262q0 -153 73 -247.5t197 -94.5t183 65t59 197z" />
    <glyph glyph-name="D" unicode="D" horiz-adv-x="1208" 
d="M559 1108h-174v-906h174q140 0 220.5 94t80.5 250v219q0 155 -80.5 249t-220.5 94zM572 0h-450v1310h450q243 0 397.5 -152.5t154.5 -394.5v-217q0 -242 -154.5 -394t-397.5 -152z" />
    <glyph glyph-name="E" unicode="E" horiz-adv-x="1058" 
d="M928 779v-203h-543v-374h635v-202h-898v1310h896v-202h-633v-329h543z" />
    <glyph glyph-name="F" unicode="F" horiz-adv-x="1064" 
d="M934 747v-202h-549v-545h-263v1310h904v-202h-641v-361h549z" />
    <glyph glyph-name="G" unicode="G" horiz-adv-x="1232" 
d="M1129 671v-494q-66 -86 -192 -142t-303 -56q-242 0 -393.5 149t-151.5 388v274q0 239 146 388t379.5 149t362.5 -114t132 -309l-2 -5h-247q-9 107 -69 166.5t-176 59.5t-190 -92.5t-74 -240.5v-276q0 -151 76.5 -243t206.5 -92q165 0 232 65v243h-232v182h495z" />
    <glyph glyph-name="H" unicode="H" horiz-adv-x="1305" 
d="M1182 1310v-1310h-262v545h-535v-545h-263v1310h263v-563h535v563h262z" />
    <glyph glyph-name="I" unicode="I" horiz-adv-x="541" 
d="M401 1310v-1310h-262v1310h262z" />
    <glyph glyph-name="J" unicode="J" horiz-adv-x="1052" 
d="M671 391v917h262v-917q0 -188 -121.5 -300t-323 -112t-319 101.5t-112.5 292.5l2 6h255q0 -198 183 -198q75 0 124.5 57t49.5 153z" />
    <glyph glyph-name="K" unicode="K" horiz-adv-x="1191" 
d="M385 547v-547h-263v1310h263v-535h115l347 535h321l-441 -610l476 -700h-320l-352 547h-146z" />
    <glyph glyph-name="L" unicode="L" horiz-adv-x="997" 
d="M385 1310v-1108h583v-202h-846v1310h263z" />
    <glyph glyph-name="M" unicode="M" horiz-adv-x="1608" 
d="M122 1310h343l334 -965h6l336 965h344v-1310h-263v391l25 578l-5 1l-351 -970h-176l-350 967l-5 -1l25 -575v-391h-263v1310z" />
    <glyph glyph-name="N" unicode="N" horiz-adv-x="1305" 
d="M1182 1310v-1310h-262l-529 896l-6 -1v-895h-263v1310h263l529 -894l6 1v893h262z" />
    <glyph glyph-name="O" unicode="O" horiz-adv-x="1259" 
d="M914 535v238q0 156 -77 252.5t-210 96.5t-207.5 -95.5t-74.5 -253.5v-238q0 -159 75.5 -255.5t208 -96.5t209 96.5t76.5 255.5zM1176 771v-236q0 -244 -152.5 -400t-396.5 -156q-160 0 -284 71.5t-192 198t-68 286.5v236q0 243 151 399.5t393.5 156.5t395.5 -156.5
t153 -399.5z" />
    <glyph glyph-name="P" unicode="P" horiz-adv-x="1201" 
d="M385 1108v-430h259q108 0 166 58t58 155.5t-58 157t-166 59.5h-259zM644 475h-259v-475h-263v1310h522q225 0 355.5 -113.5t130.5 -304t-130 -304t-356 -113.5z" />
    <glyph glyph-name="Q" unicode="Q" horiz-adv-x="1290" 
d="M914 514v237q0 156 -77 253t-210 97t-207.5 -96t-74.5 -254v-237q0 -159 75 -255.5t208 -96.5t209.5 96.5t76.5 255.5zM1176 750v-236q0 -239 -149 -396l217 -213l-172 -140l-236 229q-96 -36 -209 -36q-160 0 -284 71.5t-192 198t-68 286.5v236q0 243 151 399.5
t393.5 156.5t395.5 -156.5t153 -399.5z" />
    <glyph glyph-name="R" unicode="R" horiz-adv-x="1219" 
d="M385 -1h-263v1310h495q225 0 351 -102t126 -285q0 -199 -209 -291q218 -65 218 -312v-97q0 -63 16 -119.5t49 -83.5v-19h-271q-57 46 -57 224v93q0 98 -53.5 152.5t-151.5 54.5l-250 -1v-524zM385 1108v-382h227q220 0 220 186q0 92 -55 144t-160 52h-232z" />
    <glyph glyph-name="S" unicode="S" horiz-adv-x="1169" 
d="M609 178h2q106 0 163.5 43.5t57.5 119t-52.5 121t-188.5 86.5q-247 71 -360.5 164.5t-113.5 252t137 260.5t351.5 102t350.5 -113.5t131 -284.5l-1 -5h-255q0 93 -61.5 148t-167.5 55t-164.5 -45.5t-58.5 -116t59.5 -113t215.5 -91.5q223 -62 331.5 -161.5t108.5 -262.5
t-131.5 -260.5t-352.5 -97.5q-145 0 -265 48.5t-193 145.5t-71 225l2 6h255q0 -226 271 -226z" />
    <glyph glyph-name="T" unicode="T" horiz-adv-x="1052" 
d="M1028 1310v-202h-371v-1108h-263v1108h-369v202h1003z" />
    <glyph glyph-name="U" unicode="U" horiz-adv-x="1266" 
d="M896 1308h263v-869q0 -218 -143 -339t-383.5 -121t-382.5 120.5t-142 339.5v869h264v-869q0 -128 67.5 -193t193.5 -65t194.5 64.5t68.5 193.5v869z" />
    <glyph glyph-name="V" unicode="V" horiz-adv-x="1173" 
d="M284 1310l283 -962l16 -71h6l15 70l285 963h277l-445 -1310h-270l-445 1310h278z" />
    <glyph glyph-name="W" unicode="W" horiz-adv-x="1634" 
d="M912 1310l247 -898h6l187 898h256l-306 -1310h-244l-240 865h-5l-241 -865h-243l-307 1310h257l188 -897l6 -1l245 898h194z" />
    <glyph glyph-name="X" unicode="X" horiz-adv-x="1173" 
d="M342 1310l242 -464l246 464h306l-389 -649l411 -661h-317l-253 473l-253 -473h-307l399 661l-389 649h304z" />
    <glyph glyph-name="Y" unicode="Y" horiz-adv-x="1163" 
d="M708 0h-262v474l-441 836h288l286 -603h5l286 603h288l-450 -849v-461z" />
    <glyph glyph-name="Z" unicode="Z" horiz-adv-x="1085" 
d="M1028 202v-202h-959v137l623 971h-622v202h943v-131l-626 -977h641z" />
    <glyph glyph-name="bracketleft" unicode="[" horiz-adv-x="753" 
d="M605 1523v-195h-127v-1437h127v-194h-390v1826h390z" />
    <glyph glyph-name="backslash" unicode="\" horiz-adv-x="777" 
d="M549 -125l-547 1423h260l547 -1423h-260z" />
    <glyph glyph-name="bracketright" unicode="]" horiz-adv-x="753" 
d="M149 1328v195h390v-1826h-390v194h128v1437h-128z" />
    <glyph glyph-name="asciicircum" unicode="^" horiz-adv-x="806" 
d="M393 1101l-145 -372h-208l269 654h191l269 -654h-208l-149 372l-7 30h-5z" />
    <glyph glyph-name="underscore" unicode="_" horiz-adv-x="823" 
d="M820 -22v-197h-819v197h819z" />
    <glyph glyph-name="grave" unicode="`" horiz-adv-x="610" 
d="M349 1451l178 -239h-214l-244 234l2 5h278z" />
    <glyph glyph-name="a" unicode="a" horiz-adv-x="990" 
d="M369 -21q-152 0 -235 78t-83 219.5t110 219t322 77.5h146v77q0 72 -37 110t-104.5 38t-102.5 -31t-35 -86l-254 1v5q-7 127 107.5 215t295 88t287.5 -90t107 -251v-403q0 -131 43 -248h-263q-32 74 -39 146q-96 -165 -265 -165zM311 281h1q0 -49 32.5 -78.5t94 -29.5
t115.5 33.5t74 80.5v138h-146q-82 0 -126.5 -40.5t-44.5 -103.5z" />
    <glyph glyph-name="b" unicode="b" horiz-adv-x="1040" 
d="M717 458v19q0 150 -43.5 229t-140.5 79q-121 0 -170 -99v-412q49 -91 172 -91q98 0 140 68.5t42 206.5zM979 477v-19q0 -223 -98 -351t-280 -128q-165 0 -255 140l-20 -121h-225v1404h262v-534q86 122 236 122q184 0 282 -137.5t98 -375.5z" />
    <glyph glyph-name="c" unicode="c" horiz-adv-x="954" 
d="M319 497v-28q0 -289 190 -289q71 0 113 41t42 109h239l2 -5q4 -148 -110 -247.5t-286 -99.5q-214 0 -333.5 134.5t-119.5 356.5v27q0 222 119.5 357.5t333.5 135.5q181 0 290.5 -102.5t105.5 -270.5l-1 -5h-240q0 77 -42 126.5t-113 49.5q-190 0 -190 -290z" />
    <glyph glyph-name="d" unicode="d" horiz-adv-x="1040" 
d="M442 990q143 0 234 -122v534h264v-1404h-226l-22 119q-94 -138 -253 -138q-178 0 -278 129.5t-100 349.5l1 19q0 235 100 374t280 139zM507 183q112 0 167 90v415q-56 97 -166 97q-94 0 -140 -82t-46 -226l1 -19q0 -275 184 -275z" />
    <glyph glyph-name="e" unicode="e" horiz-adv-x="976" 
d="M666 603q0 86 -39.5 134.5t-114.5 48.5t-118 -54t-53 -148l3 -5h322v24zM533 -22q-210 0 -336.5 133t-126.5 345v36q0 145 53.5 258t154 176.5t232.5 63.5q196 0 305 -117.5t109 -322.5v-143h-581l-2 -6q7 -99 65 -159.5t148 -60.5t147 16.5t130 56.5l71 -162v-1
q-63 -52 -158.5 -82.5t-210.5 -30.5z" />
    <glyph glyph-name="f" unicode="f" horiz-adv-x="659" 
d="M432 0h-265v789h-145v185h145v108q0 164 94 252.5t266 88.5q58 0 145 -19l-22 -195q-65 9 -88 9q-130 0 -130 -136v-108h194v-185h-194v-789z" />
    <glyph glyph-name="g" unicode="g" horiz-adv-x="1040" 
d="M445 948q158 0 250 -142l21 124h227v-969q0 -190 -124 -294t-348 -104q-160 0 -310 76l49 196q121 -59 258 -59q109 0 159.5 44.5t50.5 141.5v88q-89 -113 -237 -113q-178 0 -279 130t-101 349l2 19q0 235 101 374t281 139zM508 142q117 0 169 86v423q-54 93 -168 93
q-94 0 -140 -82t-46 -227l1 -19q0 -274 184 -274z" />
    <glyph glyph-name="h" unicode="h" horiz-adv-x="1040" 
d="M355 851q99 141 258.5 141t244 -103t84.5 -311v-578h-263v580q0 111 -39 159.5t-120 48.5q-106 0 -163 -74v-714h-262v1404h262z" />
    <glyph glyph-name="i" unicode="i" horiz-adv-x="492" 
d="M377 974v-974h-263v974h263zM377 1404v-197h-263v197h263z" />
    <glyph glyph-name="j" unicode="j" horiz-adv-x="489" 
d="M121 930h263v-1010q0 -171 -90 -264t-253 -93q-69 0 -129 15l12 201q44 -11 86 -11q111 0 111 152v1010zM379 1360v-195h-264v195h264z" />
    <glyph glyph-name="k" unicode="k" horiz-adv-x="987" 
d="M364 408v-408h-263v1404h263v-796h64l226 366h305l-312 -441l359 -533h-301l-269 408h-72z" />
    <glyph glyph-name="l" unicode="l" horiz-adv-x="492" 
d="M377 1404v-1404h-263v1404h263z" />
    <glyph glyph-name="m" unicode="m" horiz-adv-x="1595" 
d="M926 694l2 -54v-640h-262v590q0 106 -35 152t-109 46q-104 0 -159 -78v-710h-262v974h245l11 -129q97 147 285 147t256 -167q95 167 286 167q148 0 229 -101t81 -301v-590h-263v590q0 108 -34.5 153t-108.5 45q-111 0 -162 -94z" />
    <glyph glyph-name="n" unicode="n" horiz-adv-x="1040" 
d="M633 992q151 0 232 -95t81 -289v-608h-264v608q0 96 -38.5 138t-120.5 42q-104 0 -164 -81v-707h-263v974l246 -1l12 -140q101 159 279 159z" />
    <glyph glyph-name="o" unicode="o" horiz-adv-x="1040" 
d="M322 494v-19q0 -139 48.5 -216.5t148.5 -77.5t148.5 78t48.5 216v19q0 136 -49 214.5t-148 78.5t-148 -79t-49 -214zM60 475v19q0 223 122.5 359.5t336 136.5t337 -136.5t123.5 -359.5v-19q0 -224 -123 -360t-336.5 -136t-336.5 136t-123 360z" />
    <glyph glyph-name="p" unicode="p" horiz-adv-x="1040" 
d="M599 -60q-153 0 -237 111v-467h-262v1348h237l15 -115q90 133 247 133q179 0 279.5 -139t100.5 -374l-1 -19q0 -219 -100.5 -348.5t-278.5 -129.5zM716 418v19q0 144 -47 226.5t-139 82.5q-117 0 -167 -94v-426q49 -85 169 -85q93 0 138.5 72.5t45.5 204.5z" />
    <glyph glyph-name="q" unicode="q" horiz-adv-x="1040" 
d="M322 437v-19q0 -277 184 -277q113 0 166 85v432q-54 90 -164 90q-94 0 -140 -83t-46 -228zM60 418v19q0 236 100 374.5t280 138.5q157 0 249 -137l24 119h223v-1348h-263v465q-88 -109 -235 -109q-178 0 -278 129.5t-100 348.5z" />
    <glyph glyph-name="r" unicode="r" horiz-adv-x="645" 
d="M363 0h-262v974h244l11 -144q75 162 215 162q34 0 70 -11l-28 -233l-96 3q-111 0 -154 -93v-658z" />
    <glyph glyph-name="s" unicode="s" horiz-adv-x="950" 
d="M478 159v-3q72 0 110.5 28.5t38.5 76.5t-43.5 78.5t-153.5 55.5q-178 36 -263 105t-85 192.5t106.5 209.5t287 86t291 -86.5t105.5 -221.5l-2 -5h-254q0 60 -38 96t-104.5 36t-103.5 -30.5t-37 -78.5t40 -75.5t153 -48.5q184 -37 269.5 -107t85.5 -196.5t-112.5 -209
t-299.5 -82.5t-302.5 95.5t-109.5 227.5l1 6h241q4 -149 179 -149z" />
    <glyph glyph-name="t" unicode="t" horiz-adv-x="644" 
d="M150 1210h263v-238h164v-185h-164v-496q0 -105 87 -105q31 0 70 10l22 -190q-83 -27 -159 -27q-283 0 -283 311v497h-142v185h142v238z" />
    <glyph glyph-name="u" unicode="u" horiz-adv-x="1040" 
d="M422 -21q-158 0 -242.5 100t-84.5 305v588h261v-590q0 -105 35 -152t108 -47q123 0 181 80v709h263v-974h-224l-23 140q-94 -159 -274 -159z" />
    <glyph glyph-name="v" unicode="v" horiz-adv-x="941" 
d="M289 974l164 -611l17 -90h5l18 90l160 611h275l-331 -974h-251l-332 974h275z" />
    <glyph glyph-name="w" unicode="w" horiz-adv-x="1356" 
d="M764 974l184 -626h5l127 626h247l-248 -974h-219l-181 580h-6l-181 -580h-218l-248 974h247l128 -624h6l182 624h175z" />
    <glyph glyph-name="x" unicode="x" horiz-adv-x="941" 
d="M321 974l146 -310h6l149 310h297l-293 -482l303 -492h-296l-160 323l-159 -323h-297l303 492l-294 482h295z" />
    <glyph glyph-name="y" unicode="y" horiz-adv-x="941" 
d="M116 -225l50 -5q110 0 154 112l30 75l-345 973h282l164 -565l11 -54h5l186 619h283l-395 -1120q-23 -57 -48.5 -98t-62.5 -77q-76 -72 -214 -72q-43 0 -130 21z" />
    <glyph glyph-name="z" unicode="z" horiz-adv-x="941" 
d="M877 202v-202h-809v155l463 615h-449v204h779v-150l-467 -622h483z" />
    <glyph glyph-name="braceleft" unicode="{" horiz-adv-x="850" 
d="M310 93v183q0 188 -160 188v182q160 0 160 188v184q0 161 76 265.5t247 152.5l50 -141q-74 -28 -106 -96.5t-32 -180.5v-184q0 -198 -163 -279q163 -83 163 -278v-183q0 -111 32 -180.5t106 -96.5l-50 -143q-171 48 -247 153t-76 266z" />
    <glyph glyph-name="bar" unicode="|" horiz-adv-x="681" 
d="M421 1310v-1553h-158v1553h158z" />
    <glyph glyph-name="braceright" unicode="}" horiz-adv-x="851" 
d="M307 94v183q0 200 166 279q-166 79 -166 279v184q0 112 -32.5 180.5t-106.5 96.5l50 141q170 -48 247 -153t77 -265v-184q0 -188 159 -188v-182q-159 0 -159 -188v-183q0 -160 -77.5 -265.5t-246.5 -153.5l-50 142q74 28 106.5 97t32.5 180z" />
    <glyph glyph-name="asciitilde" unicode="~" horiz-adv-x="1194" 
d="M818 378q-76 0 -140.5 28.5t-135.5 91.5q-50 42 -82.5 58.5t-75.5 16.5t-75 -45t-32 -110l-181 23q0 148 77.5 243.5t209 95.5t270.5 -119q45 -42 78 -59t75.5 -17t75.5 47t33 112l184 -24q0 -146 -79.5 -244t-201.5 -98z" />
    <glyph glyph-name="uni00A0" unicode="&#xa0;" horiz-adv-x="520" 
 />
    <glyph glyph-name="exclamdown" unicode="&#xa1;" horiz-adv-x="520" 
d="M123 -369l30 907h217l30 -907h-277zM261 954q66 0 106 -38t40 -99t-41.5 -99.5t-104.5 -38.5t-104.5 38.5t-41.5 99.5t40 99t106 38z" />
    <glyph glyph-name="cent" unicode="&#xa2;" horiz-adv-x="1060" 
d="M536 168q72 0 116.5 39.5t45.5 105.5h245q-2 -131 -88.5 -225.5t-227.5 -120.5v-211h-180v210q-169 27 -264 156t-95 333v20q0 198 94.5 327.5t264.5 158.5v202h180v-203q147 -26 230 -125.5t85 -247.5h-245q-1 77 -45.5 123.5t-118.5 46.5q-93 0 -138 -67t-46 -211v-30
l1 1q0 -149 45.5 -215.5t140.5 -66.5z" />
    <glyph glyph-name="sterling" unicode="&#xa3;" horiz-adv-x="1095" 
d="M778 518h-270l5 -125q0 -111 -56 -176h588v-217h-953v217h83q64 16 64 161l-4 140h-146v213h139l-7 204q0 182 110.5 287.5t300 105.5t298.5 -100.5t109 -275.5h-259q0 77 -38.5 117.5t-106.5 40.5t-106 -45t-38 -130l9 -204h278v-213z" />
    <glyph glyph-name="currency" unicode="&#xa4;" horiz-adv-x="1276" 
d="M270 545q0 -107 48.5 -198t134.5 -144q88 -53 187 -53t184.5 53t133.5 144q50 91 50 198t-48.5 197.5t-134.5 142.5t-186 52t-185 -51.5t-135 -143.5h-1q-48 -90 -48 -197zM965 94q-142 -115 -324.5 -115t-325.5 114l-116 -119l-127 130l121 123q-90 141 -90 322.5
t99 323.5l-130 132l127 130l128 -131q137 104 312 104t316 -105l130 133l127 -131l-133 -136q96 -143 96 -320t-88 -319l125 -126l-127 -131z" />
    <glyph glyph-name="yen" unicode="&#xa5;" horiz-adv-x="1129" 
d="M982 668v-158h-287v-103h287v-157h-287v-250h-270v250h-303v157h303v103h-303v158h234l-338 642h297l248 -545l250 545h296l-338 -642h211z" />
    <glyph glyph-name="brokenbar" unicode="&#xa6;" horiz-adv-x="464" 
d="M349 -270h-234v716h234v-716zM349 1283v-682h-234v682h234z" />
    <glyph glyph-name="section" unicode="&#xa7;" horiz-adv-x="1158" 
d="M1061 387q0 -165 -146 -245q122 -92 122 -255t-123.5 -252t-350 -89t-354 96.5t-127.5 278.5l260 1q0 -165 229 -165q100 0 153 33t53 91.5t-58 95.5t-221 82t-247 94t-126 119q-41 64 -41 162q0 161 145 246q-122 92 -122 253t126.5 255t345 94t341 -101t122.5 -283
h-260q0 79 -55.5 127t-153 48t-151.5 -35t-54 -99t49.5 -97t215.5 -77t254.5 -93t132.5 -119h-1q42 -71 42 -166zM345 461q0 -63 37 -96t149 -69l200 -60q74 41 74 126q0 56 -41 91.5t-147 71.5l-205 62q-67 -35 -67 -126z" />
    <glyph glyph-name="dieresis" unicode="&#xa8;" horiz-adv-x="860" 
d="M297.5 1271.5q-34.5 -32.5 -89 -32.5t-89.5 32t-35 81.5t34.5 82t89.5 32.5t89.5 -33.5t34.5 -81.5t-34.5 -80.5zM646 1238q-55 0 -89.5 33t-34.5 81t35.5 81.5t88.5 33.5t89 -33t36 -81.5t-35 -81.5t-90 -33z" />
    <glyph glyph-name="copyright" unicode="&#xa9;" horiz-adv-x="1445" 
d="M865 534h133l2 -5q4 -135 -74 -206t-222 -71t-229 95t-85 253v107q0 158 85 253t228.5 95t222 -71.5t75.5 -205.5l-2 -5h-133q0 84 -39.5 122.5t-123 38.5t-129 -60.5t-45.5 -165.5v-108q0 -105 45.5 -166t129 -61t122.5 38t39 123zM716 1214q-146 0 -267.5 -73
t-191.5 -202t-70 -285q0 -238 153.5 -400t375.5 -162t375.5 162t153.5 400q0 156 -70.5 285t-191.5 202t-267 73zM716 -21q-131 0 -249.5 52.5t-204 142t-135.5 215t-50 265.5q0 187 85 341.5t231.5 242.5t322.5 88t322.5 -88t231.5 -242.5t85 -341.5q0 -140 -50.5 -265.5
t-136 -215t-203.5 -142t-249 -52.5z" />
    <glyph glyph-name="ordfeminine" unicode="&#xaa;" horiz-adv-x="818" 
d="M528 765q-68 -74 -177.5 -74t-168.5 55t-59 153t76.5 151.5t230.5 53.5h92v46q0 114 -104 114q-60 0 -92.5 -23t-32.5 -66l-155 13q0 94 78 152t201.5 58t193 -65t69.5 -185v-284q0 -91 23 -160l-159 1q-10 23 -16 60zM281 900q0 -79 105 -79q35 0 73 16t63 39v123h-95
q-68 -1 -107 -27.5t-39 -71.5z" />
    <glyph glyph-name="guillemotleft" unicode="&#xab;" horiz-adv-x="921" 
d="M479 844l-216 -360l216 -359h-168l-252 351v17l252 351h168zM864 844l-216 -360l216 -359h-168l-252 351v17l252 351h168z" />
    <glyph glyph-name="logicalnot" unicode="&#xac;" horiz-adv-x="1016" 
d="M865 762v-388h-180v234h-572v154h752z" />
    <glyph glyph-name="uni00AD" unicode="&#xad;" horiz-adv-x="715" 
d="M599 713v-203h-507v203h507z" />
    <glyph glyph-name="registered" unicode="&#xae;" horiz-adv-x="1445" 
d="M586 284h-136v765h253q137 0 214.5 -61.5t77.5 -174.5q0 -100 -101 -157q54 -28 76.5 -77t22.5 -125q0 -121 15 -156v-15h-140q-11 33 -11 174q0 68 -30 98.5t-99 30.5l-142 2v-304zM586 927v-221h122q68 0 110 29t42 76q0 64 -32 89.5t-115 26.5h-127zM1244 653
q0 152 -67.5 279t-191.5 204t-269 77t-267 -73.5t-192.5 -203.5t-70.5 -282.5t70.5 -283t192.5 -205t266 -74.5t268 76t192 206q69 128 69 280zM161 315q-85 159 -85 340.5t84 336.5t234 246q150 89 322 89t322 -89q149 -90 233 -245t84 -339t-85 -340t-234 -245t-321.5 -89
t-319.5 89.5t-233 246.5z" />
    <glyph glyph-name="macron" unicode="&#xaf;" horiz-adv-x="923" 
d="M790 1440v-150h-657v150h657z" />
    <glyph glyph-name="degree" unicode="&#xb0;" horiz-adv-x="716" 
d="M278.5 1254.5q-32.5 -33.5 -32.5 -81t32.5 -80t80 -32.5t78.5 32t31 80t-31.5 81.5t-78.5 33.5t-79.5 -33.5zM358 928q-99 0 -172 71t-73 173.5t72.5 175.5t172 73t170.5 -72.5t71 -175.5t-71 -174t-170 -71z" />
    <glyph glyph-name="plusminus" unicode="&#xb1;" horiz-adv-x="990" 
d="M879 213v-212h-777v212h777zM609 1157v-309h296v-217h-296v-328h-227v328h-302v217h302v309h227z" />
    <glyph glyph-name="acute" unicode="&#xb4;" horiz-adv-x="611" 
d="M91 1226l177 279h284l-250 -279h-211z" />
    <glyph glyph-name="mu" unicode="&#xb5;" horiz-adv-x="1135" 
d="M125 932h260v-560q0 -117 37 -169t125 -52q136 0 186 95v686h260v-974h-242l-6 62q-80 -80 -203 -80q-92 0 -157 40v-396h-260v1348z" />
    <glyph glyph-name="paragraph" unicode="&#xb6;" horiz-adv-x="903" 
d="M782 0h-197v468h-72q-207 0 -326 113.5t-119 307.5t119.5 307.5t326.5 113.5h268v-1310z" />
    <glyph glyph-name="periodcentered" unicode="&#xb7;" horiz-adv-x="555" 
d="M378.5 581.5q-41.5 -38.5 -106 -38.5t-105.5 38.5t-41 100.5t41 100.5t106 38.5t106 -38.5t41 -100.5t-41.5 -100.5z" />
    <glyph glyph-name="cedilla" unicode="&#xb8;" horiz-adv-x="493" 
d="M436 -248q0 -100 -82.5 -157t-231.5 -57l-7 150q101 0 101 73q0 37 -28.5 51.5t-99.5 18.5l28 129l195 -1l-10 -52q135 -24 135 -155z" />
    <glyph glyph-name="ordmasculine" unicode="&#xba;" horiz-adv-x="842" 
d="M264 1074v-65q0 -89 41.5 -138.5t113.5 -49.5t112.5 49t40.5 136v72q0 87 -41 136.5t-113 49.5t-113 -49.5t-41 -140.5zM106 1013v65q0 145 85.5 232t226.5 87t226.5 -87.5t85.5 -236.5v-64q0 -145 -84.5 -232t-227 -87t-227.5 87.5t-85 235.5z" />
    <glyph glyph-name="guillemotright" unicode="&#xbb;" horiz-adv-x="921" 
d="M68 843h168l252 -351v-17l-252 -351h-168l216 359zM462 843h168l252 -351v-17l-252 -351h-168l216 359z" />
    <glyph glyph-name="onequarter" unicode="&#xbc;" horiz-adv-x="1323" 
d="M1049 1141l-640 -1024l-127 68l640 1025z" />
    <glyph glyph-name="onehalf" unicode="&#xbd;" horiz-adv-x="1403" 
d="M1012 1141l-640 -1024l-127 68l640 1025z" />
    <glyph glyph-name="threequarters" unicode="&#xbe;" horiz-adv-x="1490" 
d="M1194 1141l-640 -1024l-127 68l640 1025z" />
    <glyph glyph-name="questiondown" unicode="&#xbf;" horiz-adv-x="917" 
d="M598 540q0 -120 -27.5 -193.5t-98 -139t-96.5 -97.5q-53 -65 -53 -140q0 -142 139 -142q69 0 110 40.5t43 113.5h260q-2 -173 -110.5 -269.5t-300 -96.5t-297 91.5t-105.5 260.5q0 142 138 280l87 83q45 41 62.5 85t19.5 124h229zM486 953q66 0 106 -38.5t40 -99
t-41.5 -99t-104.5 -38.5t-104.5 38.5t-41.5 99t40 99t106 38.5z" />
    <glyph glyph-name="Agrave" unicode="&#xc0;" horiz-adv-x="1240" 
d="M913 0l-89 283h-460l-89 -283h-265l451 1310h269l449 -1310h-266zM592 1004l-163 -515h331l-162 515h-6zM619 1761l178 -239h-214l-244 234l2 5h278z" />
    <glyph glyph-name="Aacute" unicode="&#xc1;" horiz-adv-x="1240" 
d="M913 0l-89 283h-460l-89 -283h-265l451 1310h269l449 -1310h-266zM592 1004l-163 -515h331l-162 515h-6zM542 1536l177 279h284l-250 -279h-211z" />
    <glyph glyph-name="Acircumflex" unicode="&#xc2;" horiz-adv-x="1240" 
d="M913 0l-89 283h-460l-89 -283h-265l451 1310h269l449 -1310h-266zM592 1004l-163 -515h331l-162 515h-6zM986 1554h-207l-138 131l-139 -131h-203v14l266 249h151l270 -252v-11z" />
    <glyph glyph-name="Atilde" unicode="&#xc3;" horiz-adv-x="1240" 
d="M916 -1l-89 283h-460l-89 -283h-265l451 1310h269l449 -1310h-266zM595 1003l-163 -515h331l-162 515h-6zM779 1564q-36 0 -63 8t-72 32.5t-66 31t-50.5 6.5t-50.5 -23t-21 -63l-152 9q0 101 59 170.5t145 69.5q28 0 51.5 -7t75 -32t72.5 -31t50 -6t51 22.5t22 62.5
l153 -11q0 -101 -59 -170t-145 -69z" />
    <glyph glyph-name="Adieresis" unicode="&#xc4;" horiz-adv-x="1240" 
d="M913 0l-89 283h-460l-89 -283h-265l451 1310h269l449 -1310h-266zM592 1004l-163 -515h331l-162 515h-6zM512.5 1581.5q-34.5 -32.5 -89 -32.5t-89.5 32t-35 81.5t34.5 82t89.5 32.5t89.5 -33.5t34.5 -81.5t-34.5 -80.5zM861 1548q-55 0 -89.5 33t-34.5 81t35.5 81.5
t88.5 33.5t89 -33t36 -81.5t-35 -81.5t-90 -33z" />
    <glyph glyph-name="Aring" unicode="&#xc5;" horiz-adv-x="1240" 
d="M913 -1l-89 283h-460l-89 -283h-265l451 1310h269l449 -1310h-266zM592 1003l-163 -515h331l-162 515h-6zM658 1807q-43 0 -70 -28t-27 -69.5t26.5 -69t70.5 -27.5t70.5 27.5t26.5 69t-27 69.5t-70 28zM658 1529v-1q-87 0 -144 52.5t-57 129.5t58 130.5t142.5 53.5
t143 -52.5t58.5 -130.5t-57.5 -130t-143.5 -52z" />
    <glyph glyph-name="AE" unicode="&#xc6;" horiz-adv-x="1733" 
d="M1679 212v-212h-808l-12 300h-402l-150 -300h-305l707 1310h915v-212h-539l14 -319h452v-213h-443l14 -354h557zM828 1035l-258 -513h280z" />
    <glyph glyph-name="Ccedilla" unicode="&#xc7;" horiz-adv-x="1206" 
d="M877 -249q0 -100 -82.5 -157t-231.5 -57l-7 150q101 0 101 73q0 37 -28.5 51.5t-99.5 18.5l28 129l195 -1l-10 -52q135 -24 135 -155zM848 443h253l1 -5q4 -213 -128.5 -336t-369.5 -123t-384 151t-147 393v260q0 240 144 392t381 152t374 -124t133 -340l-2 -6h-255
q0 268 -256 268q-117 0 -186.5 -94.5t-69.5 -245.5v-262q0 -153 73 -247.5t197 -94.5t183 65t59 197z" />
    <glyph glyph-name="Egrave" unicode="&#xc8;" horiz-adv-x="1037" 
d="M916 779v-203h-543v-374h635v-202h-898v1310h896v-202h-633v-329h543zM551 1764l178 -239h-214l-244 234l2 5h278z" />
    <glyph glyph-name="Eacute" unicode="&#xc9;" horiz-adv-x="1037" 
d="M916 779v-203h-543v-374h635v-202h-898v1310h896v-202h-633v-329h543zM474 1539l177 279h284l-250 -279h-211z" />
    <glyph glyph-name="Ecircumflex" unicode="&#xca;" horiz-adv-x="1037" 
d="M916 779v-203h-543v-374h635v-202h-898v1310h896v-202h-633v-329h543zM918 1557h-207l-138 131l-139 -131h-203v14l266 249h151l270 -252v-11z" />
    <glyph glyph-name="Edieresis" unicode="&#xcb;" horiz-adv-x="1037" 
d="M916 779v-203h-543v-374h635v-202h-898v1310h896v-202h-633v-329h543zM444.5 1584.5q-34.5 -32.5 -89 -32.5t-89.5 32t-35 81.5t34.5 82t89.5 32.5t89.5 -33.5t34.5 -81.5t-34.5 -80.5zM793 1551q-55 0 -89.5 33t-34.5 81t35.5 81.5t88.5 33.5t89 -33t36 -81.5t-35 -81.5
t-90 -33z" />
    <glyph glyph-name="Igrave" unicode="&#xcc;" horiz-adv-x="537" 
d="M409 1310v-1310h-262v1310h262zM234 1764l178 -239h-214l-244 234l2 5h278z" />
    <glyph glyph-name="Iacute" unicode="&#xcd;" horiz-adv-x="537" 
d="M388 1310v-1310h-262v1310h262zM136 1539l177 279h284l-250 -279h-211z" />
    <glyph glyph-name="Icircumflex" unicode="&#xce;" horiz-adv-x="537" 
d="M409 1310v-1310h-262v1310h262zM602 1557h-207l-138 131l-139 -131h-203v14l266 249h151l270 -252v-11z" />
    <glyph glyph-name="Idieresis" unicode="&#xcf;" horiz-adv-x="537" 
d="M409 1310v-1310h-262v1310h262zM128.5 1584.5q-34.5 -32.5 -89 -32.5t-89.5 32t-35 81.5t34.5 82t89.5 32.5t89.5 -33.5t34.5 -81.5t-34.5 -80.5zM477 1551q-55 0 -89.5 33t-34.5 81t35.5 81.5t88.5 33.5t89 -33t36 -81.5t-35 -81.5t-90 -33z" />
    <glyph glyph-name="Eth" unicode="&#xd0;" horiz-adv-x="1225" 
d="M610 743v-165h-197v-361h131q160 0 243.5 104.5t83.5 303.5v61q0 201 -82 303.5t-243 102.5h-133v-349h197zM550 0h-407v578h-162v165h162v567h403q175 0 310.5 -77.5t212 -222t76.5 -325.5v-60q0 -183 -75 -324.5t-212 -221.5q-140 -79 -308 -79z" />
    <glyph glyph-name="Ntilde" unicode="&#xd1;" horiz-adv-x="1301" 
d="M1172 1309v-1310h-262l-529 896l-6 -1v-895h-263v1310h263l529 -894l6 1v893h262zM801 1564q-36 0 -63 8t-72 32.5t-66 31t-50.5 6.5t-50.5 -23t-21 -63l-152 9q0 101 59 170.5t145 69.5q28 0 51.5 -7t75 -32t72.5 -31t50 -6t51 22.5t22 62.5l153 -11q0 -101 -59 -170
t-145 -69z" />
    <glyph glyph-name="Ograve" unicode="&#xd2;" horiz-adv-x="1273" 
d="M906 535v238q0 156 -77 252.5t-210 96.5t-207.5 -95.5t-74.5 -253.5v-238q0 -159 75.5 -255.5t208 -96.5t209 96.5t76.5 255.5zM1168 771v-236q0 -244 -152.5 -400t-396.5 -156q-160 0 -284 71.5t-192 198t-68 286.5v236q0 243 151 399.5t393.5 156.5t395.5 -156.5
t153 -399.5zM626 1761l178 -239h-214l-244 234l2 5h278z" />
    <glyph glyph-name="Oacute" unicode="&#xd3;" horiz-adv-x="1273" 
d="M905 535v238q0 156 -77 252.5t-210 96.5t-207.5 -95.5t-74.5 -253.5v-238q0 -159 75.5 -255.5t208 -96.5t209 96.5t76.5 255.5zM1167 771v-236q0 -244 -152.5 -400t-396.5 -156q-160 0 -284 71.5t-192 198t-68 286.5v236q0 243 151 399.5t393.5 156.5t395.5 -156.5
t153 -399.5zM548 1536l177 279h284l-250 -279h-211z" />
    <glyph glyph-name="Ocircumflex" unicode="&#xd4;" horiz-adv-x="1273" 
d="M905 535v238q0 156 -77 252.5t-210 96.5t-207.5 -95.5t-74.5 -253.5v-238q0 -159 75.5 -255.5t208 -96.5t209 96.5t76.5 255.5zM1167 771v-236q0 -244 -152.5 -400t-396.5 -156q-160 0 -284 71.5t-192 198t-68 286.5v236q0 243 151 399.5t393.5 156.5t395.5 -156.5
t153 -399.5zM992 1554h-207l-138 131l-139 -131h-203v14l266 249h151l270 -252v-11z" />
    <glyph glyph-name="Otilde" unicode="&#xd5;" horiz-adv-x="1273" 
d="M908 534v238q0 156 -77 252.5t-210 96.5t-207.5 -95.5t-74.5 -253.5v-238q0 -159 75.5 -255.5t208 -96.5t209 96.5t76.5 255.5zM1170 770v-236q0 -244 -152.5 -400t-396.5 -156q-160 0 -284 71.5t-192 198t-68 286.5v236q0 243 151 399.5t393.5 156.5t395.5 -156.5
t153 -399.5zM785 1564q-36 0 -63 8t-72 32.5t-66 31t-50.5 6.5t-50.5 -23t-21 -63l-152 9q0 101 59 170.5t145 69.5q28 0 51.5 -7t75 -32t72.5 -31t50 -6t51 22.5t22 62.5l153 -11q0 -101 -59 -170t-145 -69z" />
    <glyph glyph-name="Odieresis" unicode="&#xd6;" horiz-adv-x="1273" 
d="M905 535v238q0 156 -77 252.5t-210 96.5t-207.5 -95.5t-74.5 -253.5v-238q0 -159 75.5 -255.5t208 -96.5t209 96.5t76.5 255.5zM1167 771v-236q0 -244 -152.5 -400t-396.5 -156q-160 0 -284 71.5t-192 198t-68 286.5v236q0 243 151 399.5t393.5 156.5t395.5 -156.5
t153 -399.5zM518.5 1581.5q-34.5 -32.5 -89 -32.5t-89.5 32t-35 81.5t34.5 82t89.5 32.5t89.5 -33.5t34.5 -81.5t-34.5 -80.5zM867 1548q-55 0 -89.5 33t-34.5 81t35.5 81.5t88.5 33.5t89 -33t36 -81.5t-35 -81.5t-90 -33z" />
    <glyph glyph-name="multiply" unicode="&#xd7;" horiz-adv-x="979" 
d="M212 207l-154 148l278 283l-278 284l154 147l273 -279l274 279l155 -147l-279 -284l279 -283l-155 -148l-274 278z" />
    <glyph glyph-name="Oslash" unicode="&#xd8;" horiz-adv-x="1270" 
d="M1198 669v-53q0 -194 -68 -339.5t-195.5 -225.5t-284 -80t-274.5 64l-76 -131h-170l129 218q-177 176 -177 499v52q0 194 69 341t198 226q123 79 286.5 79t286.5 -74l67 112h168l-120 -205q161 -179 161 -483zM925 675q0 138 -34 231l-396 -670q63 -42 147 -42
q137 0 209.5 106.5t73.5 311.5v63zM641 1096q-137 0 -210 -106t-74 -310l-2 -64q0 -154 44 -256l403 681q-67 55 -161 55z" />
    <glyph glyph-name="Ugrave" unicode="&#xd9;" horiz-adv-x="1213" 
d="M886 1308h263v-869q0 -218 -143 -339t-383.5 -121t-382.5 120.5t-142 339.5v869h264v-869q0 -128 67.5 -193t193.5 -65t194.5 64.5t68.5 193.5v869zM588 1761l178 -239h-214l-244 234l2 5h278z" />
    <glyph glyph-name="Uacute" unicode="&#xda;" horiz-adv-x="1213" 
d="M884 1308h263v-869q0 -218 -143 -339t-383.5 -121t-382.5 120.5t-142 339.5v869h264v-869q0 -128 67.5 -193t193.5 -65t194.5 64.5t68.5 193.5v869zM509 1536l177 279h284l-250 -279h-211z" />
    <glyph glyph-name="Ucircumflex" unicode="&#xdb;" horiz-adv-x="1213" 
d="M884 1308h263v-869q0 -218 -143 -339t-383.5 -121t-382.5 120.5t-142 339.5v869h264v-869q0 -128 67.5 -193t193.5 -65t194.5 64.5t68.5 193.5v869zM953 1554h-207l-138 131l-139 -131h-203v14l266 249h151l270 -252v-11z" />
    <glyph glyph-name="Udieresis" unicode="&#xdc;" horiz-adv-x="1213" 
d="M884 1308h263v-869q0 -218 -143 -339t-383.5 -121t-382.5 120.5t-142 339.5v869h264v-869q0 -128 67.5 -193t193.5 -65t194.5 64.5t68.5 193.5v869zM479.5 1581.5q-34.5 -32.5 -89 -32.5t-89.5 32t-35 81.5t34.5 82t89.5 32.5t89.5 -33.5t34.5 -81.5t-34.5 -80.5z
M828 1548q-55 0 -89.5 33t-34.5 81t35.5 81.5t88.5 33.5t89 -33t36 -81.5t-35 -81.5t-90 -33z" />
    <glyph glyph-name="Yacute" unicode="&#xdd;" horiz-adv-x="1139" 
d="M708 0h-262v474l-441 836h288l286 -603h5l286 603h288l-450 -849v-461zM486 1536l177 279h284l-250 -279h-211z" />
    <glyph glyph-name="Thorn" unicode="&#xde;" horiz-adv-x="1121" 
d="M380 469h201q105 0 163.5 52.5t58.5 142t-57 142.5t-158 54l-208 1v-392zM120 1310h260v-240h207q147 -1 254 -50.5t164.5 -141.5t57.5 -214q0 -183 -124.5 -292t-340.5 -114h-218v-258h-260v1310z" />
    <glyph glyph-name="germandbls" unicode="&#xdf;" horiz-adv-x="1163" 
d="M382 -3h-260v991q0 198 111 305t315 107q173 0 276.5 -89.5t103.5 -243.5q0 -55 -24 -116.5t-48 -115.5t-24 -89t27 -70t107 -107q136 -120 136 -252q0 -161 -103.5 -249t-297.5 -88q-73 0 -143.5 14.5t-107.5 35.5l49 207q87 -47 197 -47q71 0 108.5 32t37.5 90
q0 41 -29.5 79.5t-105.5 99.5q-135 107 -135 243q0 61 49.5 168.5t49.5 161t-40 91t-102 37.5q-142 0 -147 -191v-1004z" />
    <glyph glyph-name="agrave" unicode="&#xe0;" horiz-adv-x="988" 
d="M363 -21q-152 0 -235 78t-83 219.5t110 219t322 77.5h146v77q0 72 -37 110t-104.5 38t-102.5 -31t-35 -86l-254 1v5q-7 127 107.5 215t295 88t287.5 -90t107 -251v-403q0 -131 43 -248h-263q-32 74 -39 146q-96 -165 -265 -165zM305 281h1q0 -49 32.5 -78.5t94 -29.5
t115.5 33.5t74 80.5v138h-146q-82 0 -126.5 -40.5t-44.5 -103.5zM473 1451l178 -239h-214l-244 234l2 5h278z" />
    <glyph glyph-name="aacute" unicode="&#xe1;" horiz-adv-x="988" 
d="M363 -21q-152 0 -235 78t-83 219.5t110 219t322 77.5h146v77q0 72 -37 110t-104.5 38t-102.5 -31t-35 -86l-254 1v5q-7 127 107.5 215t295 88t287.5 -90t107 -251v-403q0 -131 43 -248h-263q-32 74 -39 146q-96 -165 -265 -165zM305 281h1q0 -49 32.5 -78.5t94 -29.5
t115.5 33.5t74 80.5v138h-146q-82 0 -126.5 -40.5t-44.5 -103.5zM396 1226l177 279h284l-250 -279h-211z" />
    <glyph glyph-name="acircumflex" unicode="&#xe2;" horiz-adv-x="988" 
d="M363 -21q-152 0 -235 78t-83 219.5t110 219t322 77.5h146v77q0 72 -37 110t-104.5 38t-102.5 -31t-35 -86l-254 1v5q-7 127 107.5 215t295 88t287.5 -90t107 -251v-403q0 -131 43 -248h-263q-32 74 -39 146q-96 -165 -265 -165zM305 281h1q0 -49 32.5 -78.5t94 -29.5
t115.5 33.5t74 80.5v138h-146q-82 0 -126.5 -40.5t-44.5 -103.5zM840 1244h-207l-138 131l-139 -131h-203v14l266 249h151l270 -252v-11z" />
    <glyph glyph-name="atilde" unicode="&#xe3;" horiz-adv-x="988" 
d="M366 -22q-152 0 -235 78t-83 219.5t110 219t322 77.5h146v77q0 72 -37 110t-104.5 38t-102.5 -31t-35 -86l-254 1v5q-7 127 107.5 215t295 88t287.5 -90t107 -251v-403q0 -131 43 -248h-263q-32 74 -39 146q-96 -165 -265 -165zM308 280h1q0 -49 32.5 -78.5t94 -29.5
t115.5 33.5t74 80.5v138h-146q-82 0 -126.5 -40.5t-44.5 -103.5zM633 1255q-36 0 -63 8t-72 32.5t-66 31t-50.5 6.5t-50.5 -23t-21 -63l-152 9q0 101 59 170.5t145 69.5q28 0 51.5 -7t75 -32t72.5 -31t50 -6t51 22.5t22 62.5l153 -11q0 -101 -59 -170t-145 -69z" />
    <glyph glyph-name="adieresis" unicode="&#xe4;" horiz-adv-x="988" 
d="M363 -21q-152 0 -235 78t-83 219.5t110 219t322 77.5h146v77q0 72 -37 110t-104.5 38t-102.5 -31t-35 -86l-254 1v5q-7 127 107.5 215t295 88t287.5 -90t107 -251v-403q0 -131 43 -248h-263q-32 74 -39 146q-96 -165 -265 -165zM305 281h1q0 -49 32.5 -78.5t94 -29.5
t115.5 33.5t74 80.5v138h-146q-82 0 -126.5 -40.5t-44.5 -103.5zM366.5 1271.5q-34.5 -32.5 -89 -32.5t-89.5 32t-35 81.5t34.5 82t89.5 32.5t89.5 -33.5t34.5 -81.5t-34.5 -80.5zM715 1238q-55 0 -89.5 33t-34.5 81t35.5 81.5t88.5 33.5t89 -33t36 -81.5t-35 -81.5t-90 -33
z" />
    <glyph glyph-name="aring" unicode="&#xe5;" horiz-adv-x="988" 
d="M362 -22q-152 0 -235 78t-83 219.5t110 219t322 77.5h146v77q0 72 -37 110t-104.5 38t-102.5 -31t-35 -86l-254 1v5q-7 127 107.5 215t295 88t287.5 -90t107 -251v-403q0 -131 43 -248h-263q-32 74 -39 146q-96 -165 -265 -165zM304 280h1q0 -49 32.5 -78.5t94 -29.5
t115.5 33.5t74 80.5v138h-146q-82 0 -126.5 -40.5t-44.5 -103.5zM511 1497q-43 0 -70 -28t-27 -69.5t26.5 -69t70.5 -27.5t70.5 27.5t26.5 69t-27 69.5t-70 28zM511 1219v-1q-87 0 -144 52.5t-57 129.5t58 130.5t142.5 53.5t143 -52.5t58.5 -130.5t-57.5 -130t-143.5 -52z
" />
    <glyph glyph-name="ae" unicode="&#xe6;" horiz-adv-x="1556" 
d="M319 282v-1q0 -111 149 -111q45 0 96.5 20t87.5 52v170h-148q-84 -1 -134.5 -38t-50.5 -92zM1253 603q0 85 -39.5 130.5t-117.5 45.5t-126.5 -51.5t-60.5 -149.5h344v25zM1120 -20q-221 0 -347 132q-59 -63 -151 -97.5t-204 -34.5q-169 0 -264.5 80t-95.5 224
t112.5 220.5t329.5 77.5h152v51q0 70 -36.5 108t-107.5 38t-114.5 -31t-43.5 -79l-260 17q0 135 117 219.5t305.5 84.5t293.5 -99q114 100 300 99.5t294 -118.5t108 -328v-141h-601q10 -104 72 -159t168 -55q73 0 131.5 15t135.5 54l69 -170h-1q-65 -50 -162 -79t-200 -29z
" />
    <glyph glyph-name="ccedilla" unicode="&#xe7;" horiz-adv-x="961" 
d="M750 -250q0 -100 -82.5 -157t-231.5 -57l-7 150q101 0 101 73q0 37 -28.5 51.5t-99.5 18.5l28 129l195 -1l-10 -52q135 -24 135 -155zM312 497v-28q0 -289 190 -289q71 0 113 41t42 109h239l2 -5q4 -148 -110 -247.5t-286 -99.5q-214 0 -333.5 134.5t-119.5 356.5v27
q0 222 119.5 357.5t333.5 135.5q181 0 290.5 -102.5t105.5 -270.5l-1 -5h-240q0 77 -42 126.5t-113 49.5q-190 0 -190 -290z" />
    <glyph glyph-name="egrave" unicode="&#xe8;" horiz-adv-x="996" 
d="M659 603q0 86 -39.5 134.5t-114.5 48.5t-118 -54t-53 -148l3 -5h322v24zM526 -22q-210 0 -336.5 133t-126.5 345v36q0 145 53.5 258t154 176.5t232.5 63.5q196 0 305 -117.5t109 -322.5v-143h-581l-2 -6q7 -99 65 -159.5t148 -60.5t147 16.5t130 56.5l71 -162v-1
q-63 -52 -158.5 -82.5t-210.5 -30.5zM465 1451l178 -239h-214l-244 234l2 5h278z" />
    <glyph glyph-name="eacute" unicode="&#xe9;" horiz-adv-x="996" 
d="M659 603q0 86 -39.5 134.5t-114.5 48.5t-118 -54t-53 -148l3 -5h322v24zM526 -22q-210 0 -336.5 133t-126.5 345v36q0 145 53.5 258t154 176.5t232.5 63.5q196 0 305 -117.5t109 -322.5v-143h-581l-2 -6q7 -99 65 -159.5t148 -60.5t147 16.5t130 56.5l71 -162v-1
q-63 -52 -158.5 -82.5t-210.5 -30.5zM388 1226l177 279h284l-250 -279h-211z" />
    <glyph glyph-name="ecircumflex" unicode="&#xea;" horiz-adv-x="996" 
d="M659 603q0 86 -39.5 134.5t-114.5 48.5t-118 -54t-53 -148l3 -5h322v24zM526 -22q-210 0 -336.5 133t-126.5 345v36q0 145 53.5 258t154 176.5t232.5 63.5q196 0 305 -117.5t109 -322.5v-143h-581l-2 -6q7 -99 65 -159.5t148 -60.5t147 16.5t130 56.5l71 -162v-1
q-63 -52 -158.5 -82.5t-210.5 -30.5zM832 1244h-207l-138 131l-139 -131h-203v14l266 249h151l270 -252v-11z" />
    <glyph glyph-name="edieresis" unicode="&#xeb;" horiz-adv-x="996" 
d="M659 603q0 86 -39.5 134.5t-114.5 48.5t-118 -54t-53 -148l3 -5h322v24zM526 -22q-210 0 -336.5 133t-126.5 345v36q0 145 53.5 258t154 176.5t232.5 63.5q196 0 305 -117.5t109 -322.5v-143h-581l-2 -6q7 -99 65 -159.5t148 -60.5t147 16.5t130 56.5l71 -162v-1
q-63 -52 -158.5 -82.5t-210.5 -30.5zM358.5 1271.5q-34.5 -32.5 -89 -32.5t-89.5 32t-35 81.5t34.5 82t89.5 32.5t89.5 -33.5t34.5 -81.5t-34.5 -80.5zM707 1238q-55 0 -89.5 33t-34.5 81t35.5 81.5t88.5 33.5t89 -33t36 -81.5t-35 -81.5t-90 -33z" />
    <glyph glyph-name="igrave" unicode="&#xec;" horiz-adv-x="505" 
d="M390 974v-974h-260v974h260zM218 1436l178 -239h-214l-244 234l2 5h278z" />
    <glyph glyph-name="iacute" unicode="&#xed;" horiz-adv-x="505" 
d="M369 974v-974h-260v974h260zM119 1211l177 279h284l-250 -279h-211z" />
    <glyph glyph-name="icircumflex" unicode="&#xee;" horiz-adv-x="505" 
d="M392 974v-974h-260v974h260zM587 1229h-207l-138 131l-139 -131h-203v14l266 249h151l270 -252v-11z" />
    <glyph glyph-name="idieresis" unicode="&#xef;" horiz-adv-x="505" 
d="M391 974v-974h-260v974h260zM112.5 1256.5q-34.5 -32.5 -89 -32.5t-89.5 32t-35 81.5t34.5 82t89.5 32.5t89.5 -33.5t34.5 -81.5t-34.5 -80.5zM461 1223q-55 0 -89.5 33t-34.5 81t35.5 81.5t88.5 33.5t89 -33t36 -81.5t-35 -81.5t-90 -33z" />
    <glyph glyph-name="eth" unicode="&#xf0;" horiz-adv-x="1060" 
d="M541 668q-101 0 -153 -65.5t-52 -176t54 -174t145 -63.5t145 81.5t54 223.5l-1 100q-59 74 -192 74zM995 516q0 -154 -60 -277.5t-166.5 -191.5t-238 -68t-234 56.5t-161 158t-58.5 224.5q0 208 109.5 328t296.5 120q122 0 220 -68q-44 137 -149 239l-172 -110l-70 102
l136 88q-104 64 -237 100l82 201q214 -42 373 -161l154 98l69 -102l-125 -81q230 -235 231 -589v-67z" />
    <glyph glyph-name="ntilde" unicode="&#xf1;" horiz-adv-x="1032" 
d="M625 991q151 0 232 -95t81 -289v-608h-264v608q0 96 -38.5 138t-120.5 42q-104 0 -164 -81v-707h-263v974l246 -1l12 -140q101 159 279 159zM653 1255q-36 0 -63 8t-72 32.5t-66 31t-50.5 6.5t-50.5 -23t-21 -63l-152 9q0 101 59 170.5t145 69.5q28 0 51.5 -7t75 -32
t72.5 -31t50 -6t51 22.5t22 62.5l153 -11q0 -101 -59 -170t-145 -69z" />
    <glyph glyph-name="ograve" unicode="&#xf2;" horiz-adv-x="1042" 
d="M316 494v-19q0 -139 48.5 -216.5t148.5 -77.5t148.5 78t48.5 216v19q0 136 -49 214.5t-148 78.5t-148 -79t-49 -214zM54 475v19q0 223 122.5 359.5t336 136.5t337 -136.5t123.5 -359.5v-19q0 -224 -123 -360t-336.5 -136t-336.5 136t-123 360zM498 1451l178 -239h-214
l-244 234l2 5h278z" />
    <glyph glyph-name="oacute" unicode="&#xf3;" horiz-adv-x="1042" 
d="M316 494v-19q0 -139 48.5 -216.5t148.5 -77.5t148.5 78t48.5 216v19q0 136 -49 214.5t-148 78.5t-148 -79t-49 -214zM54 475v19q0 223 122.5 359.5t336 136.5t337 -136.5t123.5 -359.5v-19q0 -224 -123 -360t-336.5 -136t-336.5 136t-123 360zM421 1226l177 279h284
l-250 -279h-211z" />
    <glyph glyph-name="ocircumflex" unicode="&#xf4;" horiz-adv-x="1042" 
d="M315 494v-19q0 -139 48.5 -216.5t148.5 -77.5t148.5 78t48.5 216v19q0 136 -49 214.5t-148 78.5t-148 -79t-49 -214zM53 475v19q0 223 122.5 359.5t336 136.5t337 -136.5t123.5 -359.5v-19q0 -224 -123 -360t-336.5 -136t-336.5 136t-123 360zM864 1244h-207l-138 131
l-139 -131h-203v14l266 249h151l270 -252v-11z" />
    <glyph glyph-name="otilde" unicode="&#xf5;" horiz-adv-x="1042" 
d="M319 493v-19q0 -139 48.5 -216.5t148.5 -77.5t148.5 78t48.5 216v19q0 136 -49 214.5t-148 78.5t-148 -79t-49 -214zM57 474v19q0 223 122.5 359.5t336 136.5t337 -136.5t123.5 -359.5v-19q0 -224 -123 -360t-336.5 -136t-336.5 136t-123 360zM658 1255q-36 0 -63 8
t-72 32.5t-66 31t-50.5 6.5t-50.5 -23t-21 -63l-152 9q0 101 59 170.5t145 69.5q28 0 51.5 -7t75 -32t72.5 -31t50 -6t51 22.5t22 62.5l153 -11q0 -101 -59 -170t-145 -69z" />
    <glyph glyph-name="odieresis" unicode="&#xf6;" horiz-adv-x="1042" 
d="M316 494v-19q0 -139 48.5 -216.5t148.5 -77.5t148.5 78t48.5 216v19q0 136 -49 214.5t-148 78.5t-148 -79t-49 -214zM54 475v19q0 223 122.5 359.5t336 136.5t337 -136.5t123.5 -359.5v-19q0 -224 -123 -360t-336.5 -136t-336.5 136t-123 360zM391.5 1271.5
q-34.5 -32.5 -89 -32.5t-89.5 32t-35 81.5t34.5 82t89.5 32.5t89.5 -33.5t34.5 -81.5t-34.5 -80.5zM740 1238q-55 0 -89.5 33t-34.5 81t35.5 81.5t88.5 33.5t89 -33t36 -81.5t-35 -81.5t-90 -33z" />
    <glyph glyph-name="divide" unicode="&#xf7;" horiz-adv-x="1051" 
d="M653 374v-210h-264v210h264zM983 736v-204h-926v204h926zM653 1102v-210h-264v210h264z" />
    <glyph glyph-name="oslash" unicode="&#xf8;" horiz-adv-x="1040" 
d="M59 483q0 146 56 258t160 174.5t244 62.5q88 0 168 -26l63 128h145l-93 -190q180 -134 180 -427q0 -226 -124.5 -360.5t-336.5 -134.5q-89 0 -158 23l-65 -133h-145l93 191v2q-187 132 -187 432zM521 178q201 0 201 304q0 97 -33 176l-231 -471q24 -9 63 -9zM519 767
q-199 0 -199 -304q0 -117 36 -187l234 478q-30 13 -71 13z" />
    <glyph glyph-name="ugrave" unicode="&#xf9;" horiz-adv-x="1031" 
d="M412 -21q-158 0 -242.5 100t-84.5 305v588h261v-590q0 -105 35 -152t108 -47q123 0 181 80v709h263v-974h-224l-23 140q-94 -159 -274 -159zM490 1451l178 -239h-214l-244 234l2 5h278z" />
    <glyph glyph-name="uacute" unicode="&#xfa;" horiz-adv-x="1031" 
d="M412 -21q-158 0 -242.5 100t-84.5 305v588h261v-590q0 -105 35 -152t108 -47q123 0 181 80v709h263v-974h-224l-23 140q-94 -159 -274 -159zM413 1226l177 279h284l-250 -279h-211z" />
    <glyph glyph-name="ucircumflex" unicode="&#xfb;" horiz-adv-x="1031" 
d="M412 -21q-158 0 -242.5 100t-84.5 305v588h261v-590q0 -105 35 -152t108 -47q123 0 181 80v709h263v-974h-224l-23 140q-94 -159 -274 -159zM857 1244h-207l-138 131l-139 -131h-203v14l266 249h151l270 -252v-11z" />
    <glyph glyph-name="udieresis" unicode="&#xfc;" horiz-adv-x="1031" 
d="M412 -21q-158 0 -242.5 100t-84.5 305v588h261v-590q0 -105 35 -152t108 -47q123 0 181 80v709h263v-974h-224l-23 140q-94 -159 -274 -159zM383.5 1271.5q-34.5 -32.5 -89 -32.5t-89.5 32t-35 81.5t34.5 82t89.5 32.5t89.5 -33.5t34.5 -81.5t-34.5 -80.5zM732 1238
q-55 0 -89.5 33t-34.5 81t35.5 81.5t88.5 33.5t89 -33t36 -81.5t-35 -81.5t-90 -33z" />
    <glyph glyph-name="yacute" unicode="&#xfd;" horiz-adv-x="925" 
d="M116 -225l50 -5q110 0 154 112l30 75l-345 973h282l164 -565l11 -54h5l186 619h283l-395 -1120q-23 -57 -48.5 -98t-62.5 -77q-76 -72 -214 -72q-43 0 -130 21zM371 1226l177 279h284l-250 -279h-211z" />
    <glyph glyph-name="thorn" unicode="&#xfe;" horiz-adv-x="1046" 
d="M979 449v-12q0 -227 -102 -362t-276 -135q-147 0 -237 102v-458h-261v1757h261v-492q90 101 236 101q180 0 279.5 -131.5t99.5 -369.5zM532 150h1q186 0 186 305q0 137 -48 210.5t-140 73.5q-120 0 -167 -92v-402q48 -95 168 -95z" />
    <glyph glyph-name="ydieresis" unicode="&#xff;" horiz-adv-x="925" 
d="M116 -225l50 -5q110 0 154 112l30 75l-345 973h282l164 -565l11 -54h5l186 619h283l-395 -1120q-23 -57 -48.5 -98t-62.5 -77q-76 -72 -214 -72q-43 0 -130 21zM341.5 1271.5q-34.5 -32.5 -89 -32.5t-89.5 32t-35 81.5t34.5 82t89.5 32.5t89.5 -33.5t34.5 -81.5
t-34.5 -80.5zM690 1238q-55 0 -89.5 33t-34.5 81t35.5 81.5t88.5 33.5t89 -33t36 -81.5t-35 -81.5t-90 -33z" />
    <glyph glyph-name="Amacron" unicode="&#x100;" horiz-adv-x="1240" 
d="M913 0l-89 283h-460l-89 -283h-265l451 1310h269l449 -1310h-266zM592 1004l-163 -515h331l-162 515h-6zM970 1748v-150h-657v150h657z" />
    <glyph glyph-name="amacron" unicode="&#x101;" horiz-adv-x="988" 
d="M362 -21q-152 0 -235 78t-83 219.5t110 219t322 77.5h146v77q0 72 -37 110t-104.5 38t-102.5 -31t-35 -86l-254 1v5q-7 127 107.5 215t295 88t287.5 -90t107 -251v-403q0 -131 43 -248h-263q-32 74 -39 146q-96 -165 -265 -165zM304 281h1q0 -49 32.5 -78.5t94 -29.5
t115.5 33.5t74 80.5v138h-146q-82 0 -126.5 -40.5t-44.5 -103.5zM823 1439v-150h-657v150h657z" />
    <glyph glyph-name="Abreve" unicode="&#x102;" horiz-adv-x="1240" 
d="M913 0l-89 283h-460l-89 -283h-265l451 1310h269l449 -1310h-266zM592 1004l-163 -515h331l-162 515h-6zM772 1806h186q0 -119 -86 -193t-226 -74t-225.5 73t-85.5 194h185q0 -56 33.5 -87t93 -31t92.5 31t33 87z" />
    <glyph glyph-name="abreve" unicode="&#x103;" horiz-adv-x="988" 
d="M363 -21q-152 0 -235 78t-83 219.5t110 219t322 77.5h146v77q0 72 -37 110t-104.5 38t-102.5 -31t-35 -86l-254 1v5q-7 127 107.5 215t295 88t287.5 -90t107 -251v-403q0 -131 43 -248h-263q-32 74 -39 146q-96 -165 -265 -165zM305 281h1q0 -49 32.5 -78.5t94 -29.5
t115.5 33.5t74 80.5v138h-146q-82 0 -126.5 -40.5t-44.5 -103.5zM626 1496h186q0 -119 -86 -193t-226 -74t-225.5 73t-85.5 194h185q0 -56 33.5 -87t93 -31t92.5 31t33 87z" />
    <glyph glyph-name="Aogonek" unicode="&#x104;" horiz-adv-x="1240" 
d="M619 936l-163 -490h328zM1021 -202q0 -58 59 -58q30 0 72 18l26 -141q-65 -40 -152.5 -40t-144 50.5t-56.5 137.5q0 122 119 203l-87 260h-474l-90 -270h-287l488 1310l250 -1l491 -1310h-76q-71 -41 -104.5 -77t-33.5 -82z" />
    <glyph glyph-name="aogonek" unicode="&#x105;" horiz-adv-x="988" 
d="M322 249q0 -49 35 -80t93.5 -31t106.5 25.5t71 68.5v168h-97q-193 0 -207 -135l-1 -16h-1zM640 44q-93 -105 -241.5 -105t-242 82t-93.5 209q0 156 114.5 238.5t332.5 83.5h119v56q0 70 -36 109t-105 39t-106.5 -31.5t-37.5 -86.5h-260q0 86 52 157.5t148 112.5t214 41
q182 0 286.5 -90.5t104.5 -254.5v-422q2 -139 38 -209v-15h-43q-72 -41 -105.5 -77t-33.5 -82q0 -58 60 -58q29 0 72 18l26 -141q-65 -40 -153 -40t-144 50.5t-56 137.5l2 -1q0 118 112 196q-17 38 -24 83z" />
    <glyph glyph-name="Cacute" unicode="&#x106;" horiz-adv-x="1206" 
d="M848 443h253l1 -5q4 -213 -128.5 -336t-369.5 -123t-384 151t-147 393v260q0 240 144 392t381 152t374 -124t133 -340l-2 -6h-255q0 268 -256 268q-117 0 -186.5 -94.5t-69.5 -245.5v-262q0 -153 73 -247.5t197 -94.5t183 65t59 197zM530 1544l177 279h284l-250 -279
h-211z" />
    <glyph glyph-name="cacute" unicode="&#x107;" horiz-adv-x="961" 
d="M312 497v-28q0 -289 190 -289q71 0 113 41t42 109h239l2 -5q4 -148 -110 -247.5t-286 -99.5q-214 0 -333.5 134.5t-119.5 356.5v27q0 222 119.5 357.5t333.5 135.5q181 0 290.5 -102.5t105.5 -270.5l-1 -5h-240q0 77 -42 126.5t-113 49.5q-190 0 -190 -290zM378 1226
l177 279h284l-250 -279h-211z" />
    <glyph glyph-name="Ccaron" unicode="&#x10c;" horiz-adv-x="1206" 
d="M848 443h253l1 -5q4 -213 -128.5 -336t-369.5 -123t-384 151t-147 393v260q0 240 144 392t381 152t374 -124t133 -340l-2 -6h-255q0 268 -256 268q-117 0 -186.5 -94.5t-69.5 -245.5v-262q0 -153 73 -247.5t197 -94.5t183 65t59 197zM985 1826v-10l-272 -253h-165
l-271 255v8h222l132 -129l132 129h222z" />
    <glyph glyph-name="ccaron" unicode="&#x10d;" horiz-adv-x="961" 
d="M312 497v-28q0 -289 190 -289q71 0 113 41t42 109h239l2 -5q4 -148 -110 -247.5t-286 -99.5q-214 0 -333.5 134.5t-119.5 356.5v27q0 222 119.5 357.5t333.5 135.5q181 0 290.5 -102.5t105.5 -270.5l-1 -5h-240q0 77 -42 126.5t-113 49.5q-190 0 -190 -290zM833 1508v-10
l-272 -253h-165l-271 255v8h222l132 -129l132 129h222z" />
    <glyph glyph-name="Dcaron" unicode="&#x10e;" horiz-adv-x="1198" 
d="M546 1108h-174v-906h174q140 0 220.5 94t80.5 250v219q0 155 -80.5 249t-220.5 94zM559 0h-450v1310h450q243 0 397.5 -152.5t154.5 -394.5v-217q0 -242 -154.5 -394t-397.5 -152zM820 1821v-10l-272 -253h-165l-271 255v8h222l132 -129l132 129h222z" />
    <glyph glyph-name="dcaron" unicode="&#x10f;" horiz-adv-x="1174" 
d="M435 990q143 0 234 -122v534h264v-1404h-226l-22 119q-94 -138 -253 -138q-178 0 -278 129.5t-100 349.5l1 19q0 235 100 374t280 139zM500 183q112 0 167 90v415q-56 97 -166 97q-94 0 -140 -82t-46 -226l1 -19q0 -275 184 -275z" />
    <glyph glyph-name="Dcroat" unicode="&#x110;" horiz-adv-x="1225" 
d="M610 743v-165h-197v-361h131q160 0 243.5 104.5t83.5 303.5v61q0 201 -82 303.5t-243 102.5h-133v-349h197zM550 0h-407v578h-162v165h162v567h403q175 0 310.5 -77.5t212 -222t76.5 -325.5v-60q0 -183 -75 -324.5t-212 -221.5q-140 -79 -308 -79z" />
    <glyph glyph-name="dcroat" unicode="&#x111;" horiz-adv-x="1066" 
d="M936 1095v-1097h-235l-13 104q-95 -122 -249 -122q-174 0 -277 136t-103 371t102.5 369t279.5 134q142 0 235 -106v211h-227v165h227v120h261v-120h141l-1 -165h-141zM508 778q-188 0 -188 -305q0 -138 47.5 -210t138.5 -72q120 0 170 101v385q-48 101 -168 101z" />
    <glyph glyph-name="Emacron" unicode="&#x112;" horiz-adv-x="1037" 
d="M916 779v-203h-543v-374h635v-202h-898v1310h896v-202h-633v-329h543zM902 1751v-150h-657v150h657z" />
    <glyph glyph-name="emacron" unicode="&#x113;" horiz-adv-x="996" 
d="M659 603q0 86 -39.5 134.5t-114.5 48.5t-118 -54t-53 -148l3 -5h322v24zM526 -22q-210 0 -336.5 133t-126.5 345v36q0 145 53.5 258t154 176.5t232.5 63.5q196 0 305 -117.5t109 -322.5v-143h-581l-2 -6q7 -99 65 -159.5t148 -60.5t147 16.5t130 56.5l71 -162v-1
q-63 -52 -158.5 -82.5t-210.5 -30.5zM816 1439v-150h-657v150h657z" />
    <glyph glyph-name="Edotaccent" unicode="&#x116;" horiz-adv-x="1037" 
d="M915 779v-203h-543v-374h635v-202h-898v1310h896v-202h-633v-329h543zM497 1601.5q-36 33.5 -36 88t36.5 89.5t97.5 35t97 -34.5t36 -89.5t-36 -88.5t-97.5 -33.5t-97.5 33.5z" />
    <glyph glyph-name="edotaccent" unicode="&#x117;" horiz-adv-x="996" 
d="M659 603q0 86 -39.5 134.5t-114.5 48.5t-118 -54t-53 -148l3 -5h322v24zM526 -22q-210 0 -336.5 133t-126.5 345v36q0 145 53.5 258t154 176.5t232.5 63.5q196 0 305 -117.5t109 -322.5v-143h-581l-2 -6q7 -99 65 -159.5t148 -60.5t147 16.5t130 56.5l71 -162v-1
q-63 -52 -158.5 -82.5t-210.5 -30.5zM412 1288.5q-36 33.5 -36 88t36.5 89.5t97.5 35t97 -34.5t36 -89.5t-36 -88.5t-97.5 -33.5t-97.5 33.5z" />
    <glyph glyph-name="Eogonek" unicode="&#x118;" horiz-adv-x="1037" 
d="M905 737v-210h-518v-351h608v-217h-136q-72 -41 -105.5 -77t-33.5 -82q0 -58 59 -58q30 0 72 18l27 -141q-65 -40 -153 -40t-144 50.5t-56 137.5q0 114 104 191h-512v1310h877v-218h-607v-313h518z" />
    <glyph glyph-name="eogonek" unicode="&#x119;" horiz-adv-x="996" 
d="M646 694.5q-45 46.5 -125 46.5t-128 -51.5t-62 -149.5h362v20q-2 88 -47 134.5zM631 -171q0 -58 59 -58q30 0 72 18l26 -141q-64 -40 -152 -40t-144 50.5t-56 138t56 149.5q-194 17 -310.5 146t-116.5 330v28q0 148 56.5 263t161 177.5t236.5 62.5q203 0 316.5 -126
t113.5 -358v-106h-620q12 -96 75.5 -153t160.5 -57q153 0 235 109l128 -145q-55 -80 -158 -129q-72 -41 -105.5 -77t-33.5 -82z" />
    <glyph glyph-name="Ecaron" unicode="&#x11a;" horiz-adv-x="1037" 
d="M916 779v-203h-543v-374h635v-202h-898v1310h896v-202h-633v-329h543zM929 1821v-10l-272 -253h-165l-271 255v8h222l132 -129l132 129h222z" />
    <glyph glyph-name="ecaron" unicode="&#x11b;" horiz-adv-x="996" 
d="M659 603q0 86 -39.5 134.5t-114.5 48.5t-118 -54t-53 -148l3 -5h322v24zM526 -22q-210 0 -336.5 133t-126.5 345v36q0 145 53.5 258t154 176.5t232.5 63.5q196 0 305 -117.5t109 -322.5v-143h-581l-2 -6q7 -99 65 -159.5t148 -60.5t147 16.5t130 56.5l71 -162v-1
q-63 -52 -158.5 -82.5t-210.5 -30.5zM843 1508v-10l-272 -253h-165l-271 255v8h222l132 -129l132 129h222z" />
    <glyph glyph-name="Gbreve" unicode="&#x11e;" horiz-adv-x="1256" 
d="M1120 671v-494q-66 -86 -192 -142t-303 -56q-242 0 -393.5 149t-151.5 388v274q0 239 146 388t379.5 149t362.5 -114t132 -309l-2 -5h-247q-9 107 -69 166.5t-176 59.5t-190 -92.5t-74 -240.5v-276q0 -151 76.5 -243t206.5 -92q165 0 232 65v243h-232v182h495zM767 1814
h186q0 -119 -86 -193t-226 -74t-225.5 73t-85.5 194h185q0 -56 33.5 -87t93 -31t92.5 31t33 87z" />
    <glyph glyph-name="gbreve" unicode="&#x11f;" horiz-adv-x="1052" 
d="M439 948q158 0 250 -142l21 124h227v-969q0 -190 -124 -294t-348 -104q-160 0 -310 76l49 196q121 -59 258 -59q109 0 159.5 44.5t50.5 141.5v88q-89 -113 -237 -113q-178 0 -279 130t-101 349l2 19q0 235 101 374t281 139zM502 142q117 0 169 86v423q-54 93 -168 93
q-94 0 -140 -82t-46 -227l1 -19q0 -274 184 -274zM629 1496h186q0 -119 -86 -193t-226 -74t-225.5 73t-85.5 194h185q0 -56 33.5 -87t93 -31t92.5 31t33 87z" />
    <glyph glyph-name="uni0122" unicode="&#x122;" horiz-adv-x="1256" 
d="M1120 671v-494q-66 -86 -192 -142t-303 -56q-242 0 -393.5 149t-151.5 388v274q0 239 146 388t379.5 149t362.5 -114t132 -309l-2 -5h-247q-9 107 -69 166.5t-176 59.5t-190 -92.5t-74 -240.5v-276q0 -151 76.5 -243t206.5 -92q165 0 232 65v243h-232v182h495z" />
    <glyph glyph-name="uni0123" unicode="&#x123;" horiz-adv-x="1052" 
d="M439 948q158 0 250 -142l21 124h227v-969q0 -190 -124 -294t-348 -104q-160 0 -310 76l49 196q121 -59 258 -59q109 0 159.5 44.5t50.5 141.5v88q-89 -113 -237 -113q-178 0 -279 130t-101 349l2 19q0 235 101 374t281 139zM502 142q117 0 169 86v423q-54 93 -168 93
q-94 0 -140 -82t-46 -227l1 -19q0 -274 184 -274z" />
    <glyph glyph-name="Imacron" unicode="&#x12a;" horiz-adv-x="537" 
d="M409 1310v-1310h-262v1310h262zM586 1751v-150h-657v150h657z" />
    <glyph glyph-name="imacron" unicode="&#x12b;" horiz-adv-x="505" 
d="M389 974v-974h-260v974h260zM568 1423v-150h-657v150h657z" />
    <glyph glyph-name="Iogonek" unicode="&#x12e;" horiz-adv-x="537" 
d="M371 -380q-65 -40 -153 -40t-144 50.5t-56 137.5q0 142 171 232h-52v1310h262v-1310h-146l99 -40q-72 -41 -105.5 -77t-33.5 -82q0 -58 59 -58q30 0 72 18z" />
    <glyph glyph-name="iogonek" unicode="&#x12f;" horiz-adv-x="489" 
d="M204 -422v1q-92 0 -148 50.5t-56 137.5q0 143 175 233h-61v974h263v-974h-147l104 -42q-72 -41 -105.5 -77t-33.5 -82q0 -58 59 -58q30 0 72 18l27 -141q-65 -40 -149 -40zM377 1404v-197h-263v197h263z" />
    <glyph glyph-name="Idotaccent" unicode="&#x130;" horiz-adv-x="537" 
d="M387 1310v-1310h-262v1310h262zM159 1601.5q-36 33.5 -36 88t36.5 89.5t97.5 35t97 -34.5t36 -89.5t-36 -88.5t-97.5 -33.5t-97.5 33.5z" />
    <glyph glyph-name="dotlessi" unicode="&#x131;" horiz-adv-x="505" 
d="M381 974v-974h-260v974h260z" />
    <glyph glyph-name="uni0136" unicode="&#x136;" horiz-adv-x="1170" 
d="M372 547v-547h-263v1310h263v-535h115l347 535h321l-441 -610l476 -700h-320l-352 547h-146z" />
    <glyph glyph-name="uni0137" unicode="&#x137;" horiz-adv-x="985" 
d="M353 408v-408h-263v1404h263v-796h64l226 366h305l-312 -441l359 -533h-301l-269 408h-72z" />
    <glyph glyph-name="Lacute" unicode="&#x139;" horiz-adv-x="998" 
d="M372 1310v-1108h583v-202h-846v1310h263zM124 1536l177 279h284l-250 -279h-211z" />
    <glyph glyph-name="lacute" unicode="&#x13a;" horiz-adv-x="489" 
d="M366 1404v-1404h-263v1404h263zM111 1618l177 279h284l-250 -279h-211z" />
    <glyph glyph-name="uni013B" unicode="&#x13b;" horiz-adv-x="998" 
d="M372 1310v-1108h583v-202h-846v1310h263z" />
    <glyph glyph-name="uni013C" unicode="&#x13c;" horiz-adv-x="489" 
d="M366 1404v-1404h-263v1404h263z" />
    <glyph glyph-name="Lcaron" unicode="&#x13d;" horiz-adv-x="998" 
d="M372 1310v-1108h583v-202h-846v1310h263z" />
    <glyph glyph-name="lcaron" unicode="&#x13e;" horiz-adv-x="624" 
d="M364 1404v-1404h-263v1404h263z" />
    <glyph glyph-name="Lslash" unicode="&#x141;" horiz-adv-x="1028" 
d="M417 1310v-504l193 55v-149l-193 -56v-439h573v-217h-843v578l-121 -34v149l121 34v583h270z" />
    <glyph glyph-name="lslash" unicode="&#x142;" horiz-adv-x="563" 
d="M406 1382v-563l128 42v-149l-128 -42v-670h-260v583l-119 -39v149l119 40v649h260z" />
    <glyph glyph-name="Nacute" unicode="&#x143;" horiz-adv-x="1301" 
d="M1170 1310v-1310h-262l-529 896l-6 -1v-895h-263v1310h263l529 -894l6 1v893h262zM565 1536l177 279h284l-250 -279h-211z" />
    <glyph glyph-name="nacute" unicode="&#x144;" horiz-adv-x="1032" 
d="M622 992q151 0 232 -95t81 -289v-608h-264v608q0 96 -38.5 138t-120.5 42q-104 0 -164 -81v-707h-263v974l246 -1l12 -140q101 159 279 159zM416 1226l177 279h284l-250 -279h-211z" />
    <glyph glyph-name="uni0145" unicode="&#x145;" horiz-adv-x="1301" 
d="M1169 1310v-1310h-262l-529 896l-6 -1v-895h-263v1310h263l529 -894l6 1v893h262z" />
    <glyph glyph-name="uni0146" unicode="&#x146;" horiz-adv-x="1032" 
d="M622 992q151 0 232 -95t81 -289v-608h-264v608q0 96 -38.5 138t-120.5 42q-104 0 -164 -81v-707h-263v974l246 -1l12 -140q101 159 279 159z" />
    <glyph glyph-name="Ncaron" unicode="&#x147;" horiz-adv-x="1301" 
d="M1169 1310v-1310h-262l-529 896l-6 -1v-895h-263v1310h263l529 -894l6 1v893h262zM1019 1818v-10l-272 -253h-165l-271 255v8h222l132 -129l132 129h222z" />
    <glyph glyph-name="ncaron" unicode="&#x148;" horiz-adv-x="1032" 
d="M622 992q151 0 232 -95t81 -289v-608h-264v608q0 96 -38.5 138t-120.5 42q-104 0 -164 -81v-707h-263v974l246 -1l12 -140q101 159 279 159zM871 1508v-10l-272 -253h-165l-271 255v8h222l132 -129l132 129h222z" />
    <glyph glyph-name="Omacron" unicode="&#x14c;" horiz-adv-x="1273" 
d="M906 535v238q0 156 -77 252.5t-210 96.5t-207.5 -95.5t-74.5 -253.5v-238q0 -159 75.5 -255.5t208 -96.5t209 96.5t76.5 255.5zM1168 771v-236q0 -244 -152.5 -400t-396.5 -156q-160 0 -284 71.5t-192 198t-68 286.5v236q0 243 151 399.5t393.5 156.5t395.5 -156.5
t153 -399.5zM977 1748v-150h-657v150h657z" />
    <glyph glyph-name="omacron" unicode="&#x14d;" horiz-adv-x="1042" 
d="M316 494v-19q0 -139 48.5 -216.5t148.5 -77.5t148.5 78t48.5 216v19q0 136 -49 214.5t-148 78.5t-148 -79t-49 -214zM54 475v19q0 223 122.5 359.5t336 136.5t337 -136.5t123.5 -359.5v-19q0 -224 -123 -360t-336.5 -136t-336.5 136t-123 360zM849 1439v-150h-657v150
h657z" />
    <glyph glyph-name="Ohungarumlaut" unicode="&#x150;" horiz-adv-x="1273" 
d="M906 535v238q0 156 -77 252.5t-210 96.5t-207.5 -95.5t-74.5 -253.5v-238q0 -159 75.5 -255.5t208 -96.5t209 96.5t76.5 255.5zM1168 771v-236q0 -244 -152.5 -400t-396.5 -156q-160 0 -284 71.5t-192 198t-68 286.5v236q0 243 151 399.5t393.5 156.5t395.5 -156.5
t153 -399.5zM704 1544l203 271h233l-240 -271h-196zM387 1544l168 271h229l-206 -271h-191z" />
    <glyph glyph-name="ohungarumlaut" unicode="&#x151;" horiz-adv-x="1042" 
d="M316 494v-19q0 -139 48.5 -216.5t148.5 -77.5t148.5 78t48.5 216v19q0 136 -49 214.5t-148 78.5t-148 -79t-49 -214zM54 475v19q0 223 122.5 359.5t336 136.5t337 -136.5t123.5 -359.5v-19q0 -224 -123 -360t-336.5 -136t-336.5 136t-123 360zM576 1234l203 271h233
l-240 -271h-196zM259 1234l168 271h229l-206 -271h-191z" />
    <glyph glyph-name="OE" unicode="&#x152;" horiz-adv-x="1785" 
d="M345 516q0 -158 74.5 -242.5t210.5 -84.5q84 0 178 12v903q-109 13 -180 13q-136 0 -209.5 -83t-73.5 -239v-279zM630 -20q-158 0 -281 65.5t-192 187t-73 272.5v285q0 157 68 279t191.5 189.5t285.5 67.5q111 0 262 -18h796v-218h-606v-313h517v-211h-517v-351h607
l-2 -217h-797q-151 -18 -259 -18z" />
    <glyph glyph-name="oe" unicode="&#x153;" horiz-adv-x="1662" 
d="M535 990q208 0 333 -134q119 135 314 134.5t304.5 -116.5t109.5 -329v-142h-589q15 -103 74 -158.5t144.5 -55.5t145 15t132.5 55l71 -168q-65 -52 -163 -81.5t-206 -29.5q-210 0 -335 134q-82 -88 -208.5 -120t-253 0.5t-208.5 120.5q-124 134 -124 367l2 12
q0 146 55 258.5t158.5 175t243.5 62.5zM533 779q-197 0 -197 -304q0 -140 51 -213t148 -73q198 0 198 305q0 138 -52 211.5t-148 73.5zM1338 604h1q0 87 -41 131t-114 44t-117.5 -51t-58.5 -148h330v24z" />
    <glyph glyph-name="Racute" unicode="&#x154;" horiz-adv-x="1176" 
d="M373 -1h-263v1310h495q225 0 351 -102t126 -285q0 -199 -209 -291q218 -65 218 -312v-97q0 -63 16 -119.5t49 -83.5v-19h-271q-57 46 -57 224v93q0 98 -53.5 152.5t-151.5 54.5l-250 -1v-524zM373 1108v-382h227q220 0 220 186q0 92 -55 144t-160 52h-232zM437 1536
l177 279h284l-250 -279h-211z" />
    <glyph glyph-name="racute" unicode="&#x155;" horiz-adv-x="672" 
d="M353 0h-262v974h244l11 -144q75 162 215 162q34 0 70 -11l-28 -233l-96 3q-111 0 -154 -93v-658zM251 1226l177 279h284l-250 -279h-211z" />
    <glyph glyph-name="uni0156" unicode="&#x156;" horiz-adv-x="1176" 
d="M372 -1h-263v1310h495q225 0 351 -102t126 -285q0 -199 -209 -291q218 -65 218 -312v-97q0 -63 16 -119.5t49 -83.5v-19h-271q-57 46 -57 224v93q0 98 -53.5 152.5t-151.5 54.5l-250 -1v-524zM372 1108v-382h227q220 0 220 186q0 92 -55 144t-160 52h-232z" />
    <glyph glyph-name="uni0157" unicode="&#x157;" horiz-adv-x="672" 
d="M352 0h-262v974h244l11 -144q75 162 215 162q34 0 70 -11l-28 -233l-96 3q-111 0 -154 -93v-658z" />
    <glyph glyph-name="Rcaron" unicode="&#x158;" horiz-adv-x="1176" 
d="M372 -1h-263v1310h495q225 0 351 -102t126 -285q0 -199 -209 -291q218 -65 218 -312v-97q0 -63 16 -119.5t49 -83.5v-19h-271q-57 46 -57 224v93q0 98 -53.5 152.5t-151.5 54.5l-250 -1v-524zM372 1108v-382h227q220 0 220 186q0 92 -55 144t-160 52h-232zM891 1818v-10
l-272 -253h-165l-271 255v8h222l132 -129l132 129h222z" />
    <glyph glyph-name="rcaron" unicode="&#x159;" horiz-adv-x="672" 
d="M361 0h-262v974h244l11 -144q75 162 215 162q34 0 70 -11l-28 -233l-96 3q-111 0 -154 -93v-658zM715 1508v-10l-272 -253h-165l-271 255v8h222l132 -129l132 129h222z" />
    <glyph glyph-name="Sacute" unicode="&#x15a;" horiz-adv-x="1133" 
d="M602 178h2q106 0 163.5 43.5t57.5 119t-52.5 121t-188.5 86.5q-247 71 -360.5 164.5t-113.5 252t137 260.5t351.5 102t350.5 -113.5t131 -284.5l-1 -5h-255q0 93 -61.5 148t-167.5 55t-164.5 -45.5t-58.5 -116t59.5 -113t215.5 -91.5q223 -62 331.5 -161.5t108.5 -262.5
t-131.5 -260.5t-352.5 -97.5q-145 0 -265 48.5t-193 145.5t-71 225l2 6h255q0 -226 271 -226zM492 1536l177 279h284l-250 -279h-211z" />
    <glyph glyph-name="sacute" unicode="&#x15b;" horiz-adv-x="948" 
d="M472 159v-3q72 0 110.5 28.5t38.5 76.5t-43.5 78.5t-153.5 55.5q-178 36 -263 105t-85 192.5t106.5 209.5t287 86t291 -86.5t105.5 -221.5l-2 -5h-254q0 60 -38 96t-104.5 36t-103.5 -30.5t-37 -78.5t40 -75.5t153 -48.5q184 -37 269.5 -107t85.5 -196.5t-112.5 -209
t-299.5 -82.5t-302.5 95.5t-109.5 227.5l1 6h241q4 -149 179 -149zM374 1226l177 279h284l-250 -279h-211z" />
    <glyph glyph-name="Scaron" unicode="&#x160;" horiz-adv-x="1133" 
d="M602 178h2q106 0 163.5 43.5t57.5 119t-52.5 121t-188.5 86.5q-247 71 -360.5 164.5t-113.5 252t137 260.5t351.5 102t350.5 -113.5t131 -284.5l-1 -5h-255q0 93 -61.5 148t-167.5 55t-164.5 -45.5t-58.5 -116t59.5 -113t215.5 -91.5q223 -62 331.5 -161.5t108.5 -262.5
t-131.5 -260.5t-352.5 -97.5q-145 0 -265 48.5t-193 145.5t-71 225l2 6h255q0 -226 271 -226zM947 1818v-10l-272 -253h-165l-271 255v8h222l132 -129l132 129h222z" />
    <glyph glyph-name="scaron" unicode="&#x161;" horiz-adv-x="948" 
d="M472 159v-3q72 0 110.5 28.5t38.5 76.5t-43.5 78.5t-153.5 55.5q-178 36 -263 105t-85 192.5t106.5 209.5t287 86t291 -86.5t105.5 -221.5l-2 -5h-254q0 60 -38 96t-104.5 36t-103.5 -30.5t-37 -78.5t40 -75.5t153 -48.5q184 -37 269.5 -107t85.5 -196.5t-112.5 -209
t-299.5 -82.5t-302.5 95.5t-109.5 227.5l1 6h241q4 -149 179 -149zM829 1508v-10l-272 -253h-165l-271 255v8h222l132 -129l132 129h222z" />
    <glyph glyph-name="Tcaron" unicode="&#x164;" horiz-adv-x="1140" 
d="M1024 1310v-202h-371v-1108h-263v1108h-369v202h1003zM930 1818v-10l-272 -253h-165l-271 255v8h222l132 -129l132 129h222z" />
    <glyph glyph-name="tcaron" unicode="&#x165;" horiz-adv-x="659" 
d="M149 1210h263v-238h164v-185h-164v-496q0 -105 87 -105q31 0 70 10l22 -190q-83 -27 -159 -27q-283 0 -283 311v497h-142v185h142v238z" />
    <glyph glyph-name="Umacron" unicode="&#x16a;" horiz-adv-x="1213" 
d="M884 1308h263v-869q0 -218 -143 -339t-383.5 -121t-382.5 120.5t-142 339.5v869h264v-869q0 -128 67.5 -193t193.5 -65t194.5 64.5t68.5 193.5v869zM937 1748v-150h-657v150h657z" />
    <glyph glyph-name="umacron" unicode="&#x16b;" horiz-adv-x="1031" 
d="M412 -21q-158 0 -242.5 100t-84.5 305v588h261v-590q0 -105 35 -152t108 -47q123 0 181 80v709h263v-974h-224l-23 140q-94 -159 -274 -159zM841 1439v-150h-657v150h657z" />
    <glyph glyph-name="Uring" unicode="&#x16e;" horiz-adv-x="1213" 
d="M884 1307h263v-869q0 -218 -143 -339t-383.5 -121t-382.5 120.5t-142 339.5v869h264v-869q0 -128 67.5 -193t193.5 -65t194.5 64.5t68.5 193.5v869zM625 1807q-43 0 -70 -28t-27 -69.5t26.5 -69t70.5 -27.5t70.5 27.5t26.5 69t-27 69.5t-70 28zM625 1529v-1
q-87 0 -144 52.5t-57 129.5t58 130.5t142.5 53.5t143 -52.5t58.5 -130.5t-57.5 -130t-143.5 -52z" />
    <glyph glyph-name="uring" unicode="&#x16f;" horiz-adv-x="1031" 
d="M412 -22q-158 0 -242.5 100t-84.5 305v588h261v-590q0 -105 35 -152t108 -47q123 0 181 80v709h263v-974h-224l-23 140q-94 -159 -274 -159zM529 1497q-43 0 -70 -28t-27 -69.5t26.5 -69t70.5 -27.5t70.5 27.5t26.5 69t-27 69.5t-70 28zM529 1219v-1q-87 0 -144 52.5
t-57 129.5t58 130.5t142.5 53.5t143 -52.5t58.5 -130.5t-57.5 -130t-143.5 -52z" />
    <glyph glyph-name="Uhungarumlaut" unicode="&#x170;" horiz-adv-x="1213" 
d="M884 1308h263v-869q0 -218 -143 -339t-383.5 -121t-382.5 120.5t-142 339.5v869h264v-869q0 -128 67.5 -193t193.5 -65t194.5 64.5t68.5 193.5v869zM664 1544l203 271h233l-240 -271h-196zM347 1544l168 271h229l-206 -271h-191z" />
    <glyph glyph-name="uhungarumlaut" unicode="&#x171;" horiz-adv-x="1031" 
d="M412 -21q-158 0 -242.5 100t-84.5 305v588h261v-590q0 -105 35 -152t108 -47q123 0 181 80v709h263v-974h-224l-23 140q-94 -159 -274 -159zM568 1234l203 271h233l-240 -271h-196zM251 1234l168 271h229l-206 -271h-191z" />
    <glyph glyph-name="Uogonek" unicode="&#x172;" horiz-adv-x="1213" 
d="M838 1275h271v-865q0 -145 -61.5 -249t-172.5 -158q-53 -33 -78 -64.5t-25 -72.5q0 -58 60 -58q28 0 72 18l26 -141q-65 -40 -153 -40t-144 50.5t-56 137.5q0 66 31 113q-236 0 -370 123.5t-134 344.5v861h270v-865q0 -247 233 -247q227 0 231 240v872z" />
    <glyph glyph-name="uogonek" unicode="&#x173;" horiz-adv-x="1031" 
d="M935 -42h-29q-71 -41 -104.5 -77t-33.5 -82q0 -58 59 -58q30 0 72 18l26 -141q-65 -40 -152.5 -40t-144 50.5t-56.5 137.5q0 120 116 200l-6 91q-95 -117 -260 -117q-326 0 -328 354v638h260v-629q0 -153 138 -153q132 0 182 92v690h261v-974z" />
    <glyph glyph-name="Ydieresis" unicode="&#x178;" horiz-adv-x="1139" 
d="M708 0h-262v474l-441 836h288l286 -603h5l286 603h288l-450 -849v-461zM456.5 1581.5q-34.5 -32.5 -89 -32.5t-89.5 32t-35 81.5t34.5 82t89.5 32.5t89.5 -33.5t34.5 -81.5t-34.5 -80.5zM805 1548q-55 0 -89.5 33t-34.5 81t35.5 81.5t88.5 33.5t89 -33t36 -81.5
t-35 -81.5t-90 -33z" />
    <glyph glyph-name="Zacute" unicode="&#x179;" horiz-adv-x="1117" 
d="M1021 202v-202h-959v137l623 971h-622v202h943v-131l-626 -977h641zM473 1536l177 279h284l-250 -279h-211z" />
    <glyph glyph-name="zacute" unicode="&#x17a;" horiz-adv-x="938" 
d="M870 202v-202h-809v155l463 615h-449v204h779v-150l-467 -622h483zM366 1226l177 279h284l-250 -279h-211z" />
    <glyph glyph-name="Zdotaccent" unicode="&#x17b;" horiz-adv-x="1117" 
d="M1021 202v-202h-959v137l623 971h-622v202h943v-131l-626 -977h641zM497 1598.5q-36 33.5 -36 88t36.5 89.5t97.5 35t97 -34.5t36 -89.5t-36 -88.5t-97.5 -33.5t-97.5 33.5z" />
    <glyph glyph-name="zdotaccent" unicode="&#x17c;" horiz-adv-x="938" 
d="M870 202v-202h-809v155l463 615h-449v204h779v-150l-467 -622h483zM390 1288.5q-36 33.5 -36 88t36.5 89.5t97.5 35t97 -34.5t36 -89.5t-36 -88.5t-97.5 -33.5t-97.5 33.5z" />
    <glyph glyph-name="Zcaron" unicode="&#x17d;" horiz-adv-x="1117" 
d="M1021 202v-202h-959v137l623 971h-622v202h943v-131l-626 -977h641zM928 1818v-10l-272 -253h-165l-271 255v8h222l132 -129l132 129h222z" />
    <glyph glyph-name="zcaron" unicode="&#x17e;" horiz-adv-x="938" 
d="M870 202v-202h-809v155l463 615h-449v204h779v-150l-467 -622h483zM821 1508v-10l-272 -253h-165l-271 255v8h222l132 -129l132 129h222z" />
    <glyph glyph-name="florin" unicode="&#x192;" horiz-adv-x="665" 
d="M613 930v-191h-186l-1 -825q0 -169 -86 -260t-243 -91q-62 0 -129 15l14 206q55 -19 114 -5q34 8 47 30q23 37 23 103v827h-145v191h145v90q1 162 94.5 250t263.5 88q52 0 144 -19l-22 -202q-32 9 -89 9q-130 0 -130 -135v-81h186z" />
    <glyph glyph-name="uni021A" unicode="&#x21a;" horiz-adv-x="1140" 
d="M1024 1310v-202h-371v-1108h-263v1108h-369v202h1003z" />
    <glyph glyph-name="uni021B" unicode="&#x21b;" horiz-adv-x="623" 
d="M149 1210h263v-238h164v-185h-164v-496q0 -105 87 -105q31 0 70 10l22 -190q-83 -27 -159 -27q-283 0 -283 311v497h-142v185h142v238z" />
    <glyph glyph-name="uni02BC" unicode="&#x2bc;" horiz-adv-x="650" 
d="M511 1497l15 -31l-163 -458h-208l95 489h261z" />
    <glyph glyph-name="circumflex" unicode="&#x2c6;" horiz-adv-x="914" 
d="M798 1244h-207l-138 131l-139 -131h-203v14l266 249h151l270 -252v-11z" />
    <glyph glyph-name="caron" unicode="&#x2c7;" horiz-adv-x="868" 
d="M785 1508v-10l-272 -253h-165l-271 255v8h222l132 -129l132 129h222z" />
    <glyph glyph-name="uni02C9" unicode="&#x2c9;" horiz-adv-x="923" 
d="M775 1440v-150h-657v150h657z" />
    <glyph glyph-name="breve" unicode="&#x2d8;" horiz-adv-x="818" 
d="M532 1496h186q0 -119 -86 -193t-226 -74t-225.5 73t-85.5 194h185q0 -56 33.5 -87t93 -31t92.5 31t33 87z" />
    <glyph glyph-name="dotaccent" unicode="&#x2d9;" horiz-adv-x="489" 
d="M142 1271.5q-36 33.5 -36 88t36.5 89.5t97.5 35t97 -34.5t36 -89.5t-36 -88.5t-97.5 -33.5t-97.5 33.5z" />
    <glyph glyph-name="ring" unicode="&#x2da;" horiz-adv-x="614" 
d="M308 1402q-43 0 -70 -28t-27 -69.5t26.5 -69t70.5 -27.5t70.5 27.5t26.5 69t-27 69.5t-70 28zM308 1124v-1q-87 0 -144 52.5t-57 129.5t58 130.5t142.5 53.5t143 -52.5t58.5 -130.5t-57.5 -130t-143.5 -52z" />
    <glyph glyph-name="ogonek" unicode="&#x2db;" horiz-adv-x="554" 
d="M225 -201q0 -58 59 -58q30 0 72 18l27 -141q-65 -40 -153 -40t-144 50.5t-56 137.5q0 153 200 246l134 -54q-72 -41 -105.5 -77t-33.5 -82z" />
    <glyph glyph-name="tilde" unicode="&#x2dc;" horiz-adv-x="887" 
d="M582 1256q-36 0 -63 8t-72 32.5t-66 31t-50.5 6.5t-50.5 -23t-21 -63l-152 9q0 101 59 170.5t145 69.5q28 0 51.5 -7t75 -32t72.5 -31t50 -6t51 22.5t22 62.5l153 -11q0 -101 -59 -170t-145 -69z" />
    <glyph glyph-name="hungarumlaut" unicode="&#x2dd;" horiz-adv-x="756" 
d="M368 1234l203 271h233l-240 -271h-196zM51 1234l168 271h229l-206 -271h-191z" />
    <glyph glyph-name="pi" unicode="&#x3c0;" horiz-adv-x="1186" 
d="M977 774v-471q0 -55 21 -78t68 -23t85 8v-198q-72 -23 -156 -23q-276 0 -280 276v509h-249v-775h-260v775h-159v199h1082l2 -199h-154z" />
    <glyph glyph-name="uni0900" unicode="&#x900;" 
d="M-703 1381v202h214v-202h-214zM-237 1564q-155 126 -363 126t-342 -119l-37 179q57 64 155.5 100.5t216.5 36.5t223.5 -37.5t182.5 -103.5z" />
    <glyph glyph-name="uni0901" unicode="&#x901;" 
d="M-913 1707q155 -126 363 -126t342 119l37 -179q-57 -64 -155.5 -100.5t-216.5 -36.5t-223.5 37.5t-182.5 103.5zM-447 1890v-202h-214v202h214z" />
    <glyph glyph-name="uni0902" unicode="&#x902;" 
d="M-208 1672v-225h-237v225h237z" />
    <glyph glyph-name="uni0903" unicode="&#x903;" horiz-adv-x="581" 
d="M392 372v-232h-263v232h263zM392 973v-232h-263v232h263z" />
    <glyph glyph-name="uni0904" unicode="&#x904;" horiz-adv-x="1489" 
d="M810 433q0 -173 -104 -272.5t-272 -99.5q-103 0 -185 19t-173 63l38 201q88 -37 146 -52.5t127 -15.5t114 45.5t45 115t-37.5 114.5t-113.5 56q-81 -16 -186 -16v204q160 0 232 48.5t72 126.5q0 55 -37.5 91t-107.5 36t-196 -57l-36 194q67 34 131 49.5t150 15.5
q162 0 261 -86t99 -230q0 -162 -125 -266q18 -9 42 -30h335v409h-171v192h189v27q0 105 -88 105q-19 0 -94.5 -13t-130 -13t-122 27t-123.5 77l73 166q86 -67 193 -67q33 0 136.5 23.5t151.5 23.5q117 0 184 -76.5t67 -224.5v-55h225v-192h-225v-1096h-263l-2 482h-222
q3 -48 3 -49z" />
    <glyph glyph-name="uni0905" unicode="&#x905;" horiz-adv-x="1489" 
d="M1031 0v482h-222q3 -48 3 -49q0 -173 -104 -272.5t-272 -99.5q-103 0 -185 19t-173 63l38 201q88 -37 146 -52.5t127 -15.5t114 45.5t45 115t-37.5 114.5t-113.5 56q-81 -16 -186 -16v204q160 0 232 48.5t72 126.5q0 55 -37.5 91t-107.5 36t-196 -57l-36 194
q67 34 131 49.5t150 15.5q162 0 261 -86t99 -230q0 -162 -125 -266q18 -9 42 -30h335v409h-171v192h659v-192h-225v-1096h-263z" />
    <glyph glyph-name="uni0906" unicode="&#x906;" horiz-adv-x="2078" 
d="M1031 0v482h-222q3 -48 3 -49q0 -173 -104 -272.5t-272 -99.5q-103 0 -185 19t-173 63l38 201q88 -37 146 -52.5t127 -15.5t114 45.5t45 115t-37.5 114.5t-113.5 56q-81 -16 -186 -16v204q160 0 232 48.5t72 126.5q0 55 -37.5 91t-107.5 36t-196 -57l-36 194
q67 34 131 49.5t150 15.5q162 0 261 -86t99 -230q0 -162 -125 -266q18 -9 42 -30h335v409h-171v192h1248v-192h-225v-1096h-263v1096h-326v-1096h-263z" />
    <glyph glyph-name="uni0907" unicode="&#x907;" horiz-adv-x="1088" 
d="M391 6q-123 0 -196 42.5t-73 112t45.5 114.5t122.5 45q120 0 236 -109h2q91 0 145 38.5t54 90.5q0 101 -113 103q-67 2 -116 -12.5t-103 -50.5h-28q-116 40 -196 130t-80 199.5t90 178.5t266 69h187v139h-664v192h1148v-192h-225v-333h-434q-59 0 -88.5 -24.5
t-29.5 -65.5t38 -74q115 47 250 47q163 0 261.5 -86.5t98.5 -217t-88.5 -214t-249.5 -103.5l148 -184l-199 -95l-208 260h-1z" />
    <glyph glyph-name="uni0908" unicode="&#x908;" horiz-adv-x="1088" 
d="M386 7q-123 0 -196 42.5t-73 112t45.5 114.5t122.5 45q120 0 236 -109h2q91 0 145 38.5t54 89.5q0 102 -113 104q-67 2 -116 -12.5t-103 -50.5h-28q-116 40 -196 130t-80 199.5t90 178.5t266 69h187v139h-664v192h653q-50 133 -49 238q0 137 90 219t246 82q106 0 201 -36
l-20 -162q-60 15 -106 15q-70 1 -115 -47t-45 -130.5t33 -179.5h260v-192h-225v-333h-434q-59 0 -88.5 -24.5t-29.5 -65.5t38 -74q115 47 250 47q163 0 261.5 -86.5t98.5 -217t-88.5 -214t-249.5 -103.5l148 -184l-199 -95l-208 261h-1z" />
    <glyph glyph-name="uni0909" unicode="&#x909;" horiz-adv-x="987" 
d="M444 33v-1q-107 0 -195 20t-182 69l31 206q148 -81 290 -81q108 0 166 45.5t58 118t-45 121.5t-129 63q-90 -15 -179 -15h-44v206h33q169 0 228 49q29 24 40.5 53t11.5 70q0 64 -43.5 102t-125.5 38h-389v192h1047v-192h-270q38 -65 38 -153q0 -135 -89 -227
q81 -54 128 -135t47 -174q0 -179 -113.5 -277t-313.5 -98z" />
    <glyph glyph-name="uni090A" unicode="&#x90a;" horiz-adv-x="1451" 
d="M443 32q-107 0 -195 20t-182 69l31 206q148 -81 290 -81q108 0 166 45.5t58 118t-45 121.5t-129 63q-90 -15 -179 -15h-44v206h33q169 0 227 49q30 24 41.5 53t11.5 70q0 64 -43.5 102t-125.5 38h-389v192h1511v-192h-734q38 -65 38 -147t-30 -148q105 34 211 34
q172 0 286.5 -107.5t114.5 -278.5q0 -191 -126 -350l-250 49q114 159 114 301q0 78 -45.5 124.5t-111.5 46.5t-128 -31q52 -83 52 -182l-1 -1q0 -179 -113.5 -277t-313.5 -98z" />
    <glyph glyph-name="uni090B" unicode="&#x90b;" horiz-adv-x="1591" 
d="M664 0v358l-388 -245l-140 203l479 284q-118 72 -177.5 95t-119.5 23q-121 0 -252 -69l-51 223q127 73 296 73q136 0 314 -101l39 -23v274h-694v192h1651v-192h-695v-366q88 7 153 29q-27 44 -27 95t46.5 85t135 34t157 -45.5t68.5 -112.5q0 -39 -15 -68q-13 -24 -52 -63
q110 -138 110 -280.5t-84.5 -218t-228.5 -75.5q-67 0 -112 8l-25 181q21 -3 79 -3t94.5 32t36.5 85q0 76 -58 154q-128 -51 -278 -62v-504h-262z" />
    <glyph glyph-name="uni090C" unicode="&#x90c;" horiz-adv-x="1483" 
d="M1264 -89v-2q-155 0 -244.5 74t-89.5 197q0 95 57.5 161t160.5 86q3 48 3 54q0 91 -34 139.5t-101.5 48.5t-108.5 -65.5t-41 -191.5v-143h-256v161q0 16 2 46q-12 88 -56.5 136t-106 48t-100.5 -51t-39 -141.5t38.5 -178.5t118.5 -197l-209 -76q-88 102 -143.5 231
t-55.5 254q0 183 97 286.5t257 103.5q186 0 305 -128q107 128 280 128q18 0 26 -1v205h-1054v192h1543v-192h-225v-312q112 -109 112 -301q0 -87 -36 -206h-72q-66 0 -101.5 -28t-35.5 -74t33 -70.5t84 -24.5q83 0 148 29l27 -162q-32 -15 -85 -25t-98 -10z" />
    <glyph glyph-name="uni090D" unicode="&#x90d;" horiz-adv-x="1163" 
d="M142 697v399h-172v192h1223v-192h-210v-298q0 -276 -226 -382l-160 148q123 82 123 260v272h-316v-378q0 -270 131.5 -391.5t414.5 -121.5l-48 -207q-180 0 -323.5 50.5t-239 142.5t-146.5 220.5t-51 285.5zM220 1707q155 -126 363 -126t342 119l37 -179
q-57 -64 -155.5 -100.5t-216.5 -36.5t-223.5 37.5t-182.5 103.5z" />
    <glyph glyph-name="uni090E" unicode="&#x90e;" horiz-adv-x="1163" 
d="M900 -2q-180 0 -323.5 50.5t-239 142.5t-146.5 220.5t-51 285.5v399h-172v192h763v27q0 105 -88 105q-19 0 -94.5 -13t-130 -13t-122 27t-123.5 77l73 166q86 -67 193 -67q33 0 136.5 23.5t151.5 23.5q117 0 184 -76.5t67 -224.5v-55h215v-192h-210v-298
q0 -276 -226 -382l-160 148q123 82 123 260v272h-316v-378q0 -270 131.5 -391.5t414.5 -121.5l-48 -207h-2z" />
    <glyph glyph-name="uni090F" unicode="&#x90f;" horiz-adv-x="1163" 
d="M142 697v399h-172v192h1223v-192h-210v-298q0 -276 -226 -382l-160 148q123 82 123 260v272h-316v-378q0 -270 131.5 -391.5t414.5 -121.5l-48 -207q-180 0 -323.5 50.5t-239 142.5t-146.5 220.5t-51 285.5z" />
    <glyph glyph-name="uni0910" unicode="&#x910;" horiz-adv-x="1163" 
d="M142 697v399h-172v192h706l-352 405l223 123l405 -528h241v-192h-210v-298q0 -276 -226 -382l-160 148q123 82 123 260v272h-316v-378q0 -270 131.5 -391.5t414.5 -121.5l-48 -207q-180 0 -323.5 50.5t-239 142.5t-146.5 220.5t-51 285.5z" />
    <glyph glyph-name="uni0911" unicode="&#x911;" horiz-adv-x="2078" 
d="M1031 0v482h-222q3 -48 3 -49q0 -173 -104 -272.5t-272 -99.5q-103 0 -185 19t-173 63l38 201q88 -37 146 -52.5t127 -15.5t114 45.5t45 115t-37.5 114.5t-113.5 56q-81 -16 -186 -16v204q160 0 232 48.5t72 126.5q0 55 -37.5 91t-107.5 36t-196 -57l-36 194
q67 34 131 49.5t150 15.5q162 0 261 -86t99 -230q0 -162 -125 -266q18 -9 42 -30h335v409h-171v192h1248v-192h-225v-1096h-263v1096h-326v-1096h-263zM1122 1707q155 -126 363 -126t342 119l37 -179q-57 -64 -155.5 -100.5t-216.5 -36.5t-223.5 37.5t-182.5 103.5z" />
    <glyph glyph-name="uni0912" unicode="&#x912;" horiz-adv-x="2078" 
d="M810 433q0 -173 -104 -272.5t-272 -99.5q-103 0 -185 19t-173 63l38 201q88 -37 146 -52.5t127 -15.5t114 45.5t45 115t-37.5 114.5t-113.5 56q-81 -16 -186 -16v204q160 0 232 48.5t72 126.5q0 55 -37.5 91t-107.5 36t-196 -57l-36 194q67 34 131 49.5t150 15.5
q162 0 261 -86t99 -230q0 -162 -125 -266q18 -9 42 -30h335v409h-171v192h778v27q0 105 -88 105q-19 0 -94.5 -13t-130 -13t-122 27t-123.5 77l73 166q86 -67 193 -67q33 0 136.5 23.5t151.5 23.5q117 0 184 -76.5t67 -224.5v-55h225v-192h-225v-1096h-263v1096h-326v-1096
h-263l-2 482h-222q3 -48 3 -49z" />
    <glyph glyph-name="uni0913" unicode="&#x913;" horiz-adv-x="2078" 
d="M1031 0v482h-222q3 -48 3 -49q0 -173 -104 -272.5t-272 -99.5q-103 0 -185 19t-173 63l38 201q88 -37 146 -52.5t127 -15.5t114 45.5t45 115t-37.5 114.5t-113.5 56q-81 -16 -186 -16v204q160 0 232 48.5t72 126.5q0 55 -37.5 91t-107.5 36t-196 -57l-36 194
q67 34 131 49.5t150 15.5q162 0 261 -86t99 -230q0 -162 -125 -266q18 -9 42 -30h335v409h-171v192h722l-352 405l223 123l405 -528h250v-192h-225v-1096h-263v1096h-326v-1096h-263z" />
    <glyph glyph-name="uni0914" unicode="&#x914;" horiz-adv-x="2078" 
d="M1031 0v482h-222q3 -48 3 -49q0 -173 -104 -272.5t-272 -99.5q-103 0 -185 19t-173 63l38 201q88 -37 146 -52.5t127 -15.5t114 45.5t45 115t-37.5 114.5t-113.5 56q-81 -16 -186 -16v204q160 0 232 48.5t72 126.5q0 55 -37.5 91t-107.5 36t-196 -57l-36 194
q67 34 131 49.5t150 15.5q162 0 261 -86t99 -230q0 -162 -125 -266q18 -9 42 -30h335v409h-171v192h563l-398 262l166 170l422 -322l-186 421l232 59l213 -590h236v-192h-225v-1096h-263v1096h-326v-1096h-263z" />
    <glyph glyph-name="uni0915" unicode="&#x915;" horiz-adv-x="1582" 
d="M439 161q-181 0 -298.5 110t-117.5 286.5t106 273t280 96.5q145 0 242 -39v209h-680v192h1642v-192h-699v-234q85 27 181 27q174 0 289 -107t115 -279q0 -192 -126 -351l-250 50q113 156 113 301q0 77 -45.5 123.5t-120.5 46.5t-156 -53v-621l-263 1v202
q-84 -42 -212 -42zM450 369h1q120 0 200 72v228q-82 47 -192 47q-79 0 -126 -45.5t-47 -127.5t46 -128t118 -46z" />
    <glyph glyph-name="uni0916" unicode="&#x916;" horiz-adv-x="1777" 
d="M1162 467q92 0 157 50v211q-40 22 -74.5 29.5t-91.5 7.5t-100 -40.5t-43 -109t46.5 -108.5t105.5 -40zM439 869v227h-469v192h1837v-192h-225v-1096h-263v291q-67 -27 -179 -27q-155 0 -267 101t-112 257.5t100.5 248.5t251.5 92q117 0 206 -30v163h-617v-231
q0 -320 -231 -397l307 -368l-188 -135l-623 743l181 141l170 -156q63 7 92 48t29 128z" />
    <glyph glyph-name="uni0917" unicode="&#x917;" horiz-adv-x="1265" 
d="M807 0v1097h-313v-605q0 -76 -39.5 -117t-111.5 -41q-106 0 -199.5 86t-93.5 187q0 61 39.5 98t108.5 37h34v354h-262v192h1325v-192h-226v-1096h-262z" />
    <glyph glyph-name="uni0918" unicode="&#x918;" horiz-adv-x="1321" 
d="M863 1095h-326q-70 0 -107.5 -33.5t-37.5 -89.5t33 -88t95 -37h165l17 -203h-129q-97 0 -144 -38.5t-47 -105t53.5 -105t143.5 -40.5q157 -1 284 82v658zM863 0v187q-136 -47 -303 -47q-216 0 -337.5 102.5t-119.5 270.5q1 74 38 138t101 110q-126 86 -126 231
q0 58 18 104h-164v192h1381v-192h-226v-1096h-262z" />
    <glyph glyph-name="uni0919" unicode="&#x919;" horiz-adv-x="1299" 
d="M572 14v-2q-150 0 -276 34t-214 87l56 203q95 -56 207 -90t207.5 -34t152.5 31t57 88q0 45 -32.5 72t-90.5 27q-122 0 -225 -59h-28q-123 43 -199.5 128.5t-76.5 201.5t85.5 183.5t256.5 67.5h211v143h-693v192h1359v-192h-407v-335h-451q-119 0 -119 -94q0 -48 48 -81
q130 51 256 51q169 0 265.5 -86.5t96.5 -226t-115.5 -224.5t-330.5 -85zM1227 766v-195h-239v195h239z" />
    <glyph glyph-name="uni091A" unicode="&#x91a;" horiz-adv-x="1350" 
d="M652 151q-189 0 -311.5 101.5t-122.5 275.5q0 74 26 140h-224v204h739v-204h-84v-1q-95 0 -140 -42t-45 -111t48.5 -107.5t115.5 -39.5q135 -2 237 76v653h-921v192h1410v-192h-227v-1096h-262l-1 195q-96 -44 -238 -44z" />
    <glyph glyph-name="uni091B" unicode="&#x91b;" horiz-adv-x="1478" 
d="M463.5 547.5q-45.5 -45.5 -45.5 -130t79.5 -141.5t212.5 -56q181 2 296 97.5t115 238.5q0 86 -35 130.5t-85 44.5q-75 0 -149 -44l-58 182q101 65 226 69v158h-481q-71 0 -107 -37t-36 -104t41.5 -113t106.5 -46h126l17 -203h-96q-82 0 -127.5 -45.5zM135 436
q0 172 137 274q-72 45 -111.5 114.5t-39.5 143.5t20 128h-171v192h1538v-192h-225v-265q94 -108 92 -285q0 -109 -46.5 -206.5t-129.5 -170.5t-206.5 -116t-270.5 -44q-274 -3 -430.5 115.5t-156.5 311.5z" />
    <glyph glyph-name="uni091C" unicode="&#x91c;" horiz-adv-x="1431" 
d="M768 434q0 -164 -101 -264t-278.5 -100t-347.5 75l42 197q127 -58 239 -58q83 1 132.5 47.5t49.5 133.5t-76.5 148t-196.5 61h-59v201h805v221h-1007v192h1491v-192h-225v-1096h-259l-1 671h-298q90 -97 90 -237z" />
    <glyph glyph-name="uni091D" unicode="&#x91d;" horiz-adv-x="1665" 
d="M391 6q-123 0 -196 42.5t-73 112t45.5 114.5t122.5 45q120 0 236 -109h2q91 0 145 38.5t54 90.5q0 101 -113 103q-67 2 -116 -12.5t-103 -50.5h-28q-116 40 -196 130t-80 199.5t90 178.5t266 69h187v139h-664v192h1725v-192h-225v-1096h-263v302h-220q-13 -113 -100 -186
t-236 -91l148 -184l-199 -95l-208 260h-1zM379 599q115 47 235 47q228 0 324 -139h269v589h-314v-333h-434q-59 0 -88.5 -24.5t-29.5 -65.5t38 -74z" />
    <glyph glyph-name="uni091E" unicode="&#x91e;" horiz-adv-x="1514" 
d="M1056 0v475h-243q-24 -149 -134 -236t-266 -87q-199 0 -369 95l45 204q96 -45 152.5 -61t120.5 -16q85 0 139.5 50t54.5 134.5t-53 134t-148.5 49.5t-194.5 -46l-45 196q130 61 275 61t255 -71t151 -192h260v406h-1086v192h1574v-192h-225v-1096h-263z" />
    <glyph glyph-name="uni091F" unicode="&#x91f;" horiz-adv-x="1075" 
d="M561 900h55v195h-647v192h1135v-192h-226v-402h-270q-125 0 -194 -58t-69 -156.5t78.5 -154t207.5 -56.5t273 42l27 -217q-137 -45 -293 -45l-2 -1q-258 0 -412 119.5t-152.5 318.5t130.5 307t359 108z" />
    <glyph glyph-name="uni0920" unicode="&#x920;" horiz-adv-x="1227" 
d="M397 307.5q74 -61.5 195.5 -61.5t197.5 62.5t76 169.5q0 149 -106 218h-129q-150 0 -229 -59.5t-79 -163.5t74 -165.5zM55 494q0 182 146.5 293.5t385.5 111.5h182v197h-799v192h1287v-192h-225v-334q89 -122 91 -295q0 -194 -138 -313t-384 -120t-396 125t-150 335z" />
    <glyph glyph-name="uni0921" unicode="&#x921;" horiz-adv-x="1118" 
d="M572 14v-2q-150 0 -276 34t-214 87l56 203q95 -56 207 -90t207.5 -34t152.5 31t57 88q0 45 -32.5 72t-90.5 27q-122 0 -225 -59h-28q-123 43 -199.5 128.5t-76.5 201.5t85.5 183.5t256.5 67.5h211v143h-693v192h1178v-192h-226v-335h-451q-119 0 -119 -94q0 -48 48 -81
q130 51 256 51q169 0 265.5 -86.5t96.5 -226t-115.5 -224.5t-330.5 -85z" />
    <glyph glyph-name="uni0922" unicode="&#x922;" horiz-adv-x="1119" 
d="M626 16q-253 0 -411 131t-158 347q0 191 133.5 304.5t376.5 113.5h94v184h-691v192h1179v-192h-225v-385h-317q-149 0 -221.5 -63.5t-72.5 -183t86 -190.5t228 -71q95 0 144.5 34t49.5 79q0 91 -113 91q-90 0 -195 -80l-86 159q58 51 136 82t165 31q154 0 240.5 -78.5
t86.5 -202.5q0 -139 -109.5 -220.5t-319.5 -81.5z" />
    <glyph glyph-name="uni0923" unicode="&#x923;" horiz-adv-x="1569" 
d="M490 564q126 0 126 168v364h-247v-364q0 -81 32 -124.5t89 -43.5zM1111 0v1096h-233v-354q0 -189 -102.5 -291.5t-276.5 -102.5t-283 104.5t-109 295.5v348h-137v192h1629v-192h-225v-1096h-263z" />
    <glyph glyph-name="uni0924" unicode="&#x924;" horiz-adv-x="1177" 
d="M274 -9h1h-1zM519 896h200v200h-749v192h1237v-192h-226v-1096h-262v680h-134q-124 0 -188.5 -63t-64.5 -166q0 -177 157 -382l-214 -78q-98 120 -150 252.5t-52 256.5q1 178 115.5 287t330.5 109z" />
    <glyph glyph-name="uni0925" unicode="&#x925;" horiz-adv-x="1347" 
d="M664 186q-231 0 -390.5 124t-229.5 369l5 35q270 14 371 82q50 34 70.5 72t20.5 93.5t-31.5 89.5t-79 34t-74.5 -30.5t-27 -71.5t14 -86l-197 -21q-32 71 -31 152q1 107 83.5 179t234 72t244 -92.5t92.5 -246t-106.5 -257.5t-282.5 -122q43 -81 122 -123t176 -42
q133 0 241 72v628h-64v192h552v-192h-225v-1096h-263l1 219q-101 -33 -226 -33z" />
    <glyph glyph-name="uni0926" unicode="&#x926;" horiz-adv-x="1086" 
d="M601 102q-153 0 -274.5 51.5t-192 149t-70.5 224.5q0 175 124 273t365 98h75v198h-658v192h1146v-192h-225v-401h-285q-281 0 -281 -193q0 -88 64 -141t166 -54q-5 16 -5 46q1 64 49.5 105t146 41t171 -60t73.5 -135q0 -110 -131 -162l123 -285l-238 -48l-113 293h-30z
" />
    <glyph glyph-name="uni0927" unicode="&#x927;" horiz-adv-x="1330" 
d="M565 140q-216 0 -338 103t-121 271q1 72 36 134.5t96 107.5q-79 45 -124.5 115t-45.5 156q0 123 88.5 198.5t233.5 75.5t243 -47l-29 -179q-76 29 -153 29q-54 0 -86 -31.5t-32 -89t55 -96.5t127 -39h178l18 -203h-134q-97 0 -144.5 -38.5t-47.5 -105t54 -105.5t144 -39
q168 0 289 79v660h-68v192h556v-192h-226v-1096l-263 -1v189q-128 -48 -306 -48z" />
    <glyph glyph-name="uni0928" unicode="&#x928;" horiz-adv-x="1175" 
d="M717 0v611h-309v-162q0 -67 -31.5 -104.5t-92 -37.5t-116.5 51t-89.5 129.5t-33.5 159.5q0 184 209 184h463v265h-747v192h1235v-192h-226v-1096h-262z" />
    <glyph glyph-name="uni0929" unicode="&#x929;" horiz-adv-x="1175" 
d="M390 81v-189h-229v189h229zM717 0v611h-309v-162q0 -67 -31.5 -104.5t-92 -37.5t-116.5 51t-89.5 129.5t-33.5 159.5q0 184 209 184h463v265h-747v192h1235v-192h-226v-1096h-262z" />
    <glyph glyph-name="uni092A" unicode="&#x92a;" horiz-adv-x="1134" 
d="M509 576q106 0 168 71v449h-314v-337q0 -183 146 -183zM512 371q-188 0 -300.5 116t-112.5 338v271h-129v192h1194v-192h-226v-1096h-262l1 402q-68 -31 -165 -31z" />
    <glyph glyph-name="uni092B" unicode="&#x92b;" horiz-adv-x="1609" 
d="M938 0h-261v402q-68 -31 -165 -31q-188 0 -300.5 116t-112.5 338v271h-129v192h1669v-192h-701v-235q84 28 185 28q172 0 286.5 -107.5t114.5 -278.5q0 -192 -126 -351l-250 50q114 158 114 301q0 77 -46 123.5t-122.5 46.5t-155.5 -53v-620zM508 576q106 0 168 71v449
h-314v-337q0 -183 146 -183z" />
    <glyph glyph-name="uni092C" unicode="&#x92c;" horiz-adv-x="1156" 
d="M497 373q12 0 34 2l-176 320q-55 -50 -55 -139.5t54 -136t143 -46.5zM492 743l-1 -1h-15l182 -329q21 10 40 27v258q-87 45 -206 45zM698 0v213q-95 -44 -218 -44q-190 0 -316 112t-126 288t115 276t298 100q144 0 247 -41v192h-728v192h1216v-192h-225v-1096h-263z" />
    <glyph glyph-name="uni092D" unicode="&#x92d;" horiz-adv-x="1208" 
d="M750 0v493h-274v-62q0 -60 -32 -93t-93 -33q-110 0 -206 84.5t-96 182.5q0 60 40.5 96.5t105.5 36.5h18v245q0 78 -27 115.5t-74 36.5q-35 0 -60 -8.5t-61 -32.5l-26 185q74 62 213 62t218.5 -90t79.5 -255v-257h274v390h-71v192h559v-192h-226v-1096h-262z" />
    <glyph glyph-name="uni092E" unicode="&#x92e;" horiz-adv-x="1241" 
d="M783 0v494h-300v-62q0 -59 -34.5 -92.5t-96.5 -33.5q-114 0 -205.5 80t-91.5 187q0 60 41 96.5t106 36.5h18v390h-250v192h1301v-192h-225v-1096h-263zM783 1096h-300v-390h300v390z" />
    <glyph glyph-name="uni092F" unicode="&#x92f;" horiz-adv-x="1243" 
d="M604 454q108 0 182 55v587h-290q38 -40 60.5 -95t22.5 -114q0 -105 -64 -183t-166 -105q46 -73 112 -109t143 -36zM318 920q0 110 -104 176h-244v192h1303v-192h-225v-1096h-263l1 266q-66 -20 -174 -21q-197 -1 -354.5 117t-226.5 334l5 33q282 25 282 191z" />
    <glyph glyph-name="uni0930" unicode="&#x930;" horiz-adv-x="884" 
d="M439 869v227h-469v192h944v-192h-212v-231q0 -320 -231 -397l307 -368l-188 -135l-623 743l181 141l170 -156q63 7 92 48t29 128z" />
    <glyph glyph-name="uni0931" unicode="&#x931;" horiz-adv-x="888" 
d="M281 81v-189h-229v189h229zM439 869v227h-469v192h944v-192h-212v-231q0 -320 -231 -397l307 -368l-188 -135l-623 743l181 141l170 -156q63 7 92 48t29 128z" />
    <glyph glyph-name="uni0932" unicode="&#x932;" horiz-adv-x="1596" 
d="M1137 0v640q-50 23 -97 23q-71 0 -117 -66t-46 -184v-143h-256v178q-6 101 -51.5 157.5t-110 56.5t-106.5 -51t-42 -142.5t36.5 -180.5t116.5 -194l-211 -76q-88 102 -142.5 231t-54.5 254q0 184 97.5 290.5t260.5 106.5q203 0 322 -137q55 63 128 98.5t144.5 35.5
t128.5 -13v212h-1167v192h1656v-192h-226v-1096h-263z" />
    <glyph glyph-name="uni0933" unicode="&#x933;" horiz-adv-x="1629" 
d="M346.5 303.5q47.5 -59.5 126.5 -59.5t125.5 59t46.5 179q0 232 -179 232q-76 0 -121.5 -59.5t-45.5 -175.5t47.5 -175.5zM1138 715h-1q-72 0 -118.5 -59t-46.5 -174t46 -174t123.5 -59t121.5 61.5t44 175t-45 171.5t-124 58zM1147 44q-100 0 -187 39t-147 115
q-49 -71 -134.5 -111t-200.5 -41q-183 -2 -299 119t-116 319t106 313.5t291 115.5q110 0 199.5 -43.5t147.5 -117.5q56 79 139 121t181 42q17 0 43 -2v183h-1200v192h1689v-192h-226v-303q108 -119 108 -315.5t-104 -315t-290 -118.5z" />
    <glyph glyph-name="uni0934" unicode="&#x934;" horiz-adv-x="1629" 
d="M431 -39v-189h-229v189h229zM346.5 303.5q47.5 -59.5 126.5 -59.5t125.5 59t46.5 179q0 232 -179 232q-76 0 -121.5 -59.5t-45.5 -175.5t47.5 -175.5zM1138 715h-1q-72 0 -118.5 -59t-46.5 -174t46 -174t123.5 -59t121.5 61.5t44 175t-45 171.5t-124 58zM1147 44
q-100 0 -187 39t-147 115q-49 -71 -134.5 -111t-200.5 -41q-183 -2 -299 119t-116 319t106 313.5t291 115.5q110 0 199.5 -43.5t147.5 -117.5q56 79 139 121t181 42q17 0 43 -2v183h-1200v192h1689v-192h-226v-303q108 -119 108 -315.5t-104 -315t-290 -118.5z" />
    <glyph glyph-name="uni0935" unicode="&#x935;" horiz-adv-x="1156" 
d="M498 374q118 0 200 66v258q-87 45 -206 45q-87 0 -139 -50t-52 -138t54 -134.5t143 -46.5zM698 0v213q-95 -44 -218 -44q-190 0 -316 112t-126 288t115 276t298 100q144 0 247 -41v192h-728v192h1216v-192h-225v-1096h-263z" />
    <glyph glyph-name="uni0936" unicode="&#x936;" horiz-adv-x="1530" 
d="M293 303q-83 0 -133.5 46t-50.5 135t57 155t136 66q94 0 163 -82q176 90 176 286q0 85 -42 131t-105.5 46t-100.5 -41t-37 -109q0 -28 10 -84l-221 -26q-17 60 -21.5 92.5t-4.5 69.5q0 133 100.5 224t264.5 91q189 0 302 -111.5t113 -300.5q0 -143 -78.5 -269.5
t-204.5 -210.5l246 -308l-209 -114l-244 328q-61 -14 -116 -14zM1072 0v1096h-70v192h558v-192h-225v-1096h-263z" />
    <glyph glyph-name="uni0937" unicode="&#x937;" horiz-adv-x="1134" 
d="M509 576q43 0 76 11l-222 402v-230q0 -183 146 -183zM677 1096h-228l228 -410v410zM512 371q-188 0 -300.5 116t-112.5 338v271h-129v192h1194v-192h-226v-1096h-262l1 402q-68 -31 -165 -31z" />
    <glyph glyph-name="uni0938" unicode="&#x938;" horiz-adv-x="1412" 
d="M402 868v227h-432v192h1472v-192h-225v-1096h-263v485h-468q-7 -3 -21.5 -8t-18.5 -7l268 -382l-203 -115l-534 752l183 131l148 -158v-1q48 13 71 54t23 118zM665 844q0 -75 -15 -148h304v400h-289v-252z" />
    <glyph glyph-name="uni0939" unicode="&#x939;" horiz-adv-x="1116" 
d="M126 191q0 143 96 247q-134 99 -134 247q0 118 90 187.5t256 69.5h223v154h-687v192h1176v-192h-226v-358h-432q-138 0 -138 -96q0 -59 57 -92q81 22 160 22q196 0 313.5 -97t117.5 -240q0 -44 -5.5 -73t-23.5 -76l-242 23q16 63 16 103q0 69 -44.5 112.5t-127 41.5
t-132.5 -56t-50 -139q0 -118 110 -183q115 -67 383 -67l-31 -201q-355 0 -540 126t-185 345z" />
    <glyph glyph-name="uni093A" unicode="&#x93a;" 
d="M-452 1482h262v-307h-262v307z" />
    <glyph glyph-name="uni093B" unicode="&#x93b;" horiz-adv-x="599" 
d="M141 0v1096h-171v192h171v194h262v-194h226v-192h-225v-1096h-263z" />
    <glyph glyph-name="uni093C" unicode="&#x93c;" 
d="M-685 81v-189h-229v189h229z" />
    <glyph glyph-name="uni093D" unicode="&#x93d;" horiz-adv-x="1025" 
d="M899 411h1q0 -155 -105 -250t-298 -95q-102 0 -195 22t-200 76l50 219q174 -94 318 -94q79 0 121 34t42 92.5t-44.5 107t-168.5 111.5q-168 86 -241.5 172t-73.5 199q0 131 90 207t269 76h376v-192h-345q-60 0 -92 -29t-32 -74.5t34 -78t142 -84.5q184 -92 268 -189
t84 -230z" />
    <glyph glyph-name="uni093E" unicode="&#x93e;" horiz-adv-x="599" 
d="M141 0v1096h-171v192h659v-192h-225v-1096h-263z" />
    <glyph glyph-name="uni093F" unicode="&#x93f;" horiz-adv-x="599" 
d="M141 0v1095h-171v192h172v53q0 191 152.5 301.5t436.5 110.5q169 -1 349.5 -42t331.5 -113l-48 -193q-320 124 -618 124q-164 0 -253 -57t-89 -149v-34h225v-192h-225v-1096h-263z" />
    <glyph glyph-name="uni0940" unicode="&#x940;" horiz-adv-x="599" 
d="M-29 1095v192h144q-120 267 -273 267q-53 0 -80.5 -29t-27.5 -82q0 -90 76 -189h-269q-28 39 -47.5 101t-19.5 129q0 129 86.5 206.5t239.5 77.5q195 0 335.5 -118t234.5 -362h259v-192h-225v-1096h-263l1 1095h-171z" />
    <glyph glyph-name="uni0941" unicode="&#x941;" 
d="M-349 46q171 0 268 -86.5t97 -220t-103 -216.5t-276 -83q-283 0 -541 220l77 185q239 -207 439 -207q85 0 129.5 30t44.5 83t-38 81t-109 28q-105 0 -198 -53l-60 168q49 32 121.5 51.5t148.5 19.5z" />
    <glyph glyph-name="uni0942" unicode="&#x942;" 
d="M-321 -577q-170 0 -279 88.5t-109 224.5t97 217.5t265 81.5q327 0 586 -406l-135 -142q-89 134 -169.5 213.5t-141.5 106t-128.5 26.5t-105.5 -31.5t-38 -83.5t44 -81.5t106 -29.5t149 14l22 -177q-62 -21 -163 -21z" />
    <glyph glyph-name="uni0943" unicode="&#x943;" 
d="M-316 -533q-169 0 -276.5 84.5t-107.5 215.5t93.5 208t264.5 77h146v-162h-101q-77 0 -119.5 -36t-42.5 -93.5t40.5 -92t101.5 -34.5q108 0 173 25l27 -164q-80 -28 -199 -28z" />
    <glyph glyph-name="uni0944" unicode="&#x944;" 
d="M-128 -606q-73 -40 -184 -40t-179 57t-68 151q0 52 31 94q-99 60 -99 179q0 99 75.5 158t211.5 59h145v-162h-116q-69 0 -95.5 -16.5t-26.5 -49.5t30 -52t85 -19t137 19l31 -132q-70 -34 -175 -34q-19 0 -27 1q-40 -17 -40 -59q0 -29 24 -46.5t82 -17.5t132 31z" />
    <glyph glyph-name="uni0945" unicode="&#x945;" 
d="M-926 1707q155 -126 363 -126t342 119l37 -179q-57 -64 -155.5 -100.5t-216.5 -36.5t-223.5 37.5t-182.5 103.5z" />
    <glyph glyph-name="uni0946" unicode="&#x946;" 
d="M-199 1221h-247v94q0 105 -88 105q-19 0 -94.5 -13t-130 -13t-122 27t-123.5 77l73 166q86 -67 193 -67q33 0 136.5 23.5t151.5 23.5q117 0 184 -76.5t67 -224.5v-122z" />
    <glyph glyph-name="uni0947" unicode="&#x947;" 
d="M-184 1245h-272l-389 448l223 123z" />
    <glyph glyph-name="uni0948" unicode="&#x948;" 
d="M-598 1245l-463 305l166 170l422 -322l-186 421l232 59l229 -633h-400z" />
    <glyph glyph-name="uni0949" unicode="&#x949;" horiz-adv-x="599" 
d="M141 0v1096h-171v192h659v-192h-225v-1096h-263zM-77 1708q155 -126 363 -126t342 119l37 -179q-57 -64 -155.5 -100.5t-216.5 -36.5t-223.5 37.5t-182.5 103.5z" />
    <glyph glyph-name="uni094A" unicode="&#x94a;" horiz-adv-x="599" 
d="M-32 1096v192h150v27q0 105 -88 105q-19 0 -94.5 -13t-130 -13t-122 27t-123.5 77l73 166q86 -67 193 -67q33 0 136.5 23.5t151.5 23.5q117 0 184 -76.5t67 -224.5v-55h264v-192h-225v-1096h-263l-2 1096h-171z" />
    <glyph glyph-name="uni094B" unicode="&#x94b;" horiz-adv-x="599" 
d="M141 0v1096h-171v192h131l-352 405l223 123l405 -528h252v-192h-225v-1096h-263z" />
    <glyph glyph-name="uni094C" unicode="&#x94c;" horiz-adv-x="599" 
d="M141 0v1096h-171v174l-425 280l166 170l422 -322l-186 421l232 59l213 -590h237v-192h-225v-1096h-263z" />
    <glyph glyph-name="uni094D" unicode="&#x94d;" 
d="M-549 -263l87 173l524 -245l-90 -170z" />
    <glyph glyph-name="uni094E" unicode="&#x94e;" horiz-adv-x="586" 
d="M140 0v1288h475v-192h-216v-1096h-259z" />
    <glyph glyph-name="uni094F" unicode="&#x94f;" horiz-adv-x="599" 
d="M141 1v1096h-171v192h102l-1 1q-24 37 -46.5 53t-49 16t-89 -13.5t-104.5 -13.5q-110 0 -218 80l52 151q80 -62 170 -62q28 0 109.5 19t118.5 19q116 0 203 -118v59q0 45 -21.5 69t-48.5 24t-86 -13t-98 -13q-133 0 -248 102l60 145q98 -73 191 -73q33 0 115.5 22
t116.5 22q92 0 149 -63.5t57 -186.5v-226h225v-192h-225v-1096h-263z" />
    <glyph glyph-name="uni0950" unicode="&#x950;" horiz-adv-x="1868" 
d="M917 271q-53 0 -91 8q-40 -104 -132 -160.5t-206 -56.5t-195.5 19t-172.5 63l38 201q88 -37 146 -52.5t127 -15.5t114 45.5t45 115t-37.5 114.5t-113.5 56q-81 -16 -186 -16v204q160 0 232 48.5t72 126.5q0 55 -37.5 91t-107.5 36t-196 -57l-36 194q67 34 131 49.5
t150 15.5q162 0 261 -86t99 -230q0 -162 -125 -266q142 -88 155 -249q24 -2 42 -2q55 0 86 34t51 126q40 190 130.5 280.5t244.5 90.5t256 -112t102 -285t-94.5 -277.5t-255.5 -104.5q-64 0 -149 23l23 177q58 -11 114 -11t92 51.5t36 150t-32 144t-85.5 45.5t-89.5 -50.5
t-57 -167.5q-32 -165 -114 -237.5t-234 -72.5zM847 1396q155 -126 363 -126t342 119l37 -179q-57 -64 -155.5 -100.5t-216.5 -36.5t-223.5 37.5t-182.5 103.5zM1313 1579v-202h-214v202h214z" />
    <glyph glyph-name="uni0951" unicode="&#x951;" 
d="M-452 1723h262v-307h-262v307z" />
    <glyph glyph-name="uni0952" unicode="&#x952;" 
d="M-190 -247h-742v183h742v-183z" />
    <glyph glyph-name="uni0953" unicode="&#x953;" 
d="M-344 1801l137 -381h-224l-218 381h305z" />
    <glyph glyph-name="uni0954" unicode="&#x954;" 
d="M-439 1420l138 381h302l-216 -381h-224z" />
    <glyph glyph-name="uni0955" unicode="&#x955;" 
d="M-194 1380h-742v163h742v-163zM-922 1896q156 -112 364 -112t341 106l37 -159q-57 -57 -155.5 -89.5t-216 -32.5t-223 33.5t-183.5 91.5z" />
    <glyph glyph-name="uni0956" unicode="&#x956;" 
d="M89 -197q-157 -136 -393.5 -136t-421.5 130l48 161q160 -114 365.5 -114t345.5 118z" />
    <glyph glyph-name="uni0957" unicode="&#x957;" 
d="M111 -434q-162 -121 -413 -121t-443 115l50 144q167 -102 382.5 -102t365.5 105zM89 -189q-156 -125 -392.5 -125t-422.5 119l48 148q161 -105 365 -105t346 108z" />
    <glyph glyph-name="uni0958" unicode="&#x958;" horiz-adv-x="1582" 
d="M271 82v-189h-229v189h229zM439 161q-181 0 -298.5 110t-117.5 286.5t106 273t280 96.5q145 0 242 -39v209h-680v192h1642v-192h-699v-234q85 27 181 27q174 0 289 -107t115 -279q0 -192 -126 -351l-250 50q113 156 113 301q0 77 -45.5 123.5t-120.5 46.5t-156 -53v-621
l-263 1v202q-84 -42 -212 -42zM450 369h1q120 0 200 72v228q-82 47 -192 47q-79 0 -126 -45.5t-47 -127.5t46 -128t118 -46z" />
    <glyph glyph-name="uni0959" unicode="&#x959;" horiz-adv-x="1777" 
d="M350 81v-189h-229v189h229zM1162 467q92 0 157 50v211q-40 22 -74.5 29.5t-91.5 7.5t-100 -40.5t-43 -109t46.5 -108.5t105.5 -40zM439 869v227h-469v192h1837v-192h-225v-1096h-263v291q-67 -27 -179 -27q-155 0 -267 101t-112 257.5t100.5 248.5t251.5 92
q117 0 206 -30v163h-617v-231q0 -320 -231 -397l307 -368l-188 -135l-623 743l181 141l170 -156q63 7 92 48t29 128z" />
    <glyph glyph-name="uni095A" unicode="&#x95a;" horiz-adv-x="1265" 
d="M400 82v-189h-229v189h229zM807 0v1097h-313v-605q0 -76 -39.5 -117t-111.5 -41q-106 0 -199.5 86t-93.5 187q0 61 39.5 98t108.5 37h34v354h-262v192h1325v-192h-226v-1096h-262z" />
    <glyph glyph-name="uni095B" unicode="&#x95b;" horiz-adv-x="1431" 
d="M314 2v-189h-229v189h229zM768 434q0 -164 -101 -264t-278.5 -100t-347.5 75l42 197q127 -58 239 -58q83 1 132.5 47.5t49.5 133.5t-76.5 148t-196.5 61h-59v201h805v221h-1007v192h1491v-192h-225v-1096h-259l-1 671h-298q90 -97 90 -237z" />
    <glyph glyph-name="uni095C" unicode="&#x95c;" horiz-adv-x="1118" 
d="M670 -81v-189h-229v189h229zM572 14v-2q-150 0 -276 34t-214 87l56 203q95 -56 207 -90t207.5 -34t152.5 31t57 88q0 45 -32.5 72t-90.5 27q-122 0 -225 -59h-28q-123 43 -199.5 128.5t-76.5 201.5t85.5 183.5t256.5 67.5h211v143h-693v192h1178v-192h-226v-335h-451
q-119 0 -119 -94q0 -48 48 -81q130 51 256 51q169 0 265.5 -86.5t96.5 -226t-115.5 -224.5t-330.5 -85z" />
    <glyph glyph-name="uni095D" unicode="&#x95d;" horiz-adv-x="1119" 
d="M687 -86v-189h-229v189h229zM626 16q-253 0 -411 131t-158 347q0 191 133.5 304.5t376.5 113.5h94v184h-691v192h1179v-192h-225v-385h-317q-149 0 -221.5 -63.5t-72.5 -183t86 -190.5t228 -71q95 0 144.5 34t49.5 79q0 91 -113 91q-90 0 -195 -80l-86 159q58 51 136 82
t165 31q154 0 240.5 -78.5t86.5 -202.5q0 -139 -109.5 -220.5t-319.5 -81.5z" />
    <glyph glyph-name="uni095E" unicode="&#x95e;" horiz-adv-x="1609" 
d="M391 81v-189h-229v189h229zM938 0h-261v402q-68 -31 -165 -31q-188 0 -300.5 116t-112.5 338v271h-129v192h1669v-192h-701v-235q84 28 185 28q172 0 286.5 -107.5t114.5 -278.5q0 -192 -126 -351l-250 50q114 158 114 301q0 77 -46 123.5t-122.5 46.5t-155.5 -53v-620z
M508 576q106 0 168 71v449h-314v-337q0 -183 146 -183z" />
    <glyph glyph-name="uni095F" unicode="&#x95f;" horiz-adv-x="1243" 
d="M431 81v-189h-229v189h229zM604 454q108 0 182 55v587h-290q38 -40 60.5 -95t22.5 -114q0 -105 -64 -183t-166 -105q46 -73 112 -109t143 -36zM318 920q0 110 -104 176h-244v192h1303v-192h-225v-1096h-263l1 266q-66 -20 -174 -21q-197 -1 -354.5 117t-226.5 334l5 33
q282 25 282 191z" />
    <glyph glyph-name="uni0960" unicode="&#x960;" horiz-adv-x="1604" 
d="M926 0h-264v359l-388 -245l-140 203l479 284q-118 72 -177.5 95t-119.5 23q-121 0 -252 -69l-51 223q127 73 296 73q136 0 314 -101l39 -23v274h-694v192h1664v-192h-708v-366q88 7 153 29q-27 44 -27 95t46.5 85t135 34t157 -45.5t68.5 -112.5q0 -39 -15 -67
q-13 -25 -55 -67l125 -211l-12 -89q-109 -30 -145.5 -59t-36.5 -66q0 -68 86 -68q50 0 98 15l21 -161q-81 -27 -156 -27q-133 0 -211 68t-78 177q0 140 164 223l-47 79q-122 -47 -269 -58v-504z" />
    <glyph glyph-name="uni0961" unicode="&#x961;" horiz-adv-x="1483" 
d="M1442 -221q-72 -39 -183 -39t-179.5 57t-68.5 150q0 54 29 92q-97 66 -97 181q0 77 54 129.5t152 67.5q2 38 2 65q0 91 -34 139.5t-101.5 48.5t-108.5 -65.5t-41 -191.5v-143h-256v161q0 16 2 46q-12 88 -56.5 136t-106 48t-100.5 -51t-39 -141.5t38.5 -178.5t118.5 -197
l-209 -76q-88 102 -143.5 231t-55.5 254q0 183 97 286.5t257 103.5q186 0 305 -128q107 128 280 128q18 0 26 -1v205h-1054v192h1543v-192h-225v-312q112 -109 112 -301q0 -96 -32 -207h-85q-80 0 -109.5 -18t-29.5 -52.5t28.5 -53t81.5 -18.5t135 19l32 -132
q-66 -34 -176 -34q-21 0 -30 1q-30 -17 -30 -50q0 -67 87 -67q75 0 144 31l26 -122v-1z" />
    <glyph glyph-name="uni0962" unicode="&#x962;" 
d="M-22 -376q-85 0 -135 34t-50 89q0 42 30 70.5t76 38.5q2 18 2 36t-18 33.5t-50 15.5t-51.5 -25t-19.5 -64v-66h-181v64q0 36 -24 62.5t-57 26.5t-49.5 -17t-16.5 -46q0 -73 108 -177l-131 -46q-61 46 -98 111t-37 138.5t55 123t153.5 49.5t177.5 -65q80 65 174 65
t152.5 -52.5t58.5 -120.5t-19 -119h-38q-70 0 -70 -39q0 -19 18 -29t43.5 -10t80.5 12l13 -79q-40 -14 -97 -14z" />
    <glyph glyph-name="uni0963" unicode="&#x963;" 
d="M87 -436l-1 2h1v-2zM86 -434q-45 -14 -107 -14t-98.5 23.5t-36.5 65.5q0 23 21 44q-68 28 -68 86q0 36 28 59.5t77 30.5l1 25q0 24 -18 39.5t-50 15.5t-51.5 -25t-19.5 -64v-66h-180v64q0 36 -24.5 62.5t-57.5 26.5t-49.5 -17t-16.5 -46q0 -74 109 -177l-132 -46
q-61 46 -97.5 111t-36.5 138.5t55 123t144 49.5q110 0 188 -66q80 66 173.5 66t152 -52.5t58.5 -126.5q0 -44 -19 -95h-38q-39 0 -54 -7.5t-15 -24.5q0 -33 58 -33q19 0 77 10l13 -67q-40 -14 -95 -14h-1q-27 -6 -27 -25q0 -14 14 -22t41.5 -8t66.5 12z" />
    <glyph glyph-name="uni0964" unicode="&#x964;" horiz-adv-x="922" 
d="M592 -164h-262v1559h262v-1559z" />
    <glyph glyph-name="uni0965" unicode="&#x965;" horiz-adv-x="1352" 
d="M1022 -164h-262v1559h262v-1559zM592 -164h-262v1559h262v-1559z" />
    <glyph glyph-name="uni0966" unicode="&#x966;" horiz-adv-x="1134" 
d="M405.5 471q63.5 -69 161 -69t159 68.5t61.5 181.5t-63 183.5t-162 70.5t-159.5 -70.5t-60.5 -183t63.5 -181.5zM213 978.5q133 129.5 349 129.5t351.5 -128t135.5 -327t-133.5 -326t-348 -127t-351 126t-136.5 324.5t133 328z" />
    <glyph glyph-name="uni0967" unicode="&#x967;" horiz-adv-x="893" 
d="M342.5 1058q-38.5 -40 -38.5 -105t53 -108.5t153 -53.5q83 83 83 169q0 56 -42 97t-106 41t-102.5 -40zM527 22v49q0 52 -10.5 74.5t-50.5 45.5l-354 206l-3 55l228 189q-125 38 -202.5 125t-77.5 200q0 138 103.5 231.5t281 93.5t284.5 -97.5t107 -236.5q0 -89 -41 -165
t-158 -179l-200 -175l237 -140q62 -38 89 -86.5t27 -124.5v-65h-260z" />
    <glyph glyph-name="uni0968" unicode="&#x968;" horiz-adv-x="942" 
d="M271 341q-84 0 -133.5 43t-49.5 131t57 154.5t135 66.5q98 0 171 -90q67 40 107 99.5t40 137t-64.5 133t-159.5 55.5q-117 0 -258 -56l-26 203q131 60 285 60q222 0 352.5 -115t130.5 -291q0 -132 -75 -247.5t-197 -189.5l264 -334l-209 -116l-272 365q-58 -9 -98 -9z
" />
    <glyph glyph-name="uni0969" unicode="&#x969;" horiz-adv-x="953" 
d="M153.5 227.5q-73.5 42.5 -73.5 111.5t45 114.5t123 45.5q113 0 230 -104q44 10 71.5 42.5t27.5 83.5t-37 89.5t-103 50.5q-48 -7 -104 -7h-94v201h48q124 0 192 36t68 94t-39 88t-106 30q-92 0 -224 -61l-29 187q51 25 124.5 41t128.5 16q197 0 302 -83.5t105 -214.5
t-113 -224q68 -46 106.5 -112.5t38.5 -144.5q0 -102 -66.5 -180.5t-171.5 -115.5l155 -191l-199 -96l-210 261q-122 0 -195.5 42.5z" />
    <glyph glyph-name="uni096A" unicode="&#x96a;" horiz-adv-x="1050" 
d="M543 270v1q53 0 86 28.5t33 71.5t-24.5 74.5t-103.5 79.5q-60 -36 -86 -70t-26 -80t35 -75.5t86 -29.5zM802 155q-101 -79 -257 -79t-264 86.5t-108 214.5q0 147 159 274q-264 198 -264 419q0 93 44 192l244 -45q-34 -82 -34 -160.5t55 -145.5t159 -134q133 82 176 143.5
t43 140.5q0 48 -5 78t-26 87l243 28q25 -67 34 -106.5t9 -87.5q0 -127 -70.5 -228t-201.5 -189q165 -132 165 -270.5t-101 -217.5z" />
    <glyph glyph-name="uni096B" unicode="&#x96b;" horiz-adv-x="1023" 
d="M535 355q-211 0 -347 113t-136 300q0 159 104.5 301.5t293.5 229.5l175 -149q-310 -164 -310 -388q0 -90 57.5 -145t138.5 -55q15 0 20 1q-8 38 -8 73q0 66 49 110t145.5 44t163.5 -55.5t67 -136.5q0 -97 -106 -168l185 -356l-226 -74l-173 360q-48 -5 -93 -5z" />
    <glyph glyph-name="uni096C" unicode="&#x96c;" horiz-adv-x="968" 
d="M558 156q-205 0 -325.5 91t-120.5 255t142 264q-127 86 -127 224.5t101.5 217t301.5 78.5q158 0 288 -51l-32 -184q-125 45 -218.5 45t-136 -31.5t-42.5 -84t43.5 -84.5t113.5 -37q40 5 100 5h91v-201h-82q-143 0 -212 -47t-69 -115.5t41 -105t101 -36.5q-3 36 -3 42
q0 64 43 101.5t132.5 37.5t162.5 -52.5t73 -131.5t-92 -137l113 -196l-225 -70l-107 205q-34 -2 -55 -2z" />
    <glyph glyph-name="uni096D" unicode="&#x96d;" horiz-adv-x="1171" 
d="M660 727q0 -129 208 -169q10 49 10 124t-32.5 120t-81 45t-76.5 -31.5t-28 -88.5zM333 702q0 -202 77.5 -294.5t206.5 -92.5q103 0 171 74q-160 26 -258 120.5t-98 227t87 216.5t226 84q161 0 264 -105t103 -272q0 -113 -36 -212.5t-100.5 -172t-158 -114.5t-204.5 -42
q-149 0 -271 69q-120 69 -190 201q-72 134 -72 319q0 143 43.5 293.5t113.5 266.5l254 -44q-66 -112 -112 -262t-46 -260z" />
    <glyph glyph-name="uni096E" unicode="&#x96e;" horiz-adv-x="955" 
d="M338 521q0 -88 61 -137.5t152 -48.5t139 10.5t148 41.5l33 -201q-166 -59 -334 -59q-209 0 -342 111.5t-133 293.5q0 98 53 201.5t155 198.5l373 346l197 -148l-360 -348q-142 -138 -142 -261z" />
    <glyph glyph-name="uni096F" unicode="&#x96f;" horiz-adv-x="962" 
d="M576.5 1050q-44.5 43 -111 43t-108.5 -44.5t-42 -106t19 -98.5q20 -38 74 -92q100 12 154 61t56.5 121.5t-42 115.5zM56 941q0 152 106 252.5t290 100.5t300.5 -104t116.5 -259q0 -131 -79.5 -224.5t-219.5 -122.5l148 -153q76 -78 109 -147t33 -154v-98h-261l-1 86
q0 61 -19.5 101t-71.5 92l-269 274q-93 94 -137.5 179t-44.5 177z" />
    <glyph glyph-name="uni0970" unicode="&#x970;" horiz-adv-x="792" 
d="M489.5 773q-40.5 42 -102 42t-103 -43t-41.5 -110t41.5 -109.5t101.5 -42.5t102 42t42 110.5t-40.5 110.5zM390 339q-148 0 -250.5 95t-102.5 233.5t96.5 228t247.5 89.5t253 -94t102 -232.5t-99 -229t-247 -90.5z" />
    <glyph glyph-name="uni0971" unicode="&#x971;" horiz-adv-x="687" 
d="M436 1302v-225h-237v225h237z" />
    <glyph glyph-name="uni0972" unicode="&#x972;" horiz-adv-x="1489" 
d="M1031 0v482h-222q3 -48 3 -49q0 -173 -104 -272.5t-272 -99.5q-103 0 -185 19t-173 63l38 201q88 -37 146 -52.5t127 -15.5t114 45.5t45 115t-37.5 114.5t-113.5 56q-81 -16 -186 -16v204q160 0 232 48.5t72 126.5q0 55 -37.5 91t-107.5 36t-196 -57l-36 194
q67 34 131 49.5t150 15.5q162 0 261 -86t99 -230q0 -162 -125 -266q18 -9 42 -30h335v409h-171v192h659v-192h-225v-1096h-263zM801 1707q155 -126 363 -126t342 119l37 -179q-57 -64 -155.5 -100.5t-216.5 -36.5t-223.5 37.5t-182.5 103.5z" />
    <glyph glyph-name="uni0973" unicode="&#x973;" horiz-adv-x="1489" 
d="M1031 0v482h-222q3 -48 3 -49q0 -173 -104 -272.5t-272 -99.5q-103 0 -185 19t-173 63l38 201q88 -37 146 -52.5t127 -15.5t114 45.5t45 115t-37.5 114.5t-113.5 56q-81 -16 -186 -16v204q160 0 232 48.5t72 126.5q0 55 -37.5 91t-107.5 36t-196 -57l-36 194
q67 34 131 49.5t150 15.5q162 0 261 -86t99 -230q0 -162 -125 -266q18 -9 42 -30h335v409h-171v192h168v194h262v-194h229v-192h-225v-1096h-263z" />
    <glyph glyph-name="uni0974" unicode="&#x974;" horiz-adv-x="2078" 
d="M1031 0v482h-222q3 -48 3 -49q0 -173 -104 -272.5t-272 -99.5q-103 0 -185 19t-173 63l38 201q88 -37 146 -52.5t127 -15.5t114 45.5t45 115t-37.5 114.5t-113.5 56q-81 -16 -186 -16v204q160 0 232 48.5t72 126.5q0 55 -37.5 91t-107.5 36t-196 -57l-36 194
q67 34 131 49.5t150 15.5q162 0 261 -86t99 -230q0 -162 -125 -266q18 -9 42 -30h335v409h-171v192h756v194h262v-194h230v-192h-225v-1096h-263v1096h-326v-1096h-263z" />
    <glyph glyph-name="uni0975" unicode="&#x975;" horiz-adv-x="2078" 
d="M814 433q0 -173 -104 -272.5t-272 -99.5q-103 0 -185 19t-173 63l38 201q88 -37 146 -52.5t127 -15.5t114 45.5t45 115t-37.5 114.5t-113.5 56q-81 -16 -186 -16v204q160 0 232 48.5t72 126.5q0 55 -37.5 91t-107.5 36t-196 -57l-36 194q67 34 131 49.5t150 15.5
q162 0 261 -86t99 -230q0 -162 -125 -266q18 -9 42 -30h335v409h-171v192h690l-1 2q-24 37 -46.5 53t-49 16t-89 -13.5t-104.5 -13.5q-110 0 -218 80l52 151q80 -62 170 -62q28 0 110 19t118 19q116 0 203 -118v59q0 45 -21.5 69t-48.5 24t-86 -13t-100 -13q-134 0 -249 102
l61 145q98 -73 191 -73q33 0 115 22t117 22q92 0 149 -63.5t57 -186.5v-227h226v-192h-225v-1096h-263v1096h-326v-1096h-263l2 482h-222q3 -48 3 -49z" />
    <glyph glyph-name="uni0976" unicode="&#x976;" horiz-adv-x="1489" 
d="M1101 -197q-157 -136 -393.5 -136t-421.5 130l48 161q160 -114 365.5 -114t345.5 118zM1031 0v482h-222q3 -48 3 -49q0 -173 -104 -272.5t-272 -99.5q-103 0 -185 19t-173 63l38 201q88 -37 146 -52.5t127 -15.5t114 45.5t45 115t-37.5 114.5t-113.5 56q-81 -16 -186 -16
v204q160 0 232 48.5t72 126.5q0 55 -37.5 91t-107.5 36t-196 -57l-36 194q67 34 131 49.5t150 15.5q162 0 261 -86t99 -230q0 -162 -125 -266q18 -9 42 -30h335v409h-171v192h659v-192h-225v-1096h-263z" />
    <glyph glyph-name="uni0977" unicode="&#x977;" horiz-adv-x="1489" 
d="M1110 -434q-162 -121 -413 -121t-443 115l50 144q167 -102 383 -102t366 105zM1089 -189q-156 -125 -392.5 -125t-422.5 119l48 148q161 -105 365 -105t346 108zM1031 0v482h-222q3 -48 3 -49q0 -173 -104 -272.5t-272 -99.5q-103 0 -185 19t-173 63l38 201
q88 -37 146 -52.5t127 -15.5t114 45.5t45 115t-37.5 114.5t-113.5 56q-81 -16 -186 -16v204q160 0 232 48.5t72 126.5q0 55 -37.5 91t-107.5 36t-196 -57l-36 194q67 34 131 49.5t150 15.5q162 0 261 -86t99 -230q0 -162 -125 -266q18 -9 42 -30h335v409h-171v192h659v-192
h-225v-1096h-263z" />
    <glyph glyph-name="uni0978" unicode="&#x978;" horiz-adv-x="1150" 
d="M805 409q0 74 -45.5 118.5t-125 44.5t-151.5 -23v-117q0 -59 -36 -92.5t-98 -33.5q-115 0 -204 78.5t-89 185.5q0 60 40.5 97.5t105.5 40.5l18 2v386h-250v192h1210v-192h-697v-312q68 11 151 11q197 0 314 -106.5t117 -279.5q0 -195 -126 -350l-248 49q114 159 114 301z
" />
    <glyph glyph-name="uni0979" unicode="&#x979;" horiz-adv-x="1431" 
d="M496 -137v-189h-229v189h229zM732 11v-189h-229v189h229zM254 11v-189h-229v189h229zM768 434q0 -164 -101 -264t-278.5 -100t-347.5 75l42 197q127 -58 239 -58q83 1 132.5 47.5t49.5 133.5t-76.5 148t-196.5 61h-59v201h805v221h-1007v192h1491v-192h-225v-1096h-259
l-1 671h-298q90 -97 90 -237z" />
    <glyph glyph-name="uni097A" unicode="&#x97a;" horiz-adv-x="1243" 
d="M604 454v1q65 0 122 21l-173 288q-28 -61 -81.5 -104t-122.5 -61q46 -73 112 -109t143 -36zM786 1096h-275l275 -455v455zM318 920q0 110 -104 176h-244v192h1303v-192h-225v-1096h-263l1 266q-66 -20 -174 -21q-197 -1 -354.5 117t-226.5 334l5 33q282 25 282 191z" />
    <glyph glyph-name="uni097B" unicode="&#x97b;" horiz-adv-x="1265" 
d="M189 -154v177h618v1074h-313v-605q0 -76 -39.5 -117t-111.5 -41q-106 0 -199.5 86t-93.5 187q0 61 39.5 98t108.5 37h34v354h-262v192h1325v-192h-226v-1250h-880z" />
    <glyph glyph-name="uni097C" unicode="&#x97c;" horiz-adv-x="1431" 
d="M976 14v657h-298q90 -97 90 -237q0 -164 -101 -264t-278.5 -100t-347.5 75l42 197q127 -58 239 -58q83 1 132.5 47.5t49.5 133.5t-76.5 148t-196.5 61h-59v201h805v221h-1007v192h1491v-192h-225v-1257h-1169l-1 175h910z" />
    <glyph glyph-name="uni097D" unicode="&#x97d;" horiz-adv-x="1000" 
d="M339 690q142 0 223 58.5t81 163.5q0 78 -55.5 130.5t-143.5 52.5q-112 0 -233 -64l-55 205q145 66 308 66q208 0 334 -107.5t126 -280.5t-115.5 -282.5t-283.5 -126.5v-505h-263l1 690h76z" />
    <glyph glyph-name="uni097E" unicode="&#x97e;" horiz-adv-x="1118" 
d="M975 -81v-176h-813v176h813zM572 14v-2q-150 0 -276 34t-214 87l56 203q95 -56 207 -90t207.5 -34t152.5 31t57 88q0 45 -32.5 72t-90.5 27q-122 0 -225 -59h-28q-123 43 -199.5 128.5t-76.5 201.5t85.5 183.5t256.5 67.5h211v143h-693v192h1178v-192h-226v-335h-451
q-119 0 -119 -94q0 -48 48 -81q130 51 256 51q169 0 265.5 -86.5t96.5 -226t-115.5 -224.5t-330.5 -85z" />
    <glyph glyph-name="uni097F" unicode="&#x97f;" horiz-adv-x="1156" 
d="M153 -155v176h544v191q-95 -44 -218 -44q-190 0 -316 112t-126 288t115 276t298 100q144 0 247 -41v192h-728v192h1216v-192h-225v-1250h-807zM497 373q12 0 34 2l-176 320q-55 -50 -55 -139.5t54 -136t143 -46.5zM492 743l-1 -1h-15l182 -329q21 10 40 27v258
q-87 45 -206 45z" />
    <glyph glyph-name="uni200B" unicode="&#x200b;" 
 />
    <glyph glyph-name="uni200C" unicode="&#x200c;" 
d="M38 -349h-76v1972h76v-1972z" />
    <glyph glyph-name="uni200D" unicode="&#x200d;" 
d="M38 -348h-76v1600l-182 -186l-51 51l221 226l-219 225l50 50l219 -224l218 223l53 -50l-220 -224l220 -225l-53 -50l-180 185v-1601z" />
    <glyph glyph-name="endash" unicode="&#x2013;" horiz-adv-x="1272" 
d="M998 785v-184h-879v184h879z" />
    <glyph glyph-name="emdash" unicode="&#x2014;" horiz-adv-x="1503" 
d="M1198 785v-184h-1081v184h1081z" />
    <glyph glyph-name="uni2015" unicode="&#x2015;" horiz-adv-x="1751" 
 />
    <glyph glyph-name="quoteleft" unicode="&#x2018;" horiz-adv-x="607" 
d="M166 915v173l146 316h129l-54 -315v-174h-221z" />
    <glyph glyph-name="quoteright" unicode="&#x2019;" horiz-adv-x="607" 
d="M448 1404v-175l-146 -313h-129l54 313v175h221z" />
    <glyph glyph-name="quotesinglbase" unicode="&#x201a;" horiz-adv-x="457" 
d="M132 176h215l-1 -150l1 -1q-1 -81 -46 -173t-118 -157l-123 71q70 112 72 247v163z" />
    <glyph glyph-name="quotedblleft" unicode="&#x201c;" horiz-adv-x="911" 
d="M166 915v173l146 316h129l-54 -315v-174h-221zM469 915v173l146 316h129l-54 -315v-174h-221z" />
    <glyph glyph-name="quotedblright" unicode="&#x201d;" horiz-adv-x="918" 
d="M443 1404v-175l-146 -313h-129l54 313v175h221zM751 1404v-175l-146 -313h-129l54 313v175h221z" />
    <glyph glyph-name="quotedblbase" unicode="&#x201e;" horiz-adv-x="743" 
d="M133 205h215l-1 -178q-1 -90 -43.5 -187.5t-113.5 -162.5l-129 71q70 117 72 263v194zM442 204h214l-1 -182l1 1q-2 -89 -47.5 -186.5t-116.5 -161.5l-129 71q78 134 79 265v193z" />
    <glyph glyph-name="dagger" unicode="&#x2020;" horiz-adv-x="992" 
d="M942 974v-217h-317v-757h-260v757h-314v217h314v336h260v-336h317z" />
    <glyph glyph-name="daggerdbl" unicode="&#x2021;" horiz-adv-x="1067" 
d="M978 168v-210h-317v-374h-261v374h-312v210h312v554h-312v210h312v337h261v-337h317v-210h-317v-554h317z" />
    <glyph glyph-name="bullet" unicode="&#x2022;" horiz-adv-x="663" 
d="M122 694v81q0 91 58.5 148t156 57t156 -56.5t58.5 -148.5v-81q0 -92 -58 -147.5t-156 -55.5t-156.5 56t-58.5 147z" />
    <glyph glyph-name="ellipsis" unicode="&#x2026;" horiz-adv-x="1367" 
d="M353 207v-207h-236v207h236zM752 207v-207h-236v207h236zM1130 207v-207h-236v207h236z" />
    <glyph glyph-name="perthousand" unicode="&#x2030;" horiz-adv-x="1769" 
d="M908 317v-68q0 -51 32 -85.5t80 -34.5q110 0 110 122v68q0 54 -30.5 87t-81 33t-80.5 -33t-30 -89zM1317 317v-68q0 -49 32 -84.5t81 -35.5q109 0 109 122v68q0 54 -30.5 87t-80.5 33t-80.5 -33t-30.5 -89zM813 512.5q79 76.5 208 76.5t201 -94q75 94 203 94t207.5 -75.5
t79.5 -200.5v-64q0 -117 -78.5 -193t-208.5 -76t-204 95q-71 -95 -201 -95t-209 76.5t-79 196.5l2 66q0 117 79 193.5zM240 1052v-65q0 -54 30 -87t81 -33t81 33.5t30 89.5v66q0 54 -30.5 87t-81.5 33t-80.5 -33t-29.5 -91zM1064 1120l-640 -1024l-127 69l640 1024z
M155 1250q76 76 199.5 76t202.5 -76t79 -200v-63q0 -118 -79.5 -193.5t-203 -75.5t-199.5 76t-76 199l1 63q0 118 76 194z" />
    <glyph glyph-name="guilsinglleft" unicode="&#x2039;" horiz-adv-x="574" 
d="M517 844l-216 -360l216 -359h-168l-252 351v17l252 351h168z" />
    <glyph glyph-name="guilsinglright" unicode="&#x203a;" horiz-adv-x="556" 
d="M72 843h168l252 -351v-17l-252 -351h-168l216 359z" />
    <glyph glyph-name="fraction" unicode="&#x2044;" horiz-adv-x="822" 
d="M794 1133l-640 -1024l-127 68l640 1025z" />
    <glyph glyph-name="Euro" unicode="&#x20ac;" horiz-adv-x="1058" 
d="M778 197q96 0 171 28l33 -218q-115 -26 -231 -26q-237 0 -374.5 127t-144.5 355h-152v136h152v112h-152v137h154q15 227 157 352.5t379 125.5q97 0 213 -28l-33 -219q-85 29 -166 29q-255 0 -279 -260h300v-137h-302v-112h302l-1 -136h-302q5 -135 71.5 -200.5
t204.5 -65.5z" />
    <glyph glyph-name="uni20B9" unicode="&#x20b9;" horiz-adv-x="1328" 
d="M216 669h169q192 0 246 120h-459v193h460q-54 115 -213 115h-247v192h933v-192h-239q40 -52 57 -116h182v-193h-180q-31 -130 -132.5 -210t-233.5 -96l447 -473l-2 -9h-325l-463 496v173z" />
    <glyph glyph-name="uni20BA" unicode="&#x20ba;" horiz-adv-x="1094" 
d="M1026 620q0 -192 -69 -337.5t-198 -224.5q-131 -79 -293 -79q-129 0 -264 18v563l-169 -55v191l169 55v108l-169 -55v192l169 55v256h269v-168l176 59v-192l-176 -59v-108l176 59v-191l-176 -58v-449q139 2 210.5 107t72.5 310v68l272 -1v-64z" />
    <glyph glyph-name="uni20BD" unicode="&#x20bd;" horiz-adv-x="1300" 
d="M499 1091v-410h233q227 0 227 199q0 96 -58 153t-159 58h-243zM785 393v-218h-286v-175h-270v175h-183v218h183v69h-183v218h183v630h509q148 0 259 -52.5t173 -151.5t62 -225q0 -196 -131.5 -307.5t-366.5 -111.5h-235v-69h286z" />
    <glyph glyph-name="trademark" unicode="&#x2122;" horiz-adv-x="1164" 
d="M914 914v317l-99 -317h-65l-100 318v-318h-115v488h142l105 -331l114 331h134v-488h-116zM471 1402v-97h-116v-388h-128v388h-123v97h367z" />
    <glyph glyph-name="estimated" unicode="&#x212e;" horiz-adv-x="1166" 
d="M848 804q-106 101 -241 101t-245 -110v-249h486v258zM608 -20q-130 0 -240 69.5t-171.5 188t-61.5 248t64.5 245.5t176.5 187.5t232 71.5t221.5 -62.5t160.5 -171t61 -240.5v-55h-691v-296q108 -99 245 -99q178 0 331 110l5 -93q-163 -103 -333 -103z" />
    <glyph glyph-name="partialdiff" unicode="&#x2202;" horiz-adv-x="1055" 
d="M540 720q-199 0 -199 -278q0 -124 50 -189t147 -65t148.5 78.5t51.5 233.5v99q-59 121 -198 121zM80 475q0 207 115.5 330.5t313.5 123.5q149 0 252 -103q-28 163 -108 254t-193 91q-97 0 -159 -23l-60 -22l-40 186l52 23q102 45 229 45q245 0 379 -191.5t137 -549.5v-56
q0 -179 -56 -316t-161.5 -213t-242.5 -76q-211 0 -334.5 130t-123.5 356v11z" />
    <glyph glyph-name="product" unicode="&#x220f;" horiz-adv-x="1277" 
d="M1137 1285v-1538h-261v1333h-467v-1333h-261v1538h989z" />
    <glyph glyph-name="summation" unicode="&#x2211;" horiz-adv-x="1156" 
d="M1112 -59v-210h-1061v136l513 645l-513 636v136h1030v-211h-670l427 -546v-30l-429 -556h703z" />
    <glyph glyph-name="minus" unicode="&#x2212;" horiz-adv-x="1023" 
d="M882 806v-205h-751v205h751z" />
    <glyph glyph-name="radical" unicode="&#x221a;" horiz-adv-x="1041" 
d="M50 471v212h349l125 -418l290 1045h208l-380 -1310h-222l-167 471h-203z" />
    <glyph glyph-name="infinity" unicode="&#x221e;" horiz-adv-x="1929" 
d="M1186 288q80 -91 180 -91t159.5 78t59.5 212t-61 210.5t-161 76.5q-124 0 -212 -134q-47 -70 -60 -135v-26q4 -33 32 -91.5t63 -99.5zM557 773v1q-102 0 -161.5 -77.5t-59.5 -212.5t60 -211.5t163 -76.5q132 0 222 161q41 76 48 121v26q-16 69 -59 135q-87 134 -213 134z
M1375 -20q-259 0 -415 281q-153 -281 -415 -281q-207 0 -334.5 139t-127.5 364v10q0 141 57.5 254.5t163.5 177.5q103 65 240 65q266 0 417 -273q154 272 417 273h-1h1q101 0 186 -36.5t146 -102.5t95 -162.5t34 -226t-59 -243t-165.5 -176.5t-239.5 -63z" />
    <glyph glyph-name="integral" unicode="&#x222b;" horiz-adv-x="532" 
d="M47 -437q-70 0 -131 16l14 205q41 -10 77 -10q117 0 121 129v1112q0 166 93 254.5t266 88.5q52 0 144 -19l-22 -200q-45 9 -87 9q-132 0 -132 -138l-1 -1096q0 -172 -89 -261.5t-253 -89.5z" />
    <glyph glyph-name="approxequal" unicode="&#x2248;" horiz-adv-x="1063" 
d="M738 437q122 0 212 114v-214q-90 -95 -204 -95q-79 0 -153 34l-124 61q-73 35 -156 33q-60 0 -119 -30t-102 -84l-2 215q93 95 215 95q79 1 159 -34l126 -62q74 -33 148 -33zM746 814q114 0 204 114v-214q-90 -95 -198 -95q-82 0 -153 34l-125 61q-73 35 -155 33
q-62 0 -124.5 -31.5t-103.5 -82.5l1 215q43 45 102 70q132 56 275 -8l124 -61q73 -35 153 -35z" />
    <glyph glyph-name="notequal" unicode="&#x2260;" horiz-adv-x="1055" 
d="M927 504v-213h-499l-104 -194l-107 56l75 138h-170v213h284l95 177h-379v213h494l103 191l107 -56l-73 -135h174v-213h-288l-96 -177h384z" />
    <glyph glyph-name="lessequal" unicode="&#x2264;" horiz-adv-x="939" 
d="M791 250v-205h-751v205h751zM819 808l-519 -167v-5l519 -164v-221l-775 297v185l775 296v-221z" />
    <glyph glyph-name="greaterequal" unicode="&#x2265;" horiz-adv-x="952" 
d="M844 250v-205h-751v205h751zM95 470l528 169v5l-528 167v218l785 -296v-185l-785 -297v219z" />
    <glyph glyph-name="lozenge" unicode="&#x25ca;" horiz-adv-x="938" 
d="M654 654l-184 383l-184 -383l186 -381zM28 654l331 656h222l333 -656l-332 -654h-222z" />
    <glyph glyph-name="uni25CC" unicode="&#x25cc;" horiz-adv-x="1076" 
d="M602 231q0 -54 -60 -54q-29 0 -43.5 15t-14.5 39t14.5 39t43.5 15q60 0 60 -54zM278 402q59 0 59 -53.5t-59 -53.5q-28 0 -43.5 14.5t-15.5 39t15.5 39t43.5 14.5zM852 387.5q15 -14.5 15 -39t-15 -39t-44 -14.5q-59 0 -59 53.5t59 53.5q29 0 44 -14.5zM901 562
q-58 0 -58 53.5t58 53.5q29 0 45 -14t16 -35t-7 -33q-14 -25 -54 -25zM225 654.5q15 -14.5 15 -39t-15 -39t-43 -14.5q-59 0 -59 53.5t59 53.5q28 0 43 -14.5zM278 937q59 0 59 -53.5t-59 -53.5q-28 0 -43.5 14.5t-15.5 39t15.5 39t43.5 14.5zM852 922.5q15 -14.5 15 -39
t-15 -39t-44 -14.5q-59 0 -59 53.5t59 53.5q29 0 44 -14.5zM602 999q-1 -53 -60 -53q-29 0 -43.5 15t-14.5 39q0 53 59 53t59 -54z" />
    <glyph glyph-name="uF0001" unicode="&#xf0001;" 
 />
    <glyph glyph-name="uF01C5" unicode="&#xf01c5;" 
 />
    <glyph glyph-name="uF01C6" unicode="&#xf01c6;" horiz-adv-x="1088" 
d="M391 7q-123 0 -196 42.5t-73 112t45.5 114.5t122.5 45q120 0 236 -109h2q91 0 145 38.5t54 89.5q0 102 -113 104q-67 2 -116 -12.5t-103 -50.5h-28q-116 40 -196 130t-80 199.5t90 178.5t266 69h187v139h-664v192h653q-50 133 -49 238q0 137 90 219t246 82q106 0 201 -36
l-20 -162q-60 15 -106 15q-70 1 -115 -47t-45 -130.5t33 -179.5h260v-192h-225v-333h-434q-59 0 -88.5 -24.5t-29.5 -65.5t38 -74q115 47 250 47q163 0 261.5 -86.5t98.5 -217t-88.5 -214t-249.5 -103.5l148 -184l-199 -95l-208 261h-1zM1117 1541v-168h-192v168h192z" />
    <glyph glyph-name="uF01C7" unicode="&#xf01c7;" horiz-adv-x="1163" 
d="M142 697v399h-172v192h1223v-192h-210v-298q0 -276 -226 -382l-160 148q123 82 123 260v272h-316v-378q0 -270 131.5 -391.5t414.5 -121.5l-48 -207q-180 0 -323.5 50.5t-239 142.5t-146.5 220.5t-51 285.5zM212 1707q155 -126 363 -126t342 119l37 -179
q-57 -64 -155.5 -100.5t-216.5 -36.5t-223.5 37.5t-182.5 103.5zM678 1890v-202h-214v202h214z" />
    <glyph glyph-name="uF01C8" unicode="&#xf01c8;" horiz-adv-x="1681" 
d="M1012 0h-262v494h-274v-62q0 -60 -32 -93t-93 -33q-110 0 -206 84.5t-96 182.5q0 60 40.5 96.5t105.5 36.5h18v245q0 78 -27 115.5t-74 36.5q-35 0 -60 -8.5t-61 -32.5l-26 185q74 62 213 62t218.5 -90t79.5 -255v-257h274v390h-71v192h1032v-192h-699v-234q85 27 184 27
q172 0 286.5 -107.5t114.5 -278.5q0 -192 -126 -351l-250 50q114 158 114 301q0 77 -45.5 123.5t-121 46.5t-156.5 -53v-621z" />
    <glyph glyph-name="uF01C9" unicode="&#xf01c9;" horiz-adv-x="1118" 
d="M270 -51v-189h-229v189h229zM572 14v-2q-150 0 -276 34t-214 87l56 203q95 -56 207 -90t207.5 -34t152.5 31t57 88q0 45 -32.5 72t-90.5 27q-122 0 -225 -59h-28q-123 43 -199.5 128.5t-76.5 201.5t85.5 183.5t256.5 67.5h211v143h-693v192h1178v-192h-226v-335h-451
q-119 0 -119 -94q0 -48 48 -81q130 51 256 51q169 0 265.5 -86.5t96.5 -226t-115.5 -224.5t-330.5 -85z" />
    <glyph glyph-name="uF01CA" unicode="&#xf01ca;" horiz-adv-x="1119" 
d="M320 -9v-189h-229v189h229zM626 16q-253 0 -411 131t-158 347q0 191 133.5 304.5t376.5 113.5h94v184h-691v192h1179v-192h-225v-385h-317q-149 0 -221.5 -63.5t-72.5 -183t86 -190.5t228 -71q95 0 144.5 34t49.5 79q0 91 -113 91q-90 0 -195 -80l-86 159q58 51 136 82
t165 31q154 0 240.5 -78.5t86.5 -202.5q0 -139 -109.5 -220.5t-319.5 -81.5z" />
    <glyph glyph-name="uF01CB" unicode="&#xf01cb;" horiz-adv-x="1483" 
d="M59 500q0 183 97 286.5t257 103.5q186 0 305 -128q107 128 280 128q18 0 26 -1v205h-1054v192h1543v-192h-225v-312q112 -109 112 -301q0 -223 -167 -440l-218 71q74 115 104.5 193.5t30.5 174t-34.5 143t-101 47.5t-107.5 -65.5t-41 -191.5v-143h-256v161q0 16 2 46
q-12 88 -56.5 136t-106 48t-100.5 -51t-39 -141.5t38.5 -178.5t118.5 -197l-209 -78q-88 102 -143.5 231t-55.5 254z" />
    <glyph glyph-name="uF01CC" unicode="&#xf01cc;" horiz-adv-x="1518" 
d="M288 191q-86 0 -134.5 43t-48.5 131.5t55.5 154.5t134.5 66q101 0 178 -99q125 54 125 160q0 62 -41 100t-102 38t-107.5 -8.5t-76 -19.5t-84.5 -35l-63 210q113 49 241 59v106h-395v192h1578v-192h-226v-1096h-263v1096h-431v-124q111 -37 172 -124t61 -198.5
t-67.5 -207.5t-178.5 -161l187 -221l-209 -114l-195 254q-54 -10 -110 -10z" />
    <glyph glyph-name="uF01CD" unicode="&#xf01cd;" horiz-adv-x="599" 
d="M-29 1096v192h172v57q0 183 131 289t358 106q256 0 494 -133l-57 -190q-224 103 -414 103q-127 0 -189 -52.5t-62 -144.5v-35h225v-192h-225v-1096h-263l1 1096h-171z" />
    <glyph glyph-name="uF01CE" unicode="&#xf01ce;" horiz-adv-x="599" 
d="M141 0v1095h-171v192h172v58q0 187 147 294t412 106q326 -1 624 -149l-54 -194q-274 121 -552 121q-153 0 -234 -53.5t-81 -145.5v-36h225v-192h-225v-1096h-263z" />
    <glyph glyph-name="uF01CF" unicode="&#xf01cf;" horiz-adv-x="599" 
d="M141 0v1095h-171v192h172v53q0 191 152.5 301.5t436.5 110.5q169 -1 349.5 -42t331.5 -113l-48 -193q-320 124 -618 124q-164 0 -253 -57t-89 -149v-34h225v-192h-225v-1096h-263z" />
    <glyph glyph-name="uF01D0" unicode="&#xf01d0;" horiz-adv-x="599" 
d="M-29 1096v192h172v54q0 191 173 304t475 113q189 0 393 -43t371 -121l-53 -195q-345 135 -698 135q-193 0 -296.5 -59.5t-103.5 -152.5v-35h225v-192h-225v-1096h-263l1 1096h-171z" />
    <glyph glyph-name="uF01D1" unicode="&#xf01d1;" horiz-adv-x="599" 
d="M-32 1096v192h172v51q0 197 185 318.5t526 121.5q198 0 412.5 -47.5t411.5 -131.5l-36 -199q-413 151 -775 151q-224 0 -342 -66.5t-118 -165.5v-32h225v-192h-225v-1096h-263l-2 1096h-171z" />
    <glyph glyph-name="uF01D2" unicode="&#xf01d2;" horiz-adv-x="599" 
d="M141 0v1096h-171v192h172v54q0 157 120 264q202 179 661 179t946 -180l-37 -202q-468 154 -883 154q-146 0 -255 -20.5t-170 -55.5q-120 -68 -120 -166v-27h225v-192h-225v-1096h-263z" />
    <glyph glyph-name="uF01D3" unicode="&#xf01d3;" horiz-adv-x="599" 
d="M-31 1096v192h172v57q0 154 125 264q133 117 399 160q141 23 314 23q488 0 1032 -192l-48 -196q-231 75 -491 118t-444.5 43t-301.5 -20.5t-186 -56.5q-136 -70 -136 -171v-29h225v-192h-225v-1096h-263l-1 1096h-171z" />
    <glyph glyph-name="uF01D4" unicode="&#xf01d4;" horiz-adv-x="599" 
d="M141 0v1096h-171v192h172v54q0 201 222 328q111 64 291.5 99.5t414.5 35.5q524 0 1118 -200l-46 -201q-257 84 -548 129.5t-514 45.5q-326 0 -501 -78.5t-175 -190.5v-22h225v-192h-225v-1096h-263z" />
    <glyph glyph-name="uF01D5" unicode="&#xf01d5;" horiz-adv-x="599" 
d="M-31 1096v192h172v57q0 199 235 329q117 65 305.5 101.5t430.5 36.5q620 0 1256 -208l-45 -199q-269 80 -609.5 131t-544.5 51t-348.5 -24.5t-233.5 -64.5t-136.5 -88.5t-47.5 -100.5v-21h226v-192h-225v-1096h-263l-1 1096h-171z" />
    <glyph glyph-name="uF01D6" unicode="&#xf01d6;" horiz-adv-x="599" 
d="M141 0v1096h-171v192h172v54q0 167 162 279q274 190 944 190q313 0 686 -54t695 -152l-46 -203q-296 80 -675.5 129.5t-646.5 49.5q-404 0 -630.5 -80t-226.5 -191v-22h225v-192h-225v-1096h-263z" />
    <glyph glyph-name="uF01D7" unicode="&#xf01d7;" horiz-adv-x="599" 
d="M-28 1096v192h172v54q0 81 41 150t133 128.5t230 101.5q294 89 806 89q326 0 726 -52t759 -154l-46 -203q-341 84 -746 131.5t-646.5 47.5t-407 -15.5t-273.5 -41t-181 -61t-104 -73.5t-31 -80v-22h225v-192h-225v-1096h-263l2 1096h-171z" />
    <glyph glyph-name="uF01D8" unicode="&#xf01d8;" horiz-adv-x="599" 
d="M-29 1096v192h172v54q0 82 41 150.5t136 128.5t240 101q311 89 869 89q327 0 754.5 -54t786.5 -153l-45 -203q-337 83 -774.5 131.5t-722.5 48.5t-492 -23t-319 -62q-213 -76 -213 -186v-22h225v-192h-225v-1096h-263l1 1096h-171z" />
    <glyph glyph-name="uF01D9" unicode="&#xf01d9;" horiz-adv-x="599" 
d="M141 0v1096h-171v192h172v54q0 206 314 334q159 64 423 99.5t608.5 35.5t826.5 -55t847 -152l-45 -203q-338 82 -825.5 131t-779.5 49t-511.5 -23t-345.5 -62q-250 -77 -250 -186v-22h225v-192h-225v-1096h-263z" />
    <glyph glyph-name="uF01DA" unicode="&#xf01da;" horiz-adv-x="599" 
d="M-27 1095v192h129q-207 259 -422 259q-65 0 -100 -33t-35 -83t17.5 -88.5t55.5 -87.5h-265q-67 93 -67 218t93 205.5t261 80.5q215 0 411 -128.5t327 -341.5h251v-192h-225v-1096h-263l3 1095h-171z" />
    <glyph glyph-name="uF01DB" unicode="&#xf01db;" horiz-adv-x="599" 
d="M141 0v1096h-171v192h100q-144 122 -306.5 190.5t-295.5 68.5q-102 0 -150 -40t-48 -110t59 -143h-265q-55 79 -55 195q0 137 102 222t291 85q272 0 534 -128.5t452 -339.5h241v-192h-225v-1096h-263z" />
    <glyph glyph-name="uF01DC" unicode="&#xf01dc;" 
d="M1 -334l-328 207l-317 -203l-131 162l379 236h126l393 -246z" />
    <glyph glyph-name="uF01DD" unicode="&#xf01dd;" 
d="M-10 1672v-225h-237v225h237z" />
    <glyph glyph-name="uF01DE" unicode="&#xf01de;" 
d="M-415 1652q117 -95 264.5 -95t258.5 89l38 -165q-107 -109 -300 -109q-163 0 -298 112l35 168h2zM-49 1839v-192h-204v192h204z" />
    <glyph glyph-name="uF01DF" unicode="&#xf01df;" 
d="M-169 1829q106 0 201 -36l-20 -162q-60 15 -106 15q-70 1 -115 -47t-45 -126q0 -106 50 -228l-233 2q-27 56 -48 134.5t-20 146.5q0 137 90 219t246 82z" />
    <glyph glyph-name="uF01E0" unicode="&#xf01e0;" 
d="M39 1543v-168h-192v168h192zM-169 1829q106 0 201 -36l-20 -162q-60 15 -106 15q-70 1 -115 -47t-45 -126q0 -106 50 -228l-233 2q-27 56 -48 134.5t-20 146.5q0 137 90 219t246 82z" />
    <glyph glyph-name="uF01E1" unicode="&#xf01e1;" horiz-adv-x="929" 
d="M324.5 840.5q41.5 -41.5 112 -41.5t126.5 24v90q0 85 -38 132t-101 47t-100 -38t-39 -105t39.5 -108.5zM563 59v554q-57 -16 -132 -15q-176 5 -288 100t-112 246.5t104.5 246t286 94t292.5 -106.5t111 -272v-847h-262z" />
    <glyph glyph-name="uF01E2" unicode="&#xf01e2;" horiz-adv-x="951" 
d="M364 944q0 -154 135 -150q58 2 98 20l35 414h255l-55 -583q-15 -161 -92.5 -265t-209.5 -149l105 -177l-205 -59l-116 204h-9q-105 0 -156.5 42.5t-51.5 116t55.5 125t131.5 51.5q47 0 83 -22t72 -83q110 32 138 173q-38 -7 -79 -7q-192 0 -294 98t-102 268v268h262v-285
z" />
    <glyph glyph-name="uF01E3" unicode="&#xf01e3;" horiz-adv-x="1040" 
d="M763.5 129q8.5 30 8.5 78t-40.5 78.5t-100.5 30.5h-124q-177 0 -281 92.5t-104 271.5t131 355h-212v201h966v-201h-464q-76 -84 -117.5 -180.5t-41.5 -188.5q0 -69 37 -104t101 -35h130q171 0 269 -78.5t98 -219.5q0 -107 -55 -215l-238 27q29 58 37.5 88z" />
    <glyph glyph-name="uF01E4" unicode="&#xf01e4;" horiz-adv-x="1003" 
d="M730.5 128q8.5 30 8.5 78t-40.5 78.5t-100.5 30.5h-121q-177 0 -281 92.5t-104 264.5q0 146 67.5 303.5t160.5 266.5l56 7q118 -92 191.5 -129.5t123.5 -37.5t68 17.5t18 58.5t-22 94l185 26q47 -103 47 -184q0 -101 -64.5 -163.5t-182.5 -62.5q-145 0 -304 94
q-82 -131 -82 -296q0 -69 37.5 -104t101.5 -35h128q170 0 268 -78.5t98 -219.5l-1 -1q0 -109 -57 -215l-236 27q29 58 37.5 88z" />
    <glyph glyph-name="uF01E5" unicode="&#xf01e5;" horiz-adv-x="1161" 
d="M914 0h-263v202q-84 -42 -212 -42q-181 0 -298.5 110t-117.5 286.5t106 273t280 96.5q145 0 242 -39v209h-680v192h1252v-192h-309v-255q77 32 177 32q226 0 363 -163l-67 -206q-146 150 -291 150q-103 0 -182 -67v-587zM450 369h1q120 0 200 72v228q-82 47 -192 47
q-79 0 -126 -45.5t-47 -127.5t46 -128t118 -46z" />
    <glyph glyph-name="uF01E6" unicode="&#xf01e6;" horiz-adv-x="1321" 
d="M1049.5 485.5q45.5 -41.5 117 -41.5t117.5 44t46 114.5t-45 115t-119 44.5t-118 -46t-44 -117.5t45.5 -113zM447 868v227h-476v192h1388v-192h-649v-231q0 -159 -55.5 -258t-177.5 -139l308 -368l-188 -135l-622 743l181 141l170 -156q66 9 93.5 50t27.5 126zM1151 961
q178 0 292.5 -105t114.5 -256.5t-109 -253.5t-283.5 -102t-290 105.5t-115.5 264.5t105 254t286 94v-1z" />
    <glyph glyph-name="uF01E7" unicode="&#xf01e7;" horiz-adv-x="665" 
d="M343 334v1q-106 0 -199.5 86t-93.5 187q0 61 39.5 98t108.5 37h34v354h-262v192h755v-192h-231v-605q0 -76 -39.5 -117t-111.5 -41z" />
    <glyph glyph-name="uF01E8" unicode="&#xf01e8;" horiz-adv-x="885" 
d="M102 508q0 77 37 142t102 111q-126 86 -126 231q0 58 18 104h-167v192h984v-192h-414q-70 0 -107.5 -33.5t-37.5 -89.5t33 -88t95 -37h166l17 -203h-131q-94 0 -141.5 -37.5t-47.5 -104.5t52.5 -108t140.5 -41q263 0 433 295l128 -223q-73 -133 -218 -211.5t-355 -78.5
l-1 -2q-210 0 -335 104.5t-125 269.5z" />
    <glyph glyph-name="uF01E9" unicode="&#xf01e9;" horiz-adv-x="1299" 
d="M301 -245l87 173l524 -245l-90 -170zM572 14v-2q-150 0 -276 34t-214 87l56 203q95 -56 207 -90t207.5 -34t152.5 31t57 88q0 45 -32.5 72t-90.5 27q-122 0 -225 -59h-28q-123 43 -199.5 128.5t-76.5 201.5t85.5 183.5t256.5 67.5h211v143h-693v192h1359v-192h-407v-335
h-451q-119 0 -119 -94q0 -48 48 -81q130 51 256 51q169 0 265.5 -86.5t96.5 -226t-115.5 -224.5t-330.5 -85zM1227 766v-195h-239v195h239z" />
    <glyph glyph-name="uF01EA" unicode="&#xf01ea;" horiz-adv-x="899" 
d="M654 151v-3q-188 0 -311.5 102.5t-123.5 276.5q0 74 26 140h-224v204h739v-204h-84v-1q-95 0 -140 -42t-45 -111t48.5 -107.5t125.5 -39.5q102 -1 192.5 65t175.5 217l143 -200q-63 -138 -195.5 -217.5t-326.5 -79.5zM957 1096h-987v192h987v-192z" />
    <glyph glyph-name="uF01EB" unicode="&#xf01eb;" horiz-adv-x="1478" 
d="M135 436q0 172 137 274q-72 45 -111.5 114.5t-39.5 143.5t20 128h-171v192h1538v-192h-969q-71 0 -107 -37t-36 -104t41.5 -113t106.5 -46h126l17 -203h-96q-82 0 -127.5 -45.5t-45.5 -130t79.5 -141.5t212.5 -56q181 2 296 97.5t115 238.5q0 86 -35 130.5t-85 44.5
q-75 0 -149 -44l-58 182q106 69 240 69q156 0 249 -107t92 -285q0 -109 -46.5 -206.5t-129.5 -170.5t-206.5 -116t-270.5 -44q-274 -3 -430.5 115.5t-156.5 311.5z" />
    <glyph glyph-name="uF01EC" unicode="&#xf01ec;" horiz-adv-x="949" 
d="M375 70q-163 0 -333 75l42 197q127 -58 237 -58q83 1 133 47.5t50 133.5t-76.5 148t-196.5 61h-59v201h1016v-204h-509q90 -97 90 -237q0 -163 -104.5 -263.5t-289.5 -100.5zM1034 1096h-1064v192h1064v-192z" />
    <glyph glyph-name="uF01ED" unicode="&#xf01ed;" horiz-adv-x="1090" 
d="M387 5q-123 0 -196 42.5t-73 112t45 114.5t123 45q119 0 235 -109h6q91 0 145 38.5t54 89.5q0 102 -113 104q-67 2 -116 -12.5t-103 -50.5h-28q-116 40 -196 130t-80 199.5t90 178.5t266 69h186v139h-663v192h1186v-192h-264v-333h-433q-59 0 -88.5 -24.5t-29.5 -65.5
t38 -74q115 47 234 47q229 0 325 -139h415v-205h-366q-13 -113 -100.5 -185.5t-237.5 -91.5l148 -183l-199 -95l-209 259h-1z" />
    <glyph glyph-name="uF01EE" unicode="&#xf01ee;" horiz-adv-x="1261" 
d="M751 493h-274v-62q0 -60 -32 -93t-93 -33q-110 0 -206 84.5t-96 182.5q0 60 40.5 96.5t105.5 36.5h18v245q0 78 -27 115.5t-74 36.5q-35 0 -60 -8.5t-61 -32.5l-26 185q74 62 213 62t218.5 -90t79.5 -255v-257h274v390h-71v192h691v-192h-358v-256q76 33 178 33
q227 0 363 -163l-67 -206q-145 150 -292 150q-101 0 -183 -67v-587l-261 -1v494z" />
    <glyph glyph-name="uF01EF" unicode="&#xf01ef;" horiz-adv-x="1043" 
d="M413 152q-199 0 -369 95l45 204q96 -45 152.5 -61t120.5 -16q85 0 139.5 50t54.5 134.5t-53 134t-148.5 49.5t-194.5 -46l-45 196q130 61 275 61t255 -71t151 -192h454v-215h-437q-24 -149 -134 -236t-266 -87zM1107 1096h-1137v192h1137v-192z" />
    <glyph glyph-name="uF01F0" unicode="&#xf01f0;" horiz-adv-x="1075" 
d="M319 -214l87 173l524 -245l-90 -170zM561 900h55v195h-647v192h1135v-192h-226v-402h-270q-125 0 -194 -58t-69 -156.5t78.5 -154t207.5 -56.5t273 42l27 -217q-137 -45 -293 -45l-2 -1q-258 0 -412 119.5t-152.5 318.5t130.5 307t359 108z" />
    <glyph glyph-name="uF01F1" unicode="&#xf01f1;" horiz-adv-x="1227" 
d="M301 -215l87 173l524 -245l-90 -170zM397 307.5q74 -61.5 195.5 -61.5t197.5 62.5t76 169.5q0 149 -106 218h-129q-150 0 -229 -59.5t-79 -163.5t74 -165.5zM55 494q0 182 146.5 293.5t385.5 111.5h182v197h-799v192h1287v-192h-225v-334q89 -122 91 -295
q0 -194 -138 -313t-384 -120t-396 125t-150 335z" />
    <glyph glyph-name="uF01F2" unicode="&#xf01f2;" horiz-adv-x="1118" 
d="M281 -245l87 173l524 -245l-90 -170zM572 14v-2q-150 0 -276 34t-214 87l56 203q95 -56 207 -90t207.5 -34t152.5 31t57 88q0 45 -32.5 72t-90.5 27q-122 0 -225 -59h-28q-123 43 -199.5 128.5t-76.5 201.5t85.5 183.5t256.5 67.5h211v143h-693v192h1178v-192h-226v-335
h-451q-119 0 -119 -94q0 -48 48 -81q130 51 256 51q169 0 265.5 -86.5t96.5 -226t-115.5 -224.5t-330.5 -85z" />
    <glyph glyph-name="uF01F3" unicode="&#xf01f3;" horiz-adv-x="1119" 
d="M294 -223l87 173l524 -245l-90 -170zM626 16q-253 0 -411 131t-158 347q0 191 133.5 304.5t376.5 113.5h94v184h-691v192h1179v-192h-225v-385h-317q-149 0 -221.5 -63.5t-72.5 -183t86 -190.5t228 -71q95 0 144.5 34t49.5 79q0 91 -113 91q-90 0 -195 -80l-86 159
q58 51 136 82t165 31q154 0 240.5 -78.5t86.5 -202.5q0 -139 -109.5 -220.5t-319.5 -81.5z" />
    <glyph glyph-name="uF01F4" unicode="&#xf01f4;" horiz-adv-x="951" 
d="M490 564q126 0 126 168v364h-247v-364q0 -81 32 -124.5t89 -43.5zM775.5 450.5q-102.5 -102.5 -276.5 -102.5t-283 104.5t-109 295.5v348h-137v192h1049v-192h-141v-354q0 -189 -102.5 -291.5z" />
    <glyph glyph-name="uF01F5" unicode="&#xf01f5;" horiz-adv-x="688" 
d="M520 892h428v-215h-362q-127 0 -190.5 -61t-63.5 -165q0 -176 158 -382l-215 -78q-98 119 -150 251.5t-52 257.5q0 177 115.5 284.5t331.5 107.5zM789 1096h-819v192h819v-192z" />
    <glyph glyph-name="uF01F6" unicode="&#xf01f6;" horiz-adv-x="945" 
d="M490.5 869q20.5 38 20.5 93.5t-31.5 89.5t-79.5 34t-74.5 -30.5t-26.5 -70.5t13 -87l-196 -21q-32 64 -32 152q1 107 84 179t234.5 72t244 -92.5t92.5 -244.5t-105.5 -257t-279.5 -125q46 -76 128.5 -114.5t198 -38.5t218.5 59.5t213 211.5l105 -202q-212 -282 -544 -282
v0q-298 0 -485 218q-94 110 -145 267l5 35q270 14 372 83q50 33 70.5 71z" />
    <glyph glyph-name="uF01F7" unicode="&#xf01f7;" horiz-adv-x="1086" 
d="M389 -318l87 173l524 -245l-90 -170zM601 102q-153 0 -274.5 51.5t-192 149t-70.5 224.5q0 175 124 273t365 98h75v198h-658v192h1146v-192h-225v-401h-285q-281 0 -281 -193q0 -88 64 -141t166 -54q-5 16 -5 46q1 64 49.5 105t146 41t171 -60t73.5 -135
q0 -110 -131 -162l123 -285l-238 -48l-113 293h-30z" />
    <glyph glyph-name="uF01F8" unicode="&#xf01f8;" horiz-adv-x="834" 
d="M553 137q-209 0 -332 104.5t-124 269.5q-1 148 134 247q-79 45 -124 114.5t-45 155.5q0 123 87 198.5t236 75.5t242 -48l-29 -179q-73 29 -156 29q-53 0 -84.5 -32t-31.5 -89.5t55.5 -96t128.5 -38.5h176l17 -203h-136q-95 0 -142.5 -38.5t-47.5 -105.5t52.5 -106.5
t137.5 -39.5q263 0 433 294l129 -223l-2 1q-74 -134 -219.5 -212t-354.5 -78z" />
    <glyph glyph-name="uF01F9" unicode="&#xf01f9;" horiz-adv-x="682" 
d="M285 263q-92 0 -166 107.5t-74 233.5q0 184 209 184h675v-220h-521v-163q0 -67 -31.5 -104.5t-91.5 -37.5zM768 1096h-798v192h798v-192z" />
    <glyph glyph-name="uF01FA" unicode="&#xf01fa;" horiz-adv-x="618" 
d="M100 1096h-129v192h730v-192h-338v-337q0 -183 140 -183q80 0 152.5 40.5t119.5 105.5l102 -220q-49 -55 -140 -92q-99 -40 -230 -40v0q-226 0 -333 163q-74 111 -74 292v271z" />
    <glyph glyph-name="uF01FB" unicode="&#xf01fb;" horiz-adv-x="1181" 
d="M938 0h-261v402q-68 -31 -165 -31q-188 0 -300.5 116t-112.5 338v271h-129v192h1278v-192h-310v-251q81 30 172 30q226 0 363 -163l-67 -206q-146 150 -291 150q-99 0 -177 -64v-592zM508 576q104 0 168 71v449h-314v-337q0 -183 146 -183z" />
    <glyph glyph-name="uF01FC" unicode="&#xf01fc;" horiz-adv-x="730" 
d="M514 369v1q13 0 35 2l-180 329q-66 -53 -66 -143t60 -139.5t151 -49.5zM510 746v-1q-13 0 -21 -1l183 -329q75 54 75 142t-66 138.5t-171 50.5zM858.5 269q-128.5 -109 -337 -109t-342.5 115t-134 292.5t121.5 281.5t329.5 104q110 0 203 -31.5t155.5 -85t97.5 -125.5
t35 -153q0 -180 -128.5 -289zM793 1288v-192h-816v192h816z" />
    <glyph glyph-name="uF01FD" unicode="&#xf01fd;" horiz-adv-x="800" 
d="M369 306v-1q-109 0 -205.5 84.5t-96.5 182.5q0 60 40.5 96.5t106.5 36.5h18v245q0 78 -27 115.5t-74 36.5q-35 0 -59.5 -8.5t-62.5 -32.5l-26 185q76 62 214 62t217.5 -90t79.5 -255v-257h489v-212h-489v-62q0 -60 -32 -93t-93 -33z" />
    <glyph glyph-name="uF01FE" unicode="&#xf01fe;" horiz-adv-x="817" 
d="M352 306q-114 0 -205.5 80t-91.5 187q0 60 41 96.5t106 36.5h18v390h-250v192h907v-192h-394v-390h518v-212h-518v-62q0 -59 -34.5 -92.5t-96.5 -33.5z" />
    <glyph glyph-name="uF01FF" unicode="&#xf01ff;" horiz-adv-x="773" 
d="M605 244q-125 0 -237.5 51t-201.5 153.5t-135 245.5l5 33q282 25 282 191q0 110 -104 176h-244v192h869v-192h-344q38 -40 60.5 -95t22.5 -114q0 -108 -65.5 -186t-170.5 -104q42 -69 106 -104t138 -35q104 0 182 50t156 173l119 -199q-155 -236 -438 -236z" />
    <glyph glyph-name="uF0200" unicode="&#xf0200;" horiz-adv-x="482" 
d="M722 441q-139 -66 -321.5 -66t-384.5 109l40 219q166 -82 326 -82q122 0 257 59zM521 1096h-551v192h551v-192z" />
    <glyph glyph-name="uF0201" unicode="&#xf0201;" horiz-adv-x="884" 
d="M53 -170l87 173l524 -245l-90 -170zM439 869v227h-469v192h944v-192h-212v-231q0 -320 -231 -397l307 -368l-188 -135l-623 743l181 141l170 -156q63 7 92 48t29 128z" />
    <glyph glyph-name="uF0202" unicode="&#xf0202;" horiz-adv-x="1078" 
d="M57 500q0 185 96.5 291.5t260.5 106.5q202 0 322 -137q115 134 282 134q105 0 187.5 -47.5t130.5 -122.5l-113 -178q-35 50 -84 83t-102 33q-68 0 -114 -64t-46 -186v-143h-256v178q-6 101 -52 157.5t-111 56.5t-106 -51t-41 -142.5t36.5 -180.5t116.5 -194l-209 -78
q-88 103 -143 231t-55 253zM1150 1096h-1180v192h1180v-192z" />
    <glyph glyph-name="uF0203" unicode="&#xf0203;" horiz-adv-x="1629" 
d="M346.5 303.5q47.5 -59.5 126.5 -59.5t125.5 59t46.5 179q0 232 -179 232q-76 0 -121.5 -59.5t-45.5 -175.5t47.5 -175.5zM1138 715h-1q-72 0 -118.5 -59t-46.5 -174t46 -174t123.5 -59t121.5 61.5t44 175t-45 171.5t-124 58zM1147 44q-100 0 -187 39t-147 115
q-49 -71 -134.5 -111t-200.5 -41q-183 -2 -299 119t-116 319t106 313.5t291 115.5q110 0 199.5 -43.5t147.5 -117.5q56 79 139 121t181 42q135 0 231 -60q183 -115 183 -374q0 -200 -104 -318.5t-290 -118.5zM1659 1288v-192h-1689v192h1689z" />
    <glyph glyph-name="uF0204" unicode="&#xf0204;" horiz-adv-x="724" 
d="M356 419.5q60 -49.5 156 -49.5t162 52.5t66 137.5t-66 135.5t-163.5 50.5t-156 -52t-58.5 -138.5t60 -136zM851.5 269q-128.5 -109 -337 -109t-342.5 115t-134 292.5t121.5 281.5t329.5 104q110 0 203 -31.5t155.5 -85t97.5 -125.5t35 -153q0 -180 -128.5 -289zM786 1288
v-192h-816v192h816z" />
    <glyph glyph-name="uF0205" unicode="&#xf0205;" horiz-adv-x="973" 
d="M291 303q-82 0 -132.5 46t-50.5 135t56.5 155t135.5 66q96 0 162 -82q176 89 176 286q0 85 -42 131t-105.5 46t-100.5 -41t-36 -109q0 -34 9 -84l-220 -26q-18 59 -22.5 92t-4.5 70q0 133 100.5 224t265.5 91q188 0 301 -111.5t113 -300.5q0 -142 -78.5 -269t-203.5 -211
l245 -308l-209 -114l-243 328q-61 -14 -116 -14z" />
    <glyph glyph-name="uF0206" unicode="&#xf0206;" horiz-adv-x="933" 
d="M288 191q-86 0 -134.5 43t-48.5 131.5t55.5 154.5t134.5 66q101 0 178 -99q125 54 125 160q0 62 -41 100t-102 38t-107.5 -8.5t-76 -19.5t-84.5 -35l-63 210q113 49 241 59v106h-395v192h1031v-192h-373v-124q111 -37 172 -124t61 -198.5t-67.5 -207.5t-178.5 -161
l187 -221l-209 -114l-195 254q-54 -10 -110 -10z" />
    <glyph glyph-name="uF0207" unicode="&#xf0207;" horiz-adv-x="601" 
d="M506 370q-187 0 -297 116t-110 339v271h-129v192h730v-192h-248l263 -438q36 31 60 64l102 -220q-51 -57 -147 -94.5t-224 -37.5zM362 759q0 -95 35 -139t96.5 -44t115.5 20l-247 413v-250z" />
    <glyph glyph-name="uF0208" unicode="&#xf0208;" horiz-adv-x="911" 
d="M402 868v227h-432v192h1031v-192h-336v-252q0 -75 -15 -148h483v-211h-647q-7 -3 -21.5 -8t-18.5 -7l268 -382l-203 -115l-534 752l183 131l148 -158v-1q48 13 71 54t23 118z" />
    <glyph glyph-name="uF0209" unicode="&#xf0209;" horiz-adv-x="928" 
d="M851 -282q-355 0 -540 126t-185 345q0 148 95 247q-133 102 -133 248q0 118 90 187.5t256 69.5h113v154h-577v192h1147v-192h-307v-358h-322q-138 0 -138 -96q0 -60 60 -93q94 27 207 27h543v-209h-503q-136 0 -202 -52.5t-66 -142.5q0 -118 110 -183q115 -67 383 -67
l-31 -201v-2z" />
    <glyph glyph-name="uF020A" unicode="&#xf020a;" horiz-adv-x="953" 
d="M489 86q-211 0 -335.5 94.5t-124.5 243.5q0 197 231 329q-117 107 -117 264q0 120 90 201t250 81t253.5 -82.5t93.5 -205t-85 -217.5q45 -4 104 -4h371v-206h-378q-198 0 -353 46q-113 -53 -154 -102.5t-41 -112.5t49 -98t120 -35q-4 15 -4 38q0 68 48.5 107.5t140 39.5
t159.5 -52.5t67 -125.5q-2 -92 -112 -148l94 -196l-218 -60l-89 203q-40 -2 -60 -2zM385 989v-1q0 -78 100 -131q62 34 88.5 67t26.5 78.5t-27.5 75t-76 29.5t-80 -32.5t-31.5 -85.5z" />
    <glyph glyph-name="uF020B" unicode="&#xf020b;" horiz-adv-x="942" 
d="M45.5 119q-78.5 46 -78.5 118.5t46.5 121t123.5 48.5q123 0 236 -116q58 16 91 60.5t33 115.5q0 85 -76.5 146t-195.5 61h-60v201h1017v-204h-510q90 -97 90 -231t-66 -225.5t-187 -126.5l135 -167l-199 -95l-197 247q-124 0 -202.5 46zM1023 1096h-1053v192h1053v-192z
" />
    <glyph glyph-name="uF020C" unicode="&#xf020c;" horiz-adv-x="1161" 
d="M346 81v-189h-229v189h229zM914 0h-263v202q-84 -42 -212 -42q-181 0 -298.5 110t-117.5 286.5t106 273t280 96.5q145 0 242 -39v209h-680v192h1252v-192h-309v-255q77 32 177 32q226 0 363 -163l-67 -206q-146 150 -291 150q-103 0 -182 -67v-587zM450 369h1
q120 0 200 72v228q-82 47 -192 47q-79 0 -126 -45.5t-47 -127.5t46 -128t118 -46z" />
    <glyph glyph-name="uF020D" unicode="&#xf020d;" horiz-adv-x="1321" 
d="M296 80v-189h-229v189h229zM1049.5 485.5q45.5 -41.5 117 -41.5t117.5 44t46 114.5t-45 115t-119 44.5t-118 -46t-44 -117.5t45.5 -113zM447 868v227h-476v192h1388v-192h-649v-231q0 -159 -55.5 -258t-177.5 -139l308 -368l-188 -135l-622 743l181 141l170 -156
q66 9 93.5 50t27.5 126zM1151 961q178 0 292.5 -105t114.5 -256.5t-109 -253.5t-283.5 -102t-290 105.5t-115.5 264.5t105 254t286 94v-1z" />
    <glyph glyph-name="uF020E" unicode="&#xf020e;" horiz-adv-x="665" 
d="M405 82v-189h-229v189h229zM343 334v1q-106 0 -199.5 86t-93.5 187q0 61 39.5 98t108.5 37h34v354h-262v192h755v-192h-231v-605q0 -76 -39.5 -117t-111.5 -41z" />
    <glyph glyph-name="uF020F" unicode="&#xf020f;" horiz-adv-x="949" 
d="M285 2v-189h-229v189h229zM375 70q-163 0 -333 75l42 197q127 -58 237 -58q83 1 133 47.5t50 133.5t-76.5 148t-196.5 61h-59v201h1016v-204h-509q90 -97 90 -237q0 -163 -104.5 -263.5t-289.5 -100.5zM1034 1096h-1064v192h1064v-192z" />
    <glyph glyph-name="uF0210" unicode="&#xf0210;" horiz-adv-x="1118" 
d="M347 -265l87 173l524 -245l-90 -170zM270 -51v-189h-229v189h229zM572 14v-2q-150 0 -276 34t-214 87l56 203q95 -56 207 -90t207.5 -34t152.5 31t57 88q0 45 -32.5 72t-90.5 27q-122 0 -225 -59h-28q-123 43 -199.5 128.5t-76.5 201.5t85.5 183.5t256.5 67.5h211v143
h-693v192h1178v-192h-226v-335h-451q-119 0 -119 -94q0 -48 48 -81q130 51 256 51q169 0 265.5 -86.5t96.5 -226t-115.5 -224.5t-330.5 -85z" />
    <glyph glyph-name="uF0211" unicode="&#xf0211;" horiz-adv-x="1119" 
d="M381 -263l87 173l524 -245l-90 -170zM320 -9v-189h-229v189h229zM626 16q-253 0 -411 131t-158 347q0 191 133.5 304.5t376.5 113.5h94v184h-691v192h1179v-192h-225v-385h-317q-149 0 -221.5 -63.5t-72.5 -183t86 -190.5t228 -71q95 0 144.5 34t49.5 79q0 91 -113 91
q-90 0 -195 -80l-86 159q58 51 136 82t165 31q154 0 240.5 -78.5t86.5 -202.5q0 -139 -109.5 -220.5t-319.5 -81.5z" />
    <glyph glyph-name="uF0212" unicode="&#xf0212;" horiz-adv-x="682" 
d="M375 81v-189h-229v189h229zM285 263q-92 0 -166 107.5t-74 233.5q0 184 209 184h675v-220h-521v-163q0 -67 -31.5 -104.5t-91.5 -37.5zM768 1096h-798v192h798v-192z" />
    <glyph glyph-name="uF0213" unicode="&#xf0213;" horiz-adv-x="1181" 
d="M386 81v-189h-229v189h229zM938 0h-261v402q-68 -31 -165 -31q-188 0 -300.5 116t-112.5 338v271h-129v192h1278v-192h-310v-251q81 30 172 30q226 0 363 -163l-67 -206q-146 150 -291 150q-99 0 -177 -64v-592zM508 576q104 0 168 71v449h-314v-337q0 -183 146 -183z
" />
    <glyph glyph-name="uF0214" unicode="&#xf0214;" horiz-adv-x="749" 
d="M385 81v-189h-229v189h229zM605 244q-125 0 -237.5 51t-201.5 153.5t-135 245.5l5 33q282 25 282 191q0 110 -104 176h-244v192h869v-192h-344q38 -40 60.5 -95t22.5 -114q0 -108 -65.5 -186t-170.5 -104q42 -69 106 -104t138 -35q104 0 182 50t156 173l119 -199
q-155 -236 -438 -236z" />
    <glyph glyph-name="uF0215" unicode="&#xf0215;" horiz-adv-x="482" 
d="M364 81v-189h-229v189h229zM722 441q-139 -66 -321.5 -66t-384.5 109l40 219q166 -82 326 -82q122 0 257 59zM521 1096h-551v192h551v-192z" />
    <glyph glyph-name="uF0216" unicode="&#xf0216;" horiz-adv-x="1629" 
d="M354 -29v-189h-229v189h229zM346.5 303.5q47.5 -59.5 126.5 -59.5t125.5 59t46.5 179q0 232 -179 232q-76 0 -121.5 -59.5t-45.5 -175.5t47.5 -175.5zM1138 715h-1q-72 0 -118.5 -59t-46.5 -174t46 -174t123.5 -59t121.5 61.5t44 175t-45 171.5t-124 58zM1147 44
q-100 0 -187 39t-147 115q-49 -71 -134.5 -111t-200.5 -41q-183 -2 -299 119t-116 319t106 313.5t291 115.5q110 0 199.5 -43.5t147.5 -117.5q56 79 139 121t181 42q135 0 231 -60q183 -115 183 -374q0 -200 -104 -318.5t-290 -118.5zM1659 1288v-192h-1689v192h1689z" />
    <glyph glyph-name="uF0217" unicode="&#xf0217;" horiz-adv-x="926" 
d="M375 70q-163 0 -333 75l42 197q127 -58 237 -58q84 1 133.5 46t49.5 130t-68.5 132.5t-197.5 47.5h-66v201h471q181 0 303 -30.5t225 -90.5l-89 -195q-150 101 -387 105q74 -82 74 -203q0 -157 -105 -257t-289 -100zM1010 1096h-1040v192h1040v-192z" />
    <glyph glyph-name="uF0218" unicode="&#xf0218;" horiz-adv-x="671" 
d="M536 634q-94 0 -149.5 -53t-55.5 -141t38 -175.5t121 -195.5l-215 -78q-202 245 -202 498q0 110 51.5 194t147.5 130t224 46q89 0 181 -22q171 -41 297 -132l-93 -194q-166 123 -345 123zM772 1096h-802v192h802v-192z" />
    <glyph glyph-name="uF0219" unicode="&#xf0219;" horiz-adv-x="926" 
d="M295 2v-189h-229v189h229zM375 70q-163 0 -333 75l42 197q127 -58 237 -58q84 1 133.5 46t49.5 130t-68.5 132.5t-197.5 47.5h-66v201h471q181 0 303 -30.5t225 -90.5l-89 -195q-150 101 -387 105q74 -82 74 -203q0 -157 -105 -257t-289 -100zM1010 1096h-1040v192h1040
v-192z" />
    <glyph glyph-name="uF021A" unicode="&#xf021a;" horiz-adv-x="1582" 
d="M651 1v195l-453 -287l-138 171l195 118q-108 45 -170 140.5t-62 225.5q0 171 106 267.5t280 96.5q145 0 242 -39v209h-680v192h1642v-192h-699v-234q85 27 181 27q174 0 289 -107t115 -279q0 -192 -126 -351l-250 50q113 156 113 301q0 77 -45.5 123.5t-120.5 46.5
t-156 -53v-621h-263zM450 370h1q87 0 152 38q11 6 20 13t16.5 12.5t11.5 8.5v228q-82 47 -192 47q-79 0 -126 -45.5t-47 -127.5t46 -128t118 -46z" />
    <glyph glyph-name="uF021B" unicode="&#xf021b;" horiz-adv-x="1777" 
d="M1319 0v195l-318 -266l-159 153l230 188q-134 22 -222.5 118.5t-88.5 243.5t100.5 239t251.5 92q117 0 206 -30v163h-617v-231q0 -320 -231 -397l307 -368l-188 -135l-623 743l181 141l170 -156q63 7 92 48t29 128v227h-469v192h1837v-192h-225v-1096h-263zM1162 467
q92 0 157 50v211q-40 22 -74.5 29.5t-91.5 7.5t-100 -40.5t-43 -109t46.5 -108.5t105.5 -40z" />
    <glyph glyph-name="uF021C" unicode="&#xf021c;" horiz-adv-x="1265" 
d="M807 0v222l-405 -287l-139 176l544 377v609h-313v-605q0 -76 -39.5 -117t-111.5 -41q-106 0 -199.5 86t-93.5 187q0 61 39.5 98t108.5 37h34v354h-262v192h1325v-192h-226v-1096h-262z" />
    <glyph glyph-name="uF021D" unicode="&#xf021d;" horiz-adv-x="1321" 
d="M863 1v186q-2 -1 -5.5 -1t-5.5 -1l-688 -313l-116 188l274 124q-107 45 -163.5 131t-55.5 199q1 74 38 138t101 110q-126 86 -126 231q0 57 18 104h-164v192h1381v-192h-226v-1096h-262zM863 1098h-326q-70 0 -107.5 -33.5t-37.5 -89.5t33 -88t95 -37h165l17 -203h-129
q-97 0 -144 -38.5t-47 -105t53.5 -105t143.5 -40.5q157 -1 284 82v658z" />
    <glyph glyph-name="uF021E" unicode="&#xf021e;" horiz-adv-x="1299" 
d="M345 245q112 -34 207.5 -34t152.5 31t57 88q0 45 -32.5 72t-90.5 27q-122 0 -225 -59h-28q-123 43 -199.5 128.5t-76.5 201.5t85.5 183.5t256.5 67.5h211v143h-693v192h1359v-192h-407v-335h-451q-119 0 -119 -94q0 -48 48 -81q130 51 256 51q169 0 265.5 -86.5
t96.5 -226.5q0 -119 -88 -200t-253 -102l316 -198l-122 -156l-328 204l-317 -203l-131 162l311 194q-190 28 -324 109l56 203q95 -56 207 -90zM1227 766v-195h-239v195h239z" />
    <glyph glyph-name="uF021F" unicode="&#xf021f;" horiz-adv-x="1350" 
d="M218 528q0 74 26 140h-224v204h739v-204h-84v-1q-95 0 -140 -42t-45 -111t48.5 -107.5t115.5 -39.5q135 -2 237 76v653h-921v192h1410v-192h-227v-1096h-262l-1 191l-654 -300l-116 181l289 133q-90 48 -140.5 131t-50.5 192z" />
    <glyph glyph-name="uF0220" unicode="&#xf0220;" horiz-adv-x="1478" 
d="M462.5 547.5q-45.5 -45.5 -45.5 -130t79.5 -141.5t212.5 -56q181 2 296 97.5t115 238.5q0 86 -35 130.5t-85 44.5q-75 0 -149 -44l-58 182q101 65 226 69v158h-481q-71 0 -107 -37t-36 -104t41.5 -113t106.5 -46h126l17 -203h-96q-82 0 -127.5 -45.5zM250 159.5
q-116 112.5 -116 280.5t137 270q-72 45 -111.5 114.5t-39.5 143.5t20 128h-171v192h1538v-192h-225v-265q94 -108 92 -285q-1 -196 -140.5 -342.5t-375.5 -183.5l316 -198l-122 -156l-329 207l-317 -203l-131 162l299 186q-208 29 -324 141.5z" />
    <glyph glyph-name="uF0221" unicode="&#xf0221;" horiz-adv-x="1431" 
d="M976 671h-298q90 -97 90 -237q0 -164 -101 -264t-278.5 -100t-347.5 75l42 197q127 -58 239 -58q83 1 132.5 47.5t49.5 133.5t-76.5 148t-196.5 61h-59v201h805v221h-1007v192h1491v-192h-225v-1096h-259l-1 66l-367 -273l-145 152l512 380v346z" />
    <glyph glyph-name="uF0222" unicode="&#xf0222;" horiz-adv-x="1726" 
d="M391 5q-123 0 -196 42.5t-73 112t45.5 114.5t122.5 45q120 0 234 -109h4q90 0 141 38.5t51 94.5q0 97 -113 99q-110 4 -212 -63h-28q-116 40 -196 130t-80 199.5t90 178.5t266 69h186v139h-663v192h1786v-192h-225v-1096h-263v164l-227 -304l-188 116l289 356h-159
q-3 -116 -90.5 -200t-242.5 -105l149 -185l-199 -95l-208 259h-1zM629 646q183 0 281 -109h358v559h-376v-333h-433q-59 0 -88.5 -24.5t-29.5 -65.5t38 -74q115 47 250 47z" />
    <glyph glyph-name="uF0223" unicode="&#xf0223;" horiz-adv-x="1681" 
d="M750 0v244l-366 -321l-175 156l500 415h-233v-62q0 -60 -32 -93t-93 -33q-110 0 -206 84.5t-96 182.5q0 60 40.5 96.5t105.5 36.5h18v245q0 78 -27 115.5t-74 36.5q-35 0 -60 -8.5t-61 -32.5l-26 185q74 62 213 62t218.5 -90t79.5 -255v-257h274v390h-71v192h1032v-192
h-699v-234q85 27 184 27q172 0 286.5 -107.5t114.5 -278.5q0 -192 -126 -351l-250 50q114 158 114 301q0 77 -45.5 123.5t-121 46.5t-156.5 -53v-621h-262z" />
    <glyph glyph-name="uF0224" unicode="&#xf0224;" horiz-adv-x="1515" 
d="M1057 528h-243q-24 -149 -134 -236t-266 -87q-200 0 -369 96l45 203q95 -44 151.5 -60t121.5 -16q85 0 139.5 49.5t54.5 134.5t-53 134.5t-147 49.5t-196 -46l-45 196q132 60 276 60t253 -70t151 -192h260v352h-1086v192h1575v-192h-226v-1096h-263l1 175l-410 -279
l-152 165l562 375v92z" />
    <glyph glyph-name="uF0225" unicode="&#xf0225;" horiz-adv-x="1075" 
d="M562 900h55v195h-647v192h1135v-192h-226v-402h-270q-125 0 -194 -58t-69 -156.5t78.5 -154t207.5 -56.5t273 42l27 -217q-126 -40 -252 -44l353 -221l-122 -156l-328 206l-317 -203l-131 162l356 221q-196 33 -308 146.5t-111 285.5q2 194 131 302t359 108z" />
    <glyph glyph-name="uF0226" unicode="&#xf0226;" horiz-adv-x="1227" 
d="M397 306.5q74 -61.5 195.5 -61.5t197.5 62.5t76 169.5q0 149 -106 218h-129q-150 0 -229 -59.5t-79 -163.5t74 -165.5zM170.5 190q-115.5 121 -115.5 303.5t146.5 294t385.5 111.5h182v197h-799v192h1287v-192h-225v-334q89 -122 91 -295q0 -173 -112 -288.5t-309 -138.5
l348 -218l-122 -156l-328 206l-317 -203l-131 162l337 210q-203 28 -318.5 149z" />
    <glyph glyph-name="uF0227" unicode="&#xf0227;" horiz-adv-x="1118" 
d="M345 245q112 -34 207.5 -34t152.5 31t57 88q0 45 -32.5 72t-90.5 27q-122 0 -225 -59h-28q-123 43 -199.5 128.5t-76.5 201.5t85.5 183.5t256.5 67.5h211v143h-693v192h1178v-192h-226v-335h-451q-119 0 -119 -94q0 -48 48 -81q130 51 256 51q169 0 265.5 -86.5
t96.5 -226.5q0 -116 -83 -196.5t-241 -103.5l320 -200l-122 -156l-328 204l-317 -203l-131 162l308 192q-203 26 -342 111l56 203q95 -56 207 -90z" />
    <glyph glyph-name="uF0228" unicode="&#xf0228;" horiz-adv-x="1119" 
d="M166 194q-109 122 -109 306t133.5 297.5t376.5 113.5h94v184h-691v192h1179v-192h-225v-385h-317q-149 0 -221.5 -63.5t-72.5 -183t86 -190.5t228 -71q95 0 144.5 34t49.5 80q0 90 -113 90q-90 0 -195 -80l-86 159q58 51 136 82t165 31q154 0 240.5 -78.5t86.5 -201.5
t-86 -201.5t-253 -96.5l317 -198l-122 -156l-328 206l-317 -203l-131 162l323 201q-183 40 -292 162z" />
    <glyph glyph-name="uF0229" unicode="&#xf0229;" horiz-adv-x="1569" 
d="M1111 0v229l-446 -300l-149 182l595 389v596h-233v-354q0 -189 -102.5 -291.5t-276.5 -102.5t-283 104.5t-109 295.5v348h-137v192h1629v-192h-225v-1096h-263zM490 564q126 0 126 168v364h-247v-364q0 -81 32 -124.5t89 -43.5z" />
    <glyph glyph-name="uF022A" unicode="&#xf022a;" horiz-adv-x="1140" 
d="M684 0v357l-432 -259l-148 212l510 287l-25 15q-161 96 -278.5 96t-259.5 -77l-52 241q127 75 292.5 75t338.5 -98l54 -30v277h-714v192h1202v-192h-226v-1096h-262z" />
    <glyph glyph-name="uF022B" unicode="&#xf022b;" horiz-adv-x="1347" 
d="M490.5 868q20.5 38 20.5 93.5t-31.5 89.5t-79 34t-74.5 -30.5t-27 -71.5t14 -86l-197 -21q-32 71 -31 152q1 107 83.5 179t234 72t244 -92.5t92.5 -246t-106.5 -257.5t-282.5 -122q43 -81 122 -123t176 -42q133 0 241 72v628h-64v192h552v-192h-225v-1096h-263l1 219
l-628 -327l-132 185l294 149q-281 104 -380 453l5 35q270 14 371 82q50 34 70.5 72z" />
    <glyph glyph-name="uF022C" unicode="&#xf022c;" horiz-adv-x="1086" 
d="M64 527q0 175 124 273t365 98h75v198h-658v192h1146v-192h-225v-401h-285q-281 0 -281 -193q0 -88 64 -141t166 -54q-5 16 -5 46q1 64 49.5 105t146 41t171 -60t73.5 -135q0 -110 -131 -162l123 -285l-238 -48l-106 277l-490 -236l-123 199l266 122q-106 55 -166.5 146.5
t-60.5 209.5z" />
    <glyph glyph-name="uF022D" unicode="&#xf022d;" horiz-adv-x="1330" 
d="M872 0v188l-692 -314l-116 188l267 120q-109 45 -167.5 131.5t-57.5 200.5q1 72 36 134.5t96 107.5q-79 45 -124.5 115t-45.5 156q0 123 88.5 198.5t233.5 75.5t243 -47l-29 -179q-76 29 -153 29q-54 0 -86 -31.5t-32 -89t55 -96.5t127 -39h178l18 -203h-134
q-97 0 -144.5 -38.5t-47.5 -105t54 -105.5t144 -39q168 0 289 79v660h-68v192h556v-192h-226v-1096h-262z" />
    <glyph glyph-name="uF022E" unicode="&#xf022e;" horiz-adv-x="1175" 
d="M717 0v153l-361 -227l-134 180l495 301v204h-309v-162q0 -67 -31.5 -104.5t-92 -37.5t-116.5 51t-89.5 129.5t-33.5 159.5q0 184 209 184h463v265h-747v192h1235v-192h-226v-1096h-262z" />
    <glyph glyph-name="uF022F" unicode="&#xf022f;" horiz-adv-x="1134" 
d="M676 0v327l-420 -389l-171 161l317 284q-141 31 -222 143t-81 299v271h-129v192h1194v-192h-226v-1096h-262zM508 576q106 0 168 71v449h-314v-337q0 -183 146 -183z" />
    <glyph glyph-name="uF0230" unicode="&#xf0230;" horiz-adv-x="1601" 
d="M676 0v327l-420 -389l-171 161l317 284q-141 31 -222 143t-81 299v271h-129v192h1669v-192h-701v-235q84 28 185 28q172 0 286.5 -107.5t114.5 -278.5q0 -192 -126 -351l-250 50q114 158 114 301q0 77 -46 123.5t-122.5 46.5t-155.5 -53v-620h-262zM508 576q106 0 168 71
v449h-314v-337q0 -183 146 -183z" />
    <glyph glyph-name="uF0231" unicode="&#xf0231;" horiz-adv-x="1156" 
d="M697 -1v191l-547 -285l-125 191l239 117q-105 49 -166 143t-61 218q0 170 115 270t298 100q144 0 247 -41v192h-728v192h1216v-192h-225v-1096h-263zM497 373q12 0 34 2l-176 320q-55 -50 -55 -139.5t54 -136t143 -46.5zM492 743l-1 -1h-15l182 -329q21 10 40 27v258
q-87 45 -206 45z" />
    <glyph glyph-name="uF0232" unicode="&#xf0232;" horiz-adv-x="1208" 
d="M750 0v243l-366 -321l-175 156l500 415h-233v-62q0 -60 -32 -93t-93 -33q-110 0 -206 84.5t-96 182.5q0 60 40.5 96.5t105.5 36.5h18v245q0 78 -27 115.5t-74 36.5q-35 0 -60 -8.5t-61 -32.5l-26 185q74 62 213 62t218.5 -90t79.5 -255v-257h274v390h-71v192h559v-192
h-226v-1096h-262z" />
    <glyph glyph-name="uF0233" unicode="&#xf0233;" horiz-adv-x="1241" 
d="M783 0v273l-399 -350l-175 156l500 415h-226v-62q0 -59 -34.5 -92.5t-96.5 -33.5q-114 0 -205.5 80t-91.5 187q0 60 41 96.5t106 36.5h18v390h-250v192h1301v-192h-225v-1096h-263zM783 1096h-300v-390h300v390z" />
    <glyph glyph-name="uF0234" unicode="&#xf0234;" horiz-adv-x="1243" 
d="M785 0v258l-540 -334l-137 175l300 181q-130 48 -228.5 154t-148.5 262l5 33q282 25 282 191q0 110 -104 176h-244v192h1303v-192h-225v-1096h-263zM603 454q108 0 182 55v587h-290q38 -40 60.5 -95t22.5 -114q0 -105 -64 -183t-166 -105q46 -73 112 -109t143 -36z" />
    <glyph glyph-name="uF0235" unicode="&#xf0235;" horiz-adv-x="889" 
d="M667 -334l-328 207l-317 -203l-131 162l379 236h126l393 -246zM444 869v227h-469v192h944v-192h-212v-231q0 -320 -231 -397l307 -368l-188 -135l-623 743l181 141l170 -156q63 7 92 48t29 128z" />
    <glyph glyph-name="uF0236" unicode="&#xf0236;" horiz-adv-x="1596" 
d="M1137 0v132l-409 -282l-153 167l562 382v241q-50 23 -97 23q-71 0 -117 -66t-46 -184v-143h-256v178q-6 101 -51.5 157.5t-110 56.5t-106.5 -51t-42 -142.5t36.5 -180.5t116.5 -194l-211 -76q-88 102 -142.5 231t-54.5 254q0 184 97.5 290.5t260.5 106.5q203 0 322 -137
q55 63 128 98.5t144.5 35.5t128.5 -13v212h-1167v192h1656v-192h-226v-1096h-263z" />
    <glyph glyph-name="uF0237" unicode="&#xf0237;" horiz-adv-x="1483" 
d="M1041 -336l-328 207l-317 -203l-131 162l379 236h126l393 -246zM59 500q0 183 97 286.5t257 103.5q186 0 305 -128q107 128 280 128q18 0 26 -1v205h-1054v192h1543v-192h-225v-312q112 -109 112 -301q0 -223 -167 -440l-218 71q74 115 104.5 193.5t30.5 174t-34.5 143
t-101 47.5t-107.5 -65.5t-41 -191.5v-143h-256v161q0 16 2 46q-12 88 -56.5 136t-106 48t-100.5 -51t-39 -141.5t38.5 -178.5t118.5 -197l-209 -78q-88 102 -143.5 231t-55.5 254z" />
    <glyph glyph-name="uF0238" unicode="&#xf0238;" horiz-adv-x="1629" 
d="M346.5 303.5q47.5 -59.5 126.5 -59.5t125.5 59t46.5 179q0 232 -179 232q-76 0 -121.5 -59.5t-45.5 -175.5t47.5 -175.5zM1138 715h-1q-72 0 -118.5 -59t-46.5 -174t46 -174t123.5 -59t121.5 61.5t44 175t-45 171.5t-124 58zM179 165q-116 121 -116 319t106 313.5
t291 115.5q110 0 199.5 -43.5t147.5 -117.5q56 79 139 121t181 42q17 0 43 -2v183h-1200v192h1689v-192h-226v-303q108 -119 108 -307.5t-88.5 -304.5t-249.5 -134l360 -225l-122 -156l-328 207l-317 -203l-131 162l364 227q-133 34 -216 139q-49 -71 -134.5 -111
t-200.5 -41q-183 -2 -299 119z" />
    <glyph glyph-name="uF0239" unicode="&#xf0239;" horiz-adv-x="1156" 
d="M698 0v191l-547 -285l-125 191l239 117q-105 49 -166 143t-61 218q0 170 115 270t298 100q144 0 247 -41v192h-728v192h1216v-192h-225v-1096h-263zM498 374q118 0 200 66v258q-87 45 -206 45q-87 0 -139 -50t-52 -138t54 -134.5t143 -46.5z" />
    <glyph glyph-name="uF023A" unicode="&#xf023a;" horiz-adv-x="1423" 
d="M365 991v-1q0 -89 113 -142q62 43 83 74t21 78.5t-30 77.5t-78.5 30t-78.5 -32t-30 -85zM817 586q-156 0 -285 31l-394 -241l-122 198l264 156q-152 115 -152 286q0 120 88.5 202t246 82t252 -87t94.5 -203.5t-72 -215.5q50 -2 79 -2h149v304h-70v192h558v-192h-225
v-1096h-263l1 372l-505 -358l-140 185l558 387h-62z" />
    <glyph glyph-name="uF023B" unicode="&#xf023b;" horiz-adv-x="1134" 
d="M676 0v327l-420 -389l-171 161l317 284q-141 31 -222 143t-81 299v271h-129v192h1194v-192h-226v-1096h-262zM508 576q43 0 76 11l-222 402v-230q0 -183 146 -183zM676 1096h-228l228 -410v410z" />
    <glyph glyph-name="uF023C" unicode="&#xf023c;" horiz-adv-x="1448" 
d="M401 870v227h-432v192h1508v-192h-226v-1096h-262v374l-188 -189l-167 148l215 199h-292q-43 -40 -111 -63l268 -382l-203 -115l-535 753l183 131l148 -158v-1q48 13 71 54t23 118zM665 845q0 -71 -9 -116h334v367h-325v-251z" />
    <glyph glyph-name="uF023D" unicode="&#xf023d;" horiz-adv-x="1116" 
d="M127 192q0 139 93 249q-131 100 -131 244q0 118 90 187.5t256 69.5h224v154h-688v192h1176v-192h-225v-358h-433q-138 0 -138 -96q0 -49 42 -82q92 36 198 36q199 0 325.5 -105t126.5 -256q0 -45 -5 -71.5t-22 -77.5l-216 23q13 51 13 106.5t-31 97.5l-147 -259l-179 87
l146 250h-9q-92 -2 -152.5 -63.5t-60.5 -156.5q0 -125 118.5 -187.5t383.5 -62.5l-30 -200q-355 0 -540 126t-185 345z" />
    <glyph glyph-name="uF023E" unicode="&#xf023e;" horiz-adv-x="1650" 
d="M436 84q-193 0 -302.5 89t-109.5 239q0 101 64 187.5t174 152.5q-118 107 -118 265q0 120 90 201t250 81t253.5 -82.5t93.5 -205t-85 -217.5q45 -4 104 -4h342v304h-167v192h655v-192h-225v-1096h-263v282l-176 -257l-175 121l309 440h-307q-198 0 -353 46
q-115 -54 -162 -107.5t-47 -116t38.5 -94.5t90.5 -32q-4 15 -4 39q0 67 48 106t140 39t156 -51.5t64 -125.5q-1 -94 -105 -149l93 -195l-216 -59l-89 202q-40 -2 -61 -2zM385 989v-1q0 -78 100 -131q62 34 88.5 67t26.5 78.5t-27.5 75t-76 29.5t-80 -32.5t-31.5 -85.5z" />
    <glyph glyph-name="uF023F" unicode="&#xf023f;" horiz-adv-x="1499" 
d="M59 120q-78 46 -78 118.5t46.5 121t123.5 48.5q120 0 232 -112q121 33 121 174q0 85 -76.5 146t-196.5 61h-59v201h873v218h-1075v192h1559v-192h-226v-1096h-258v232l-181 -260l-179 117l360 492v93h-366q90 -97 90 -231.5t-64 -226.5t-184 -126l136 -169l-199 -95
l-197 248q-124 0 -202 46z" />
    <glyph glyph-name="uF0240" unicode="&#xf0240;" horiz-adv-x="1602" 
d="M671 0v195l-453 -287l-138 171l195 118q-108 45 -170 140.5t-62 225.5q0 171 106 267.5t280 96.5q145 0 242 -39v209h-680v192h1642v-192h-699v-234q85 27 181 27q174 0 289 -107t115 -279q0 -192 -126 -351l-250 50q113 156 113 301q0 77 -45.5 123.5t-120.5 46.5
t-156 -53v-621h-263zM105 291v-189h-229v189h229zM470 369h1q87 0 152 38q10 6 19.5 13t17 12.5t11.5 8.5v228q-82 47 -192 47q-79 0 -126 -45.5t-47 -127.5t46 -128t118 -46z" />
    <glyph glyph-name="uF0241" unicode="&#xf0241;" horiz-adv-x="1777" 
d="M315 81v-189h-229v189h229zM1319 0v195l-318 -266l-159 153l230 188q-134 22 -222.5 118.5t-88.5 243.5t100.5 239t251.5 92q117 0 206 -30v163h-617v-231q0 -320 -231 -397l307 -368l-188 -135l-623 743l181 141l170 -156q63 7 92 48t29 128v227h-469v192h1837v-192
h-225v-1096h-263zM1162 467q92 0 157 50v211q-40 22 -74.5 29.5t-91.5 7.5t-100 -40.5t-43 -109t46.5 -108.5t105.5 -40z" />
    <glyph glyph-name="uF0242" unicode="&#xf0242;" horiz-adv-x="1265" 
d="M807 0v222l-405 -287l-139 176l544 377v609h-313v-605q0 -76 -39.5 -117t-111.5 -41q-106 0 -199.5 86t-93.5 187q0 61 39.5 98t108.5 37h34v354h-262v192h1325v-192h-226v-1096h-262zM245 331v-189h-229v189h229z" />
    <glyph glyph-name="uF0243" unicode="&#xf0243;" horiz-adv-x="1431" 
d="M314 41v-189h-229v189h229zM976 671h-298q90 -97 90 -237q0 -164 -101 -264t-278.5 -100t-347.5 75l42 197q127 -58 239 -58q83 1 132.5 47.5t49.5 133.5t-76.5 148t-196.5 61h-59v201h805v221h-1007v192h1491v-192h-225v-1096h-259l-1 66l-367 -273l-145 152l512 380
v346z" />
    <glyph glyph-name="uF0244" unicode="&#xf0244;" horiz-adv-x="1122" 
d="M139 78v-189h-229v189h229zM349 245q112 -34 207.5 -34t152.5 31t57 88q0 45 -32.5 72t-90.5 27q-122 0 -225 -59h-28q-123 43 -199.5 128.5t-76.5 201.5t85.5 183.5t256.5 67.5h211v143h-693v192h1178v-192h-226v-335h-451q-119 0 -119 -94q0 -48 48 -81q130 51 256 51
q169 0 265.5 -86.5t96.5 -226.5q0 -116 -83 -196.5t-241 -103.5l320 -200l-122 -156l-328 204l-317 -203l-131 162l308 192q-203 26 -342 111l56 203q95 -56 207 -90z" />
    <glyph glyph-name="uF0245" unicode="&#xf0245;" horiz-adv-x="1119" 
d="M215 99v-189h-229v189h229zM166 194q-109 122 -109 306t133.5 297.5t376.5 113.5h94v184h-691v192h1179v-192h-225v-385h-317q-149 0 -221.5 -63.5t-72.5 -183t86 -190.5t228 -71q95 0 144.5 34t49.5 80q0 90 -113 90q-90 0 -195 -80l-86 159q58 51 136 82t165 31
q154 0 240.5 -78.5t86.5 -201.5t-86 -201.5t-253 -96.5l317 -198l-122 -156l-328 206l-317 -203l-131 162l323 201q-183 40 -292 162z" />
    <glyph glyph-name="uF0246" unicode="&#xf0246;" horiz-adv-x="1175" 
d="M716 611h-309v-162q0 -67 -31.5 -104.5t-91.5 -37.5q-20 0 -49 9v-164h-229v189h183q-62 45 -103 130.5t-41 175.5q0 184 209 184h463v265h-747v192h1235v-192h-226v-1096h-262l-1 153l-361 -227l-134 180l495 301v204z" />
    <glyph glyph-name="uF0247" unicode="&#xf0247;" horiz-adv-x="1601" 
d="M676 0v327l-420 -389l-171 161l317 284q-141 31 -222 143t-81 299v271h-129v192h1669v-192h-701v-235q84 28 185 28q172 0 286.5 -107.5t114.5 -278.5q0 -192 -126 -351l-250 50q114 158 114 301q0 77 -46 123.5t-122.5 46.5t-155.5 -53v-620h-262zM175 371v-189h-229
v189h229zM508 576q106 0 168 71v449h-314v-337q0 -183 146 -183z" />
    <glyph glyph-name="uF0248" unicode="&#xf0248;" horiz-adv-x="1243" 
d="M785 0v258l-540 -334l-137 175l300 181q-130 48 -228.5 154t-148.5 262l5 33q282 25 282 191q0 110 -104 176h-244v192h1303v-192h-225v-1096h-263zM195 341v-189h-229v189h229zM603 454q108 0 182 55v587h-290q38 -40 60.5 -95t22.5 -114q0 -105 -64 -183t-166 -105
q46 -73 112 -109t143 -36z" />
    <glyph glyph-name="uF0249" unicode="&#xf0249;" horiz-adv-x="893" 
d="M671 -334l-328 207l-317 -203l-131 162l379 236h126l393 -246zM139 261v-189h-229v189h229zM448 869v227h-469v192h944v-192h-212v-231q0 -320 -231 -397l307 -368l-188 -135l-623 743l181 141l170 -156q63 7 92 48t29 128z" />
    <glyph glyph-name="uF024A" unicode="&#xf024a;" horiz-adv-x="1629" 
d="M314 21v-189h-229v189h229zM346.5 303.5q47.5 -59.5 126.5 -59.5t125.5 59t46.5 179q0 232 -179 232q-76 0 -121.5 -59.5t-45.5 -175.5t47.5 -175.5zM1138 715h-1q-72 0 -118.5 -59t-46.5 -174t46 -174t123.5 -59t121.5 61.5t44 175t-45 171.5t-124 58zM179 165
q-116 121 -116 319t106 313.5t291 115.5q110 0 199.5 -43.5t147.5 -117.5q56 79 139 121t181 42q17 0 43 -2v183h-1200v192h1689v-192h-226v-303q108 -119 108 -307.5t-88.5 -304.5t-249.5 -134l360 -225l-122 -156l-328 207l-317 -203l-131 162l364 227q-133 34 -216 139
q-49 -71 -134.5 -111t-200.5 -41q-183 -2 -299 119z" />
    <glyph glyph-name="uF024B" unicode="&#xf024b;" horiz-adv-x="1161" 
d="M651 -1v195l-453 -287l-138 171l194 117q-107 46 -169 141t-62 225q0 171 106 267.5t280 96.5q145 0 242 -39v209h-680v192h1252v-192h-309v-255q77 32 177 32q226 0 363 -163l-67 -206q-146 150 -291 150q-103 0 -182 -67v-587h-263zM459 716q-79 0 -126 -45.5
t-47 -127.5t46 -128t118 -46l1 -1q78 0 138 30l39 23q4 4 11.5 10t11.5 10v228q-82 47 -192 47z" />
    <glyph glyph-name="uF024C" unicode="&#xf024c;" horiz-adv-x="1321" 
d="M1049.5 486.5q45.5 -41.5 117 -41.5t117.5 44t46 114.5t-45 115t-119 44.5t-118 -46t-44 -117.5t45.5 -113zM447 869v227h-476v192h1388v-192h-649v-231q0 -159 -55.5 -258t-177.5 -139l308 -368l-188 -135l-622 743l181 141l170 -156q66 9 93.5 50t27.5 126zM760 616
q0 158 105 253t284.5 94.5t294 -105.5t114.5 -263t-126 -263l-418 -403l-158 153l190 179q-130 33 -208 129.5t-78 225.5z" />
    <glyph glyph-name="uF024D" unicode="&#xf024d;" horiz-adv-x="665" 
d="M847 516l133 -172l-578 -409l-139 176zM343 334v1q-106 0 -199.5 86t-93.5 187q0 61 39.5 98t108.5 37h34v354h-262v192h755v-192h-231v-605q0 -76 -39.5 -117t-111.5 -41z" />
    <glyph glyph-name="uF024E" unicode="&#xf024e;" horiz-adv-x="885" 
d="M101 508q0 77 37 142t102 111q-126 86 -126 231q0 58 18 104h-167v192h984v-192h-414q-70 0 -107.5 -33.5t-37.5 -89.5t33 -88t95 -37h166l17 -203h-131q-94 0 -141.5 -37.5t-47.5 -104.5t52.5 -108t140.5 -41q263 0 433 295l128 -223q-91 -168 -281 -240l-685 -312
l-117 187l267 120q-104 47 -161 132.5t-57 194.5z" />
    <glyph glyph-name="uF024F" unicode="&#xf024f;" horiz-adv-x="1299" 
d="M398 -435l87 173l524 -245l-90 -170zM345 245q112 -34 207.5 -34t152.5 31t57 88q0 45 -32.5 72t-90.5 27q-122 0 -225 -59h-28q-123 43 -199.5 128.5t-76.5 201.5t85.5 183.5t256.5 67.5h211v143h-693v192h1359v-192h-407v-335h-451q-119 0 -119 -94q0 -48 48 -81
q130 51 256 51q169 0 265.5 -86.5t96.5 -226.5q0 -119 -88 -200t-253 -102l316 -198l-122 -156l-328 204l-317 -203l-131 162l311 194q-190 28 -324 109l56 203q95 -56 207 -90zM1227 766v-195h-239v195h239z" />
    <glyph glyph-name="uF0250" unicode="&#xf0250;" horiz-adv-x="899" 
d="M219 527q0 74 26 140h-224v204h739v-204h-84v-1q-95 0 -140 -42t-45 -111t48.5 -107.5t125.5 -39.5q102 -1 192.5 65t175.5 217l143 -200q-81 -176 -264 -251l-672 -303l-116 178l289 131q-91 48 -142.5 131t-51.5 193zM957 1096h-987v192h987v-192z" />
    <glyph glyph-name="uF0251" unicode="&#xf0251;" horiz-adv-x="1478" 
d="M577 -434l87 173l524 -245l-90 -170zM462.5 547.5q-45.5 -45.5 -45.5 -130t79.5 -141.5t212.5 -56q181 2 296 97.5t115 238.5q0 86 -35 130.5t-85 44.5q-75 0 -149 -44l-58 182q101 65 226 69v158h-481q-71 0 -107 -37t-36 -104t41.5 -113t106.5 -46h126l17 -203h-96
q-82 0 -127.5 -45.5zM250 159.5q-116 112.5 -116 280.5t137 270q-72 45 -111.5 114.5t-39.5 143.5t20 128h-171v192h1538v-192h-225v-265q94 -108 92 -285q-1 -196 -140.5 -342.5t-375.5 -183.5l316 -198l-122 -156l-329 207l-317 -203l-131 162l299 186q-208 29 -324 141.5
z" />
    <glyph glyph-name="uF0252" unicode="&#xf0252;" horiz-adv-x="949" 
d="M375 70q-163 0 -333 75l42 197q127 -58 237 -58q83 1 133 47.5t50 133.5t-76.5 148t-196.5 61h-59v201h1016v-204h-509q90 -97 90 -237q0 -163 -104.5 -263.5t-289.5 -100.5zM1084 405l140 -155l-614 -457l-145 152zM1034 1096h-1064v192h1064v-192z" />
    <glyph glyph-name="uF0253" unicode="&#xf0253;" horiz-adv-x="1098" 
d="M388 6q-123 0 -196 42.5t-73 112t45 114.5t123 45q119 0 235 -109h6q91 0 145 38.5t54 90.5q0 101 -113 103q-67 2 -116 -12.5t-103 -50.5h-28q-116 40 -196 130t-80 199.5t90 178.5t266 69h186v139h-663v192h1190v-192h-268v-333h-433q-59 0 -88.5 -24.5t-29.5 -65.5
t38 -74q115 47 250 47q194 0 294 -119h449v-191l14 -20l-345 -456l-188 116l277 346h-142q-6 -122 -94.5 -200.5t-245.5 -97.5l148 -183l-199 -95l-208 260h-1z" />
    <glyph glyph-name="uF0254" unicode="&#xf0254;" horiz-adv-x="1261" 
d="M477 493v-62q0 -60 -32 -93t-93 -33q-110 0 -206 84.5t-96 182.5q0 60 40.5 96.5t105.5 36.5h18v245q0 78 -27 115.5t-74 36.5q-35 0 -60 -8.5t-61 -32.5l-26 185q74 62 213 62t218.5 -90t79.5 -255v-257h274v390h-71v192h691v-192h-358v-256q76 33 178 33
q227 0 363 -163l-67 -206q-145 150 -292 150q-101 0 -183 -67v-587h-262l1 243l-366 -321l-175 156l500 415h-233z" />
    <glyph glyph-name="uF0255" unicode="&#xf0255;" horiz-adv-x="1022" 
d="M415 205q-201 0 -370 96l45 203q95 -44 151.5 -60t132 -16t130 49.5t54.5 134.5t-53.5 134.5t-148 49.5t-195.5 -46l-45 196q130 60 275 60t254.5 -70t151.5 -192h454v-216h-17l88 -186l-653 -446l-151 165l696 467h-399q-24 -149 -134 -236t-266 -87zM1067 1096h-1097
v192h1097v-192z" />
    <glyph glyph-name="uF0256" unicode="&#xf0256;" horiz-adv-x="1075" 
d="M446 -427l87 173l524 -245l-90 -170zM562 900h55v195h-647v192h1135v-192h-226v-402h-270q-125 0 -194 -58t-69 -156.5t78.5 -154t207.5 -56.5t273 42l27 -217q-126 -40 -252 -44l353 -221l-122 -156l-328 206l-317 -203l-131 162l356 221q-196 33 -308 146.5t-111 285.5
q2 194 131 302t359 108z" />
    <glyph glyph-name="uF0257" unicode="&#xf0257;" horiz-adv-x="1227" 
d="M449 -428l87 173l524 -245l-90 -170zM397 306.5q74 -61.5 195.5 -61.5t197.5 62.5t76 169.5q0 149 -106 218h-129q-150 0 -229 -59.5t-79 -163.5t74 -165.5zM170.5 190q-115.5 121 -115.5 303.5t146.5 294t385.5 111.5h182v197h-799v192h1287v-192h-225v-334
q89 -122 91 -295q0 -173 -112 -288.5t-309 -138.5l348 -218l-122 -156l-328 206l-317 -203l-131 162l337 210q-203 28 -318.5 149z" />
    <glyph glyph-name="uF0258" unicode="&#xf0258;" horiz-adv-x="1118" 
d="M416 -444l87 173l524 -245l-90 -170zM345 245q112 -34 207.5 -34t152.5 31t57 88q0 45 -32.5 72t-90.5 27q-122 0 -225 -59h-28q-123 43 -199.5 128.5t-76.5 201.5t85.5 183.5t256.5 67.5h211v143h-693v192h1178v-192h-226v-335h-451q-119 0 -119 -94q0 -48 48 -81
q130 51 256 51q169 0 265.5 -86.5t96.5 -226.5q0 -116 -83 -196.5t-241 -103.5l320 -200l-122 -156l-328 204l-317 -203l-131 162l308 192q-203 26 -342 111l56 203q95 -56 207 -90z" />
    <glyph glyph-name="uF0259" unicode="&#xf0259;" horiz-adv-x="1119" 
d="M448 -431l87 173l524 -245l-90 -170zM166 194q-109 122 -109 306t133.5 297.5t376.5 113.5h94v184h-691v192h1179v-192h-225v-385h-317q-149 0 -221.5 -63.5t-72.5 -183t86 -190.5t228 -71q95 0 144.5 34t49.5 80q0 90 -113 90q-90 0 -195 -80l-86 159q58 51 136 82
t165 31q154 0 240.5 -78.5t86.5 -201.5t-86 -201.5t-253 -96.5l317 -198l-122 -156l-328 206l-317 -203l-131 162l323 201q-183 40 -292 162z" />
    <glyph glyph-name="uF025A" unicode="&#xf025a;" horiz-adv-x="951" 
d="M1148 524l139 -176l-622 -419l-149 182zM490 564q126 0 126 168v364h-247v-364q0 -81 32 -124.5t89 -43.5zM775.5 450.5q-102.5 -102.5 -276.5 -102.5t-283 104.5t-109 295.5v348h-137v192h1049v-192h-141v-354q0 -189 -102.5 -291.5z" />
    <glyph glyph-name="uF025B" unicode="&#xf025b;" horiz-adv-x="677" 
d="M589 612q-161 96 -275.5 96t-256.5 -77l-51 241q127 75 289 75t335 -98l181 -102v-42l1 1l70 -230l-630 -378l-148 212l512 286zM807 1096h-837v192h837v-192z" />
    <glyph glyph-name="uF025C" unicode="&#xf025c;" horiz-adv-x="945" 
d="M481.5 446.5q82.5 -38.5 187 -38.5t168.5 32l1 -2q141 56 273 241l105 -202q-121 -162 -286 -232l-668 -352l-132 185l309 158q-138 51 -240.5 163.5t-156.5 280.5l5 35q270 14 372 83q50 33 70.5 71t20.5 93.5t-31.5 89.5t-79.5 34t-74.5 -30.5t-26.5 -70.5t13 -87
l-196 -21q-32 64 -32 152q1 107 84 179t234.5 72t244 -92.5t92.5 -244.5t-105.5 -257t-279.5 -125q46 -76 128.5 -114.5z" />
    <glyph glyph-name="uF025D" unicode="&#xf025d;" horiz-adv-x="1086" 
d="M271 -263l87 173l524 -245l-90 -170zM64 527q0 175 124 273t365 98h75v198h-658v192h1146v-192h-225v-401h-285q-281 0 -281 -193q0 -88 64 -141t166 -54q-5 16 -5 46q1 64 49.5 105t146 41t171 -60t73.5 -135q0 -110 -131 -162l123 -285l-238 -48l-106 277l-490 -236
l-123 199l266 122q-106 55 -166.5 146.5t-60.5 209.5z" />
    <glyph glyph-name="uF025E" unicode="&#xf025e;" horiz-adv-x="834" 
d="M62 1028q0 123 87 198.5t236 75.5t242 -48l-29 -179q-73 29 -156 29q-53 0 -84.5 -32t-31.5 -89.5t55.5 -96t128.5 -38.5h176l17 -203h-136q-95 0 -142.5 -38.5t-47.5 -105.5t52.5 -106.5t137.5 -39.5q263 0 433 294l129 -223l-2 2q-96 -171 -288 -243l-682 -310
l-116 188l270 122q-102 47 -157.5 132t-56.5 194q-1 148 134 247q-79 45 -124 114.5t-45 155.5z" />
    <glyph glyph-name="uF025F" unicode="&#xf025f;" horiz-adv-x="682" 
d="M882 499l123 -174l-610 -399l-134 180zM285 263q-92 0 -166 107.5t-74 233.5q0 184 209 184h675v-220h-521v-163q0 -67 -31.5 -104.5t-91.5 -37.5zM768 1096h-798v192h798v-192z" />
    <glyph glyph-name="uF0260" unicode="&#xf0260;" horiz-adv-x="618" 
d="M101 826v271h-129v192h730v-192h-338v-337q0 -183 140 -183q80 0 152.5 40.5t119.5 105.5l102 -220l-9 -9l2 -2l-615 -554l-169 162l322 280q-144 29 -226 142.5t-82 303.5z" />
    <glyph glyph-name="uF0261" unicode="&#xf0261;" horiz-adv-x="1181" 
d="M676 0v317l-420 -380l-171 161l324 282q-144 29 -227 142.5t-83 302.5v271h-129v192h1278v-192h-310v-251q81 30 172 30q226 0 363 -163l-67 -206q-146 150 -291 150q-99 0 -177 -64v-592h-262zM508 576q104 0 168 71v449h-314v-337q0 -183 146 -183z" />
    <glyph glyph-name="uF0262" unicode="&#xf0262;" horiz-adv-x="724" 
d="M507 370v1q13 0 35 2l-180 329q-66 -53 -66 -143t60 -139.5t151 -49.5zM503 747v-1q-13 0 -21 -1l183 -329q75 54 75 142t-66 138.5t-171 50.5zM37 575q0 170 122 274t336 104t349.5 -114t135.5 -281q0 -135 -74.5 -232t-205.5 -139l-555 -278l-127 193l246 113
q-106 52 -166.5 146t-60.5 214zM786 1288v-192h-816v192h816z" />
    <glyph glyph-name="uF0263" unicode="&#xf0263;" horiz-adv-x="782" 
d="M476 493v-62q0 -60 -32 -93t-93 -33q-109 0 -205.5 84.5t-96.5 182.5q0 60 40.5 96.5t106.5 36.5h18v245q0 78 -27 115.5t-74 36.5q-35 0 -59.5 -8.5t-62.5 -32.5l-26 185q76 62 214 62t217.5 -90t79.5 -255v-257h489v-178l12 -108l-567 -497l-175 155l499 415h-258z" />
    <glyph glyph-name="uF0264" unicode="&#xf0264;" horiz-adv-x="800" 
d="M483 494v-62q0 -59 -34.5 -92.5t-96.5 -33.5q-114 0 -205.5 80t-91.5 187q0 60 41 96.5t106 36.5h18v390h-250v192h907v-192h-394v-390h518v-188l12 -84l-586 -511l-175 156l499 415h-268z" />
    <glyph glyph-name="uF0265" unicode="&#xf0265;" horiz-adv-x="749" 
d="M317 918q0 110 -104 176h-244v192h869v-192h-344q38 -40 60.5 -95t22.5 -114q0 -108 -65.5 -186t-170.5 -104q42 -69 106 -104t138 -35q104 0 182 50t156 173l119 -199q-81 -125 -203 -186l-588 -372l-138 175l297 181q-130 46 -229.5 152.5t-150.5 263.5l5 33
q282 25 282 191z" />
    <glyph glyph-name="uF0266" unicode="&#xf0266;" horiz-adv-x="482" 
d="M660 -334l-328 207l-317 -203l-131 162l379 236h126l393 -246zM722 441q-139 -66 -321.5 -66t-384.5 109l40 219q166 -82 326 -82q122 0 257 59zM521 1096h-551v192h551v-192z" />
    <glyph glyph-name="uF0267" unicode="&#xf0267;" horiz-adv-x="1078" 
d="M1233 446l148 -164l-626 -432l-153 167zM57 500q0 185 96.5 291.5t260.5 106.5q202 0 322 -137q115 134 282 134q105 0 187.5 -47.5t130.5 -122.5l-113 -178q-35 50 -84 83t-102 33q-68 0 -114 -64t-46 -186v-143h-256v178q-6 101 -52 157.5t-111 56.5t-106 -51
t-41 -142.5t36.5 -180.5t116.5 -194l-209 -78q-88 103 -143 231t-55 253zM1150 1096h-1180v192h1180v-192z" />
    <glyph glyph-name="uF0268" unicode="&#xf0268;" horiz-adv-x="1629" 
d="M971 -433l87 173l524 -245l-90 -170zM346.5 303.5q47.5 -59.5 126.5 -59.5t125.5 59t46.5 179q0 232 -179 232q-76 0 -121.5 -59.5t-45.5 -175.5t47.5 -175.5zM1138 715h-1q-72 0 -118.5 -59t-46.5 -174t46 -174t123.5 -59t121.5 61.5t44 175t-45 171.5t-124 58zM179 165
q-116 121 -116 319t106 313.5t291 115.5q110 0 199.5 -43.5t147.5 -117.5q56 79 139 121t181 42q17 0 43 -2v183h-1200v192h1689v-192h-226v-303q108 -119 108 -307.5t-88.5 -304.5t-249.5 -134l360 -225l-122 -156l-328 207l-317 -203l-131 162l364 227q-133 34 -216 139
q-49 -71 -134.5 -111t-200.5 -41q-183 -2 -299 119z" />
    <glyph glyph-name="uF0269" unicode="&#xf0269;" horiz-adv-x="724" 
d="M356 419.5q60 -49.5 156 -49.5t162 52.5t66 137.5t-66 135.5t-163.5 50.5t-156 -52t-58.5 -138.5t60 -136zM37 575q0 170 122 274t336 104t349.5 -114t135.5 -281q0 -127 -66 -220.5t-183 -139.5l-580 -289l-126 192l242 112q-107 51 -168.5 145.5t-61.5 216.5zM786 1288
v-192h-816v192h816z" />
    <glyph glyph-name="uF026A" unicode="&#xf026a;" horiz-adv-x="937" 
d="M365 991v-1q0 -89 113 -142q62 43 83 74t21 78.5t-30 77.5t-78.5 30t-78.5 -32t-30 -85zM817 586q-156 0 -285 31l-394 -241l-122 198l264 156q-152 115 -152 286q0 120 88.5 202t246 82t252 -87t94.5 -203.5t-72 -215.5q50 -2 79 -2h316l3 -32l6 4l17 -258l-698 -492
l-139 185l562 387h-66z" />
    <glyph glyph-name="uF026B" unicode="&#xf026b;" horiz-adv-x="601" 
d="M100 826v271h-129v192h730v-192h-248l263 -438q36 31 60 64l102 -220l-9 -9l2 -2l-615 -554l-170 162l322 280q-144 29 -226 142.5t-82 303.5zM363 760q0 -95 35 -139t96.5 -44t115.5 20l-247 413v-250z" />
    <glyph glyph-name="uF026C" unicode="&#xf026c;" horiz-adv-x="911" 
d="M401 870v227h-432v192h1027v-192h-332v-252q0 -71 -9 -116h463v-196l16 -20l-333 -341l-167 148l230 212h-307q-43 -40 -111 -63l268 -382l-203 -115l-535 754l183 131l148 -158v-1q48 13 71 54t23 118z" />
    <glyph glyph-name="uF026D" unicode="&#xf026d;" horiz-adv-x="1116" 
d="M239 -456l87 173l524 -245l-90 -170zM127 192q0 139 93 249q-131 100 -131 244q0 118 90 187.5t256 69.5h224v154h-688v192h1176v-192h-225v-358h-433q-138 0 -138 -96q0 -49 42 -82q92 36 198 36q199 0 325.5 -105t126.5 -256q0 -45 -5 -71.5t-22 -77.5l-216 23
q13 51 13 106.5t-31 97.5l-147 -259l-179 87l146 250h-9q-92 -2 -152.5 -63.5t-60.5 -156.5q0 -125 118.5 -187.5t383.5 -62.5l-30 -200q-355 0 -540 126t-185 345z" />
    <glyph glyph-name="uF026E" unicode="&#xf026e;" horiz-adv-x="981" 
d="M436 84q-193 0 -302.5 89t-109.5 239q0 101 64 187.5t174 152.5q-118 107 -118 265q0 120 90 201t250 81t253.5 -82.5t93.5 -205t-85 -217.5q45 -4 104 -4h419v-206h-43l117 -135l-332 -426l-175 121l355 440h-348q-198 0 -353 46q-115 -54 -162 -107.5t-47 -116
t38.5 -94.5t90.5 -32q-4 15 -4 39q0 67 48 106t140 39t156 -51.5t64 -125.5q-1 -94 -105 -149l93 -195l-216 -59l-89 202q-40 -2 -61 -2zM385 989v-1q0 -78 100 -131q62 34 88.5 67t26.5 78.5t-27.5 75t-76 29.5t-80 -32.5t-31.5 -85.5z" />
    <glyph glyph-name="uF026F" unicode="&#xf026f;" horiz-adv-x="936" 
d="M45.5 119q-78.5 46 -78.5 118.5t46.5 121t123.5 48.5q123 0 236 -116q58 16 91 60.5t33 115.5q0 85 -76.5 146t-195.5 61h-60v201h1017v-204h-4l82 -151l-384 -548l-179 117l423 582h-448q90 -97 90 -231t-66 -225.5t-187 -126.5l135 -167l-199 -95l-197 247
q-124 0 -202.5 46zM1023 1096h-1053v192h1053v-192z" />
    <glyph glyph-name="uF0270" unicode="&#xf0270;" horiz-adv-x="1183" 
d="M673 -1v195l-453 -287l-138 171l194 117q-107 46 -169 141t-62 225q0 171 106 267.5t280 96.5q144 0 242 -39v209h-680v192h1252v-192h-309v-255q77 32 177 32q226 0 363 -163l-67 -206q-146 150 -291 150q-103 0 -182 -67v-587h-263zM101 280v-189h-229v189h229z
M481 716q-79 0 -126 -45.5t-47 -127.5t46 -128t118 -46l1 -1q78 0 138 30l39 23q4 4 11.5 10t11.5 10v228q-82 47 -192 47z" />
    <glyph glyph-name="uF0271" unicode="&#xf0271;" horiz-adv-x="1300" 
d="M326 81v-189h-229v189h229zM1049.5 486.5q45.5 -41.5 117 -41.5t117.5 44t46 114.5t-45 115t-119 44.5t-118 -46t-44 -117.5t45.5 -113zM447 869v227h-476v192h1388v-192h-649v-231q0 -159 -55.5 -258t-177.5 -139l308 -368l-188 -135l-622 743l181 141l170 -156
q66 9 93.5 50t27.5 126zM760 616q0 158 105 253t284.5 94.5t294 -105.5t114.5 -263t-126 -263l-418 -403l-158 153l190 179q-130 33 -208 129.5t-78 225.5z" />
    <glyph glyph-name="uF0272" unicode="&#xf0272;" horiz-adv-x="665" 
d="M46 352h208q-84 31 -144 104t-60 152q0 61 39.5 98t108.5 37h34v354h-262v192h755v-192h-231v-605q0 -76 -39.5 -117t-111.5 -41q-35 0 -68 10v-182l-229 1v189zM847 515l133 -172l-578 -409l-139 176z" />
    <glyph glyph-name="uF0273" unicode="&#xf0273;" horiz-adv-x="949" 
d="M284 26v-189h-229v189h229zM375 70q-163 0 -333 75l42 197q127 -58 237 -58q83 1 133 47.5t50 133.5t-76.5 148t-196.5 61h-59v201h1016v-204h-509q90 -97 90 -237q0 -163 -104.5 -263.5t-289.5 -100.5zM1084 405l140 -155l-614 -457l-145 152zM1034 1096h-1064v192h1064
v-192z" />
    <glyph glyph-name="uF0274" unicode="&#xf0274;" horiz-adv-x="1118" 
d="M429 -434l87 173l524 -245l-90 -170zM135 78v-189h-229v189h229zM345 245q112 -34 207.5 -34t152.5 31t57 88q0 45 -32.5 72t-90.5 27q-122 0 -225 -59h-28q-123 43 -199.5 128.5t-76.5 201.5t85.5 183.5t256.5 67.5h211v143h-693v192h1178v-192h-226v-335h-451
q-119 0 -119 -94q0 -48 48 -81q130 51 256 51q169 0 265.5 -86.5t96.5 -226.5q0 -116 -83 -196.5t-241 -103.5l320 -200l-122 -156l-328 204l-317 -203l-131 162l308 192q-203 26 -342 111l56 203q95 -56 207 -90z" />
    <glyph glyph-name="uF0275" unicode="&#xf0275;" horiz-adv-x="1119" 
d="M452 -432l87 173l524 -245l-90 -170zM215 99v-189h-229v189h229zM166 194q-109 122 -109 306t133.5 297.5t376.5 113.5h94v184h-691v192h1179v-192h-225v-385h-317q-149 0 -221.5 -63.5t-72.5 -183t86 -190.5t228 -71q95 0 144.5 34t49.5 80q0 90 -113 90q-90 0 -195 -80
l-86 159q58 51 136 82t165 31q154 0 240.5 -78.5t86.5 -201.5t-86 -201.5t-253 -96.5l317 -198l-122 -156l-328 206l-317 -203l-131 162l323 201q-183 40 -292 162z" />
    <glyph glyph-name="uF0276" unicode="&#xf0276;" horiz-adv-x="682" 
d="M225 254v-189h-229v189h229zM882 499l123 -174l-610 -399l-134 180zM285 263q-92 0 -166 107.5t-74 233.5q0 184 209 184h675v-220h-521v-163q0 -67 -31.5 -104.5t-91.5 -37.5zM768 1096h-798v192h798v-192z" />
    <glyph glyph-name="uF0277" unicode="&#xf0277;" horiz-adv-x="1181" 
d="M676 0v317l-420 -380l-171 161l324 282q-144 29 -227 142.5t-83 302.5v271h-129v192h1278v-192h-310v-251q81 30 172 30q226 0 363 -163l-67 -206q-146 150 -291 150q-99 0 -177 -64v-592h-262zM230 418v-189h-229v189h229zM508 576q104 0 168 71v449h-314v-337
q0 -183 146 -183z" />
    <glyph glyph-name="uF0278" unicode="&#xf0278;" horiz-adv-x="749" 
d="M224 362v-189h-229v189h229zM317 918q0 110 -104 176h-244v192h869v-192h-344q38 -40 60.5 -95t22.5 -114q0 -108 -65.5 -186t-170.5 -104q42 -69 106 -104t138 -35q104 0 182 50t156 173l119 -199q-81 -125 -203 -186l-588 -372l-138 175l297 181q-130 46 -229.5 152.5
t-150.5 263.5l5 33q282 25 282 191z" />
    <glyph glyph-name="uF0279" unicode="&#xf0279;" horiz-adv-x="482" 
d="M334 90v-189h-229v189h229zM722 441q-139 -66 -321.5 -66t-384.5 109l40 219q166 -82 326 -82q122 0 257 59zM521 1096h-551v192h551v-192z" />
    <glyph glyph-name="uF027A" unicode="&#xf027a;" horiz-adv-x="1629" 
d="M971 -433l87 173l524 -245l-90 -170zM346 -13v-189h-229v189h229zM346.5 303.5q47.5 -59.5 126.5 -59.5t125.5 59t46.5 179q0 232 -179 232q-76 0 -121.5 -59.5t-45.5 -175.5t47.5 -175.5zM1138 715h-1q-72 0 -118.5 -59t-46.5 -174t46 -174t123.5 -59t121.5 61.5t44 175
t-45 171.5t-124 58zM179 165q-116 121 -116 319t106 313.5t291 115.5q110 0 199.5 -43.5t147.5 -117.5q56 79 139 121t181 42q17 0 43 -2v183h-1200v192h1689v-192h-226v-303q108 -119 108 -307.5t-88.5 -304.5t-249.5 -134l360 -225l-122 -156l-328 207l-317 -203l-131 162
l364 227q-133 34 -216 139q-49 -71 -134.5 -111t-200.5 -41q-183 -2 -299 119z" />
    <glyph glyph-name="uF027B" unicode="&#xf027b;" horiz-adv-x="1116" 
d="M626 -702h-1q-283 0 -541 220l77 185q239 -207 439 -207q85 0 129.5 30t44.5 83t-38 81t-109 28q-105 0 -198 -53l-50 142q-253 123 -253 384q0 143 96 247q-134 99 -134 247q0 118 90 187.5t256 69.5h223v154h-687v192h1176v-192h-226v-358h-432q-138 0 -138 -96
q0 -59 57 -92q81 22 160 22q196 0 313.5 -97t117.5 -240q0 -44 -5.5 -73t-23.5 -76l-242 23q16 63 16 103q0 69 -44.5 112.5t-127 41.5t-132.5 -56t-50 -139q0 -118 110 -183q115 -67 383 -67l-12 -75q65 -41 100 -105.5t35 -141.5q0 -135 -103 -218t-276 -83z" />
    <glyph glyph-name="uF027C" unicode="&#xf027c;" horiz-adv-x="1116" 
d="M564 -696q-170 0 -279 88.5t-109 235t124 227.5q-172 123 -172 336q0 143 96 247q-134 99 -134 247q0 118 90 187.5t256 69.5h223v154h-687v192h1176v-192h-226v-358h-432q-138 0 -138 -96q0 -59 57 -92q81 22 160 22q196 0 313.5 -97t117.5 -240q0 -44 -5.5 -73
t-23.5 -76l-242 23q16 63 16 103q0 69 -44.5 112.5t-127 41.5t-132.5 -56t-50 -139q0 -118 110 -183q115 -67 383 -67l-18 -118q135 -102 257 -293l-135 -142q-89 134 -169.5 213.5t-141.5 106t-128.5 26.5t-105.5 -31.5t-38 -83.5t44 -81.5t106 -29.5t149 14l21 -177h2
q-62 -21 -163 -21z" />
    <glyph glyph-name="uF027D" unicode="&#xf027d;" horiz-adv-x="1131" 
d="M112 191q0 146 89 252q-127 99 -127 242q0 118 90 187.5t256 69.5h252v154h-702v192h1191v-192h-226v-358h-462q-138 0 -138 -96q0 -46 37 -78q91 37 200 37q199 0 327 -96t128 -244v-77h-125q-58 0 -90.5 -24.5t-32.5 -71.5q0 -83 124 -83q66 0 143 25l20 -153
q-80 -31 -182 -31q-155 0 -246 66.5t-91 183.5q0 91 58.5 150.5t159.5 73.5q-44 80 -183 78q-96 -2 -157 -67t-61 -168q0 -239 345 -374l-107 -170q-490 207 -490 572z" />
    <glyph glyph-name="uF027E" unicode="&#xf027e;" horiz-adv-x="1131" 
d="M72 685q0 118 90 187.5t256 69.5h252v154h-702v192h1191v-192h-226v-358h-462q-138 0 -138 -96q0 -46 37 -78q91 37 200 37q196 0 322 -93.5t126 -230.5v-85h-116q-125 0 -125 -65.5t118 -65.5q72 0 142 20l22 -133q-76 -29 -183 -29h-4q-29 -12 -29 -45.5t24.5 -49
t68 -15.5t122.5 22l19 -119q-87 -29 -164 -29q-113 0 -185 52.5t-72 144.5q0 46 19 80q-116 58 -116 176q0 74 51 125.5t146 66.5q-42 72 -174 70q-96 -2 -157 -67t-61 -168q0 -230 283 -405l-151 -128q-183 108 -285 254t-101.5 299.5t89.5 259.5q-127 99 -127 242z" />
    <glyph glyph-name="uF027F" unicode="&#xf027f;" horiz-adv-x="1116" 
d="M626 -702v1q-283 0 -541 220l77 185q239 -207 439 -207q85 0 129.5 30t44.5 83t-38 81t-109 28q-105 0 -198 -53l-50 142q-253 123 -253 384q0 139 93 249q-131 100 -131 244q0 118 90 187.5t256 69.5h224v154h-688v192h1176v-192h-225v-358h-433q-138 0 -138 -96
q0 -49 42 -82q92 36 198 36q199 0 325.5 -105t126.5 -256q0 -45 -5 -71.5t-22 -77.5l-216 23q13 51 13 106.5t-31 97.5l-147 -259l-179 87l146 250h-9q-92 -2 -152.5 -63.5t-60.5 -156.5q0 -125 118.5 -187.5t383.5 -62.5l-12 -75q65 -41 100 -105.5t35 -141.5
q0 -135 -103 -218t-276 -83z" />
    <glyph glyph-name="uF0280" unicode="&#xf0280;" horiz-adv-x="1116" 
d="M286 -606.5q-109 88.5 -109 235t124 227.5q-172 123 -172 336q0 139 93 249q-131 100 -131 244q0 118 90 187.5t256 69.5h224v154h-688v192h1176v-192h-225v-358h-433q-138 0 -138 -96q0 -49 42 -82q92 36 198 36q199 0 325.5 -105t126.5 -256q0 -45 -5 -71.5t-22 -77.5
l-216 23q13 51 13 106.5t-31 97.5l-147 -259l-179 87l146 250h-9q-92 -2 -152.5 -63.5t-60.5 -156.5q0 -125 118.5 -187.5t383.5 -62.5l-18 -118q135 -102 257 -293l-135 -142q-89 134 -169.5 213.5t-141.5 106t-128.5 26.5t-105.5 -31.5t-38 -83.5t44 -81.5t106 -29.5
t149 14l21 -177q-61 -20 -160 -20q-170 0 -279 88.5z" />
    <glyph glyph-name="uF0281" unicode="&#xf0281;" horiz-adv-x="1246" 
d="M439 868v227h-469v192h1306v-192h-574v-229q68 16 132 16q153 0 246.5 -85t93.5 -228q0 -71 -27 -148t-69 -130l-237 34q91 129 91 250q0 55 -29.5 83.5t-79.5 28.5q-92 0 -184 -92q-58 -90 -168 -127l307 -368l-188 -136l-623 743l181 141l170 -156q63 7 92 48t29 128z
" />
    <glyph glyph-name="uF0282" unicode="&#xf0282;" horiz-adv-x="1450" 
d="M438 869v227h-469v192h1510v-192h-778v-216q76 58 200 58q78 0 143 -21.5t127 -70.5q123 -97 215 -341l-154 -97q-111 271 -230 325q-33 15 -78 15t-73 -26t-28 -71t34 -73t75 -28t97 7l27 -166q-45 -21 -111 -21q-123 0 -208 53t-115 147q-58 -71 -151 -102l307 -368
l-189 -135l-623 743l181 141l170 -156q63 7 92 48t29 128z" />
    <glyph glyph-name="uF0283" unicode="&#xf0283;" horiz-adv-x="1246" 
d="M325 80v-189h-229v189h229zM439 868v227h-469v192h1306v-192h-574v-229q68 16 132 16q153 0 246.5 -85t93.5 -228q0 -71 -27 -148t-69 -130l-237 34q91 129 91 250q0 55 -29.5 83.5t-79.5 28.5q-92 0 -184 -92q-58 -90 -168 -127l307 -368l-188 -136l-623 743l181 141
l170 -156q63 7 92 48t29 128z" />
    <glyph glyph-name="uF0284" unicode="&#xf0284;" horiz-adv-x="1450" 
d="M316 81v-189h-229v189h229zM438 869v227h-469v192h1510v-192h-778v-216q76 58 200 58q78 0 143 -21.5t127 -70.5q123 -97 215 -341l-154 -97q-111 271 -230 325q-33 15 -78 15t-73 -26t-28 -71t34 -73t75 -28t97 7l27 -166q-45 -21 -111 -21q-123 0 -208 53t-115 147
q-58 -71 -151 -102l307 -368l-189 -135l-623 743l181 141l170 -156q63 7 92 48t29 128z" />
    <glyph glyph-name="uF0285" unicode="&#xf0285;" horiz-adv-x="1086" 
d="M704 -613h-1q-283 0 -541 220l77 185q239 -207 439 -207q85 0 129.5 30t44.5 83t-38 81t-109 28q-105 0 -198 -53l-59 168q91 58 226 69l-43 111h-30q-153 0 -274.5 51.5t-192 149t-70.5 224.5q0 175 124 273t365 98h75v198h-658v192h1146v-192h-225v-401h-285
q-281 0 -281 -193q0 -88 64 -141t166 -54q-5 16 -5 46q1 64 49.5 105t146 41t171 -60t73.5 -135q0 -110 -131 -162l90 -208q65 -41 99.5 -105t34.5 -141q0 -135 -103 -218t-276 -83z" />
    <glyph glyph-name="uF0286" unicode="&#xf0286;" horiz-adv-x="1086" 
d="M913 -615l1 1h-1v-1zM751 -635q-170 0 -279 88.5t-109 230.5q0 122 84.5 201t234.5 89l-50 128h-30q-153 0 -274.5 51.5t-192 149t-70.5 224.5q0 175 124 273t365 98h75v198h-658v192h1146v-192h-225v-401h-285q-281 0 -281 -193q0 -88 64 -141t166 -54q-5 16 -5 46
q1 64 49.5 105t146 41t171 -60t73.5 -135q0 -110 -131 -162l95 -219q192 -94 356 -353l-135 -142q-89 134 -169.5 213.5t-141.5 106t-128.5 26.5t-105.5 -31.5t-38 -83.5t43.5 -81.5t106 -29.5t149.5 14l21 -176q-62 -21 -162 -21z" />
    <glyph glyph-name="uF0287" unicode="&#xf0287;" horiz-adv-x="1072" 
d="M591 -107v1q-217 0 -346 92.5t-129 253.5q0 138 113 226q-129 80 -129 222q0 114 90 183.5t265 69.5h163v154h-648v192h1132v-192h-225v-338h-368q-143 0 -143 -96q0 -43 40.5 -69t146.5 -31h259l10 -205h-229q-108 0 -158.5 -35t-50.5 -94t58 -92t152 -33q164 0 315 57
l19 -209q-127 -57 -337 -57z" />
    <glyph glyph-name="uF0288" unicode="&#xf0288;" horiz-adv-x="1554" 
d="M489 86q-211 0 -335.5 94.5t-124.5 243.5q0 197 231 329q-117 107 -117 264q0 120 90 201t250 81t253.5 -82.5t93.5 -205t-85 -217.5q45 -4 104 -4h245v304h-166v192h655v-192h-226v-1096h-263v586h-252q-198 0 -353 46q-113 -53 -154 -102.5t-41 -112.5t49 -98t120 -35
q-4 15 -4 38q0 68 48.5 107.5t140 39.5t159.5 -52.5t67 -125.5q-2 -92 -112 -148l94 -196l-218 -60l-89 203q-40 -2 -60 -2zM385 989v-1q0 -78 100 -131q62 34 88.5 67t26.5 78.5t-27.5 75t-76 29.5t-80 -32.5t-31.5 -85.5z" />
    <glyph glyph-name="uF0289" unicode="&#xf0289;" horiz-adv-x="1431" 
d="M59 120q-78 46 -78 118.5t46.5 121t123.5 48.5q121 0 235 -114q55 16 86.5 59.5t31.5 113.5q0 85 -76.5 146t-196.5 61h-59v201h805v221h-1007v192h1491v-192h-225v-1096h-259v671h-298q90 -97 90 -231.5t-63.5 -226t-182.5 -125.5l134 -167l-199 -95l-197 248
q-124 0 -202 46z" />
    <glyph glyph-name="uF028A" unicode="&#xf028a;" horiz-adv-x="1801" 
d="M280 242q-52 132 -52 244t38 194h-219v216h828v200h-905v192h1861v-192h-694v-247q85 23 169 23q182 0 297 -108.5t115 -286.5q0 -98 -36 -198.5t-103 -182.5l-249 49q126 176 126 332q0 83 -46 131t-122.5 48t-150.5 -45v-611h-262v680h-134q-124 0 -188.5 -63
t-64.5 -166q0 -177 157 -382l-215 -78v-1q-98 120 -150 252z" />
    <glyph glyph-name="uF028B" unicode="&#xf028b;" horiz-adv-x="1332" 
d="M280 242q-52 132 -52 244t38 194h-219v216h828v200h-905v192h1393v-192h-226v-1096h-262v680h-134q-124 0 -188.5 -63t-64.5 -166q0 -177 157 -382l-215 -78v-1q-98 120 -150 252z" />
    </font>
</defs>
</svg>
